<svg xmlns="http://www.w3.org/2000/svg" viewBox="0 0 1442.5 424.89"><defs><style>.cls-1,.cls-17{fill:#2ca8f8;}.cls-2{fill:#f1f0ee;}.cls-3{fill:#6cdffb;}.cls-16,.cls-4{fill:#1790e2;}.cls-5{fill:#235fda;}.cls-6{fill:#1b479e;}.cls-7{fill:#98a4a9;}.cls-8{fill:#a6beef;}.cls-9{fill:#fff;}.cls-10{fill:#eb5b55;}.cls-11{fill:#4f1a2d;}.cls-12{fill:#34255a;}.cls-13{fill:#d6d6d8;}.cls-14{fill:#5c6c78;}.cls-15{fill:#2c3746;}.cls-16{opacity:0.5;}.cls-17{opacity:0.4;}.cls-18{fill:#586c79;}.cls-19{fill:#2a3747;}.cls-20{fill:#96a5ab;}.cls-21{fill:#ee6928;}.cls-22{fill:#9d1b32;}.cls-23{fill:#f1c18d;}.cls-24{fill:#d2d5d8;}.cls-25{fill:#abbac6;}.cls-26{fill:#9bb8d1;}.cls-27{fill:#f5c456;}.cls-28{fill:#182028;}</style></defs><g id="Layer_2" data-name="Layer 2"><g id="Layer_1-2" data-name="Layer 1"><polygon class="cls-1" points="1442.5 421.24 1.07 424.89 0.56 69.33 1441.99 65.68 1442.5 421.24"/><rect class="cls-2" x="505.45" y="67.5" width="80" height="5"/><rect class="cls-2" x="630.45" y="67.5" width="80" height="5"/><rect class="cls-2" x="930.45" y="67.5" width="80" height="5"/><rect class="cls-2" x="760.45" y="67.5" width="35" height="5"/><rect class="cls-3" x="420.45" y="67.5" width="80" height="5"/><rect class="cls-3" x="125.45" y="67.5" width="80" height="5"/><rect class="cls-2" x="335.45" y="67.5" width="42" height="5"/><rect class="cls-4" y="192.5" width="1442.15" height="231.34"/><rect class="cls-5" y="372.5" width="1442.15" height="51.34"/><rect class="cls-2" x="225.45" y="67.5" width="80" height="5"/><rect class="cls-5" x="489.45" y="182.5" width="40" height="5"/><rect class="cls-5" x="390.45" y="367.5" width="25" height="5"/><rect class="cls-4" x="395.45" y="177.5" width="145" height="5"/><rect class="cls-4" x="360.45" y="182.5" width="205" height="5"/><rect class="cls-1" x="310.45" y="197.5" width="35" height="5"/><rect class="cls-4" x="285.45" y="187.5" width="35" height="5"/><rect class="cls-1" x="250.45" y="202.5" width="35" height="5"/><rect class="cls-1" x="205.45" y="227.5" width="20" height="5"/><rect class="cls-1" x="230.45" y="217.5" width="35" height="5"/><rect class="cls-1" x="235.45" y="197.5" width="10" height="5"/><rect class="cls-4" x="250.45" y="182.5" width="10" height="5"/><rect class="cls-4" x="235.45" y="177.5" width="10" height="5"/><rect class="cls-4" x="210.45" y="172.5" width="15" height="5"/><rect class="cls-4" x="110.45" y="132.5" width="15" height="5"/><rect class="cls-1" x="215.45" y="192.5" width="10" height="5"/><rect class="cls-1" x="95.45" y="202.5" width="10" height="5"/><rect class="cls-1" x="185.45" y="197.5" width="20" height="5"/><rect class="cls-1" x="110.45" y="197.5" width="20" height="5"/><rect class="cls-1" x="75.45" y="192.5" width="15" height="5"/><rect class="cls-4" x="265.45" y="187.5" width="10" height="5"/><rect class="cls-4" x="415.45" y="167.5" width="155" height="5"/><rect class="cls-4" x="445.45" y="172.5" width="100" height="5"/><rect class="cls-4" x="570.45" y="137.5" width="40" height="5"/><rect class="cls-4" x="645.45" y="142.5" width="40" height="5"/><rect class="cls-4" x="620.45" y="127.5" width="40" height="5"/><rect class="cls-4" x="765.45" y="142.5" width="40" height="5"/><rect class="cls-4" x="400.45" y="152.5" width="60" height="5"/><rect class="cls-4" x="680.45" y="152.5" width="40" height="5"/><rect class="cls-4" x="795.45" y="167.5" width="40" height="5"/><rect class="cls-5" x="495.45" y="357.5" width="155" height="5"/><rect class="cls-5" x="520.45" y="367.5" width="155" height="5"/><rect class="cls-5" x="750.45" y="367.5" width="155" height="5"/><rect class="cls-5" x="1045.45" y="337.5" width="30" height="5"/><rect class="cls-5" x="275.45" y="377.5" width="155" height="5"/><rect class="cls-5" x="685.45" y="357.5" width="40" height="5"/><rect class="cls-5" x="585.45" y="302.5" width="40" height="5"/><rect class="cls-5" x="300.45" y="262.5" width="55" height="5"/><rect class="cls-5" x="415.45" y="322.5" width="55" height="5"/><rect class="cls-5" x="425.45" y="167.5" width="40" height="5"/><rect class="cls-5" x="140.45" y="297.5" width="40" height="5"/><rect class="cls-5" x="770.45" y="232.5" width="40" height="5"/><rect class="cls-4" x="515.45" y="147.5" width="40" height="5"/><rect class="cls-4" x="480.45" y="152.5" width="40" height="5"/><rect class="cls-3" x="235.45" y="157.5" width="80" height="5"/><rect class="cls-3" x="150.45" y="107.5" width="45" height="5" transform="translate(345.9 220) rotate(180)"/><rect class="cls-3" x="525.45" y="77.5" width="25" height="5"/><rect class="cls-3" x="505.45" y="77.5" width="15" height="5"/><rect class="cls-3" x="485.45" y="87.5" width="15" height="5"/><rect class="cls-3" x="360.45" y="112.5" width="35" height="5"/><rect class="cls-3" x="340.45" y="122.5" width="10" height="5"/><rect class="cls-3" x="305.45" y="122.5" width="10" height="5"/><rect class="cls-4" x="265.45" y="177.5" width="80" height="5"/><rect class="cls-4" x="125.45" y="182.5" width="80" height="5"/><rect class="cls-4" x="195.45" y="187.5" width="50" height="5"/><rect class="cls-1" x="145.45" y="207.5" width="50" height="5"/><rect class="cls-1" x="75.45" y="312.5" width="50" height="5"/><rect class="cls-1" x="210.45" y="272.5" width="25" height="5"/><rect class="cls-1" x="135.45" y="242.5" width="25" height="5"/><rect class="cls-1" x="305.45" y="222.5" width="80" height="5"/><rect class="cls-1" x="215.45" y="287.5" width="80" height="5"/><rect class="cls-1" x="290.45" y="312.5" width="40" height="5"/><rect class="cls-3" x="325.45" y="237.5" width="45" height="5"/><rect class="cls-3" x="180.45" y="267.5" width="45" height="5"/><rect class="cls-1" x="325.45" y="322.5" width="20" height="5"/><rect class="cls-1" x="175.45" y="352.5" width="110" height="5"/><rect class="cls-1" x="610.45" y="347.5" width="30" height="5"/><rect class="cls-1" x="695.45" y="377.5" width="30" height="5"/><rect class="cls-1" x="555.45" y="352.5" width="45" height="5"/><rect class="cls-1" x="585.45" y="362.5" width="30" height="5"/><rect class="cls-1" x="505.45" y="377.5" width="110" height="5"/><rect class="cls-4" x="660.45" y="382.5" width="15" height="5"/><rect class="cls-4" x="625.45" y="372.5" width="15" height="5"/><rect class="cls-4" x="650.45" y="372.5" width="5" height="5"/><rect class="cls-1" x="745.45" y="387.5" width="50" height="5"/><rect class="cls-1" x="765.45" y="377.5" width="50" height="5"/><rect class="cls-1" x="405.45" y="367.5" width="100" height="5"/><rect class="cls-4" x="440.45" y="377.5" width="50" height="5"/><rect class="cls-4" x="420.45" y="377.5" width="10" height="5"/><rect class="cls-5" x="285.45" y="362.5" width="110" height="5"/><rect class="cls-5" x="340.45" y="367.5" width="30" height="5"/><rect class="cls-4" x="345.45" y="367.5" width="15" height="5"/><rect class="cls-4" x="320.45" y="362.5" width="10" height="5"/><rect class="cls-5" x="340.45" y="357.5" width="25" height="5"/><rect class="cls-5" x="355.45" y="352.5" width="25" height="5"/><rect class="cls-5" x="385.45" y="352.5" width="25" height="5"/><rect class="cls-5" x="450.45" y="352.5" width="25" height="5"/><rect class="cls-5" x="480.45" y="347.5" width="25" height="5"/><rect class="cls-5" x="510.45" y="342.5" width="25" height="5"/><rect class="cls-5" x="520.45" y="352.5" width="25" height="5"/><rect class="cls-5" x="545.45" y="362.5" width="25" height="5"/><rect class="cls-5" x="410.45" y="342.5" width="25" height="5"/><rect class="cls-5" x="415.45" y="352.5" width="5" height="5"/><rect class="cls-5" x="435.45" y="357.5" width="5" height="5"/><rect class="cls-5" x="475.45" y="357.5" width="5" height="5"/><rect class="cls-5" x="505.45" y="352.5" width="5" height="5"/><rect class="cls-5" x="535.45" y="362.5" width="5" height="5"/><rect class="cls-5" x="470.45" y="342.5" width="5" height="5"/><rect class="cls-4" x="555.45" y="367.5" width="5" height="5"/><rect class="cls-5" x="400.45" y="357.5" width="5" height="5"/><rect class="cls-5" x="400.45" y="342.5" width="5" height="5"/><rect class="cls-5" x="410.45" y="362.5" width="25" height="5"/><rect class="cls-5" x="425.45" y="367.5" width="25" height="5"/><rect class="cls-5" x="470.45" y="367.5" width="25" height="5"/><rect class="cls-5" x="500.45" y="362.5" width="25" height="5"/><rect class="cls-5" x="660.45" y="362.5" width="45" height="5"/><rect class="cls-5" x="735.45" y="357.5" width="45" height="5"/><rect class="cls-5" x="660.45" y="352.5" width="10" height="5"/><rect class="cls-5" x="700.45" y="367.5" width="10" height="5"/><rect class="cls-5" x="710.45" y="362.5" width="20" height="5"/><rect class="cls-5" x="645.45" y="362.5" width="10" height="5"/><rect class="cls-5" x="645.45" y="347.5" width="10" height="5"/><rect class="cls-5" x="625.45" y="362.5" width="10" height="5"/><rect class="cls-5" x="600.45" y="362.5" width="10" height="5"/><rect class="cls-5" x="585.45" y="377.5" width="10" height="5"/><rect class="cls-4" x="620.45" y="382.5" width="10" height="5"/><rect class="cls-4" x="570.45" y="377.5" width="10" height="5"/><rect class="cls-5" x="640.45" y="337.5" width="10" height="5"/><rect class="cls-5" x="605.45" y="352.5" width="10" height="5"/><rect class="cls-5" x="575.45" y="347.5" width="10" height="5"/><rect class="cls-5" x="625.45" y="347.5" width="10" height="5"/><rect class="cls-5" x="585.45" y="342.5" width="10" height="5"/><rect class="cls-5" x="620.45" y="342.5" width="10" height="5"/><rect class="cls-5" x="560.45" y="352.5" width="20" height="5"/><rect class="cls-5" x="620.45" y="352.5" width="5" height="5"/><rect class="cls-5" x="600.45" y="347.5" width="5" height="5"/><rect class="cls-5" x="625.45" y="332.5" width="5" height="5"/><rect class="cls-5" x="460.45" y="362.5" width="25" height="5"/><rect class="cls-5" x="310.45" y="367.5" width="25" height="5"/><rect class="cls-5" x="185.45" y="367.5" width="25" height="5"/><rect class="cls-1" x="200.45" y="367.5" width="100" height="5"/><rect class="cls-5" x="80.45" y="362.5" width="110" height="5"/><rect class="cls-5" x="135.45" y="367.5" width="30" height="5"/><rect class="cls-4" x="115.45" y="362.5" width="10" height="5"/><rect class="cls-5" x="135.45" y="357.5" width="25" height="5"/><rect class="cls-5" x="150.45" y="352.5" width="25" height="5"/><rect class="cls-5" x="180.45" y="352.5" width="25" height="5"/><rect class="cls-5" x="245.45" y="352.5" width="25" height="5"/><rect class="cls-5" x="270.45" y="357.5" width="5" height="5"/><rect class="cls-5" x="205.45" y="362.5" width="25" height="5"/><rect class="cls-5" x="220.45" y="367.5" width="25" height="5"/><rect class="cls-5" x="265.45" y="367.5" width="25" height="5"/><rect class="cls-5" x="255.45" y="362.5" width="25" height="5"/><rect class="cls-5" x="105.45" y="367.5" width="25" height="5"/><rect class="cls-5" x="0.45" y="367.5" width="5" height="5"/><rect class="cls-5" x="0.45" y="352.5" width="25" height="5"/><rect class="cls-1" x="10.45" y="367.5" width="85" height="5"/><rect class="cls-1" x="45.45" y="342.5" width="30" height="5"/><rect class="cls-1" x="80.45" y="377.5" width="15" height="5"/><rect class="cls-1" x="140.45" y="362.5" width="15" height="5"/><rect class="cls-5" x="115.45" y="347.5" width="55" height="5"/><rect class="cls-5" x="75.45" y="347.5" width="30" height="5"/><rect class="cls-4" x="115.45" y="372.5" width="10" height="5"/><rect class="cls-4" x="150.45" y="377.5" width="20" height="5"/><rect class="cls-4" x="20.45" y="372.5" width="10" height="5"/><rect class="cls-5" x="210.45" y="342.5" width="25" height="5"/><rect class="cls-5" x="25.45" y="357.5" width="25" height="5"/><rect class="cls-5" x="90.45" y="352.5" width="25" height="5"/><rect class="cls-5" x="105.45" y="357.5" width="25" height="5"/><rect class="cls-5" x="40.45" y="352.5" width="25" height="5"/><rect class="cls-5" x="65.45" y="357.5" width="5" height="5"/><rect class="cls-5" x="15.45" y="357.5" width="5" height="5"/><rect class="cls-5" x="0.45" y="357.5" width="5" height="5"/><rect class="cls-5" x="10.45" y="347.5" width="5" height="5"/><rect class="cls-5" x="130.45" y="352.5" width="5" height="5"/><rect class="cls-5" x="110.45" y="337.5" width="5" height="5"/><rect class="cls-5" x="60.45" y="342.5" width="5" height="5"/><rect class="cls-5" x="55.45" y="337.5" width="5" height="5"/><rect class="cls-5" x="0.45" y="362.5" width="25" height="5"/><rect class="cls-5" x="15.45" y="367.5" width="25" height="5"/><rect class="cls-5" x="60.45" y="367.5" width="25" height="5"/><rect class="cls-5" x="50.45" y="362.5" width="25" height="5"/><rect class="cls-5" x="315.45" y="352.5" width="25" height="5"/><rect class="cls-4" x="345.45" y="392.5" width="20" height="5"/><rect class="cls-4" x="375.45" y="382.5" width="20" height="5"/><rect class="cls-5" x="330.45" y="337.5" width="20" height="5"/><rect class="cls-5" x="290.45" y="347.5" width="20" height="5"/><rect class="cls-1" x="505.45" y="317.5" width="110" height="5"/><rect class="cls-1" x="450.45" y="277.5" width="80" height="5"/><rect class="cls-4" x="410.45" y="187.5" width="155" height="5"/><rect class="cls-5" x="85.45" y="167.5" width="70" height="5"/><rect class="cls-5" x="65.45" y="242.5" width="70" height="5"/><rect class="cls-5" x="250.45" y="162.5" width="15" height="5"/><rect class="cls-4" x="350.45" y="122.5" width="25" height="5"/><rect class="cls-5" x="355.45" y="122.5" width="15" height="5"/><rect class="cls-5" x="265.45" y="237.5" width="15" height="5"/><rect class="cls-5" x="495.45" y="147.5" width="15" height="5"/><rect class="cls-5" x="545.45" y="197.5" width="15" height="5"/><rect class="cls-2" x="420.45" y="212.5" width="5" height="5"/><rect class="cls-2" x="145.45" y="207.5" width="5" height="5"/><rect class="cls-2" x="195.45" y="107.5" width="5" height="5"/><rect class="cls-2" x="490.45" y="357.5" width="5" height="5"/><rect class="cls-2" x="465.45" y="342.5" width="5" height="5"/><rect class="cls-1" x="380.45" y="332.5" width="5" height="5"/><rect class="cls-2" x="295.45" y="117.5" width="5" height="5"/><rect class="cls-2" x="355.45" y="112.5" width="5" height="5"/><rect class="cls-2" x="445.45" y="197.5" width="5" height="5"/><rect class="cls-2" x="515.45" y="167.5" width="5" height="5"/><rect class="cls-2" x="230.45" y="157.5" width="5" height="5"/><rect class="cls-2" x="105.45" y="127.5" width="5" height="5"/><rect class="cls-2" x="250.45" y="127.5" width="5" height="5"/><rect class="cls-2" x="530.45" y="122.5" width="5" height="5"/><rect class="cls-2" x="600.45" y="97.5" width="5" height="5"/><rect class="cls-2" x="515.45" y="97.5" width="5" height="5"/><rect class="cls-4" x="480.45" y="87.5" width="5" height="5"/><rect class="cls-4" x="455.45" y="92.5" width="40" height="5"/><rect class="cls-4" x="375.45" y="92.5" width="40" height="5"/><rect class="cls-2" x="490.45" y="127.5" width="5" height="5"/><rect class="cls-3" x="380.45" y="197.5" width="25" height="5"/><rect class="cls-3" x="390.45" y="302.5" width="25" height="5"/><rect class="cls-4" x="335.45" y="147.5" width="25" height="5"/><rect class="cls-4" x="390.45" y="142.5" width="25" height="5"/><rect class="cls-4" x="365.45" y="167.5" width="25" height="5"/><rect class="cls-4" x="355.45" y="167.5" width="5" height="5"/><rect class="cls-4" x="380.45" y="172.5" width="25" height="5"/><rect class="cls-4" x="315.45" y="122.5" width="25" height="5"/><rect class="cls-4" x="270.45" y="127.5" width="60" height="5"/><rect class="cls-4" x="160.45" y="112.5" width="60" height="5"/><rect class="cls-4" x="300.45" y="77.5" width="60" height="5"/><rect class="cls-4" x="180.45" y="162.5" width="70" height="5"/><rect class="cls-4" x="580.45" y="162.5" width="70" height="5"/><rect class="cls-4" x="520.45" y="87.5" width="30" height="5"/><rect class="cls-4" x="334.45" y="157.5" width="30" height="5"/><rect class="cls-4" x="570.45" y="177.5" width="10" height="5"/><rect class="cls-4" x="575.45" y="182.5" width="25" height="5"/><rect class="cls-4" x="575.45" y="167.5" width="10" height="5"/><rect class="cls-4" x="555.45" y="172.5" width="10" height="5"/><rect class="cls-4" x="565.45" y="152.5" width="35" height="5"/><rect class="cls-4" x="650.45" y="167.5" width="45" height="5"/><rect class="cls-4" x="550.45" y="177.5" width="10" height="5"/><rect class="cls-4" x="610.45" y="167.5" width="30" height="5"/><rect class="cls-4" x="630.45" y="157.5" width="25" height="5"/><rect class="cls-4" x="595.45" y="147.5" width="25" height="5"/><rect class="cls-4" x="665.45" y="172.5" width="25" height="5"/><rect class="cls-4" x="720.45" y="182.5" width="25" height="5"/><rect class="cls-4" x="735.45" y="162.5" width="25" height="5"/><rect class="cls-4" x="725.45" y="167.5" width="25" height="5"/><rect class="cls-4" x="765.45" y="167.5" width="25" height="5"/><rect class="cls-4" x="585.45" y="172.5" width="30" height="5"/><rect class="cls-1" x="525.45" y="187.5" width="20" height="5"/><rect class="cls-1" x="510.45" y="197.5" width="20" height="5"/><rect class="cls-1" x="495.45" y="172.5" width="20" height="5"/><rect class="cls-1" x="410.45" y="227.5" width="20" height="5"/><rect class="cls-3" x="420.45" y="247.5" width="25" height="5"/><rect class="cls-1" x="455.45" y="217.5" width="20" height="5"/><rect class="cls-4" x="590.45" y="177.5" width="30" height="5"/><rect class="cls-4" x="570.45" y="187.5" width="50" height="5"/><rect class="cls-4" x="45.45" y="187.5" width="70" height="5"/><rect class="cls-4" x="5.45" y="182.5" width="70" height="5"/><rect class="cls-4" x="620.45" y="172.5" width="40" height="5"/><rect class="cls-4" x="605.45" y="182.5" width="50" height="5"/><rect class="cls-4" x="665.45" y="182.5" width="50" height="5"/><rect class="cls-4" x="710.45" y="177.5" width="50" height="5"/><rect class="cls-4" x="630.45" y="187.5" width="50" height="5"/><rect class="cls-4" x="635.45" y="177.5" width="65" height="5"/><rect class="cls-4" x="690.45" y="187.5" width="65" height="5"/><rect class="cls-1" x="620.45" y="197.5" width="40" height="5"/><rect class="cls-1" x="675.45" y="207.5" width="40" height="5"/><rect class="cls-1" x="585.45" y="217.5" width="40" height="5"/><rect class="cls-4" x="545.45" y="132.5" width="10" height="5"/><rect class="cls-4" x="680.45" y="162.5" width="40" height="5"/><rect class="cls-5" x="525.45" y="137.5" width="15" height="5"/><rect class="cls-1" x="1110.45" y="272.5" width="15" height="5" transform="translate(2235.9 550) rotate(-180)"/><rect class="cls-5" x="1020.45" y="367.5" width="25" height="5" transform="translate(2065.9 740) rotate(-180)"/><rect class="cls-4" x="885.45" y="177.5" width="155" height="5" transform="translate(1925.9 360) rotate(-180)"/><rect class="cls-4" x="870.45" y="182.5" width="205" height="5" transform="translate(1945.9 370) rotate(-180)"/><rect class="cls-1" x="1090.45" y="197.5" width="35" height="5" transform="translate(2215.9 400) rotate(-180)"/><rect class="cls-4" x="1115.45" y="187.5" width="35" height="5" transform="translate(2265.9 380) rotate(-180)"/><rect class="cls-1" x="1150.45" y="202.5" width="35" height="5" transform="translate(2335.9 410) rotate(-180)"/><rect class="cls-1" x="1190.45" y="197.5" width="10" height="5" transform="translate(2390.9 400) rotate(-180)"/><rect class="cls-1" x="1245.45" y="197.5" width="25" height="5" transform="translate(2515.9 400) rotate(-180)"/><rect class="cls-1" x="1295.45" y="217.5" width="25" height="5" transform="translate(2615.9 440) rotate(-180)"/><rect class="cls-1" x="1350.45" y="202.5" width="25" height="5" transform="translate(2725.9 410) rotate(-180)"/><rect class="cls-4" x="1175.45" y="182.5" width="10" height="5" transform="translate(2360.9 370) rotate(-180)"/><rect class="cls-5" x="1080.45" y="187.5" width="10" height="5" transform="translate(2170.9 380) rotate(-180)"/><rect class="cls-4" x="1270.45" y="177.5" width="10" height="5" transform="translate(2550.9 360) rotate(-180)"/><rect class="cls-4" x="1255.45" y="167.5" width="10" height="5" transform="translate(2520.9 340) rotate(-180)"/><rect class="cls-4" x="1345.45" y="142.5" width="10" height="5" transform="translate(2700.9 290) rotate(-180)"/><rect class="cls-4" x="1335.45" y="182.5" width="35" height="5" transform="translate(2705.9 370) rotate(-180)"/><rect class="cls-1" x="1305.45" y="192.5" width="10" height="5" transform="translate(2620.9 390) rotate(-180)"/><rect class="cls-3" x="1290.45" y="182.5" width="5" height="5" transform="translate(2585.9 370) rotate(-180)"/><rect class="cls-3" x="1250.45" y="112.5" width="5" height="5" transform="translate(2505.9 230) rotate(-180)"/><rect class="cls-3" x="1280.45" y="122.5" width="5" height="5" transform="translate(2565.9 250) rotate(-180)"/><rect class="cls-3" x="1370.45" y="117.5" width="20" height="5" transform="translate(2760.9 240) rotate(-180)"/><rect class="cls-3" x="1315.45" y="92.5" width="10" height="5" transform="translate(2640.9 190) rotate(-180)"/><rect class="cls-4" x="1320.45" y="182.5" width="10" height="5" transform="translate(2650.9 370) rotate(-180)"/><rect class="cls-4" x="1395.45" y="182.5" width="10" height="5" transform="translate(2800.9 370) rotate(-180)"/><rect class="cls-4" x="1415.45" y="167.5" width="10" height="5" transform="translate(2840.9 340) rotate(-180)"/><rect class="cls-4" x="1410.45" y="177.5" width="10" height="5" transform="translate(2830.9 360) rotate(-180)"/><rect class="cls-4" x="1395.45" y="172.5" width="5" height="5" transform="translate(2795.9 350) rotate(-180)"/><rect class="cls-4" x="1430.45" y="177.5" width="5" height="5" transform="translate(2865.9 360) rotate(-180)"/><rect class="cls-4" x="1375.45" y="187.5" width="10" height="5" transform="translate(2760.9 380) rotate(-180)"/><rect class="cls-4" x="1380.45" y="182.5" width="10" height="5" transform="translate(2770.9 370) rotate(-180)"/><rect class="cls-4" x="1295.45" y="187.5" width="30" height="5" transform="translate(2620.9 380) rotate(-180)"/><rect class="cls-4" x="1355.45" y="177.5" width="30" height="5" transform="translate(2740.9 360) rotate(-180)"/><rect class="cls-4" x="1330.45" y="187.5" width="30" height="5" transform="translate(2690.9 380) rotate(-180)"/><rect class="cls-4" x="1400.45" y="187.5" width="30" height="5" transform="translate(2830.9 380) rotate(-180)"/><rect class="cls-3" x="1230.45" y="232.5" width="10" height="5" transform="translate(2470.9 470) rotate(-180)"/><rect class="cls-2" x="1120.45" y="237.5" width="5" height="5" transform="translate(2245.9 480) rotate(-180)"/><rect class="cls-3" x="1285.45" y="217.5" width="10" height="5" transform="translate(2580.9 440) rotate(-180)"/><rect class="cls-1" x="1230.45" y="192.5" width="10" height="5" transform="translate(2470.9 390) rotate(-180)"/><rect class="cls-4" x="1160.45" y="187.5" width="10" height="5" transform="translate(2330.9 380) rotate(-180)"/><rect class="cls-4" x="1095.45" y="187.5" width="10" height="5" transform="translate(2200.9 380) rotate(-180)"/><rect class="cls-4" x="865.45" y="167.5" width="155" height="5" transform="translate(1885.9 340) rotate(-180)"/><rect class="cls-4" x="890.45" y="172.5" width="100" height="5" transform="translate(1880.9 350) rotate(-180)"/><rect class="cls-4" x="870.45" y="162.5" width="155" height="5" transform="translate(1895.9 330) rotate(-180)"/><rect class="cls-4" x="860.45" y="157.5" width="155" height="5" transform="translate(1875.9 320) rotate(-180)"/><rect class="cls-5" x="785.45" y="357.5" width="155" height="5" transform="translate(1725.9 720) rotate(-180)"/><rect class="cls-5" x="760.45" y="367.5" width="155" height="5" transform="translate(1675.9 740) rotate(-180)"/><rect class="cls-5" x="530.45" y="367.5" width="155" height="5" transform="translate(1215.9 740) rotate(-180)"/><rect class="cls-5" x="1005.45" y="377.5" width="155" height="5" transform="translate(2165.9 760) rotate(-180)"/><rect class="cls-5" x="830.45" y="327.5" width="15" height="5" transform="translate(1675.9 660) rotate(-180)"/><rect class="cls-5" x="870.45" y="337.5" width="15" height="5" transform="translate(1755.9 680) rotate(-180)"/><rect class="cls-5" x="810.45" y="302.5" width="40" height="5" transform="translate(1660.9 610) rotate(-180)"/><rect class="cls-5" x="695.45" y="287.5" width="40" height="5" transform="translate(1430.9 580) rotate(-180)"/><rect class="cls-5" x="1080.45" y="262.5" width="55" height="5" transform="translate(2215.9 530) rotate(-180)"/><rect class="cls-5" x="910.45" y="322.5" width="55" height="5" transform="translate(1875.9 650) rotate(-180)"/><rect class="cls-5" x="920.45" y="167.5" width="40" height="5" transform="translate(1880.9 340) rotate(-180)"/><rect class="cls-4" x="880.45" y="147.5" width="40" height="5" transform="translate(1800.9 300) rotate(-180)"/><rect class="cls-3" x="885.45" y="77.5" width="25" height="5" transform="translate(1795.9 160) rotate(-180)"/><rect class="cls-3" x="725.45" y="67.5" width="25" height="5" transform="translate(1475.9 140) rotate(-180)"/><rect class="cls-3" x="695.45" y="72.5" width="25" height="5" transform="translate(1415.9 150) rotate(-180)"/><rect class="cls-3" x="645.45" y="72.5" width="25" height="5" transform="translate(1315.9 150) rotate(-180)"/><rect class="cls-3" x="850.45" y="67.5" width="25" height="5" transform="translate(1725.9 140) rotate(-180)"/><rect class="cls-3" x="1030.45" y="67.5" width="25" height="5" transform="translate(2085.9 140) rotate(-180)"/><rect class="cls-3" x="915.45" y="77.5" width="15" height="5" transform="translate(1845.9 160) rotate(-180)"/><rect class="cls-3" x="935.45" y="87.5" width="15" height="5" transform="translate(1885.9 180) rotate(-180)"/><rect class="cls-3" x="1040.45" y="112.5" width="35" height="5" transform="translate(2115.9 230) rotate(-180)"/><rect class="cls-3" x="950.45" y="127.5" width="35" height="5" transform="translate(1935.9 260) rotate(-180)"/><rect class="cls-3" x="1085.45" y="122.5" width="10" height="5" transform="translate(2180.9 250) rotate(-180)"/><rect class="cls-3" x="1120.45" y="122.5" width="10" height="5" transform="translate(2250.9 250) rotate(-180)"/><rect class="cls-3" x="1040.45" y="177.5" width="10" height="5" transform="translate(2090.9 360) rotate(-180)"/><rect class="cls-4" x="1055.45" y="177.5" width="10" height="5" transform="translate(2120.9 360) rotate(-180)"/><rect class="cls-4" x="1105.45" y="177.5" width="15" height="5" transform="translate(2225.9 360) rotate(-180)"/><rect class="cls-1" x="1050.45" y="222.5" width="80" height="5" transform="translate(2180.9 450) rotate(-180)"/><rect class="cls-1" x="1035.45" y="307.5" width="20" height="5" transform="translate(2090.9 620) rotate(-180)"/><rect class="cls-1" x="1150.45" y="352.5" width="110" height="5" transform="translate(2410.9 710) rotate(-180)"/><rect class="cls-1" x="795.45" y="347.5" width="30" height="5" transform="translate(1620.9 700) rotate(-180)"/><rect class="cls-1" x="835.45" y="352.5" width="45" height="5" transform="translate(1715.9 710) rotate(-180)"/><rect class="cls-1" x="820.45" y="362.5" width="30" height="5" transform="translate(1670.9 730) rotate(-180)"/><rect class="cls-1" x="820.45" y="377.5" width="110" height="5" transform="translate(1750.9 760) rotate(-180)"/><rect class="cls-4" x="760.45" y="382.5" width="15" height="5" transform="translate(1535.9 770) rotate(-180)"/><rect class="cls-4" x="795.45" y="372.5" width="15" height="5" transform="translate(1605.9 750) rotate(-180)"/><rect class="cls-4" x="780.45" y="372.5" width="5" height="5" transform="translate(1565.9 750) rotate(-180)"/><rect class="cls-1" x="680.45" y="392.5" width="20" height="5" transform="translate(1380.9 790) rotate(-180)"/><rect class="cls-1" x="620.45" y="377.5" width="50" height="5" transform="translate(1290.9 760) rotate(-180)"/><rect class="cls-1" x="930.45" y="367.5" width="100" height="5" transform="translate(1960.9 740) rotate(-180)"/><rect class="cls-4" x="945.45" y="377.5" width="50" height="5" transform="translate(1940.9 760) rotate(-180)"/><rect class="cls-4" x="1005.45" y="377.5" width="10" height="5" transform="translate(2020.9 760) rotate(-180)"/><rect class="cls-5" x="1040.45" y="362.5" width="110" height="5" transform="translate(2190.9 730) rotate(-180)"/><rect class="cls-5" x="1065.45" y="367.5" width="30" height="5" transform="translate(2160.9 740) rotate(-180)"/><rect class="cls-4" x="1075.45" y="367.5" width="15" height="5" transform="translate(2165.9 740) rotate(-180)"/><rect class="cls-4" x="1105.45" y="362.5" width="10" height="5" transform="translate(2220.9 730) rotate(-180)"/><rect class="cls-5" x="1070.45" y="357.5" width="25" height="5" transform="translate(2165.9 720) rotate(-180)"/><rect class="cls-5" x="1055.45" y="352.5" width="25" height="5" transform="translate(2135.9 710) rotate(-180)"/><rect class="cls-5" x="1025.45" y="352.5" width="25" height="5" transform="translate(2075.9 710) rotate(-180)"/><rect class="cls-5" x="960.45" y="352.5" width="25" height="5" transform="translate(1945.9 710) rotate(-180)"/><rect class="cls-5" x="930.45" y="347.5" width="25" height="5" transform="translate(1885.9 700) rotate(-180)"/><rect class="cls-5" x="900.45" y="342.5" width="25" height="5" transform="translate(1825.9 690) rotate(-180)"/><rect class="cls-5" x="890.45" y="352.5" width="25" height="5" transform="translate(1805.9 710) rotate(-180)"/><rect class="cls-5" x="865.45" y="362.5" width="25" height="5" transform="translate(1755.9 730) rotate(-180)"/><rect class="cls-5" x="1000.45" y="342.5" width="25" height="5" transform="translate(2025.9 690) rotate(-180)"/><rect class="cls-5" x="1015.45" y="352.5" width="5" height="5" transform="translate(2035.9 710) rotate(-180)"/><rect class="cls-5" x="995.45" y="357.5" width="5" height="5" transform="translate(1995.9 720) rotate(-180)"/><rect class="cls-5" x="955.45" y="357.5" width="5" height="5" transform="translate(1915.9 720) rotate(-180)"/><rect class="cls-5" x="925.45" y="352.5" width="5" height="5" transform="translate(1855.9 710) rotate(-180)"/><rect class="cls-5" x="895.45" y="362.5" width="5" height="5" transform="translate(1795.9 730) rotate(-180)"/><rect class="cls-5" x="960.45" y="342.5" width="5" height="5" transform="translate(1925.9 690) rotate(-180)"/><rect class="cls-4" x="875.45" y="367.5" width="5" height="5" transform="translate(1755.9 740) rotate(-180)"/><rect class="cls-5" x="1030.45" y="357.5" width="5" height="5" transform="translate(2065.9 720) rotate(-180)"/><rect class="cls-5" x="1030.45" y="342.5" width="5" height="5" transform="translate(2065.9 690) rotate(-180)"/><rect class="cls-5" x="1000.45" y="362.5" width="25" height="5" transform="translate(2025.9 730) rotate(-180)"/><rect class="cls-5" x="985.45" y="367.5" width="25" height="5" transform="translate(1995.9 740) rotate(-180)"/><rect class="cls-5" x="940.45" y="367.5" width="25" height="5" transform="translate(1905.9 740) rotate(-180)"/><rect class="cls-5" x="910.45" y="362.5" width="25" height="5" transform="translate(1845.9 730) rotate(-180)"/><rect class="cls-5" x="745.45" y="362.5" width="30" height="5" transform="translate(1520.9 730) rotate(-180)"/><rect class="cls-5" x="765.45" y="352.5" width="10" height="5" transform="translate(1540.9 710) rotate(-180)"/><rect class="cls-5" x="780.45" y="362.5" width="10" height="5" transform="translate(1570.9 730) rotate(-180)"/><rect class="cls-5" x="735.45" y="367.5" width="10" height="5" transform="translate(1480.9 740) rotate(-180)"/><rect class="cls-5" x="715.45" y="367.5" width="10" height="5" transform="translate(1440.9 740) rotate(-180)"/><rect class="cls-5" x="730.45" y="347.5" width="10" height="5" transform="translate(1470.9 700) rotate(-180)"/><rect class="cls-5" x="705.45" y="337.5" width="25" height="5" transform="translate(1435.9 680) rotate(-180)"/><rect class="cls-5" x="750.45" y="347.5" width="10" height="5" transform="translate(1510.9 700) rotate(-180)"/><rect class="cls-5" x="745.45" y="342.5" width="25" height="5" transform="translate(1515.9 690) rotate(-180)"/><rect class="cls-5" x="695.45" y="352.5" width="25" height="5" transform="translate(1415.9 710) rotate(-180)"/><rect class="cls-5" x="675.45" y="347.5" width="10" height="5" transform="translate(1360.9 700) rotate(-180)"/><rect class="cls-5" x="780.45" y="347.5" width="10" height="5" transform="translate(1570.9 700) rotate(-180)"/><rect class="cls-5" x="800.45" y="362.5" width="10" height="5" transform="translate(1610.9 730) rotate(-180)"/><rect class="cls-5" x="825.45" y="362.5" width="10" height="5" transform="translate(1660.9 730) rotate(-180)"/><rect class="cls-5" x="840.45" y="377.5" width="10" height="5" transform="translate(1690.9 760) rotate(-180)"/><rect class="cls-4" x="805.45" y="382.5" width="10" height="5" transform="translate(1620.9 770) rotate(-180)"/><rect class="cls-4" x="855.45" y="377.5" width="10" height="5" transform="translate(1720.9 760) rotate(-180)"/><rect class="cls-5" x="785.45" y="337.5" width="10" height="5" transform="translate(1580.9 680) rotate(-180)"/><rect class="cls-5" x="820.45" y="352.5" width="10" height="5" transform="translate(1650.9 710) rotate(-180)"/><rect class="cls-5" x="850.45" y="347.5" width="10" height="5" transform="translate(1710.9 700) rotate(-180)"/><rect class="cls-5" x="800.45" y="347.5" width="10" height="5" transform="translate(1610.9 700) rotate(-180)"/><rect class="cls-5" x="840.45" y="342.5" width="10" height="5" transform="translate(1690.9 690) rotate(-180)"/><rect class="cls-5" x="805.45" y="342.5" width="10" height="5" transform="translate(1620.9 690) rotate(-180)"/><rect class="cls-5" x="855.45" y="352.5" width="20" height="5" transform="translate(1730.9 710) rotate(-180)"/><rect class="cls-5" x="810.45" y="352.5" width="5" height="5" transform="translate(1625.9 710) rotate(-180)"/><rect class="cls-5" x="830.45" y="347.5" width="5" height="5" transform="translate(1665.9 700) rotate(-180)"/><rect class="cls-5" x="805.45" y="332.5" width="5" height="5" transform="translate(1615.9 670) rotate(-180)"/><rect class="cls-5" x="950.45" y="362.5" width="25" height="5" transform="translate(1925.9 730) rotate(-180)"/><rect class="cls-5" x="1100.45" y="367.5" width="25" height="5" transform="translate(2225.9 740) rotate(-180)"/><rect class="cls-5" x="1225.45" y="367.5" width="25" height="5" transform="translate(2475.9 740) rotate(-180)"/><rect class="cls-1" x="1135.45" y="367.5" width="100" height="5" transform="translate(2370.9 740) rotate(-180)"/><rect class="cls-5" x="1245.45" y="362.5" width="110" height="5" transform="translate(2600.9 730) rotate(-180)"/><rect class="cls-5" x="1270.45" y="367.5" width="30" height="5" transform="translate(2570.9 740) rotate(-180)"/><rect class="cls-4" x="1280.45" y="367.5" width="15" height="5" transform="translate(2575.9 740) rotate(-180)"/><rect class="cls-4" x="1310.45" y="362.5" width="10" height="5" transform="translate(2630.9 730) rotate(-180)"/><rect class="cls-5" x="1275.45" y="357.5" width="25" height="5" transform="translate(2575.9 720) rotate(-180)"/><rect class="cls-5" x="1260.45" y="352.5" width="25" height="5" transform="translate(2545.9 710) rotate(-180)"/><rect class="cls-5" x="1230.45" y="352.5" width="25" height="5" transform="translate(2485.9 710) rotate(-180)"/><rect class="cls-5" x="1165.45" y="352.5" width="25" height="5" transform="translate(2355.9 710) rotate(-180)"/><rect class="cls-5" x="1135.45" y="347.5" width="25" height="5" transform="translate(2295.9 700) rotate(-180)"/><rect class="cls-5" x="1205.45" y="342.5" width="25" height="5" transform="translate(2435.9 690) rotate(-180)"/><rect class="cls-5" x="1220.45" y="352.5" width="5" height="5" transform="translate(2445.9 710) rotate(-180)"/><rect class="cls-5" x="1200.45" y="357.5" width="5" height="5" transform="translate(2405.9 720) rotate(-180)"/><rect class="cls-5" x="1160.45" y="357.5" width="5" height="5" transform="translate(2325.9 720) rotate(-180)"/><rect class="cls-5" x="1165.45" y="342.5" width="5" height="5" transform="translate(2335.9 690) rotate(-180)"/><rect class="cls-5" x="1135.45" y="357.5" width="5" height="5" transform="translate(2275.9 720) rotate(-180)"/><rect class="cls-5" x="1085.45" y="347.5" width="5" height="5" transform="translate(2175.9 700) rotate(-180)"/><rect class="cls-5" x="1235.45" y="357.5" width="5" height="5" transform="translate(2475.9 720) rotate(-180)"/><rect class="cls-5" x="1235.45" y="342.5" width="5" height="5" transform="translate(2475.9 690) rotate(-180)"/><rect class="cls-5" x="1205.45" y="362.5" width="25" height="5" transform="translate(2435.9 730) rotate(-180)"/><rect class="cls-5" x="1190.45" y="367.5" width="25" height="5" transform="translate(2405.9 740) rotate(-180)"/><rect class="cls-5" x="1155.45" y="362.5" width="25" height="5" transform="translate(2335.9 730) rotate(-180)"/><rect class="cls-5" x="1305.45" y="367.5" width="25" height="5" transform="translate(2635.9 740) rotate(-180)"/><rect class="cls-5" x="1400.45" y="342.5" width="25" height="5" transform="translate(2825.9 690) rotate(180)"/><rect class="cls-1" x="1295.45" y="347.5" width="40" height="5"/><rect class="cls-1" x="1380.45" y="362.5" width="40" height="5"/><rect class="cls-1" x="1315.45" y="377.5" width="21" height="5"/><rect class="cls-5" x="1420.45" y="347.5" width="20" height="5" transform="translate(2860.9 700) rotate(180)"/><rect class="cls-5" x="1360.45" y="362.5" width="35" height="5" transform="translate(2755.9 730) rotate(180)"/><rect class="cls-5" x="1290.45" y="352.5" width="30" height="5" transform="translate(2610.9 710) rotate(180)"/><rect class="cls-4" x="1415.45" y="377.5" width="15" height="5" transform="translate(2845.9 760) rotate(180)"/><rect class="cls-4" x="1385.45" y="372.5" width="10" height="5" transform="translate(2780.9 750) rotate(180)"/><rect class="cls-5" x="1370.45" y="357.5" width="25" height="5" transform="translate(2765.9 720) rotate(180)"/><rect class="cls-5" x="1420.45" y="367.5" width="15" height="5" transform="translate(2855.9 740) rotate(180)"/><rect class="cls-5" x="1435.45" y="357.5" width="5" height="5" transform="translate(2875.9 720) rotate(180)"/><rect class="cls-5" x="1405.45" y="357.5" width="25" height="5" transform="translate(2835.9 720) rotate(180)"/><rect class="cls-5" x="1340.45" y="357.5" width="25" height="5" transform="translate(2705.9 720) rotate(180)"/><rect class="cls-5" x="1310.45" y="362.5" width="25" height="5" transform="translate(2645.9 730) rotate(180)"/><rect class="cls-5" x="1380.45" y="367.5" width="25" height="5" transform="translate(2785.9 740) rotate(180)"/><rect class="cls-5" x="1395.45" y="357.5" width="5" height="5" transform="translate(2795.9 720) rotate(180)"/><rect class="cls-5" x="1360.45" y="347.5" width="5" height="5" transform="translate(2725.9 700) rotate(180)"/><rect class="cls-5" x="1350.45" y="367.5" width="20" height="5" transform="translate(2720.9 740) rotate(180)"/><rect class="cls-5" x="1365.45" y="352.5" width="5" height="5" transform="translate(2735.9 710) rotate(180)"/><rect class="cls-5" x="1375.45" y="352.5" width="5" height="5" transform="translate(2755.9 710) rotate(180)"/><rect class="cls-5" x="1335.45" y="352.5" width="5" height="5" transform="translate(2675.9 710) rotate(180)"/><rect class="cls-5" x="1325.45" y="357.5" width="5" height="5" transform="translate(2655.9 720) rotate(180)"/><rect class="cls-5" x="1340.45" y="367.5" width="5" height="5" transform="translate(2685.9 740) rotate(180)"/><rect class="cls-5" x="1410.45" y="352.5" width="5" height="5" transform="translate(2825.9 710) rotate(180)"/><rect class="cls-5" x="1410.45" y="367.5" width="5" height="5" transform="translate(2825.9 740) rotate(180)"/><rect class="cls-5" x="1380.45" y="347.5" width="25" height="5" transform="translate(2785.9 700) rotate(180)"/><rect class="cls-5" x="1365.45" y="342.5" width="25" height="5" transform="translate(2755.9 690) rotate(180)"/><rect class="cls-5" x="1330.45" y="347.5" width="25" height="5" transform="translate(2685.9 700) rotate(180)"/><rect class="cls-5" x="1095.45" y="347.5" width="25" height="5" transform="translate(2215.9 700) rotate(180)"/><rect class="cls-5" x="1105.45" y="352.5" width="25" height="5" transform="translate(2235.9 710) rotate(180)"/><rect class="cls-5" x="1415.45" y="362.5" width="25" height="5" transform="translate(2855.9 730) rotate(180)"/><rect class="cls-4" x="980.45" y="392.5" width="110" height="5" transform="translate(2070.9 790) rotate(-180)"/><rect class="cls-1" x="840.45" y="312.5" width="60" height="5" transform="translate(1740.9 630) rotate(-180)"/><rect class="cls-1" x="905.45" y="277.5" width="80" height="5" transform="translate(1890.9 560) rotate(-180)"/><rect class="cls-4" x="870.45" y="187.5" width="155" height="5" transform="translate(1895.9 380) rotate(-180)"/><rect class="cls-5" x="1280.45" y="167.5" width="15" height="5" transform="translate(2575.9 340) rotate(-180)"/><rect class="cls-5" x="1295.45" y="127.5" width="15" height="5" transform="translate(2605.9 260) rotate(-180)"/><rect class="cls-5" x="1320.45" y="197.5" width="15" height="5" transform="translate(2655.9 400) rotate(-180)"/><rect class="cls-5" x="1390.45" y="242.5" width="15" height="5" transform="translate(2795.9 490) rotate(-180)"/><rect class="cls-5" x="1170.45" y="162.5" width="15" height="5" transform="translate(2355.9 330) rotate(-180)"/><rect class="cls-4" x="1060.45" y="122.5" width="25" height="5" transform="translate(2145.9 250) rotate(-180)"/><rect class="cls-5" x="1065.45" y="122.5" width="15" height="5" transform="translate(2145.9 250) rotate(-180)"/><rect class="cls-5" x="1010.45" y="137.5" width="15" height="5" transform="translate(2035.9 280) rotate(-180)"/><rect class="cls-5" x="925.45" y="147.5" width="15" height="5" transform="translate(1865.9 300) rotate(-180)"/><rect class="cls-5" x="860.45" y="152.5" width="15" height="5" transform="translate(1735.9 310) rotate(-180)"/><rect class="cls-2" x="1010.45" y="212.5" width="5" height="5" transform="translate(2025.9 430) rotate(-180)"/><rect class="cls-2" x="940.45" y="357.5" width="5" height="5" transform="translate(1885.9 720) rotate(-180)"/><rect class="cls-2" x="1135.45" y="117.5" width="5" height="5" transform="translate(2275.9 240) rotate(-180)"/><rect class="cls-2" x="1320.45" y="157.5" width="5" height="5" transform="translate(2645.9 320) rotate(-180)"/><rect class="cls-2" x="1310.45" y="87.5" width="5" height="5" transform="translate(2625.9 180) rotate(-180)"/><rect class="cls-2" x="1180.45" y="127.5" width="5" height="5" transform="translate(2365.9 260) rotate(-180)"/><rect class="cls-2" x="1355.45" y="247.5" width="5" height="5" transform="translate(2715.9 500) rotate(-180)"/><rect class="cls-2" x="1075.45" y="112.5" width="5" height="5" transform="translate(2155.9 230) rotate(-180)"/><rect class="cls-2" x="985.45" y="197.5" width="5" height="5" transform="translate(1975.9 400) rotate(-180)"/><rect class="cls-2" x="915.45" y="167.5" width="5" height="5" transform="translate(1835.9 340) rotate(-180)"/><rect class="cls-2" x="950.45" y="162.5" width="5" height="5" transform="translate(1905.9 330) rotate(-180)"/><rect class="cls-2" x="955.45" y="137.5" width="5" height="5" transform="translate(1915.9 280) rotate(-180)"/><rect class="cls-2" x="900.45" y="122.5" width="5" height="5" transform="translate(1805.9 250) rotate(-180)"/><rect class="cls-2" x="735.45" y="152.5" width="5" height="5" transform="translate(1475.9 310) rotate(-180)"/><rect class="cls-2" x="1070.45" y="147.5" width="5" height="5" transform="translate(2145.9 300) rotate(-180)"/><rect class="cls-4" x="950.45" y="87.5" width="5" height="5" transform="translate(1905.9 180) rotate(-180)"/><rect class="cls-4" x="815.45" y="187.5" width="5" height="5" transform="translate(1635.9 380) rotate(-180)"/><rect class="cls-4" x="845.45" y="182.5" width="5" height="5" transform="translate(1695.9 370) rotate(-180)"/><rect class="cls-4" x="850.45" y="172.5" width="5" height="5" transform="translate(1705.9 350) rotate(-180)"/><rect class="cls-4" x="860.45" y="187.5" width="5" height="5" transform="translate(1725.9 380) rotate(-180)"/><rect class="cls-4" x="870.45" y="172.5" width="5" height="5" transform="translate(1745.9 350) rotate(-180)"/><rect class="cls-4" x="800.45" y="182.5" width="5" height="5" transform="translate(1605.9 370) rotate(-180)"/><rect class="cls-4" x="815.45" y="172.5" width="5" height="5" transform="translate(1635.9 350) rotate(-180)"/><rect class="cls-4" x="965.45" y="122.5" width="40" height="5" transform="translate(1970.9 250) rotate(-180)"/><rect class="cls-4" x="1020.45" y="92.5" width="40" height="5" transform="translate(2080.9 190) rotate(-180)"/><rect class="cls-2" x="940.45" y="127.5" width="5" height="5" transform="translate(1885.9 260) rotate(-180)"/><rect class="cls-3" x="1030.45" y="197.5" width="25" height="5" transform="translate(2085.9 400) rotate(-180)"/><rect class="cls-3" x="1020.45" y="302.5" width="25" height="5" transform="translate(2065.9 610) rotate(-180)"/><rect class="cls-4" x="1075.45" y="147.5" width="25" height="5" transform="translate(2175.9 300) rotate(-180)"/><rect class="cls-4" x="1325.45" y="157.5" width="25" height="5" transform="translate(2675.9 320) rotate(-180)"/><rect class="cls-4" x="1285.45" y="122.5" width="40" height="5" transform="translate(2610.9 250) rotate(-180)"/><rect class="cls-4" x="1270.45" y="127.5" width="25" height="5" transform="translate(2565.9 260) rotate(-180)"/><rect class="cls-4" x="1325.45" y="97.5" width="25" height="5" transform="translate(2675.9 200) rotate(-180)"/><rect class="cls-4" x="1185.45" y="127.5" width="25" height="5" transform="translate(2395.9 260) rotate(-180)"/><rect class="cls-4" x="1395.45" y="147.5" width="25" height="5" transform="translate(2815.9 300) rotate(-180)"/><rect class="cls-4" x="1360.45" y="97.5" width="25" height="5" transform="translate(2745.9 200) rotate(-180)"/><rect class="cls-4" x="1060.45" y="172.5" width="25" height="5" transform="translate(2145.9 350) rotate(-180)"/><rect class="cls-4" x="1070.45" y="177.5" width="25" height="5" transform="translate(2165.9 360) rotate(-180)"/><rect class="cls-4" x="1130.45" y="177.5" width="25" height="5" transform="translate(2285.9 360) rotate(-180)"/><rect class="cls-4" x="1260.45" y="147.5" width="25" height="5" transform="translate(2545.9 300) rotate(-180)"/><rect class="cls-4" x="1035.45" y="187.5" width="25" height="5" transform="translate(2095.9 380) rotate(-180)"/><rect class="cls-4" x="1085.45" y="182.5" width="25" height="5" transform="translate(2195.9 370) rotate(-180)"/><rect class="cls-4" x="1120.45" y="182.5" width="25" height="5" transform="translate(2265.9 370) rotate(-180)"/><rect class="cls-4" x="1115.45" y="172.5" width="25" height="5" transform="translate(2255.9 350) rotate(-180)"/><rect class="cls-4" x="1010.45" y="172.5" width="35" height="5" transform="translate(2055.9 350) rotate(-180)"/><rect class="cls-4" x="1030.45" y="167.5" width="50" height="5" transform="translate(2110.9 340) rotate(-180)"/><rect class="cls-4" x="940.45" y="152.5" width="25" height="5" transform="translate(1905.9 310) rotate(-180)"/><rect class="cls-4" x="1095.45" y="122.5" width="25" height="5" transform="translate(2215.9 250) rotate(-180)"/><rect class="cls-4" x="1105.45" y="127.5" width="60" height="5" transform="translate(2270.9 260) rotate(-180)"/><rect class="cls-4" x="1075.45" y="77.5" width="60" height="5" transform="translate(2210.9 160) rotate(-180)"/><rect class="cls-4" x="1215.45" y="187.5" width="60" height="5" transform="translate(2490.9 380) rotate(-180)"/><rect class="cls-4" x="1195.45" y="182.5" width="60" height="5" transform="translate(2450.9 370) rotate(-180)"/><rect class="cls-4" x="1179.45" y="177.5" width="60" height="5" transform="translate(2418.9 360) rotate(-180)"/><rect class="cls-4" x="1185.45" y="162.5" width="70" height="5" transform="translate(2440.9 330) rotate(-180)"/><rect class="cls-4" x="745.45" y="157.5" width="70" height="5" transform="translate(1560.9 320) rotate(-180)"/><rect class="cls-4" x="750.45" y="182.5" width="40" height="5" transform="translate(1540.9 370) rotate(-180)"/><rect class="cls-4" x="810.45" y="182.5" width="30" height="5" transform="translate(1650.9 370) rotate(-180)"/><rect class="cls-4" x="840.45" y="167.5" width="10" height="5" transform="translate(1690.9 340) rotate(-180)"/><rect class="cls-4" x="800.45" y="147.5" width="10" height="5" transform="translate(1610.9 300) rotate(-180)"/><rect class="cls-4" x="705.45" y="132.5" width="30" height="5" transform="translate(1440.9 270) rotate(-180)"/><rect class="cls-4" x="745.45" y="147.5" width="10" height="5" transform="translate(1500.9 300) rotate(-180)"/><rect class="cls-3" x="740.45" y="197.5" width="35" height="5"/><rect class="cls-3" x="695.45" y="212.5" width="35" height="5"/><rect class="cls-4" x="290.45" y="167.5" width="45" height="5" transform="translate(625.9 340) rotate(-180)"/><rect class="cls-4" x="805.45" y="162.5" width="25" height="5" transform="translate(1635.9 330) rotate(-180)"/><rect class="cls-4" x="935.45" y="77.5" width="70" height="5" transform="translate(1940.9 160) rotate(-180)"/><rect class="cls-4" x="780.45" y="177.5" width="35" height="5" transform="translate(1595.9 360) rotate(-180)"/><rect class="cls-4" x="765.45" y="187.5" width="35" height="5" transform="translate(1565.9 380) rotate(-180)"/><rect class="cls-4" x="820.45" y="157.5" width="25" height="5" transform="translate(1665.9 320) rotate(-180)"/><rect class="cls-4" x="880.45" y="122.5" width="20" height="5" transform="translate(1780.9 250) rotate(-180)"/><rect class="cls-4" x="880.45" y="132.5" width="10" height="5" transform="translate(1770.9 270) rotate(-180)"/><rect class="cls-4" x="820.45" y="147.5" width="40" height="5" transform="translate(1680.9 300) rotate(-180)"/><rect class="cls-3" x="1065.45" y="172.5" width="10" height="5" transform="translate(2140.9 350) rotate(-180)"/><rect class="cls-4" x="875.45" y="177.5" width="160" height="5" transform="translate(1910.9 360) rotate(-180)"/><rect class="cls-4" x="865.45" y="182.5" width="205" height="5" transform="translate(1935.9 370) rotate(-180)"/><rect class="cls-4" x="860.45" y="167.5" width="155" height="5" transform="translate(1875.9 340) rotate(-180)"/><rect class="cls-1" x="960.45" y="167.5" width="15" height="5" transform="translate(1935.9 340) rotate(-180)"/><rect class="cls-4" x="885.45" y="172.5" width="100" height="5" transform="translate(1870.9 350) rotate(-180)"/><rect class="cls-5" x="880.45" y="182.5" width="15" height="5" transform="translate(1775.9 370) rotate(-180)"/><rect class="cls-4" x="865.45" y="162.5" width="155" height="5" transform="translate(1885.9 330) rotate(-180)"/><rect class="cls-4" x="855.45" y="157.5" width="155" height="5" transform="translate(1865.9 320) rotate(-180)"/><rect class="cls-2" x="910.45" y="152.5" width="5" height="5" transform="translate(1825.9 310) rotate(-180)"/><rect class="cls-2" x="710.45" y="87.5" width="5" height="5" transform="translate(1425.9 180) rotate(-180)"/><rect class="cls-2" x="875.45" y="212.5" width="5" height="5" transform="translate(1755.9 430) rotate(-180)"/><rect class="cls-5" x="935.45" y="167.5" width="20" height="5" transform="translate(1890.9 340) rotate(-180)"/><rect class="cls-5" x="990.45" y="252.5" width="30" height="5" transform="translate(2010.9 510) rotate(-180)"/><rect class="cls-5" x="1265.45" y="312.5" width="30" height="5" transform="translate(2560.9 630) rotate(-180)"/><rect class="cls-5" x="880.45" y="212.5" width="40" height="5" transform="translate(1800.9 430) rotate(-180)"/><rect class="cls-5" x="725.45" y="317.5" width="70" height="5" transform="translate(1520.9 640) rotate(-180)"/><rect class="cls-5" x="940.45" y="217.5" width="40" height="5" transform="translate(1920.9 440) rotate(-180)"/><rect class="cls-4" x="865.45" y="187.5" width="155" height="5" transform="translate(1885.9 380) rotate(-180)"/><rect class="cls-5" x="900.45" y="157.5" width="10" height="5" transform="translate(1810.9 320) rotate(-180)"/><rect class="cls-4" x="885.45" y="192.5" width="5" height="5" transform="translate(1775.9 390) rotate(-180)"/><rect class="cls-4" x="890.45" y="197.5" width="5" height="5" transform="translate(1785.9 400) rotate(-180)"/><rect class="cls-5" x="805.45" y="197.5" width="5" height="5" transform="translate(1615.9 400) rotate(-180)"/><rect class="cls-4" x="835.45" y="177.5" width="10" height="5" transform="translate(1680.9 360) rotate(-180)"/><rect class="cls-4" x="830.45" y="187.5" width="25" height="5" transform="translate(1685.9 380) rotate(-180)"/><rect class="cls-4" x="760.45" y="172.5" width="10" height="5" transform="translate(1530.9 350) rotate(-180)"/><rect class="cls-4" x="720.45" y="172.5" width="10" height="5" transform="translate(1450.9 350) rotate(-180)"/><rect class="cls-4" x="705.45" y="172.5" width="10" height="5" transform="translate(1420.9 350) rotate(-180)"/><rect class="cls-4" x="630.45" y="137.5" width="10" height="5" transform="translate(1270.9 280) rotate(-180)"/><rect class="cls-1" x="870.45" y="192.5" width="10" height="5" transform="translate(1750.9 390) rotate(-180)"/><rect class="cls-1" x="810.45" y="202.5" width="30" height="5" transform="translate(1650.9 410) rotate(-180)"/><rect class="cls-1" x="825.45" y="252.5" width="35" height="5" transform="translate(1685.9 510) rotate(-180)"/><rect class="cls-1" x="750.45" y="237.5" width="35" height="5" transform="translate(1535.9 480) rotate(-180)"/><rect class="cls-1" x="670.45" y="292.5" width="35" height="5" transform="translate(1375.9 590) rotate(-180)"/><rect class="cls-1" x="695.45" y="237.5" width="15" height="5" transform="translate(1405.9 480) rotate(-180)"/><rect class="cls-4" x="855.45" y="177.5" width="10" height="5" transform="translate(1720.9 360) rotate(-180)"/><rect class="cls-1" x="920.45" y="207.5" width="10" height="5" transform="translate(1850.9 420) rotate(-180)"/><rect class="cls-4" x="905.45" y="212.5" width="10" height="5" transform="translate(1820.9 430) rotate(-180)"/><rect class="cls-4" x="885.45" y="237.5" width="10" height="5" transform="translate(1780.9 480) rotate(-180)"/><rect class="cls-5" x="930.45" y="237.5" width="10" height="5" transform="translate(1870.9 480) rotate(-180)"/><rect class="cls-5" x="820.45" y="252.5" width="10" height="5" transform="translate(1650.9 510) rotate(-180)"/><rect class="cls-1" x="895.45" y="167.5" width="5" height="5" transform="translate(1795.9 340) rotate(-180)"/><rect class="cls-1" x="900.45" y="177.5" width="5" height="5" transform="translate(1805.9 360) rotate(-180)"/><rect class="cls-1" x="915.45" y="182.5" width="5" height="5" transform="translate(1835.9 370) rotate(-180)"/><rect class="cls-1" x="910.45" y="187.5" width="20" height="5" transform="translate(1840.9 380) rotate(-180)"/><rect class="cls-1" x="855.45" y="232.5" width="20" height="5" transform="translate(1730.9 470) rotate(-180)"/><rect class="cls-1" x="775.45" y="272.5" width="20" height="5" transform="translate(1570.9 550) rotate(-180)"/><rect class="cls-1" x="970.45" y="187.5" width="30" height="5" transform="translate(1970.9 380) rotate(-180)"/><rect class="cls-1" x="955.45" y="182.5" width="5" height="5" transform="translate(1915.9 370) rotate(-180)"/><rect class="cls-1" x="950.45" y="157.5" width="10" height="5" transform="translate(1910.9 320) rotate(-180)"/><rect class="cls-2" x="1015.45" y="92.5" width="5" height="5" transform="translate(2035.9 190) rotate(-180)"/><rect class="cls-1" x="415.45" y="187.5" width="10" height="5"/><rect class="cls-1" x="470.45" y="182.5" width="30" height="5"/><rect class="cls-1" x="360.45" y="207.5" width="10" height="5"/><rect class="cls-5" x="495.45" y="267.5" width="55" height="5"/><rect class="cls-5" x="565.45" y="332.5" width="15" height="5"/><rect class="cls-5" x="550.45" y="347.5" width="15" height="5"/><rect class="cls-1" x="735.45" y="197.5" width="46" height="5" transform="translate(1516.9 400) rotate(-180)"/><rect class="cls-3" x="760.45" y="177.5" width="20" height="5" transform="translate(1540.9 360) rotate(-180)"/><rect class="cls-3" x="805.45" y="167.5" width="20" height="5" transform="translate(1630.9 340) rotate(-180)"/><rect class="cls-3" x="765.45" y="162.5" width="5" height="5" transform="translate(1535.9 330) rotate(-180)"/><rect class="cls-5" x="745.45" y="197.5" width="55" height="5" transform="translate(1545.9 400) rotate(-180)"/><rect class="cls-5" x="780.45" y="192.5" width="55" height="5" transform="translate(1615.9 390) rotate(-180)"/><rect class="cls-6" x="787.45" y="192.5" width="48" height="5" transform="translate(1622.9 390) rotate(-180)"/><rect class="cls-5" x="775.45" y="187.5" width="70" height="5" transform="translate(1620.9 380) rotate(-180)"/><rect class="cls-6" x="785.45" y="187.5" width="55" height="5" transform="translate(1625.9 380) rotate(-180)"/><rect class="cls-5" x="779.45" y="182.5" width="70" height="5" transform="translate(1628.9 370) rotate(-180)"/><rect class="cls-6" x="827.45" y="182.5" width="18" height="5" transform="translate(1672.9 370) rotate(-180)"/><rect class="cls-6" x="779.45" y="182.5" width="16" height="5" transform="translate(1574.9 370) rotate(-180)"/><rect class="cls-6" x="780.45" y="177.5" width="60" height="5" transform="translate(1620.9 360) rotate(-180)"/><rect class="cls-1" x="730.45" y="207.5" width="46" height="5" transform="translate(1506.9 420) rotate(-180)"/><rect class="cls-1" x="810.45" y="197.5" width="46" height="5" transform="translate(1666.9 400) rotate(-180)"/><rect class="cls-5" x="760.45" y="152.5" width="15" height="5" transform="translate(1535.9 310) rotate(-180)"/><rect class="cls-5" x="800.45" y="202.5" width="15" height="5" transform="translate(1615.9 410) rotate(-180)"/><rect class="cls-5" x="730.45" y="202.5" width="35" height="5" transform="translate(1495.9 410) rotate(-180)"/><rect class="cls-5" x="770.45" y="167.5" width="15" height="5" transform="translate(1555.9 340) rotate(-180)"/><rect class="cls-5" x="785.45" y="172.5" width="50" height="5" transform="translate(1620.9 350) rotate(-180)"/><rect class="cls-7" x="784.2" y="188.75" width="2.5" height="10" transform="translate(591.7 979.2) rotate(-90)"/><rect class="cls-8" x="787.7" y="192.25" width="2.5" height="3" transform="translate(595.2 982.7) rotate(-90)"/><rect class="cls-7" x="769.2" y="193.75" width="2.5" height="10" transform="translate(571.7 969.2) rotate(-90)"/><rect class="cls-8" x="772.7" y="197.25" width="2.5" height="3" transform="translate(575.2 972.7) rotate(-90)"/><rect class="cls-7" x="762.2" y="191.25" width="2.5" height="10" transform="translate(567.2 959.7) rotate(-90)"/><rect class="cls-8" x="765.7" y="194.75" width="2.5" height="3" transform="translate(570.7 963.2) rotate(-90)"/><rect class="cls-7" x="752.2" y="196.25" width="2.5" height="10" transform="translate(552.2 954.7) rotate(-90)"/><rect class="cls-8" x="755.7" y="199.75" width="2.5" height="3" transform="translate(555.7 958.2) rotate(-90)"/><rect class="cls-9" x="776.2" y="191.25" width="2.5" height="10" transform="translate(581.2 973.7) rotate(-90)"/><rect class="cls-9" x="744.2" y="198.75" width="2.5" height="10" transform="translate(541.7 949.2) rotate(-90)"/><rect class="cls-9" x="757.95" y="195" width="2.5" height="7.5"/><rect class="cls-9" x="785.45" y="187.5" width="45" height="5"/><rect class="cls-7" x="785.45" y="190" width="45" height="2.5"/><rect class="cls-9" x="785.45" y="175" width="45" height="5"/><rect class="cls-7" x="785.45" y="177.5" width="45" height="2.5"/><rect class="cls-7" x="780.95" y="187" width="6.5" height="2.5" transform="translate(595.95 972.45) rotate(-90)"/><rect class="cls-9" x="779.2" y="186.25" width="5" height="2.5" transform="translate(594.2 969.2) rotate(-90)"/><rect class="cls-7" x="782.45" y="177" width="3.5" height="2.5" transform="translate(605.95 962.45) rotate(-90)"/><rect class="cls-9" x="780.45" y="177.5" width="2.5" height="2.5" transform="translate(602.95 960.45) rotate(-90)"/><rect class="cls-10" x="785.45" y="187.5" width="5" height="5"/><rect class="cls-10" x="795.45" y="187.5" width="5" height="5"/><rect class="cls-10" x="805.45" y="187.5" width="5" height="5"/><rect class="cls-10" x="815.45" y="187.5" width="5" height="5"/><rect class="cls-10" x="825.45" y="187.5" width="5" height="5"/><rect class="cls-11" x="785.45" y="190" width="5" height="2.5"/><rect class="cls-10" x="785.45" y="175" width="5" height="5"/><rect class="cls-11" x="785.45" y="177.5" width="5" height="2.5"/><rect class="cls-10" x="795.45" y="175" width="5" height="5"/><rect class="cls-11" x="795.45" y="177.5" width="5" height="2.5"/><rect class="cls-10" x="805.45" y="175" width="5" height="5"/><rect class="cls-11" x="805.45" y="177.5" width="5" height="2.5"/><rect class="cls-10" x="815.45" y="175" width="5" height="5"/><rect class="cls-11" x="815.45" y="177.5" width="5" height="2.5"/><rect class="cls-10" x="825.45" y="175" width="5" height="5"/><rect class="cls-11" x="825.45" y="177.5" width="5" height="2.5"/><rect class="cls-10" x="778.95" y="179.5" width="5" height="6" transform="translate(598.95 963.95) rotate(-90)"/><rect class="cls-11" x="780.7" y="181.25" width="5" height="2.5" transform="translate(600.7 965.7) rotate(-90)"/><rect class="cls-7" x="831.7" y="186.25" width="5" height="2.5" transform="translate(646.7 1021.7) rotate(-90)"/><rect class="cls-9" x="828.45" y="187" width="6.5" height="2.5" transform="translate(643.45 1019.95) rotate(-90)"/><rect class="cls-7" x="830.95" y="189.5" width="1.5" height="2.5" transform="translate(640.95 1022.45) rotate(-90)"/><rect class="cls-7" x="832.95" y="177.5" width="2.5" height="2.5" transform="translate(655.45 1012.95) rotate(-90)"/><rect class="cls-9" x="829.95" y="177" width="3.5" height="2.5" transform="translate(653.45 1009.95) rotate(-90)"/><rect class="cls-10" x="831.45" y="180" width="5" height="5" transform="translate(651.45 1016.45) rotate(-90)"/><rect class="cls-11" x="833.2" y="180.75" width="5" height="3.5" transform="translate(653.2 1018.2) rotate(-90)"/><rect class="cls-11" x="795.45" y="190" width="5" height="2.5"/><rect class="cls-11" x="805.45" y="190" width="5" height="2.5"/><rect class="cls-11" x="815.45" y="190" width="5" height="2.5"/><rect class="cls-11" x="825.45" y="190" width="5" height="2.5"/><rect class="cls-12" x="940.45" y="167.5" width="5" height="5"/><rect class="cls-3" x="535.45" y="217.5" width="30" height="5"/><rect class="cls-4" x="982.45" y="107.5" width="25" height="5" transform="translate(1989.9 220) rotate(-180)"/><rect class="cls-5" x="985.45" y="107.5" width="5" height="5" transform="translate(1975.9 220) rotate(-180)"/><rect class="cls-5" x="990.45" y="102.5" width="5" height="5" transform="translate(1985.9 210) rotate(-180)"/><rect class="cls-5" x="995.45" y="112.5" width="5" height="5" transform="translate(1995.9 230) rotate(-180)"/><rect class="cls-4" x="970.45" y="112.5" width="25" height="5" transform="translate(1965.9 230) rotate(-180)"/><rect class="cls-5" x="980.45" y="112.5" width="5" height="5" transform="translate(1965.9 230) rotate(-180)"/><rect class="cls-4" x="948.45" y="107.5" width="25" height="5" transform="translate(1921.9 220) rotate(-180)"/><rect class="cls-5" x="965.45" y="107.5" width="10" height="5" transform="translate(1940.9 220) rotate(-180)"/><rect class="cls-2" x="885.45" y="97.5" width="5" height="5" transform="translate(1775.9 200) rotate(-180)"/><rect class="cls-5" x="970.45" y="97.5" width="5" height="5" transform="translate(1945.9 200) rotate(-180)"/><rect class="cls-4" x="980.45" y="97.5" width="10" height="5" transform="translate(1970.9 200) rotate(-180)"/><polygon class="cls-13" points="990.45 107.5 990.45 102.5 987.95 102.5 987.95 100 972.95 100 972.95 102.5 970.45 102.5 970.45 107.5 990.45 107.5"/><polygon class="cls-7" points="990.45 105 990.45 110 987.95 110 987.95 112.5 972.95 112.5 972.95 110 970.45 110 970.45 105 990.45 105"/><rect class="cls-4" x="940.45" y="112.5" width="5" height="5" transform="translate(1885.9 230) rotate(-180)"/><rect class="cls-4" x="900.45" y="92.5" width="5" height="5" transform="translate(1805.9 190) rotate(-180)"/><rect class="cls-4" x="990.45" y="92.5" width="5" height="5" transform="translate(1985.9 190) rotate(-180)"/><rect class="cls-4" x="935.45" y="97.5" width="30" height="5" transform="translate(1900.9 200) rotate(-180)"/><rect class="cls-7" x="890.45" y="102.5" width="79.82" height="5"/><rect class="cls-14" x="890.45" y="106.25" width="81.25" height="1.25"/><rect class="cls-15" x="972.95" y="111.25" width="15" height="1.25"/><rect class="cls-14" x="972.95" y="110" width="15" height="1.25"/><rect class="cls-14" x="972.95" y="110" width="1.25" height="1.25"/><rect class="cls-15" x="986.7" y="110" width="1.25" height="1.25"/><rect class="cls-14" x="986.7" y="108.75" width="3.75" height="1.25"/><rect class="cls-14" x="970.45" y="108.75" width="3.75" height="1.25"/><rect class="cls-14" x="970.45" y="107.5" width="1.25" height="2.5"/><rect class="cls-14" x="989.2" y="102.5" width="1.25" height="7.5"/><rect class="cls-7" x="989.2" y="102.5" width="1.25" height="2.5"/><rect class="cls-13" x="890.45" y="102.5" width="79.82" height="2.5"/><rect class="cls-16" x="920.45" y="102.5" width="5" height="5" transform="translate(1845.9 210) rotate(-180)"/><rect class="cls-17" x="915.45" y="102.5" width="5" height="5" transform="translate(1835.9 210) rotate(-180)"/><rect class="cls-17" x="925.45" y="102.5" width="5" height="5" transform="translate(1855.9 210) rotate(-180)"/><rect class="cls-17" x="985.45" y="107.5" width="5" height="5" transform="translate(1975.9 220) rotate(-180)"/><rect class="cls-17" x="975.45" y="107.5" width="5" height="5" transform="translate(1955.9 220) rotate(-180)"/><rect class="cls-3" x="915.45" y="107.5" width="5" height="5" transform="translate(1835.9 220) rotate(-180)"/><rect class="cls-3" x="920.45" y="97.5" width="5" height="5" transform="translate(1845.9 200) rotate(-180)"/><rect class="cls-5" x="920.45" y="107.5" width="20" height="5" transform="translate(1860.9 220) rotate(-180)"/><rect class="cls-4" x="930.45" y="107.5" width="5" height="5" transform="translate(1865.9 220) rotate(-180)"/><rect class="cls-4" x="925.45" y="112.5" width="5" height="5" transform="translate(1855.9 230) rotate(-180)"/><rect class="cls-5" x="945.45" y="107.5" width="5" height="5" transform="translate(1895.9 220) rotate(-180)"/><rect class="cls-4" x="895.45" y="107.5" width="15" height="5" transform="translate(1805.9 220) rotate(-180)"/><rect class="cls-4" x="905.45" y="97.5" width="15" height="5" transform="translate(1825.9 200) rotate(-180)"/><rect class="cls-5" x="910.45" y="97.5" width="5" height="5" transform="translate(1825.9 200) rotate(-180)"/><rect class="cls-4" x="930.45" y="92.5" width="20" height="5" transform="translate(1880.9 190) rotate(-180)"/><rect class="cls-13" x="971.7" y="101.25" width="1.25" height="1.25"/><rect class="cls-13" x="987.95" y="101.25" width="1.25" height="1.25"/><rect class="cls-5" x="480.45" y="87.5" width="20" height="5"/><rect class="cls-4" x="470.45" y="87.5" width="15" height="5"/><polygon class="cls-18" points="485.45 64.5 485.45 102.5 475.45 102.5 475.45 64.5 477.45 64.5 477.45 62.5 483.45 62.5 483.45 64.5 485.45 64.5"/><polygon class="cls-19" points="485.45 64.5 485.45 102.5 480.45 102.5 480.45 60.5 482.45 60.5 482.45 62.5 483.45 62.5 483.45 64.5 485.45 64.5"/><polygon class="cls-18" points="506.19 9.9 483.42 56.65 481.62 55.77 482.49 53.97 479.8 52.66 501.7 7.71 506.19 9.9"/><rect class="cls-20" x="491.72" y="5.98" width="2.5" height="45" transform="translate(62.27 -213.04) rotate(25.98)"/><polygon class="cls-21" points="517.45 14.5 517.45 49.5 512.45 49.5 512.45 44.5 514.95 44.5 514.95 29.5 512.45 29.5 512.45 14.5 517.45 14.5"/><rect class="cls-2" x="517.45" y="14.5" width="5" height="30"/><rect class="cls-21" x="522.45" y="19.5" width="5" height="30"/><rect class="cls-2" x="527.45" y="22" width="5" height="30"/><rect class="cls-21" x="532.45" y="19.5" width="5" height="25"/><rect class="cls-2" x="537.45" y="24.5" width="5" height="25"/><rect class="cls-21" x="542.45" y="29.5" width="5" height="20"/><polygon class="cls-22" points="517.45 29.5 517.45 49.5 512.45 49.5 512.45 44.5 514.95 44.5 514.95 29.5 517.45 29.5"/><rect class="cls-22" x="512.45" y="27.5" width="2.5" height="4"/><rect class="cls-21" x="509.95" y="12.5" width="5" height="7"/><rect class="cls-22" x="522.45" y="34.5" width="5" height="15"/><rect class="cls-22" x="532.45" y="29.5" width="5" height="17.5"/><rect class="cls-23" x="517.45" y="34.5" width="5" height="10"/><polygon class="cls-23" points="532.45 39.5 532.45 52 529.95 52 529.95 54.5 527.45 54.5 527.45 39.5 532.45 39.5"/><rect class="cls-23" x="537.45" y="39.5" width="5" height="10"/><rect class="cls-22" x="542.45" y="37" width="5" height="12.5"/><polygon class="cls-2" points="552.45 29.5 552.45 44.5 547.45 44.5 547.45 32 549.95 32 549.95 29.5 552.45 29.5"/><rect class="cls-23" x="547.45" y="42" width="5" height="5"/><polygon class="cls-21" points="557.45 34.5 557.45 49.5 552.45 49.5 552.45 32 554.95 32 554.95 34.5 557.45 34.5"/><rect class="cls-22" x="552.45" y="44.5" width="5" height="5"/><polygon class="cls-2" points="562.45 39.5 562.45 44.5 559.95 44.5 559.95 47 557.45 47 557.45 37 559.95 37 559.95 39.5 562.45 39.5"/><polygon class="cls-23" points="562.45 42 562.45 44.5 559.95 44.5 559.95 47 557.45 47 557.45 42 562.45 42"/><rect class="cls-22" x="532.45" y="47" width="2.5" height="2.5"/><rect class="cls-23" x="517.45" y="44.5" width="2.5" height="2.5"/><rect class="cls-21" x="522.45" y="17" width="2.5" height="2.5"/><rect class="cls-2" x="537.45" y="22" width="2.5" height="2.5"/><rect class="cls-21" x="542.45" y="27" width="2.5" height="2.5"/><rect class="cls-4" x="475.45" y="97.5" width="15" height="5"/><rect class="cls-4" x="500.45" y="87.5" width="15" height="5"/><rect class="cls-3" x="470.45" y="82.5" width="5" height="5"/><rect class="cls-5" x="470.45" y="92.5" width="35" height="5"/><rect class="cls-6" x="480.45" y="92.5" width="5" height="5"/><rect class="cls-6" x="485.45" y="87.5" width="5" height="5"/><rect class="cls-2" x="425.45" y="82.5" width="5" height="5"/><rect class="cls-3" x="420.45" y="87.5" width="5" height="5"/><rect class="cls-4" x="425.45" y="87.5" width="40" height="5"/><rect class="cls-6" x="440.45" y="87.5" width="10" height="5"/><rect class="cls-18" x="424.22" y="33.99" width="10" height="64.42" transform="translate(12.09 187.08) rotate(-24.93)"/><rect class="cls-19" x="428.99" y="32.94" width="5" height="64.42" transform="matrix(0.91, -0.42, 0.42, 0.91, 12.74, 187.94)"/><polygon class="cls-18" points="446.75 44.59 453.07 58.2 407.73 79.27 395.08 52.06 426.82 37.31 428.93 41.85 433.46 39.74 435.57 44.27 440.1 42.17 442.21 46.7 446.75 44.59"/><rect class="cls-22" x="430.45" y="35" width="2.5" height="2.5"/><rect class="cls-22" x="437.95" y="40" width="2.5" height="2.5"/><rect class="cls-10" x="432.95" y="42.5" width="2.5" height="2.5"/><rect class="cls-2" x="430.45" y="37.5" width="2.5" height="5"/><rect class="cls-2" x="445.45" y="17.5" width="2.5" height="2.5"/><rect class="cls-2" x="440.45" y="12.5" width="2.5" height="2.5"/><rect class="cls-2" x="435.45" width="2.5" height="2.5"/><rect class="cls-2" x="442.95" y="22.5" width="2.5" height="10"/><rect class="cls-24" x="432.95" y="32.5" width="2.5" height="7.5"/><rect class="cls-24" x="440.45" y="17.5" width="2.5" height="7.5"/><rect class="cls-2" x="435.45" y="30" width="2.5" height="5"/><rect class="cls-25" x="437.95" y="30" width="7.5" height="2.5"/><rect class="cls-26" x="437.95" y="2.5" width="2.5" height="10"/><rect class="cls-24" x="435.45" y="10" width="2.5" height="7.5"/><rect class="cls-25" x="435.45" y="17.5" width="7.5" height="2.5"/><rect class="cls-27" x="425.45" y="43" width="2.5" height="2.5"/><rect class="cls-21" x="435.45" y="25" width="2.5" height="2.5"/><rect class="cls-10" x="427.95" y="30" width="2.5" height="2.5"/><rect class="cls-27" x="430.45" y="40" width="2.5" height="2.5"/><rect class="cls-19" x="404.77" y="65.87" width="50" height="3" transform="translate(11.64 187.42) rotate(-24.93)"/><rect class="cls-28" x="426.45" y="68.5" width="10" height="5" transform="translate(10.27 188.47) rotate(-24.93)"/><rect class="cls-19" x="445.14" y="44.95" width="5" height="15" transform="translate(19.6 193.56) rotate(-24.93)"/><rect class="cls-20" x="400.44" y="48.67" width="5" height="5" transform="translate(15.97 174.6) rotate(-24.93)"/><rect class="cls-20" x="409.51" y="44.46" width="5" height="5" transform="translate(18.59 178.03) rotate(-24.93)"/><rect class="cls-20" x="398.01" y="50.31" width="5" height="15" transform="translate(12.95 174.2) rotate(-24.93)"/><rect class="cls-19" x="414.08" y="50.13" width="20" height="10" transform="translate(295.33 -352.67) rotate(65.07)"/><rect class="cls-19" x="414.08" y="50.13" width="20" height="10" transform="translate(831.88 -73.62) rotate(155.07)"/><rect class="cls-22" x="421.58" y="52.63" width="5" height="5" transform="translate(16.27 183.88) rotate(-24.93)"/><rect class="cls-5" x="425.45" y="92.5" width="25" height="5"/><rect class="cls-6" x="435.45" y="92.5" width="15" height="5"/><rect class="cls-5" x="440.45" y="97.5" width="20" height="5"/><rect class="cls-3" x="450.45" y="92.5" width="5" height="5"/><rect class="cls-4" x="455.45" y="92.5" width="15" height="5"/><polygon class="cls-19" points="510.69 12.09 485.72 63.33 483.92 62.46 484.8 60.66 482.1 59.34 506.19 9.9 510.69 12.09"/></g></g></svg>