<svg xmlns="http://www.w3.org/2000/svg" width="730" height="95" viewBox="0 0 730 95"><defs><style>.cls-1{fill:#424b75;}.cls-2{fill:#171b33;}.cls-3{fill:#293052;}.cls-4{fill:#6573a9;}.cls-5{fill:#c0bc5a;}.cls-6{fill:#f9f7e4;}.cls-7{fill:#dbd695;}</style></defs><g id="Layer_2" data-name="Layer 2"><g id="Layer_1-2" data-name="Layer 1"><polygon class="cls-1" points="275 0 275 95 245 95 245 60 235 60 235 45 220 45 220 95 190 95 190 0 220 0 220 15 235 15 235 30 245 30 245 0 275 0"/><path class="cls-1" d="M165,15V0H110V15H95V80h15V95h55V80h15V15ZM125,80V15h25V80Z"/><polygon class="cls-1" points="370 40 370 95 305 95 305 80 290 80 290 15 305 15 305 0 365 0 365 15 320 15 320 80 345 80 345 55 330 55 330 40 370 40"/><path class="cls-1" d="M460,40V15H450V0H385V95h30V55h10V65h10V95h25V65h-5V50h-5V40Zm-45,0V15h20V40Z"/><path class="cls-1" d="M545,15V0H485V15H475V95h30V70h20V95h30V15ZM505,55V15h20V55Z"/><polygon class="cls-2" points="555 50 555 95 525 95 525 70 505 70 505 95 475 95 475 50 505 50 505 55 525 55 525 50 555 50"/><rect class="cls-2" x="485" y="45" width="5" height="5"/><rect class="cls-2" x="490" y="40" width="5" height="5"/><rect class="cls-2" x="495" y="45" width="5" height="5"/><rect class="cls-2" x="500" y="40" width="5" height="10"/><rect class="cls-2" x="475" y="45" width="5" height="5"/><rect class="cls-3" x="475" y="50" width="5" height="5"/><rect class="cls-3" x="495" y="50" width="5" height="5"/><rect class="cls-3" x="485" y="50" width="5" height="5"/><rect class="cls-2" x="535" y="45" width="5" height="5"/><rect class="cls-2" x="540" y="40" width="5" height="5"/><rect class="cls-3" x="545" y="35" width="5" height="5"/><rect class="cls-2" x="530" y="40" width="5" height="5"/><rect class="cls-2" x="545" y="45" width="5" height="5"/><rect class="cls-2" x="550" y="40" width="5" height="10"/><rect class="cls-2" x="525" y="45" width="5" height="5"/><rect class="cls-3" x="525" y="50" width="5" height="5"/><rect class="cls-3" x="545" y="50" width="5" height="5"/><rect class="cls-3" x="535" y="50" width="5" height="5"/><polygon class="cls-1" points="640 0 640 15 620 15 620 95 590 95 590 15 565 15 565 0 640 0"/><rect class="cls-2" x="610" y="45" width="5" height="5"/><rect class="cls-2" x="605" y="50" width="5" height="5"/><rect class="cls-2" x="595" y="50" width="5" height="5"/><rect class="cls-2" x="615" y="50" width="5" height="5"/><rect class="cls-2" x="615" y="40" width="5" height="10"/><rect class="cls-3" x="590" y="50" width="5" height="5"/><rect class="cls-3" x="610" y="50" width="5" height="5"/><rect class="cls-3" x="600" y="50" width="5" height="5"/><rect class="cls-3" x="605" y="45" width="5" height="5"/><polygon class="cls-1" points="700 30 700 15 675 15 675 40 715 40 715 55 725 55 725 80 720 80 720 95 665 95 665 80 650 80 650 65 680 65 680 80 700 80 700 55 660 55 660 40 650 40 650 15 660 15 660 0 715 0 715 15 730 15 730 30 700 30"/><rect class="cls-2" x="660" y="50" width="55" height="5"/><rect class="cls-3" x="705" y="50" width="5" height="5"/><polygon class="cls-1" points="55 30 55 15 30 15 30 80 55 80 55 65 80 65 80 80 70 80 70 95 15 95 15 80 0 80 0 15 15 15 15 0 70 0 70 15 80 15 80 30 55 30"/><rect class="cls-2" x="665" y="45" width="5" height="5"/><rect class="cls-2" x="680" y="45" width="5" height="5"/><rect class="cls-2" x="690" y="45" width="10" height="5"/><rect class="cls-2" x="705" y="45" width="5" height="5"/><rect class="cls-2" x="700" y="40" width="5" height="5"/><rect class="cls-3" x="675" y="40" width="5" height="5"/><rect class="cls-3" x="665" y="35" width="5" height="5"/><rect class="cls-3" x="670" y="45" width="5" height="5"/><rect class="cls-3" x="680" y="50" width="5" height="5"/><rect class="cls-3" x="690" y="40" width="5" height="5"/><rect class="cls-3" x="700" y="45" width="5" height="5"/><rect class="cls-3" x="695" y="50" width="5" height="5"/><rect class="cls-3" x="710" y="40" width="5" height="5"/><rect class="cls-3" x="685" y="45" width="5" height="5"/><rect class="cls-3" x="660" y="45" width="5" height="5"/><rect class="cls-3" x="665" y="50" width="5" height="5"/><rect class="cls-2" x="245" y="55" width="30" height="40"/><rect class="cls-2" x="190" y="55" width="30" height="40"/><polygon class="cls-2" points="370 55 370 95 305 95 305 80 290 80 290 50 305 50 305 55 320 55 320 80 345 80 345 55 370 55"/><rect class="cls-2" x="330" y="50" width="5" height="5"/><rect class="cls-4" x="305" width="5" height="10"/><rect class="cls-4" x="290" y="15" width="5" height="10"/><rect class="cls-4" x="295" y="15" width="5" height="5"/><rect class="cls-4" x="190" width="5" height="10"/><rect class="cls-4" x="245" width="5" height="10"/><rect class="cls-4" x="195" width="5" height="5"/><rect class="cls-4" x="110" width="5" height="10"/><rect class="cls-4" x="115" width="5" height="5"/><rect class="cls-4" x="310" width="5" height="5"/><rect class="cls-4" x="320" width="5" height="5"/><rect class="cls-4" x="385" width="5" height="5"/><rect class="cls-4" x="385" y="10" width="5" height="5"/><rect class="cls-4" x="395" width="5" height="5"/><rect class="cls-4" x="485" width="5" height="10"/><rect class="cls-4" x="490" width="10" height="5"/><rect class="cls-4" x="565" width="5" height="10"/><rect class="cls-4" x="650" y="15" width="10" height="5"/><rect class="cls-4" x="570" width="10" height="5"/><rect class="cls-4" x="660" width="10" height="5"/><rect class="cls-4" x="660" y="5" width="5" height="5"/><rect class="cls-4" x="475" y="15" width="10" height="5"/><rect class="cls-4" x="205" width="5" height="5"/><rect class="cls-4" x="95" y="15" width="5" height="5"/><rect class="cls-4" x="15" width="5" height="10"/><rect class="cls-4" x="20" width="5" height="5"/><rect class="cls-4" y="15" width="5" height="5"/><rect class="cls-4" x="255" width="5" height="5"/><rect class="cls-2" x="310" y="50" width="5" height="5"/><rect class="cls-2" x="295" y="45" width="5" height="5"/><rect class="cls-2" x="240" y="55" width="5" height="5"/><rect class="cls-2" x="235" y="55" width="5" height="5"/><rect class="cls-3" x="240" y="50" width="5" height="5"/><rect class="cls-3" x="270" y="45" width="5" height="5"/><rect class="cls-3" x="235" y="45" width="5" height="5"/><rect class="cls-3" x="250" y="45" width="5" height="5"/><rect class="cls-3" x="255" y="40" width="5" height="5"/><rect class="cls-3" x="265" y="50" width="5" height="5"/><rect class="cls-3" x="260" y="55" width="5" height="5"/><rect class="cls-2" x="245" y="50" width="5" height="5"/><rect class="cls-2" x="255" y="50" width="5" height="5"/><rect class="cls-2" x="270" y="50" width="5" height="5"/><rect class="cls-2" x="260" y="45" width="5" height="5"/><rect class="cls-2" x="240" y="45" width="5" height="5"/><rect class="cls-2" x="265" y="40" width="5" height="5"/><rect class="cls-2" x="235" y="50" width="5" height="5"/><rect class="cls-3" x="195" y="50" width="5" height="5"/><rect class="cls-3" x="205" y="45" width="5" height="5"/><rect class="cls-3" x="200" y="55" width="5" height="5"/><rect class="cls-3" x="215" y="55" width="5" height="5"/><rect class="cls-2" x="200" y="50" width="5" height="5"/><rect class="cls-2" x="210" y="50" width="5" height="5"/><rect class="cls-2" x="215" y="45" width="5" height="5"/><rect class="cls-2" x="190" y="50" width="5" height="5"/><rect class="cls-3" x="115" y="50" width="5" height="5"/><rect class="cls-3" x="100" y="50" width="5" height="5"/><rect class="cls-3" x="105" y="55" width="5" height="5"/><rect class="cls-3" x="105" y="45" width="5" height="5"/><rect class="cls-3" x="120" y="55" width="5" height="5"/><rect class="cls-2" x="120" y="50" width="5" height="5"/><rect class="cls-2" x="110" y="50" width="5" height="5"/><rect class="cls-2" x="95" y="50" width="5" height="5"/><rect class="cls-5" x="2.5" y="15" width="2.5" height="2.5"/><rect class="cls-6" y="15" width="2.5" height="2.5"/><rect class="cls-5" x="7.5" y="15" width="2.5" height="2.5"/><rect class="cls-7" x="5" y="15" width="2.5" height="2.5"/><rect class="cls-7" y="17.5" width="2.5" height="2.5"/><rect class="cls-5" y="20" width="2.5" height="2.5"/><rect class="cls-5" x="17.5" width="2.5" height="2.5"/><rect class="cls-6" x="15" width="2.5" height="2.5"/><rect class="cls-5" x="22.5" width="2.5" height="2.5"/><rect class="cls-7" x="20" width="2.5" height="2.5"/><rect class="cls-7" x="15" y="2.5" width="2.5" height="2.5"/><rect class="cls-5" x="15" y="5" width="2.5" height="2.5"/><rect class="cls-5" x="112.5" width="2.5" height="2.5"/><rect class="cls-6" x="110" width="2.5" height="2.5"/><rect class="cls-7" x="115" width="2.5" height="2.5"/><rect class="cls-7" x="110" y="2.5" width="2.5" height="2.5"/><rect class="cls-5" x="110" y="5" width="2.5" height="2.5"/><polygon class="cls-2" points="80 65 80 80 70 80 70 95 15 95 15 80 0 80 0 55 30 55 30 80 55 80 55 65 80 65"/><rect class="cls-3" x="20" y="50" width="5" height="5"/><rect class="cls-3" x="5" y="50" width="5" height="5"/><rect class="cls-3" x="10" y="55" width="5" height="5"/><rect class="cls-3" x="10" y="45" width="5" height="5"/><rect class="cls-3" x="25" y="45" width="5" height="5"/><rect class="cls-3" x="25" y="55" width="5" height="5"/><rect class="cls-2" x="25" y="50" width="5" height="5"/><rect class="cls-2" x="20" y="45" width="5" height="5"/><rect class="cls-2" x="15" y="50" width="5" height="5"/><rect class="cls-2" y="50" width="5" height="5"/><polygon class="cls-2" points="180 55 180 80 165 80 165 95 110 95 110 80 95 80 95 55 125 55 125 80 150 80 150 55 180 55"/><rect class="cls-3" x="170" y="50" width="5" height="5"/><rect class="cls-3" x="155" y="50" width="5" height="5"/><rect class="cls-3" x="160" y="55" width="5" height="5"/><rect class="cls-3" x="160" y="45" width="5" height="5"/><rect class="cls-3" x="175" y="55" width="5" height="5"/><rect class="cls-2" x="175" y="50" width="5" height="5"/><rect class="cls-2" x="165" y="50" width="5" height="5"/><rect class="cls-2" x="150" y="50" width="5" height="5"/><rect class="cls-2" x="315" y="45" width="5" height="5"/><rect class="cls-2" x="340" y="50" width="5" height="5"/><rect class="cls-2" x="350" y="45" width="5" height="5"/><rect class="cls-2" x="355" y="50" width="5" height="5"/><rect class="cls-2" x="365" y="50" width="5" height="5"/><rect class="cls-2" x="360" y="45" width="5" height="5"/><rect class="cls-3" x="355" y="55" width="5" height="5"/><rect class="cls-2" x="385" y="55" width="30" height="40"/><polygon class="cls-2" points="460 65 460 95 435 95 435 65 425 65 425 50 455 50 455 65 460 65"/><rect class="cls-2" x="590" y="55" width="30" height="40"/><rect class="cls-3" x="595" y="55" width="5" height="5"/><rect class="cls-3" x="605" y="55" width="5" height="5"/><rect class="cls-3" x="595" y="45" width="5" height="5"/><rect class="cls-2" x="395" y="45" width="5" height="5"/><rect class="cls-2" x="390" y="50" width="5" height="5"/><rect class="cls-2" x="400" y="50" width="5" height="5"/><rect class="cls-2" x="410" y="50" width="25" height="5"/><rect class="cls-2" x="405" y="45" width="5" height="5"/><rect class="cls-2" x="435" y="45" width="5" height="5"/><rect class="cls-3" x="385" y="45" width="5" height="5"/><rect class="cls-3" x="395" y="50" width="5" height="5"/><rect class="cls-3" x="415" y="50" width="5" height="5"/><rect class="cls-3" x="430" y="55" width="5" height="5"/><rect class="cls-3" x="435" y="50" width="5" height="5"/><rect class="cls-3" x="420" y="45" width="5" height="5"/><rect class="cls-2" x="415" y="45" width="5" height="5"/><rect class="cls-2" x="445" y="40" width="5" height="5"/><rect class="cls-3" x="430" y="45" width="5" height="5"/><rect class="cls-3" x="440" y="40" width="5" height="5"/><rect class="cls-3" x="445" y="45" width="5" height="5"/><rect class="cls-3" x="445" y="55" width="5" height="5"/><rect class="cls-3" x="425" y="50" width="5" height="5"/><rect class="cls-3" x="390" y="55" width="5" height="5"/><rect class="cls-3" x="345" y="50" width="5" height="5"/><rect class="cls-3" x="335" y="50" width="5" height="5"/><rect class="cls-3" x="310" y="55" width="5" height="5"/><rect class="cls-3" x="305" y="45" width="5" height="5"/><rect class="cls-3" x="300" y="55" width="5" height="5"/><rect class="cls-3" x="295" y="60" width="5" height="5"/><rect class="cls-3" x="310" y="40" width="5" height="5"/><rect class="cls-3" x="295" y="50" width="5" height="5"/><polygon class="cls-2" points="725 55 725 80 720 80 720 95 665 95 665 80 650 80 650 65 680 65 680 80 700 80 700 55 725 55"/></g></g></svg>