<svg xmlns="http://www.w3.org/2000/svg" viewBox="0 0 150 57.5"><defs><style>.cls-1{fill:#235fda;}.cls-2{fill:#f1f0ee;}.cls-3{fill:#3061d1;}.cls-4{fill:#5c6c78;}.cls-5{fill:#4c5c66;}.cls-6{fill:#96a5ab;}.cls-7{fill:#2c3746;}.cls-8{fill:#1b479e;}.cls-9{fill:#bccace;}</style></defs><g id="Layer_2" data-name="Layer 2"><g id="Layer_1-2" data-name="Layer 1"><rect class="cls-1" x="90" y="42.5" width="40" height="5"/><rect class="cls-1" x="135" y="42.5" width="5" height="5"/><rect class="cls-1" x="115" y="37.5" width="30" height="5"/><rect class="cls-1" x="85" y="32.5" width="5" height="5"/><rect class="cls-1" x="110" y="52.5" width="5" height="5"/><rect class="cls-1" x="145" y="42.5" width="5" height="5"/><rect class="cls-1" x="145" y="32.5" width="5" height="5"/><rect class="cls-1" x="135" y="32.5" width="5" height="5"/><rect class="cls-2" x="50" y="17.5" width="5" height="5"/><rect class="cls-2" x="45" y="17.5" width="5" height="5"/><rect class="cls-3" y="37.5" width="85" height="5"/><rect class="cls-3" x="5" y="32.5" width="60" height="5"/><rect class="cls-4" x="45" y="2.5" width="10" height="10"/><polygon class="cls-4" points="55 7.5 55 12.5 51 12.5 51 37.5 45 37.5 45 47.5 7.5 47.5 7.5 42.5 12.5 42.5 12.5 37.5 17.5 37.5 17.5 32.5 22.5 32.5 22.5 27.5 27.5 27.5 27.5 22.5 32.5 22.5 32.5 17.5 37.5 17.5 37.5 12.5 42.5 12.5 42.5 7.5 55 7.5"/><rect class="cls-5" x="42.5" y="17.5" width="2.5" height="2.5"/><rect class="cls-5" x="47.5" y="12.5" width="2.5" height="2.5"/><rect class="cls-5" x="28.75" y="18.75" width="2.5" height="40" transform="translate(68.75 8.75) rotate(90)"/><rect class="cls-5" x="35" y="22.5" width="2.5" height="27.5" transform="translate(72.5 0) rotate(90)"/><rect class="cls-5" x="37.5" y="22.5" width="2.5" height="22.5" transform="translate(72.5 -5) rotate(90)"/><rect class="cls-5" x="40" y="22.5" width="2.5" height="17.5" transform="translate(72.5 -10) rotate(90)"/><rect class="cls-5" x="42.5" y="22.5" width="2.5" height="12.5" transform="translate(72.5 -15) rotate(90)"/><rect class="cls-5" x="46.25" y="18.75" width="2.5" height="5" transform="translate(68.75 -26.25) rotate(90)"/><rect class="cls-5" x="45" y="20" width="2.5" height="7.5" transform="translate(70 -22.5) rotate(90)"/><rect class="cls-5" x="43.75" y="21.25" width="2.5" height="10" transform="translate(71.25 -18.75) rotate(90)"/><rect class="cls-6" x="42.5" y="7.5" width="5" height="2.5"/><rect class="cls-6" x="40" y="7.5" width="2.5" height="5"/><rect class="cls-5" x="47.5" y="17.5" width="2.5" height="19.5"/><rect class="cls-7" x="47.5" y="37.5" width="2.5" height="5"/><rect class="cls-5" x="50" y="10" width="2.5" height="17.5"/><rect class="cls-5" x="52.5" y="5" width="2.5" height="12"/><rect class="cls-8" x="50" y="37.5" width="15" height="5"/><rect class="cls-7" x="50" y="25" width="2.5" height="15"/><rect class="cls-7" x="52.5" y="12.5" width="2.5" height="15"/><rect class="cls-7" x="55" y="5" width="2.5" height="10"/><rect class="cls-6" x="37.5" y="12.5" width="2.5" height="2.5"/><rect class="cls-9" x="40" y="7.5" width="2.5" height="2.5"/><rect class="cls-6" x="47.5" y="2.5" width="2.5" height="2.5"/><rect class="cls-6" x="45" y="2.5" width="2.5" height="5"/><rect class="cls-9" x="45" y="2.5" width="2.5" height="2.5"/><rect class="cls-6" x="52.5" width="7.5" height="2.5"/><rect class="cls-4" x="57.5" width="2.5" height="2.5"/><rect class="cls-5" x="55" y="2.5" width="2.5" height="2.5"/><rect class="cls-7" x="57.5" y="2.5" width="2.5" height="5"/><rect class="cls-9" x="50" width="2.5" height="2.5"/><rect class="cls-6" x="32.5" y="17.5" width="2.5" height="2.5"/><rect class="cls-6" x="27.5" y="22.5" width="2.5" height="2.5"/><rect class="cls-6" x="22.5" y="27.5" width="2.5" height="2.5"/><rect class="cls-6" x="17.5" y="32.5" width="2.5" height="2.5"/><rect class="cls-6" x="12.5" y="37.5" width="2.5" height="2.5"/><rect class="cls-6" x="35" y="12.5" width="2.5" height="5"/><rect class="cls-6" x="30" y="17.5" width="2.5" height="5"/><rect class="cls-6" x="25" y="22.5" width="2.5" height="5"/><rect class="cls-6" x="20" y="27.5" width="2.5" height="5"/><rect class="cls-6" x="15" y="32.5" width="2.5" height="5"/><rect class="cls-6" x="10" y="37.5" width="2.5" height="5"/><rect class="cls-7" x="28.75" y="21.3" width="2.5" height="40" transform="translate(71.3 11.3) rotate(90)"/><rect class="cls-4" x="7.5" y="42.5" width="2.5" height="5"/><rect class="cls-9" x="35" y="12.5" width="2.5" height="2.5"/><rect class="cls-9" x="30" y="17.5" width="2.5" height="2.5"/><rect class="cls-9" x="25" y="22.5" width="2.5" height="2.5"/><rect class="cls-9" x="20" y="27.5" width="2.5" height="2.5"/><rect class="cls-9" x="15" y="32.5" width="2.5" height="2.5"/><rect class="cls-7" x="47.5" y="32.5" width="2.5" height="2.5"/><rect class="cls-7" x="40" y="35" width="2.5" height="2.5"/><rect class="cls-7" x="45" y="35" width="2.5" height="2.5"/><rect class="cls-7" x="42.5" y="32.5" width="2.5" height="2.5"/><rect class="cls-7" x="37.5" y="37.5" width="2.5" height="2.5"/><rect class="cls-7" x="32.5" y="37.5" width="2.5" height="2.5"/><rect class="cls-7" x="42.5" y="37.5" width="2.5" height="2.5"/><rect class="cls-3" x="5" y="42.5" width="70" height="5"/><rect class="cls-8" x="20" y="42.5" width="5" height="5"/><rect class="cls-8" x="70" y="37.5" width="5" height="5"/><rect class="cls-8" x="65" y="32.5" width="5" height="5"/><rect class="cls-8" x="125" y="42.5" width="10" height="5"/><rect class="cls-8" x="130" y="37.5" width="10" height="5"/><rect class="cls-8" x="65" y="42.5" width="5" height="5"/><rect class="cls-8" x="55" y="42.5" width="5" height="5"/><rect class="cls-8" x="30" y="42.5" width="20" height="5"/><rect class="cls-7" x="125" y="32.5" width="7.5" height="10"/><rect class="cls-4" x="122.5" y="37.5" width="2.5" height="2.5"/><rect class="cls-7" x="132.5" y="30" width="2.5" height="7.5"/><rect class="cls-7" x="117.5" y="40" width="15" height="2.5"/><rect class="cls-9" x="125" y="32.5" width="2.55" height="2.5"/><rect class="cls-7" x="130" y="37.5" width="5" height="2.5"/><rect class="cls-9" x="120" y="37.5" width="2.5" height="2.5"/><rect class="cls-4" x="125" y="35" width="2.5" height="2.5"/><rect class="cls-4" x="127.5" y="37.5" width="2.5" height="2.5"/><rect class="cls-4" x="127.5" y="32.5" width="2.5" height="2.5"/><rect class="cls-4" x="130" y="35" width="2.5" height="2.5"/><rect class="cls-9" x="122.5" y="35" width="2.5" height="2.5"/><rect class="cls-4" x="117.5" y="40" width="2.5" height="2.5"/><rect class="cls-9" x="127.5" y="30" width="5" height="2.5"/><rect class="cls-4" x="130" y="30" width="2.5" height="2.5"/><rect class="cls-9" x="130" y="27.5" width="5" height="2.5"/></g></g></svg>