<svg xmlns="http://www.w3.org/2000/svg" viewBox="0 0 1100 328"><defs><style>.cls-1{fill:#424b75;}.cls-2{fill:#171b33;}.cls-3{fill:#293052;}.cls-4{fill:#6573a9;}.cls-5{fill:#566596;}.cls-6{fill:#c0bc5a;}.cls-7{fill:#f9f7e4;}.cls-8{fill:#dbd695;}.cls-9{fill:#eb5b55;}.cls-10{fill:#802710;}.cls-11{fill:#450b16;}.cls-12{fill:#fc9292;}.cls-13{fill:#fff;}</style></defs><g id="Layer_2" data-name="Layer 2"><g id="Layer_1-2" data-name="Layer 1"><path class="cls-1" d="M984,165V150H974V140h15V105H974V90H899V200h30V155h20v10h15v35h30V165Zm-55-25V105h30v35Z"/><polygon class="cls-1" points="774 90 774 155 759 155 759 185 744 185 744 200 709 200 709 185 694 185 694 155 679 155 679 90 709 90 709 155 744 155 744 90 774 90"/><polygon class="cls-1" points="424 90 424 200 394 200 394 150 379 150 379 159 359 159 359 150 344 150 344 200 314 200 314 90 344 90 344 120 359 120 359 135 379 135 379 120 394 120 394 90 424 90"/><path class="cls-1" d="M649,105V90H584v15H569v80h15v15h65V185h15V105Zm-15,80H599V105h35Z"/><polygon class="cls-1" points="469 105 469 135 519 135 519 150 469 150 469 185 534 185 534 200 439 200 439 90 534 90 534 105 469 105"/><polygon class="cls-1" points="819 105 819 135 869 135 869 150 819 150 819 185 884 185 884 200 789 200 789 90 884 90 884 105 819 105"/><polygon class="cls-1" points="129 105 129 185 159 185 159 150 144 150 144 135 189 135 189 200 114 200 114 185 99 185 99 105 114 105 114 90 189 90 189 105 129 105"/><path class="cls-1" d="M284,105V90H219v15H204v95h30V165h35v35h30V105Zm-15,45H234V105h35Z"/><path class="cls-1" d="M984,165V150H974V140h15V105H974V90H899V200h30V155h20v10h15v35h30V165Zm-55-60h30v35H929Z"/><polygon class="cls-1" points="774 90 774 155 759 155 759 185 744 185 744 200 709 200 709 185 694 185 694 155 679 155 679 90 709 90 709 155 744 155 744 90 774 90"/><polygon class="cls-1" points="424 90 424 200 394 200 394 150 379 150 379 159 359 159 359 150 344 150 344 200 314 200 314 90 344 90 344 120 359 120 359 135 379 135 379 120 394 120 394 90 424 90"/><path class="cls-1" d="M649,105V90H584v15H569v80h15v15h65V185h15V105Zm-15,80H599V105h35Z"/><polygon class="cls-1" points="469 105 469 135 519 135 519 150 469 150 469 185 534 185 534 200 439 200 439 90 534 90 534 105 469 105"/><polygon class="cls-1" points="819 105 819 135 869 135 869 150 819 150 819 185 884 185 884 200 789 200 789 90 884 90 884 105 819 105"/><polygon class="cls-1" points="129 185 159 185 159 150 144 150 144 135 189 135 189 200 114 200 114 185 99 185 99 105 114 105 114 90 189 90 189 105 129 105 129 185"/><path class="cls-1" d="M284,105V90H219v15H204v95h30V165h35v35h30V105Zm-15,45H234V105h35Z"/><polygon class="cls-2" points="189 145 189 200 114 200 114 185 99 185 99 145 129 145 129 185 159 185 159 150 144 150 144 145 189 145"/><polygon class="cls-2" points="299 145 299 200 269 200 269 165 234 165 234 200 204 200 204 145 234 145 234 150 269 150 269 145 299 145"/><polygon class="cls-2" points="314 145 424 145 424 200 394 200 394 150 379 150 379 160 359 160 359 150 344 150 344 200 314 200 314 145"/><polygon class="cls-2" points="469 185 534 185 534 200 439 200 439 145 519 145 519 150 469 150 469 185"/><polygon class="cls-2" points="664 145 664 185 649 185 649 200 584 200 584 185 569 185 569 145 599 145 599 185 634 185 634 145 664 145"/><polygon class="cls-2" points="774 145 774 155 759 155 759 185 744 185 744 200 709 200 709 185 694 185 694 155 679 155 679 145 709 145 709 155 744 155 744 145 774 145"/><polygon class="cls-2" points="819 185 884 185 884 200 789 200 789 145 869 145 869 150 819 150 819 185"/><polygon class="cls-2" points="994 165 994 200 964 200 964 165 949 165 949 155 929 155 929 200 899 200 899 145 974 145 974 150 984 150 984 165 994 165"/><rect class="cls-2" x="759" y="135" width="5" height="5"/><rect class="cls-2" x="764" y="130" width="5" height="5"/><rect class="cls-2" x="769" y="125" width="5" height="5"/><rect class="cls-2" x="754" y="140" width="5" height="5"/><rect class="cls-2" x="744" y="140" width="5" height="5"/><rect class="cls-2" x="764" y="140" width="5" height="5"/><rect class="cls-3" x="759" y="140" width="5" height="5"/><rect class="cls-3" x="769" y="130" width="5" height="5"/><rect class="cls-3" x="759" y="125" width="5" height="5"/><rect class="cls-3" x="754" y="145" width="5" height="5"/><rect class="cls-3" x="744" y="145" width="5" height="5"/><rect class="cls-3" x="749" y="135" width="5" height="5"/><rect class="cls-2" x="769" y="140" width="5" height="5"/><rect class="cls-2" x="769" y="135" width="5" height="5"/><rect class="cls-2" x="649" y="135" width="5" height="5"/><rect class="cls-2" x="654" y="130" width="5" height="5"/><rect class="cls-2" x="659" y="125" width="5" height="5"/><rect class="cls-2" x="644" y="140" width="5" height="5"/><rect class="cls-2" x="634" y="140" width="5" height="5"/><rect class="cls-2" x="654" y="140" width="5" height="5"/><rect class="cls-3" x="649" y="140" width="5" height="5"/><rect class="cls-3" x="659" y="130" width="5" height="5"/><rect class="cls-3" x="579" y="130" width="5" height="5"/><rect class="cls-3" x="569" y="130" width="5" height="5"/><rect class="cls-3" x="644" y="145" width="5" height="5"/><rect class="cls-3" x="634" y="145" width="5" height="5"/><rect class="cls-3" x="639" y="135" width="5" height="5"/><rect class="cls-3" x="644" y="130" width="5" height="5"/><rect class="cls-2" x="659" y="140" width="5" height="5"/><rect class="cls-2" x="659" y="135" width="5" height="5"/><rect class="cls-2" x="584" y="135" width="5" height="5"/><rect class="cls-2" x="589" y="130" width="5" height="5"/><rect class="cls-2" x="594" y="125" width="5" height="5"/><rect class="cls-2" x="579" y="140" width="5" height="5"/><rect class="cls-2" x="569" y="140" width="5" height="5"/><rect class="cls-2" x="589" y="140" width="5" height="5"/><rect class="cls-3" x="584" y="140" width="5" height="5"/><rect class="cls-3" x="594" y="130" width="5" height="5"/><rect class="cls-3" x="584" y="125" width="5" height="5"/><rect class="cls-3" x="579" y="145" width="5" height="5"/><rect class="cls-3" x="569" y="145" width="5" height="5"/><rect class="cls-3" x="574" y="135" width="5" height="5"/><rect class="cls-2" x="594" y="140" width="5" height="5"/><rect class="cls-2" x="594" y="135" width="5" height="5"/><rect class="cls-2" x="854" y="135" width="5" height="5"/><rect class="cls-2" x="809" y="140" width="5" height="5"/><rect class="cls-2" x="799" y="140" width="5" height="5"/><rect class="cls-2" x="829" y="140" width="5" height="5"/><rect class="cls-2" x="819" y="140" width="5" height="5"/><rect class="cls-2" x="849" y="140" width="5" height="5"/><rect class="cls-2" x="839" y="140" width="5" height="5"/><rect class="cls-2" x="844" y="135" width="5" height="5"/><rect class="cls-2" x="804" y="135" width="5" height="5"/><rect class="cls-2" x="859" y="140" width="5" height="5"/><rect class="cls-3" x="854" y="140" width="5" height="5"/><rect class="cls-3" x="809" y="145" width="5" height="5"/><rect class="cls-3" x="794" y="145" width="5" height="5"/><rect class="cls-3" x="789" y="140" width="5" height="5"/><rect class="cls-3" x="799" y="150" width="5" height="5"/><rect class="cls-3" x="814" y="150" width="5" height="5"/><rect class="cls-3" x="834" y="140" width="5" height="5"/><rect class="cls-3" x="849" y="135" width="5" height="5"/><rect class="cls-3" x="849" y="145" width="5" height="5"/><rect class="cls-3" x="839" y="145" width="5" height="5"/><rect class="cls-2" x="824" y="145" width="5" height="5"/><rect class="cls-3" x="814" y="140" width="5" height="5"/><rect class="cls-3" x="824" y="140" width="5" height="5"/><rect class="cls-3" x="829" y="135" width="5" height="5"/><rect class="cls-3" x="839" y="135" width="5" height="5"/><rect class="cls-1" x="799" y="145" width="5" height="5"/><rect class="cls-1" x="789" y="150" width="5" height="5"/><rect class="cls-1" x="804" y="150" width="5" height="5"/><rect class="cls-3" x="844" y="140" width="5" height="5"/><rect class="cls-2" x="864" y="140" width="5" height="5"/><rect class="cls-2" x="864" y="135" width="5" height="5"/><rect class="cls-2" x="964" y="135" width="5" height="5"/><rect class="cls-2" x="919" y="140" width="5" height="5"/><rect class="cls-2" x="504" y="135" width="5" height="5"/><rect class="cls-2" x="509" y="140" width="5" height="5"/><rect class="cls-2" x="449" y="140" width="5" height="5"/><rect class="cls-2" x="479" y="140" width="5" height="5"/><rect class="cls-2" x="494" y="135" width="5" height="5"/><rect class="cls-2" x="454" y="135" width="5" height="5"/><rect class="cls-2" x="464" y="135" width="5" height="5"/><rect class="cls-2" x="439" y="135" width="5" height="5"/><rect class="cls-2" x="444" y="140" width="5" height="5"/><rect class="cls-2" x="459" y="140" width="5" height="5"/><rect class="cls-3" x="504" y="140" width="5" height="5"/><rect class="cls-3" x="514" y="140" width="5" height="5"/><rect class="cls-3" x="459" y="145" width="5" height="5"/><rect class="cls-3" x="444" y="145" width="5" height="5"/><rect class="cls-3" x="439" y="140" width="5" height="5"/><rect class="cls-3" x="449" y="150" width="5" height="5"/><rect class="cls-3" x="464" y="150" width="5" height="5"/><rect class="cls-3" x="484" y="140" width="5" height="5"/><rect class="cls-3" x="499" y="135" width="5" height="5"/><rect class="cls-3" x="499" y="145" width="5" height="5"/><rect class="cls-3" x="479" y="145" width="5" height="5"/><rect class="cls-3" x="469" y="145" width="5" height="5"/><rect class="cls-3" x="464" y="140" width="5" height="5"/><rect class="cls-3" x="474" y="140" width="5" height="5"/><rect class="cls-3" x="479" y="135" width="5" height="5"/><rect class="cls-3" x="489" y="135" width="5" height="5"/><rect class="cls-3" x="469" y="135" width="5" height="5"/><rect class="cls-3" x="454" y="140" width="5" height="5"/><rect class="cls-3" x="449" y="135" width="5" height="5"/><rect class="cls-3" x="459" y="155" width="5" height="5"/><rect class="cls-3" x="444" y="155" width="5" height="5"/><rect class="cls-1" x="449" y="140" width="5" height="5"/><rect class="cls-1" x="439" y="150" width="5" height="5"/><rect class="cls-1" x="454" y="150" width="5" height="5"/><rect class="cls-3" x="494" y="140" width="5" height="5"/><rect class="cls-2" x="514" y="135" width="5" height="5"/><rect class="cls-2" x="379" y="135" width="5" height="5"/><rect class="cls-2" x="384" y="140" width="5" height="5"/><rect class="cls-2" x="354" y="140" width="5" height="5"/><rect class="cls-2" x="369" y="135" width="5" height="5"/><rect class="cls-2" x="374" y="140" width="5" height="5"/><rect class="cls-2" x="329" y="135" width="5" height="5"/><rect class="cls-2" x="339" y="135" width="5" height="5"/><rect class="cls-2" x="314" y="135" width="5" height="5"/><rect class="cls-2" x="319" y="140" width="5" height="5"/><rect class="cls-2" x="334" y="140" width="5" height="5"/><rect class="cls-3" x="379" y="140" width="5" height="5"/><rect class="cls-3" x="389" y="140" width="5" height="5"/><rect class="cls-3" x="334" y="145" width="5" height="5"/><rect class="cls-3" x="319" y="145" width="5" height="5"/><rect class="cls-3" x="314" y="140" width="5" height="5"/><rect class="cls-3" x="324" y="150" width="5" height="5"/><rect class="cls-3" x="339" y="150" width="5" height="5"/><rect class="cls-3" x="359" y="140" width="5" height="5"/><rect class="cls-3" x="374" y="135" width="5" height="5"/><rect class="cls-3" x="409" y="145" width="5" height="5"/><rect class="cls-3" x="419" y="150" width="5" height="5"/><rect class="cls-3" x="399" y="150" width="5" height="5"/><rect class="cls-3" x="374" y="145" width="5" height="5"/><rect class="cls-3" x="344" y="145" width="5" height="5"/><rect class="cls-3" x="339" y="140" width="5" height="5"/><rect class="cls-3" x="349" y="140" width="5" height="5"/><rect class="cls-3" x="354" y="135" width="5" height="5"/><rect class="cls-3" x="364" y="135" width="5" height="5"/><rect class="cls-3" x="394" y="130" width="5" height="5"/><rect class="cls-3" x="369" y="150" width="5" height="5"/><rect class="cls-3" x="354" y="145" width="5" height="5"/><rect class="cls-3" x="344" y="135" width="5" height="5"/><rect class="cls-3" x="329" y="140" width="5" height="5"/><rect class="cls-3" x="324" y="135" width="5" height="5"/><rect class="cls-3" x="334" y="155" width="5" height="5"/><rect class="cls-3" x="319" y="155" width="5" height="5"/><rect class="cls-1" x="314" y="150" width="5" height="5"/><rect class="cls-2" x="294" y="125" width="5" height="5"/><rect class="cls-2" x="294" y="135" width="5" height="5"/><rect class="cls-2" x="269" y="135" width="5" height="5"/><rect class="cls-2" x="274" y="140" width="5" height="5"/><rect class="cls-2" x="289" y="140" width="5" height="5"/><rect class="cls-3" x="289" y="145" width="5" height="5"/><rect class="cls-3" x="274" y="145" width="5" height="5"/><rect class="cls-3" x="269" y="140" width="5" height="5"/><rect class="cls-3" x="279" y="150" width="5" height="5"/><rect class="cls-3" x="294" y="150" width="5" height="5"/><rect class="cls-3" x="294" y="140" width="5" height="5"/><rect class="cls-1" x="289" y="135" width="5" height="5"/><rect class="cls-2" x="284" y="135" width="5" height="5"/><rect class="cls-3" x="279" y="140" width="5" height="5"/><rect class="cls-3" x="279" y="135" width="5" height="5"/><rect class="cls-3" x="289" y="130" width="5" height="5"/><rect class="cls-3" x="289" y="155" width="5" height="5"/><rect class="cls-3" x="274" y="155" width="5" height="5"/><rect class="cls-1" x="269" y="150" width="5" height="5"/><rect class="cls-2" x="229" y="135" width="5" height="5"/><rect class="cls-2" x="209" y="140" width="5" height="5"/><rect class="cls-2" x="224" y="140" width="5" height="5"/><rect class="cls-3" x="224" y="145" width="5" height="5"/><rect class="cls-3" x="209" y="145" width="5" height="5"/><rect class="cls-3" x="204" y="140" width="5" height="5"/><rect class="cls-3" x="214" y="150" width="5" height="5"/><rect class="cls-3" x="229" y="150" width="5" height="5"/><rect class="cls-3" x="239" y="150" width="5" height="5"/><rect class="cls-3" x="244" y="155" width="5" height="5"/><rect class="cls-3" x="254" y="155" width="5" height="5"/><rect class="cls-3" x="264" y="150" width="5" height="5"/><rect class="cls-1" x="249" y="150" width="5" height="5"/><rect class="cls-1" x="259" y="150" width="5" height="5"/><rect class="cls-1" x="264" y="155" width="5" height="5"/><rect class="cls-3" x="229" y="140" width="5" height="5"/><rect class="cls-3" x="219" y="140" width="5" height="5"/><rect class="cls-3" x="214" y="135" width="5" height="5"/><rect class="cls-3" x="224" y="135" width="5" height="5"/><rect class="cls-2" x="169" y="135" width="5" height="5"/><rect class="cls-2" x="174" y="140" width="5" height="5"/><rect class="cls-2" x="184" y="140" width="5" height="5"/><rect class="cls-2" x="179" y="135" width="5" height="5"/><rect class="cls-2" x="149" y="140" width="5" height="5"/><rect class="cls-2" x="164" y="140" width="5" height="5"/><rect class="cls-3" x="149" y="145" width="5" height="5"/><rect class="cls-3" x="144" y="140" width="5" height="5"/><rect class="cls-3" x="169" y="140" width="5" height="5"/><rect class="cls-3" x="174" y="145" width="5" height="5"/><rect class="cls-3" x="164" y="145" width="5" height="5"/><rect class="cls-3" x="159" y="140" width="5" height="5"/><rect class="cls-3" x="179" y="140" width="5" height="5"/><rect class="cls-3" x="184" y="135" width="5" height="5"/><rect class="cls-3" x="154" y="135" width="5" height="5"/><rect class="cls-3" x="164" y="135" width="5" height="5"/><rect class="cls-2" x="119" y="135" width="5" height="5"/><rect class="cls-2" x="124" y="130" width="5" height="5"/><rect class="cls-2" x="124" y="140" width="5" height="5"/><rect class="cls-2" x="99" y="140" width="5" height="5"/><rect class="cls-2" x="114" y="140" width="5" height="5"/><rect class="cls-3" x="99" y="145" width="5" height="5"/><rect class="cls-3" x="104" y="150" width="5" height="5"/><rect class="cls-3" x="119" y="130" width="5" height="5"/><rect class="cls-3" x="124" y="125" width="5" height="5"/><rect class="cls-3" x="169" y="150" width="5" height="5"/><rect class="cls-3" x="179" y="150" width="5" height="5"/><rect class="cls-3" x="119" y="150" width="5" height="5"/><rect class="cls-3" x="114" y="155" width="5" height="5"/><rect class="cls-3" x="124" y="135" width="5" height="5"/><rect class="cls-3" x="119" y="140" width="5" height="5"/><rect class="cls-3" x="124" y="145" width="5" height="5"/><rect class="cls-3" x="114" y="145" width="5" height="5"/><rect class="cls-3" x="109" y="140" width="5" height="5"/><rect class="cls-3" x="104" y="135" width="5" height="5"/><rect class="cls-3" x="114" y="135" width="5" height="5"/><rect class="cls-3" x="229" y="130" width="5" height="5"/><rect class="cls-3" x="294" y="130" width="5" height="5"/><rect class="cls-3" x="224" y="155" width="5" height="5"/><rect class="cls-3" x="209" y="155" width="5" height="5"/><rect class="cls-1" x="204" y="150" width="5" height="5"/><rect class="cls-1" x="329" y="150" width="5" height="5"/><rect class="cls-3" x="369" y="140" width="5" height="5"/><rect class="cls-3" x="364" y="145" width="5" height="5"/><rect class="cls-2" x="389" y="135" width="5" height="5"/><rect class="cls-2" x="399" y="140" width="5" height="5"/><rect class="cls-3" x="394" y="140" width="5" height="5"/><rect class="cls-3" x="404" y="140" width="5" height="5"/><rect class="cls-3" x="419" y="140" width="5" height="5"/><rect class="cls-3" x="414" y="135" width="5" height="5"/><rect class="cls-3" x="409" y="130" width="5" height="5"/><rect class="cls-3" x="399" y="135" width="5" height="5"/><rect class="cls-2" x="419" y="125" width="5" height="5"/><rect class="cls-3" x="419" y="130" width="5" height="5"/><rect class="cls-3" x="394" y="140" width="5" height="5"/><rect class="cls-1" x="394" y="145" width="5" height="5"/><rect class="cls-2" x="404" y="135" width="5" height="5"/><rect class="cls-2" x="414" y="130" width="5" height="5"/><rect class="cls-2" x="409" y="140" width="5" height="5"/><rect class="cls-2" x="419" y="135" width="5" height="5"/><rect class="cls-2" x="414" y="140" width="5" height="5"/><rect class="cls-2" x="909" y="140" width="5" height="5"/><rect class="cls-2" x="939" y="140" width="5" height="5"/><rect class="cls-2" x="929" y="140" width="5" height="5"/><rect class="cls-2" x="959" y="140" width="5" height="5"/><rect class="cls-2" x="949" y="140" width="5" height="5"/><rect class="cls-2" x="984" y="135" width="5" height="5"/><rect class="cls-2" x="914" y="135" width="5" height="5"/><rect class="cls-2" x="969" y="140" width="5" height="5"/><rect class="cls-3" x="964" y="140" width="5" height="5"/><rect class="cls-3" x="974" y="155" width="5" height="5"/><rect class="cls-3" x="964" y="155" width="5" height="5"/><rect class="cls-3" x="969" y="150" width="5" height="5"/><rect class="cls-3" x="919" y="145" width="5" height="5"/><rect class="cls-3" x="904" y="145" width="5" height="5"/><rect class="cls-3" x="899" y="140" width="5" height="5"/><rect class="cls-3" x="914" y="150" width="5" height="5"/><rect class="cls-3" x="924" y="150" width="5" height="5"/><rect class="cls-3" x="944" y="140" width="5" height="5"/><rect class="cls-3" x="939" y="145" width="5" height="5"/><rect class="cls-3" x="959" y="135" width="5" height="5"/><rect class="cls-3" x="969" y="130" width="5" height="5"/><rect class="cls-3" x="979" y="125" width="5" height="5"/><rect class="cls-3" x="959" y="145" width="5" height="5"/><rect class="cls-3" x="949" y="145" width="5" height="5"/><rect class="cls-3" x="954" y="150" width="5" height="5"/><rect class="cls-3" x="934" y="140" width="5" height="5"/><rect class="cls-3" x="929" y="145" width="5" height="5"/><rect class="cls-3" x="979" y="135" width="5" height="5"/><rect class="cls-3" x="984" y="130" width="5" height="5"/><rect class="cls-1" x="909" y="145" width="5" height="5"/><rect class="cls-1" x="934" y="150" width="5" height="5"/><rect class="cls-3" x="954" y="140" width="5" height="5"/><rect class="cls-2" x="974" y="140" width="5" height="5"/><rect class="cls-2" x="974" y="135" width="5" height="5"/><rect class="cls-2" x="694" y="135" width="5" height="5"/><rect class="cls-2" x="699" y="130" width="5" height="5"/><rect class="cls-2" x="679" y="130" width="5" height="5"/><rect class="cls-2" x="689" y="140" width="5" height="5"/><rect class="cls-2" x="679" y="140" width="5" height="5"/><rect class="cls-2" x="699" y="140" width="5" height="5"/><rect class="cls-3" x="694" y="140" width="5" height="5"/><rect class="cls-3" x="704" y="130" width="5" height="5"/><rect class="cls-3" x="694" y="125" width="5" height="5"/><rect class="cls-3" x="704" y="145" width="5" height="5"/><rect class="cls-3" x="689" y="145" width="5" height="5"/><rect class="cls-3" x="679" y="145" width="5" height="5"/><rect class="cls-3" x="684" y="135" width="5" height="5"/><rect class="cls-2" x="704" y="140" width="5" height="5"/><rect class="cls-2" x="704" y="135" width="5" height="5"/><rect class="cls-4" x="99" y="105" width="10" height="5"/><rect class="cls-4" x="99" y="110" width="5" height="5"/><rect class="cls-4" x="114" y="90" width="10" height="5"/><rect class="cls-4" x="114" y="95" width="5" height="5"/><rect class="cls-4" x="204" y="105" width="10" height="5"/><rect class="cls-4" x="219" y="90" width="10" height="5"/><rect class="cls-4" x="219" y="95" width="5" height="5"/><rect class="cls-5" x="99" y="115" width="5" height="20"/><rect class="cls-5" x="204" y="110" width="5" height="20"/><rect class="cls-5" x="124" y="90" width="25" height="5"/><rect class="cls-5" x="229" y="90" width="10" height="5"/><rect class="cls-4" x="569" y="105" width="10" height="5"/><rect class="cls-4" x="584" y="90" width="10" height="5"/><rect class="cls-4" x="584" y="95" width="5" height="5"/><rect class="cls-5" x="569" y="110" width="5" height="20"/><rect class="cls-5" x="679" y="100" width="5" height="20"/><rect class="cls-5" x="594" y="90" width="10" height="5"/><rect class="cls-4" x="679" y="90" width="10" height="5"/><rect class="cls-4" x="679" y="95" width="5" height="5"/><rect class="cls-5" x="744" y="90" width="10" height="5"/><rect class="cls-5" x="744" y="95" width="5" height="5"/><rect class="cls-5" x="689" y="90" width="10" height="5"/><rect class="cls-4" x="789" y="90" width="10" height="5"/><rect class="cls-4" x="789" y="95" width="5" height="5"/><rect class="cls-5" x="799" y="90" width="10" height="5"/><rect class="cls-4" x="899" y="90" width="10" height="5"/><rect class="cls-4" x="899" y="95" width="5" height="5"/><rect class="cls-5" x="899" y="100" width="5" height="5"/><rect class="cls-5" x="789" y="105" width="5" height="5"/><rect class="cls-5" x="814" y="90" width="5" height="5"/><rect class="cls-5" x="899" y="110" width="5" height="5"/><rect class="cls-5" x="909" y="90" width="10" height="5"/><rect class="cls-4" x="314" y="90" width="10" height="5"/><rect class="cls-4" x="394" y="90" width="10" height="5"/><rect class="cls-4" x="394" y="95" width="5" height="5"/><rect class="cls-5" x="314" y="95" width="5" height="20"/><rect class="cls-5" x="404" y="90" width="10" height="5"/><rect class="cls-5" x="324" y="90" width="10" height="5"/><rect class="cls-4" x="439" y="90" width="10" height="5"/><rect class="cls-4" x="464" y="90" width="5" height="5"/><rect class="cls-5" x="439" y="95" width="5" height="20"/><rect class="cls-5" x="449" y="90" width="10" height="5"/><rect class="cls-6" x="116.5" y="90" width="2.5" height="2.5"/><rect class="cls-7" x="114" y="90" width="2.5" height="2.5"/><rect class="cls-6" x="121.5" y="90" width="2.5" height="2.5"/><rect class="cls-8" x="119" y="90" width="2.5" height="2.5"/><rect class="cls-8" x="114" y="92.5" width="2.5" height="2.5"/><rect class="cls-6" x="101.5" y="105" width="2.5" height="2.5"/><rect class="cls-7" x="99" y="105" width="2.5" height="2.5"/><rect class="cls-8" x="99" y="107.5" width="2.5" height="2.5"/><rect class="cls-6" x="114" y="95" width="2.5" height="2.5"/><rect class="cls-6" x="221.5" y="90" width="2.5" height="2.5"/><rect class="cls-7" x="219" y="90" width="2.5" height="2.5"/><rect class="cls-6" x="229" y="90" width="2.5" height="2.5"/><rect class="cls-6" x="219" y="100" width="2.5" height="2.5"/><rect class="cls-8" x="224" y="90" width="2.5" height="2.5"/><rect class="cls-8" x="219" y="92.5" width="2.5" height="2.5"/><rect class="cls-6" x="219" y="95" width="2.5" height="2.5"/></g><g id="Target"><path class="cls-9" d="M1080,70V55h-5V50h-5V40h-10V30h-10V25h-5V20h-15V15H980v5H965v5h-5v5H950V40H940V50h-5v5h-5V70h-5v50h5v15h5v5h5v10h10v10h10v5h5v5h15v5h50v-5h15v-5h5v-5h10V150h10V140h5v-5h5V120h5V70Zm-10,45h-5v10h-5v5h-5v10h-5v5h-10v5h-5v5h-10v5H985v-5H975v-5h-5v-5H960v-5h-5V130h-5v-5h-5V115h-5V75h5V65h5V60h5V50h5V45h10V40h5V35h10V30h40v5h10v5h5v5h10v5h5V60h5v5h5V75h5Z"/><rect class="cls-10" x="1070" y="100" width="15" height="2"/><rect class="cls-10" x="1070" y="102" width="15" height="2"/><rect class="cls-10" x="1028" y="168" width="2" height="7"/><rect class="cls-11" x="980" y="173" width="50" height="2"/><rect class="cls-10" x="938" y="75" width="2" height="40"/><rect class="cls-10" x="943" y="63" width="2" height="12"/><rect class="cls-10" x="948" y="58" width="2" height="7"/><rect class="cls-10" x="958" y="43" width="2" height="7"/><rect class="cls-10" x="968" y="38" width="2" height="7"/><rect class="cls-10" x="973" y="33" width="2" height="7"/><rect class="cls-10" x="983" y="28" width="2" height="7"/><rect class="cls-10" x="953" y="48" width="2" height="12"/><rect class="cls-10" x="943" y="115" width="2" height="10"/><rect class="cls-10" x="953" y="130" width="2" height="10"/><rect class="cls-10" x="958" y="140" width="2" height="5"/><rect class="cls-10" x="968" y="145" width="2" height="5"/><rect class="cls-10" x="973" y="150" width="2" height="5"/><rect class="cls-10" x="983" y="155" width="2" height="5"/><rect class="cls-10" x="948" y="125" width="2" height="5"/><rect class="cls-10" x="995" y="75" width="2" height="40"/><rect class="cls-10" x="1083" y="70" width="2" height="50"/><rect class="cls-10" x="1078" y="55" width="2" height="15"/><rect class="cls-10" x="1073" y="50" width="2" height="5"/><rect class="cls-10" x="1048" y="25" width="2" height="5"/><rect class="cls-10" x="1043" y="20" width="2" height="5"/><rect class="cls-10" x="1028" y="15" width="2" height="5"/><rect class="cls-10" x="1068" y="40" width="2" height="10"/><rect class="cls-10" x="1058" y="30" width="2" height="10"/><rect class="cls-10" x="1078" y="120" width="2" height="15"/><rect class="cls-10" x="1073" y="133" width="2" height="7"/><rect class="cls-10" x="1068" y="138" width="2" height="12"/><rect class="cls-10" x="1058" y="148" width="2" height="12"/><rect class="cls-9" x="1000" width="10" height="50"/><rect class="cls-10" x="1008" width="2" height="48"/><rect class="cls-11" x="1000" y="48" width="10" height="2"/><rect class="cls-11" x="1003.5" y="21.5" width="15" height="2" transform="translate(1033.5 -988.5) rotate(90)"/><rect class="cls-10" x="991.5" y="21.5" width="15" height="2" transform="translate(1021.5 -976.5) rotate(90)"/><rect class="cls-10" x="1005.5" y="21.5" width="15" height="2" transform="translate(1035.5 -990.5) rotate(90)"/><rect class="cls-11" x="1010" y="28" width="15" height="2" transform="translate(2035 58) rotate(180)"/><rect class="cls-11" x="983" y="28" width="17" height="2" transform="translate(1983 58) rotate(180)"/><rect class="cls-11" x="1025" y="33" width="10" height="2" transform="translate(2060 68) rotate(180)"/><rect class="cls-11" x="1040" y="43" width="10" height="2" transform="translate(2090 88) rotate(180)"/><rect class="cls-11" x="1035" y="38" width="5" height="2" transform="translate(2075 78) rotate(180)"/><rect class="cls-11" x="1050" y="48" width="5" height="2" transform="translate(2105 98) rotate(180)"/><rect class="cls-11" x="1055" y="58" width="5" height="2" transform="translate(2115 118) rotate(180)"/><rect class="cls-11" x="1060" y="63" width="5" height="2" transform="translate(2125 128) rotate(180)"/><rect class="cls-11" x="1065" y="73" width="5" height="2" transform="translate(2135 148) rotate(180)"/><rect class="cls-11" x="973" y="33" width="12" height="2"/><rect class="cls-11" x="958" y="43" width="12" height="2"/><rect class="cls-11" x="968" y="38" width="7" height="2"/><rect class="cls-11" x="955" y="48" width="5" height="2"/><rect class="cls-11" x="948" y="58" width="7" height="2"/><rect class="cls-11" x="943" y="63" width="7" height="2"/><rect class="cls-11" x="938" y="73" width="7" height="2"/><rect class="cls-9" x="1070" y="70" width="10" height="50" transform="translate(1170 -980) rotate(90)"/><rect class="cls-10" x="1098" y="90" width="2" height="10"/><rect class="cls-11" x="1074" y="74" width="2" height="50" transform="translate(976 1174) rotate(-90)"/><rect class="cls-9" x="999" y="140" width="10" height="50" transform="translate(2008 330) rotate(-180)"/><rect class="cls-10" x="1007" y="140" width="2" height="48"/><rect class="cls-9" x="930" y="70" width="10" height="50" transform="translate(840 1030) rotate(-90)"/><rect class="cls-12" x="910" y="90" width="5" height="2"/><rect class="cls-12" x="925" y="70" width="5" height="2"/><rect class="cls-12" x="930" y="55" width="5" height="2"/><rect class="cls-12" x="935" y="50" width="5" height="2"/><rect class="cls-12" x="945" y="40" width="5" height="2"/><rect class="cls-12" x="952" y="30" width="8" height="2"/><rect class="cls-12" x="962" y="25" width="3" height="2"/><rect class="cls-13" x="960" y="25" width="2" height="2"/><rect class="cls-12" x="967" y="20" width="6" height="2"/><rect class="cls-12" x="984" y="15" width="9" height="2"/><rect class="cls-13" x="965" y="20" width="2" height="2"/><rect class="cls-12" x="1002" width="6" height="2"/><rect class="cls-12" x="998" y="6" width="6" height="2" transform="translate(1008 -994) rotate(90)"/><rect class="cls-13" x="1000" width="2" height="2"/><rect class="cls-13" x="980" y="15" width="2" height="2"/><rect class="cls-12" x="975" y="20" width="2" height="2"/><rect class="cls-13" x="910" y="90" width="2" height="2"/><rect class="cls-13" x="935" y="50" width="2" height="2"/><rect class="cls-13" x="940" y="40" width="2" height="2"/><rect class="cls-13" x="950" y="30" width="2" height="2"/><rect class="cls-13" x="954" y="30" width="2" height="2"/><rect class="cls-12" x="950" y="34" width="2" height="2"/><rect class="cls-12" x="940" y="42" width="2" height="2"/><rect class="cls-12" x="930" y="59" width="2" height="4"/><rect class="cls-12" x="925" y="74" width="2" height="4"/><rect class="cls-12" x="925" y="80" width="2" height="2"/><rect class="cls-12" x="910" y="94" width="2" height="2"/><rect class="cls-10" x="958" y="90" width="2" height="10"/><rect class="cls-11" x="934" y="74" width="2" height="50" transform="translate(836 1034) rotate(-90)"/><rect class="cls-10" x="930.5" y="94.5" width="2" height="13" transform="translate(830.5 1032.5) rotate(-90)"/><rect class="cls-10" x="930.5" y="82.5" width="2" height="13" transform="translate(842.5 1020.5) rotate(-90)"/><rect class="cls-10" x="930.5" y="96.5" width="2" height="13" transform="translate(828.5 1034.5) rotate(-90)"/><rect class="cls-11" x="938" y="100" width="2" height="2" transform="translate(838 1040) rotate(-90)"/><rect class="cls-11" x="938" y="102" width="2" height="2" transform="translate(836 1042) rotate(-90)"/><polygon class="cls-9" points="1025 85 1025 105 1020 105 1020 110 1015 110 1015 115 995 115 995 110 990 110 990 105 985 105 985 85 990 85 990 80 995 80 995 75 1015 75 1015 80 1020 80 1020 85 1025 85"/><rect class="cls-11" x="1078" y="118" width="7" height="2"/><rect class="cls-11" x="1083" y="100" width="2" height="4"/><rect class="cls-11" x="1075" y="133" width="5" height="2"/><rect class="cls-11" x="1070" y="138" width="5" height="2"/><rect class="cls-11" x="1060" y="148" width="10" height="2"/><rect class="cls-11" x="1050" y="158" width="10" height="2"/><rect class="cls-10" x="1048" y="158" width="2" height="7"/><rect class="cls-11" x="1045" y="163" width="5" height="2"/><rect class="cls-11" x="999" y="188" width="10" height="2"/><rect class="cls-11" x="1002.5" y="166.5" width="15" height="2" transform="translate(1177.5 -842.5) rotate(90)"/><rect class="cls-10" x="1005.5" y="165.5" width="13" height="2" transform="translate(1178.5 -845.5) rotate(90)"/><rect class="cls-10" x="991.5" y="165.5" width="13" height="2" transform="translate(1164.5 -831.5) rotate(90)"/><rect class="cls-10" x="1043" y="163" width="2" height="7"/><rect class="cls-11" x="1030" y="168" width="15" height="2"/><rect class="cls-10" x="1010.5" y="110.5" width="7" height="2" transform="translate(1125.5 -902.5) rotate(90)"/><rect class="cls-10" x="1015.5" y="105.5" width="7" height="2" transform="translate(1125.5 -912.5) rotate(90)"/><rect class="cls-10" x="1016.5" y="81.5" width="5" height="2" transform="translate(1101.5 -936.5) rotate(90)"/><rect class="cls-10" x="1011.5" y="76.5" width="5" height="2" transform="translate(1091.5 -936.5) rotate(90)"/><rect class="cls-10" x="1014" y="94" width="20" height="2" transform="translate(1119 -929) rotate(90)"/><rect class="cls-10" x="1070" y="88" width="15" height="2"/><rect class="cls-11" x="995" y="113" width="20" height="2"/><rect class="cls-12" x="990" y="80" width="5" height="2"/><rect class="cls-12" x="999" y="75" width="5" height="2"/><rect class="cls-12" x="983.5" y="90.5" width="5" height="2" transform="translate(1077.5 -894.5) rotate(90)"/><rect class="cls-13" x="995" y="75" width="2" height="2"/><rect class="cls-13" x="990" y="80" width="2" height="2"/><rect class="cls-12" x="985" y="85" width="5" height="2"/><rect class="cls-11" x="1013" y="108" width="7" height="2"/><rect class="cls-13" x="985" y="85" width="2" height="2"/><rect class="cls-11" x="1018" y="103" width="7" height="2"/><path class="cls-9" d="M170,208V193h-5v-5h-5V178H150V168H140v-5h-5v-5H120v-5H70v5H55v5H50v5H40v10H30v10H25v5H20v15H15v50h5v15h5v5h5v10H40v10H50v5h5v5H70v5h50v-5h15v-5h5v-5h10V288h10V278h5v-5h5V258h5V208Zm-10,45h-5v10h-5v5h-5v10h-5v5H130v5h-5v5H115v5H75v-5H65v-5H60v-5H50v-5H45V268H40v-5H35V253H30V213h5V203h5v-5h5V188h5v-5H60v-5h5v-5H75v-5h40v5h10v5h5v5h10v5h5v10h5v5h5v10h5Z"/><rect class="cls-10" x="160" y="238" width="15" height="2"/><rect class="cls-10" x="160" y="240" width="15" height="2"/><rect class="cls-10" x="118" y="306" width="2" height="7"/><rect class="cls-11" x="70" y="311" width="50" height="2"/><rect class="cls-10" x="28" y="213" width="2" height="40"/><rect class="cls-10" x="33" y="201" width="2" height="12"/><rect class="cls-10" x="38" y="196" width="2" height="7"/><rect class="cls-10" x="48" y="181" width="2" height="7"/><rect class="cls-10" x="58" y="176" width="2" height="7"/><rect class="cls-10" x="63" y="171" width="2" height="7"/><rect class="cls-10" x="73" y="166" width="2" height="7"/><rect class="cls-10" x="43" y="186" width="2" height="12"/><rect class="cls-10" x="33" y="253" width="2" height="10"/><rect class="cls-10" x="43" y="268" width="2" height="10"/><rect class="cls-10" x="48" y="278" width="2" height="5"/><rect class="cls-10" x="58" y="283" width="2" height="5"/><rect class="cls-10" x="63" y="288" width="2" height="5"/><rect class="cls-10" x="73" y="293" width="2" height="5"/><rect class="cls-10" x="38" y="263" width="2" height="5"/><rect class="cls-10" x="85" y="213" width="2" height="40"/><rect class="cls-10" x="173" y="208" width="2" height="50"/><rect class="cls-10" x="168" y="193" width="2" height="15"/><rect class="cls-10" x="163" y="188" width="2" height="5"/><rect class="cls-10" x="138" y="163" width="2" height="5"/><rect class="cls-10" x="133" y="158" width="2" height="5"/><rect class="cls-10" x="118" y="153" width="2" height="5"/><rect class="cls-10" x="158" y="178" width="2" height="10"/><rect class="cls-10" x="148" y="168" width="2" height="10"/><rect class="cls-10" x="168" y="258" width="2" height="15"/><rect class="cls-10" x="163" y="271" width="2" height="7"/><rect class="cls-10" x="158" y="276" width="2" height="12"/><rect class="cls-10" x="148" y="286" width="2" height="12"/><rect class="cls-9" x="90" y="138" width="10" height="50"/><rect class="cls-10" x="98" y="138" width="2" height="48"/><rect class="cls-11" x="90" y="186" width="10" height="2"/><rect class="cls-11" x="93.5" y="159.5" width="15" height="2" transform="translate(261.5 59.5) rotate(90)"/><rect class="cls-10" x="81.5" y="159.5" width="15" height="2" transform="translate(249.5 71.5) rotate(90)"/><rect class="cls-10" x="95.5" y="159.5" width="15" height="2" transform="translate(263.5 57.5) rotate(90)"/><rect class="cls-11" x="100" y="166" width="15" height="2" transform="translate(215 334) rotate(180)"/><rect class="cls-11" x="73" y="166" width="17" height="2" transform="translate(163 334) rotate(180)"/><rect class="cls-11" x="115" y="171" width="10" height="2" transform="translate(240 344) rotate(180)"/><rect class="cls-11" x="130" y="181" width="10" height="2" transform="translate(270 364) rotate(180)"/><rect class="cls-11" x="125" y="176" width="5" height="2" transform="translate(255 354) rotate(180)"/><rect class="cls-11" x="140" y="186" width="5" height="2" transform="translate(285 374) rotate(180)"/><rect class="cls-11" x="145" y="196" width="5" height="2" transform="translate(295 394) rotate(180)"/><rect class="cls-11" x="150" y="201" width="5" height="2" transform="translate(305 404) rotate(180)"/><rect class="cls-11" x="155" y="211" width="5" height="2" transform="translate(315 424) rotate(180)"/><rect class="cls-11" x="63" y="171" width="12" height="2"/><rect class="cls-11" x="48" y="181" width="12" height="2"/><rect class="cls-11" x="58" y="176" width="7" height="2"/><rect class="cls-11" x="45" y="186" width="5" height="2"/><rect class="cls-11" x="38" y="196" width="7" height="2"/><rect class="cls-11" x="33" y="201" width="7" height="2"/><rect class="cls-11" x="28" y="211" width="7" height="2"/><rect class="cls-9" x="160" y="208" width="10" height="50" transform="translate(398 68) rotate(90)"/><rect class="cls-10" x="188" y="228" width="2" height="10"/><rect class="cls-11" x="164" y="212" width="2" height="50" transform="translate(-72 402) rotate(-90)"/><rect class="cls-9" x="89" y="278" width="10" height="50" transform="translate(188 606) rotate(-180)"/><rect class="cls-10" x="97" y="278" width="2" height="48"/><rect class="cls-9" x="20" y="208" width="10" height="50" transform="translate(-208 258) rotate(-90)"/><rect class="cls-12" y="228" width="5" height="2"/><rect class="cls-12" x="15" y="208" width="5" height="2"/><rect class="cls-12" x="20" y="193" width="5" height="2"/><rect class="cls-12" x="25" y="188" width="5" height="2"/><rect class="cls-12" x="35" y="178" width="5" height="2"/><rect class="cls-12" x="42" y="168" width="8" height="2"/><rect class="cls-12" x="52" y="163" width="3" height="2"/><rect class="cls-13" x="50" y="163" width="2" height="2"/><rect class="cls-12" x="57" y="158" width="6" height="2"/><rect class="cls-12" x="74" y="153" width="9" height="2"/><rect class="cls-13" x="55" y="158" width="2" height="2"/><rect class="cls-12" x="92" y="138" width="6" height="2"/><rect class="cls-12" x="88" y="144" width="6" height="2" transform="translate(236 54) rotate(90)"/><rect class="cls-13" x="90" y="138" width="2" height="2"/><rect class="cls-13" x="70" y="153" width="2" height="2"/><rect class="cls-12" x="65" y="158" width="2" height="2"/><rect class="cls-13" y="228" width="2" height="2"/><rect class="cls-13" x="25" y="188" width="2" height="2"/><rect class="cls-13" x="30" y="178" width="2" height="2"/><rect class="cls-13" x="40" y="168" width="2" height="2"/><rect class="cls-13" x="44" y="168" width="2" height="2"/><rect class="cls-12" x="40" y="172" width="2" height="2"/><rect class="cls-12" x="30" y="180" width="2" height="2"/><rect class="cls-12" x="20" y="197" width="2" height="4"/><rect class="cls-12" x="15" y="212" width="2" height="4"/><rect class="cls-12" x="15" y="218" width="2" height="2"/><rect class="cls-12" y="232" width="2" height="2"/><rect class="cls-10" x="48" y="228" width="2" height="10"/><rect class="cls-11" x="24" y="212" width="2" height="50" transform="translate(-212 262) rotate(-90)"/><rect class="cls-10" x="20.5" y="232.5" width="2" height="13" transform="translate(-217.5 260.5) rotate(-90)"/><rect class="cls-10" x="20.5" y="220.5" width="2" height="13" transform="translate(-205.5 248.5) rotate(-90)"/><rect class="cls-10" x="20.5" y="234.5" width="2" height="13" transform="translate(-219.5 262.5) rotate(-90)"/><rect class="cls-11" x="28" y="238" width="2" height="2" transform="translate(-210 268) rotate(-90)"/><rect class="cls-11" x="28" y="240" width="2" height="2" transform="translate(-212 270) rotate(-90)"/><polygon class="cls-9" points="115 223 115 243 110 243 110 248 105 248 105 253 85 253 85 248 80 248 80 243 75 243 75 223 80 223 80 218 85 218 85 213 105 213 105 218 110 218 110 223 115 223"/><rect class="cls-11" x="168" y="256" width="7" height="2"/><rect class="cls-11" x="173" y="238" width="2" height="4"/><rect class="cls-11" x="165" y="271" width="5" height="2"/><rect class="cls-11" x="160" y="276" width="5" height="2"/><rect class="cls-11" x="150" y="286" width="10" height="2"/><rect class="cls-11" x="140" y="296" width="10" height="2"/><rect class="cls-10" x="138" y="296" width="2" height="7"/><rect class="cls-11" x="135" y="301" width="5" height="2"/><rect class="cls-11" x="89" y="326" width="10" height="2"/><rect class="cls-11" x="92.5" y="304.5" width="15" height="2" transform="translate(405.5 205.5) rotate(90)"/><rect class="cls-10" x="95.5" y="303.5" width="13" height="2" transform="translate(406.5 202.5) rotate(90)"/><rect class="cls-10" x="81.5" y="303.5" width="13" height="2" transform="translate(392.5 216.5) rotate(90)"/><rect class="cls-10" x="133" y="301" width="2" height="7"/><rect class="cls-11" x="120" y="306" width="15" height="2"/><rect class="cls-10" x="100.5" y="248.5" width="7" height="2" transform="translate(353.5 145.5) rotate(90)"/><rect class="cls-10" x="105.5" y="243.5" width="7" height="2" transform="translate(353.5 135.5) rotate(90)"/><rect class="cls-10" x="106.5" y="219.5" width="5" height="2" transform="translate(329.5 111.5) rotate(90)"/><rect class="cls-10" x="101.5" y="214.5" width="5" height="2" transform="translate(319.5 111.5) rotate(90)"/><rect class="cls-10" x="104" y="232" width="20" height="2" transform="translate(347 119) rotate(90)"/><rect class="cls-10" x="160" y="226" width="15" height="2"/><rect class="cls-11" x="85" y="251" width="20" height="2"/><rect class="cls-12" x="80" y="218" width="5" height="2"/><rect class="cls-12" x="89" y="213" width="5" height="2"/><rect class="cls-12" x="73.5" y="228.5" width="5" height="2" transform="translate(305.5 153.5) rotate(90)"/><rect class="cls-13" x="85" y="213" width="2" height="2"/><rect class="cls-13" x="80" y="218" width="2" height="2"/><rect class="cls-12" x="75" y="223" width="5" height="2"/><rect class="cls-11" x="103" y="246" width="7" height="2"/><rect class="cls-13" x="75" y="223" width="2" height="2"/><rect class="cls-11" x="108" y="241" width="7" height="2"/></g></g></svg>