<svg xmlns="http://www.w3.org/2000/svg" viewBox="0 0 150 57.5"><defs><style>.cls-1{fill:#235fda;}.cls-2{fill:#f1f0ee;}.cls-3{fill:#3061d1;}.cls-4{fill:#5c6c78;}.cls-5{fill:#4c5c66;}.cls-6{fill:#96a5ab;}.cls-7{fill:#2c3746;}.cls-8{fill:#1b479e;}.cls-9{fill:#bccace;}</style></defs><g id="Layer_2" data-name="Layer 2"><g id="Layer_1-2" data-name="Layer 1"><g id="Layer_2-2" data-name="Layer 2"><g id="Layer_1-2-2" data-name="Layer 1-2"><rect class="cls-1" x="20" y="42.5" width="40" height="5"/><rect class="cls-1" x="10" y="42.5" width="5" height="5"/><rect class="cls-1" x="5" y="37.5" width="30" height="5"/><rect class="cls-1" x="60" y="32.5" width="5" height="5"/><rect class="cls-1" x="35" y="52.5" width="5" height="5"/><rect class="cls-1" y="42.5" width="5" height="5"/><rect class="cls-1" y="32.5" width="5" height="5"/><rect class="cls-1" x="10" y="32.5" width="5" height="5"/><rect class="cls-2" x="95" y="17.5" width="5" height="5"/><rect class="cls-2" x="100" y="17.5" width="5" height="5"/><rect class="cls-3" x="65" y="37.5" width="85" height="5"/><rect class="cls-3" x="85" y="32.5" width="60" height="5"/><rect class="cls-4" x="95" y="2.5" width="10" height="10"/><polygon class="cls-4" points="107.5 7.5 107.5 12.5 112.5 12.5 112.5 17.5 117.5 17.5 117.5 22.5 122.5 22.5 122.5 27.5 127.5 27.5 127.5 32.5 132.5 32.5 132.5 37.5 137.5 37.5 137.5 42.5 142.5 42.5 142.5 47.5 105 47.5 105 37.5 99 37.5 99 12.5 95 12.5 95 7.5 107.5 7.5"/><rect class="cls-5" x="105" y="17.5" width="2.5" height="2.5"/><rect class="cls-5" x="100" y="12.5" width="2.5" height="2.5"/><rect class="cls-5" x="100" y="37.5" width="40" height="2.5"/><rect class="cls-5" x="100" y="35" width="27.5" height="2.5"/><rect class="cls-5" x="100" y="32.5" width="22.5" height="2.5"/><rect class="cls-5" x="100" y="30" width="17.5" height="2.5"/><rect class="cls-5" x="100" y="27.5" width="12.5" height="2.5"/><rect class="cls-5" x="100" y="20" width="5" height="2.5"/><rect class="cls-5" x="100" y="22.5" width="7.5" height="2.5"/><rect class="cls-5" x="100" y="25" width="10" height="2.5"/><rect class="cls-6" x="102.5" y="7.5" width="5" height="2.5"/><rect class="cls-6" x="107.5" y="7.5" width="2.5" height="5"/><rect class="cls-5" x="100" y="17.5" width="2.5" height="19.5"/><rect class="cls-7" x="100" y="37.5" width="2.5" height="5"/><rect class="cls-5" x="97.5" y="10" width="2.5" height="17.5"/><rect class="cls-5" x="95" y="5" width="2.5" height="12"/><rect class="cls-8" x="85" y="37.5" width="15" height="5"/><rect class="cls-7" x="97.5" y="25" width="2.5" height="15"/><rect class="cls-7" x="95" y="12.5" width="2.5" height="15"/><rect class="cls-7" x="92.5" y="5" width="2.5" height="10"/><rect class="cls-6" x="110" y="12.5" width="2.5" height="2.5"/><rect class="cls-9" x="107.5" y="7.5" width="2.5" height="2.5"/><rect class="cls-6" x="100" y="2.5" width="2.5" height="2.5"/><rect class="cls-6" x="102.5" y="2.5" width="2.5" height="5"/><rect class="cls-9" x="102.5" y="2.5" width="2.5" height="2.5"/><rect class="cls-6" x="90" width="7.5" height="2.5"/><rect class="cls-4" x="90" width="2.5" height="2.5"/><rect class="cls-5" x="92.5" y="2.5" width="2.5" height="2.5"/><rect class="cls-7" x="90" y="2.5" width="2.5" height="5"/><rect class="cls-9" x="97.5" width="2.5" height="2.5"/><rect class="cls-6" x="115" y="17.5" width="2.5" height="2.5"/><rect class="cls-6" x="120" y="22.5" width="2.5" height="2.5"/><rect class="cls-6" x="125" y="27.5" width="2.5" height="2.5"/><rect class="cls-6" x="130" y="32.5" width="2.5" height="2.5"/><rect class="cls-6" x="135" y="37.5" width="2.5" height="2.5"/><rect class="cls-6" x="112.5" y="12.5" width="2.5" height="5"/><rect class="cls-6" x="117.5" y="17.5" width="2.5" height="5"/><rect class="cls-6" x="122.5" y="22.5" width="2.5" height="5"/><rect class="cls-6" x="127.5" y="27.5" width="2.5" height="5"/><rect class="cls-6" x="132.5" y="32.5" width="2.5" height="5"/><rect class="cls-6" x="137.5" y="37.5" width="2.5" height="5"/><rect class="cls-7" x="100" y="40.05" width="40" height="2.5"/><rect class="cls-4" x="140" y="42.5" width="2.5" height="5"/><rect class="cls-9" x="112.5" y="12.5" width="2.5" height="2.5"/><rect class="cls-9" x="117.5" y="17.5" width="2.5" height="2.5"/><rect class="cls-9" x="122.5" y="22.5" width="2.5" height="2.5"/><rect class="cls-9" x="127.5" y="27.5" width="2.5" height="2.5"/><rect class="cls-9" x="132.5" y="32.5" width="2.5" height="2.5"/><rect class="cls-7" x="100" y="32.5" width="2.5" height="2.5"/><rect class="cls-7" x="107.5" y="35" width="2.5" height="2.5"/><rect class="cls-7" x="102.5" y="35" width="2.5" height="2.5"/><rect class="cls-7" x="105" y="32.5" width="2.5" height="2.5"/><rect class="cls-7" x="110" y="37.5" width="2.5" height="2.5"/><rect class="cls-7" x="115" y="37.5" width="2.5" height="2.5"/><rect class="cls-7" x="105" y="37.5" width="2.5" height="2.5"/><rect class="cls-3" x="75" y="42.5" width="70" height="5"/><rect class="cls-8" x="125" y="42.5" width="5" height="5"/><rect class="cls-8" x="75" y="37.5" width="5" height="5"/><rect class="cls-8" x="80" y="32.5" width="5" height="5"/><rect class="cls-8" x="15" y="42.5" width="10" height="5"/><rect class="cls-8" x="10" y="37.5" width="10" height="5"/><rect class="cls-8" x="80" y="42.5" width="5" height="5"/><rect class="cls-8" x="90" y="42.5" width="5" height="5"/><rect class="cls-8" x="100" y="42.5" width="20" height="5"/><rect class="cls-7" x="17.5" y="32.5" width="7.5" height="10"/><rect class="cls-4" x="25" y="37.5" width="2.5" height="2.5"/><rect class="cls-7" x="15" y="30" width="2.5" height="7.5"/><rect class="cls-7" x="17.5" y="40" width="15" height="2.5"/><rect class="cls-9" x="22.45" y="32.5" width="2.55" height="2.5"/><rect class="cls-7" x="15" y="37.5" width="5" height="2.5"/><rect class="cls-9" x="27.5" y="37.5" width="2.5" height="2.5"/><rect class="cls-4" x="22.5" y="35" width="2.5" height="2.5"/><rect class="cls-4" x="20" y="37.5" width="2.5" height="2.5"/><rect class="cls-4" x="20" y="32.5" width="2.5" height="2.5"/><rect class="cls-4" x="17.5" y="35" width="2.5" height="2.5"/><rect class="cls-9" x="25" y="35" width="2.5" height="2.5"/><rect class="cls-4" x="30" y="40" width="2.5" height="2.5"/><rect class="cls-9" x="17.5" y="30" width="5" height="2.5"/><rect class="cls-4" x="17.5" y="30" width="2.5" height="2.5"/><rect class="cls-9" x="15" y="27.5" width="5" height="2.5"/></g></g></g></g></svg>