<svg xmlns="http://www.w3.org/2000/svg" viewBox="0 0 97.58 27.55"><defs><style>.cls-1{fill:#162633;}.cls-2{fill:#e04243;}</style></defs><g id="Layer_2" data-name="Layer 2"><g id="Layer_15" data-name="Layer 15"><polygon class="cls-1" points="87.09 0 87.09 0.61 89.25 0.61 89.25 1.26 90.51 1.26 90.51 2.06 91.92 2.06 91.92 2.81 92.57 2.81 92.57 3.42 93.37 3.42 93.37 4.16 94.12 4.16 94.12 4.78 94.77 4.78 94.77 5.48 95.62 5.48 95.62 6.89 96.09 6.89 96.09 8.34 96.69 8.34 96.69 10.31 97.58 10.31 97.58 17.24 96.98 17.24 96.98 19.44 96.18 19.44 96.18 20.66 95.43 20.66 95.43 22.21 94.87 22.21 94.87 22.63 94.07 22.63 94.07 23.47 93.46 23.47 93.46 24.03 92.76 24.03 92.76 24.74 92.1 24.74 92.1 25.44 90.65 25.44 90.65 26.23 89.29 26.23 89.29 26.8 87.09 26.8 87.09 27.55 10.08 27.55 10.08 26.75 8.24 26.75 8.24 26.14 6.7 26.14 6.7 25.39 5.53 25.39 5.53 24.88 4.73 24.88 4.73 24.03 4.12 24.03 4.12 23.38 3.42 23.38 3.42 22.67 2.67 22.67 2.67 21.93 2.01 21.93 2.01 20.75 1.17 20.75 1.17 19.35 0.52 19.35 0.52 17.19 0 17.19 0 10.49 0.56 10.49 0.56 8.29 1.26 8.29 1.26 6.98 1.97 6.98 1.97 5.62 2.58 5.62 2.58 4.92 3.33 4.92 3.33 4.22 4.03 4.22 4.03 3.61 4.73 3.61 4.73 2.9 5.29 2.9 5.29 2.2 6.79 2.2 6.79 1.5 8.2 1.5 8.2 0.84 10.08 0.84 10.08 0.28 87.09 0"/><circle class="cls-2" cx="15.21" cy="14.14" r="5.54"/><circle class="cls-2" cx="49.51" cy="14.14" r="5.54"/><circle class="cls-2" cx="83.82" cy="14.14" r="5.54"/></g></g></svg>