<?xml version="1.0" encoding="utf-8"?>
<!-- Generator: Adobe Illustrator 25.1.0, SVG Export Plug-In . SVG Version: 6.00 Build 0)  -->
<svg version="1.1" id="Layer_1" xmlns="http://www.w3.org/2000/svg" xmlns:xlink="http://www.w3.org/1999/xlink" x="0px" y="0px"
	 viewBox="0 0 100 500" style="enable-background:new 0 0 100 500;" xml:space="preserve">
<style type="text/css">
	.st0{fill:#235FDA;}
	.st1{fill:#6CDFFB;}
	.st2{fill:#2CA8F8;}
	.st3{fill:#FFFFFF;}
	.st4{fill:#96A5AB;}
	.st5{fill:#586C79;}
	.st6{fill:#2A3747;}
	.st7{fill:#182028;}
	.st8{fill:#F1F0EE;}
	.st9{fill:#9D1B32;}
	.st10{fill:#EE6928;}
	.st11{fill:#56142D;}
	.st12{fill:#F1C18D;}
</style>
<rect x="96" y="434" class="st0" width="2" height="2"/>
<rect x="96" y="446" class="st0" width="2" height="1"/>
<rect x="4" y="362" class="st0" width="94" height="2"/>
<rect x="5" y="364" class="st0" width="94" height="2"/>
<rect x="97" y="381" class="st0" width="1" height="2"/>
<polygon class="st0" points="96,406 96,408 98,408 98,410 99,410 99,412 97,412 97,414 98,414 98,416 99,416 99,418 100,418 
	100,420 96,420 96,421 98,421 98,423 96,423 96,424 98,424 98,428 99,428 99,432 96,432 96,436 99,436 99,440 98,440 98,442 
	100,442 100,446 96,446 96,448 98,448 98,456 2,456 2,454 0,454 0,452 4,452 4,450 2,450 2,448 0,448 0,444 2,444 2,443 4,443 
	4,442 2,442 2,440 3,440 3,438 2,438 2,436 0,436 0,432 3,432 3,428 2,428 2,424 6,424 6,423 2,423 2,422 0,422 0,420 4,420 4,418 
	3,418 3,416 2,416 2,414 1,414 1,412 3,412 3,410 2,410 2,408 0,408 0,406 1,406 1,404 2,404 2,402 4,402 4,400 3,400 3,398 2,398 
	2,394 0,394 0,392 3,392 3,391 1,391 1,389 2,389 2,387 3,387 3,386 0,386 0,384 1,384 1,380 2,380 2,378 0,378 0,376 3,376 3,374 
	2,374 2,372 5,372 5,370 4,370 4,368 2,368 2,366 96,366 96,368 98,368 98,370 99,370 99,372 98,372 98,374 99,374 99,376 96,376 
	96,378 98,378 98,380 97,380 97,384 96,384 96,386 99,386 99,388 98,388 98,389 97,389 97,390 99,390 99,392 96,392 96,394 98,394 
	98,398 99,398 99,400 100,400 100,402 98,402 98,404 97,404 97,406 "/>
<rect x="93" y="428" class="st1" width="4" height="2"/>
<rect x="6" y="432" class="st1" width="4" height="2"/>
<rect x="2" y="418" class="st1" width="4" height="2"/>
<rect x="98" y="450" class="st0" width="2" height="4"/>
<rect x="4" y="456" class="st0" width="96" height="4"/>
<rect x="3" y="457" class="st0" width="96" height="4"/>
<rect x="2" y="458" class="st0" width="96" height="4"/>
<rect y="460" class="st0" width="96" height="4"/>
<rect x="2" y="464" class="st0" width="96" height="4"/>
<rect x="4" y="468" class="st0" width="96" height="4"/>
<rect x="2" y="470" class="st0" width="96" height="4"/>
<g id="Layer_2_1_">
	<g>
		<rect x="75.4" y="499.3" class="st0" width="8" height="2"/>
		<rect x="87.4" y="499.3" class="st0" width="8" height="2"/>
		<rect x="83.3" y="489.3" class="st0" width="12" height="2"/>
		<rect x="9.4" y="503.3" class="st0" width="10" height="2"/>
		<rect x="81.3" y="473.3" class="st0" width="18" height="2"/>
		<rect x="93.3" y="477.3" class="st0" width="4" height="2"/>
		<rect x="59.3" y="499.3" class="st0" width="8" height="2"/>
		<rect x="89.3" y="475.3" class="st0" width="4" height="2"/>
		<rect x="15.3" y="483.3" class="st0" width="4" height="2"/>
		<polygon class="st0" points="99.3,481.3 99.3,483.3 87.3,483.3 87.3,481.3 81.3,481.3 81.3,483.3 85.3,483.3 85.3,487.3 
			81.3,487.3 81.3,489.3 75.3,489.3 75.3,491.3 87.3,491.3 87.3,493.3 71.3,493.3 71.3,495.3 77.3,495.3 77.3,497.3 57.3,497.3 
			57.3,499.3 43.3,499.3 43.3,497.3 41.3,497.3 41.3,495.3 35.3,495.3 35.3,493.3 39.3,493.3 39.3,489.3 37.3,489.3 37.3,491.3 
			27.3,491.3 27.3,489.3 35.3,489.3 35.3,487.3 33.3,487.3 33.3,485.3 29.3,485.3 29.3,483.3 31.3,483.3 31.3,481.3 27.3,481.3 
			27.3,483.3 21.3,483.3 21.3,481.3 23.3,481.3 23.3,479.3 25.3,479.3 25.3,477.3 21.3,477.3 21.3,475.3 19.3,475.3 19.3,473.3 
			23.3,473.3 23.3,475.3 27.3,475.3 27.3,477.3 31.3,477.3 31.3,479.3 33.3,479.3 33.3,481.3 37.3,481.3 37.3,483.3 39.3,483.3 
			39.3,485.3 41.3,485.3 41.3,491.3 45.3,491.3 45.3,493.3 49.3,493.3 49.3,495.3 57.3,495.3 57.3,493.3 59.3,493.3 59.3,491.3 
			63.3,491.3 63.3,487.3 67.3,487.3 67.3,485.3 69.3,485.3 69.3,481.3 73.3,481.3 73.3,477.3 77.3,477.3 77.3,475.3 87.3,475.3 
			87.3,477.3 85.3,477.3 85.3,479.3 89.3,479.3 89.3,481.3 		"/>
		<rect x="15.3" y="479.3" class="st0" width="6" height="2"/>
		<polygon class="st0" points="3.3,469.3 3.3,467.3 1.3,467.3 1.3,465.3 7.3,465.3 7.3,463.3 9.3,463.3 9.3,469.3 		"/>
		<polygon class="st0" points="17.3,475.3 19.3,475.3 19.3,477.3 13.3,477.3 13.3,475.3 7.3,475.3 7.3,473.3 17.3,473.3 		"/>
		<rect x="23.3" y="495.3" class="st0" width="10" height="2"/>
		<rect x="21.4" y="473.3" class="st2" width="6" height="2"/>
		<rect x="39.4" y="481.3" class="st2" width="2" height="2"/>
		<rect x="64.4" y="480.3" class="st2" width="2" height="2"/>
		<rect x="9.4" y="483.3" class="st1" width="6" height="2"/>
		<rect x="37.4" y="497.3" class="st1" width="4" height="2"/>
		<rect x="41.4" y="493.3" class="st2" width="2" height="2"/>
		<rect x="29.4" y="487.3" class="st1" width="4" height="2"/>
		<rect x="85.4" y="483.3" class="st1" width="4" height="2"/>
		<rect x="93.4" y="475.3" class="st1" width="4" height="2"/>
		<rect x="19.4" y="493.3" class="st1" width="10" height="2"/>
		<rect x="91.4" y="493.3" class="st3" width="2" height="2"/>
		<rect x="81.4" y="493.3" class="st1" width="10" height="2"/>
	</g>
	<rect x="59" y="486.3" class="st0" width="2" height="2"/>
	<g>
		<g>
			<rect x="17.5" y="22" class="st1" width="6" height="2"/>
			<rect x="7.5" y="34" class="st1" width="6" height="2"/>
			<rect x="67.5" y="4" class="st1" width="6" height="2"/>
			<rect x="75.5" y="12" class="st1" width="6" height="2"/>
			<rect x="91.5" y="14" class="st1" width="6" height="2"/>
			<rect x="33.5" y="4" class="st1" width="6" height="2"/>
			<rect x="19.5" y="10" class="st1" width="6" height="2"/>
		</g>
		<g>
			<rect x="17.5" y="56" class="st1" width="6" height="2"/>
			<rect x="7.5" y="68" class="st1" width="6" height="2"/>
			<rect x="5.5" y="78" class="st1" width="6" height="2"/>
			<rect x="67.5" y="38" class="st1" width="6" height="2"/>
			<rect x="75.5" y="46" class="st1" width="6" height="2"/>
			<rect x="91.5" y="48" class="st1" width="6" height="2"/>
			<rect x="93.5" y="60" class="st1" width="6" height="2"/>
			<rect x="33.5" y="38" class="st1" width="6" height="2"/>
			<rect x="19.5" y="44" class="st1" width="6" height="2"/>
		</g>
		<g>
			<rect x="15.5" y="372" class="st1" width="6" height="2"/>
			<rect x="5.5" y="384" class="st1" width="10" height="2"/>
			<rect x="5.5" y="360" class="st1" width="6" height="2"/>
			<rect x="3.5" y="350" class="st1" width="6" height="2"/>
			<rect x="65.5" y="390" class="st1" width="6" height="2"/>
			<rect x="73.5" y="382" class="st1" width="6" height="2"/>
			<rect x="85.5" y="390" class="st1" width="6" height="2"/>
			<rect x="81.5" y="368" class="st1" width="6" height="2"/>
			<rect x="31.5" y="390" class="st1" width="6" height="2"/>
		</g>
		<g>
			<rect x="76.5" y="56" class="st1" width="6" height="2"/>
			<rect x="86.5" y="68" class="st1" width="6" height="2"/>
			<rect x="88.5" y="78" class="st1" width="6" height="2"/>
			<rect x="26.5" y="38" class="st1" width="6" height="2"/>
			<rect x="18.5" y="46" class="st1" width="6" height="2"/>
			<rect x="2.5" y="48" class="st1" width="6" height="2"/>
			<rect x="3.5" y="32" class="st1" width="6" height="2"/>
			<rect x="5.5" y="35" class="st0" width="6" height="2"/>
			<rect x="1.5" y="28" class="st0" width="6" height="2"/>
			<rect x="2.5" y="38" class="st0" width="6" height="2"/>
			<rect x="4.5" y="40" class="st0" width="6" height="2"/>
			<rect x="6.5" y="42" class="st0" width="6" height="2"/>
			<rect x="3.5" y="26" class="st0" width="6" height="2"/>
			<rect x="3.5" y="25" class="st0" width="6" height="2"/>
			<rect x="6.5" y="24" class="st0" width="6" height="2"/>
			<rect x="0.5" y="60" class="st1" width="6" height="2"/>
			<rect x="60.5" y="38" class="st1" width="6" height="2"/>
			<rect x="74.5" y="44" class="st1" width="6" height="2"/>
		</g>
		<g>
			<rect x="0.5" y="324" class="st1" width="6" height="2"/>
		</g>
		<g>
			<polygon class="st0" points="95.5,34 95.5,36 99.5,36 99.5,38 97.5,38 97.5,40 95.5,40 95.5,42 99.5,42 99.5,44 97.5,44 97.5,46 
				93.5,46 93.5,52 95.5,52 95.5,54 97.5,54 97.5,56 95.5,56 95.5,58 93.5,58 93.5,62 95.5,62 95.5,64 97.5,64 97.5,66 99.5,66 
				99.5,68 95.5,68 95.5,70 99.5,70 99.5,72 97.5,72 97.5,74 95.5,74 95.5,76 99.5,76 99.5,78 97.5,78 97.5,80 99.5,80 99.5,82 
				97.5,82 97.5,84 95.5,84 95.5,86 97.5,86 97.5,90 99.5,90 99.5,92 96.5,92 96.5,94 95.5,94 95.5,97 97.5,97 97.5,101 96.5,101 
				96.5,104 99.5,104 99.5,106 97.5,106 97.5,108 94.5,108 94.5,110 97.5,110 97.5,112 98.5,112 98.5,114 95.5,114 95.5,115 
				99.5,115 99.5,117 98.5,117 98.5,119 97.5,119 97.5,120 98.5,120 98.5,122 96.5,122 96.5,124 95.5,124 95.5,126 97.5,126 
				97.5,128 96.5,128 96.5,130 95.5,130 95.5,131 98.5,131 98.5,133 97.5,133 97.5,134 96.5,134 96.5,136 97.5,136 97.5,138 
				93.5,138 93.5,140 95.5,140 95.5,144 97.5,144 97.5,146 93.5,146 93.5,147 95.5,147 95.5,149 93.5,149 93.5,151 95.5,151 
				95.5,153 97.5,153 97.5,155 94.5,155 94.5,157 93.5,157 93.5,159 95.5,159 95.5,161 97.5,161 97.5,163 95.5,163 95.5,165 
				96.5,165 96.5,167 94.5,167 94.5,168 93.5,168 93.5,169 96.5,169 96.5,171 98.5,171 98.5,173 95.5,173 95.5,175 93.5,175 
				93.5,177 96.5,177 96.5,179 98.5,179 98.5,181 96.5,181 96.5,183 95.5,183 95.5,185 96.5,185 96.5,189 97.5,189 97.5,191 
				96.5,191 96.5,192 97.5,192 97.5,194 94.5,194 94.5,195 93.5,195 93.5,197 96.5,197 96.5,199 93.5,199 93.5,200 94.5,200 
				94.5,201 95.5,201 95.5,203 97.5,203 97.5,205 96.5,205 96.5,206 94.5,206 94.5,207 93.5,207 93.5,208 96.5,208 96.5,210 
				98.5,210 98.5,212 93.5,212 93.5,215 96.5,215 96.5,217 93.5,217 93.5,218 95.5,218 95.5,220 97.5,220 97.5,222 94.5,222 
				94.5,224 97.5,224 97.5,226 99.5,226 99.5,228 96.5,228 96.5,230 94.5,230 94.5,232 97.5,232 97.5,234 99.5,234 99.5,236 
				97.5,236 97.5,238 96.5,238 96.5,241 93.5,241 93.5,242 97.5,242 97.5,244 98.5,244 98.5,246 97.5,246 97.5,247 93.5,247 
				93.5,248 95.5,248 95.5,250 94.5,250 94.5,252 97.5,252 97.5,254 94.5,254 94.5,256 96.5,256 96.5,258 98.5,258 98.5,260 
				97.5,260 97.5,261 95.5,261 95.5,262 93.5,262 93.5,263 97.5,263 97.5,265 99.5,265 99.5,267 93.5,267 93.5,268 94.5,268 
				94.5,270 97.5,270 97.5,272 93.5,272 93.5,273 96.5,273 96.5,275 93.5,275 93.5,276 97.5,276 97.5,278 94.5,278 94.5,280 
				97.5,280 97.5,282 99.5,282 99.5,284 96.5,284 96.5,286 94.5,286 94.5,288 97.5,288 97.5,290 99.5,290 99.5,292 97.5,292 
				97.5,294 96.5,294 96.5,297 93.5,297 93.5,298 97.5,298 97.5,300 98.5,300 98.5,302 97.5,302 97.5,303 93.5,303 93.5,304 
				95.5,304 95.5,306 94.5,306 94.5,308 97.5,308 97.5,310 94.5,310 94.5,312 96.5,312 96.5,314 98.5,314 98.5,316 97.5,316 
				97.5,317 95.5,317 95.5,318 93.5,318 93.5,319 97.5,319 97.5,321 99.5,321 99.5,323 93.5,323 93.5,324 94.5,324 94.5,326 
				97.5,326 97.5,328 93.5,328 93.5,329 96.5,329 96.5,331 94.5,331 94.5,332 97.5,332 97.5,334 96.5,334 96.5,335 93.5,335 
				93.5,336 99.5,336 99.5,338 93.5,338 93.5,339 98.5,339 98.5,341 97.5,341 97.5,343 96.5,343 96.5,345 93.5,345 93.5,346 
				98.5,346 98.5,348 97.5,348 97.5,350 95.5,350 95.5,352 93.5,352 93.5,353 96.5,353 96.5,355 97.5,355 97.5,357 94.5,357 
				94.5,358 98.5,358 98.5,360 94.5,360 94.5,362 89.5,362 89.5,364 91.5,364 91.5,366 89.5,366 89.5,368 95.5,368 95.5,370 
				91.5,370 91.5,372 89.5,372 89.5,374 83.5,374 83.5,376 85.5,376 85.5,378 91.5,378 91.5,380 83.5,380 83.5,382 85.5,382 
				85.5,384 77.5,384 77.5,386 81.5,386 81.5,388 75.5,388 75.5,390 79.5,390 79.5,394 75.5,394 75.5,396 29.5,396 29.5,394 
				33.5,394 33.5,390 29.5,390 29.5,388 25.5,388 25.5,386 31.5,386 31.5,384 23.5,384 23.5,382 21.5,382 21.5,380 13.5,380 
				13.5,378 11.5,378 11.5,376 9.5,376 9.5,374 7.5,374 7.5,372 9.5,372 9.5,370 11.5,370 11.5,368 7.5,368 7.5,366 9.5,366 
				9.5,364 11.5,364 11.5,362 7.5,362 7.5,360 1.5,360 1.5,358 3.5,358 3.5,356 2.5,356 2.5,354 5.5,354 5.5,352 7.5,352 7.5,350 
				2.5,350 2.5,348 6.5,348 6.5,346 1.5,346 1.5,344 2.5,344 2.5,342 3.5,342 3.5,340 7.5,340 7.5,338 2.5,338 2.5,336 4.5,336 
				4.5,334 5.5,334 5.5,332 7.5,332 7.5,331 3.5,331 3.5,329 7.5,329 7.5,328 2.5,328 2.5,326 5.5,326 5.5,324 7.5,324 7.5,323 
				0.5,323 0.5,321 2.5,321 2.5,319 7.5,319 7.5,318 4.5,318 4.5,317 2.5,317 2.5,316 1.5,316 1.5,314 3.5,314 3.5,312 5.5,312 
				5.5,310 2.5,310 2.5,308 5.5,308 5.5,306 4.5,306 4.5,304 7.5,304 7.5,303 2.5,303 2.5,302 1.5,302 1.5,300 2.5,300 2.5,298 
				7.5,298 7.5,297 3.5,297 3.5,294 2.5,294 2.5,292 0.5,292 0.5,290 2.5,290 2.5,288 5.5,288 5.5,286 3.5,286 3.5,284 0.5,284 
				0.5,282 2.5,282 2.5,280 5.5,280 5.5,278 2.5,278 2.5,276 7.5,276 7.5,275 3.5,275 3.5,273 7.5,273 7.5,272 2.5,272 2.5,270 
				5.5,270 5.5,268 7.5,268 7.5,267 0.5,267 0.5,265 2.5,265 2.5,263 7.5,263 7.5,262 4.5,262 4.5,261 2.5,261 2.5,260 1.5,260 
				1.5,258 3.5,258 3.5,256 5.5,256 5.5,254 2.5,254 2.5,252 5.5,252 5.5,250 4.5,250 4.5,248 7.5,248 7.5,247 2.5,247 2.5,246 
				1.5,246 1.5,244 2.5,244 2.5,242 7.5,242 7.5,241 3.5,241 3.5,238 2.5,238 2.5,236 0.5,236 0.5,234 2.5,234 2.5,232 5.5,232 
				5.5,230 3.5,230 3.5,228 0.5,228 0.5,226 2.5,226 2.5,224 5.5,224 5.5,222 2.5,222 2.5,220 4.5,220 4.5,218 7.5,218 7.5,217 
				3.5,217 3.5,215 6.5,215 6.5,213 7.5,213 7.5,212 1.5,212 1.5,210 3.5,210 3.5,208 7.5,208 7.5,207 5.5,207 5.5,206 3.5,206 
				3.5,205 2.5,205 2.5,203 4.5,203 4.5,201 5.5,201 5.5,200 6.5,200 6.5,199 3.5,199 3.5,197 6.5,197 6.5,195 5.5,195 5.5,194 
				2.5,194 2.5,192 3.5,192 3.5,191 2.5,191 2.5,189 3.5,189 3.5,185 4.5,185 4.5,183 3.5,183 3.5,181 1.5,181 1.5,179 3.5,179 
				3.5,177 6.5,177 6.5,175 4.5,175 4.5,173 1.5,173 1.5,171 3.5,171 3.5,169 6.5,169 6.5,168 5.5,168 5.5,167 3.5,167 3.5,165 
				4.5,165 4.5,163 2.5,163 2.5,161 4.5,161 4.5,159 7.5,159 7.5,157 5.5,157 5.5,155 2.5,155 2.5,153 4.5,153 4.5,151 7.5,151 
				7.5,149 4.5,149 4.5,147 7.5,147 7.5,146 2.5,146 2.5,144 4.5,144 4.5,140 7.5,140 7.5,138 2.5,138 2.5,136 3.5,136 3.5,134 
				2.5,134 2.5,133 1.5,133 1.5,131 4.5,131 4.5,130 3.5,130 3.5,128 2.5,128 2.5,126 4.5,126 4.5,124 3.5,124 3.5,122 1.5,122 
				1.5,120 2.5,120 2.5,119 1.5,119 1.5,117 0.5,117 0.5,115 4.5,115 4.5,114 1.5,114 1.5,112 2.5,112 2.5,110 5.5,110 5.5,108 
				2.5,108 2.5,106 0.5,106 0.5,104 3.5,104 3.5,101 2.5,101 2.5,97 4.5,97 4.5,94 3.5,94 3.5,92 0.5,92 0.5,90 2.5,90 2.5,86 
				4.5,86 4.5,84 2.5,84 2.5,82 0.5,82 0.5,80 2.5,80 2.5,78 0.5,78 0.5,76 4.5,76 4.5,74 2.5,74 2.5,72 0.5,72 0.5,70 4.5,70 
				4.5,68 0.5,68 0.5,66 2.5,66 2.5,64 4.5,64 4.5,62 7.5,62 7.5,60 6.5,60 6.5,58 4.5,58 4.5,56 2.5,56 2.5,54 4.5,54 4.5,52 
				7.5,52 7.5,24 9.5,24 9.5,22 11.5,22 11.5,20 13.5,20 13.5,18 15.5,18 15.5,16 23.5,16 23.5,14 25.5,14 25.5,12 31.5,12 31.5,10 
				27.5,10 27.5,8 31.5,8 31.5,6 35.5,6 35.5,2 31.5,2 31.5,0 77.5,0 77.5,2 81.5,2 81.5,6 77.5,6 77.5,8 83.5,8 83.5,10 79.5,10 
				79.5,12 87.5,12 87.5,14 85.5,14 85.5,16 89.5,16 89.5,18 87.5,18 87.5,20 85.5,20 85.5,22 91.5,22 91.5,24 93.5,24 93.5,26 
				97.5,26 97.5,28 95.5,28 95.5,30 97.5,30 97.5,32 99.5,32 99.5,34 			"/>
			<rect x="67.5" y="6" class="st1" width="6" height="2"/>
			<rect x="11.5" y="372" class="st1" width="2" height="2"/>
			<rect x="15.5" y="372" class="st1" width="6" height="2"/>
			<rect x="75.5" y="382" class="st1" width="6" height="2"/>
			<rect x="61.5" y="391" class="st1" width="9" height="2"/>
			<rect x="84.5" y="370" class="st1" width="9" height="2"/>
			<rect x="5.5" y="44" class="st1" width="6" height="2"/>
			<rect x="89.5" y="80" class="st1" width="6" height="2"/>
			<rect x="95.5" y="98" class="st1" width="4" height="2"/>
			<rect x="13.5" y="4" class="st0" width="16" height="2"/>
			<rect x="85.5" y="386" class="st0" width="10" height="2"/>
		</g>
	</g>
	<rect x="12" y="8" class="st4" width="76" height="463.3"/>
	<rect x="10" y="6.9" class="st5" width="2" height="464.3"/>
	<g>
		<rect x="10" y="86.3" class="st6" width="2" height="2"/>
		<rect x="10" y="46.3" class="st6" width="2" height="2"/>
		<rect x="10" y="37.3" class="st6" width="2" height="2"/>
		<rect x="10" y="28" class="st6" width="2" height="2"/>
		<rect x="10" y="54.3" class="st6" width="2" height="2"/>
		<rect x="10" y="62.3" class="st6" width="2" height="2"/>
		<rect x="10" y="70.3" class="st6" width="2" height="2"/>
		<rect x="10" y="78.3" class="st6" width="2" height="2"/>
	</g>
	<rect x="12" y="231.3" class="st4" width="80" height="240"/>
	<g>
		<rect x="10" y="182.3" class="st6" width="2" height="2"/>
		<rect x="10" y="190.3" class="st6" width="2" height="2"/>
		<rect x="10" y="198.3" class="st6" width="2" height="2"/>
		<rect x="10" y="206.3" class="st6" width="2" height="2"/>
		<rect x="10" y="214.3" class="st6" width="2" height="2"/>
		<rect x="10" y="222.3" class="st6" width="2" height="2"/>
		<rect x="10" y="230.3" class="st6" width="2" height="2"/>
		<rect x="10" y="238.3" class="st6" width="2" height="2"/>
		<rect x="10" y="246.3" class="st6" width="2" height="2"/>
		<rect x="10" y="254.3" class="st6" width="2" height="2"/>
		<rect x="10" y="262.3" class="st6" width="2" height="2"/>
		<rect x="10" y="270.3" class="st6" width="2" height="2"/>
		<rect x="10" y="278.3" class="st6" width="2" height="2"/>
		<rect x="10" y="286.3" class="st6" width="2" height="2"/>
		<rect x="10" y="294.3" class="st6" width="2" height="2"/>
		<rect x="10" y="302.3" class="st6" width="2" height="2"/>
		<rect x="10" y="310.3" class="st6" width="2" height="2"/>
		<rect x="10" y="318.3" class="st6" width="2" height="2"/>
		<rect x="10" y="326.3" class="st6" width="2" height="2"/>
		<rect x="10" y="334.3" class="st6" width="2" height="2"/>
		<rect x="10" y="342.3" class="st6" width="2" height="2"/>
		<rect x="10" y="350.3" class="st6" width="2" height="2"/>
		<rect x="10" y="358.3" class="st6" width="2" height="2"/>
		<rect x="10" y="366.3" class="st6" width="2" height="2"/>
		<rect x="10" y="374.3" class="st6" width="2" height="2"/>
		<rect x="10" y="382.3" class="st6" width="2" height="2"/>
		<rect x="10" y="390.3" class="st6" width="2" height="2"/>
		<rect x="10" y="398.3" class="st6" width="2" height="2"/>
		<rect x="10" y="406.3" class="st6" width="2" height="2"/>
		<rect x="10" y="415.3" class="st6" width="2" height="2"/>
		<rect x="10" y="424.3" class="st6" width="2" height="2"/>
		<rect x="10" y="430.3" class="st6" width="2" height="2"/>
		<rect x="10" y="438.3" class="st6" width="2" height="2"/>
		<rect x="10" y="446.3" class="st6" width="2" height="2"/>
		<rect x="10" y="454.3" class="st6" width="2" height="2"/>
		<rect x="10" y="462.3" class="st6" width="2" height="2"/>
		<rect x="10" y="470.3" class="st6" width="2" height="2"/>
	</g>
	<polygon class="st5" points="52,497.3 26,471.3 80,471.3 54,497.3 	"/>
	<g>
		<rect x="92" y="182.3" class="st4" width="2" height="2"/>
		<rect x="92" y="190.3" class="st4" width="2" height="2"/>
		<rect x="92" y="198.3" class="st4" width="2" height="2"/>
		<rect x="92" y="206.3" class="st4" width="2" height="2"/>
		<rect x="92" y="214.3" class="st4" width="2" height="2"/>
		<rect x="92" y="222.3" class="st4" width="2" height="2"/>
		<rect x="92" y="230.3" class="st4" width="2" height="2"/>
		<rect x="92" y="238.3" class="st4" width="2" height="2"/>
		<rect x="92" y="246.3" class="st4" width="2" height="2"/>
		<rect x="92" y="254.3" class="st4" width="2" height="2"/>
		<rect x="92" y="262.3" class="st4" width="2" height="2"/>
		<rect x="92" y="270.3" class="st4" width="2" height="2"/>
		<rect x="92" y="278.3" class="st4" width="2" height="2"/>
		<rect x="92" y="286.3" class="st4" width="2" height="2"/>
		<rect x="92" y="294.3" class="st4" width="2" height="2"/>
		<rect x="92" y="302.3" class="st4" width="2" height="2"/>
		<rect x="92" y="310.3" class="st4" width="2" height="2"/>
		<rect x="92" y="318.3" class="st4" width="2" height="2"/>
		<rect x="92" y="326.3" class="st4" width="2" height="2"/>
		<rect x="92" y="334.3" class="st4" width="2" height="2"/>
		<rect x="92" y="342.3" class="st4" width="2" height="2"/>
		<rect x="92" y="350.3" class="st4" width="2" height="2"/>
		<rect x="92" y="358.3" class="st4" width="2" height="2"/>
		<rect x="92" y="366.3" class="st4" width="2" height="2"/>
		<rect x="92" y="374.3" class="st4" width="2" height="2"/>
		<rect x="92" y="382.3" class="st4" width="2" height="2"/>
		<rect x="92" y="390.3" class="st4" width="2" height="2"/>
		<rect x="92" y="398.3" class="st4" width="2" height="2"/>
		<rect x="92" y="406.3" class="st4" width="2" height="2"/>
		<rect x="92" y="414.3" class="st4" width="2" height="10"/>
		<rect x="92" y="430.3" class="st4" width="2" height="2"/>
		<rect x="92" y="438.3" class="st4" width="2" height="2"/>
		<rect x="92" y="446.3" class="st4" width="2" height="2"/>
		<rect x="92" y="454.3" class="st4" width="2" height="2"/>
		<rect x="92" y="462.3" class="st4" width="2" height="2"/>
		<rect x="92" y="470.3" class="st4" width="2" height="2"/>
	</g>
	<rect x="12" y="469.3" class="st5" width="80" height="2"/>
	<rect x="10" y="471.3" class="st7" width="84" height="2"/>
	<rect x="53" y="495.3" class="st6" width="1" height="1"/>
	<rect x="50" y="495.3" class="st6" width="1" height="1"/>
	<rect x="49" y="494.3" class="st6" width="1" height="1"/>
	<rect x="48" y="493.3" class="st6" width="1" height="1"/>
	<rect x="47" y="492.3" class="st6" width="1" height="1"/>
	<rect x="46" y="491.3" class="st6" width="1" height="1"/>
	<rect x="45" y="490.3" class="st6" width="1" height="1"/>
	<rect x="44" y="489.3" class="st6" width="1" height="1"/>
	<rect x="43" y="488.3" class="st6" width="1" height="1"/>
	<rect x="42" y="487.3" class="st6" width="1" height="1"/>
	<rect x="41" y="486.3" class="st6" width="1" height="1"/>
	<rect x="40" y="485.3" class="st6" width="1" height="1"/>
	<rect x="39" y="484.3" class="st6" width="1" height="1"/>
	<rect x="38" y="483.3" class="st6" width="1" height="1"/>
	<rect x="37" y="482.3" class="st6" width="1" height="1"/>
	<rect x="36" y="481.3" class="st6" width="1" height="1"/>
	<rect x="35" y="480.3" class="st6" width="1" height="1"/>
	<rect x="34" y="479.3" class="st6" width="1" height="1"/>
	<rect x="33" y="478.3" class="st6" width="1" height="1"/>
	<rect x="32" y="477.3" class="st6" width="1" height="1"/>
	<rect x="31" y="476.3" class="st6" width="1" height="1"/>
	<rect x="30" y="475.3" class="st6" width="1" height="1"/>
	<rect x="29" y="474.3" class="st6" width="1" height="1"/>
	<rect x="28" y="473.3" class="st6" width="1" height="1"/>
	<rect x="14" y="199.5" class="st5" width="28" height="7.8"/>
	<rect x="14" y="179.3" class="st5" width="28" height="28"/>
	<rect x="18" y="197.3" class="st4" width="22" height="2"/>
	<rect x="16" y="207.3" class="st6" width="28" height="2"/>
	<rect x="20" y="213.3" class="st5" width="24" height="2"/>
	<rect x="30" y="217.3" class="st5" width="14" height="2"/>
	<rect x="60" y="465.3" class="st5" width="28" height="2"/>
	<rect x="56" y="465.3" class="st5" width="2" height="2"/>
	<rect x="66" y="461.3" class="st5" width="22" height="2"/>
	<rect x="74" y="457.3" class="st5" width="14" height="2"/>
	<rect x="26" y="209.3" class="st6" width="18" height="2"/>
	<rect x="14" y="179.3" class="st7" width="30" height="2"/>
	<rect x="18" y="185.3" class="st2" width="22" height="12"/>
	<rect x="18" y="185.3" class="st8" width="2" height="2"/>
	<rect x="20" y="185.3" class="st8" width="2" height="2"/>
	<rect x="18" y="187.3" class="st8" width="2" height="2"/>
	<rect x="32" y="195.3" class="st8" width="2" height="2"/>
	<rect x="34" y="193.3" class="st8" width="2" height="2"/>
	<rect x="36" y="193.3" class="st8" width="2" height="2"/>
	<rect x="36" y="191.3" class="st8" width="2" height="2"/>
	<rect x="38" y="191.3" class="st8" width="2" height="2"/>
	<rect x="38" y="189.3" class="st8" width="2" height="2"/>
	<rect x="34" y="195.3" class="st8" width="2" height="2"/>
	<rect x="36" y="195.3" class="st0" width="2" height="2"/>
	<rect x="38" y="195.3" class="st0" width="2" height="2"/>
	<rect x="38" y="193.3" class="st0" width="2" height="2"/>
	<rect x="88" y="229.3" class="st4" width="2" height="2"/>
	<rect x="88" y="227.3" class="st4" width="2" height="2"/>
	<rect x="88" y="225.3" class="st4" width="2" height="2"/>
	<rect x="88" y="223.3" class="st4" width="2" height="2"/>
	<rect x="86" y="217.3" class="st4" width="2" height="14"/>
	<rect x="84" y="211.3" class="st4" width="2" height="20"/>
	<rect x="82" y="223.3" class="st4" width="2" height="2"/>
	<rect x="30" y="493.3" class="st3" width="2" height="2"/>
	<rect x="36" y="483.3" class="st2" width="2" height="2"/>
	<rect x="24" y="473.3" class="st6" width="6" height="2"/>
	<rect x="24" y="487.3" class="st3" width="2" height="2"/>
	<rect x="22" y="487.3" class="st3" width="2" height="2"/>
	<rect x="40" y="477.3" class="st6" width="2" height="2"/>
	<rect x="62" y="477.3" class="st6" width="4" height="2"/>
	<rect x="58" y="481.3" class="st6" width="4" height="2"/>
	<rect x="54" y="485.3" class="st6" width="2" height="2"/>
	<rect x="66" y="473.3" class="st6" width="4" height="2"/>
	<rect x="44" y="481.3" class="st6" width="2" height="2"/>
	<rect x="48" y="485.3" class="st6" width="2" height="2"/>
	<polygon class="st6" points="54,473.3 54,497.3 52,497.3 52,489.3 50,489.3 50,487.3 52,487.3 52,485.3 50,485.3 50,481.3 
		48,481.3 48,479.3 46,479.3 46,477.3 44,477.3 44,475.3 40,475.3 40,473.3 	"/>
	<rect x="34" y="473.3" class="st6" width="4" height="2"/>
	<rect x="28" y="503.3" class="st3" width="6" height="2"/>
	<rect x="30" y="475.3" class="st6" width="2" height="2"/>
	<rect x="32" y="475.3" class="st6" width="2" height="2"/>
	<rect x="32" y="477.3" class="st6" width="2" height="2"/>
	<rect x="28" y="475.3" class="st6" width="2" height="2"/>
	<rect x="32" y="479.3" class="st6" width="2" height="2"/>
	<rect x="34" y="479.3" class="st6" width="2" height="2"/>
	<rect x="36" y="479.3" class="st6" width="2" height="2"/>
	<rect x="36" y="481.3" class="st6" width="2" height="2"/>
	<rect x="38" y="483.3" class="st6" width="2" height="2"/>
	<rect x="36" y="483.3" class="st6" width="2" height="2"/>
	<rect x="38" y="485.3" class="st6" width="6" height="2"/>
	<rect x="42" y="487.3" class="st6" width="2" height="2"/>
	<rect x="42" y="489.3" class="st6" width="2" height="2"/>
	<rect x="44" y="489.3" class="st6" width="2" height="2"/>
	<rect x="46" y="489.3" class="st6" width="2" height="2"/>
	<rect x="46" y="491.3" class="st6" width="2" height="2"/>
	<rect x="48" y="491.3" class="st6" width="2" height="2"/>
	<rect x="48" y="493.3" class="st6" width="2" height="2"/>
	<rect x="50" y="493.3" class="st6" width="2" height="2"/>
	<rect x="50" y="495.3" class="st6" width="2" height="2"/>
	<polygon class="st7" points="66,473.3 66,475.3 62,475.3 62,477.3 60,477.3 60,479.3 58,479.3 58,481.3 56,481.3 56,483.3 
		54,483.3 54,497.3 53,497.3 53,473.3 	"/>
	<rect x="42.2" y="119.3" class="st6" width="1.8" height="58"/>
	<rect x="8" y="89.3" class="st4" width="42" height="90"/>
	<rect x="44" y="89.3" class="st5" width="2" height="90"/>
	<rect x="24" y="323.3" class="st3" width="2" height="144"/>
	<rect x="76" y="323.3" class="st3" width="2" height="144"/>
	<rect x="52" y="407.3" class="st3" width="2" height="6"/>
	<rect x="52" y="417.3" class="st3" width="2" height="6"/>
	<rect x="52" y="427.3" class="st3" width="2" height="6"/>
	<rect x="52" y="437.3" class="st3" width="2" height="6"/>
	<rect x="52" y="397.3" class="st3" width="2" height="6"/>
	<rect x="52" y="387.3" class="st3" width="2" height="6"/>
	<rect x="52" y="377.3" class="st3" width="2" height="6"/>
	<rect x="52" y="367.3" class="st3" width="2" height="6"/>
	<rect x="52" y="357.3" class="st3" width="2" height="6"/>
	<rect x="52" y="347.3" class="st3" width="2" height="6"/>
	<rect x="52" y="337.3" class="st3" width="2" height="6"/>
	<rect x="52" y="327.3" class="st3" width="2" height="6"/>
	<rect x="52" y="317.3" class="st3" width="2" height="6"/>
	<rect x="52" y="307.3" class="st3" width="2" height="6"/>
	<rect x="52" y="297.3" class="st3" width="2" height="6"/>
	<rect x="52" y="287.3" class="st3" width="2" height="6"/>
	<rect x="52" y="277.3" class="st3" width="2" height="6"/>
	<rect x="52" y="267.3" class="st3" width="2" height="6"/>
	<rect x="52" y="257.3" class="st3" width="2" height="6"/>
	<rect x="14" y="141.3" class="st5" width="28" height="28"/>
	<rect x="20" y="157.3" class="st4" width="18" height="2"/>
	<rect x="14" y="167.3" class="st6" width="28" height="2"/>
	<rect x="22" y="167.3" class="st7" width="6" height="2"/>
	<rect x="18" y="167.3" class="st7" width="2" height="2"/>
	<rect x="42" y="181.3" class="st6" width="2" height="28"/>
	<rect x="14" y="181.3" class="st6" width="2" height="26"/>
	<rect x="20" y="145.3" class="st2" width="18" height="12"/>
	<rect x="20" y="145.3" class="st8" width="2" height="2"/>
	<rect x="22" y="145.3" class="st8" width="2" height="2"/>
	<rect x="20" y="147.3" class="st8" width="2" height="2"/>
	<rect x="30" y="155.3" class="st8" width="2" height="2"/>
	<rect x="32" y="153.3" class="st8" width="2" height="2"/>
	<rect x="34" y="153.3" class="st8" width="2" height="2"/>
	<rect x="34" y="151.3" class="st8" width="2" height="2"/>
	<rect x="36" y="151.3" class="st8" width="2" height="2"/>
	<rect x="36" y="149.3" class="st8" width="2" height="2"/>
	<rect x="32" y="155.3" class="st8" width="2" height="2"/>
	<rect x="34" y="155.3" class="st0" width="2" height="2"/>
	<rect x="36" y="155.3" class="st0" width="2" height="2"/>
	<rect x="36" y="153.3" class="st0" width="2" height="2"/>
	<rect x="12" y="117.3" class="st4" width="32" height="24"/>
	<rect x="12" y="81.3" class="st8" width="2" height="4"/>
	<rect x="12" y="79.3" class="st8" width="12" height="2"/>
	<rect x="20" y="139.3" class="st5" width="24" height="2"/>
	<rect x="24" y="137.3" class="st5" width="20" height="2"/>
	<rect x="28" y="135.3" class="st5" width="16" height="2"/>
	<rect x="32" y="133.3" class="st5" width="12" height="2"/>
	<rect x="36" y="131.3" class="st5" width="8" height="2"/>
	<rect x="40" y="129.3" class="st5" width="4" height="2"/>
	<rect x="42" y="127.3" class="st5" width="2" height="2"/>
	<rect x="38" y="127.3" class="st5" width="2" height="2"/>
	<rect x="26" y="169.3" class="st5" width="2" height="2"/>
	<rect x="28" y="169.3" class="st6" width="2" height="2"/>
	<rect x="32" y="171.3" class="st5" width="2" height="2"/>
	<rect x="44" y="179.3" class="st6" width="4" height="2"/>
	<rect x="32" y="169.3" class="st6" width="2" height="2"/>
	<rect x="36" y="171.3" class="st5" width="2" height="2"/>
	<rect x="38" y="171.3" class="st6" width="6" height="2"/>
	<rect x="44" y="181.3" class="st5" width="2" height="6"/>
	<rect x="44" y="189.3" class="st5" width="2" height="4"/>
	<rect x="44" y="197.3" class="st5" width="2" height="2"/>
	<rect x="46" y="181.3" class="st5" width="2" height="2"/>
	<rect x="36" y="169.3" class="st6" width="2" height="2"/>
	<rect x="34" y="169.3" class="st6" width="2" height="2"/>
	<rect x="38" y="169.3" class="st6" width="6" height="2"/>
	<rect x="30" y="169.3" class="st6" width="2" height="2"/>
	<rect x="30" y="167.3" class="st7" width="12" height="2"/>
	<rect x="8" y="177.3" class="st5" width="40" height="2"/>
	<rect x="88" y="5.9" class="st6" width="2" height="217.3"/>
	<rect x="92" y="231.3" class="st6" width="2" height="240"/>
	<rect x="90" y="223.3" class="st6" width="2" height="10"/>
	<rect x="90" y="233.3" class="st5" width="2" height="238"/>
	<rect x="88" y="223.3" class="st5" width="2" height="12"/>
	<rect x="86" y="5.9" class="st5" width="2" height="217.3"/>
	<rect x="28" y="133.3" class="st5" width="2" height="2"/>
	<rect x="26" y="133.3" class="st5" width="2" height="2"/>
	<rect x="24" y="135.3" class="st5" width="2" height="2"/>
	<rect x="12" y="139.3" class="st6" width="34" height="2"/>
	<rect x="44" y="79.3" class="st6" width="2" height="60"/>
	<rect x="24" y="79.3" class="st5" width="20" height="2"/>
	<rect x="46" y="85.3" class="st6" width="2" height="4"/>
	<rect x="46" y="85.3" class="st7" width="1" height="4"/>
	<rect x="47" y="85.3" class="st7" width="1" height="2"/>
	<rect x="12" y="85.3" class="st5" width="2" height="54"/>
	<rect x="6" y="87.3" class="st5" width="2" height="92"/>
	<rect x="18" y="137.3" class="st5" width="2" height="2"/>
	<rect x="20" y="135.3" class="st5" width="2" height="2"/>
	<rect x="40" y="121.3" class="st5" width="2" height="2"/>
	<rect x="26" y="141.3" class="st7" width="16" height="2"/>
	<rect x="20" y="141.3" class="st7" width="4" height="2"/>
	<rect x="16" y="141.3" class="st7" width="2" height="2"/>
	<rect x="14" y="141.3" class="st6" width="2" height="26"/>
	<rect x="12" y="91.3" class="st8" width="2" height="2"/>
	<rect x="28" y="79.3" class="st8" width="2" height="2"/>
	<rect x="10" y="179.3" class="st6" width="4" height="2"/>
	<rect x="12" y="6" class="st5" width="76" height="2"/>
	<rect x="14" y="205.3" class="st7" width="30" height="2"/>
	<rect x="48" y="87.3" class="st7" width="2" height="92"/>
	<rect x="48" y="181.3" class="st8" width="2" height="26"/>
	<rect x="42" y="141.3" class="st7" width="2" height="28"/>
	<polygon class="st6" points="52,493.3 52,497.3 50,497.3 50,495.3 48,495.3 48,493.3 46,493.3 46,491.3 42,491.3 42,487.3 
		38,487.3 38,485.3 36,485.3 36,481.3 32,481.3 32,477.3 28,477.3 28,475.3 24,475.3 24,473.3 30,473.3 30,475.3 34,475.3 34,479.3 
		38,479.3 38,483.3 40,483.3 40,485.3 44,485.3 44,489.3 48,489.3 48,491.3 50,491.3 50,493.3 	"/>
	<g>
		<polygon class="st6" points="82,473.3 82,475.3 78,475.3 78,477.3 74,477.3 74,481.3 70,481.3 70,485.3 68,485.3 68,487.3 
			64,487.3 64,491.3 60,491.3 60,493.3 58,493.3 58,495.3 56,495.3 56,497.3 54,497.3 54,493.3 56,493.3 56,491.3 58,491.3 
			58,489.3 62,489.3 62,485.3 66,485.3 66,483.3 68,483.3 68,479.3 72,479.3 72,475.3 76,475.3 76,473.3 		"/>
	</g>
	<rect x="6" y="87.3" class="st5" width="6" height="2"/>
	<polygon class="st6" points="76,239.3 76,269.3 92,269.3 92,271.3 74,271.3 74,237.3 92,237.3 92,239.3 	"/>
	<polygon class="st6" points="74,97.3 74,127.3 90,127.3 90,129.3 72,129.3 72,95.3 90,95.3 90,97.3 	"/>
	<polygon class="st6" points="74,53.3 74,83.3 90,83.3 90,85.3 72,85.3 72,51.3 90,51.3 90,53.3 	"/>
	<polygon class="st6" points="76,283.3 76,313.3 92,313.3 92,315.3 74,315.3 74,281.3 92,281.3 92,283.3 	"/>
	<g>
		<g>
			<rect x="26" y="103.3" class="st5" width="2" height="22"/>
			<rect x="28" y="103.3" class="st6" width="2" height="22"/>
			<rect x="28" y="115.3" class="st7" width="2" height="2"/>
			<rect x="26" y="115.3" class="st6" width="2" height="2"/>
			<rect x="30" y="125.3" class="st6" width="2" height="2"/>
			<rect x="28" y="127.3" class="st6" width="2" height="2"/>
			<rect x="28" y="125.3" class="st7" width="2" height="2"/>
			<rect x="26" y="125.3" class="st6" width="2" height="2"/>
			<rect x="30" y="127.3" class="st5" width="2" height="2"/>
			<rect x="32" y="129.3" class="st5" width="2" height="2"/>
		</g>
		<g>
			<rect x="20" y="105.3" class="st5" width="16" height="10"/>
			<polygon class="st6" points="36,111.3 36,115.3 20,115.3 20,114.3 34,114.3 34,111.3 			"/>
			<rect x="34" y="107.3" class="st6" width="2" height="2"/>
			<g>
				<rect x="27" y="109.3" class="st9" width="2" height="2"/>
				<g>
					<rect x="25" y="109.3" class="st6" width="2" height="2"/>
					<rect x="27" y="107.3" class="st6" width="2" height="2"/>
					<rect x="27" y="111.3" class="st6" width="2" height="2"/>
					<rect x="26" y="111.3" class="st6" width="1" height="1"/>
					<rect x="29" y="111.3" class="st6" width="1" height="1"/>
					<rect x="26" y="108.3" class="st6" width="1" height="1"/>
					<rect x="29" y="108.3" class="st6" width="1" height="1"/>
					<rect x="29" y="109.3" class="st6" width="2" height="2"/>
				</g>
			</g>
			<polygon class="st8" points="24,105.3 24,107.3 22,107.3 22,109.3 20,109.3 20,105.3 			"/>
		</g>
	</g>
	<g>
		<g>
			<rect x="26" y="65.3" class="st5" width="2" height="22"/>
			<rect x="28" y="65.3" class="st6" width="2" height="22"/>
			<rect x="28" y="77.3" class="st7" width="2" height="2"/>
			<rect x="26" y="77.3" class="st6" width="2" height="2"/>
			<rect x="30" y="87.3" class="st6" width="2" height="2"/>
			<rect x="28" y="89.3" class="st6" width="2" height="2"/>
			<rect x="28" y="87.3" class="st7" width="2" height="2"/>
			<rect x="26" y="87.3" class="st6" width="2" height="2"/>
			<rect x="30" y="89.3" class="st5" width="2" height="2"/>
			<rect x="32" y="91.3" class="st5" width="2" height="2"/>
			<rect x="16" y="83.3" class="st5" width="6" height="2"/>
		</g>
		<g>
			<rect x="20" y="67.3" class="st5" width="16" height="10"/>
			<polygon class="st6" points="36,73.3 36,77.3 20,77.3 20,76.3 34,76.3 34,73.3 			"/>
			<rect x="34" y="69.3" class="st6" width="2" height="2"/>
			<g>
				<rect x="27" y="71.3" class="st9" width="2" height="2"/>
				<g>
					<rect x="25" y="71.3" class="st6" width="2" height="2"/>
					<rect x="27" y="69.3" class="st6" width="2" height="2"/>
					<rect x="27" y="73.3" class="st6" width="2" height="2"/>
					<rect x="26" y="73.3" class="st6" width="1" height="1"/>
					<rect x="29" y="73.3" class="st6" width="1" height="1"/>
					<rect x="26" y="70.3" class="st6" width="1" height="1"/>
					<rect x="29" y="70.3" class="st6" width="1" height="1"/>
					<rect x="29" y="71.3" class="st6" width="2" height="2"/>
				</g>
			</g>
			<polygon class="st8" points="24,67.3 24,69.3 22,69.3 22,71.3 20,71.3 20,67.3 			"/>
		</g>
	</g>
	<rect x="48" y="183.3" class="st10" width="2" height="2"/>
	<rect x="48" y="187.3" class="st10" width="2" height="2"/>
	<rect x="48" y="191.3" class="st10" width="2" height="2"/>
	<rect x="48" y="195.3" class="st10" width="2" height="2"/>
	<rect x="48" y="199.3" class="st10" width="2" height="2"/>
	<rect x="48" y="203.3" class="st10" width="2" height="2"/>
	<rect x="48" y="207.3" class="st5" width="2" height="2"/>
	<rect x="50" y="205.3" class="st5" width="2" height="2"/>
	<rect x="50" y="207.3" class="st6" width="2" height="2"/>
	<rect x="52" y="209.3" class="st5" width="2" height="2"/>
	<rect x="48" y="179.3" class="st11" width="2" height="2"/>
	<rect x="48" y="181.3" class="st12" width="2" height="2"/>
	<g>
		<path class="st3" d="M80,79.3v-6h-1v-1h1v-1h2v8H80z"/>
	</g>
	<g>
		<path class="st3" d="M78,123.3v-2h1v-1h1v-1h1v-3h-2v1h-1v-1h1v-1h3v1h1v3h-1v1h-1v1h-1v1h1h2v1H78z"/>
	</g>
	<g>
		<path class="st3" d="M85,262.3v1h-4v-1h3v-3h-2v-1h2v-2h-2v1h-1v-1h1v-1h3v1h1v2h-1v1h1v3H85z"/>
	</g>
	<g>
		<path class="st3" d="M85,305.3v2h-2v-2h-3v-2h1v-2h1v2h-1v1h2v-5h2v5h1v1H85z"/>
	</g>
	<g>
		<rect x="10" y="20" class="st6" width="2" height="2"/>
		<rect x="10" y="10" class="st6" width="2" height="2"/>
		<rect x="10" y="8" class="st6" width="2" height="2"/>
		<rect x="12" y="8" class="st6" width="2" height="2"/>
		<rect x="10" y="4" class="st4" width="2" height="4"/>
	</g>
	<g>
		<rect x="19.5" y="8" class="st5" width="2" height="2"/>
		<rect x="21.5" y="8" class="st6" width="2" height="2"/>
		<rect x="19.5" y="4" class="st4" width="2" height="4"/>
	</g>
	<g>
		<rect x="29" y="8" class="st5" width="2" height="2"/>
		<rect x="29" y="4" class="st4" width="2" height="4"/>
		<rect x="31" y="8" class="st6" width="2" height="2"/>
	</g>
	<g>
		<rect x="38.5" y="8" class="st5" width="2" height="2"/>
		<rect x="38.5" y="4" class="st4" width="2" height="4"/>
		<rect x="40.5" y="8" class="st6" width="2" height="2"/>
	</g>
	<g>
		<rect x="48" y="8" class="st5" width="2" height="2"/>
		<rect x="50" y="8" class="st6" width="2" height="2"/>
		<rect x="48" y="4" class="st4" width="2" height="4"/>
	</g>
	<g>
		<rect x="57.5" y="8" class="st5" width="2" height="2"/>
		<rect x="57.5" y="4" class="st4" width="2" height="4"/>
		<rect x="59.5" y="8" class="st6" width="2" height="2"/>
	</g>
	<g>
		<rect x="67" y="8" class="st5" width="2" height="2"/>
		<rect x="67" y="4" class="st4" width="2" height="4"/>
		<rect x="69" y="8" class="st6" width="2" height="2"/>
	</g>
	<g>
		<rect x="76.5" y="8" class="st5" width="2" height="2"/>
		<rect x="76.5" y="4" class="st4" width="2" height="4"/>
		<rect x="78.5" y="8" class="st6" width="2" height="2"/>
	</g>
	<g>
		<rect x="87" y="4" class="st4" width="2" height="4"/>
		<rect x="87" y="8" class="st6" width="2" height="2"/>
	</g>
	<rect x="8" y="4" class="st8" width="82" height="1"/>
	<rect x="9" y="5" class="st6" width="1" height="82.3"/>
	<rect x="9" y="179.3" class="st6" width="1" height="292"/>
	<rect x="8" y="4" class="st8" width="1" height="83.3"/>
	<rect x="8" y="181.3" class="st8" width="1" height="290"/>
	<rect x="8" y="179.3" class="st4" width="1" height="2"/>
	<rect x="94" y="231.3" class="st8" width="1" height="240"/>
	<rect x="92" y="221.3" class="st8" width="1" height="12"/>
	<rect x="92" y="231.3" class="st8" width="1" height="2"/>
	<rect x="91" y="221.3" class="st8" width="1" height="2"/>
	<rect x="93" y="231.3" class="st8" width="1" height="2"/>
	<rect x="90" y="4" class="st8" width="1" height="219.3"/>
	<rect x="76" y="465.3" class="st4" width="2" height="2"/>
	<rect x="76" y="461.3" class="st4" width="2" height="2"/>
	<rect x="76" y="457.3" class="st4" width="2" height="2"/>
	<g>
		<g>
			<rect x="7" y="157.3" class="st6" width="2" height="2"/>
			<rect x="7" y="165.3" class="st6" width="2" height="2"/>
			<rect x="8" y="173.3" class="st6" width="1" height="4"/>
			<rect x="7" y="173.3" class="st6" width="2" height="1"/>
			<rect x="7" y="176.3" class="st6" width="2" height="1"/>
			<g>
				<rect x="15" y="173.3" class="st6" width="1" height="4"/>
				<rect x="14" y="173.3" class="st5" width="1" height="4"/>
			</g>
			<rect x="14" y="173.3" class="st6" width="2" height="1"/>
			<g>
				<rect x="23" y="173.3" class="st6" width="1" height="4"/>
				<rect x="22" y="173.3" class="st5" width="1" height="4"/>
			</g>
			<rect x="22" y="173.3" class="st6" width="2" height="1"/>
			<g>
				<rect x="31" y="173.3" class="st6" width="1" height="4"/>
				<rect x="30" y="173.3" class="st5" width="1" height="4"/>
			</g>
			<rect x="30" y="173.3" class="st6" width="2" height="1"/>
			<g>
				<rect x="39" y="173.3" class="st6" width="1" height="4"/>
				<rect x="38" y="173.3" class="st5" width="1" height="4"/>
			</g>
			<rect x="38" y="173.3" class="st6" width="2" height="1"/>
			<g>
				<rect x="47" y="173.3" class="st6" width="1" height="4"/>
				<rect x="46" y="173.3" class="st5" width="1" height="4"/>
			</g>
			<rect x="46" y="173.3" class="st6" width="2" height="1"/>
			<rect x="7" y="117.3" class="st6" width="2" height="2"/>
			<rect x="7" y="109.3" class="st6" width="2" height="2"/>
			<rect x="7" y="101.3" class="st6" width="2" height="2"/>
			<rect x="7" y="93.3" class="st6" width="2" height="2"/>
			<rect x="8" y="88.3" class="st6" width="3" height="1"/>
			<rect x="8" y="86.3" class="st5" width="2" height="2"/>
			<rect x="9" y="86.3" class="st6" width="1" height="2"/>
			<rect x="7" y="125.3" class="st6" width="2" height="2"/>
			<rect x="7" y="133.3" class="st6" width="2" height="2"/>
			<rect x="7" y="141.3" class="st6" width="2" height="2"/>
			<rect x="7" y="149.3" class="st6" width="2" height="2"/>
			<rect x="14" y="176.3" class="st6" width="2" height="1"/>
			<rect x="22" y="176.3" class="st6" width="2" height="1"/>
			<rect x="30" y="176.3" class="st6" width="2" height="1"/>
			<rect x="38" y="176.3" class="st6" width="2" height="1"/>
			<rect x="46" y="176.3" class="st6" width="2" height="1"/>
		</g>
		<rect x="6" y="87.3" class="st6" width="1" height="90"/>
		<rect x="5" y="85.3" class="st8" width="1" height="88"/>
		<rect x="49" y="85.3" class="st8" width="1" height="88"/>
		<rect x="6" y="172.3" class="st8" width="44" height="1"/>
	</g>
	<rect x="6" y="85.3" class="st8" width="6" height="1"/>
	<rect x="46" y="85.3" class="st8" width="4" height="1"/>
	<rect x="30" y="79.3" class="st8" width="4" height="1"/>
	<rect x="22" y="79.3" class="st8" width="4" height="1"/>
	<rect x="14" y="12" class="st5" width="22" height="2"/>
	<rect x="14" y="16" class="st5" width="12" height="2"/>
	<rect x="76" y="55.3" class="st5" width="4" height="2"/>
	<rect x="76" y="99.3" class="st5" width="4" height="2"/>
	<rect x="82" y="55.3" class="st5" width="2" height="2"/>
	<rect x="78" y="241.3" class="st5" width="6" height="2"/>
	<rect x="78" y="245.3" class="st5" width="4" height="2"/>
	<rect x="78" y="285.3" class="st5" width="4" height="2"/>
	<rect x="78" y="289.3" class="st5" width="2" height="2"/>
	<rect x="36" y="135.3" class="st6" width="6" height="2"/>
	<g>
		<g>
			<rect x="44" y="91.3" class="st12" width="2" height="2"/>
			<rect x="46" y="91.3" class="st9" width="2" height="2"/>
			<rect x="48" y="91.3" class="st12" width="2" height="2"/>
			<rect x="50" y="91.3" class="st9" width="2" height="2"/>
			<rect x="48" y="89.3" class="st8" width="2" height="2"/>
			<rect x="46" y="89.3" class="st10" width="2" height="2"/>
			<rect x="44" y="89.3" class="st8" width="2" height="2"/>
			<rect x="44" y="87.3" class="st8" width="2" height="2"/>
			<rect x="42" y="91.3" class="st9" width="2" height="2"/>
			<rect x="42" y="89.3" class="st10" width="2" height="2"/>
			<rect x="42" y="87.3" class="st10" width="2" height="2"/>
			<rect x="46" y="87.3" class="st10" width="2" height="2"/>
		</g>
		<rect x="40" y="87.3" class="st6" width="2" height="20"/>
	</g>
</g>
<rect x="2" y="460" class="st1" width="4" height="2"/>
<rect x="2" y="445" class="st1" width="4" height="2"/>
<rect y="434" class="st3" width="4" height="2"/>
<rect x="95" y="451" class="st1" width="4" height="2"/>
<rect x="96" y="438" class="st1" width="4" height="2"/>
</svg>
