<?xml version="1.0" encoding="utf-8"?>
<!-- Generator: Adobe Illustrator 25.1.0, SVG Export Plug-In . SVG Version: 6.00 Build 0)  -->
<svg version="1.1" id="Layer_1" xmlns="http://www.w3.org/2000/svg" xmlns:xlink="http://www.w3.org/1999/xlink" x="0px" y="0px"
	 viewBox="0 0 100 400" style="enable-background:new 0 0 100 400;" xml:space="preserve">
<style type="text/css">
	.st0{fill:#6CDFFB;}
	.st1{fill:#235FDA;}
	.st2{fill:#96A5AB;}
	.st3{fill:#586C79;}
	.st4{fill:#2A3747;}
	.st5{fill:#182028;}
	.st6{fill:#F1F0EE;}
	.st7{fill:#FFFFFF;}
	.st8{fill:#080D11;}
	.st9{fill:#2CA8F8;}
	.st10{fill:#9D1B32;}
	.st11{fill:#F1C18D;}
	.st12{fill:#EE6928;}
</style>
<g>
	<g>
		<rect x="18" y="26" class="st0" width="6" height="2"/>
		<rect x="8" y="38" class="st0" width="6" height="2"/>
		<rect x="68" y="8" class="st0" width="6" height="2"/>
		<rect x="76" y="16" class="st0" width="6" height="2"/>
		<rect x="92" y="18" class="st0" width="6" height="2"/>
		<rect x="34" y="8" class="st0" width="6" height="2"/>
		<rect x="20" y="14" class="st0" width="6" height="2"/>
	</g>
	<g>
		<rect x="18" y="60" class="st0" width="6" height="2"/>
		<rect x="8" y="72" class="st0" width="6" height="2"/>
		<rect x="6" y="82" class="st0" width="6" height="2"/>
		<rect x="68" y="42" class="st0" width="6" height="2"/>
		<rect x="76" y="50" class="st0" width="6" height="2"/>
		<rect x="92" y="52" class="st0" width="6" height="2"/>
		<rect x="94" y="64" class="st0" width="6" height="2"/>
		<rect x="34" y="42" class="st0" width="6" height="2"/>
		<rect x="20" y="48" class="st0" width="6" height="2"/>
	</g>
	<g>
		<rect x="16" y="376" class="st0" width="6" height="2"/>
		<rect x="6" y="388" class="st0" width="10" height="2"/>
		<rect x="6" y="364" class="st0" width="6" height="2"/>
		<rect x="4" y="354" class="st0" width="6" height="2"/>
		<rect x="66" y="394" class="st0" width="6" height="2"/>
		<rect x="74" y="386" class="st0" width="6" height="2"/>
		<rect x="86" y="394" class="st0" width="6" height="2"/>
		<rect x="82" y="372" class="st0" width="6" height="2"/>
		<rect x="32" y="394" class="st0" width="6" height="2"/>
	</g>
	<g>
		<rect x="77" y="60" transform="matrix(-1 -2.249486e-10 2.249486e-10 -1 160 122)" class="st0" width="6" height="2"/>
		<rect x="87" y="72" transform="matrix(-1 -2.243420e-10 2.243420e-10 -1 180 146)" class="st0" width="6" height="2"/>
		<rect x="89" y="82" transform="matrix(-1 -2.243420e-10 2.243420e-10 -1 184 166)" class="st0" width="6" height="2"/>
		<rect x="27" y="42" transform="matrix(-1 -2.246453e-10 2.246453e-10 -1 60 86)" class="st0" width="6" height="2"/>
		<rect x="19" y="50" transform="matrix(-1 -2.243420e-10 2.243420e-10 -1 44 102)" class="st0" width="6" height="2"/>
		<rect x="3" y="52" transform="matrix(-1 -2.246453e-10 2.246453e-10 -1 12 106)" class="st0" width="6" height="2"/>
		<rect x="4" y="36" transform="matrix(-1 -2.246453e-10 2.246453e-10 -1 14 74)" class="st0" width="6" height="2"/>
		<rect x="6" y="39" transform="matrix(-1 -2.246453e-10 2.246453e-10 -1 18 80)" class="st1" width="6" height="2"/>
		<rect x="2" y="32" transform="matrix(-1 -2.246453e-10 2.246453e-10 -1 10 66)" class="st1" width="6" height="2"/>
		<rect x="3" y="42" transform="matrix(-1 -2.246453e-10 2.246453e-10 -1 12 86)" class="st1" width="6" height="2"/>
		<rect x="5" y="44" transform="matrix(-1 -2.246453e-10 2.246453e-10 -1 16 90)" class="st1" width="6" height="2"/>
		<rect x="7" y="46" transform="matrix(-1 -2.246453e-10 2.246453e-10 -1 20 94)" class="st1" width="6" height="2"/>
		<rect x="4" y="30" transform="matrix(-1 -2.246453e-10 2.246453e-10 -1 14 62)" class="st1" width="6" height="2"/>
		<rect x="4" y="29" transform="matrix(-1 -2.246453e-10 2.246453e-10 -1 14 60)" class="st1" width="6" height="2"/>
		<rect x="7" y="28" transform="matrix(-1 -2.246453e-10 2.246453e-10 -1 20 58)" class="st1" width="6" height="2"/>
		<rect x="1" y="64" transform="matrix(-1 -2.246453e-10 2.246453e-10 -1 8 130)" class="st0" width="6" height="2"/>
		<rect x="61" y="42" transform="matrix(-1 -2.246453e-10 2.246453e-10 -1 128 86)" class="st0" width="6" height="2"/>
		<rect x="75" y="48" transform="matrix(-1 -2.243420e-10 2.243420e-10 -1 156 98)" class="st0" width="6" height="2"/>
	</g>
	<g>
		<rect x="1" y="328" class="st0" width="6" height="2"/>
	</g>
	<g>
		<polygon class="st1" points="96,38 96,40 100,40 100,42 98,42 98,44 96,44 96,46 100,46 100,48 98,48 98,50 94,50 94,56 96,56 
			96,58 98,58 98,60 96,60 96,62 94,62 94,66 96,66 96,68 98,68 98,70 100,70 100,72 96,72 96,74 100,74 100,76 98,76 98,78 96,78 
			96,80 100,80 100,82 98,82 98,84 100,84 100,86 98,86 98,88 96,88 96,90 98,90 98,94 100,94 100,96 97,96 97,98 96,98 96,101 
			98,101 98,105 97,105 97,108 100,108 100,110 98,110 98,112 95,112 95,114 98,114 98,116 99,116 99,118 96,118 96,119 100,119 
			100,121 99,121 99,123 98,123 98,124 99,124 99,126 97,126 97,128 96,128 96,130 98,130 98,132 97,132 97,134 96,134 96,135 
			99,135 99,137 98,137 98,138 97,138 97,140 98,140 98,142 94,142 94,144 96,144 96,148 98,148 98,150 94,150 94,151 96,151 
			96,153 94,153 94,155 96,155 96,157 98,157 98,159 95,159 95,161 94,161 94,163 96,163 96,165 98,165 98,167 96,167 96,169 
			97,169 97,171 95,171 95,172 94,172 94,173 97,173 97,175 99,175 99,177 96,177 96,179 94,179 94,181 97,181 97,183 99,183 
			99,185 97,185 97,187 96,187 96,189 97,189 97,193 98,193 98,195 97,195 97,196 98,196 98,198 95,198 95,199 94,199 94,201 
			97,201 97,203 94,203 94,204 95,204 95,205 96,205 96,207 98,207 98,209 97,209 97,210 95,210 95,211 94,211 94,212 97,212 
			97,214 99,214 99,216 94,216 94,219 97,219 97,221 94,221 94,222 96,222 96,224 98,224 98,226 95,226 95,228 98,228 98,230 
			100,230 100,232 97,232 97,234 95,234 95,236 98,236 98,238 100,238 100,240 98,240 98,242 97,242 97,245 94,245 94,246 98,246 
			98,248 99,248 99,250 98,250 98,251 94,251 94,252 96,252 96,254 95,254 95,256 98,256 98,258 95,258 95,260 97,260 97,262 
			99,262 99,264 98,264 98,265 96,265 96,266 94,266 94,267 98,267 98,269 100,269 100,271 94,271 94,272 95,272 95,274 98,274 
			98,276 94,276 94,277 97,277 97,279 94,279 94,280 98,280 98,282 95,282 95,284 98,284 98,286 100,286 100,288 97,288 97,290 
			95,290 95,292 98,292 98,294 100,294 100,296 98,296 98,298 97,298 97,301 94,301 94,302 98,302 98,304 99,304 99,306 98,306 
			98,307 94,307 94,308 96,308 96,310 95,310 95,312 98,312 98,314 95,314 95,316 97,316 97,318 99,318 99,320 98,320 98,321 
			96,321 96,322 94,322 94,323 98,323 98,325 100,325 100,327 94,327 94,328 95,328 95,330 98,330 98,332 94,332 94,333 97,333 
			97,335 95,335 95,336 98,336 98,338 97,338 97,339 94,339 94,340 100,340 100,342 94,342 94,343 99,343 99,345 98,345 98,347 
			97,347 97,349 94,349 94,350 99,350 99,352 98,352 98,354 96,354 96,356 94,356 94,357 97,357 97,359 98,359 98,361 95,361 
			95,362 99,362 99,364 95,364 95,366 90,366 90,368 92,368 92,370 90,370 90,372 96,372 96,374 92,374 92,376 90,376 90,378 
			84,378 84,380 86,380 86,382 92,382 92,384 84,384 84,386 86,386 86,388 78,388 78,390 82,390 82,392 76,392 76,394 80,394 
			80,398 76,398 76,400 30,400 30,398 34,398 34,394 30,394 30,392 26,392 26,390 32,390 32,388 24,388 24,386 22,386 22,384 
			14,384 14,382 12,382 12,380 10,380 10,378 8,378 8,376 10,376 10,374 12,374 12,372 8,372 8,370 10,370 10,368 12,368 12,366 
			8,366 8,364 2,364 2,362 4,362 4,360 3,360 3,358 6,358 6,356 8,356 8,354 3,354 3,352 7,352 7,350 2,350 2,348 3,348 3,346 
			4,346 4,344 8,344 8,342 3,342 3,340 5,340 5,338 6,338 6,336 8,336 8,335 4,335 4,333 8,333 8,332 3,332 3,330 6,330 6,328 
			8,328 8,327 1,327 1,325 3,325 3,323 8,323 8,322 5,322 5,321 3,321 3,320 2,320 2,318 4,318 4,316 6,316 6,314 3,314 3,312 
			6,312 6,310 5,310 5,308 8,308 8,307 3,307 3,306 2,306 2,304 3,304 3,302 8,302 8,301 4,301 4,298 3,298 3,296 1,296 1,294 
			3,294 3,292 6,292 6,290 4,290 4,288 1,288 1,286 3,286 3,284 6,284 6,282 3,282 3,280 8,280 8,279 4,279 4,277 8,277 8,276 
			3,276 3,274 6,274 6,272 8,272 8,271 1,271 1,269 3,269 3,267 8,267 8,266 5,266 5,265 3,265 3,264 2,264 2,262 4,262 4,260 
			6,260 6,258 3,258 3,256 6,256 6,254 5,254 5,252 8,252 8,251 3,251 3,250 2,250 2,248 3,248 3,246 8,246 8,245 4,245 4,242 
			3,242 3,240 1,240 1,238 3,238 3,236 6,236 6,234 4,234 4,232 1,232 1,230 3,230 3,228 6,228 6,226 3,226 3,224 5,224 5,222 
			8,222 8,221 4,221 4,219 7,219 7,217 8,217 8,216 2,216 2,214 4,214 4,212 8,212 8,211 6,211 6,210 4,210 4,209 3,209 3,207 
			5,207 5,205 6,205 6,204 7,204 7,203 4,203 4,201 7,201 7,199 6,199 6,198 3,198 3,196 4,196 4,195 3,195 3,193 4,193 4,189 
			5,189 5,187 4,187 4,185 2,185 2,183 4,183 4,181 7,181 7,179 5,179 5,177 2,177 2,175 4,175 4,173 7,173 7,172 6,172 6,171 
			4,171 4,169 5,169 5,167 3,167 3,165 5,165 5,163 8,163 8,161 6,161 6,159 3,159 3,157 5,157 5,155 8,155 8,153 5,153 5,151 
			8,151 8,150 3,150 3,148 5,148 5,144 8,144 8,142 3,142 3,140 4,140 4,138 3,138 3,137 2,137 2,135 5,135 5,134 4,134 4,132 
			3,132 3,130 5,130 5,128 4,128 4,126 2,126 2,124 3,124 3,123 2,123 2,121 1,121 1,119 5,119 5,118 2,118 2,116 3,116 3,114 
			6,114 6,112 3,112 3,110 1,110 1,108 4,108 4,105 3,105 3,101 5,101 5,98 4,98 4,96 1,96 1,94 3,94 3,90 5,90 5,88 3,88 3,86 
			1,86 1,84 3,84 3,82 1,82 1,80 5,80 5,78 3,78 3,76 1,76 1,74 5,74 5,72 1,72 1,70 3,70 3,68 5,68 5,66 8,66 8,64 7,64 7,62 5,62 
			5,60 3,60 3,58 5,58 5,56 8,56 8,28 10,28 10,26 12,26 12,24 14,24 14,22 16,22 16,20 24,20 24,18 26,18 26,16 32,16 32,14 28,14 
			28,12 32,12 32,10 36,10 36,6 32,6 32,4 78,4 78,6 82,6 82,10 78,10 78,12 84,12 84,14 80,14 80,16 88,16 88,18 86,18 86,20 
			90,20 90,22 88,22 88,24 86,24 86,26 92,26 92,28 94,28 94,30 98,30 98,32 96,32 96,34 98,34 98,36 100,36 100,38 		"/>
		<rect x="68" y="10" class="st0" width="6" height="2"/>
		<rect x="12" y="376" class="st0" width="2" height="2"/>
		<rect x="16" y="376" class="st0" width="6" height="2"/>
		<rect x="76" y="386" class="st0" width="6" height="2"/>
		<rect x="62" y="395" class="st0" width="9" height="2"/>
		<rect x="85" y="374" class="st0" width="9" height="2"/>
		<rect x="6" y="48" class="st0" width="6" height="2"/>
		<rect x="90" y="84" class="st0" width="6" height="2"/>
		<rect x="96" y="102" class="st0" width="4" height="2"/>
		<rect x="14" y="8" class="st1" width="16" height="2"/>
		<rect x="86" y="390" class="st1" width="10" height="2"/>
	</g>
</g>
<polygon class="st2" points="90,55 90,79 13,79 13,54 51,16 "/>
<polygon class="st2" points="91,58 91,340 85,340 50,375 15,340 9,340 9,58 13,58 13,79 90,79 90,58 "/>
<polygon class="st3" points="51,24 51,26 49,26 49,28 45,28 45,30 47,30 47,32 41,32 41,34 39,34 39,36 37,36 37,38 35,38 35,42 
	33,42 33,44 31,44 31,46 29,46 29,48 27,48 27,50 29,50 29,52 27,52 27,54 25,54 25,56 27,56 27,58 29,58 29,60 23,60 23,62 21,62 
	21,64 19,64 19,66 17,66 17,68 15,68 15,70 17,70 17,72 15,72 15,143 11,143 11,72 9,72 9,64 11,64 11,62 13,62 13,60 15,60 15,58 
	13,58 13,56 11,56 11,54 13,54 13,52 15,52 15,50 13,50 13,48 15,48 15,46 17,46 17,44 19,44 19,42 21,42 21,38 23,38 23,36 25,36 
	25,34 27,34 27,32 33,32 33,30 31,30 31,28 35,28 35,26 37,26 37,24 "/>
<rect x="15" y="74" class="st3" width="2" height="2"/>
<rect x="15" y="44" class="st3" width="14" height="2"/>
<rect x="19" y="38" class="st3" width="14" height="2"/>
<rect x="33" y="26" class="st3" width="14" height="2"/>
<rect x="9" y="72" class="st3" width="6" height="2"/>
<polygon class="st3" points="49,8 49,22 45,24 25,42 21,48 17,54 13,60 11,60 11,52 13,44 21,32 27,24 43,8 47,8 "/>
<polygon class="st4" points="47,16 47,18 49,18 49,22 45,22 45,24 41,24 41,26 39,26 39,28 37,28 37,30 35,30 35,32 33,32 33,34.8 
	25,42 13,60 11,60 11,52 13,44 21,32 27,24 33,18 33,20 35,20 35,22 33,22 33,24 35,24 35,26 37,26 37,24 39,24 39,22 37,22 37,20 
	41,20 41,18 43,18 43,20 45,20 45,18 43,18 43,16 45,16 45,14 43,14 43,10 45,10 45,12 47,12 47,14 49,14 49,16 "/>
<polygon class="st3" points="51,8 51,22 55,24 75,42 79,48 83,54 87,60 89,60 89,52 87,44 79,32 73,24 57,8 53,8 "/>
<polygon class="st2" points="11,348 13,358 21,370 39,388 43,392 47,394 49,394 49,372 43,368 25,352 19,342 15,336 11,332 "/>
<polygon class="st3" points="49,386 49,394 47,394 47,392 43,392 43,390 41,390 41,388 39,388 39,386 37,386 37,384 35,384 35,382 
	33,382 33,380 31,380 31,378 29,378 29,376 27,376 27,374 25,374 25,372 23,372 23,368 21,368 21,366 19,366 19,362 17,362 17,360 
	15,360 15,356 13,356 13,348 11,348 11,334 13,334 13,342 15,342 15,344 13,344 13,346 15,346 15,348 17,348 17,350 15,350 15,352 
	17,352 17,354 19,354 19,358 21,358 21,362 23,362 23,364 25,364 25,366 29,366 29,368 27,368 27,370 29,370 29,368 31,368 31,372 
	33,372 33,374 35,374 35,378 37,378 37,380 39,380 39,382 41,382 41,384 43,384 43,386 45,386 45,384 47,384 47,386 "/>
<polygon class="st3" points="89,348 87,358 79,370 61,388 57,392 53,394 51,394 51,372 57,368 75,350 81,344 85,336 89,330 "/>
<rect x="45" y="370" class="st4" width="10" height="2"/>
<polygon class="st4" points="51,394 51,396 45,396 45,394 41,394 41,392 39,392 39,390 37,390 37,388 35,388 35,386 33,386 33,384 
	31,384 31,382 29,382 29,380 27,380 27,378 25,378 25,376 23,376 23,374 21,374 21,370 19,370 19,368 17,368 17,364 15,364 15,362 
	13,362 13,358 11,358 11,352 9,352 9,328 11,328 11,348 13,348 13,352 15,352 15,356 17,356 17,358 15,358 15,360 17,360 17,362 
	21,362 21,364 19,364 19,366 21,366 21,368 23,368 23,372 25,372 25,374 27,374 27,376 29,376 29,378 31,378 31,380 33,380 33,382 
	35,382 35,384 37,384 37,386 39,386 39,388 41,388 41,390 43,390 43,392 47,392 47,394 "/>
<polygon class="st5" points="89,348 89,358 87,358 87,362 85,362 85,364 83,364 83,368 81,368 81,370 79,370 79,374 77,374 77,376 
	75,376 75,378 73,378 73,380 71,380 71,382 69,382 69,384 67,384 67,386 65,386 65,388 63,388 63,390 61,390 61,392 59,392 59,394 
	55,394 55,396 51,396 51,394 53,394 53,392 57,392 57,390 59,390 59,388 61,388 61,386 63,386 63,384 65,384 65,382 67,382 67,380 
	69,380 69,378 71,378 71,376 73,376 73,374 75,374 75,372 77,372 77,368 79,368 79,366 81,366 81,362 83,362 83,360 85,360 85,356 
	87,356 87,348 "/>
<rect x="49" y="370" class="st4" width="2" height="26"/>
<rect x="50" y="370" class="st5" width="1" height="26"/>
<g>
	<rect x="89" y="322" transform="matrix(-1 -1.127775e-10 1.127775e-10 -1 180 674)" class="st5" width="2" height="30"/>
</g>
<g>
	<rect x="45" y="6" transform="matrix(-1 -5.972346e-11 5.972346e-11 -1 96 14)" class="st5" width="6" height="2"/>
	<g>
		<rect x="89" y="50" transform="matrix(-1 -9.004010e-11 9.004010e-11 -1 180 124)" class="st4" width="2" height="24"/>
	</g>
	<g>
		<rect x="41" y="8" class="st5" width="6" height="2"/>
		<rect x="39" y="10" class="st5" width="4" height="2"/>
		<rect x="37" y="12" class="st5" width="4" height="2"/>
		<rect x="35" y="14" class="st5" width="4" height="2"/>
		<rect x="33" y="16" class="st5" width="4" height="2"/>
		<rect x="31" y="18" class="st5" width="4" height="2"/>
		<rect x="29" y="20" class="st5" width="4" height="2"/>
		<rect x="27" y="22" class="st5" width="4" height="2"/>
		<rect x="9" y="50" class="st5" width="2" height="24"/>
		<rect x="11" y="44" class="st5" width="2" height="8"/>
		<rect x="13" y="40" class="st5" width="2" height="6"/>
		<rect x="15" y="38" class="st5" width="2" height="4"/>
		<rect x="17" y="34" class="st5" width="2" height="6"/>
		<rect x="19" y="32" class="st5" width="2" height="4"/>
		<rect x="21" y="28" class="st5" width="2" height="6"/>
		<rect x="25" y="24" class="st5" width="2" height="4"/>
		<rect x="23" y="28" class="st5" width="2" height="2"/>
		<rect x="23" y="26" class="st5" width="2" height="2"/>
		<rect x="27" y="24" class="st5" width="2" height="2"/>
	</g>
</g>
<g>
	<rect x="49" y="22" transform="matrix(-1 -8.973679e-11 8.973679e-11 -1 104 46)" class="st4" width="6" height="2"/>
	<g>
		<rect x="53" y="24" transform="matrix(-1 -8.973679e-11 8.973679e-11 -1 112 50)" class="st4" width="6" height="2"/>
		<rect x="57" y="26" transform="matrix(-1 -9.004010e-11 9.004010e-11 -1 118 54)" class="st4" width="4" height="2"/>
		<rect x="59" y="28" transform="matrix(-1 -8.981273e-11 8.981273e-11 -1 122 58)" class="st4" width="4" height="2"/>
		<rect x="61" y="30" transform="matrix(-1 -8.958535e-11 8.958535e-11 -1 126 62)" class="st4" width="4" height="2"/>
		<rect x="63" y="32" transform="matrix(-1 -8.981273e-11 8.981273e-11 -1 130 66)" class="st4" width="4" height="2"/>
		<rect x="65" y="34" transform="matrix(-1 -9.004010e-11 9.004010e-11 -1 134 70)" class="st4" width="4" height="2"/>
		<rect x="67" y="36" transform="matrix(-1 -8.958535e-11 8.958535e-11 -1 138 74)" class="st4" width="4" height="2"/>
		<rect x="69" y="38" transform="matrix(-1 -8.958535e-11 8.958535e-11 -1 142 78)" class="st4" width="4" height="2"/>
		<rect x="87" y="60" transform="matrix(-1 -9.004010e-11 9.004010e-11 -1 176 130)" class="st4" width="2" height="10"/>
		<rect x="85" y="56" transform="matrix(-1 -9.004010e-11 9.004010e-11 -1 172 118)" class="st4" width="2" height="6"/>
		<rect x="83" y="54" transform="matrix(-1 -8.913061e-11 8.913061e-11 -1 168 112)" class="st4" width="2" height="4"/>
		<rect x="81" y="50" transform="matrix(-1 -9.004010e-11 9.004010e-11 -1 164 106)" class="st4" width="2" height="6"/>
		<rect x="79" y="48" transform="matrix(-1 -8.958535e-11 8.958535e-11 -1 160 100)" class="st4" width="2" height="4"/>
		<rect x="77" y="44" transform="matrix(-1 -9.049485e-11 9.049485e-11 -1 156 94)" class="st4" width="2" height="6"/>
		<rect x="73" y="40" transform="matrix(-1 -9.004010e-11 9.004010e-11 -1 148 84)" class="st4" width="2" height="4"/>
		<rect x="75" y="44" transform="matrix(-1 -8.913061e-11 8.913061e-11 -1 152 90)" class="st4" width="2" height="2"/>
		<rect x="75" y="42" transform="matrix(-1 -8.913061e-11 8.913061e-11 -1 152 86)" class="st4" width="2" height="2"/>
		<rect x="71" y="40" transform="matrix(-1 -9.004010e-11 9.004010e-11 -1 144 82)" class="st4" width="2" height="2"/>
	</g>
</g>
<g>
	<rect x="41" y="368" class="st4" width="6" height="2"/>
	<rect x="39" y="366" class="st4" width="4" height="2"/>
	<rect x="37" y="364" class="st4" width="4" height="2"/>
	<rect x="35" y="362" class="st4" width="4" height="2"/>
	<rect x="33" y="360" class="st4" width="4" height="2"/>
	<rect x="31" y="358" class="st4" width="4" height="2"/>
	<rect x="29" y="356" class="st4" width="4" height="2"/>
	<rect x="27" y="354" class="st4" width="4" height="2"/>
	<rect x="9" y="316" class="st4" width="2" height="12"/>
	<rect x="13" y="332" class="st4" width="2" height="6"/>
	<rect x="15" y="336" class="st4" width="2" height="4"/>
	<rect x="17" y="338" class="st4" width="2" height="6"/>
	<rect x="19" y="342" class="st4" width="2" height="4"/>
	<rect x="21" y="344" class="st4" width="2" height="6"/>
	<rect x="25" y="350" class="st4" width="2" height="4"/>
	<rect x="23" y="348" class="st4" width="2" height="2"/>
	<rect x="23" y="350" class="st4" width="2" height="2"/>
	<rect x="27" y="352" class="st4" width="2" height="2"/>
</g>
<g>
	<rect x="53" y="368" transform="matrix(-1 -4.486867e-11 4.486867e-11 -1 112 738)" class="st4" width="6" height="2"/>
	<rect x="57" y="366" transform="matrix(-1 -4.502011e-11 4.502011e-11 -1 118 734)" class="st4" width="4" height="2"/>
	<rect x="59" y="364" transform="matrix(-1 -4.502011e-11 4.502011e-11 -1 122 730)" class="st4" width="4" height="2"/>
	<rect x="61" y="362" transform="matrix(-1 -4.502011e-11 4.502011e-11 -1 126 726)" class="st4" width="4" height="2"/>
	<rect x="63" y="360" transform="matrix(-1 -4.502011e-11 4.502011e-11 -1 130 722)" class="st4" width="4" height="2"/>
	<rect x="65" y="358" transform="matrix(-1 -4.456536e-11 4.456536e-11 -1 134 718)" class="st4" width="4" height="2"/>
	<rect x="67" y="356" transform="matrix(-1 -4.502011e-11 4.502011e-11 -1 138 714)" class="st4" width="4" height="2"/>
	<rect x="69" y="354" transform="matrix(-1 -4.502011e-11 4.502011e-11 -1 142 710)" class="st4" width="4" height="2"/>
	<rect x="89" y="264" transform="matrix(-1 -2.155504e-10 2.155504e-10 -1 180 586)" class="st4" width="2" height="58"/>
	<rect x="87" y="324" transform="matrix(-1 -4.456536e-11 4.456536e-11 -1 176 658)" class="st4" width="2" height="10"/>
	<rect x="85" y="332" transform="matrix(-1 -4.547486e-11 4.547486e-11 -1 172 670)" class="st4" width="2" height="6"/>
	<rect x="83" y="336" transform="matrix(-1 -4.456536e-11 4.456536e-11 -1 168 676)" class="st4" width="2" height="4"/>
	<rect x="81" y="338" transform="matrix(-1 -4.547486e-11 4.547486e-11 -1 164 682)" class="st4" width="2" height="6"/>
	<rect x="79" y="342" transform="matrix(-1 -4.456536e-11 4.456536e-11 -1 160 688)" class="st4" width="2" height="4"/>
	<rect x="77" y="344" transform="matrix(-1 -4.456536e-11 4.456536e-11 -1 156 694)" class="st4" width="2" height="6"/>
	<rect x="73" y="350" transform="matrix(-1 -4.456536e-11 4.456536e-11 -1 148 704)" class="st4" width="2" height="4"/>
	<rect x="75" y="348" transform="matrix(-1 -4.547486e-11 4.547486e-11 -1 152 698)" class="st4" width="2" height="2"/>
	<rect x="75" y="350" transform="matrix(-1 -4.547486e-11 4.547486e-11 -1 152 702)" class="st4" width="2" height="2"/>
	<rect x="71" y="352" transform="matrix(-1 -4.456536e-11 4.456536e-11 -1 144 706)" class="st4" width="2" height="2"/>
</g>
<rect x="75" y="358" class="st4" width="2" height="8"/>
<rect x="57" y="368" class="st5" width="2" height="2"/>
<rect x="53" y="370" class="st5" width="2" height="2"/>
<rect x="59" y="366" class="st5" width="2" height="2"/>
<rect x="61" y="364" class="st5" width="2" height="2"/>
<rect x="63" y="362" class="st5" width="2" height="2"/>
<rect x="65" y="360" class="st5" width="2" height="2"/>
<rect x="67" y="358" class="st5" width="2" height="2"/>
<rect x="69" y="356" class="st5" width="2" height="2"/>
<rect x="71" y="354" class="st5" width="2" height="2"/>
<rect x="73" y="352" class="st5" width="2" height="2"/>
<rect x="75" y="348" class="st5" width="2" height="2"/>
<rect x="77" y="348" class="st5" width="2" height="2"/>
<rect x="77" y="346" class="st5" width="2" height="2"/>
<rect x="79" y="342" class="st5" width="2" height="2"/>
<rect x="81" y="338" class="st5" width="2" height="2"/>
<rect x="81" y="338" class="st5" width="2" height="2"/>
<rect x="83" y="336" class="st5" width="2" height="2"/>
<rect x="85" y="332" class="st5" width="2" height="4"/>
<g>
	<polygon class="st4" points="87,346 87,356 85,356 85,360 83,360 83,362 81,362 81,364 79,364 79,368 77,368 77,372 75,372 75,374 
		73,374 73,376 71,376 71,378 69,378 69,380 67,380 67,382 65,382 65,384 63,384 63,386 61,386 61,388 59,388 59,390 57,390 57,392 
		53,392 53,394 51,394 51,386 53,386 53,384 55,384 55,386 57,386 57,384 59,384 59,382 61,382 61,380 63,380 63,378 65,378 65,374 
		67,374 67,372 69,372 69,370 73,370 73,366 75,366 75,364 77,364 77,362 79,362 79,356 77,356 77,354 83,354 83,352 85,352 85,346 
			"/>
	<rect x="87" y="330" class="st5" width="2" height="18"/>
	<rect x="57" y="380" class="st4" width="2" height="2"/>
	<rect x="55" y="382" class="st4" width="2" height="2"/>
	<rect x="53" y="388" class="st5" width="2" height="2"/>
	<rect x="51" y="382" class="st4" width="2" height="2"/>
	<rect x="53" y="380" class="st4" width="2" height="2"/>
	<rect x="59" y="378" class="st4" width="2" height="2"/>
</g>
<g>
	<rect x="41" y="380" transform="matrix(-1 -4.547486e-11 4.547486e-11 -1 84 762)" class="st3" width="2" height="2"/>
	<rect x="43" y="382" transform="matrix(-1 -4.456536e-11 4.456536e-11 -1 88 766)" class="st3" width="2" height="2"/>
	<rect x="47" y="382" transform="matrix(-1 -4.547486e-11 4.547486e-11 -1 96 766)" class="st3" width="2" height="2"/>
	<rect x="45" y="380" transform="matrix(-1 -4.456536e-11 4.456536e-11 -1 92 762)" class="st3" width="2" height="2"/>
	<rect x="39" y="378" transform="matrix(-1 -4.456536e-11 4.456536e-11 -1 80 758)" class="st3" width="2" height="2"/>
	<rect x="35" y="372" transform="matrix(-1 -4.456536e-11 4.456536e-11 -1 72 746)" class="st3" width="2" height="2"/>
	<rect x="37" y="374" transform="matrix(-1 -4.456536e-11 4.456536e-11 -1 76 750)" class="st3" width="2" height="2"/>
	<rect x="31" y="376" transform="matrix(-1 -4.456536e-11 4.456536e-11 -1 64 754)" class="st4" width="2" height="2"/>
	<rect x="29" y="372" transform="matrix(-1 -4.456536e-11 4.456536e-11 -1 60 746)" class="st4" width="2" height="2"/>
	<rect x="27" y="370" transform="matrix(-1 -4.456536e-11 4.456536e-11 -1 56 742)" class="st4" width="2" height="2"/>
	<rect x="23" y="366" transform="matrix(-1 -4.456536e-11 4.456536e-11 -1 48 734)" class="st4" width="2" height="2"/>
	<rect x="21" y="364" transform="matrix(-1 -4.456536e-11 4.456536e-11 -1 44 730)" class="st4" width="2" height="2"/>
	<rect x="17" y="358" transform="matrix(-1 -4.456536e-11 4.456536e-11 -1 36 718)" class="st4" width="2" height="2"/>
	<rect x="25" y="370" transform="matrix(-1 -4.456536e-11 4.456536e-11 -1 52 742)" class="st4" width="2" height="2"/>
	<rect x="33" y="378" transform="matrix(-1 -4.456536e-11 4.456536e-11 -1 68 758)" class="st4" width="2" height="2"/>
	<rect x="35" y="380" transform="matrix(-1 -4.456536e-11 4.456536e-11 -1 72 762)" class="st4" width="2" height="2"/>
	<rect x="39" y="384" transform="matrix(-1 -4.456536e-11 4.456536e-11 -1 80 770)" class="st4" width="2" height="2"/>
	<rect x="43" y="386" transform="matrix(-1 -4.456536e-11 4.456536e-11 -1 88 774)" class="st4" width="2" height="2"/>
	<rect x="43" y="388" transform="matrix(-1 -4.456536e-11 4.456536e-11 -1 88 778)" class="st4" width="2" height="2"/>
	<rect x="45" y="388" transform="matrix(-1 -4.456536e-11 4.456536e-11 -1 92 778)" class="st4" width="2" height="2"/>
	<rect x="33" y="370" transform="matrix(-1 -4.456536e-11 4.456536e-11 -1 68 742)" class="st3" width="2" height="2"/>
	<rect x="25" y="362" transform="matrix(-1 -4.456536e-11 4.456536e-11 -1 52 726)" class="st3" width="2" height="2"/>
	<rect x="23" y="360" transform="matrix(-1 -4.456536e-11 4.456536e-11 -1 48 722)" class="st3" width="2" height="2"/>
	<rect x="21" y="356" transform="matrix(-1 -4.456536e-11 4.456536e-11 -1 44 714)" class="st3" width="2" height="2"/>
	<rect x="17" y="350" transform="matrix(-1 -4.456536e-11 4.456536e-11 -1 36 702)" class="st3" width="2" height="2"/>
	<rect x="15" y="344" transform="matrix(-1 -4.456536e-11 4.456536e-11 -1 32 690)" class="st3" width="2" height="2"/>
	<rect x="19" y="352" transform="matrix(-1 -4.456536e-11 4.456536e-11 -1 40 706)" class="st3" width="2" height="2"/>
</g>
<rect x="61" y="376" class="st4" width="2" height="2"/>
<rect x="63" y="374" class="st5" width="2" height="2"/>
<rect x="67" y="372" class="st5" width="2" height="2"/>
<rect x="61" y="378" class="st5" width="2" height="2"/>
<rect x="57" y="382" class="st5" width="2" height="2"/>
<rect x="71" y="364" class="st4" width="2" height="2"/>
<rect x="71" y="364" class="st4" width="2" height="2"/>
<rect x="75" y="358" class="st4" width="2" height="2"/>
<rect x="81" y="350" class="st4" width="2" height="2"/>
<rect x="83" y="348" class="st4" width="2" height="2"/>
<rect x="85" y="348" class="st5" width="2" height="2"/>
<rect x="85" y="344" class="st5" width="2" height="2"/>
<rect x="83" y="350" class="st5" width="2" height="2"/>
<rect x="81" y="354" class="st5" width="2" height="2"/>
<rect x="77" y="358" class="st5" width="2" height="2"/>
<rect x="75" y="362" class="st5" width="2" height="2"/>
<rect x="73" y="366" class="st5" width="2" height="2"/>
<rect x="71" y="368" class="st5" width="2" height="2"/>
<rect x="81" y="346" class="st4" width="2" height="2"/>
<rect x="83" y="344" class="st4" width="2" height="2"/>
<rect x="85" y="342" class="st4" width="2" height="2"/>
<rect x="85" y="340" class="st4" width="2" height="2"/>
<rect x="67" y="368" class="st4" width="2" height="2"/>
<rect x="65" y="370" class="st4" width="2" height="2"/>
<rect x="63" y="372" class="st4" width="2" height="2"/>
<g>
	<g>
		<rect x="11" y="141" transform="matrix(-1 -1.224647e-16 1.224647e-16 -1 24 284)" class="st4" width="2" height="2"/>
		<rect x="11" y="102" transform="matrix(-1 -1.224647e-16 1.224647e-16 -1 24 206)" class="st4" width="2" height="2"/>
		<rect x="11" y="93" transform="matrix(-1 -1.224647e-16 1.224647e-16 -1 24 188)" class="st4" width="2" height="2"/>
		<rect x="11" y="84" transform="matrix(-1 -1.224647e-16 1.224647e-16 -1 24 170)" class="st4" width="2" height="2"/>
		<rect x="11" y="75" transform="matrix(-1 -1.224647e-16 1.224647e-16 -1 24 152)" class="st4" width="2" height="2"/>
		<rect x="11" y="110" transform="matrix(-1 -1.224647e-16 1.224647e-16 -1 24 222)" class="st4" width="2" height="2"/>
		<rect x="11" y="118" transform="matrix(-1 -1.224647e-16 1.224647e-16 -1 24 238)" class="st4" width="2" height="2"/>
		<rect x="11" y="126" transform="matrix(-1 -1.224647e-16 1.224647e-16 -1 24 254)" class="st4" width="2" height="2"/>
		<rect x="11" y="134" transform="matrix(-1 -1.224647e-16 1.224647e-16 -1 24 270)" class="st4" width="2" height="2"/>
	</g>
	<rect x="-36" y="96" transform="matrix(-1.836970e-16 1 -1 -1.836970e-16 107 86)" class="st4" width="93" height="1"/>
	<rect x="-37" y="96" transform="matrix(-1.836970e-16 1 -1 -1.836970e-16 106 87)" class="st6" width="93" height="1"/>
</g>
<g>
	
		<rect x="-20.9" y="172.9" transform="matrix(2.407576e-13 -1 1 2.407576e-13 -161.9411 188.0588)" class="st3" width="68" height="4.1"/>
	<g>
		<rect x="11" y="207" transform="matrix(-1 -1.224647e-16 1.224647e-16 -1 24 416)" class="st4" width="2" height="2"/>
		<rect x="11" y="168" transform="matrix(-1 -1.224647e-16 1.224647e-16 -1 24 338)" class="st4" width="2" height="2"/>
		<rect x="11" y="159" transform="matrix(-1 -1.224647e-16 1.224647e-16 -1 24 320)" class="st4" width="2" height="2"/>
		<rect x="11" y="150" transform="matrix(-1 -1.224647e-16 1.224647e-16 -1 24 302)" class="st4" width="2" height="2"/>
		<rect x="11" y="141" transform="matrix(-1 -1.224647e-16 1.224647e-16 -1 24 284)" class="st4" width="2" height="2"/>
		<rect x="11" y="176" transform="matrix(-1 -1.224647e-16 1.224647e-16 -1 24 354)" class="st4" width="2" height="2"/>
		<rect x="11" y="184" transform="matrix(-1 -1.224647e-16 1.224647e-16 -1 24 370)" class="st4" width="2" height="2"/>
		<rect x="11" y="192" transform="matrix(-1 -1.224647e-16 1.224647e-16 -1 24 386)" class="st4" width="2" height="2"/>
		<rect x="11" y="200" transform="matrix(-1 -1.224647e-16 1.224647e-16 -1 24 402)" class="st4" width="2" height="2"/>
	</g>
	<rect x="-23.5" y="174.5" transform="matrix(-1.836970e-16 1 -1 -1.836970e-16 185.5 164.5)" class="st4" width="68" height="1"/>
	<rect x="-24.5" y="174.5" transform="matrix(-1.836970e-16 1 -1 -1.836970e-16 184.5 165.5)" class="st6" width="68" height="1"/>
</g>
<g>
	
		<rect x="-20.9" y="238.9" transform="matrix(2.407576e-13 -1 1 2.407576e-13 -227.9411 254.0588)" class="st3" width="68" height="4.1"/>
	<g>
		<rect x="11" y="273" transform="matrix(-1 -1.224647e-16 1.224647e-16 -1 24 548.0001)" class="st4" width="2" height="2"/>
		<rect x="11" y="234" transform="matrix(-1 -1.224647e-16 1.224647e-16 -1 24 470)" class="st4" width="2" height="2"/>
		<rect x="11" y="225" transform="matrix(-1 -1.224647e-16 1.224647e-16 -1 24 452)" class="st4" width="2" height="2"/>
		<rect x="11" y="216" transform="matrix(-1 -1.224647e-16 1.224647e-16 -1 24 434)" class="st4" width="2" height="2"/>
		<rect x="11" y="207" transform="matrix(-1 -1.224647e-16 1.224647e-16 -1 24 416)" class="st4" width="2" height="2"/>
		<rect x="11" y="242" transform="matrix(-1 -1.224647e-16 1.224647e-16 -1 24 486)" class="st4" width="2" height="2"/>
		<rect x="11" y="250" transform="matrix(-1 -1.224647e-16 1.224647e-16 -1 24 502)" class="st4" width="2" height="2"/>
		<rect x="11" y="258" transform="matrix(-1 -1.224647e-16 1.224647e-16 -1 24 518.0001)" class="st4" width="2" height="2"/>
		<rect x="11" y="266" transform="matrix(-1 -1.224647e-16 1.224647e-16 -1 24 534.0001)" class="st4" width="2" height="2"/>
	</g>
	<rect x="-23.5" y="240.5" transform="matrix(-1.836970e-16 1 -1 -1.836970e-16 251.5 230.5)" class="st4" width="68" height="1"/>
	<rect x="-24.5" y="240.5" transform="matrix(-1.836970e-16 1 -1 -1.836970e-16 250.5 231.5)" class="st6" width="68" height="1"/>
</g>
<g>
	<rect x="-28" y="289" transform="matrix(1.332880e-13 -1 1 1.332880e-13 -278 304)" class="st3" width="82" height="4"/>
	<rect x="11" y="324" class="st4" width="2" height="10"/>
	<g>
		<rect x="11" y="316" transform="matrix(-1 -1.224647e-16 1.224647e-16 -1 24 634.0001)" class="st4" width="2" height="2"/>
		<rect x="11" y="277" transform="matrix(-1 -1.224647e-16 1.224647e-16 -1 24 556.0001)" class="st4" width="2" height="2"/>
		<rect x="11" y="268" transform="matrix(-1 -1.224647e-16 1.224647e-16 -1 24 538.0001)" class="st4" width="2" height="2"/>
		<rect x="11" y="259" transform="matrix(-1 -1.224647e-16 1.224647e-16 -1 24 520.0001)" class="st4" width="2" height="2"/>
		<rect x="11" y="250" transform="matrix(-1 -1.224647e-16 1.224647e-16 -1 24 502)" class="st4" width="2" height="2"/>
		<rect x="11" y="285" transform="matrix(-1 -1.224647e-16 1.224647e-16 -1 24 572.0001)" class="st4" width="2" height="2"/>
		<rect x="11" y="293" transform="matrix(-1 -1.224647e-16 1.224647e-16 -1 24 588.0001)" class="st4" width="2" height="2"/>
		<rect x="11" y="301" transform="matrix(-1 -1.224647e-16 1.224647e-16 -1 24 604.0001)" class="st4" width="2" height="2"/>
		<rect x="11" y="309" transform="matrix(-1 -1.224647e-16 1.224647e-16 -1 24 620.0001)" class="st4" width="2" height="2"/>
	</g>
	<rect x="-23.5" y="283.5" transform="matrix(-1.836970e-16 1 -1 -1.836970e-16 294.5 273.5)" class="st4" width="68" height="1"/>
	<rect x="-27.5" y="286.5" transform="matrix(-1.836970e-16 1 -1 -1.836970e-16 296.5 277.5)" class="st6" width="74" height="1"/>
</g>
<g>
	<rect x="50.5" y="104.5" transform="matrix(-8.988182e-11 -1 1 -8.988182e-11 -17.5 193.5)" class="st3" width="75" height="2"/>
	<g>
		<rect x="87" y="141" class="st4" width="2" height="2"/>
		<rect x="87" y="102" class="st4" width="2" height="2"/>
		<rect x="87" y="93" class="st4" width="2" height="2"/>
		<rect x="87" y="84" class="st4" width="2" height="2"/>
		<rect x="87" y="75" class="st4" width="2" height="2"/>
		<rect x="87" y="110" class="st4" width="2" height="2"/>
		<rect x="87" y="118" class="st4" width="2" height="2"/>
		<rect x="87" y="126" class="st4" width="2" height="2"/>
		<rect x="87" y="134" class="st4" width="2" height="2"/>
	</g>
	<polygon class="st4" points="90,50 90,143 89,143 89,60 87,60 87,56 89,56 89,54 85,54 85,52 87,52 87,46 85,46 85,42 83,42 83,40 
		81,40 81,36 79,36 79,34 77,34 77,30 75,30 75,28 73,28 73,26 71,26 71,24 69,24 69,22 67,22 67,20 65,20 65,18 63,18 63,16 61,16 
		61,14 59,14 59,12 57,12 57,10 51,10 51,6 55,6 55,8 59,8 59,10 61,10 61,12 63,12 63,14 65,14 65,16 67,16 67,18 69,18 69,20 
		71,20 71,22 73,22 73,24 75,24 75,26 77,26 77,28 79,28 79,32 81,32 81,34 83,34 83,38 85,38 85,40 87,40 87,44 89,44 89,50 	"/>
	<rect x="44" y="96" transform="matrix(8.979555e-11 1 -1 8.979555e-11 187 6)" class="st6" width="93" height="1"/>
</g>
<g>
	<rect x="54" y="174" transform="matrix(-8.990669e-11 -1 1 -8.990669e-11 -87 263)" class="st3" width="68" height="2"/>
	<g>
		<rect x="87" y="207" class="st4" width="2" height="2"/>
		<rect x="87" y="168" class="st4" width="2" height="2"/>
		<rect x="87" y="159" class="st4" width="2" height="2"/>
		<rect x="87" y="150" class="st4" width="2" height="2"/>
		<rect x="87" y="141" class="st4" width="2" height="2"/>
		<rect x="87" y="176" class="st4" width="2" height="2"/>
		<rect x="87" y="184" class="st4" width="2" height="2"/>
		<rect x="87" y="192" class="st4" width="2" height="2"/>
		<rect x="87" y="200" class="st4" width="2" height="2"/>
	</g>
	<rect x="55.5" y="174.5" transform="matrix(8.979910e-11 1 -1 8.979910e-11 264.5 85.5)" class="st4" width="68" height="1"/>
	<rect x="56.5" y="174.5" transform="matrix(8.979910e-11 1 -1 8.979910e-11 265.5 84.5)" class="st6" width="68" height="1"/>
</g>
<g>
	<rect x="54" y="240" transform="matrix(-8.990669e-11 -1 1 -8.990669e-11 -153 329)" class="st3" width="68" height="2"/>
	<g>
		<rect x="87" y="273" class="st4" width="2" height="2"/>
		<rect x="87" y="234" class="st4" width="2" height="2"/>
		<rect x="87" y="225" class="st4" width="2" height="2"/>
		<rect x="87" y="216" class="st4" width="2" height="2"/>
		<rect x="87" y="207" class="st4" width="2" height="2"/>
		<rect x="87" y="242" class="st4" width="2" height="2"/>
		<rect x="87" y="250" class="st4" width="2" height="2"/>
		<rect x="87" y="258" class="st4" width="2" height="2"/>
		<rect x="87" y="266" class="st4" width="2" height="2"/>
	</g>
	<rect x="55.5" y="240.5" transform="matrix(8.979910e-11 1 -1 8.979910e-11 330.5 151.5)" class="st4" width="68" height="1"/>
	<rect x="56.5" y="240.5" transform="matrix(8.979910e-11 1 -1 8.979910e-11 331.5 150.5)" class="st6" width="68" height="1"/>
</g>
<g>
	<rect x="51" y="286" transform="matrix(-8.505013e-11 -1 1 -8.505013e-11 -199 375)" class="st3" width="74" height="2"/>
	<g>
		<rect x="87" y="316" class="st4" width="2" height="2"/>
		<rect x="87" y="277" class="st4" width="2" height="2"/>
		<rect x="87" y="268" class="st4" width="2" height="2"/>
		<rect x="87" y="259" class="st4" width="2" height="2"/>
		<rect x="87" y="250" class="st4" width="2" height="2"/>
		<rect x="87" y="285" class="st4" width="2" height="2"/>
		<rect x="87" y="293" class="st4" width="2" height="2"/>
		<rect x="87" y="301" class="st4" width="2" height="2"/>
		<rect x="87" y="309" class="st4" width="2" height="2"/>
	</g>
	<rect x="55.5" y="283.5" transform="matrix(8.977245e-11 1 -1 8.977245e-11 373.5 194.5)" class="st4" width="68" height="1"/>
	<rect x="53.5" y="286.5" transform="matrix(8.495142e-11 1 -1 8.495142e-11 377.5 196.5)" class="st6" width="74" height="1"/>
</g>
<rect x="29" y="354" class="st6" width="2" height="1"/>
<g>
	<rect x="9" y="324" class="st6" width="4" height="1"/>
	<rect x="13" y="332" class="st6" width="2" height="1"/>
	<rect x="15" y="336" class="st6" width="2" height="1"/>
	<rect x="17" y="338" class="st6" width="2" height="1"/>
	<rect x="19" y="342" class="st6" width="2" height="1"/>
	<rect x="21" y="344" class="st6" width="2" height="1"/>
	<rect x="23" y="348" class="st6" width="2" height="1"/>
	<rect x="25" y="350" class="st6" width="2" height="1"/>
	<rect x="27" y="352" class="st6" width="2" height="1"/>
	<rect x="31" y="356" class="st6" width="2" height="1"/>
	<rect x="33" y="358" class="st6" width="2" height="1"/>
	<rect x="35" y="360" class="st6" width="2" height="1"/>
	<rect x="37" y="362" class="st6" width="2" height="1"/>
	<rect x="39" y="364" class="st6" width="2" height="1"/>
	<rect x="41" y="366" class="st6" width="2" height="1"/>
	<rect x="43" y="368" class="st6" width="4" height="1"/>
	<rect x="47" y="370" class="st6" width="6" height="1"/>
	<rect x="8" y="328" transform="matrix(-1.836970e-16 1 -1 -1.836970e-16 341 316)" class="st6" width="9" height="1"/>
	<rect x="12" y="334" transform="matrix(6.123234e-17 -1 1 6.123234e-17 -320 349)" class="st6" width="5" height="1"/>
	<rect x="15" y="337" transform="matrix(6.123234e-17 -1 1 6.123234e-17 -321 354)" class="st6" width="3" height="1"/>
	<rect x="9.5" y="325.5" transform="matrix(6.123234e-17 -1 1 6.123234e-17 -314.5 337.5)" class="st6" width="4" height="1"/>
	<rect x="19" y="343" transform="matrix(6.123234e-17 -1 1 6.123234e-17 -323 364)" class="st6" width="3" height="1"/>
	<rect x="23" y="349" transform="matrix(6.123234e-17 -1 1 6.123234e-17 -325 374)" class="st6" width="3" height="1"/>
	<rect x="25" y="351" transform="matrix(6.123234e-17 -1 1 6.123234e-17 -325 378)" class="st6" width="3" height="1"/>
	<rect x="27" y="353" transform="matrix(6.123234e-17 -1 1 6.123234e-17 -325 382)" class="st6" width="3" height="1"/>
	<rect x="29" y="355" transform="matrix(6.123234e-17 -1 1 6.123234e-17 -325 386)" class="st6" width="3" height="1"/>
	<rect x="31" y="357" transform="matrix(6.123234e-17 -1 1 6.123234e-17 -325 390)" class="st6" width="3" height="1"/>
	<rect x="33" y="359" transform="matrix(6.123234e-17 -1 1 6.123234e-17 -325 394)" class="st6" width="3" height="1"/>
	<rect x="35" y="361" transform="matrix(6.123234e-17 -1 1 6.123234e-17 -325 398)" class="st6" width="3" height="1"/>
	<rect x="37" y="363" transform="matrix(6.123234e-17 -1 1 6.123234e-17 -325 402)" class="st6" width="3" height="1"/>
	<rect x="39" y="365" transform="matrix(6.123234e-17 -1 1 6.123234e-17 -325 406)" class="st6" width="3" height="1"/>
	<rect x="41" y="367" transform="matrix(6.123234e-17 -1 1 6.123234e-17 -325 410)" class="st6" width="3" height="1"/>
	<rect x="45" y="369" transform="matrix(6.123234e-17 -1 1 6.123234e-17 -323 416)" class="st6" width="3" height="1"/>
	<rect x="16" y="340" transform="matrix(6.123234e-17 -1 1 6.123234e-17 -322 359)" class="st6" width="5" height="1"/>
	<rect x="20" y="346" transform="matrix(6.123234e-17 -1 1 6.123234e-17 -324 369)" class="st6" width="5" height="1"/>
</g>
<g>
	<rect x="87" y="324" transform="matrix(-1 -4.456536e-11 4.456536e-11 -1 178 649)" class="st6" width="4" height="1"/>
	<rect x="85" y="332" transform="matrix(-1 -4.547486e-11 4.547486e-11 -1 172 665)" class="st6" width="2" height="1"/>
	<rect x="83" y="336" transform="matrix(-1 -4.456536e-11 4.456536e-11 -1 168 673)" class="st6" width="2" height="1"/>
	<rect x="81" y="338" transform="matrix(-1 -4.547486e-11 4.547486e-11 -1 164 677)" class="st6" width="2" height="1"/>
	<rect x="79" y="342" transform="matrix(-1 -4.456536e-11 4.456536e-11 -1 160 685)" class="st6" width="2" height="1"/>
	<rect x="77" y="344" transform="matrix(-1 -4.456536e-11 4.456536e-11 -1 156 689)" class="st6" width="2" height="1"/>
	<rect x="75" y="348" transform="matrix(-1 -4.547486e-11 4.547486e-11 -1 152 697)" class="st6" width="2" height="1"/>
	<rect x="73" y="350" transform="matrix(-1 -4.456536e-11 4.456536e-11 -1 148 701)" class="st6" width="2" height="1"/>
	<rect x="71" y="352" transform="matrix(-1 -4.456536e-11 4.456536e-11 -1 144 705)" class="st6" width="2" height="1"/>
	<rect x="67" y="356" transform="matrix(-1 -4.456536e-11 4.456536e-11 -1 136 713)" class="st6" width="2" height="1"/>
	<rect x="65" y="358" transform="matrix(-1 -4.456536e-11 4.456536e-11 -1 132 717)" class="st6" width="2" height="1"/>
	<rect x="63" y="360" transform="matrix(-1 -4.547486e-11 4.547486e-11 -1 128 721)" class="st6" width="2" height="1"/>
	<rect x="61" y="362" transform="matrix(-1 -4.456536e-11 4.456536e-11 -1 124 725)" class="st6" width="2" height="1"/>
	<rect x="59" y="364" transform="matrix(-1 -4.547486e-11 4.547486e-11 -1 120 729)" class="st6" width="2" height="1"/>
	<rect x="57" y="366" transform="matrix(-1 -4.456536e-11 4.456536e-11 -1 116 733)" class="st6" width="2" height="1"/>
	<rect x="53" y="368" transform="matrix(-1 -4.502011e-11 4.502011e-11 -1 110 737)" class="st6" width="4" height="1"/>
	<rect x="47" y="370" transform="matrix(-1 -4.486867e-11 4.486867e-11 -1 100 741)" class="st6" width="6" height="1"/>
	<rect x="83" y="328" transform="matrix(-4.486829e-11 1 -1 -4.486829e-11 416 241)" class="st6" width="9" height="1"/>
	<rect x="83" y="334" transform="matrix(4.438323e-11 -1 1 4.438323e-11 -249 420)" class="st6" width="5" height="1"/>
	<rect x="82" y="337" transform="matrix(4.486817e-11 -1 1 4.486817e-11 -254 421)" class="st6" width="3" height="1"/>
	<rect x="86.5" y="325.5" transform="matrix(4.456530e-11 -1 1 4.456530e-11 -237.5 414.5)" class="st6" width="4" height="1"/>
	<rect x="78" y="343" transform="matrix(4.486817e-11 -1 1 4.486817e-11 -264 423)" class="st6" width="3" height="1"/>
	<rect x="74" y="349" transform="matrix(4.486817e-11 -1 1 4.486817e-11 -274 425)" class="st6" width="3" height="1"/>
	<rect x="72" y="351" transform="matrix(4.486817e-11 -1 1 4.486817e-11 -278 425)" class="st6" width="3" height="1"/>
	<rect x="70" y="353" transform="matrix(4.486817e-11 -1 1 4.486817e-11 -282 425)" class="st6" width="3" height="1"/>
	<rect x="68" y="355" transform="matrix(4.486817e-11 -1 1 4.486817e-11 -286 425)" class="st6" width="3" height="1"/>
	<rect x="66" y="357" transform="matrix(4.486817e-11 -1 1 4.486817e-11 -290 425)" class="st6" width="3" height="1"/>
	<rect x="64" y="359" transform="matrix(4.486817e-11 -1 1 4.486817e-11 -294 425)" class="st6" width="3" height="1"/>
	<rect x="62" y="361" transform="matrix(4.486817e-11 -1 1 4.486817e-11 -298 425)" class="st6" width="3" height="1"/>
	<rect x="60" y="363" transform="matrix(4.547480e-11 -1 1 4.547480e-11 -302 425)" class="st6" width="3" height="1"/>
	<rect x="58" y="365" transform="matrix(4.426243e-11 -1 1 4.426243e-11 -306 425)" class="st6" width="3" height="1"/>
	<rect x="56" y="367" transform="matrix(4.426243e-11 -1 1 4.426243e-11 -310 425)" class="st6" width="3" height="1"/>
	<rect x="52" y="369" transform="matrix(4.486817e-11 -1 1 4.486817e-11 -316 423)" class="st6" width="3" height="1"/>
	<rect x="79" y="340" transform="matrix(4.474738e-11 -1 1 4.474738e-11 -259 422)" class="st6" width="5" height="1"/>
	<rect x="75" y="346" transform="matrix(4.511064e-11 -1 1 4.511064e-11 -269 424)" class="st6" width="5" height="1"/>
</g>
<g>
	<rect x="12" y="44" class="st6" width="2" height="1"/>
	<rect x="14" y="40" class="st6" width="2" height="1"/>
	<rect x="16" y="38" class="st6" width="2" height="1"/>
	<rect x="18" y="34" class="st6" width="2" height="1"/>
	<rect x="20" y="32" class="st6" width="2" height="1"/>
	<rect x="22" y="28" class="st6" width="2" height="1"/>
	<rect x="24" y="26" class="st6" width="2" height="1"/>
	<rect x="26" y="24" class="st6" width="2" height="1"/>
	<rect x="27" y="22" class="st6" width="2" height="1"/>
	<rect x="30" y="20" class="st6" width="2" height="1"/>
	<rect x="32" y="18" class="st6" width="2" height="1"/>
	<rect x="34" y="16" class="st6" width="2" height="1"/>
	<rect x="36" y="14" class="st6" width="2" height="1"/>
	<rect x="38" y="12" class="st6" width="2" height="1"/>
	<rect x="40" y="10" class="st6" width="2" height="1"/>
	<rect x="42" y="8" class="st6" width="4" height="1"/>
	<rect x="46" y="6" class="st6" width="6" height="1"/>
	<rect x="8.5" y="46.5" transform="matrix(2.019079e-10 -1 1 2.019079e-10 -35.5 58.5)" class="st6" width="6" height="1"/>
	<rect x="11" y="42" transform="matrix(-1.346054e-10 1 -1 -1.346054e-10 56 29)" class="st6" width="5" height="1"/>
	<rect x="14" y="39" transform="matrix(-1.346054e-10 1 -1 -1.346054e-10 55 24)" class="st6" width="3" height="1"/>
	<rect x="9.5" y="49.5" transform="matrix(-2.683011e-10 1 -1 -2.683011e-10 60.5 39.5)" class="st6" width="2" height="1"/>
	<rect x="18" y="33" transform="matrix(-1.346054e-10 1 -1 -1.346054e-10 53 14)" class="st6" width="3" height="1"/>
	<rect x="22" y="27" transform="matrix(-1.346054e-10 1 -1 -1.346054e-10 51 4)" class="st6" width="3" height="1"/>
	<rect x="24" y="25" transform="matrix(-1.346054e-10 1 -1 -1.346054e-10 51 1.330887e-06)" class="st6" width="3" height="1"/>
	<rect x="26" y="23" transform="matrix(-1.346054e-10 1 -1 -1.346054e-10 51 -4)" class="st6" width="3" height="1"/>
	<rect x="28" y="21" transform="matrix(-1.346054e-10 1 -1 -1.346054e-10 51 -8)" class="st6" width="3" height="1"/>
	<rect x="30" y="19" transform="matrix(-1.346054e-10 1 -1 -1.346054e-10 51 -12)" class="st6" width="3" height="1"/>
	<rect x="32" y="17" transform="matrix(-1.346054e-10 1 -1 -1.346054e-10 51 -16)" class="st6" width="3" height="1"/>
	<rect x="34" y="15" transform="matrix(-1.346054e-10 1 -1 -1.346054e-10 51 -20)" class="st6" width="3" height="1"/>
	<rect x="36" y="13" transform="matrix(-1.352120e-10 1 -1 -1.352120e-10 51 -24)" class="st6" width="3" height="1"/>
	<rect x="38" y="11" transform="matrix(-1.352120e-10 1 -1 -1.352120e-10 51 -28)" class="st6" width="3" height="1"/>
	<rect x="40" y="9" transform="matrix(-1.346054e-10 1 -1 -1.346054e-10 51 -32)" class="st6" width="3" height="1"/>
	<rect x="44" y="7" transform="matrix(-1.346054e-10 1 -1 -1.346054e-10 53 -38)" class="st6" width="3" height="1"/>
	<rect x="15" y="36" transform="matrix(-1.338780e-10 1 -1 -1.338780e-10 54 19)" class="st6" width="5" height="1"/>
	<rect x="19" y="30" transform="matrix(-1.349695e-10 1 -1 -1.349695e-10 52 9)" class="st6" width="5" height="1"/>
</g>
<g>
	<rect x="87" y="44" transform="matrix(-1 9.094935e-11 -9.094935e-11 -1 176 89)" class="st6" width="2" height="1"/>
	<rect x="85" y="40" transform="matrix(-1 8.913036e-11 -8.913036e-11 -1 172 81)" class="st6" width="2" height="1"/>
	<rect x="83" y="38" transform="matrix(-1 9.049460e-11 -9.049460e-11 -1 168 77)" class="st6" width="2" height="1"/>
	<rect x="81" y="34" transform="matrix(-1 8.913036e-11 -8.913036e-11 -1 164 69)" class="st6" width="2" height="1"/>
	<rect x="79" y="32" transform="matrix(-1 9.003985e-11 -9.003985e-11 -1 160 65)" class="st6" width="2" height="1"/>
	<rect x="77" y="28" transform="matrix(-1 9.003985e-11 -9.003985e-11 -1 156 57)" class="st6" width="2" height="1"/>
	<rect x="75" y="26" transform="matrix(-1 8.913036e-11 -8.913036e-11 -1 152 53)" class="st6" width="2" height="1"/>
	<rect x="73" y="24" transform="matrix(-1 9.003985e-11 -9.003985e-11 -1 148 49)" class="st6" width="2" height="1"/>
	<rect x="72" y="22" transform="matrix(-1 8.958510e-11 -8.958510e-11 -1 146 45)" class="st6" width="2" height="1"/>
	<rect x="69" y="20" transform="matrix(-1 8.958510e-11 -8.958510e-11 -1 140 41)" class="st6" width="2" height="1"/>
	<rect x="67" y="18" transform="matrix(-1 8.913036e-11 -8.913036e-11 -1 136 37)" class="st6" width="2" height="1"/>
	<rect x="65" y="16" transform="matrix(-1 9.049460e-11 -9.049460e-11 -1 132 33)" class="st6" width="2" height="1"/>
	<rect x="63" y="14" transform="matrix(-1 8.958510e-11 -8.958510e-11 -1 128 29)" class="st6" width="2" height="1"/>
	<rect x="61" y="12" transform="matrix(-1 9.049460e-11 -9.049460e-11 -1 124 25)" class="st6" width="2" height="1"/>
	<rect x="59" y="10" transform="matrix(-1 8.958510e-11 -8.958510e-11 -1 120 21)" class="st6" width="2" height="1"/>
	<rect x="55" y="8" transform="matrix(-1 8.981248e-11 -8.981248e-11 -1 114 17)" class="st6" width="4" height="1"/>
	<rect x="49" y="6" transform="matrix(-1 8.973654e-11 -8.973654e-11 -1 104 13)" class="st6" width="6" height="1"/>
	<rect x="86.5" y="46.5" transform="matrix(-1.573425e-10 -1 1 -1.573425e-10 42.5 136.5)" class="st6" width="6" height="1"/>
	<rect x="85" y="42" transform="matrix(8.985772e-11 1 -1 8.985772e-11 130 -45)" class="st6" width="5" height="1"/>
	<rect x="84" y="39" transform="matrix(8.973693e-11 1 -1 8.973693e-11 125 -46)" class="st6" width="3" height="1"/>
	<rect x="89.5" y="49.5" transform="matrix(2.237355e-10 1 -1 2.237355e-10 140.5 -40.5)" class="st6" width="2" height="1"/>
	<rect x="80" y="33" transform="matrix(9.034266e-11 1 -1 9.034266e-11 115 -48)" class="st6" width="3" height="1"/>
	<rect x="76" y="27" transform="matrix(8.973693e-11 1 -1 8.973693e-11 105 -50)" class="st6" width="3" height="1"/>
	<rect x="74" y="25" transform="matrix(9.034266e-11 1 -1 9.034266e-11 101 -50)" class="st6" width="3" height="1"/>
	<rect x="72" y="23" transform="matrix(8.973693e-11 1 -1 8.973693e-11 97 -50)" class="st6" width="3" height="1"/>
	<rect x="70" y="21" transform="matrix(8.973693e-11 1 -1 8.973693e-11 93 -50)" class="st6" width="3" height="1"/>
	<rect x="68" y="19" transform="matrix(8.973693e-11 1 -1 8.973693e-11 89 -50)" class="st6" width="3" height="1"/>
	<rect x="66" y="17" transform="matrix(8.973693e-11 1 -1 8.973693e-11 85 -50)" class="st6" width="3" height="1"/>
	<rect x="64" y="15" transform="matrix(8.973693e-11 1 -1 8.973693e-11 81 -50)" class="st6" width="3" height="1"/>
	<rect x="62" y="13" transform="matrix(9.034266e-11 1 -1 9.034266e-11 77 -50)" class="st6" width="3" height="1"/>
	<rect x="60" y="11" transform="matrix(9.034266e-11 1 -1 9.034266e-11 73 -50)" class="st6" width="3" height="1"/>
	<rect x="58" y="9" transform="matrix(9.034266e-11 1 -1 9.034266e-11 69 -50)" class="st6" width="3" height="1"/>
	<rect x="54" y="7" transform="matrix(8.973693e-11 1 -1 8.973693e-11 63 -48)" class="st6" width="3" height="1"/>
	<rect x="81" y="36" transform="matrix(8.949445e-11 1 -1 8.949445e-11 120 -47)" class="st6" width="5" height="1"/>
	<rect x="77" y="30" transform="matrix(8.985772e-11 1 -1 8.985772e-11 110 -49)" class="st6" width="5" height="1"/>
</g>
<rect x="28" y="179" class="st5" width="42" height="43"/>
<rect x="25" y="116" class="st2" width="48" height="90"/>
<g>
	<rect x="25" y="84" class="st3" width="48" height="32"/>
	<rect x="21" y="74" class="st2" width="56" height="26"/>
	<rect x="21" y="74" class="st3" width="2" height="26"/>
	<rect x="58" y="59" transform="matrix(5.275076e-11 -1 1 5.275076e-11 -16 134)" class="st3" width="2" height="32"/>
	<rect x="75" y="74" class="st3" width="2" height="26"/>
	<rect x="21" y="74" class="st7" width="16" height="2"/>
	<rect x="25" y="78" class="st7" width="6" height="2"/>
	<rect x="21" y="98" class="st4" width="56" height="2"/>
	<rect x="27" y="112" class="st8" width="46" height="2"/>
	<rect x="27" y="116" class="st8" width="46" height="2"/>
	<rect x="27" y="114" class="st8" width="46" height="2"/>
	<rect x="25" y="112" class="st4" width="6" height="2"/>
	<rect x="27" y="168" class="st4" width="44" height="2"/>
	<rect x="25" y="100" class="st4" width="2" height="74"/>
	<rect x="27" y="118" class="st3" width="2" height="50"/>
	<rect x="71" y="100" class="st8" width="2" height="12"/>
	<rect x="73" y="100" class="st4" width="2" height="70"/>
	<rect x="75" y="100" class="st3" width="2" height="70"/>
	<rect x="71" y="116" class="st4" width="2" height="54"/>
	<rect x="25" y="100" class="st8" width="50" height="2"/>
	<rect x="29" y="102" class="st4" width="42" height="2"/>
	<rect x="55" y="94" class="st4" width="14" height="2"/>
	<rect x="76" y="80" class="st4" width="1" height="18"/>
	<rect x="71" y="94" class="st4" width="2" height="2"/>
	<rect x="75" y="90" class="st4" width="2" height="2"/>
	<rect x="75" y="94" class="st4" width="2" height="2"/>
	<rect x="39" y="74" class="st7" width="2" height="2"/>
	<rect x="69" y="102" class="st8" width="2" height="2"/>
	<rect x="65" y="102" class="st8" width="2" height="2"/>
	<rect x="61" y="102" class="st8" width="2" height="2"/>
	<rect x="67" y="104" class="st8" width="2" height="2"/>
	<rect x="69" y="106" class="st8" width="2" height="2"/>
	<rect x="65" y="108" class="st4" width="2" height="2"/>
	<rect x="69" y="110" class="st4" width="2" height="2"/>
	<rect x="31" y="108" class="st4" width="6" height="2"/>
	<rect x="39" y="108" class="st4" width="2" height="2"/>
	<rect x="63" y="104" class="st8" width="2" height="2"/>
	<rect x="71" y="104" class="st8" width="2" height="2"/>
</g>
<g>
	<rect x="29" y="228" class="st4" width="46" height="2"/>
	<rect x="29" y="230" class="st3" width="48" height="2"/>
	<rect x="63" y="230" class="st4" width="12" height="2"/>
	<rect x="49" y="230" class="st4" width="12" height="2"/>
	<rect x="41" y="230" class="st4" width="6" height="2"/>
	<rect x="35" y="232" class="st3" width="40" height="2"/>
	<rect x="61" y="236" class="st3" width="14" height="2"/>
	<rect x="25" y="180" class="st3" width="48" height="46"/>
	<rect x="21" y="170" class="st2" width="56" height="26"/>
	<rect x="21" y="170" class="st3" width="2" height="26"/>
	<rect x="54" y="151" transform="matrix(6.366469e-11 -1 1 6.366469e-11 -116 226)" class="st3" width="2" height="40"/>
	<rect x="75" y="170" class="st3" width="2" height="26"/>
	<rect x="21" y="170" class="st7" width="12" height="2"/>
	<rect x="21" y="194" class="st4" width="56" height="2"/>
	<rect x="27" y="226" class="st8" width="46" height="2"/>
	<rect x="25" y="226" class="st4" width="6" height="2"/>
	<rect x="25" y="196" class="st4" width="2" height="30"/>
	<rect x="71" y="196" class="st4" width="2" height="30"/>
	<rect x="25" y="196" class="st8" width="48" height="2"/>
	<polygon class="st4" points="71,198 71,200 69,200 69,202 67,202 67,200 65,200 65,202 63,202 63,200 31,200 31,198 	"/>
	<rect x="35" y="214" class="st2" width="28" height="2"/>
	<rect x="35" y="216" class="st4" width="28" height="1"/>
	<rect x="37" y="202" class="st9" width="24" height="12"/>
	<polygon class="st6" points="41,202 41,204 39,204 39,206 37,206 37,202 	"/>
	<polygon class="st6" points="61,206 61,210 59,210 59,212 57,212 57,214 53,214 53,212 55,212 55,210 57,210 57,208 59,208 59,206 
			"/>
	<polygon class="st1" points="61,210 61,214 57,214 57,212 59,212 59,210 	"/>
	<rect x="55" y="190" class="st4" width="14" height="2"/>
	<rect x="75" y="186" class="st4" width="2" height="2"/>
	<rect x="75" y="190" class="st4" width="2" height="4"/>
	<rect x="71" y="190" class="st4" width="2" height="2"/>
	<rect x="69" y="186" class="st4" width="4" height="2"/>
	<rect x="75" y="182" class="st4" width="2" height="2"/>
	<rect x="69" y="198" class="st8" width="2" height="2"/>
	<rect x="65" y="198" class="st8" width="2" height="2"/>
	<rect x="69" y="202" class="st4" width="2" height="2"/>
	<rect x="65" y="204" class="st4" width="2" height="2"/>
	<rect x="69" y="206" class="st4" width="2" height="2"/>
	<rect x="71" y="200" class="st8" width="2" height="2"/>
</g>
<g>
	<polygon class="st3" points="77,316 77,318 75,318 75,322 73,322 73,320 71,320 71,322 73,322 73,324 75,324 75,326 73,326 73,328 
		71,328 71,332 73,332 73,334 69,334 69,336 67,336 67,334 47,334 47,320 33,320 33,318 31,318 31,316 	"/>
	<polygon class="st4" points="75,312 75,316 67,316 67,318 65,318 65,320 63,320 63,316 29,316 29,312 	"/>
	<rect x="25" y="272" class="st3" width="48" height="38"/>
	<rect x="25" y="268" class="st2" width="48" height="20"/>
	<rect x="23" y="268" class="st3" width="2" height="20"/>
	<rect x="54" y="249" transform="matrix(6.366469e-11 -1 1 6.366469e-11 -214 324)" class="st3" width="2" height="40"/>
	<rect x="73" y="268" class="st3" width="2" height="20"/>
	<rect x="23" y="268" class="st7" width="12" height="2"/>
	<rect x="23" y="286" class="st4" width="52" height="2"/>
	<rect x="27" y="310" class="st8" width="46" height="2"/>
	<rect x="25" y="310" class="st4" width="6" height="2"/>
	<rect x="25" y="288" class="st4" width="2" height="22"/>
	<rect x="71" y="288" class="st4" width="2" height="22"/>
	<rect x="25" y="288" class="st8" width="48" height="2"/>
	<rect x="31" y="290" class="st4" width="40" height="2"/>
	<rect x="53" y="282" class="st4" width="14" height="2"/>
	<rect x="73" y="278" class="st4" width="2" height="2"/>
	<rect x="73" y="282" class="st4" width="2" height="4"/>
	<rect x="69" y="282" class="st4" width="2" height="2"/>
	<rect x="67" y="278" class="st4" width="4" height="2"/>
	<rect x="73" y="274" class="st4" width="2" height="2"/>
	<rect x="69" y="290" class="st8" width="2" height="2"/>
	<rect x="65" y="290" class="st8" width="2" height="2"/>
	<rect x="67" y="292" class="st4" width="2" height="2"/>
	<rect x="69" y="294" class="st4" width="2" height="2"/>
	<rect x="65" y="296" class="st4" width="2" height="2"/>
	<rect x="69" y="298" class="st4" width="2" height="2"/>
	<rect x="63" y="292" class="st4" width="2" height="2"/>
	<rect x="71" y="292" class="st8" width="2" height="2"/>
</g>
<rect x="61" y="122" transform="matrix(-1 -4.502011e-11 4.502011e-11 -1 130 246)" class="st4" width="8" height="2"/>
<rect x="63" y="126" transform="matrix(-1 -4.486867e-11 4.486867e-11 -1 132 254)" class="st3" width="6" height="2"/>
<rect x="65" y="130" transform="matrix(-1 -4.456536e-11 4.456536e-11 -1 134 262)" class="st3" width="4" height="2"/>
<rect x="55" y="126" transform="matrix(-1 -4.486867e-11 4.486867e-11 -1 116 254)" class="st3" width="6" height="2"/>
<rect x="59" y="162" class="st3" width="10" height="2"/>
<rect x="65" y="158" class="st3" width="4" height="2"/>
<rect x="67" y="154" class="st3" width="2" height="2"/>
<rect x="31" y="166" class="st3" width="40" height="2"/>
<rect x="55" y="122" transform="matrix(-1 -4.547486e-11 4.547486e-11 -1 114 246)" class="st4" width="4" height="2"/>
<polygon class="st4" points="71,116 71,120 43,120 43,118 41,118 41,120 37,120 37,118 35,118 35,120 33,120 33,118 31,118 31,120 
	29,120 29,118 27,118 27,116 "/>
<rect x="51" y="122" transform="matrix(-1 -4.547486e-11 4.547486e-11 -1 104 246)" class="st3" width="2" height="2"/>
<rect x="31" y="122" transform="matrix(-1 -1.136881e-11 1.136881e-11 -1 70 246)" class="st3" width="8" height="2"/>
<rect x="24" y="112" class="st7" width="1" height="58"/>
<rect x="24" y="164" class="st3" width="1" height="6"/>
<rect x="73" y="112" class="st7" width="1" height="58"/>
<rect x="73" y="112" class="st7" width="1" height="58"/>
<rect x="73" y="164" class="st3" width="1" height="6"/>
<rect x="73" y="168" class="st8" width="1" height="2"/>
<rect x="25" y="118" class="st8" width="2" height="2"/>
<rect x="25" y="112" class="st8" width="2" height="2"/>
<rect x="25" y="124" class="st8" width="2" height="2"/>
<rect x="25" y="130" class="st8" width="2" height="2"/>
<rect x="25" y="136" class="st8" width="2" height="2"/>
<rect x="25" y="142" class="st8" width="2" height="2"/>
<rect x="25" y="148" class="st8" width="2" height="2"/>
<rect x="25" y="154" class="st8" width="2" height="2"/>
<rect x="25" y="160" class="st8" width="2" height="2"/>
<rect x="25" y="166" class="st8" width="2" height="2"/>
<rect x="71" y="118" class="st8" width="2" height="2"/>
<rect x="71" y="112" class="st8" width="2" height="2"/>
<rect x="71" y="124" class="st8" width="2" height="2"/>
<rect x="71" y="130" class="st8" width="2" height="2"/>
<rect x="71" y="136" class="st8" width="2" height="2"/>
<rect x="71" y="142" class="st8" width="2" height="2"/>
<rect x="71" y="148" class="st8" width="2" height="2"/>
<rect x="71" y="154" class="st8" width="2" height="2"/>
<rect x="71" y="160" class="st8" width="2" height="2"/>
<rect x="71" y="166" class="st8" width="2" height="2"/>
<rect x="25" y="169" class="st8" width="48" height="1"/>
<rect x="75" y="169" class="st4" width="2" height="1"/>
<rect x="75" y="100" class="st8" width="2" height="1"/>
<rect x="75" y="196" class="st8" width="2" height="1"/>
<rect x="61" y="202" class="st4" width="1" height="12"/>
<g>
	<g>
		<polygon class="st8" points="63,301.9 63,322 35,322 35,301.9 37,301.9 37,299.2 39,299.2 39,297.9 41,297.9 41,296.6 43,296.6 
			43,295.3 47,295.3 47,294 51,294 51,295.3 55,295.3 55,296.6 57,296.6 57,297.9 59,297.9 59,299.2 61,299.2 61,301.9 		"/>
	</g>
	<g>
		<polygon class="st4" points="63,303.9 63,324 35,324 35,303.9 37,303.9 37,301.2 39,301.2 39,299.9 41,299.9 41,298.6 43,298.6 
			43,297.3 47,297.3 47,296 51,296 51,297.3 55,297.3 55,298.6 57,298.6 57,299.9 59,299.9 59,301.2 61,301.2 61,303.9 		"/>
	</g>
	<g>
		<polygon class="st2" points="63,305.9 63,324 35,324 35,305.9 37,305.9 37,303.2 39,303.2 39,301.9 41,301.9 41,300.6 43,300.6 
			43,299.3 47,299.3 47,298 51,298 51,299.3 55,299.3 55,300.6 57,300.6 57,301.9 59,301.9 59,303.2 61,303.2 61,305.9 		"/>
	</g>
	<rect x="45" y="299" class="st3" width="2" height="17"/>
	<polygon class="st4" points="61,301.2 61,322 51,322 51,299 55,299 55,300 59,300 59,301.2 	"/>
	<g>
		<polygon class="st8" points="35,326.1 35,321.9 37,321.9 37,319.2 39,319.2 39,318 41,318 41,317 43,317 43,315 47,315 47,314 
			51,314 51,315 55,315 55,317 57,317 57,318 59,318 59,319.2 61,319.2 61,321.9 63,321.9 63,326.1 61,326.1 61,328.8 59,328.8 
			59,330.1 57,330.1 57,331.4 55,331.4 55,332.7 51,332.7 51,334 47,334 47,332.7 43,332.7 43,331.4 41,331.4 41,330.1 39,330.1 
			39,328.8 37,328.8 37,326.1 		"/>
	</g>
</g>
<rect x="61" y="304" class="st8" width="2" height="20"/>
<rect x="35" y="304" class="st4" width="2" height="18"/>
<path class="st4" d="M57,301.9"/>
<rect x="73" y="196" class="st3" width="2" height="32"/>
<g>
	<g>
		<rect x="25" y="62" class="st3" width="2" height="22"/>
		<rect x="27" y="62" class="st4" width="2" height="22"/>
		<rect x="27" y="74" class="st5" width="2" height="2"/>
		<rect x="25" y="74" class="st4" width="2" height="2"/>
		<rect x="29" y="84" class="st4" width="2" height="2"/>
		<rect x="27" y="86" class="st4" width="2" height="2"/>
		<rect x="27" y="84" class="st5" width="2" height="2"/>
		<rect x="25" y="84" class="st4" width="2" height="2"/>
		<rect x="29" y="86" class="st3" width="2" height="2"/>
		<rect x="31" y="88" class="st3" width="2" height="2"/>
	</g>
	<g>
		<rect x="19" y="64" class="st3" width="16" height="10"/>
		<polygon class="st4" points="35,70 35,74 19,74 19,73 33,73 33,70 		"/>
		<rect x="33" y="66" class="st4" width="2" height="2"/>
		<g>
			<rect x="26" y="68" class="st10" width="2" height="2"/>
			<g>
				<rect x="24" y="68" class="st4" width="2" height="2"/>
				<rect x="26" y="66" class="st4" width="2" height="2"/>
				<rect x="26" y="70" class="st4" width="2" height="2"/>
				<rect x="25" y="70" class="st4" width="1" height="1"/>
				<rect x="28" y="70" class="st4" width="1" height="1"/>
				<rect x="25" y="67" class="st4" width="1" height="1"/>
				<rect x="28" y="67" class="st4" width="1" height="1"/>
				<rect x="28" y="68" class="st4" width="2" height="2"/>
			</g>
		</g>
		<polygon class="st6" points="23,64 23,66 21,66 21,68 19,68 19,64 		"/>
	</g>
</g>
<g>
	<g>
		<rect x="75" y="66" transform="matrix(-1 -4.502011e-11 4.502011e-11 -1 152 134)" class="st11" width="2" height="2"/>
		<rect x="77" y="66" transform="matrix(-1 -4.456536e-11 4.456536e-11 -1 156 134)" class="st10" width="2" height="2"/>
		<rect x="79" y="66" transform="matrix(-1 -4.456536e-11 4.456536e-11 -1 160 134)" class="st11" width="2" height="2"/>
		<rect x="81" y="66" transform="matrix(-1 -4.592960e-11 4.592960e-11 -1 164 134)" class="st10" width="2" height="2"/>
		<rect x="79" y="64" transform="matrix(-1 -4.456536e-11 4.456536e-11 -1 160 130)" class="st6" width="2" height="2"/>
		<rect x="77" y="64" transform="matrix(-1 -4.456536e-11 4.456536e-11 -1 156 130)" class="st12" width="2" height="2"/>
		<rect x="75" y="64" transform="matrix(-1 -4.502011e-11 4.502011e-11 -1 152 130)" class="st6" width="2" height="2"/>
		<rect x="75" y="62" transform="matrix(-1 -4.502011e-11 4.502011e-11 -1 152 126)" class="st6" width="2" height="2"/>
		<rect x="73" y="66" transform="matrix(-1 -4.502011e-11 4.502011e-11 -1 148 134)" class="st10" width="2" height="2"/>
		<rect x="73" y="64" transform="matrix(-1 -4.502011e-11 4.502011e-11 -1 148 130)" class="st12" width="2" height="2"/>
		<rect x="73" y="62" transform="matrix(-1 -4.502011e-11 4.502011e-11 -1 148 126)" class="st12" width="2" height="2"/>
		<rect x="77" y="62" transform="matrix(-1 -4.456536e-11 4.456536e-11 -1 156 126)" class="st12" width="2" height="2"/>
	</g>
	<rect x="71" y="62" transform="matrix(-1 -3.683466e-11 3.683466e-11 -1 144 144)" class="st4" width="2" height="20"/>
</g>
<rect x="51" y="20" class="st4" width="2" height="2"/>
<rect x="55" y="20" class="st4" width="2" height="2"/>
<rect x="57" y="22" class="st4" width="2" height="2"/>
<rect x="59" y="20" class="st4" width="2" height="2"/>
<rect x="59" y="24" class="st4" width="2" height="2"/>
<rect x="63" y="26" class="st4" width="2" height="2"/>
<rect x="65" y="28" class="st4" width="2" height="2"/>
<rect x="67" y="30" class="st4" width="2" height="2"/>
<rect x="67" y="32" class="st4" width="2" height="2"/>
<rect x="71" y="34" class="st4" width="2" height="2"/>
<rect x="73" y="36" class="st4" width="2" height="2"/>
<rect x="75" y="40" class="st4" width="2" height="2"/>
<rect x="77" y="38" class="st4" width="2" height="2"/>
<rect x="79" y="44" class="st4" width="2" height="2"/>
<rect x="81" y="48" class="st4" width="2" height="2"/>
<rect x="83" y="50" class="st4" width="2" height="2"/>
<rect x="69" y="32" class="st4" width="2" height="2"/>
<rect x="61" y="24" class="st4" width="2" height="2"/>
<rect x="53" y="18" class="st4" width="2" height="2"/>
<rect x="51" y="16" class="st4" width="2" height="2"/>
<rect x="51" y="12" class="st4" width="2" height="2"/>
<rect x="35" y="18" class="st4" width="2" height="2"/>
<rect x="31" y="24" class="st3" width="2" height="2"/>
<rect x="29" y="28" class="st3" width="2" height="2"/>
<rect x="27" y="30" class="st3" width="2" height="2"/>
<rect x="37" y="16" class="st4" width="2" height="2"/>
<rect x="39" y="14" class="st4" width="2" height="2"/>
<rect x="41" y="14" class="st4" width="2" height="2"/>
<rect x="47" y="8" class="st4" width="2" height="4"/>
<rect x="49" y="28" class="st3" width="2" height="2"/>
<rect x="51" y="30" class="st3" width="2" height="2"/>
<rect x="51" y="26" class="st3" width="2" height="2"/>
<rect x="47" y="32" class="st3" width="2" height="2"/>
<rect x="27" y="54" class="st3" width="2" height="2"/>
<rect x="31" y="60" class="st3" width="2" height="2"/>
<rect x="13" y="70" class="st5" width="2" height="2"/>
<rect x="15" y="66" class="st5" width="2" height="2"/>
<polygon class="st5" points="51,8 51,24 47,24 47,26 43,26 43,28 41,28 41,30 39,30 39,32 37,32 37,34 35,34 35,36 33,36 33,38 
	31,38 31,40 29,40 29,42 27,42 27,44 25,44 25,46 23,46 23,50 21,50 21,52 19,52 19,56 17,56 17,58 15,58 15,62 13,62 13,64 15,64 
	15,66 13,66 13,70 11,70 11,60 13,60 13,56 15,56 15,54 17,54 17,50 19,50 19,48 21,48 21,44 23,44 23,42 25,42 25,40 27,40 27,38 
	29,38 29,36 31,36 31,34 33,34 33,32 35,32 35,30 37,30 37,28 39,28 39,26 41,26 41,24 45,24 45,22 49,22 49,8 "/>
<rect x="15" y="62" class="st5" width="2" height="2"/>
<rect x="17" y="58" class="st5" width="2" height="2"/>
<rect x="21" y="54" class="st5" width="2" height="2"/>
<rect x="11" y="72" class="st5" width="2" height="2"/>
<rect x="17" y="76" class="st3" width="2" height="2"/>
<rect x="29" y="56" class="st3" width="2" height="2"/>
<rect x="29" y="52" class="st3" width="2" height="2"/>
<rect x="29" y="48" class="st3" width="2" height="2"/>
<rect x="51" y="22" class="st5" width="4" height="2"/>
<rect x="57" y="24" class="st5" width="2" height="2"/>
<rect x="59" y="26" class="st5" width="2" height="2"/>
<rect x="61" y="28" class="st5" width="2" height="2"/>
<rect x="63" y="30" class="st5" width="2" height="2"/>
<rect x="65" y="32" class="st5" width="2" height="2"/>
<rect x="67" y="34" class="st5" width="2" height="2"/>
<rect x="69" y="36" class="st5" width="2" height="2"/>
<rect x="69" y="38" class="st5" width="2" height="2"/>
<rect x="73" y="40" class="st5" width="2" height="2"/>
<rect x="75" y="42" class="st5" width="2" height="2"/>
<rect x="77" y="44" class="st5" width="2" height="4"/>
<rect x="79" y="48" class="st5" width="2" height="2"/>
<rect x="81" y="50" class="st5" width="2" height="4"/>
<rect x="83" y="54" class="st5" width="2" height="2"/>
<rect x="85" y="56" class="st5" width="2" height="2"/>
<rect x="87" y="60" class="st5" width="2" height="2"/>
<rect x="87" y="62" class="st5" width="2" height="2"/>
<rect x="17" y="212" class="st3" width="2" height="24"/>
<rect x="17" y="242" class="st3" width="2" height="14"/>
<rect x="17" y="168" class="st3" width="2" height="40"/>
<rect x="17" y="82" class="st3" width="2" height="82"/>
<rect x="35" y="318" class="st6" width="1" height="4"/>
<rect x="35" y="312" class="st6" width="1" height="4"/>
<rect x="47" y="298" class="st3" width="4" height="16"/>
<rect x="73" y="196" class="st8" width="2" height="1"/>
<rect x="73" y="197" class="st4" width="2" height="1"/>
<rect x="73" y="328" class="st3" width="2" height="2"/>
<rect x="71" y="336" class="st3" width="2" height="2"/>
<rect x="75" y="330" class="st3" width="2" height="2"/>
<rect x="75" y="322" class="st3" width="2" height="2"/>
<rect x="77" y="318" class="st3" width="2" height="2"/>
<rect x="65" y="320" class="st4" width="2" height="2"/>
<rect x="63" y="322" class="st4" width="2" height="2"/>
<rect x="63" y="328" class="st4" width="2" height="2"/>
<rect x="59" y="330" class="st4" width="2" height="2"/>
<rect x="55" y="332" class="st4" width="2" height="2"/>
<rect x="65" y="324" class="st4" width="2" height="2"/>
<rect x="69" y="316" class="st4" width="2" height="2"/>
</svg>
