<svg xmlns="http://www.w3.org/2000/svg" viewBox="0 0 284 118"><defs><style>.cls-1{fill:#96a5ab;}.cls-2{fill:#293746;}.cls-3{fill:#182028;}.cls-4{fill:#586c79;}.cls-5{fill:#2a3747;}.cls-6{fill:#9f1e31;}.cls-7{fill:#3259e2;}.cls-8{fill:#34a4fe;}.cls-9{fill:#fff;}.cls-10{fill:#69deff;}.cls-11{fill:#080d11;}</style></defs><g id="Layer_2" data-name="Layer 2"><g id="Submarine_sideview" data-name="Submarine sideview"><path class="cls-1" d="M284,88v1c0-.33,0-.67,0-1Z"/><path class="cls-2" d="M284,84v4h0c0-.75-.06-1.49-.12-2.23A12.31,12.31,0,0,0,284,84Z"/><path class="cls-2" d="M284,78v6a12.31,12.31,0,0,1-.13,1.77A40.14,40.14,0,0,0,282.48,78Z"/><path class="cls-2" d="M284,88h-.59a16.49,16.49,0,0,0,.47-2.23C283.93,86.51,284,87.25,284,88Z"/><path class="cls-2" d="M283.87,85.77A16.49,16.49,0,0,1,283.4,88H282V78h.48A40.14,40.14,0,0,1,283.87,85.77Z"/><path class="cls-1" d="M282,88h1.4a25.59,25.59,0,0,1-1.4,3.86Z"/><path class="cls-1" d="M282.48,78H282V76.43C282.17,77,282.33,77.47,282.48,78Z"/><path class="cls-2" d="M282,91.86V94h-1.06C281.33,93.28,281.68,92.56,282,91.86Z"/><path class="cls-2" d="M282,88v3.86c-.32.7-.67,1.42-1.06,2.14H280v1.65c-.46.78-1,1.56-1.51,2.35H278V92h2V86h2Z"/><polygon class="cls-1" points="282 80 282 86 280 86 280 92 278 92 278 96 276 96 276 100 274 100 230 100 230 102 228 102 228 104 200 104 200 102 190 102 190 98 190 80 190 70 188 70 188 68 210 68 210 66 212 66 212 64 214 64 214 62 218 62 218 60 222 60 222 58 220 58 220 56 222 56 222 54 220 54 220 52 216 52 216 50 252 50 252 52 258 52 258 54 262 54 262 56 266 56 266 58 268 58 268 60 270 60 270 62 272 62 272 64 274 64 274 66 276 66 276 70 278 70 278 74 280 74 280 80 282 80"/><path class="cls-2" d="M282,78v2h-2V72h.25A40.37,40.37,0,0,1,282,76.43Z"/><path class="cls-2" d="M282,72v4.43A40.37,40.37,0,0,0,280.25,72Z"/><path class="cls-1" d="M280,94h.94c-.29.55-.6,1.1-.94,1.65Z"/><path class="cls-1" d="M280.25,72H280v-.54C280.09,71.64,280.18,71.82,280.25,72Z"/><path class="cls-2" d="M280,95.65V98h-1.51C279,97.21,279.54,96.43,280,95.65Z"/><path class="cls-2" d="M280,72v2h-2V68h.14c.67,1.12,1.3,2.28,1.86,3.46Z"/><path class="cls-2" d="M280,68v3.46c-.56-1.18-1.19-2.34-1.86-3.46Z"/><path class="cls-1" d="M278,98h.49l-.49.69Z"/><path class="cls-1" d="M278.14,68H278v-.22Z"/><path class="cls-3" d="M278,98.69V102h-2v2h-2v2h-2v2h-2v2h-2v-1A51,51,0,0,0,278,98.69Z"/><path class="cls-3" d="M278,98v.69a51,51,0,0,1-10,10.36v-3h2v-2h2v-2h2v-2h2V96h2Z"/><path class="cls-2" d="M278,68v2h-2V64.82c.71,1,1.37,1.94,2,3Z"/><path class="cls-2" d="M278,64v3.78c-.63-1-1.29-2-2-3V64Z"/><path class="cls-2" d="M276,64.82V66h-2V64h1.37C275.59,64.27,275.79,64.54,276,64.82Z"/><path class="cls-2" d="M276,64v.82c-.21-.28-.41-.55-.63-.82Z"/><path class="cls-2" d="M276,62v2h-.63c-.53-.68-1.08-1.35-1.66-2H276Z"/><path class="cls-2" d="M275.37,64H272V62h1.71C274.29,62.65,274.84,63.32,275.37,64Z"/><polygon class="cls-4" points="274 100 274 102 272 102 272 104 270 104 268 104 268 106 268 108 266 108 262 108 260 108 188 108 188 106 190 106 190 102 200 102 200 104 228 104 228 102 230 102 230 100 274 100"/><path class="cls-2" d="M274,60v2h-.29c-.61-.69-1.24-1.36-1.91-2H274Z"/><path class="cls-2" d="M273.71,62H270V60h1.8C272.47,60.64,273.1,61.31,273.71,62Z"/><path class="cls-2" d="M272,58v2h-.2c-.7-.7-1.42-1.36-2.17-2H272Z"/><path class="cls-2" d="M271.8,60H268V58h1.63C270.38,58.64,271.1,59.3,271.8,60Z"/><rect class="cls-4" x="268" y="104" width="2" height="2"/><path class="cls-2" d="M270,56v2h-.37c-.82-.7-1.67-1.37-2.55-2H270Z"/><path class="cls-2" d="M269.63,58H266V56h1.08C268,56.63,268.81,57.3,269.63,58Z"/><path class="cls-3" d="M268,110v2h-4v-.14c.94-.59,1.85-1.21,2.74-1.86Z"/><path class="cls-3" d="M268,109.05v1h-1.26C267.17,109.69,267.59,109.37,268,109.05Z"/><path class="cls-3" d="M268,108v1c-.41.32-.83.64-1.26,1H266v-2Z"/><path class="cls-2" d="M268,54v2h-.92c-1-.71-2-1.38-3.05-2Z"/><path class="cls-2" d="M267.08,56H262V54h2C265.08,54.62,266.09,55.29,267.08,56Z"/><path class="cls-3" d="M266,110h.74c-.89.65-1.8,1.27-2.74,1.86V110Z"/><polygon class="cls-5" points="266 108 266 110 264 110 262 110 262 108 266 108"/><path class="cls-1" d="M264,54h0v0Z"/><path class="cls-3" d="M264,112v2h-3.81c1.23-.61,2.43-1.28,3.59-2Z"/><path class="cls-3" d="M264,111.86V112h-.22Z"/><path class="cls-3" d="M264,110v1.86l-.22.14H262v-2Z"/><path class="cls-2" d="M264,54v0h-6V52h2.19A38.17,38.17,0,0,1,264,54Z"/><path class="cls-2" d="M264,52v2a38.17,38.17,0,0,0-3.81-2Z"/><path class="cls-3" d="M262,112h1.78c-1.16.72-2.36,1.39-3.59,2H260v.09a38.54,38.54,0,0,1-4.54,1.91H254v.48A34.35,34.35,0,0,1,244,118H204v-2h48.5v-2H258v-2Z"/><polygon class="cls-5" points="262 110 262 112 258 112 254 112 252.5 112 252.5 110.5 188 110.5 188 108 260 108 260 110 262 110"/><rect class="cls-5" x="260" y="108" width="2" height="2"/><path class="cls-1" d="M260.19,52H260v-.08Z"/><path class="cls-1" d="M260.19,114l-.19.09V114Z"/><path class="cls-3" d="M260,114.09V116h-4.54A38.54,38.54,0,0,0,260,114.09Z"/><path class="cls-2" d="M260,51.92V52h-8V50h2.74A36.68,36.68,0,0,1,260,51.92Z"/><path class="cls-2" d="M260,50v1.92A36.68,36.68,0,0,0,254.74,50Z"/><rect class="cls-5" x="254" y="112" width="4" height="2"/><path class="cls-1" d="M254,116h1.46c-.48.17-1,.33-1.46.48Z"/><path class="cls-1" d="M254.74,50H254v-.21Z"/><path class="cls-3" d="M254,116.48V118H244A34.35,34.35,0,0,0,254,116.48Z"/><rect class="cls-5" x="252.5" y="112" width="1.5" height="2"/><path class="cls-2" d="M254,49.79V50H214V48.5h30A39.27,39.27,0,0,1,254,49.79Z"/><path class="cls-2" d="M254,48v1.79a39.27,39.27,0,0,0-10-1.29H214V48Z"/><rect class="cls-5" x="252" y="114" width="0.5" height="2"/><rect class="cls-5" x="252" y="112" width="0.5" height="2"/><polygon class="cls-5" points="252.5 110.5 252.5 112 252 112 188 112 188 110.5 252.5 110.5"/><polygon class="cls-5" points="252 114 252 116 204 116 80 116 32 116 32 114 94 114 96 114 186 114 188 114 252 114"/><rect class="cls-5" x="188" y="112" width="64" height="2"/><polygon class="cls-4" points="222 58 222 60 218 60 204 60 204 58 206 58 220 58 222 58"/><polygon class="cls-4" points="222 54 222 56 220 56 208 56 208 54 220 54 222 54"/><polygon class="cls-4" points="220 56 220 58 206 58 206 56 208 56 220 56"/><polygon class="cls-4" points="220 52 220 54 208 54 208 52 210 52 216 52 220 52"/><polygon class="cls-4" points="218 60 218 62 214 62 202 62 202 60 204 60 218 60"/><polygon class="cls-4" points="216 50 216 52 210 52 210 50 214 50 216 50"/><polygon class="cls-4" points="214 62 214 64 212 64 202 64 202 62 214 62"/><rect class="cls-3" x="210" y="48.5" width="4" height="1.5"/><rect class="cls-3" x="210" y="48" width="4" height="0.5"/><polygon class="cls-4" points="212 64 212 66 210 66 188 66 188 64 196 64 198 64 200 64 202 64 212 64"/><rect class="cls-4" x="188" y="66" width="22" height="2"/><rect class="cls-3" x="208" y="50" width="2" height="2"/><rect class="cls-3" x="208" y="48.5" width="2" height="1.5"/><rect class="cls-3" x="208" y="48" width="2" height="0.5"/><rect class="cls-3" x="208" y="40" width="2" height="8"/><rect class="cls-3" x="208" y="39" width="2" height="1"/><rect class="cls-1" x="208" y="38" width="2" height="1"/><rect class="cls-3" x="206" y="54" width="2" height="2"/><rect class="cls-3" x="206" y="52" width="2" height="2"/><rect class="cls-3" x="206" y="50" width="2" height="2"/><rect class="cls-3" x="206" y="48.5" width="2" height="1.5"/><rect class="cls-3" x="206" y="48" width="2" height="0.5"/><rect class="cls-3" x="206" y="40" width="2" height="8"/><rect class="cls-3" x="206" y="39" width="2" height="1"/><rect class="cls-1" x="206" y="38" width="2" height="1"/><rect class="cls-3" x="204" y="54" width="2" height="2"/><polygon class="cls-5" points="206 52 206 54 204 54 196 54 196 52 206 52"/><rect class="cls-3" x="204" y="56" width="2" height="2"/><rect class="cls-5" x="196" y="50" width="10" height="2"/><rect class="cls-5" x="196" y="48.5" width="10" height="1.5"/><rect class="cls-5" x="196" y="48" width="10" height="0.5"/><rect class="cls-5" x="196" y="40" width="10" height="8"/><polygon class="cls-3" points="206 39 206 40 196 40 196 38 198 38 200 38 204 38 206 38 206 39"/><rect class="cls-3" x="80" y="116" width="124" height="2"/><rect class="cls-3" x="202" y="58" width="2" height="2"/><rect class="cls-3" x="202" y="56" width="2" height="2"/><polygon class="cls-5" points="204 54 204 56 202 56 196 56 196 54 204 54"/><polygon class="cls-5" points="204 22 204 38 200 38 200 36 198 36 198 34 198 32 198 30 198 28 198 26 198 22 204 22"/><polygon class="cls-5" points="204 20 204 22 198 22 182 22 182 21 190 21 190 20 204 20"/><rect class="cls-3" x="200" y="62" width="2" height="2"/><rect class="cls-3" x="200" y="60" width="2" height="2"/><polygon class="cls-5" points="202 58 202 60 200 60 196 60 196 58 202 58"/><rect class="cls-5" x="196" y="56" width="6" height="2"/><rect class="cls-3" x="198" y="62" width="2" height="2"/><polygon class="cls-5" points="200 60 200 62 198 62 196 62 196 60 200 60"/><rect class="cls-5" x="198" y="36" width="2" height="2"/><rect class="cls-3" x="196" y="62" width="2" height="2"/><polygon class="cls-5" points="198 36 198 38 196 38 182 38 182 36 192 36 194 36 196 36 198 36"/><rect class="cls-5" x="196" y="34" width="2" height="2"/><rect class="cls-4" x="196" y="32" width="2" height="2"/><rect class="cls-5" x="196" y="30" width="2" height="2"/><path class="cls-4" d="M198,28v2h-2v2h-2v2h-2v2H182V22h16v4h-2v2Zm-4,2V28h-2v2Z"/><rect class="cls-5" x="196" y="26" width="2" height="2"/><polygon class="cls-3" points="196 62 196 64 188 64 188 62 190 62 192 62 196 62"/><polygon class="cls-5" points="196 60 196 62 192 62 192 60 194 60 196 60"/><rect class="cls-5" x="194" y="58" width="2" height="2"/><rect class="cls-4" x="194" y="56" width="2" height="2"/><rect class="cls-5" x="194" y="54" width="2" height="2"/><polygon class="cls-4" points="196 52 196 54 194 54 192 54 192 52 194 52 196 52"/><rect class="cls-5" x="194" y="50" width="2" height="2"/><polygon class="cls-4" points="196 48.5 196 50 194 50 188 50 184 50 184 48.5 196 48.5"/><rect class="cls-4" x="184" y="48" width="12" height="0.5"/><polygon class="cls-4" points="196 40 196 48 184 48 182 48 180 48 180 44 180 40 196 40"/><polygon class="cls-3" points="196 38 196 40 180 40 180 38 182 38 196 38"/><rect class="cls-4" x="194" y="34" width="2" height="2"/><rect class="cls-5" x="194" y="32" width="2" height="2"/><rect class="cls-4" x="192" y="58" width="2" height="2"/><rect class="cls-5" x="192" y="56" width="2" height="2"/><rect class="cls-4" x="192" y="54" width="2" height="2"/><polygon class="cls-4" points="194 50 194 52 192 52 188 52 188 50 194 50"/><rect class="cls-5" x="192" y="34" width="2" height="2"/><rect class="cls-5" x="192" y="28" width="2" height="2"/><rect class="cls-4" x="190" y="60" width="2" height="2"/><rect class="cls-5" x="190" y="58" width="2" height="2"/><polygon class="cls-4" points="192 56 192 58 190 58 190 60 188 60 188 58 186 58 186 56 184 56 184 50 188 50 188 52 192 52 192 54 190 54 190 56 192 56"/><rect class="cls-5" x="190" y="54" width="2" height="2"/><rect class="cls-5" x="188" y="102" width="2" height="4"/><rect class="cls-5" x="188" y="98" width="2" height="4"/><rect class="cls-4" x="188" y="80" width="2" height="18"/><polygon class="cls-5" points="190 70 190 80 188 80 188 74 188 70 190 70"/><rect class="cls-5" x="188" y="60" width="2" height="2"/><polygon class="cls-1" points="190 20 190 21 182 21 182 20 186 20 187 20 188 20 190 20"/><rect class="cls-5" x="186" y="112" width="2" height="2"/><rect class="cls-5" x="186" y="110.5" width="2" height="1.5"/><rect class="cls-5" x="186" y="108" width="2" height="2.5"/><polygon class="cls-5" points="188 106 188 108 186 108 186 102 188 102 188 106"/><path class="cls-1" d="M188,98v4H144v2h-4v-4H118v4h-2v-2H98V70H96V62H94V56H92V50h66v2h2v4h2v2h2v2h2v2h2v2h2v2h4v2h12v6h2V98ZM158,56V54h-2v2Z"/><polygon class="cls-5" points="188 70 188 74 186 74 186 68 188 68 188 70"/><rect class="cls-3" x="186" y="66" width="2" height="2"/><rect class="cls-3" x="186" y="64" width="2" height="2"/><rect class="cls-3" x="186" y="62" width="2" height="2"/><rect class="cls-4" x="186" y="60" width="2" height="2"/><rect class="cls-5" x="186" y="58" width="2" height="2"/><rect class="cls-3" x="187" y="18" width="1" height="2"/><rect class="cls-5" x="187" y="2" width="1" height="16"/><polygon class="cls-6" points="188 0 188 2 187 2 186 2 186 0 188 0"/><rect class="cls-3" x="186" y="18" width="1" height="2"/><rect class="cls-4" x="186" y="2" width="1" height="16"/><rect class="cls-5" x="96" y="112" width="90" height="2"/><rect class="cls-5" x="96" y="110.5" width="90" height="1.5"/><rect class="cls-5" x="96" y="108" width="90" height="2.5"/><polygon class="cls-4" points="186 102 186 108 96 108 96 106 98 106 98 104 116 104 118 104 118 100 140 100 140 104 144 104 144 102 186 102"/><polygon class="cls-4" points="186 66 186 68 174 68 174 66 182 66 184 66 186 66"/><rect class="cls-3" x="184" y="64" width="2" height="2"/><rect class="cls-3" x="184" y="62" width="2" height="2"/><rect class="cls-5" x="184" y="60" width="2" height="2"/><rect class="cls-5" x="184" y="58" width="2" height="2"/><rect class="cls-4" x="184" y="56" width="2" height="2"/><rect class="cls-5" x="182" y="64" width="2" height="2"/><polygon class="cls-3" points="184 62 184 64 182 64 180 64 180 62 182 62 184 62"/><rect class="cls-5" x="182" y="60" width="2" height="2"/><rect class="cls-4" x="182" y="58" width="2" height="2"/><polygon class="cls-4" points="184 56 184 58 182 58 182 50 184 50 184 56"/><rect class="cls-4" x="182" y="48.5" width="2" height="1.5"/><rect class="cls-4" x="182" y="48" width="2" height="0.5"/><polygon class="cls-4" points="182 64 182 66 174 66 170 66 170 64 172 64 180 64 182 64"/><rect class="cls-5" x="180" y="60" width="2" height="2"/><polygon class="cls-4" points="182 58 182 60 180 60 180 58 180 56 180 54 180 52 180 50 182 50 182 58"/><rect class="cls-4" x="180" y="48.5" width="2" height="1.5"/><rect class="cls-4" x="180" y="48" width="2" height="0.5"/><polygon class="cls-4" points="182 36 182 38 180 38 178 38 176 38 164 38 164 36 174 36 176 36 178 36 180 36 182 36"/><rect class="cls-1" x="180" y="34" width="2" height="2"/><rect class="cls-4" x="180" y="32" width="2" height="2"/><path class="cls-1" d="M182,22V32h-2v2h-2v2h-2V34h-2v2H164V22Zm-4,10V30h-2v2Z"/><polygon class="cls-4" points="182 21 182 22 164 22 164 21 168 21 182 21"/><polygon class="cls-1" points="182 20 182 21 168 21 168 20 178 20 179 20 180 20 182 20"/><polygon class="cls-5" points="180 62 180 64 172 64 172 62 174 62 176 62 178 62 180 62"/><rect class="cls-5" x="178" y="60" width="2" height="2"/><rect class="cls-4" x="178" y="58" width="2" height="2"/><rect class="cls-1" x="178" y="56" width="2" height="2"/><rect class="cls-4" x="178" y="54" width="2" height="2"/><rect class="cls-1" x="178" y="52" width="2" height="2"/><rect class="cls-4" x="178" y="50" width="2" height="2"/><rect class="cls-1" x="178" y="48.5" width="2" height="1.5"/><rect class="cls-1" x="178" y="48" width="2" height="0.5"/><rect class="cls-1" x="178" y="44" width="2" height="4"/><rect class="cls-1" x="178" y="40" width="2" height="4"/><rect class="cls-5" x="178" y="38" width="2" height="2"/><rect class="cls-4" x="178" y="34" width="2" height="2"/><rect class="cls-3" x="179" y="19" width="1" height="1"/><rect class="cls-3" x="179" y="11" width="1" height="8"/><rect class="cls-3" x="179" y="10" width="1" height="1"/><rect class="cls-3" x="179" y="9" width="1" height="1"/><rect class="cls-3" x="179" y="7" width="1" height="2"/><rect class="cls-4" x="179" y="6" width="1" height="1"/><rect class="cls-3" x="178" y="19" width="1" height="1"/><rect class="cls-4" x="178" y="11" width="1" height="8"/><rect class="cls-3" x="178" y="10" width="1" height="1"/><rect class="cls-5" x="178" y="9" width="1" height="1"/><polygon class="cls-5" points="179 7 179 9 178 9 178 6 179 6 179 7"/><polygon class="cls-4" points="179 4 179 6 178 6 177 6 177 5 177 4 179 4"/><rect class="cls-4" x="176" y="60" width="2" height="2"/><rect class="cls-1" x="176" y="58" width="2" height="2"/><rect class="cls-4" x="176" y="56" width="2" height="2"/><polygon class="cls-1" points="178 54 178 56 176 56 176 54 174 54 174 56 176 56 176 58 174 58 174 60 172 60 172 62 170 62 170 60 168 60 166 60 166 58 164 58 164 56 162 56 162 52 162 50 176 50 176 52 178 52 178 54"/><rect class="cls-1" x="176" y="50" width="2" height="2"/><rect class="cls-1" x="176" y="48.5" width="2" height="1.5"/><rect class="cls-1" x="176" y="48" width="2" height="0.5"/><polygon class="cls-1" points="178 44 178 48 176 48 176 40 178 40 178 44"/><polygon class="cls-5" points="178 38 178 40 176 40 176 39 176 38 178 38"/><rect class="cls-4" x="176" y="30" width="2" height="2"/><rect class="cls-5" x="177" y="9" width="1" height="1"/><polygon class="cls-5" points="178 6 178 9 177 9 177 7 177 6 178 6"/><polygon class="cls-5" points="177 9 177 10 174 10 174 9 175 9 176 9 177 9"/><rect class="cls-7" x="176" y="7" width="1" height="2"/><polygon class="cls-8" points="177 6 177 7 176 7 176 5 177 5 177 6"/><polygon class="cls-9" points="177 4 177 5 176 5 175 5 174 5 174 4 177 4"/><rect class="cls-1" x="174" y="60" width="2" height="2"/><rect class="cls-4" x="174" y="58" width="2" height="2"/><rect class="cls-4" x="174" y="54" width="2" height="2"/><polygon class="cls-1" points="176 48.5 176 50 162 50 160 50 160 48.5 176 48.5"/><rect class="cls-1" x="160" y="48" width="16" height="0.5"/><rect class="cls-1" x="160" y="40" width="16" height="8"/><polygon class="cls-5" points="176 39 176 40 160 40 160 39 162 39 176 39"/><polygon class="cls-1" points="176 38 176 39 162 39 162 38 164 38 176 38"/><rect class="cls-4" x="174" y="34" width="2" height="2"/><rect class="cls-9" x="175" y="7" width="1" height="2"/><rect class="cls-10" x="175" y="5" width="1" height="2"/><polygon class="cls-4" points="175 7 175 9 174 9 174 5 175 5 175 7"/><rect class="cls-4" x="172" y="60" width="2" height="2"/><rect class="cls-5" x="170" y="62" width="2" height="2"/><rect class="cls-5" x="168" y="62" width="2" height="2"/><rect class="cls-1" x="168" y="60" width="2" height="2"/><rect class="cls-3" x="166" y="60" width="2" height="2"/><rect class="cls-9" x="164" y="20" width="4" height="1"/><rect class="cls-3" x="164" y="58" width="2" height="2"/><rect class="cls-3" x="162" y="56" width="2" height="2"/><rect class="cls-3" x="160" y="52" width="2" height="4"/><rect class="cls-1" x="160" y="50" width="2" height="2"/><rect class="cls-9" x="160" y="38" width="2" height="1"/><rect class="cls-3" x="158" y="50" width="2" height="2"/><rect class="cls-3" x="158" y="48.5" width="2" height="1.5"/><rect class="cls-3" x="158" y="48" width="2" height="0.5"/><rect class="cls-3" x="158" y="40" width="2" height="8"/><rect class="cls-5" x="158" y="39" width="2" height="1"/><rect class="cls-9" x="158" y="38" width="2" height="1"/><rect class="cls-5" x="156" y="54" width="2" height="2"/><rect class="cls-2" x="92" y="48.5" width="66" height="1.5"/><rect class="cls-2" x="92" y="48" width="66" height="0.5"/><rect class="cls-4" x="98" y="102" width="18" height="2"/><rect class="cls-5" x="96" y="104" width="2" height="2"/><rect class="cls-5" x="96" y="102" width="2" height="2"/><rect class="cls-5" x="96" y="98" width="2" height="4"/><rect class="cls-4" x="96" y="78" width="2" height="20"/><polygon class="cls-5" points="98 70 98 78 96 78 96 74 96 70 98 70"/><rect class="cls-5" x="94" y="112" width="2" height="2"/><rect class="cls-5" x="94" y="110.5" width="2" height="1.5"/><rect class="cls-5" x="94" y="108" width="2" height="2.5"/><polygon class="cls-5" points="96 106 96 108 94 108 94 104 96 104 96 106"/><rect class="cls-5" x="94" y="102" width="2" height="2"/><path class="cls-1" d="M96,98v4H60v2H56v-2h2v-2H56V98H28v2h8v2H26v-2H24V98h2V96H50V94H26v2H24V94H22V92H18V90H16v2H14V90H12v2H8V90H6V88H8V86H6v2H4V86H2V80H4V74H6V70H8V66h2V64h2V62h2V60h2V58h2V56h4V54h4V52h6V50H90v8h2v8h2v8h2V98ZM76,68V64H44v2h2v2H76ZM62,100V98H60v2Z"/><polygon class="cls-5" points="96 70 96 74 94 74 94 66 94 62 96 62 96 70"/><rect class="cls-5" x="32" y="112" width="62" height="2"/><polygon class="cls-5" points="94 110.5 94 112 32 112 32 110.5 58 110.5 94 110.5"/><polygon class="cls-5" points="94 108 94 110.5 58 110.5 58 110 60 110 60 108 94 108"/><path class="cls-4" d="M94,104v4H26v2H20.5l-.5-.4V106h2v-2H20v2H18v-2H16v-4H14V98H12V96H10V92h2V90h2v2h2V90h2v2h2v2h2v2H20v2h2v2h2v2h2v2h2v-2h2v2h2v-2h2v2h2v-2h2v2h2v-2h6v2h2v-2h8v2H94Z"/><rect class="cls-4" x="60" y="102" width="34" height="2"/><polygon class="cls-4" points="94 62 94 66 92 66 92 58 90 58 90 50 92 50 92 56 94 56 94 62"/><rect class="cls-2" x="90" y="48.5" width="2" height="1.5"/><rect class="cls-2" x="90" y="48" width="2" height="0.5"/><path class="cls-2" d="M90,48.5V50H30v0A35.36,35.36,0,0,1,40,48.5Z"/><path class="cls-2" d="M90,48v.5H40A35.36,35.36,0,0,0,30,50V48Z"/><path class="cls-3" d="M80,116v2H40a27.55,27.55,0,0,1-13.66-4H32v2Z"/><polygon class="cls-11" points="76 66 76 68 74 68 74 67 74 66 76 66"/><rect class="cls-4" x="74" y="65" width="2" height="1"/><rect class="cls-9" x="74" y="64" width="2" height="1"/><rect class="cls-5" x="46" y="67" width="28" height="1"/><rect class="cls-11" x="46" y="66" width="28" height="1"/><polygon class="cls-4" points="74 65 74 66 46 66 46 64 56 64 56 65 58 65 58 64 60 64 60 65 66 65 66 64 68 64 68 65 74 65"/><rect class="cls-9" x="68" y="64" width="6" height="1"/><rect class="cls-9" x="60" y="64" width="6" height="1"/><rect class="cls-4" x="60" y="98" width="2" height="2"/><rect class="cls-5" x="58" y="108" width="2" height="2"/><polygon class="cls-5" points="58 110 58 110.5 32 110.5 32 112 26 112 26 110 26 108 58 108 58 110"/><rect class="cls-4" x="56" y="100" width="2" height="2"/><rect class="cls-9" x="56" y="64" width="2" height="1"/><polygon class="cls-1" points="56 100 56 102 48 102 46 102 44 102 44 100 56 100"/><polygon class="cls-4" points="56 98 56 100 44 100 42 100 38 100 36 100 28 100 28 98 56 98"/><rect class="cls-4" x="26" y="94" width="24" height="2"/><rect class="cls-4" x="46" y="102" width="2" height="2"/><rect class="cls-4" x="44" y="64" width="2" height="2"/><rect class="cls-4" x="42" y="100" width="2" height="2"/><polygon class="cls-1" points="42 100 42 102 40 102 38 102 38 100 42 100"/><rect class="cls-4" x="38" y="102" width="2" height="2"/><path class="cls-3" d="M40,118H30v-2H24v-2H20v-2h3.18c.92.64,1.86,1.25,2.82,1.8v.2h.34A27.55,27.55,0,0,0,40,118Z"/><rect class="cls-4" x="36" y="100" width="2" height="2"/><rect class="cls-4" x="34" y="102" width="2" height="2"/><path class="cls-5" d="M32,112v2H26.34l-.34-.2V112Z"/><rect class="cls-4" x="30" y="102" width="2" height="2"/><path class="cls-2" d="M32,50v2H24.65a38.75,38.75,0,0,1,5.26-2H32Z"/><path class="cls-1" d="M30,50v0h-.09Z"/><path class="cls-2" d="M24,50h5.91a38.75,38.75,0,0,0-5.26,2H24Z"/><rect class="cls-4" x="26" y="102" width="2" height="2"/><path class="cls-5" d="M26.34,114H26v-.2Z"/><path class="cls-3" d="M26,112v1.8c-1-.55-1.9-1.16-2.82-1.8H26Z"/><rect class="cls-5" x="24" y="110" width="2" height="2"/><rect class="cls-4" x="24" y="100" width="2" height="2"/><rect class="cls-4" x="24" y="96" width="2" height="2"/><path class="cls-2" d="M26,52v2H20.86a41.49,41.49,0,0,1,3.79-2Z"/><path class="cls-2" d="M24,52h.65a41.49,41.49,0,0,0-3.79,2H20V52Z"/><path class="cls-5" d="M24,110v2h-.82c-.39-.27-.79-.55-1.18-.85V110Z"/><rect class="cls-4" x="22" y="98" width="2" height="2"/><polygon class="cls-1" points="24 96 24 98 22 98 20 98 20 96 22 96 24 96"/><rect class="cls-4" x="22" y="94" width="2" height="2"/><path class="cls-5" d="M23.18,112H22v-.85C22.39,111.45,22.79,111.73,23.18,112Z"/><path class="cls-3" d="M22,111.15V112H16v-2H14v-2h4v2h2.5C21,110.39,21.5,110.78,22,111.15Z"/><path class="cls-3" d="M22,110v1.15c-.5-.37-1-.76-1.5-1.15Z"/><rect class="cls-5" x="20" y="104" width="2" height="2"/><rect class="cls-4" x="20" y="92" width="2" height="2"/><path class="cls-2" d="M22,54v2H17.77c1-.71,2-1.38,3.09-2Z"/><path class="cls-2" d="M20,54h.86c-1.06.62-2.09,1.29-3.09,2H16V54Z"/><path class="cls-4" d="M20.5,110H20v-.4Z"/><path class="cls-5" d="M20,109.6v.4H18v-2h.14C18.75,108.55,19.37,109.08,20,109.6Z"/><path class="cls-5" d="M20,108v1.6c-.63-.52-1.25-1-1.86-1.6Z"/><path class="cls-5" d="M20,106v2H18.14l-.14-.12V106Z"/><path class="cls-5" d="M18.14,108H18v-.12Z"/><path class="cls-5" d="M18,107.88V108H16v-2C16.65,106.65,17.32,107.27,18,107.88Z"/><path class="cls-5" d="M18,106v1.88c-.68-.61-1.35-1.23-2-1.86v0Z"/><rect class="cls-5" x="16" y="104" width="2" height="2"/><path class="cls-2" d="M18,56v2H15.16c.84-.69,1.71-1.36,2.61-2Z"/><path class="cls-2" d="M16,56h1.77c-.9.64-1.77,1.31-2.61,2H14V56Z"/><rect class="cls-4" x="15.95" y="110" width="0.05" height="2"/><path class="cls-5" d="M16,106v2H14v-2h2Z"/><path class="cls-5" d="M16,106v0l0,0Z"/><path class="cls-5" d="M16,104v2h0q-1-1-2-2v-4h2Z"/><path class="cls-3" d="M16,58v2H12.89c.73-.69,1.49-1.36,2.27-2Z"/><path class="cls-5" d="M16,106H14v-2h0Q15,105,16,106Z"/><path class="cls-3" d="M14,58h1.16c-.78.64-1.54,1.31-2.27,2H12V58Z"/><rect class="cls-4" x="13.97" y="108" width="0.03" height="2"/><polygon class="cls-3" points="14 104 14 106 14 108 13.97 108 12 108 12 106 11.98 106 10 106 10 104 8 104 8 102 8 100 10 100 10 102 12 102 12 104 14 104"/><path class="cls-5" d="M14,104H12v-2.19C12.64,102.54,13.31,103.27,14,104Z"/><path class="cls-5" d="M14,100v4c-.69-.72-1.36-1.45-2-2.18V100Z"/><rect class="cls-5" x="12" y="98" width="2" height="2"/><path class="cls-3" d="M14,60v2H10.87c.64-.68,1.32-1.35,2-2Z"/><path class="cls-3" d="M12,60h.89c-.7.65-1.38,1.32-2,2H10V60Z"/><rect class="cls-4" x="11.98" y="106" width="0.02" height="2"/><path class="cls-5" d="M12,101.81V102H10v-2h.43C10.93,100.6,11.45,101.21,12,101.81Z"/><path class="cls-5" d="M12,100v1.81c-.55-.6-1.07-1.21-1.57-1.81Z"/><path class="cls-5" d="M12,98v2H10.43L10,99.48V98Z"/><rect class="cls-5" x="10" y="96" width="2" height="2"/><path class="cls-3" d="M12,62v2H9.07c.58-.68,1.18-1.35,1.8-2Z"/><path class="cls-3" d="M10,62h.87c-.62.65-1.22,1.32-1.8,2H8V62Z"/><path class="cls-5" d="M10.43,100H10v-.52Z"/><rect class="cls-3" x="8" y="104" width="2" height="2"/><path class="cls-5" d="M10,99.48V100H8V98h.8Z"/><path class="cls-5" d="M10,98v1.48L8.8,98Z"/><path class="cls-5" d="M10,96v2H8.8L8,97V96Z"/><rect class="cls-5" x="8" y="94" width="2" height="2"/><rect class="cls-5" x="8" y="92" width="2" height="2"/><path class="cls-3" d="M10,64v2H8v-.68c.35-.45.7-.88,1.07-1.32Z"/><path class="cls-3" d="M8,64H9.07c-.37.44-.72.87-1.07,1.32Z"/><path class="cls-5" d="M8.8,98H8V97Z"/><rect class="cls-3" x="6" y="102" width="2" height="2"/><polygon class="cls-3" points="8 100 8 102 6 102 6 100 6 98 8 98 8 100"/><path class="cls-3" d="M8,97v1H6V96H7.25C7.5,96.32,7.74,96.65,8,97Z"/><path class="cls-3" d="M8,96v1c-.26-.32-.5-.65-.75-1Z"/><path class="cls-5" d="M8,94v2H7.25c-.43-.57-.85-1.14-1.25-1.69V94Z"/><rect class="cls-5" x="6" y="92" width="2" height="2"/><rect class="cls-4" x="6" y="90" width="2" height="2"/><rect class="cls-4" x="6" y="86" width="2" height="2"/><path class="cls-3" d="M8,66v4H6v-2c.63-.92,1.29-1.84,2-2.73Z"/><path class="cls-3" d="M8,64v1.32c-.71.89-1.37,1.81-2,2.73V64Z"/><path class="cls-5" d="M7.25,96H6V94.31C6.4,94.86,6.82,95.43,7.25,96Z"/><path class="cls-3" d="M6,98v2H4V94H2V88.37c.56.89,1.22,1.92,2,3.06V92h.38c.5.73,1,1.51,1.62,2.31V98Z"/><path class="cls-3" d="M6,94v.31c-.58-.8-1.12-1.58-1.62-2.31H6Z"/><path class="cls-1" d="M6,90v2H4.38c-.13-.19-.26-.38-.38-.57V90Z"/><rect class="cls-5" x="4" y="88" width="2" height="2"/><path class="cls-3" d="M6,70v4H4V71.34c.6-1.11,1.27-2.21,2-3.29Z"/><path class="cls-3" d="M6,68v0c-.73,1.08-1.4,2.18-2,3.29V68Z"/><path class="cls-3" d="M4,90v1.43c-.78-1.14-1.44-2.17-2-3.06V86H4v4Z"/><path class="cls-3" d="M4,74v6H2V75.55A35.23,35.23,0,0,1,3.65,72H4Z"/><path class="cls-1" d="M4,71.34V72H3.65C3.76,71.78,3.87,71.56,4,71.34Z"/><path class="cls-3" d="M2,72H3.65A35.23,35.23,0,0,0,2,75.55Z"/><path class="cls-1" d="M2,88v.37L1.77,88Z"/><path class="cls-3" d="M2,86v2H1.77C.62,86.14,0,85,0,85a24.09,24.09,0,0,1,1.13-7H2v8Z"/><path class="cls-1" d="M2,75.55V78H1.13C1.38,77.19,1.67,76.37,2,75.55Z"/><path class="cls-3" d="M1.77,88H0V85S.62,86.14,1.77,88Z"/><path class="cls-3" d="M0,78H1.13A24.09,24.09,0,0,0,0,85Z"/></g></g></svg>