<svg xmlns="http://www.w3.org/2000/svg" width="168.71" height="111.36" viewBox="0 0 168.71 111.36"><defs><style>.cls-1{fill:#586c79;}.cls-2{fill:#2a3747;}.cls-3{fill:#182028;}.cls-4{fill:#9d1b32;}.cls-5{fill:#f1f0ee;}.cls-6{fill:#96a5ab;}.cls-7{fill:#293746;}.cls-8{fill:#2ca8f8;}.cls-9{fill:#235fda;}.cls-10{fill:#f1c18d;}.cls-11{fill:#ee6928;}.cls-12{fill:#1148a8;}</style></defs><g id="Layer_2" data-name="Layer 2"><g id="Layer_1-2" data-name="Layer 1"><g id="Layer_2-2" data-name="Layer 2"><g id="Battleships_Sideview" data-name="Battleships Sideview"><rect class="cls-1" x="69.63" y="9.99" width="22" height="2" transform="translate(39.69 81.32) rotate(-67.55)"/><rect class="cls-2" x="71.48" y="10.75" width="22" height="2" transform="translate(40.12 83.5) rotate(-67.55)"/><rect class="cls-3" x="80.72" y="12.6" width="2" height="2" transform="translate(37.94 83.94) rotate(-67.55)"/><rect class="cls-2" x="78.87" y="11.84" width="2" height="2" transform="translate(37.51 81.76) rotate(-67.55)"/><rect class="cls-1" x="78.08" y="-0.32" width="10" height="16" transform="translate(44.27 81.53) rotate(-67.55)"/><polygon class="cls-2" points="90.1 11.65 88.57 15.35 73.78 9.24 74.16 8.32 87.1 13.66 88.25 10.89 90.1 11.65"/><rect class="cls-2" x="89.32" y="7.5" width="2" height="2" transform="translate(47.98 88.73) rotate(-67.55)"/><rect class="cls-4" x="82.08" y="6.68" width="2" height="2" transform="translate(44.27 81.53) rotate(-67.55)"/><rect class="cls-2" x="80.24" y="5.91" width="2" height="2" transform="translate(43.83 79.35) rotate(-67.55)"/><rect class="cls-2" x="82.85" y="4.83" width="2" height="2" transform="translate(46.45 81.1) rotate(-67.55)"/><rect class="cls-2" x="81.32" y="8.52" width="2" height="2" transform="translate(42.09 81.97) rotate(-67.55)"/><rect class="cls-2" x="80.63" y="7.99" width="1" height="1" transform="translate(42.3 80.23) rotate(-67.55)"/><rect class="cls-2" x="83.4" y="9.13" width="1" height="1" transform="translate(42.96 83.5) rotate(-67.55)"/><rect class="cls-2" x="81.77" y="5.22" width="1" height="1" transform="translate(45.57 79.57) rotate(-67.55)"/><rect class="cls-2" x="84.54" y="6.36" width="1" height="1" transform="translate(46.23 82.84) rotate(-67.55)"/><rect class="cls-2" x="83.93" y="7.44" width="2" height="2" transform="translate(44.7 83.72) rotate(-67.55)"/><polygon class="cls-5" points="81.3 1.53 80.53 3.38 78.69 2.61 77.92 4.46 76.07 3.7 77.6 0 81.3 1.53"/><rect class="cls-6" x="32.74" y="4.73" width="12" height="32" transform="matrix(0.38, -0.92, 0.92, 0.38, 4.79, 48.62)"/><rect class="cls-1" x="32.59" y="7.51" width="10" height="32" transform="matrix(0.38, -0.92, 0.92, 0.38, 1.51, 49.28)"/><polygon class="cls-2" points="52 30.54 50.09 35.16 33.45 28.29 33.07 29.21 27.53 26.92 27.14 27.84 19.75 24.79 22.42 18.32 52 30.54"/><rect class="cls-6" x="29.32" y="5.68" width="2" height="8" transform="translate(9.8 34.01) rotate(-67.55)"/><rect class="cls-6" x="54.63" y="15.4" width="34" height="40" transform="translate(11.56 88.09) rotate(-67.55)"/><rect class="cls-6" x="89.62" y="42.7" width="20" height="28" transform="translate(9.17 127.12) rotate(-67.55)"/><rect class="cls-1" x="103.02" y="53.77" width="2" height="16" transform="translate(7.21 134.32) rotate(-67.55)"/><rect class="cls-1" x="109.33" y="60.21" width="2" height="4" transform="translate(10.71 140.42) rotate(-67.55)"/><rect class="cls-2" x="46.75" y="24.7" width="8" height="2" transform="translate(7.63 62.79) rotate(-67.55)"/><rect class="cls-1" x="65.59" y="28.8" width="4" height="38" transform="translate(-2.4 92.02) rotate(-67.55)"/><rect class="cls-1" x="77.9" y="41.23" width="2" height="16" transform="translate(3.28 103.36) rotate(-67.55)"/><rect class="cls-1" x="84.52" y="48.13" width="4" height="2" transform="translate(8.08 110.33) rotate(-67.55)"/><rect class="cls-1" x="73.27" y="43.27" width="32" height="1" transform="translate(14.73 109.57) rotate(-67.55)"/><rect class="cls-1" x="78.98" y="49.81" width="18" height="2" transform="translate(7.43 112.73) rotate(-67.55)"/><rect class="cls-7" x="78.52" y="50.12" width="18" height="1" transform="translate(7.32 112.19) rotate(-67.55)"/><rect class="cls-1" x="103.48" y="60.43" width="18" height="1" transform="translate(13.21 141.62) rotate(-67.55)"/><rect class="cls-1" x="37.23" y="28.38" width="32" height="1" transform="translate(6.21 67.05) rotate(-67.55)"/><rect class="cls-2" x="64.83" y="30.65" width="4" height="38" transform="translate(-4.58 92.46) rotate(-67.55)"/><rect class="cls-2" x="95.33" y="48.25" width="4" height="28" transform="translate(2.63 128.43) rotate(-67.55)"/><rect class="cls-7" x="76.74" y="0.62" width="2" height="40" transform="translate(29 84.59) rotate(-67.55)"/><rect class="cls-1" x="77.5" y="-5.23" width="2" height="48" transform="matrix(0.38, -0.92, 0.92, 0.38, 31.18, 84.16)"/><rect class="cls-6" x="71.26" y="-1.06" width="2" height="34.5" transform="translate(29.71 76.8) rotate(-67.55)"/><rect class="cls-1" x="80.28" y="16.91" width="2" height="6" transform="translate(31.84 87.43) rotate(-67.55)"/><rect class="cls-7" x="77.81" y="-4.77" width="1" height="48" transform="matrix(0.38, -0.92, 0.92, 0.38, 30.64, 84.27)"/><rect class="cls-3" x="77.43" y="0.15" width="1" height="40" transform="translate(29.55 84.48) rotate(-67.55)"/><rect class="cls-7" x="102.05" y="34.38" width="2" height="28" transform="translate(18.99 125.16) rotate(-67.55)"/><rect class="cls-6" x="104.67" y="31.3" width="2" height="32" transform="translate(21.6 126.9) rotate(-67.55)"/><rect class="cls-1" x="100.04" y="34.39" width="2" height="22" transform="translate(20.51 121.45) rotate(-67.55)"/><rect class="cls-7" x="104.98" y="31.76" width="1" height="32" transform="translate(21.06 127.01) rotate(-67.55)"/><rect class="cls-3" x="102.74" y="33.92" width="1" height="28" transform="translate(19.53 125.05) rotate(-67.55)"/><rect class="cls-6" x="36.48" y="8.89" width="1" height="6" transform="translate(11.87 41.53) rotate(-67.55)"/><rect class="cls-5" x="34.63" y="10.13" width="1" height="2" transform="translate(11.43 39.35) rotate(-67.55)"/><rect class="cls-1" x="45.58" y="7.48" width="2" height="20" transform="translate(12.64 53.85) rotate(-67.55)"/><rect class="cls-2" x="47.98" y="24.54" width="10" height="2" transform="translate(9.15 64.76) rotate(-67.55)"/><rect class="cls-1" x="29.7" y="4.76" width="2" height="8" transform="translate(10.89 33.79) rotate(-67.55)"/><rect class="cls-6" x="32.24" y="7.06" width="1" height="4" transform="translate(11.87 35.86) rotate(-67.55)"/><rect class="cls-5" x="27.62" y="6.15" width="1" height="2" transform="translate(10.78 30.41) rotate(-67.55)"/><rect class="cls-5" x="31.32" y="7.68" width="1" height="2" transform="translate(11.65 34.77) rotate(-67.55)"/><rect class="cls-1" x="34.87" y="7.97" width="2" height="8" transform="translate(11.11 40.55) rotate(-67.55)"/><rect class="cls-6" x="49.96" y="12.54" width="1" height="12" transform="translate(14.06 58.1) rotate(-67.55)"/><rect class="cls-1" x="47.04" y="13.17" width="2" height="12" transform="translate(11.98 56.25) rotate(-67.55)"/><rect class="cls-2" x="46.46" y="28.23" width="10" height="2" transform="translate(4.79 65.63) rotate(-67.55)"/><rect class="cls-1" x="70.43" y="6.17" width="2" height="28" transform="translate(25.51 78.49) rotate(-67.55)"/><rect class="cls-1" x="65.05" y="11.11" width="2" height="18" transform="translate(22.24 73.47) rotate(-67.55)"/><rect class="cls-1" x="60.58" y="15.43" width="2" height="10" transform="translate(19.19 69.55) rotate(-67.55)"/><rect class="cls-1" x="60.58" y="15.43" width="2" height="10" transform="translate(19.19 69.55) rotate(-67.55)"/><rect class="cls-1" x="56.12" y="19.75" width="2" height="2" transform="translate(16.13 65.63) rotate(-67.55)"/><rect class="cls-1" x="83.29" y="48.29" width="2" height="2" transform="translate(6.55 108.37) rotate(-67.55)"/><rect class="cls-1" x="79.59" y="46.76" width="2" height="2" transform="translate(5.68 104.01) rotate(-67.55)"/><rect class="cls-1" x="82.2" y="45.68" width="2" height="2" transform="translate(8.3 105.75) rotate(-67.55)"/><rect class="cls-1" x="73.52" y="24.78" width="2" height="2" transform="translate(22.24 84.81) rotate(-67.55)"/><rect class="cls-1" x="65.37" y="23.57" width="2" height="2" transform="translate(18.32 76.53) rotate(-67.55)"/><rect class="cls-1" x="67.98" y="22.49" width="2" height="2" transform="translate(20.93 78.27) rotate(-67.55)"/><rect class="cls-1" x="61.67" y="22.05" width="2" height="2" transform="translate(17.44 72.17) rotate(-67.55)"/><rect class="cls-1" x="57.97" y="20.52" width="2" height="2" transform="translate(16.57 67.81) rotate(-67.55)"/><rect class="cls-1" x="59.06" y="23.13" width="2" height="2" transform="translate(14.82 70.42) rotate(-67.55)"/><rect class="cls-1" x="55.36" y="21.6" width="2" height="2" transform="translate(13.95 66.06) rotate(-67.55)"/><rect class="cls-1" x="84.81" y="44.59" width="2" height="2" transform="translate(10.91 107.5) rotate(-67.55)"/><rect class="cls-1" x="86.34" y="40.89" width="2" height="2" transform="translate(15.27 106.62) rotate(-67.55)"/><path class="cls-2" d="M109.08,57.37l-3.82,9.24-5.54-2.29,3.82-9.24,5.54,2.29m1.31-.55-7.4-3L98.41,64.86l7.4,3Z"/><rect class="cls-8" x="104.16" y="57.99" width="2" height="2" transform="translate(10.49 133.66) rotate(-67.55)"/><rect class="cls-5" x="104.39" y="57.84" width="1" height="1" transform="translate(10.92 133.01) rotate(-67.55)"/><rect class="cls-9" x="104.93" y="59.15" width="1" height="1" transform="translate(10.05 134.32) rotate(-67.55)"/><path class="cls-2" d="M62.87,38.28l-3.82,9.24-5.54-2.29L57.32,36l5.55,2.3m1.31-.55-7.4-3L52.2,45.77l7.39,3Z"/><rect class="cls-8" x="57.95" y="38.9" width="2" height="2" transform="translate(-0.44 79.15) rotate(-67.55)"/><rect class="cls-5" x="58.18" y="38.75" width="1" height="1" transform="translate(0 78.5) rotate(-67.55)"/><rect class="cls-9" x="58.72" y="40.06" width="1" height="1" transform="translate(-0.87 79.81) rotate(-67.55)"/><rect class="cls-10" x="91.93" y="6.42" width="2" height="2" transform="translate(50.59 90.47) rotate(-67.55)"/><rect class="cls-4" x="93.78" y="7.18" width="2" height="2" transform="translate(51.03 92.65) rotate(-67.55)"/><rect class="cls-10" x="95.63" y="7.94" width="2" height="2" transform="translate(51.47 94.83) rotate(-67.55)"/><rect class="cls-4" x="97.48" y="8.71" width="2" height="2" transform="translate(51.9 97.01) rotate(-67.55)"/><rect class="cls-5" x="96.39" y="6.09" width="2" height="2" transform="translate(53.65 94.4) rotate(-67.55)"/><rect class="cls-11" x="94.54" y="5.33" width="2" height="2" transform="translate(53.21 92.22) rotate(-67.55)"/><rect class="cls-5" x="92.69" y="4.57" width="2" height="2" transform="translate(52.77 90.04) rotate(-67.55)"/><rect class="cls-5" x="93.46" y="2.72" width="2" height="2" transform="translate(54.96 89.6) rotate(-67.55)"/><rect class="cls-4" x="90.08" y="5.65" width="2" height="2" transform="translate(50.16 88.29) rotate(-67.55)"/><rect class="cls-11" x="90.85" y="3.8" width="2" height="2" transform="translate(52.34 87.86) rotate(-67.55)"/><rect class="cls-11" x="91.61" y="1.95" width="2" height="2" transform="translate(54.52 87.42) rotate(-67.55)"/><rect class="cls-11" x="95.31" y="3.48" width="2" height="2" transform="translate(55.39 91.78) rotate(-67.55)"/><rect class="cls-2" x="77.32" y="9.51" width="20" height="2" transform="translate(44.27 87.2) rotate(-67.55)"/><rect class="cls-6" x="76.86" y="9.82" width="20" height="1" transform="translate(44.16 86.66) rotate(-67.55)"/><rect class="cls-5" x="86.53" y="3.35" width="6" height="1" transform="translate(51.79 85.13) rotate(-67.55)"/><polygon class="cls-1" points="17.48 61.72 3.38 27.76 95.8 65.94 85.87 89.97 17.48 61.72"/><polygon class="cls-1" points="126.54 106.78 160.5 92.67 66.22 53.73 56.3 77.76 126.54 106.78"/><rect class="cls-3" x="81.02" y="-26.17" width="4" height="178" transform="translate(-6.75 115.57) rotate(-67.55)"/><rect class="cls-1" x="81.78" y="-28.02" width="4" height="178" transform="translate(-4.57 115.13) rotate(-67.55)"/><rect class="cls-6" x="83.17" y="-28.94" width="2" height="178" transform="translate(-3.48 114.92) rotate(-67.55)"/><rect class="cls-3" x="4.05" y="21.3" width="1" height="2" transform="translate(-17.8 17.99) rotate(-67.55)"/><rect class="cls-1" x="1.52" y="22.99" width="4" height="1" transform="translate(-19.54 17.77) rotate(-67.55)"/><rect class="cls-2" x="2.44" y="23.38" width="4" height="1" transform="translate(-19.32 18.86) rotate(-67.55)"/><rect class="cls-1" x="8.91" y="26.05" width="4" height="1" transform="translate(-17.79 26.5) rotate(-67.55)"/><rect class="cls-2" x="9.83" y="26.43" width="4" height="1" transform="translate(-17.57 27.59) rotate(-67.55)"/><rect class="cls-1" x="16.3" y="29.1" width="4" height="1" transform="translate(-16.04 35.22) rotate(-67.55)"/><rect class="cls-2" x="17.23" y="29.48" width="4" height="1" transform="translate(-15.83 36.31) rotate(-67.55)"/><rect class="cls-1" x="23.7" y="32.16" width="4" height="1" transform="translate(-14.3 43.94) rotate(-67.55)"/><rect class="cls-2" x="24.62" y="32.54" width="4" height="1" transform="translate(-14.08 45.03) rotate(-67.55)"/><rect class="cls-1" x="31.09" y="35.21" width="4" height="1" transform="translate(-12.55 52.66) rotate(-67.55)"/><rect class="cls-2" x="32.02" y="35.59" width="4" height="1" transform="translate(-12.33 53.75) rotate(-67.55)"/><rect class="cls-1" x="38.49" y="38.27" width="4" height="1" transform="translate(-10.8 61.38) rotate(-67.55)"/><rect class="cls-2" x="39.41" y="38.65" width="4" height="1" transform="translate(-10.58 62.47) rotate(-67.55)"/><rect class="cls-1" x="45.88" y="41.32" width="4" height="1" transform="translate(-9.05 70.11) rotate(-67.55)"/><rect class="cls-2" x="46.8" y="41.7" width="4" height="1" transform="translate(-8.84 71.2) rotate(-67.55)"/><rect class="cls-1" x="53.27" y="44.38" width="4" height="1" transform="translate(-7.31 78.83) rotate(-67.55)"/><rect class="cls-2" x="54.2" y="44.76" width="4" height="1" transform="translate(-7.09 79.92) rotate(-67.55)"/><rect class="cls-1" x="60.67" y="47.43" width="4" height="1" transform="translate(-5.56 87.55) rotate(-67.55)"/><rect class="cls-2" x="61.59" y="47.81" width="4" height="1" transform="translate(-5.34 88.64) rotate(-67.55)"/><rect class="cls-1" x="68.06" y="50.48" width="4" height="1" transform="translate(-3.81 96.27) rotate(-67.55)"/><rect class="cls-2" x="68.99" y="50.87" width="4" height="1" transform="translate(-3.59 97.36) rotate(-67.55)"/><rect class="cls-1" x="82.85" y="56.59" width="4" height="1" transform="translate(-0.32 113.72) rotate(-67.55)"/><rect class="cls-2" x="83.77" y="56.98" width="4" height="1" transform="translate(-0.1 114.81) rotate(-67.55)"/><rect class="cls-1" x="90.24" y="59.65" width="4" height="1" transform="translate(1.43 122.44) rotate(-67.55)"/><rect class="cls-2" x="91.17" y="60.03" width="4" height="1" transform="translate(1.65 123.53) rotate(-67.55)"/><rect class="cls-1" x="97.64" y="62.7" width="4" height="1" transform="translate(3.18 131.16) rotate(-67.55)"/><rect class="cls-2" x="98.56" y="63.08" width="4" height="1" transform="translate(3.4 132.25) rotate(-67.55)"/><rect class="cls-1" x="75.46" y="53.54" width="4" height="1" transform="translate(-2.06 104.99) rotate(-67.55)"/><rect class="cls-2" x="76.38" y="53.92" width="4" height="1" transform="translate(-1.84 106.08) rotate(-67.55)"/><rect class="cls-5" x="85.77" y="-34.03" width="1" height="178" transform="translate(2.52 113.71) rotate(-67.55)"/><rect class="cls-3" x="4.05" y="21.3" width="1" height="2" transform="translate(-17.8 17.99) rotate(-67.55)"/><rect class="cls-3" x="11.45" y="24.35" width="1" height="2" transform="translate(-16.05 26.71) rotate(-67.55)"/><rect class="cls-3" x="18.84" y="27.41" width="1" height="2" transform="translate(-14.3 35.43) rotate(-67.55)"/><rect class="cls-3" x="26.23" y="30.46" width="1" height="2" transform="translate(-12.55 44.16) rotate(-67.55)"/><rect class="cls-3" x="33.63" y="33.52" width="1" height="2" transform="translate(-10.8 52.88) rotate(-67.55)"/><rect class="cls-3" x="41.02" y="36.57" width="1" height="2" transform="translate(-9.06 61.6) rotate(-67.55)"/><rect class="cls-3" x="48.41" y="39.63" width="1" height="2" transform="translate(-7.31 70.32) rotate(-67.55)"/><rect class="cls-3" x="55.81" y="42.68" width="1" height="2" transform="translate(-5.56 79.04) rotate(-67.55)"/><rect class="cls-3" x="63.2" y="45.73" width="1" height="2" transform="translate(-3.81 87.77) rotate(-67.55)"/><rect class="cls-3" x="70.6" y="48.79" width="1" height="2" transform="translate(-2.07 96.49) rotate(-67.55)"/><rect class="cls-3" x="77.99" y="51.84" width="1" height="2" transform="translate(-0.32 105.21) rotate(-67.55)"/><rect class="cls-3" x="85.38" y="54.9" width="1" height="2" transform="translate(1.43 113.93) rotate(-67.55)"/><rect class="cls-3" x="92.78" y="57.95" width="1" height="2" transform="translate(3.18 122.65) rotate(-67.55)"/><rect class="cls-3" x="100.17" y="61.01" width="1" height="2" transform="translate(4.92 131.38) rotate(-67.55)"/><rect class="cls-1" x="105.03" y="65.76" width="4" height="1" transform="translate(4.93 139.88) rotate(-67.55)"/><rect class="cls-2" x="105.96" y="66.14" width="4" height="1" transform="translate(5.15 140.97) rotate(-67.55)"/><rect class="cls-3" x="107.57" y="64.06" width="1" height="2" transform="translate(6.67 140.1) rotate(-67.55)"/><rect class="cls-1" x="112.43" y="68.81" width="4" height="1" transform="translate(6.67 148.6) rotate(-67.55)"/><rect class="cls-2" x="113.35" y="69.19" width="4" height="1" transform="translate(6.89 149.69) rotate(-67.55)"/><rect class="cls-3" x="114.96" y="67.12" width="1" height="2" transform="translate(8.42 148.82) rotate(-67.55)"/><rect class="cls-1" x="119.82" y="71.87" width="4" height="1" transform="translate(8.42 157.33) rotate(-67.55)"/><rect class="cls-2" x="120.74" y="72.25" width="4" height="1" transform="translate(8.64 158.42) rotate(-67.55)"/><rect class="cls-3" x="122.35" y="70.17" width="1" height="2" transform="translate(10.17 157.54) rotate(-67.55)"/><rect class="cls-1" x="127.21" y="74.92" width="4" height="1" transform="translate(10.17 166.05) rotate(-67.55)"/><rect class="cls-2" x="128.14" y="75.3" width="4" height="1" transform="translate(10.39 167.14) rotate(-67.55)"/><rect class="cls-3" x="129.75" y="73.23" width="1" height="2" transform="translate(11.91 166.26) rotate(-67.55)"/><rect class="cls-1" x="134.61" y="77.98" width="4" height="1" transform="translate(11.92 174.77) rotate(-67.55)"/><rect class="cls-2" x="135.53" y="78.36" width="4" height="1" transform="translate(12.14 175.86) rotate(-67.55)"/><rect class="cls-3" x="137.14" y="76.28" width="1" height="2" transform="translate(13.66 174.99) rotate(-67.55)"/><rect class="cls-1" x="142" y="81.03" width="4" height="1" transform="translate(13.67 183.49) rotate(-67.55)"/><rect class="cls-2" x="142.92" y="81.41" width="4" height="1" transform="translate(13.88 184.58) rotate(-67.55)"/><rect class="cls-3" x="144.54" y="79.33" width="1" height="2" transform="translate(15.41 183.71) rotate(-67.55)"/><rect class="cls-1" x="149.39" y="84.08" width="4" height="1" transform="translate(15.41 192.21) rotate(-67.55)"/><rect class="cls-2" x="150.32" y="84.47" width="4" height="1" transform="translate(15.63 193.3) rotate(-67.55)"/><rect class="cls-3" x="151.93" y="82.39" width="1" height="2" transform="translate(17.16 192.43) rotate(-67.55)"/><rect class="cls-1" x="156.79" y="87.14" width="4" height="1" transform="translate(17.16 200.94) rotate(-67.55)"/><rect class="cls-2" x="157.71" y="87.52" width="4" height="1" transform="translate(17.38 202.03) rotate(-67.55)"/><rect class="cls-3" x="159.32" y="85.44" width="1" height="2" transform="translate(18.91 201.15) rotate(-67.55)"/><rect class="cls-1" x="164.18" y="90.19" width="4" height="1" transform="translate(18.91 209.66) rotate(-67.55)"/><rect class="cls-2" x="165.11" y="90.58" width="4" height="1" transform="translate(19.13 210.75) rotate(-67.55)"/><rect class="cls-3" x="166.72" y="88.5" width="1" height="2" transform="translate(20.65 209.87) rotate(-67.55)"/><rect class="cls-2" x="83.65" y="-19.25" width="2" height="172" transform="translate(-9.36 119.5) rotate(-67.55)"/><rect class="cls-2" x="31.13" y="23.21" width="2" height="48" transform="translate(-23.78 58.88) rotate(-67.55)"/><rect class="cls-2" x="42.22" y="17.8" width="2" height="68" transform="translate(-21.16 71.96) rotate(-67.55)"/><rect class="cls-2" x="29.44" y="27.68" width="2" height="42" transform="translate(-26.18 58.23) rotate(-67.55)"/><rect class="cls-2" x="27.75" y="30.15" width="2" height="40" transform="translate(-28.58 57.57) rotate(-67.55)"/><rect class="cls-2" x="26.99" y="36" width="2" height="32" transform="matrix(0.38, -0.92, 0.92, 0.38, -30.76, 58.01)"/><rect class="cls-2" x="25.3" y="40.46" width="2" height="26" transform="translate(-33.15 57.36) rotate(-67.55)"/><rect class="cls-2" x="25.46" y="39.69" width="2" height="32" transform="translate(-35.12 58.88) rotate(-67.55)"/><rect class="cls-2" x="26.55" y="46.31" width="2" height="24" transform="matrix(0.38, -0.92, 0.92, 0.38, -36.86, 61.5)"/><rect class="cls-2" x="28.55" y="48.3" width="2" height="26" transform="translate(-38.39 65.21) rotate(-67.55)"/><rect class="cls-2" x="30.56" y="48.29" width="2" height="32" transform="translate(-39.91 68.92) rotate(-67.55)"/><rect class="cls-2" x="4" y="28.68" width="2" height="6" transform="translate(-26.19 24.21) rotate(-67.55)"/><rect class="cls-3" x="6.94" y="34.06" width="2" height="2" transform="translate(-27.5 29.01) rotate(-67.55)"/><rect class="cls-2" x="6.17" y="35.91" width="2" height="2" transform="translate(-29.68 29.44) rotate(-67.55)"/><rect class="cls-3" x="8.02" y="36.67" width="2" height="2" transform="translate(-29.24 31.62) rotate(-67.55)"/><rect class="cls-2" x="7.26" y="38.52" width="2" height="2" transform="translate(-31.42 32.06) rotate(-67.55)"/><rect class="cls-3" x="9.11" y="39.28" width="2" height="2" transform="translate(-30.98 34.24) rotate(-67.55)"/><rect class="cls-2" x="8.34" y="41.13" width="2" height="2" transform="translate(-33.16 34.68) rotate(-67.55)"/><rect class="cls-2" x="11.6" y="48.97" width="2" height="2" transform="translate(-38.39 42.53) rotate(-67.55)"/><rect class="cls-3" x="10.19" y="41.89" width="2" height="2" transform="translate(-32.73 36.86) rotate(-67.55)"/><rect class="cls-3" x="11.28" y="44.51" width="2" height="2" transform="translate(-34.47 39.48) rotate(-67.55)"/><rect class="cls-3" x="11.44" y="45.74" width="2" height="4" transform="translate(-36.43 41) rotate(-67.55)"/><rect class="cls-2" x="10.51" y="46.35" width="2" height="2" transform="translate(-36.65 39.91) rotate(-67.55)"/><rect class="cls-2" x="9.43" y="43.74" width="2" height="2" transform="translate(-34.91 37.3) rotate(-67.55)"/><rect class="cls-3" x="13.45" y="49.73" width="2" height="2" transform="translate(-37.96 44.71) rotate(-67.55)"/><rect class="cls-2" x="12.68" y="51.58" width="2" height="2" transform="translate(-40.14 45.15) rotate(-67.55)"/><rect class="cls-3" x="14.53" y="52.34" width="2" height="2" transform="translate(-39.7 47.33) rotate(-67.55)"/><rect class="cls-2" x="13.77" y="54.19" width="2" height="2" transform="translate(-41.88 47.77) rotate(-67.55)"/><rect class="cls-3" x="15.62" y="54.95" width="2" height="2" transform="translate(-41.44 49.95) rotate(-67.55)"/><rect class="cls-2" x="14.85" y="56.8" width="2" height="2" transform="translate(-43.62 50.38) rotate(-67.55)"/><rect class="cls-3" x="16.7" y="57.57" width="2" height="2" transform="translate(-43.19 52.56) rotate(-67.55)"/><rect class="cls-2" x="15.94" y="59.41" width="2" height="2" transform="translate(-45.37 53) rotate(-67.55)"/><rect class="cls-2" x="62.15" y="32.51" width="2" height="94" transform="translate(-34.45 107.51) rotate(-67.55)"/><rect class="cls-3" x="17.78" y="60.18" width="2" height="2" transform="translate(-44.93 55.18) rotate(-67.55)"/><rect class="cls-2" x="43.34" y="66.41" width="2" height="2" transform="translate(-34.89 82.65) rotate(-67.55)"/><rect class="cls-2" x="53.03" y="63.92" width="2" height="2" transform="translate(-26.6 90.06) rotate(-67.55)"/><rect class="cls-2" x="50.09" y="60.54" width="2" height="2" transform="translate(-25.29 85.27) rotate(-67.55)"/><rect class="cls-2" x="46.72" y="63.48" width="2" height="2" transform="translate(-30.09 83.96) rotate(-67.55)"/><rect class="cls-2" x="41.94" y="59.34" width="2" height="2" transform="translate(-29.22 76.98) rotate(-67.55)"/><rect class="cls-2" x="43.02" y="61.95" width="2" height="2" transform="translate(-30.97 79.6) rotate(-67.55)"/><rect class="cls-2" x="46.4" y="59.01" width="2" height="2" transform="translate(-26.17 80.91) rotate(-67.55)"/><rect class="cls-2" x="54.55" y="60.22" width="2" height="2" transform="translate(-22.24 89.19) rotate(-67.55)"/><rect class="cls-2" x="51.62" y="56.85" width="2" height="2" transform="translate(-20.93 84.39) rotate(-67.55)"/><rect class="cls-3" x="12.48" y="36.35" width="2" height="2" transform="translate(-26.18 35.55) rotate(-67.55)"/><rect class="cls-3" x="13.57" y="38.96" width="2" height="2" transform="translate(-27.93 38.17) rotate(-67.55)"/><rect class="cls-3" x="14.65" y="41.57" width="2" height="2" transform="translate(-29.67 40.78) rotate(-67.55)"/><rect class="cls-3" x="16.18" y="37.88" width="2" height="2" transform="translate(-25.31 39.91) rotate(-67.55)"/><rect class="cls-3" x="8.78" y="34.82" width="2" height="2" transform="translate(-27.06 31.19) rotate(-67.55)"/><rect class="cls-3" x="15.74" y="44.18" width="2" height="2" transform="translate(-31.42 43.4) rotate(-67.55)"/><rect class="cls-3" x="17.26" y="40.49" width="2" height="2" transform="translate(-27.05 42.53) rotate(-67.55)"/><rect class="cls-3" x="19.88" y="39.4" width="2" height="2" transform="translate(-24.44 44.27) rotate(-67.55)"/><rect class="cls-3" x="16.82" y="46.8" width="2" height="2" transform="translate(-33.16 46.02) rotate(-67.55)"/><rect class="cls-3" x="13.12" y="45.27" width="2" height="2" transform="translate(-34.03 41.66) rotate(-67.55)"/><rect class="cls-3" x="9.87" y="37.43" width="2" height="2" transform="translate(-28.8 33.8) rotate(-67.55)"/><rect class="cls-3" x="10.95" y="40.05" width="2" height="2" transform="translate(-30.55 36.42) rotate(-67.55)"/><rect class="cls-3" x="12.04" y="42.66" width="2" height="2" transform="translate(-32.29 39.04) rotate(-67.55)"/><rect class="cls-3" x="14.21" y="47.88" width="2" height="2" transform="translate(-35.78 44.27) rotate(-67.55)"/><rect class="cls-3" x="20.96" y="42.01" width="2" height="2" transform="translate(-26.18 46.89) rotate(-67.55)"/><rect class="cls-3" x="23.57" y="40.93" width="2" height="2" transform="translate(-23.56 48.63) rotate(-67.55)"/><rect class="cls-2" x="53.35" y="68.38" width="2" height="2" transform="translate(-30.53 93.12) rotate(-67.55)"/><rect class="cls-2" x="50.41" y="65" width="2" height="2" transform="translate(-29.22 88.32) rotate(-67.55)"/><rect class="cls-2" x="47.04" y="67.94" width="2" height="2" transform="translate(-34.02 87.01) rotate(-67.55)"/><rect class="cls-2" x="49.97" y="71.31" width="2" height="2" transform="translate(-35.32 91.81) rotate(-67.55)"/><rect class="cls-2" x="54.43" y="70.99" width="2" height="2" transform="translate(-32.27 95.74) rotate(-67.55)"/><rect class="cls-2" x="55.96" y="67.29" width="2" height="2" transform="translate(-27.91 94.86) rotate(-67.55)"/><rect class="cls-2" x="59.34" y="64.36" width="2" height="2" transform="translate(-23.11 96.17) rotate(-67.55)"/><rect class="cls-2" x="57.17" y="59.14" width="2" height="2" transform="translate(-19.62 90.93) rotate(-67.55)"/><rect class="cls-2" x="59.66" y="68.82" width="2" height="2" transform="translate(-27.03 99.22) rotate(-67.55)"/><rect class="cls-2" x="59.98" y="73.28" width="2" height="2" transform="translate(-30.96 102.28) rotate(-67.55)"/><rect class="cls-2" x="65.65" y="64.8" width="2" height="2" transform="translate(-19.62 102.27) rotate(-67.55)"/><rect class="cls-2" x="65.97" y="69.26" width="2" height="2" transform="translate(-23.54 105.33) rotate(-67.55)"/><rect class="cls-2" x="83.65" y="-19.25" width="2" height="172" transform="translate(-9.36 119.5) rotate(-67.55)"/><rect class="cls-2" x="134.64" y="65.98" width="2" height="48" transform="translate(0.69 180.99) rotate(-67.55)"/><rect class="cls-2" x="130.02" y="61.07" width="2" height="54" transform="translate(-0.4 175.54) rotate(-67.55)"/><rect class="cls-2" x="132.03" y="67.06" width="2" height="48" transform="translate(-1.93 179.24) rotate(-67.55)"/><rect class="cls-2" x="134.04" y="73.06" width="2" height="42" transform="translate(-3.45 182.95) rotate(-67.55)"/><rect class="cls-2" x="129.58" y="73.38" width="2" height="42" transform="translate(-6.51 179.03) rotate(-67.55)"/><rect class="cls-2" x="131.59" y="81.37" width="2" height="32" transform="matrix(0.38, -0.92, 0.92, 0.38, -8.03, 182.74)"/><rect class="cls-2" x="132.67" y="83.98" width="2" height="32" transform="translate(-9.78 185.35) rotate(-67.55)"/><rect class="cls-2" x="126.36" y="83.54" width="2" height="32" transform="matrix(0.38, -0.92, 0.92, 0.38, -13.27, 179.25)"/><rect class="cls-2" x="123.75" y="84.63" width="2" height="32" transform="matrix(0.38, -0.92, 0.92, 0.38, -15.88, 177.51)"/><rect class="cls-2" x="122.99" y="86.48" width="2" height="32" transform="matrix(0.38, -0.92, 0.92, 0.38, -18.07, 177.94)"/><rect class="cls-2" x="158.35" y="93.45" width="2" height="4" transform="translate(10.29 206.28) rotate(-67.55)"/><rect class="cls-3" x="160.36" y="97.44" width="2" height="2" transform="translate(8.77 209.99) rotate(-67.55)"/><rect class="cls-2" x="159.6" y="99.29" width="2" height="2" transform="translate(6.59 210.42) rotate(-67.55)"/><rect class="cls-3" x="157.75" y="98.52" width="2" height="2" transform="translate(6.15 208.24) rotate(-67.55)"/><rect class="cls-2" x="156.98" y="100.37" width="2" height="2" transform="translate(3.97 208.68) rotate(-67.55)"/><rect class="cls-3" x="155.14" y="99.61" width="2" height="2" transform="translate(3.53 206.5) rotate(-67.55)"/><rect class="cls-2" x="154.37" y="101.46" width="2" height="2" transform="translate(1.35 206.94) rotate(-67.55)"/><rect class="cls-2" x="146.54" y="104.71" width="2" height="2" transform="translate(-6.5 201.71) rotate(-67.55)"/><rect class="cls-3" x="152.52" y="100.69" width="2" height="2" transform="translate(0.92 204.76) rotate(-67.55)"/><rect class="cls-3" x="149.91" y="101.78" width="2" height="2" transform="translate(-1.7 203.01) rotate(-67.55)"/><rect class="cls-3" x="148.22" y="102.25" width="2" height="4" transform="translate(-4.1 202.36) rotate(-67.55)"/><rect class="cls-2" x="149.15" y="103.63" width="2" height="2" transform="translate(-3.88 203.45) rotate(-67.55)"/><rect class="cls-2" x="151.76" y="102.54" width="2" height="2" transform="translate(-1.26 205.19) rotate(-67.55)"/><rect class="cls-3" x="144.69" y="103.95" width="2" height="2" transform="translate(-6.94 199.53) rotate(-67.55)"/><rect class="cls-2" x="143.92" y="105.8" width="2" height="2" transform="translate(-9.12 199.96) rotate(-67.55)"/><rect class="cls-3" x="142.07" y="105.03" width="2" height="2" transform="translate(-9.55 197.78) rotate(-67.55)"/><rect class="cls-2" x="141.31" y="106.88" width="2" height="2" transform="translate(-11.73 198.22) rotate(-67.55)"/><rect class="cls-3" x="139.46" y="106.12" width="2" height="2" transform="translate(-12.17 196.04) rotate(-67.55)"/><rect class="cls-2" x="138.7" y="107.97" width="2" height="2" transform="translate(-14.35 196.48) rotate(-67.55)"/><rect class="cls-3" x="136.85" y="107.2" width="2" height="2" transform="translate(-14.79 194.3) rotate(-67.55)"/><rect class="cls-2" x="136.09" y="109.05" width="2" height="2" transform="translate(-16.97 194.73) rotate(-67.55)"/><rect class="cls-2" x="89.88" y="43.96" width="2" height="94" transform="translate(-27.89 140.22) rotate(-67.55)"/><rect class="cls-3" x="134.24" y="108.29" width="2" height="2" transform="translate(-17.41 192.55) rotate(-67.55)"/><rect class="cls-2" x="108.8" y="91.29" width="2" height="2" transform="translate(-17.42 158.53) rotate(-67.55)"/><rect class="cls-2" x="106.63" y="86.06" width="2" height="2" transform="translate(-13.93 153.3) rotate(-67.55)"/><rect class="cls-2" x="110.33" y="87.59" width="2" height="2" transform="translate(-13.06 157.66) rotate(-67.55)"/><rect class="cls-2" x="111.41" y="90.2" width="2" height="2" transform="translate(-14.8 160.28) rotate(-67.55)"/><rect class="cls-2" x="114.03" y="89.12" width="2" height="2" transform="translate(-12.18 162.02) rotate(-67.55)"/><rect class="cls-2" x="115.11" y="91.73" width="2" height="2" transform="translate(-13.93 164.64) rotate(-67.55)"/><rect class="cls-2" x="111.86" y="83.89" width="2" height="2" transform="translate(-8.7 156.79) rotate(-67.55)"/><rect class="cls-2" x="109.24" y="84.98" width="2" height="2" transform="translate(-11.31 155.04) rotate(-67.55)"/><rect class="cls-2" x="108.16" y="82.37" width="2" height="2" transform="translate(-9.57 152.43) rotate(-67.55)"/><rect class="cls-2" x="107.08" y="79.75" width="2" height="2" transform="translate(-7.83 149.81) rotate(-67.55)"/><rect class="cls-3" x="154.81" y="95.15" width="2" height="2" transform="translate(7.46 203.45) rotate(-67.55)"/><rect class="cls-3" x="152.2" y="96.23" width="2" height="2" transform="translate(4.84 201.7) rotate(-67.55)"/><rect class="cls-3" x="149.59" y="97.32" width="2" height="2" transform="translate(2.22 199.96) rotate(-67.55)"/><rect class="cls-3" x="151.12" y="93.62" width="2" height="2" transform="translate(6.58 199.09) rotate(-67.55)"/><rect class="cls-3" x="158.51" y="96.68" width="2" height="2" transform="translate(8.33 207.81) rotate(-67.55)"/><rect class="cls-3" x="146.98" y="98.4" width="2" height="2" transform="translate(-0.39 198.22) rotate(-67.55)"/><rect class="cls-3" x="148.51" y="94.71" width="2" height="2" transform="translate(3.97 197.34) rotate(-67.55)"/><rect class="cls-3" x="147.42" y="92.09" width="2" height="2" transform="translate(5.71 194.72) rotate(-67.55)"/><rect class="cls-3" x="144.37" y="99.49" width="2" height="2" transform="translate(-3.01 196.47) rotate(-67.55)"/><rect class="cls-3" x="148.06" y="101.01" width="2" height="2" transform="translate(-2.14 200.83) rotate(-67.55)"/><rect class="cls-3" x="155.9" y="97.76" width="2" height="2" transform="translate(5.71 206.06) rotate(-67.55)"/><rect class="cls-3" x="153.29" y="98.85" width="2" height="2" transform="translate(3.1 204.32) rotate(-67.55)"/><rect class="cls-3" x="150.67" y="99.93" width="2" height="2" transform="translate(0.48 202.58) rotate(-67.55)"/><rect class="cls-3" x="145.45" y="102.1" width="2" height="2" transform="translate(-4.76 199.09) rotate(-67.55)"/><rect class="cls-3" x="144.81" y="93.18" width="2" height="2" transform="translate(3.09 192.98) rotate(-67.55)"/><rect class="cls-3" x="143.72" y="90.57" width="2" height="2" transform="translate(4.84 190.36) rotate(-67.55)"/><rect class="cls-2" x="103.26" y="89" width="2" height="2" transform="translate(-18.73 151.99) rotate(-67.55)"/><rect class="cls-2" x="107.72" y="88.68" width="2" height="2" transform="translate(-15.67 155.92) rotate(-67.55)"/><rect class="cls-2" x="106.19" y="92.37" width="2" height="2" transform="translate(-20.04 156.79) rotate(-67.55)"/><rect class="cls-2" x="103.58" y="93.46" width="2" height="2" transform="translate(-22.65 155.05) rotate(-67.55)"/><rect class="cls-2" x="107.28" y="94.98" width="2" height="2" transform="translate(-21.78 159.41) rotate(-67.55)"/><rect class="cls-2" x="100.64" y="90.08" width="2" height="2" transform="translate(-21.35 150.25) rotate(-67.55)"/><rect class="cls-2" x="102.17" y="86.38" width="2" height="2" transform="translate(-16.98 149.37) rotate(-67.55)"/><rect class="cls-2" x="101.85" y="81.92" width="2" height="2" transform="translate(-13.06 146.32) rotate(-67.55)"/><rect class="cls-2" x="103.38" y="78.23" width="2" height="2" transform="translate(-8.7 145.45) rotate(-67.55)"/><rect class="cls-2" x="105.55" y="83.45" width="2" height="2" transform="translate(-12.19 150.68) rotate(-67.55)"/><rect class="cls-2" x="98.03" y="91.17" width="2" height="2" transform="translate(-23.96 148.51) rotate(-67.55)"/><rect class="cls-2" x="95.1" y="87.79" width="2" height="2" transform="translate(-22.66 143.71) rotate(-67.55)"/><rect class="cls-1" x="99.44" y="39.47" width="2" height="20" transform="translate(16.37 123.41) rotate(-67.55)"/><rect class="cls-1" x="96.83" y="42.55" width="2" height="16" transform="translate(13.75 121.67) rotate(-67.55)"/><rect class="cls-1" x="89.6" y="48.73" width="2" height="2" transform="translate(10.04 114.47) rotate(-67.55)"/><rect class="cls-1" x="90.68" y="51.34" width="2" height="2" transform="translate(8.3 117.09) rotate(-67.55)"/><rect class="cls-1" x="93.29" y="50.26" width="2" height="2" transform="translate(10.92 118.84) rotate(-67.55)"/><rect class="cls-1" x="96.99" y="51.78" width="2" height="2" transform="translate(11.79 123.2) rotate(-67.55)"/><rect class="cls-1" x="93.61" y="54.72" width="2" height="2" transform="translate(6.99 121.89) rotate(-67.55)"/><rect class="cls-8" x="79.38" y="22.52" width="8" height="16" transform="matrix(0.38, -0.92, 0.92, 0.38, 23.34, 95.93)"/><polygon class="cls-9" points="81.22 25.3 80.45 27.14 78.6 26.38 77.84 28.23 76.92 27.85 75.39 31.55 74.46 31.16 77.52 23.77 81.22 25.3"/><rect class="cls-12" x="77.06" y="24.08" width="2" height="2" transform="translate(25.08 87.65) rotate(-67.55)"/><polygon class="cls-9" points="91.54 31.73 89.25 37.27 80.01 33.45 80.39 32.53 85.94 34.82 86.32 33.9 88.17 34.66 88.93 32.81 89.85 33.19 90.62 31.34 91.54 31.73"/><rect class="cls-1" x="81.17" y="26.68" width="1" height="16" transform="translate(18.43 96.92) rotate(-67.55)"/><rect class="cls-8" x="63.67" y="16.03" width="8" height="16" transform="matrix(0.38, -0.92, 0.92, 0.38, 19.62, 77.4)"/><polygon class="cls-9" points="65.5 18.81 64.74 20.65 62.89 19.89 62.13 21.74 61.2 21.36 59.67 25.05 58.75 24.67 61.81 17.28 65.5 18.81"/><rect class="cls-12" x="64.12" y="15.73" width="2" height="8" transform="translate(22.02 72.38) rotate(-67.55)"/><polygon class="cls-9" points="75.83 25.24 73.54 30.78 64.3 26.96 64.68 26.04 70.22 28.33 70.61 27.41 72.45 28.17 73.22 26.32 74.14 26.7 74.91 24.85 75.83 25.24"/><rect class="cls-1" x="65.45" y="20.19" width="1" height="16" transform="matrix(0.38, -0.92, 0.92, 0.38, 14.72, 78.38)"/><rect class="cls-12" x="72" y="28.48" width="2" height="2" transform="translate(17.88 85.69) rotate(-67.55)"/></g></g></g></g></svg>