<svg xmlns="http://www.w3.org/2000/svg" viewBox="0 0 454 124"><defs><style>.cls-1{fill:#2a3747;}.cls-2{fill:#96a5ab;}.cls-3{fill:#f1f0ee;}.cls-4{fill:#586c79;}.cls-5{fill:#fff;}.cls-6{fill:#182028;}.cls-7{fill:#2ca8f8;}.cls-8{fill:#235fda;}.cls-9{fill:#ee6928;}.cls-10{fill:#56142d;}.cls-11{fill:#f1c18d;}.cls-12{fill:#9d1b32;}</style></defs><g id="Layer_2" data-name="Layer 2"><g id="draft_assets" data-name="draft assets"><rect class="cls-1" x="36" y="122" width="414" height="2" transform="translate(486 246) rotate(180)"/><rect class="cls-2" y="67.93" width="454" height="26.12"/><rect class="cls-3" x="267" y="71" width="1" height="7"/><polygon class="cls-4" points="450 122 450 96 10 96 36 122 450 122"/><path class="cls-1" d="M415.77,117v-3.47h1.7v-1.7h1.7v-1.7h1.73V105h-3.39v1.72h-1.74V105h1.7v-1.73h5.17V105h1.7v5.15h-1.7v1.72h-1.72v1.7h-1.71v1.69h5.13V117Z"/><path class="cls-1" d="M429,117V106.74h-1.7V105H429v-1.73h3.45V117Z"/><path class="cls-5" d="M415.77,115.34v-3.47h1.7v-1.7h1.7v-1.71h1.73v-5.1h-3.39v1.72h-1.74v-1.75h1.7v-1.72h5.17v1.72h1.7v5.15h-1.7v1.73h-1.72v1.7h-1.71v1.68h5.13v1.75Z"/><path class="cls-5" d="M429,115.34V105.08h-1.7v-1.75H429v-1.72h3.45v13.73Z"/><rect class="cls-1" x="24" y="101" width="238" height="2" transform="translate(286 204) rotate(180)"/><rect class="cls-1" x="24" y="103" width="226" height="2" transform="translate(274 208) rotate(180)"/><rect class="cls-1" x="244" y="99" width="36" height="2" transform="translate(524 200) rotate(180)"/><rect class="cls-1" x="298" y="101" width="12" height="2" transform="translate(608 204) rotate(180)"/><rect class="cls-1" x="286" y="119" width="24" height="2" transform="translate(596 240) rotate(180)"/><rect class="cls-1" x="238" y="119" width="42" height="2" transform="translate(518 240) rotate(180)"/><rect class="cls-1" x="314" y="101" width="24" height="2" transform="translate(652 204) rotate(180)"/><rect class="cls-1" x="352" y="101" width="50" height="2" transform="translate(754 204) rotate(180)"/><rect class="cls-1" x="248" y="97" width="202" height="2" transform="translate(698 196) rotate(180)"/><rect class="cls-1" x="26" y="104" width="14" height="2" transform="translate(66 210) rotate(-180)"/><rect class="cls-1" x="24" y="108" width="12" height="2" transform="translate(60 218) rotate(-180)"/><rect class="cls-1" x="34" y="114" width="14" height="2" transform="translate(82 230) rotate(-180)"/><rect class="cls-1" x="40" y="110" width="2" height="2"/><rect class="cls-1" x="32" y="112" width="4" height="2"/><rect class="cls-1" x="36" y="106" width="2" height="2"/><rect class="cls-1" x="36" y="116" width="2" height="2"/><rect class="cls-1" x="38" y="118" width="2" height="2"/><rect class="cls-1" x="40" y="120" width="2" height="2"/><rect class="cls-1" x="42" y="117" width="2" height="2"/><rect class="cls-1" x="44" y="121" width="2" height="2"/><rect class="cls-1" x="54" y="119" width="2" height="2"/><rect class="cls-1" x="36" y="120" width="2" height="2"/><rect class="cls-1" x="40" y="106" width="2" height="2"/><rect class="cls-1" x="42" y="108" width="2" height="2"/><rect class="cls-1" x="44" y="104" width="2" height="2"/><rect class="cls-1" x="38" y="112" width="2" height="2"/><rect class="cls-1" x="36" y="110" width="2" height="2"/><rect class="cls-1" x="30" y="110" width="2" height="2"/><rect class="cls-6" x="22" y="110" width="4" height="2"/><rect class="cls-1" x="28" y="112" width="2" height="2"/><rect class="cls-1" x="20" y="98" width="4" height="2" transform="translate(44 198) rotate(180)"/><rect class="cls-6" x="29" y="93" width="2" height="12" transform="translate(-69 129) rotate(-90)"/><rect class="cls-1" x="8" y="98" width="6" height="2"/><rect class="cls-1" x="14" y="100" width="2" height="2"/><rect class="cls-1" x="16" y="102" width="2" height="2"/><rect class="cls-1" x="12" y="100" width="2" height="2"/><rect class="cls-1" x="16" y="104" width="2" height="2"/><rect class="cls-1" x="18" y="104" width="2" height="2"/><rect class="cls-1" x="20" y="104" width="2" height="2"/><rect class="cls-1" x="20" y="106" width="2" height="2"/><rect class="cls-6" x="22" y="108" width="8" height="2"/><rect class="cls-6" x="20" y="108" width="2" height="2"/><rect class="cls-1" x="26" y="110" width="2" height="2"/><rect class="cls-1" x="26" y="112" width="2" height="2"/><rect class="cls-1" x="26" y="114" width="2" height="2"/><rect class="cls-1" x="28" y="114" width="2" height="2"/><rect class="cls-1" x="30" y="114" width="2" height="2"/><rect class="cls-1" x="30" y="116" width="2" height="2"/><rect class="cls-1" x="32" y="116" width="2" height="2"/><rect class="cls-1" x="32" y="118" width="2" height="2"/><rect class="cls-1" x="34" y="118" width="2" height="2"/><rect class="cls-1" x="34" y="120" width="2" height="2"/><rect class="cls-6" x="36" y="76" width="2" height="50" transform="translate(-64 138) rotate(-90)"/><rect class="cls-6" x="33" y="85" width="2" height="36" transform="translate(-69 137) rotate(-90)"/><rect class="cls-6" x="24" y="96" width="2" height="18" transform="translate(-80 130) rotate(-90)"/><rect class="cls-6" x="25" y="101" width="2" height="12" transform="translate(-81 133) rotate(-90)"/><rect class="cls-2" y="75.96" width="246" height="24.04"/><rect class="cls-6" y="99" width="244" height="2"/><rect class="cls-4" y="98" width="244" height="1"/><rect class="cls-4" x="8" y="64" width="1" height="4"/><rect class="cls-1" x="9" y="64" width="1" height="4"/><rect class="cls-4" x="16" y="64" width="1" height="4"/><rect class="cls-1" x="17" y="64" width="1" height="4"/><rect class="cls-4" x="24" y="64" width="1" height="4"/><rect class="cls-1" x="25" y="64" width="1" height="4"/><rect class="cls-4" x="32" y="64" width="1" height="4"/><rect class="cls-1" x="33" y="64" width="1" height="4"/><rect class="cls-4" x="40" y="64" width="1" height="4"/><rect class="cls-1" x="41" y="64" width="1" height="4"/><rect class="cls-4" x="48" y="64" width="1" height="4"/><rect class="cls-1" x="49" y="64" width="1" height="4"/><rect class="cls-4" x="56" y="64" width="1" height="4"/><rect class="cls-1" x="57" y="64" width="1" height="4"/><rect class="cls-4" x="64" y="64" width="1" height="4"/><rect class="cls-1" x="65" y="64" width="1" height="4"/><rect class="cls-4" x="72" y="64" width="1" height="4"/><rect class="cls-1" x="73" y="64" width="1" height="4"/><rect class="cls-4" x="80" y="64" width="1" height="4"/><rect class="cls-1" x="81" y="64" width="1" height="4"/><rect class="cls-4" x="88" y="64" width="1" height="4"/><rect class="cls-1" x="89" y="64" width="1" height="4"/><rect class="cls-4" x="96" y="64" width="1" height="4"/><rect class="cls-1" x="97" y="64" width="1" height="4"/><rect class="cls-4" x="104" y="64" width="1" height="4"/><rect class="cls-1" x="105" y="64" width="1" height="4"/><rect class="cls-4" x="112" y="64" width="1" height="4"/><rect class="cls-1" x="113" y="64" width="1" height="4"/><rect class="cls-4" x="120" y="64" width="1" height="4"/><rect class="cls-1" x="121" y="64" width="1" height="4"/><rect class="cls-4" x="128" y="64" width="1" height="4"/><rect class="cls-1" x="129" y="64" width="1" height="4"/><rect class="cls-4" x="136" y="64" width="1" height="4"/><rect class="cls-1" x="137" y="64" width="1" height="4"/><rect class="cls-4" x="144" y="64" width="1" height="4"/><rect class="cls-1" x="145" y="64" width="1" height="4"/><rect class="cls-4" x="152" y="64" width="1" height="4"/><rect class="cls-1" x="153" y="64" width="1" height="4"/><rect class="cls-4" x="160" y="64" width="1" height="4"/><rect class="cls-1" x="161" y="64" width="1" height="4"/><rect class="cls-4" x="168" y="64" width="1" height="4"/><rect class="cls-1" x="169" y="64" width="1" height="4"/><rect class="cls-4" x="176" y="64" width="1" height="4"/><rect class="cls-1" x="177" y="64" width="1" height="4"/><rect class="cls-4" x="184" y="64" width="1" height="4"/><rect class="cls-1" x="185" y="64" width="1" height="4"/><rect class="cls-4" x="192" y="64" width="1" height="4"/><rect class="cls-1" x="193" y="64" width="1" height="4"/><rect class="cls-4" x="200" y="64" width="1" height="4"/><rect class="cls-1" x="201" y="64" width="1" height="4"/><rect class="cls-4" x="208" y="64" width="1" height="4"/><rect class="cls-1" x="209" y="64" width="1" height="4"/><rect class="cls-4" x="216" y="64" width="1" height="4"/><rect class="cls-1" x="217" y="64" width="1" height="4"/><rect class="cls-4" x="224" y="64" width="1" height="4"/><rect class="cls-1" x="225" y="64" width="1" height="4"/><rect class="cls-4" x="232" y="64" width="1" height="4"/><rect class="cls-1" x="233" y="64" width="1" height="4"/><rect class="cls-4" x="240" y="64" width="1" height="4"/><rect class="cls-1" x="241" y="64" width="1" height="4"/><rect class="cls-4" x="248" y="64" width="1" height="4"/><rect class="cls-1" x="249" y="64" width="1" height="4"/><rect class="cls-4" x="256" y="64" width="1" height="4"/><rect class="cls-1" x="257" y="64" width="1" height="4"/><rect class="cls-4" x="264" y="64" width="1" height="4"/><rect class="cls-1" x="265" y="64" width="1" height="4"/><rect class="cls-4" x="452" y="64" width="1" height="4"/><rect class="cls-1" x="453" y="64" width="1" height="4"/><rect class="cls-4" x="444" y="64" width="1" height="4"/><rect class="cls-1" x="445" y="64" width="1" height="4"/><rect class="cls-4" x="436" y="64" width="1" height="4"/><rect class="cls-1" x="437" y="64" width="1" height="4"/><rect class="cls-4" x="428" y="64" width="1" height="4"/><rect class="cls-1" x="429" y="64" width="1" height="4"/><rect class="cls-4" x="420" y="64" width="1" height="4"/><rect class="cls-1" x="421" y="64" width="1" height="4"/><rect class="cls-4" x="412" y="64" width="1" height="4"/><rect class="cls-1" x="413" y="64" width="1" height="4"/><rect class="cls-4" x="404" y="64" width="1" height="4"/><rect class="cls-1" x="405" y="64" width="1" height="4"/><rect class="cls-4" x="396" y="64" width="1" height="4"/><rect class="cls-1" x="397" y="64" width="1" height="4"/><rect class="cls-4" x="388" y="64" width="1" height="4"/><rect class="cls-1" x="389" y="64" width="1" height="4"/><rect class="cls-4" y="64" width="1" height="4"/><rect class="cls-1" x="1" y="64" width="1" height="4"/><rect class="cls-3" y="64" width="454" height="1"/><rect class="cls-3" x="4" y="74" width="142" height="1"/><rect class="cls-3" x="4" y="89" width="142" height="1"/><rect class="cls-4" x="2" y="68" width="452" height="1"/><rect class="cls-1" x="8" y="68" width="3" height="1"/><rect class="cls-1" y="68" width="3" height="1"/><rect class="cls-1" x="16" y="68" width="3" height="1"/><rect class="cls-1" x="24" y="68" width="3" height="1"/><rect class="cls-1" x="32" y="68" width="3" height="1"/><rect class="cls-1" x="40" y="68" width="3" height="1"/><rect class="cls-1" x="48" y="68" width="3" height="1"/><rect class="cls-1" x="56" y="68" width="3" height="1"/><rect class="cls-1" x="64" y="68" width="3" height="1"/><rect class="cls-1" x="72" y="68" width="3" height="1"/><rect class="cls-1" x="80" y="68" width="3" height="1"/><rect class="cls-1" x="88" y="68" width="3" height="1"/><rect class="cls-1" x="96" y="68" width="3" height="1"/><rect class="cls-1" x="104" y="68" width="3" height="1"/><rect class="cls-1" x="112" y="68" width="3" height="1"/><rect class="cls-1" x="120" y="68" width="3" height="1"/><rect class="cls-1" x="128" y="68" width="3" height="1"/><rect class="cls-1" x="136" y="68" width="3" height="1"/><rect class="cls-1" x="144" y="68" width="3" height="1"/><rect class="cls-1" x="152" y="68" width="3" height="1"/><rect class="cls-1" x="160" y="68" width="3" height="1"/><rect class="cls-1" x="168" y="68" width="3" height="1"/><rect class="cls-1" x="176" y="68" width="3" height="1"/><rect class="cls-1" x="184" y="68" width="3" height="1"/><rect class="cls-1" x="192" y="68" width="3" height="1"/><rect class="cls-1" x="200" y="68" width="3" height="1"/><rect class="cls-1" x="208" y="68" width="3" height="1"/><rect class="cls-1" x="216" y="68" width="3" height="1"/><rect class="cls-1" x="224" y="68" width="3" height="1"/><rect class="cls-1" x="232" y="68" width="3" height="1"/><rect class="cls-1" x="240" y="68" width="3" height="1"/><rect class="cls-1" x="248" y="68" width="3" height="1"/><rect class="cls-1" x="256" y="68" width="3" height="1"/><rect class="cls-1" x="264" y="68" width="3" height="1"/><rect class="cls-1" x="388" y="68" width="3" height="1"/><rect class="cls-1" x="396" y="68" width="3" height="1"/><rect class="cls-1" x="404" y="68" width="3" height="1"/><rect class="cls-1" x="412" y="68" width="3" height="1"/><rect class="cls-1" x="420" y="68" width="3" height="1"/><rect class="cls-1" x="428" y="68" width="3" height="1"/><rect class="cls-1" x="436" y="68" width="3" height="1"/><rect class="cls-1" x="444" y="68" width="3" height="1"/><rect class="cls-1" x="452" y="68" width="2" height="1"/><rect class="cls-4" x="453" y="69" width="1" height="23"/><rect class="cls-4" y="69" width="1" height="25"/><rect class="cls-2" x="268" y="56" width="114" height="22"/><rect class="cls-4" x="384" y="46" width="1" height="4"/><rect class="cls-6" x="384" y="46" width="1" height="2"/><rect class="cls-1" x="385" y="46" width="1" height="4"/><rect class="cls-3" x="264" y="46" width="122" height="1"/><rect class="cls-2" x="276" y="34" width="104" height="20"/><rect class="cls-2" x="264" y="50" width="122" height="8"/><rect class="cls-4" x="264" y="50" width="2" height="3"/><rect class="cls-4" x="275" y="50" width="1" height="5"/><rect class="cls-4" x="266" y="50" width="10" height="1"/><rect class="cls-6" x="265" y="50" width="2" height="1"/><rect class="cls-6" x="272" y="50" width="3" height="1"/><rect class="cls-6" x="380" y="50" width="1" height="5"/><rect class="cls-4" x="379" y="39" width="1" height="16"/><rect class="cls-4" x="276" y="39" width="1" height="16"/><rect class="cls-4" x="381" y="63" width="1" height="16"/><rect class="cls-4" x="268" y="63" width="1" height="16"/><path class="cls-1" d="M370,44V54h-6V44h6m1-1h-8V55h8V43Z"/><rect class="cls-7" x="366" y="45" width="2" height="2"/><rect class="cls-3" x="366" y="45" width="1" height="1"/><rect class="cls-8" x="367" y="46" width="1" height="1"/><path class="cls-1" d="M303,44V54h-6V44h6m1-1h-8V55h8V43Z"/><rect class="cls-7" x="299" y="45" width="2" height="2"/><rect class="cls-3" x="299" y="45" width="1" height="1"/><rect class="cls-8" x="300" y="46" width="1" height="1"/><rect class="cls-4" x="276" y="54" width="104" height="1"/><rect class="cls-4" x="264" y="47" width="1" height="3"/><rect class="cls-1" x="265" y="47" width="1" height="3"/><rect class="cls-4" x="272" y="47" width="1" height="3"/><rect class="cls-1" x="273" y="47" width="1" height="3"/><rect class="cls-6" x="272" y="47" width="2" height="1"/><rect class="cls-6" x="264" y="47" width="2" height="1"/><rect class="cls-6" x="268" y="60" width="114" height="2"/><rect class="cls-4" x="268" y="62" width="114" height="2"/><rect class="cls-4" x="276" y="40" width="104" height="2"/><rect class="cls-4" x="266" y="84" width="2" height="2"/><rect class="cls-3" x="253.86" y="71.86" width="22.29" height="2" transform="translate(192.14 337.86) rotate(-90)"/><rect class="cls-9" x="264" y="63.43" width="2" height="1.71"/><rect class="cls-10" x="264" y="60" width="2" height="1.71"/><rect class="cls-9" x="264" y="66.86" width="2" height="1.71"/><rect class="cls-9" x="264" y="70.29" width="2" height="1.71"/><rect class="cls-9" x="264" y="73.71" width="2" height="1.71"/><rect class="cls-9" x="264" y="77.14" width="2" height="1.71"/><rect class="cls-9" x="264" y="80.57" width="2" height="1.71"/><rect class="cls-11" x="264" y="61.71" width="2" height="1.71"/><rect class="cls-1" x="386" y="84" width="2" height="2"/><rect class="cls-3" x="373.86" y="71.86" width="22.29" height="2" transform="translate(312.14 457.86) rotate(-90)"/><rect class="cls-9" x="384" y="63.43" width="2" height="1.71"/><rect class="cls-10" x="384" y="60" width="2" height="1.71"/><rect class="cls-9" x="384" y="66.86" width="2" height="1.71"/><rect class="cls-9" x="384" y="70.29" width="2" height="1.71"/><rect class="cls-9" x="384" y="73.71" width="2" height="1.71"/><rect class="cls-9" x="384" y="77.14" width="2" height="1.71"/><rect class="cls-9" x="384" y="80.57" width="2" height="1.71"/><rect class="cls-11" x="384" y="61.71" width="2" height="1.71"/><rect class="cls-4" x="264" y="58" width="122" height="2"/><rect class="cls-1" x="264" y="58" width="122" height="1"/><rect class="cls-2" x="270" y="26" width="116" height="12"/><rect class="cls-4" x="382" y="32" width="2" height="2"/><rect class="cls-11" x="384" y="4" width="2" height="2" transform="translate(770 10) rotate(-180)"/><rect class="cls-12" x="386" y="4" width="2" height="2" transform="translate(774 10) rotate(-180)"/><rect class="cls-11" x="388" y="4" width="2" height="2" transform="translate(778 10) rotate(-180)"/><rect class="cls-12" x="390" y="4" width="2" height="2" transform="translate(782 10) rotate(-180)"/><rect class="cls-3" x="388" y="2" width="2" height="2" transform="translate(778 6) rotate(-180)"/><rect class="cls-9" x="386" y="2" width="2" height="2" transform="translate(774 6) rotate(-180)"/><rect class="cls-3" x="384" y="2" width="2" height="2" transform="translate(770 6) rotate(-180)"/><rect class="cls-3" x="384" width="2" height="2" transform="translate(770 2) rotate(-180)"/><rect class="cls-12" x="382" y="4" width="2" height="2" transform="translate(766 10) rotate(-180)"/><rect class="cls-9" x="382" y="2" width="2" height="2" transform="translate(766 6) rotate(-180)"/><rect class="cls-9" x="382" width="2" height="2" transform="translate(766 2) rotate(-180)"/><rect class="cls-9" x="386" width="2" height="2" transform="translate(774 2) rotate(-180)"/><rect class="cls-1" x="380" width="2" height="32" transform="translate(762 32) rotate(-180)"/><rect class="cls-4" x="270" y="36" width="116" height="2"/><rect class="cls-1" x="270" y="36" width="116" height="1"/><rect class="cls-6" x="276" y="38" width="104" height="2"/><rect class="cls-4" x="268" y="78" width="116" height="2"/><rect class="cls-1" x="268" y="78" width="116" height="1"/><rect class="cls-4" x="270" y="82" width="112" height="2"/><rect class="cls-4" x="402" y="86" width="50" height="2"/><rect class="cls-6" x="265" y="57" width="2" height="1"/><rect class="cls-6" x="273" y="57" width="2" height="1"/><rect class="cls-6" x="282" y="57" width="1" height="1"/><rect class="cls-6" x="289" y="57" width="2" height="1"/><rect class="cls-6" x="297" y="57" width="2" height="1"/><rect class="cls-6" x="305" y="57" width="2" height="1"/><rect class="cls-6" x="313" y="57" width="2" height="1"/><rect class="cls-6" x="321" y="57" width="2" height="1"/><rect class="cls-6" x="329" y="57" width="2" height="1"/><rect class="cls-6" x="337" y="57" width="2" height="1"/><rect class="cls-6" x="345" y="57" width="2" height="1"/><rect class="cls-6" x="353" y="57" width="2" height="1"/><rect class="cls-6" x="361" y="57" width="2" height="1"/><rect class="cls-6" x="369" y="57" width="2" height="1"/><rect class="cls-6" x="377" y="57" width="2" height="1"/><rect class="cls-4" x="264" y="54" width="1" height="4"/><rect class="cls-1" x="265" y="54" width="1" height="4"/><rect class="cls-4" x="272" y="54" width="1" height="4"/><rect class="cls-1" x="273" y="54" width="1" height="4"/><rect class="cls-4" x="280" y="54" width="1" height="4"/><rect class="cls-1" x="281" y="54" width="1" height="4"/><rect class="cls-4" x="288" y="54" width="1" height="4"/><rect class="cls-1" x="289" y="54" width="1" height="4"/><rect class="cls-4" x="296" y="54" width="1" height="4"/><rect class="cls-1" x="297" y="54" width="1" height="4"/><rect class="cls-4" x="304" y="54" width="1" height="4"/><rect class="cls-1" x="305" y="54" width="1" height="4"/><rect class="cls-4" x="312" y="54" width="1" height="4"/><rect class="cls-1" x="313" y="54" width="1" height="4"/><rect class="cls-4" x="320" y="54" width="1" height="4"/><rect class="cls-1" x="321" y="54" width="1" height="4"/><rect class="cls-4" x="328" y="54" width="1" height="4"/><rect class="cls-1" x="329" y="54" width="1" height="4"/><rect class="cls-4" x="336" y="54" width="1" height="4"/><rect class="cls-1" x="337" y="54" width="1" height="4"/><rect class="cls-4" x="344" y="54" width="1" height="4"/><rect class="cls-1" x="345" y="54" width="1" height="4"/><rect class="cls-4" x="360" y="54" width="1" height="4"/><rect class="cls-1" x="361" y="54" width="1" height="4"/><rect class="cls-4" x="368" y="54" width="1" height="4"/><rect class="cls-1" x="369" y="54" width="1" height="4"/><rect class="cls-4" x="376" y="54" width="1" height="4"/><rect class="cls-1" x="377" y="54" width="1" height="4"/><rect class="cls-4" x="384" y="54" width="1" height="4"/><rect class="cls-1" x="385" y="54" width="1" height="4"/><rect class="cls-4" x="352" y="54" width="1" height="4"/><rect class="cls-1" x="353" y="54" width="1" height="4"/><rect class="cls-3" x="264" y="53" width="122" height="1"/><rect class="cls-6" x="244" y="98" width="2" height="2"/><rect class="cls-6" x="246" y="97" width="2" height="2"/><rect class="cls-4" x="246" y="96" width="2" height="1"/><rect class="cls-4" x="244" y="97" width="2" height="1"/><rect class="cls-6" x="248" y="96" width="2" height="2"/><rect class="cls-2" x="248" y="94" width="2" height="2"/><rect class="cls-6" x="250" y="95" width="204" height="2"/><rect class="cls-4" x="248" y="95" width="2" height="1"/><rect class="cls-6" x="250" y="96" width="2" height="1"/><rect class="cls-6" x="246" y="98" width="2" height="1"/><rect class="cls-4" x="8" y="94" width="1" height="4"/><rect class="cls-1" x="9" y="94" width="1" height="4"/><rect class="cls-6" x="8" y="95" width="2" height="1"/><rect class="cls-4" y="94" width="1" height="4"/><rect class="cls-1" x="1" y="94" width="1" height="4"/><rect class="cls-6" y="95" width="2" height="1"/><rect class="cls-4" x="16" y="94" width="1" height="4"/><rect class="cls-1" x="17" y="94" width="1" height="4"/><rect class="cls-6" x="16" y="95" width="2" height="1"/><rect class="cls-4" x="24" y="94" width="1" height="4"/><rect class="cls-1" x="25" y="94" width="1" height="4"/><rect class="cls-6" x="24" y="95" width="2" height="1"/><rect class="cls-4" x="32" y="94" width="1" height="4"/><rect class="cls-1" x="33" y="94" width="1" height="4"/><rect class="cls-6" x="32" y="95" width="2" height="1"/><rect class="cls-4" x="40" y="94" width="1" height="4"/><rect class="cls-1" x="41" y="94" width="1" height="4"/><rect class="cls-4" x="48" y="94" width="1" height="4"/><rect class="cls-1" x="49" y="94" width="1" height="4"/><rect class="cls-4" x="56" y="94" width="1" height="4"/><rect class="cls-1" x="57" y="94" width="1" height="4"/><rect class="cls-4" x="64" y="94" width="1" height="4"/><rect class="cls-1" x="65" y="94" width="1" height="4"/><rect class="cls-4" x="72" y="94" width="1" height="4"/><rect class="cls-1" x="73" y="94" width="1" height="4"/><rect class="cls-4" x="80" y="94" width="1" height="4"/><rect class="cls-1" x="81" y="94" width="1" height="4"/><rect class="cls-4" x="88" y="94" width="1" height="4"/><rect class="cls-1" x="89" y="94" width="1" height="4"/><rect class="cls-4" x="96" y="94" width="1" height="4"/><rect class="cls-1" x="97" y="94" width="1" height="4"/><rect class="cls-4" x="104" y="94" width="1" height="4"/><rect class="cls-1" x="105" y="94" width="1" height="4"/><rect class="cls-4" x="112" y="94" width="1" height="4"/><rect class="cls-1" x="113" y="94" width="1" height="4"/><rect class="cls-4" x="120" y="94" width="1" height="4"/><rect class="cls-1" x="121" y="94" width="1" height="4"/><rect class="cls-4" x="128" y="94" width="1" height="4"/><rect class="cls-1" x="129" y="94" width="1" height="4"/><rect class="cls-4" x="136" y="94" width="1" height="4"/><rect class="cls-1" x="137" y="94" width="1" height="4"/><rect class="cls-4" x="144" y="94" width="1" height="4"/><rect class="cls-1" x="145" y="94" width="1" height="4"/><rect class="cls-4" x="152" y="94" width="1" height="4"/><rect class="cls-1" x="153" y="94" width="1" height="4"/><rect class="cls-4" x="160" y="94" width="1" height="4"/><rect class="cls-1" x="161" y="94" width="1" height="4"/><rect class="cls-4" x="168" y="94" width="1" height="4"/><rect class="cls-1" x="169" y="94" width="1" height="4"/><rect class="cls-4" x="176" y="94" width="1" height="4"/><rect class="cls-1" x="177" y="94" width="1" height="4"/><rect class="cls-4" x="184" y="94" width="1" height="4"/><rect class="cls-1" x="185" y="94" width="1" height="4"/><rect class="cls-4" x="192" y="94" width="1" height="4"/><rect class="cls-1" x="193" y="94" width="1" height="4"/><rect class="cls-4" x="200" y="94" width="1" height="4"/><rect class="cls-1" x="201" y="94" width="1" height="4"/><rect class="cls-4" x="208" y="94" width="1" height="4"/><rect class="cls-1" x="209" y="94" width="1" height="4"/><rect class="cls-4" x="216" y="94" width="1" height="4"/><rect class="cls-1" x="217" y="94" width="1" height="4"/><rect class="cls-4" x="224" y="94" width="1" height="4"/><rect class="cls-1" x="225" y="94" width="1" height="4"/><rect class="cls-4" x="232" y="94" width="1" height="4"/><rect class="cls-1" x="233" y="94" width="1" height="4"/><rect class="cls-4" x="240" y="94" width="1" height="4"/><rect class="cls-1" x="241" y="94" width="1" height="4"/><rect class="cls-4" x="246" y="92" width="1" height="4"/><rect class="cls-1" x="247" y="92" width="1" height="4"/><rect class="cls-4" x="452" y="90" width="1" height="4"/><rect class="cls-1" x="453" y="90" width="1" height="4"/><rect class="cls-4" x="444" y="90" width="1" height="4"/><rect class="cls-1" x="445" y="90" width="1" height="4"/><rect class="cls-4" x="436" y="90" width="1" height="4"/><rect class="cls-1" x="437" y="90" width="1" height="4"/><rect class="cls-4" x="428" y="90" width="1" height="4"/><rect class="cls-1" x="429" y="90" width="1" height="4"/><rect class="cls-4" x="420" y="90" width="1" height="4"/><rect class="cls-1" x="421" y="90" width="1" height="4"/><rect class="cls-4" x="412" y="90" width="1" height="4"/><rect class="cls-1" x="413" y="90" width="1" height="4"/><rect class="cls-4" x="404" y="90" width="1" height="4"/><rect class="cls-1" x="405" y="90" width="1" height="4"/><rect class="cls-4" x="396" y="90" width="1" height="4"/><rect class="cls-1" x="397" y="90" width="1" height="4"/><rect class="cls-4" x="388" y="90" width="1" height="4"/><rect class="cls-1" x="389" y="90" width="1" height="4"/><rect class="cls-4" x="380" y="90" width="1" height="4"/><rect class="cls-1" x="381" y="90" width="1" height="4"/><rect class="cls-4" x="372" y="90" width="1" height="4"/><rect class="cls-1" x="373" y="90" width="1" height="4"/><rect class="cls-4" x="364" y="90" width="1" height="4"/><rect class="cls-1" x="365" y="90" width="1" height="4"/><rect class="cls-4" x="356" y="90" width="1" height="4"/><rect class="cls-1" x="357" y="90" width="1" height="4"/><rect class="cls-4" x="348" y="90" width="1" height="4"/><rect class="cls-1" x="349" y="90" width="1" height="4"/><rect class="cls-4" x="340" y="90" width="1" height="4"/><rect class="cls-1" x="341" y="90" width="1" height="4"/><rect class="cls-4" x="332" y="90" width="1" height="4"/><rect class="cls-1" x="333" y="90" width="1" height="4"/><rect class="cls-4" x="324" y="90" width="1" height="4"/><rect class="cls-1" x="325" y="90" width="1" height="4"/><rect class="cls-4" x="316" y="90" width="1" height="4"/><rect class="cls-1" x="317" y="90" width="1" height="4"/><rect class="cls-4" x="308" y="90" width="1" height="4"/><rect class="cls-1" x="309" y="90" width="1" height="4"/><rect class="cls-4" x="300" y="90" width="1" height="4"/><rect class="cls-1" x="301" y="90" width="1" height="4"/><rect class="cls-4" x="292" y="90" width="1" height="4"/><rect class="cls-1" x="293" y="90" width="1" height="4"/><rect class="cls-4" x="284" y="90" width="1" height="4"/><rect class="cls-1" x="285" y="90" width="1" height="4"/><rect class="cls-4" x="276" y="90" width="1" height="4"/><rect class="cls-1" x="277" y="90" width="1" height="4"/><rect class="cls-4" x="268" y="90" width="1" height="4"/><rect class="cls-1" x="269" y="90" width="1" height="4"/><rect class="cls-4" x="260" y="90" width="1" height="4"/><rect class="cls-1" x="261" y="90" width="1" height="4"/><rect class="cls-4" x="252" y="90" width="1" height="4"/><rect class="cls-1" x="253" y="90" width="1" height="4"/><rect class="cls-3" y="94" width="244" height="1"/><rect class="cls-3" x="250" y="90" width="204" height="1"/><rect class="cls-3" x="246" y="92" width="2" height="1"/><rect class="cls-3" x="248" y="91" width="2" height="1"/><rect class="cls-3" x="244" y="93" width="2" height="1"/><rect class="cls-4" x="382" y="68" width="2" height="10"/><rect class="cls-1" x="382" y="70" width="2" height="8"/><rect class="cls-3" x="264" y="46" width="1" height="7"/><rect class="cls-3" x="385" y="46" width="1" height="7"/><rect class="cls-4" x="385" y="26" width="1" height="10"/><rect class="cls-3" x="270" y="26" width="1" height="4"/><rect class="cls-4" x="270" y="30" width="1" height="6"/><rect class="cls-4" x="332.5" y="-14.5" width="1" height="82" transform="translate(359.5 -306.5) rotate(90)"/><rect class="cls-3" x="277.5" y="18.5" width="1" height="16" transform="translate(304.5 -251.5) rotate(90)"/><rect class="cls-4" x="284.5" y="17.5" width="1" height="22" transform="translate(313.5 -256.5) rotate(90)"/><rect class="cls-3" x="288.5" y="25.5" width="1" height="2" transform="translate(315.5 -262.5) rotate(90)"/><rect class="cls-4" x="300" y="6" width="2" height="22"/><rect class="cls-1" x="302" y="6" width="2" height="22"/><rect class="cls-6" x="302" y="18" width="2" height="2"/><rect class="cls-1" x="300" y="18" width="2" height="2"/><rect class="cls-1" x="304" y="28" width="2" height="2"/><rect class="cls-1" x="302" y="30" width="2" height="2"/><rect class="cls-6" x="302" y="28" width="2" height="2"/><rect class="cls-1" x="300" y="28" width="2" height="2"/><rect class="cls-4" x="304" y="30" width="2" height="2"/><rect class="cls-4" x="306" y="32" width="2" height="2"/><rect class="cls-4" x="294" y="8" width="16" height="10"/><polygon class="cls-1" points="310 14 310 18 294 18 294 17 308 17 308 14 310 14"/><rect class="cls-1" x="308" y="10" width="2" height="2"/><rect class="cls-12" x="301" y="12" width="2" height="2"/><rect class="cls-1" x="299" y="12" width="2" height="2"/><rect class="cls-1" x="301" y="10" width="2" height="2"/><rect class="cls-1" x="301" y="14" width="2" height="2"/><rect class="cls-1" x="300" y="14" width="1" height="1"/><rect class="cls-1" x="303" y="14" width="1" height="1"/><rect class="cls-1" x="300" y="11" width="1" height="1"/><rect class="cls-1" x="303" y="11" width="1" height="1"/><rect class="cls-1" x="303" y="12" width="2" height="2"/><polygon class="cls-3" points="298 8 298 10 296 10 296 12 294 12 294 8 298 8"/><rect class="cls-4" x="337" y="6" width="2" height="22"/><rect class="cls-1" x="339" y="6" width="2" height="22"/><rect class="cls-6" x="339" y="18" width="2" height="2"/><rect class="cls-1" x="337" y="18" width="2" height="2"/><rect class="cls-1" x="341" y="28" width="2" height="2"/><rect class="cls-1" x="339" y="30" width="2" height="2"/><rect class="cls-6" x="339" y="28" width="2" height="2"/><rect class="cls-1" x="337" y="28" width="2" height="2"/><rect class="cls-4" x="341" y="30" width="2" height="2"/><rect class="cls-4" x="343" y="32" width="2" height="2"/><rect class="cls-4" x="331" y="8" width="16" height="10"/><polygon class="cls-1" points="347 14 347 18 331 18 331 17 345 17 345 14 347 14"/><rect class="cls-1" x="345" y="10" width="2" height="2"/><rect class="cls-12" x="338" y="12" width="2" height="2"/><rect class="cls-1" x="336" y="12" width="2" height="2"/><rect class="cls-1" x="338" y="10" width="2" height="2"/><rect class="cls-1" x="338" y="14" width="2" height="2"/><rect class="cls-1" x="337" y="14" width="1" height="1"/><rect class="cls-1" x="340" y="14" width="1" height="1"/><rect class="cls-1" x="337" y="11" width="1" height="1"/><rect class="cls-1" x="340" y="11" width="1" height="1"/><rect class="cls-1" x="340" y="12" width="2" height="2"/><polygon class="cls-3" points="335 8 335 10 333 10 333 12 331 12 331 8 335 8"/><rect class="cls-6" x="264" y="54" width="2" height="1"/><rect class="cls-6" x="272" y="54" width="2" height="1"/><rect class="cls-6" x="280" y="54" width="2" height="1"/><rect class="cls-6" x="288" y="54" width="2" height="1"/><rect class="cls-6" x="296" y="54" width="2" height="1"/><rect class="cls-6" x="304" y="54" width="2" height="1"/><rect class="cls-6" x="312" y="54" width="2" height="1"/><rect class="cls-6" x="320" y="54" width="2" height="1"/><rect class="cls-6" x="328" y="54" width="2" height="1"/><rect class="cls-6" x="336" y="54" width="2" height="1"/><rect class="cls-6" x="344" y="54" width="2" height="1"/><rect class="cls-6" x="352" y="54" width="2" height="1"/><rect class="cls-6" x="360" y="54" width="2" height="1"/><rect class="cls-6" x="368" y="54" width="2" height="1"/><rect class="cls-6" x="376" y="54" width="2" height="1"/><rect class="cls-6" x="384" y="54" width="2" height="1"/><rect class="cls-6" x="40" y="95" width="2" height="1"/><rect class="cls-6" x="48" y="95" width="2" height="1"/><rect class="cls-6" x="56" y="95" width="2" height="1"/><rect class="cls-6" x="64" y="95" width="2" height="1"/><rect class="cls-6" x="72" y="95" width="2" height="1"/><rect class="cls-6" x="80" y="95" width="2" height="1"/><rect class="cls-6" x="88" y="95" width="2" height="1"/><rect class="cls-6" x="96" y="95" width="2" height="1"/><rect class="cls-6" x="104" y="95" width="2" height="1"/><rect class="cls-6" x="112" y="95" width="2" height="1"/><rect class="cls-6" x="120" y="95" width="2" height="1"/><rect class="cls-6" x="128" y="95" width="2" height="1"/><rect class="cls-6" x="136" y="95" width="2" height="1"/><rect class="cls-6" x="144" y="95" width="2" height="1"/><rect class="cls-6" x="152" y="95" width="2" height="1"/><rect class="cls-6" x="160" y="95" width="2" height="1"/><rect class="cls-6" x="168" y="95" width="2" height="1"/><rect class="cls-6" x="176" y="95" width="2" height="1"/><rect class="cls-6" x="192" y="95" width="2" height="1"/><rect class="cls-6" x="200" y="95" width="2" height="1"/><rect class="cls-6" x="208" y="95" width="2" height="1"/><rect class="cls-6" x="216" y="95" width="2" height="1"/><rect class="cls-6" x="224" y="95" width="2" height="1"/><rect class="cls-6" x="232" y="95" width="2" height="1"/><rect class="cls-6" x="240" y="95" width="2" height="1"/><rect class="cls-6" x="246" y="93" width="2" height="1"/><rect class="cls-6" x="252" y="91" width="2" height="1"/><rect class="cls-6" x="260" y="91" width="2" height="1"/><rect class="cls-6" x="268" y="91" width="2" height="1"/><rect class="cls-6" x="276" y="91" width="2" height="1"/><rect class="cls-6" x="284" y="91" width="2" height="1"/><rect class="cls-6" x="292" y="91" width="2" height="1"/><rect class="cls-6" x="300" y="91" width="2" height="1"/><rect class="cls-6" x="308" y="91" width="2" height="1"/><rect class="cls-6" x="316" y="91" width="2" height="1"/><rect class="cls-6" x="324" y="91" width="2" height="1"/><rect class="cls-6" x="332" y="91" width="2" height="1"/><rect class="cls-6" x="340" y="91" width="2" height="1"/><rect class="cls-6" x="348" y="91" width="2" height="1"/><rect class="cls-6" x="356" y="91" width="2" height="1"/><rect class="cls-6" x="364" y="91" width="2" height="1"/><rect class="cls-6" x="372" y="91" width="2" height="1"/><rect class="cls-6" x="380" y="91" width="2" height="1"/><rect class="cls-6" x="388" y="91" width="2" height="1"/><rect class="cls-6" x="396" y="91" width="2" height="1"/><rect class="cls-6" x="404" y="91" width="2" height="1"/><rect class="cls-6" x="412" y="91" width="2" height="1"/><rect class="cls-6" x="420" y="91" width="2" height="1"/><rect class="cls-6" x="428" y="91" width="2" height="1"/><rect class="cls-6" x="436" y="91" width="2" height="1"/><rect class="cls-6" x="444" y="91" width="2" height="1"/><rect class="cls-6" x="452" y="91" width="2" height="1"/><rect class="cls-4" x="250" y="94" width="204" height="1"/><rect class="cls-6" x="448" y="97" width="2" height="27"/><path class="cls-1" d="M370,68V78h-6V68h6m1-1h-8V79h8V67Z"/><rect class="cls-7" x="366" y="69" width="2" height="2"/><rect class="cls-3" x="366" y="69" width="1" height="1"/><rect class="cls-8" x="367" y="70" width="1" height="1"/><rect class="cls-1" x="316" y="119" width="130" height="2" transform="translate(762 240) rotate(180)"/></g></g></svg>