<svg xmlns="http://www.w3.org/2000/svg" viewBox="0 0 178 84"><defs><style>.cls-1{fill:#586c79;}.cls-2{fill:#2a3747;}.cls-3{fill:#182028;}.cls-4{fill:#9d1b32;}.cls-5{fill:#f1f0ee;}.cls-6{fill:#96a5ab;}.cls-7{fill:#293746;}.cls-8{fill:#2ca8f8;}.cls-9{fill:#235fda;}.cls-10{fill:#f1c18d;}.cls-11{fill:#ee6928;}.cls-12{fill:#1148a8;}</style></defs><g id="Layer_2" data-name="Layer 2"><g id="Battleships_Sideview" data-name="Battleships Sideview"><rect class="cls-1" x="66" y="2" width="2" height="22"/><rect class="cls-2" x="68" y="2" width="2" height="22"/><rect class="cls-3" x="68" y="14" width="2" height="2"/><rect class="cls-2" x="66" y="14" width="2" height="2"/><rect class="cls-1" x="60" y="4" width="16" height="10"/><polygon class="cls-2" points="76 10 76 14 60 14 60 13 74 13 74 10 76 10"/><rect class="cls-2" x="74" y="6" width="2" height="2"/><rect class="cls-4" x="67" y="8" width="2" height="2"/><rect class="cls-2" x="65" y="8" width="2" height="2"/><rect class="cls-2" x="67" y="6" width="2" height="2"/><rect class="cls-2" x="67" y="10" width="2" height="2"/><rect class="cls-2" x="66" y="10" width="1" height="1"/><rect class="cls-2" x="69" y="10" width="1" height="1"/><rect class="cls-2" x="66" y="7" width="1" height="1"/><rect class="cls-2" x="69" y="7" width="1" height="1"/><rect class="cls-2" x="69" y="8" width="2" height="2"/><polygon class="cls-5" points="64 4 64 6 62 6 62 8 60 8 60 4 64 4"/><rect class="cls-6" x="16" y="32" width="32" height="12"/><rect class="cls-1" x="16" y="36" width="32" height="10"/><polygon class="cls-2" points="48 42 48 47 30 47 30 48 24 48 24 49 16 49 16 42 48 42"/><rect class="cls-6" x="16" y="30" width="8" height="2"/><rect class="cls-6" x="48" y="22" width="40" height="34"/><rect class="cls-6" x="88" y="38" width="28" height="20"/><rect class="cls-1" x="100" y="50" width="16" height="2"/><rect class="cls-1" x="112" y="48" width="4" height="2"/><rect class="cls-2" x="44" y="34" width="2" height="8"/><rect class="cls-1" x="50" y="50" width="38" height="4"/><rect class="cls-1" x="72" y="48" width="16" height="2"/><rect class="cls-1" x="86" y="44" width="2" height="4"/><rect class="cls-1" x="87" y="24" width="1" height="32"/><rect class="cls-1" x="88" y="38" width="2" height="18"/><rect class="cls-7" x="88" y="38" width="1" height="18"/><rect class="cls-1" x="115" y="38" width="1" height="18"/><rect class="cls-1" x="48" y="24" width="1" height="32"/><rect class="cls-2" x="50" y="52" width="38" height="4"/><rect class="cls-2" x="88" y="52" width="28" height="4"/><rect class="cls-7" x="48" y="22" width="40" height="2"/><rect class="cls-1" x="44" y="20" width="48" height="2"/><rect class="cls-6" x="44" y="20" width="34.5" height="2"/><rect class="cls-1" x="68" y="20" width="6" height="2"/><rect class="cls-7" x="44" y="21" width="48" height="1"/><rect class="cls-3" x="48" y="22" width="40" height="1"/><rect class="cls-7" x="88" y="38" width="28" height="2"/><rect class="cls-6" x="88" y="36" width="32" height="2"/><rect class="cls-1" x="88" y="36" width="22" height="2"/><rect class="cls-7" x="88" y="37" width="32" height="1"/><rect class="cls-3" x="88" y="38" width="28" height="1"/><rect class="cls-6" x="24" y="30" width="6" height="1"/><rect class="cls-5" x="24" y="30" width="2" height="1"/><rect class="cls-1" x="28" y="31" width="20" height="2"/><rect class="cls-2" x="46" y="32" width="2" height="10"/><rect class="cls-1" x="16" y="29" width="8" height="2"/><rect class="cls-6" x="20" y="29" width="4" height="1"/><rect class="cls-5" x="16" y="29" width="2" height="1"/><rect class="cls-5" x="20" y="29" width="2" height="1"/><rect class="cls-1" x="22" y="30" width="8" height="2"/><rect class="cls-6" x="36" y="31" width="12" height="1"/><rect class="cls-1" x="34" y="32" width="12" height="2"/><rect class="cls-2" x="46" y="36" width="2" height="10"/><rect class="cls-1" x="48" y="24" width="28" height="2"/><rect class="cls-1" x="48" y="26" width="18" height="2"/><rect class="cls-1" x="48" y="28" width="10" height="2"/><rect class="cls-1" x="48" y="28" width="10" height="2"/><rect class="cls-1" x="48" y="30" width="2" height="2"/><rect class="cls-1" x="84" y="46" width="2" height="2"/><rect class="cls-1" x="80" y="46" width="2" height="2"/><rect class="cls-1" x="82" y="44" width="2" height="2"/><rect class="cls-1" x="66" y="28" width="2" height="2"/><rect class="cls-1" x="58" y="30" width="2" height="2"/><rect class="cls-1" x="60" y="28" width="2" height="2"/><rect class="cls-1" x="54" y="30" width="2" height="2"/><rect class="cls-1" x="50" y="30" width="2" height="2"/><rect class="cls-1" x="52" y="32" width="2" height="2"/><rect class="cls-1" x="48" y="32" width="2" height="2"/><rect class="cls-1" x="84" y="42" width="2" height="2"/><rect class="cls-1" x="84" y="38" width="2" height="2"/><path class="cls-2" d="M111,45V55h-6V45h6m1-1h-8V56h8V44Z"/><rect class="cls-8" x="107" y="47" width="2" height="2"/><rect class="cls-5" x="107" y="47" width="1" height="1"/><rect class="cls-9" x="108" y="48" width="1" height="1"/><path class="cls-2" d="M61,45V55H55V45h6m1-1H54V56h8V44Z"/><rect class="cls-8" x="57" y="47" width="2" height="2"/><rect class="cls-5" x="57" y="47" width="1" height="1"/><rect class="cls-9" x="58" y="48" width="1" height="1"/><rect class="cls-10" x="76" y="4" width="2" height="2" transform="translate(154 10) rotate(-180)"/><rect class="cls-4" x="78" y="4" width="2" height="2" transform="translate(158 10) rotate(-180)"/><rect class="cls-10" x="80" y="4" width="2" height="2" transform="translate(162 10) rotate(-180)"/><rect class="cls-4" x="82" y="4" width="2" height="2" transform="translate(166 10) rotate(-180)"/><rect class="cls-5" x="80" y="2" width="2" height="2" transform="translate(162 6) rotate(-180)"/><rect class="cls-11" x="78" y="2" width="2" height="2" transform="translate(158 6) rotate(-180)"/><rect class="cls-5" x="76" y="2" width="2" height="2" transform="translate(154 6) rotate(-180)"/><rect class="cls-5" x="76" width="2" height="2" transform="translate(154 2) rotate(-180)"/><rect class="cls-4" x="74" y="4" width="2" height="2" transform="translate(150 10) rotate(-180)"/><rect class="cls-11" x="74" y="2" width="2" height="2" transform="translate(150 6) rotate(-180)"/><rect class="cls-11" x="74" width="2" height="2" transform="translate(150 2) rotate(-180)"/><rect class="cls-11" x="78" width="2" height="2" transform="translate(158 2) rotate(-180)"/><rect class="cls-2" x="72" width="2" height="20" transform="translate(146 20) rotate(-180)"/><rect class="cls-6" x="72" width="1" height="20" transform="translate(145 20) rotate(-180)"/><rect class="cls-5" x="72" width="1" height="6" transform="translate(145 6) rotate(-180)"/><polygon class="cls-1" points="28 84 2 58 102 58 102 84 28 84"/><polygon class="cls-1" points="146 84 172 58 70 58 70 84 146 84"/><rect class="cls-3" x="87" y="-29" width="4" height="178" transform="translate(149 -29) rotate(90)"/><rect class="cls-1" x="87" y="-31" width="4" height="178" transform="translate(147 -31) rotate(90)"/><rect class="cls-6" x="88" y="-32" width="2" height="178" transform="translate(146 -32) rotate(90)"/><rect class="cls-3" y="52" width="2" height="1"/><rect class="cls-1" y="52" width="1" height="4"/><rect class="cls-2" x="1" y="52" width="1" height="4"/><rect class="cls-1" x="8" y="52" width="1" height="4"/><rect class="cls-2" x="9" y="52" width="1" height="4"/><rect class="cls-1" x="16" y="52" width="1" height="4"/><rect class="cls-2" x="17" y="52" width="1" height="4"/><rect class="cls-1" x="24" y="52" width="1" height="4"/><rect class="cls-2" x="25" y="52" width="1" height="4"/><rect class="cls-1" x="32" y="52" width="1" height="4"/><rect class="cls-2" x="33" y="52" width="1" height="4"/><rect class="cls-1" x="40" y="52" width="1" height="4"/><rect class="cls-2" x="41" y="52" width="1" height="4"/><rect class="cls-1" x="48" y="52" width="1" height="4"/><rect class="cls-2" x="49" y="52" width="1" height="4"/><rect class="cls-1" x="56" y="52" width="1" height="4"/><rect class="cls-2" x="57" y="52" width="1" height="4"/><rect class="cls-1" x="64" y="52" width="1" height="4"/><rect class="cls-2" x="65" y="52" width="1" height="4"/><rect class="cls-1" x="72" y="52" width="1" height="4"/><rect class="cls-2" x="73" y="52" width="1" height="4"/><rect class="cls-1" x="88" y="52" width="1" height="4"/><rect class="cls-2" x="89" y="52" width="1" height="4"/><rect class="cls-1" x="96" y="52" width="1" height="4"/><rect class="cls-2" x="97" y="52" width="1" height="4"/><rect class="cls-1" x="104" y="52" width="1" height="4"/><rect class="cls-2" x="105" y="52" width="1" height="4"/><rect class="cls-1" x="80" y="52" width="1" height="4"/><rect class="cls-2" x="81" y="52" width="1" height="4"/><rect class="cls-5" y="51" width="178" height="1"/><rect class="cls-3" y="52" width="2" height="1"/><rect class="cls-3" x="8" y="52" width="2" height="1"/><rect class="cls-3" x="16" y="52" width="2" height="1"/><rect class="cls-3" x="24" y="52" width="2" height="1"/><rect class="cls-3" x="32" y="52" width="2" height="1"/><rect class="cls-3" x="40" y="52" width="2" height="1"/><rect class="cls-3" x="48" y="52" width="2" height="1"/><rect class="cls-3" x="56" y="52" width="2" height="1"/><rect class="cls-3" x="64" y="52" width="2" height="1"/><rect class="cls-3" x="72" y="52" width="2" height="1"/><rect class="cls-3" x="80" y="52" width="2" height="1"/><rect class="cls-3" x="88" y="52" width="2" height="1"/><rect class="cls-3" x="96" y="52" width="2" height="1"/><rect class="cls-3" x="104" y="52" width="2" height="1"/><rect class="cls-1" x="112" y="52" width="1" height="4"/><rect class="cls-2" x="113" y="52" width="1" height="4"/><rect class="cls-3" x="112" y="52" width="2" height="1"/><rect class="cls-1" x="120" y="52" width="1" height="4"/><rect class="cls-2" x="121" y="52" width="1" height="4"/><rect class="cls-3" x="120" y="52" width="2" height="1"/><rect class="cls-1" x="128" y="52" width="1" height="4"/><rect class="cls-2" x="129" y="52" width="1" height="4"/><rect class="cls-3" x="128" y="52" width="2" height="1"/><rect class="cls-1" x="136" y="52" width="1" height="4"/><rect class="cls-2" x="137" y="52" width="1" height="4"/><rect class="cls-3" x="136" y="52" width="2" height="1"/><rect class="cls-1" x="144" y="52" width="1" height="4"/><rect class="cls-2" x="145" y="52" width="1" height="4"/><rect class="cls-3" x="144" y="52" width="2" height="1"/><rect class="cls-1" x="152" y="52" width="1" height="4"/><rect class="cls-2" x="153" y="52" width="1" height="4"/><rect class="cls-3" x="152" y="52" width="2" height="1"/><rect class="cls-1" x="160" y="52" width="1" height="4"/><rect class="cls-2" x="161" y="52" width="1" height="4"/><rect class="cls-3" x="160" y="52" width="2" height="1"/><rect class="cls-1" x="168" y="52" width="1" height="4"/><rect class="cls-2" x="169" y="52" width="1" height="4"/><rect class="cls-3" x="168" y="52" width="2" height="1"/><rect class="cls-1" x="176" y="52" width="1" height="4"/><rect class="cls-2" x="177" y="52" width="1" height="4"/><rect class="cls-3" x="176" y="52" width="2" height="1"/><rect class="cls-2" x="6" y="62" width="172" height="2"/><rect class="cls-2" x="12" y="64" width="48" height="2"/><rect class="cls-2" x="14" y="64" width="68" height="2"/><rect class="cls-2" x="14" y="66" width="42" height="2"/><rect class="cls-2" x="14" y="68" width="40" height="2"/><rect class="cls-2" x="18" y="70" width="32" height="2"/><rect class="cls-2" x="20" y="72" width="26" height="2"/><rect class="cls-2" x="18" y="74" width="32" height="2"/><rect class="cls-2" x="24" y="76" width="24" height="2"/><rect class="cls-2" x="26" y="78" width="26" height="2"/><rect class="cls-2" x="26" y="80" width="32" height="2"/><rect class="cls-2" x="2" y="60" width="6" height="2"/><rect class="cls-3" x="8" y="62" width="2" height="2"/><rect class="cls-2" x="8" y="64" width="2" height="2"/><rect class="cls-3" x="10" y="64" width="2" height="2"/><rect class="cls-2" x="10" y="66" width="2" height="2"/><rect class="cls-3" x="12" y="66" width="2" height="2"/><rect class="cls-2" x="12" y="68" width="2" height="2"/><rect class="cls-2" x="18" y="74" width="2" height="2"/><rect class="cls-3" x="14" y="68" width="2" height="2"/><rect class="cls-3" x="16" y="70" width="2" height="2"/><rect class="cls-3" x="16" y="72" width="4" height="2"/><rect class="cls-2" x="16" y="72" width="2" height="2"/><rect class="cls-2" x="14" y="70" width="2" height="2"/><rect class="cls-3" x="20" y="74" width="2" height="2"/><rect class="cls-2" x="20" y="76" width="2" height="2"/><rect class="cls-3" x="22" y="76" width="2" height="2"/><rect class="cls-2" x="22" y="78" width="2" height="2"/><rect class="cls-3" x="24" y="78" width="2" height="2"/><rect class="cls-2" x="24" y="80" width="2" height="2"/><rect class="cls-3" x="26" y="80" width="2" height="2"/><rect class="cls-2" x="26" y="82" width="2" height="2"/><rect class="cls-2" x="30" y="82" width="94" height="2"/><rect class="cls-3" x="28" y="82" width="2" height="2"/><rect class="cls-2" x="54" y="78" width="2" height="2"/><rect class="cls-2" x="62" y="72" width="2" height="2"/><rect class="cls-2" x="58" y="70" width="2" height="2"/><rect class="cls-2" x="56" y="74" width="2" height="2"/><rect class="cls-2" x="50" y="72" width="2" height="2"/><rect class="cls-2" x="52" y="74" width="2" height="2"/><rect class="cls-2" x="54" y="70" width="2" height="2"/><rect class="cls-2" x="62" y="68" width="2" height="2"/><rect class="cls-2" x="58" y="66" width="2" height="2"/><rect class="cls-3" x="14" y="62" width="2" height="2"/><rect class="cls-3" x="16" y="64" width="2" height="2"/><rect class="cls-3" x="18" y="66" width="2" height="2"/><rect class="cls-3" x="18" y="62" width="2" height="2"/><rect class="cls-3" x="10" y="62" width="2" height="2"/><rect class="cls-3" x="20" y="68" width="2" height="2"/><rect class="cls-3" x="20" y="64" width="2" height="2"/><rect class="cls-3" x="22" y="62" width="2" height="2"/><rect class="cls-3" x="22" y="70" width="2" height="2"/><rect class="cls-3" x="18" y="70" width="2" height="2"/><rect class="cls-3" x="12" y="64" width="2" height="2"/><rect class="cls-3" x="14" y="66" width="2" height="2"/><rect class="cls-3" x="16" y="68" width="2" height="2"/><rect class="cls-3" x="20" y="72" width="2" height="2"/><rect class="cls-3" x="24" y="64" width="2" height="2"/><rect class="cls-3" x="26" y="62" width="2" height="2"/><rect class="cls-2" x="64" y="76" width="2" height="2"/><rect class="cls-2" x="60" y="74" width="2" height="2"/><rect class="cls-2" x="58" y="78" width="2" height="2"/><rect class="cls-2" x="62" y="80" width="2" height="2"/><rect class="cls-2" x="66" y="78" width="2" height="2"/><rect class="cls-2" x="66" y="74" width="2" height="2"/><rect class="cls-2" x="68" y="70" width="2" height="2"/><rect class="cls-2" x="64" y="66" width="2" height="2"/><rect class="cls-2" x="70" y="74" width="2" height="2"/><rect class="cls-2" x="72" y="78" width="2" height="2"/><rect class="cls-2" x="74" y="68" width="2" height="2"/><rect class="cls-2" x="76" y="72" width="2" height="2"/><rect class="cls-2" x="6" y="62" width="172" height="2" transform="translate(184 126) rotate(-180)"/><rect class="cls-2" x="124" y="64" width="48" height="2" transform="translate(296 130) rotate(-180)"/><rect class="cls-2" x="116" y="64" width="54" height="2" transform="translate(286 130) rotate(-180)"/><rect class="cls-2" x="122" y="66" width="48" height="2" transform="translate(292 134) rotate(-180)"/><rect class="cls-2" x="128" y="68" width="42" height="2" transform="translate(298 138) rotate(-180)"/><rect class="cls-2" x="124" y="70" width="42" height="2" transform="translate(290 142) rotate(-180)"/><rect class="cls-2" x="132" y="72" width="32" height="2" transform="translate(296 146) rotate(-180)"/><rect class="cls-2" x="134" y="74" width="32" height="2" transform="translate(300 150) rotate(-180)"/><rect class="cls-2" x="128" y="76" width="32" height="2" transform="translate(288 154) rotate(-180)"/><rect class="cls-2" x="126" y="78" width="32" height="2" transform="translate(284 158) rotate(-180)"/><rect class="cls-2" x="126" y="80" width="32" height="2" transform="translate(284 162) rotate(-180)"/><rect class="cls-2" x="170" y="60" width="4" height="2" transform="translate(344 122) rotate(180)"/><rect class="cls-3" x="174" y="62" width="2" height="2" transform="translate(350 126) rotate(180)"/><rect class="cls-2" x="174" y="64" width="2" height="2" transform="translate(350 130) rotate(180)"/><rect class="cls-3" x="172" y="64" width="2" height="2" transform="translate(346 130) rotate(180)"/><rect class="cls-2" x="172" y="66" width="2" height="2" transform="translate(346 134) rotate(180)"/><rect class="cls-3" x="170" y="66" width="2" height="2" transform="translate(342 134) rotate(180)"/><rect class="cls-2" x="170" y="68" width="2" height="2" transform="translate(342 138) rotate(-180)"/><rect class="cls-2" x="164" y="74" width="2" height="2" transform="translate(330 150) rotate(-180)"/><rect class="cls-3" x="168" y="68" width="2" height="2" transform="translate(338 138) rotate(180)"/><rect class="cls-3" x="166" y="70" width="2" height="2" transform="translate(334 142) rotate(180)"/><rect class="cls-3" x="164" y="72" width="4" height="2" transform="translate(332 146) rotate(180)"/><rect class="cls-2" x="166" y="72" width="2" height="2" transform="translate(334 146) rotate(180)"/><rect class="cls-2" x="168" y="70" width="2" height="2" transform="translate(338 142) rotate(180)"/><rect class="cls-3" x="162" y="74" width="2" height="2" transform="translate(326 150) rotate(180)"/><rect class="cls-2" x="162" y="76" width="2" height="2" transform="translate(326 154) rotate(180)"/><rect class="cls-3" x="160" y="76" width="2" height="2" transform="translate(322 154) rotate(-180)"/><rect class="cls-2" x="160" y="78" width="2" height="2" transform="translate(322 158) rotate(180)"/><rect class="cls-3" x="158" y="78" width="2" height="2" transform="translate(318 158) rotate(180)"/><rect class="cls-2" x="158" y="80" width="2" height="2" transform="translate(318 162) rotate(180)"/><rect class="cls-3" x="156" y="80" width="2" height="2" transform="translate(314 162) rotate(180)"/><rect class="cls-2" x="156" y="82" width="2" height="2" transform="translate(314 166) rotate(180)"/><rect class="cls-2" x="60" y="82" width="94" height="2" transform="translate(214 166) rotate(-180)"/><rect class="cls-3" x="154" y="82" width="2" height="2" transform="translate(310 166) rotate(-180)"/><rect class="cls-2" x="124" y="76" width="2" height="2" transform="translate(250 154) rotate(-180)"/><rect class="cls-2" x="120" y="72" width="2" height="2" transform="translate(242 146) rotate(-180)"/><rect class="cls-2" x="124" y="72" width="2" height="2" transform="translate(250 146) rotate(-180)"/><rect class="cls-2" x="126" y="74" width="2" height="2" transform="translate(254 150) rotate(-180)"/><rect class="cls-2" x="128" y="72" width="2" height="2" transform="translate(258 146) rotate(-180)"/><rect class="cls-2" x="130" y="74" width="2" height="2" transform="translate(262 150) rotate(-180)"/><rect class="cls-2" x="124" y="68" width="2" height="2" transform="translate(250 138) rotate(-180)"/><rect class="cls-2" x="122" y="70" width="2" height="2" transform="translate(246 142) rotate(-180)"/><rect class="cls-2" x="120" y="68" width="2" height="2" transform="translate(242 138) rotate(-180)"/><rect class="cls-2" x="118" y="66" width="2" height="2" transform="translate(238 134) rotate(-180)"/><rect class="cls-3" x="168" y="62" width="2" height="2" transform="translate(338 126) rotate(-180)"/><rect class="cls-3" x="166" y="64" width="2" height="2" transform="translate(334 130) rotate(-180)"/><rect class="cls-3" x="164" y="66" width="2" height="2" transform="translate(330 134) rotate(-180)"/><rect class="cls-3" x="164" y="62" width="2" height="2" transform="translate(330 126) rotate(-180)"/><rect class="cls-3" x="172" y="62" width="2" height="2" transform="translate(346 126) rotate(-180)"/><rect class="cls-3" x="162" y="68" width="2" height="2" transform="translate(326 138) rotate(-180)"/><rect class="cls-3" x="162" y="64" width="2" height="2" transform="translate(326 130) rotate(-180)"/><rect class="cls-3" x="160" y="62" width="2" height="2" transform="translate(322 126) rotate(-180)"/><rect class="cls-3" x="160" y="70" width="2" height="2" transform="translate(322 142) rotate(-180)"/><rect class="cls-3" x="164" y="70" width="2" height="2" transform="translate(330 142) rotate(-180)"/><rect class="cls-3" x="170" y="64" width="2" height="2" transform="translate(342 130) rotate(-180)"/><rect class="cls-3" x="168" y="66" width="2" height="2" transform="translate(338 134) rotate(-180)"/><rect class="cls-3" x="166" y="68" width="2" height="2" transform="translate(334 138) rotate(-180)"/><rect class="cls-3" x="162" y="72" width="2" height="2" transform="translate(326 146) rotate(-180)"/><rect class="cls-3" x="158" y="64" width="2" height="2" transform="translate(318 130) rotate(-180)"/><rect class="cls-3" x="156" y="62" width="2" height="2" transform="translate(314 126) rotate(-180)"/><rect class="cls-2" x="118" y="76" width="2" height="2" transform="translate(238 154) rotate(-180)"/><rect class="cls-2" x="122" y="74" width="2" height="2" transform="translate(246 150) rotate(-180)"/><rect class="cls-2" x="122" y="78" width="2" height="2" transform="translate(246 158) rotate(-180)"/><rect class="cls-2" x="120" y="80" width="2" height="2" transform="translate(242 162) rotate(-180)"/><rect class="cls-2" x="124" y="80" width="2" height="2" transform="translate(250 162) rotate(-180)"/><rect class="cls-2" x="116" y="78" width="2" height="2" transform="translate(234 158) rotate(-180)"/><rect class="cls-2" x="116" y="74" width="2" height="2" transform="translate(234 150) rotate(-180)"/><rect class="cls-2" x="114" y="70" width="2" height="2" transform="translate(230 142) rotate(-180)"/><rect class="cls-2" x="114" y="66" width="2" height="2" transform="translate(230 134) rotate(-180)"/><rect class="cls-2" x="118" y="70" width="2" height="2" transform="translate(238 142) rotate(-180)"/><rect class="cls-2" x="114" y="80" width="2" height="2" transform="translate(230 162) rotate(-180)"/><rect class="cls-2" x="110" y="78" width="2" height="2" transform="translate(222 158) rotate(-180)"/><rect class="cls-1" x="90" y="40" width="20" height="2"/><rect class="cls-1" x="90" y="42" width="16" height="2"/><rect class="cls-1" x="90" y="44" width="2" height="2"/><rect class="cls-1" x="92" y="46" width="2" height="2"/><rect class="cls-1" x="94" y="44" width="2" height="2"/><rect class="cls-1" x="98" y="44" width="2" height="2"/><rect class="cls-1" x="96" y="48" width="2" height="2"/><rect class="cls-8" x="69" y="26" width="16" height="8"/><polygon class="cls-9" points="73 26 73 28 71 28 71 30 70 30 70 34 69 34 69 26 73 26"/><rect class="cls-12" x="69" y="26" width="2" height="2"/><polygon class="cls-9" points="85 28 85 34 75 34 75 33 81 33 81 32 83 32 83 30 84 30 84 28 85 28"/><rect class="cls-1" x="69" y="34" width="16" height="1"/><rect class="cls-8" x="52" y="26" width="16" height="8"/><polygon class="cls-9" points="56 26 56 28 54 28 54 30 53 30 53 34 52 34 52 26 56 26"/><rect class="cls-12" x="52" y="26" width="8" height="2"/><polygon class="cls-9" points="68 28 68 34 58 34 58 33 64 33 64 32 66 32 66 30 67 30 67 28 68 28"/><rect class="cls-1" x="52" y="34" width="16" height="1"/><rect class="cls-12" x="66" y="32" width="2" height="2"/></g></g></svg>