<svg xmlns="http://www.w3.org/2000/svg" width="389.79" height="101.38" viewBox="0 0 389.79 101.38"><defs><style>.cls-1{fill:#84939a;}.cls-2{fill:#475966;}.cls-3{fill:#202a37;}.cls-4{fill:#1f2a36;}.cls-5{fill:#2d96f8;}.cls-6{fill:#ecebe9;}.cls-7{fill:#1a4ad4;}.cls-8{fill:#e9b278;}.cls-9{fill:#850a26;}.cls-10{fill:#e2511a;}.cls-11{fill:#13181e;}.cls-12{fill:#0f3699;}</style></defs><g id="Layer_2" data-name="Layer 2"><g id="Layer_1-2" data-name="Layer 1"><g id="Layer_2-2" data-name="Layer 2"><g id="Layer_23" data-name="Layer 23"><rect class="cls-1" x="71.25" y="4.36" width="2" height="8" transform="translate(51.3 78.02) rotate(-79.86)"/><rect class="cls-1" x="179.64" y="0.59" width="34" height="56" transform="translate(133.88 217.12) rotate(-79.86)"/><rect class="cls-2" x="203.72" y="24.18" width="2" height="32" transform="translate(129.13 234.63) rotate(-79.86)"/><rect class="cls-3" x="196.84" y="37.96" width="2" height="2" transform="translate(124.66 226.84) rotate(-79.86)"/><rect class="cls-3" x="206.67" y="35.71" width="2" height="10" transform="translate(131.04 237.97) rotate(-79.86)"/><rect class="cls-2" x="210.97" y="30.46" width="2" height="18" transform="translate(135.81 241.17) rotate(-79.86)"/><rect class="cls-2" x="215.25" y="33.18" width="2" height="10" transform="translate(140.6 244.34) rotate(-79.86)"/><rect class="cls-2" x="218.57" y="34.75" width="2" height="4" transform="translate(144.74 246.41) rotate(-79.86)"/><rect class="cls-2" x="192.35" y="13.38" width="4" height="56" transform="translate(119.4 225.42) rotate(-79.86)"/><rect class="cls-2" x="206.9" y="31.76" width="32" height="1" transform="translate(151.9 246) rotate(-79.86)"/><rect class="cls-3" x="194.17" y="15.55" width="2" height="54" transform="translate(118.92 227.18) rotate(-79.86)"/><rect class="cls-3" x="200.41" y="20.62" width="2" height="42" transform="translate(124.98 232.56) rotate(-79.86)"/><rect class="cls-3" x="217.5" y="38.66" width="2" height="8" transform="translate(138.04 250.24) rotate(-79.86)"/><rect class="cls-2" x="222.09" y="13.05" width="2" height="8" transform="translate(167.03 233.65) rotate(-79.86)"/><rect class="cls-3" x="207.89" y="31.94" width="32" height="1" transform="translate(152.53 247.12) rotate(-79.86)"/><rect class="cls-2" x="156.23" y="21.85" width="28" height="2" transform="translate(117.77 186.4) rotate(-79.86)"/><rect class="cls-4" x="198.11" y="-13.19" width="2" height="56" transform="translate(149.48 208.2) rotate(-79.86)"/><rect class="cls-3" x="153.75" y="22.25" width="32" height="1" transform="translate(117.46 185.84) rotate(-79.86)"/><rect class="cls-1" x="245.48" y="14.86" width="16" height="62" transform="translate(163.71 287.31) rotate(-79.86)"/><rect class="cls-2" x="252.4" y="23.12" width="4" height="58" transform="translate(158.31 293.36) rotate(-79.86)"/><rect class="cls-2" x="217.76" y="39.74" width="14" height="4" transform="translate(144.1 255.65) rotate(-79.86)"/><rect class="cls-2" x="253.71" y="7.97" width="2" height="62" transform="translate(171.51 282.84) rotate(-79.86)"/><rect class="cls-3" x="218.05" y="39.5" width="11" height="1" transform="translate(144.82 253.02) rotate(-79.86)"/><rect class="cls-1" x="254.3" y="7.47" width="1" height="62" transform="translate(172.07 282.52) rotate(-79.86)"/><rect class="cls-1" x="287.3" y="26.8" width="34" height="38" transform="translate(205.64 337.28) rotate(-79.86)"/><rect class="cls-2" x="297.24" y="55.91" width="2" height="2" transform="translate(189.71 340.47) rotate(-79.86)"/><rect class="cls-2" x="301.17" y="56.61" width="2" height="2" transform="translate(192.26 344.92) rotate(-79.86)"/><rect class="cls-2" x="299.65" y="41.57" width="4" height="38" transform="translate(188.91 346.85) rotate(-79.86)"/><rect class="cls-3" x="299.49" y="43.38" width="2" height="36" transform="translate(187.17 346.36) rotate(-79.86)"/><rect class="cls-3" x="306.73" y="49.65" width="2" height="22" transform="translate(193.86 352.89) rotate(-79.86)"/><path class="cls-3" d="M296.16,51.47l-1.76,9.84-5.9-1,1.76-9.85,5.9,1.06m1.16-.81-1-.18-5.91-1-1-.18-.18,1-1.76,9.84-.18,1,1,.18,5.91,1.06,1,.17.18-1,1.76-9.85.17-1Z"/><rect class="cls-5" x="291.69" y="52.88" width="2" height="2" transform="translate(188.12 332.51) rotate(-79.86)"/><rect class="cls-6" x="291.78" y="52.8" width="1" height="1" transform="translate(188.36 331.64) rotate(-79.86)"/><rect class="cls-7" x="292.59" y="53.96" width="1" height="1" transform="translate(187.88 333.38) rotate(-79.86)"/><path class="cls-3" d="M179,30.52l-1.76,9.84-5.91-1.06,1.76-9.84L179,30.52m1.16-.81-1-.18-5.91-1.05-1-.18-.18,1-1.76,9.85-.18,1,1,.18,5.9,1.06,1,.17.17-1,1.8-9.87.17-1Z"/><rect class="cls-5" x="174.54" y="31.94" width="2" height="2" transform="translate(112.22 199.94) rotate(-79.86)"/><rect class="cls-6" x="174.64" y="31.85" width="1" height="1" transform="translate(112.46 199.07) rotate(-79.86)"/><rect class="cls-7" x="175.45" y="33.02" width="1" height="1" transform="translate(111.98 200.81) rotate(-79.86)"/><rect class="cls-3" x="311.03" y="52.37" width="2" height="14" transform="translate(198.65 356.07) rotate(-79.86)"/><rect class="cls-2" x="312.35" y="51.58" width="2" height="12" transform="translate(201.5 355.9) rotate(-79.86)"/><rect class="cls-2" x="314.67" y="51.97" width="2" height="8" transform="translate(205 356.85) rotate(-79.86)"/><rect class="cls-2" x="317" y="52.35" width="2" height="4" transform="translate(208.51 357.81) rotate(-79.86)"/><rect class="cls-2" x="310.93" y="42.7" width="20" height="2" transform="translate(221.41 351.92) rotate(-79.86)"/><rect class="cls-8" x="328.55" y="14.52" width="1.99" height="1.99" transform="translate(254.76 336.84) rotate(-79.59)"/><rect class="cls-9" x="329.01" y="16.09" width="2" height="2" transform="translate(255.08 338.94) rotate(-79.86)"/><rect class="cls-8" x="330.98" y="16.44" width="2" height="2" transform="translate(256.36 341.17) rotate(-79.86)"/><rect class="cls-9" x="334.48" y="15.57" width="1.99" height="1.99" transform="translate(258.58 343.53) rotate(-79.59)"/><rect class="cls-6" x="332.85" y="13.24" width="1.99" height="1.99" transform="translate(259.53 340.02) rotate(-79.59)"/><rect class="cls-10" x="329.37" y="14.12" width="2" height="2" transform="translate(257.32 337.67) rotate(-79.86)"/><rect class="cls-6" x="327.38" y="13.77" width="2" height="2" transform="translate(256.03 335.43) rotate(-79.86)"/><rect class="cls-6" x="327.74" y="11.8" width="2" height="2" transform="translate(258.27 334.15) rotate(-79.86)"/><rect class="cls-9" x="325.07" y="15.4" width="2" height="2" transform="translate(252.52 334.49) rotate(-79.86)"/><rect class="cls-10" x="325.42" y="13.42" width="2" height="2" transform="translate(254.75 333.2) rotate(-79.86)"/><rect class="cls-10" x="325.77" y="11.45" width="2" height="2" transform="translate(256.98 331.92) rotate(-79.86)"/><rect class="cls-10" x="329.7" y="12.16" width="2" height="2" transform="translate(259.53 336.38) rotate(-79.86)"/><rect class="cls-3" x="313.21" y="19.96" width="20" height="2" transform="translate(245.68 335.43) rotate(-79.86)"/><rect class="cls-2" x="306.11" y="11.05" width="2" height="38" transform="translate(223.46 327.07) rotate(-79.86)"/><rect class="cls-2" x="299.84" y="17.97" width="2" height="26" transform="translate(217.4 321.66) rotate(-79.86)"/><rect class="cls-2" x="293.16" y="25.11" width="1.99" height="15.94" transform="translate(208.48 316.42) rotate(-79.59)"/><rect class="cls-3" x="305" y="47.97" width="34" height="2" transform="translate(217.11 357.32) rotate(-79.86)"/><rect class="cls-11" x="306.69" y="10.57" width="1" height="38" transform="translate(224.01 326.75) rotate(-79.86)"/><rect class="cls-11" x="295.69" y="20.61" width="1" height="16" transform="translate(215.88 315.14) rotate(-79.86)"/><rect class="cls-11" x="305.5" y="48.57" width="34" height="1" transform="translate(217.42 357.89) rotate(-79.86)"/><rect class="cls-2" x="277.01" y="50.14" width="12" height="2" transform="translate(182.84 320.73) rotate(-79.86)"/><rect class="cls-3" x="276.34" y="51.71" width="14" height="1" transform="translate(182.06 321.93) rotate(-79.86)"/><rect class="cls-2" x="286.63" y="35.72" width="2" height="2" transform="translate(200.84 313.39) rotate(-79.86)"/><rect class="cls-3" x="269.9" y="43.03" width="32" height="1" transform="translate(192.72 317.3) rotate(-79.86)"/><rect class="cls-11" x="242.8" y="-26.35" width="1" height="156" transform="translate(149.62 282.06) rotate(-79.86)"/><rect class="cls-1" x="98.31" y="-2.98" width="22" height="40" transform="translate(73.31 121.63) rotate(-79.86)"/><rect class="cls-1" x="71.91" y="5.49" width="12" height="22" transform="translate(47.96 90.29) rotate(-79.86)"/><rect class="cls-2" x="83.87" y="6.65" width="2" height="10" transform="translate(58.46 93.14) rotate(-79.86)"/><rect class="cls-2" x="72.38" y="8.44" width="10" height="22" transform="translate(44.62 92.2) rotate(-79.86)"/><rect class="cls-3" x="82.65" y="17.53" width="2" height="2" transform="translate(50.68 97.61) rotate(-79.86)"/><rect class="cls-3" x="74.03" y="10.41" width="6" height="22" transform="translate(42.39 93.47) rotate(-79.86)"/><rect class="cls-3" x="81.78" y="16.9" width="8" height="2" transform="translate(53.06 99.19) rotate(-79.86)"/><rect class="cls-2" x="106.72" y="7.07" width="4" height="38" transform="translate(63.92 128.5) rotate(-79.86)"/><rect class="cls-2" x="114.14" y="11.17" width="2" height="26" transform="translate(71.08 133.26) rotate(-79.86)"/><rect class="cls-2" x="119.41" y="15.07" width="2" height="16" transform="translate(76.5 137.54) rotate(-79.86)"/><rect class="cls-2" x="125.84" y="20.36" width="4" height="2" transform="translate(84.31 143.44) rotate(-79.86)"/><rect class="cls-3" x="106.36" y="9.03" width="4" height="38" transform="translate(61.69 129.76) rotate(-79.86)"/><polygon class="cls-2" points="17.17 40.16 0.7 10.8 356.76 74.5 352.19 100.08 17.17 40.16"/><rect class="cls-3" x="102.46" y="14.33" width="2" height="48" transform="translate(47.51 133.43) rotate(-79.86)"/><rect class="cls-3" x="211.45" y="29.77" width="2" height="48" transform="translate(122.12 253.43) rotate(-79.86)"/><rect class="cls-11" x="193.27" y="-148.36" width="4" height="392" transform="translate(114 231.47) rotate(-79.86)"/><rect class="cls-3" x="82.93" y="16.27" width="10" height="2" transform="translate(55.45 100.78) rotate(-79.86)"/><rect class="cls-2" x="192.63" y="-151.5" width="4" height="394" transform="translate(115.58 229.08) rotate(-79.86)"/><rect class="cls-1" x="193.81" y="-152.49" width="2" height="394" transform="translate(116.7 228.44) rotate(-79.86)"/><rect class="cls-11" x="10.03" y="5.98" width="1" height="2" transform="translate(1.81 16.12) rotate(-79.86)"/><rect class="cls-2" x="-0.1" y="6.46" width="4" height="1" transform="translate(-5.29 7.6) rotate(-79.86)"/><rect class="cls-3" x="0.89" y="6.63" width="4" height="1" transform="translate(-4.64 8.73) rotate(-79.86)"/><rect class="cls-11" x="2.16" y="4.58" width="1" height="2" transform="translate(-3.3 7.21) rotate(-79.86)"/><rect class="cls-2" x="7.79" y="7.87" width="4" height="1" transform="translate(-0.17 16.53) rotate(-79.86)"/><rect class="cls-3" x="8.76" y="8.05" width="4" height="1" transform="translate(0.45 17.64) rotate(-79.86)"/><rect class="cls-2" x="15.66" y="9.28" width="4" height="1" transform="translate(4.92 25.44) rotate(-79.86)"/><rect class="cls-3" x="16.64" y="9.45" width="4" height="1" transform="translate(5.56 26.55) rotate(-79.86)"/><rect class="cls-2" x="23.54" y="10.69" width="4" height="1" transform="translate(10.03 34.35) rotate(-79.86)"/><rect class="cls-3" x="24.51" y="10.86" width="4" height="1" transform="translate(10.66 35.46) rotate(-79.86)"/><rect class="cls-2" x="31.41" y="12.1" width="4" height="1" transform="translate(15.12 43.26) rotate(-79.86)"/><rect class="cls-3" x="32.39" y="12.28" width="4" height="1" transform="translate(15.75 44.38) rotate(-79.86)"/><rect class="cls-2" x="39.28" y="13.5" width="4" height="1" transform="translate(20.23 52.18) rotate(-79.86)"/><rect class="cls-3" x="40.27" y="13.67" width="4" height="1" transform="translate(20.88 53.29) rotate(-79.86)"/><rect class="cls-2" x="47.15" y="14.92" width="4" height="1" transform="translate(25.32 61.09) rotate(-79.86)"/><rect class="cls-3" x="48.15" y="15.09" width="4" height="1" transform="translate(25.97 62.21) rotate(-79.86)"/><rect class="cls-2" x="55.03" y="16.31" width="4" height="1" transform="translate(30.44 70) rotate(-79.86)"/><rect class="cls-3" x="56.02" y="16.49" width="4" height="1" transform="translate(31.08 71.11) rotate(-79.86)"/><rect class="cls-2" x="62.9" y="17.73" width="4" height="1" transform="translate(35.53 78.91) rotate(-79.86)"/><rect class="cls-3" x="63.9" y="17.91" width="4" height="1" transform="translate(36.17 80.03) rotate(-79.86)"/><rect class="cls-2" x="70.78" y="19.13" width="4" height="1" transform="translate(40.64 87.82) rotate(-79.86)"/><rect class="cls-3" x="71.76" y="19.31" width="4" height="1" transform="translate(41.28 88.94) rotate(-79.86)"/><rect class="cls-2" x="78.65" y="20.55" width="4" height="1" transform="translate(45.73 96.73) rotate(-79.86)"/><rect class="cls-3" x="79.64" y="20.73" width="4" height="1" transform="translate(46.37 97.86) rotate(-79.86)"/><rect class="cls-2" x="93.9" y="23.64" width="3.99" height="1" transform="translate(54.83 114.09) rotate(-79.59)"/><rect class="cls-3" x="95.39" y="23.54" width="4" height="1" transform="translate(56.59 115.68) rotate(-79.86)"/><rect class="cls-2" x="102.29" y="24.78" width="4" height="1" transform="translate(61.04 123.49) rotate(-79.86)"/><rect class="cls-3" x="103.26" y="24.95" width="4" height="1" transform="translate(61.68 124.59) rotate(-79.86)"/><rect class="cls-2" x="110.16" y="26.17" width="4" height="1" transform="translate(66.15 132.38) rotate(-79.86)"/><rect class="cls-3" x="111.14" y="26.35" width="4" height="1" transform="translate(66.79 133.5) rotate(-79.86)"/><rect class="cls-2" x="86.54" y="21.95" width="4" height="1" transform="translate(50.85 105.65) rotate(-79.86)"/><rect class="cls-3" x="87.51" y="22.12" width="4" height="1" transform="translate(51.49 106.75) rotate(-79.86)"/><rect class="cls-2" x="62.75" y="13.16" width="10" height="1" transform="translate(42.38 77.95) rotate(-79.86)"/><rect class="cls-3" x="64.4" y="15.13" width="6" height="1" transform="translate(40.15 79.22) rotate(-79.86)"/><rect class="cls-2" x="81.47" y="11.12" width="18" height="1" transform="translate(63.1 98.63) rotate(-79.86)"/><rect class="cls-11" x="82.26" y="17.85" width="12" height="1" transform="translate(54.66 101.99) rotate(-79.86)"/><rect class="cls-2" x="127.71" y="15.44" width="2" height="2" transform="translate(89.87 140.24) rotate(-79.86)"/><rect class="cls-2" x="128.42" y="11.49" width="2" height="2" transform="translate(94.34 137.7) rotate(-79.86)"/><rect class="cls-4" x="117.5" y="19.97" width="22" height="1" transform="translate(85.73 143.36) rotate(-79.86)"/><rect class="cls-6" x="119.48" y="-94.46" width="1" height="240" transform="translate(73.71 139.14) rotate(-79.86)"/><rect class="cls-11" x="10.03" y="5.98" width="1" height="2" transform="translate(1.81 16.12) rotate(-79.86)"/><rect class="cls-11" x="17.91" y="7.39" width="1" height="2" transform="translate(6.92 25.03) rotate(-79.86)"/><rect class="cls-11" x="25.78" y="8.8" width="1" height="2" transform="translate(12.01 33.94) rotate(-79.86)"/><rect class="cls-11" x="33.67" y="10.2" width="1" height="2" transform="translate(17.12 42.87) rotate(-79.86)"/><rect class="cls-11" x="41.54" y="11.62" width="1" height="2" transform="translate(22.22 51.78) rotate(-79.86)"/><rect class="cls-11" x="49.42" y="13.02" width="1" height="2" transform="translate(27.32 60.69) rotate(-79.86)"/><rect class="cls-11" x="57.28" y="14.44" width="1" height="2" transform="translate(32.42 69.6) rotate(-79.86)"/><rect class="cls-11" x="65.17" y="15.83" width="1" height="2" transform="translate(37.54 78.51) rotate(-79.86)"/><rect class="cls-11" x="73.03" y="17.25" width="1" height="2" transform="translate(42.63 87.42) rotate(-79.86)"/><rect class="cls-11" x="80.91" y="18.65" width="1" height="2" transform="translate(47.74 96.33) rotate(-79.86)"/><rect class="cls-11" x="88.78" y="20.06" width="1" height="2" transform="translate(52.83 105.24) rotate(-79.86)"/><rect class="cls-11" x="96.66" y="21.48" width="1" height="2" transform="translate(57.93 114.16) rotate(-79.86)"/><rect class="cls-11" x="104.53" y="22.88" width="1" height="2" transform="translate(63.03 123.07) rotate(-79.86)"/><rect class="cls-11" x="112.42" y="24.3" width="1" height="2" transform="translate(68.14 132) rotate(-79.86)"/><rect class="cls-2" x="118.04" y="27.59" width="4" height="1" transform="translate(71.25 141.3) rotate(-79.86)"/><rect class="cls-3" x="119.02" y="27.77" width="4" height="1" transform="translate(71.89 142.42) rotate(-79.86)"/><rect class="cls-11" x="120.29" y="25.69" width="1" height="2" transform="translate(73.25 140.89) rotate(-79.86)"/><rect class="cls-2" x="125.9" y="28.99" width="4" height="1" transform="translate(76.36 150.21) rotate(-79.86)"/><rect class="cls-3" x="126.22" y="29.55" width="3.99" height="1" transform="translate(75.5 150.73) rotate(-79.59)"/><rect class="cls-11" x="128.17" y="27.11" width="1" height="2" transform="translate(78.35 149.82) rotate(-79.86)"/><rect class="cls-2" x="133.78" y="30.41" width="4" height="1" transform="translate(81.45 159.13) rotate(-79.86)"/><rect class="cls-3" x="134.77" y="30.59" width="4" height="1" transform="translate(82.09 160.24) rotate(-79.86)"/><rect class="cls-11" x="136.04" y="28.51" width="1" height="2" transform="translate(83.45 158.72) rotate(-79.86)"/><rect class="cls-2" x="140.9" y="32.24" width="3.99" height="1" transform="translate(84.88 167.37) rotate(-79.59)"/><rect class="cls-3" x="142.65" y="31.98" width="4" height="1" transform="translate(87.21 169.15) rotate(-79.86)"/><rect class="cls-11" x="143.91" y="29.93" width="1" height="2" transform="translate(88.55 167.64) rotate(-79.86)"/><rect class="cls-2" x="149.53" y="33.23" width="4" height="1" transform="translate(91.65 176.95) rotate(-79.86)"/><rect class="cls-3" x="150.52" y="33.4" width="4" height="1" transform="translate(92.3 178.06) rotate(-79.86)"/><rect class="cls-11" x="151.78" y="31.33" width="1" height="2" transform="translate(93.65 176.54) rotate(-79.86)"/><rect class="cls-2" x="157.4" y="34.62" width="4" height="1" transform="translate(96.77 185.85) rotate(-79.86)"/><rect class="cls-3" x="158.39" y="34.8" width="4" height="1" transform="translate(97.41 186.97) rotate(-79.86)"/><rect class="cls-11" x="159.66" y="32.74" width="1" height="2" transform="translate(98.75 185.46) rotate(-79.86)"/><rect class="cls-2" x="165.29" y="36.03" width="4" height="1" transform="translate(101.87 194.78) rotate(-79.86)"/><rect class="cls-3" x="166.26" y="36.21" width="4" height="1" transform="translate(102.5 195.89) rotate(-79.86)"/><rect class="cls-11" x="167.53" y="34.15" width="1" height="2" transform="translate(103.85 194.37) rotate(-79.86)"/><rect class="cls-2" x="173.16" y="37.45" width="4" height="1" transform="translate(106.97 203.69) rotate(-79.86)"/><rect class="cls-3" x="174.14" y="37.62" width="4" height="1" transform="translate(107.61 204.8) rotate(-79.86)"/><rect class="cls-11" x="175.41" y="35.55" width="1" height="2" transform="translate(108.96 203.28) rotate(-79.86)"/><rect class="cls-2" x="181.04" y="38.85" width="4" height="1" transform="translate(112.07 212.6) rotate(-79.86)"/><rect class="cls-3" x="182.01" y="39.03" width="4" height="1" transform="translate(112.7 213.71) rotate(-79.86)"/><rect class="cls-11" x="183.28" y="36.97" width="1" height="2" transform="translate(114.05 212.19) rotate(-79.86)"/><rect class="cls-2" x="188.91" y="40.27" width="4" height="1" transform="translate(117.17 221.51) rotate(-79.86)"/><rect class="cls-3" x="188.9" y="41.02" width="3.99" height="1" transform="translate(115.57 221.76) rotate(-79.59)"/><rect class="cls-11" x="191.17" y="38.37" width="1" height="2" transform="translate(119.17 221.12) rotate(-79.86)"/><rect class="cls-2" x="196.78" y="41.67" width="4" height="1" transform="translate(122.27 230.43) rotate(-79.86)"/><rect class="cls-3" x="197.77" y="41.84" width="4" height="1" transform="translate(122.92 231.54) rotate(-79.86)"/><rect class="cls-11" x="199.04" y="39.79" width="1" height="2" transform="translate(124.26 230.03) rotate(-79.86)"/><rect class="cls-2" x="204.65" y="43.09" width="4" height="1" transform="translate(127.37 239.34) rotate(-79.86)"/><rect class="cls-3" x="205.65" y="43.26" width="4" height="1" transform="translate(128.02 240.46) rotate(-79.86)"/><rect class="cls-11" x="206.92" y="41.19" width="1" height="2" transform="translate(129.37 238.94) rotate(-79.86)"/><rect class="cls-2" x="212.53" y="44.48" width="4" height="1" transform="translate(132.49 248.25) rotate(-79.86)"/><rect class="cls-3" x="213.52" y="44.66" width="4" height="1" transform="translate(133.12 249.36) rotate(-79.86)"/><rect class="cls-11" x="214.79" y="42.61" width="1" height="2" transform="translate(134.46 247.85) rotate(-79.86)"/><rect class="cls-2" x="220.4" y="45.89" width="4" height="1" transform="translate(137.58 257.16) rotate(-79.86)"/><rect class="cls-3" x="221.4" y="46.08" width="4" height="1" transform="translate(138.22 258.28) rotate(-79.86)"/><rect class="cls-11" x="222.67" y="44" width="1" height="2" transform="translate(139.58 256.76) rotate(-79.86)"/><rect class="cls-2" x="228.28" y="47.3" width="4" height="1" transform="translate(142.69 266.07) rotate(-79.86)"/><rect class="cls-3" x="229.26" y="47.48" width="4" height="1" transform="translate(143.32 267.19) rotate(-79.86)"/><rect class="cls-11" x="230.53" y="45.41" width="1" height="2" transform="translate(144.67 265.67) rotate(-79.86)"/><rect class="cls-11" x="246.28" y="48.23" width="1" height="2" transform="translate(154.87 283.49) rotate(-79.86)"/><rect class="cls-2" x="236.15" y="48.71" width="4" height="1" transform="translate(147.78 274.98) rotate(-79.86)"/><rect class="cls-3" x="237.14" y="48.9" width="4" height="1" transform="translate(148.42 276.11) rotate(-79.86)"/><rect class="cls-11" x="238.41" y="46.82" width="1" height="2" transform="translate(149.78 274.58) rotate(-79.86)"/><rect class="cls-2" x="244.03" y="50.13" width="4" height="1" transform="translate(152.88 283.9) rotate(-79.86)"/><rect class="cls-3" x="245.01" y="50.29" width="4" height="1" transform="translate(153.53 285) rotate(-79.86)"/><rect class="cls-2" x="251.91" y="51.53" width="4" height="1" transform="translate(157.99 292.81) rotate(-79.86)"/><rect class="cls-3" x="252.89" y="51.7" width="4" height="1" transform="translate(158.63 293.92) rotate(-79.86)"/><rect class="cls-2" x="259.79" y="52.95" width="4" height="1" transform="translate(163.09 301.74) rotate(-79.86)"/><rect class="cls-3" x="260.76" y="53.12" width="4" height="1" transform="translate(163.72 302.84) rotate(-79.86)"/><rect class="cls-2" x="267.66" y="54.34" width="4" height="1" transform="translate(168.2 310.63) rotate(-79.86)"/><rect class="cls-3" x="268.64" y="54.52" width="4" height="1" transform="translate(168.83 311.75) rotate(-79.86)"/><rect class="cls-2" x="275.54" y="55.76" width="4" height="1" transform="translate(173.3 319.55) rotate(-79.86)"/><rect class="cls-3" x="276.52" y="55.94" width="4" height="1" transform="translate(173.93 320.67) rotate(-79.86)"/><rect class="cls-2" x="283.4" y="57.16" width="4" height="1" transform="translate(178.4 328.46) rotate(-79.86)"/><rect class="cls-3" x="284.4" y="57.34" width="4" height="1" transform="translate(179.04 329.58) rotate(-79.86)"/><rect class="cls-2" x="291.28" y="58.58" width="4" height="1" transform="translate(183.5 337.38) rotate(-79.86)"/><rect class="cls-3" x="292.27" y="58.76" width="4" height="1" transform="translate(184.13 338.49) rotate(-79.86)"/><rect class="cls-2" x="297.6" y="60.9" width="3.99" height="1" transform="translate(185.08 344.98) rotate(-79.59)"/><rect class="cls-3" x="300.15" y="60.15" width="4" height="1" transform="translate(189.25 347.4) rotate(-79.86)"/><rect class="cls-2" x="307.03" y="61.39" width="4" height="1" transform="translate(193.7 355.2) rotate(-79.86)"/><rect class="cls-3" x="308.02" y="61.56" width="4" height="1" transform="translate(194.34 356.31) rotate(-79.86)"/><rect class="cls-2" x="314.9" y="62.79" width="4" height="1" transform="translate(198.81 364.1) rotate(-79.86)"/><rect class="cls-3" x="315.89" y="62.97" width="4" height="1" transform="translate(199.45 365.22) rotate(-79.86)"/><rect class="cls-2" x="330.66" y="65.62" width="4" height="1" transform="translate(209.01 381.94) rotate(-79.86)"/><rect class="cls-3" x="331.64" y="65.8" width="4" height="1" transform="translate(209.64 383.06) rotate(-79.86)"/><rect class="cls-2" x="338.54" y="67.02" width="4" height="1" transform="translate(214.12 390.85) rotate(-79.86)"/><rect class="cls-3" x="339.51" y="67.2" width="4" height="1" transform="translate(214.74 391.96) rotate(-79.86)"/><rect class="cls-2" x="344.62" y="69.51" width="3.99" height="1" transform="translate(215.14 398.27) rotate(-79.59)"/><rect class="cls-3" x="347.39" y="68.61" width="4" height="1" transform="translate(219.85 400.87) rotate(-79.86)"/><rect class="cls-2" x="322.78" y="64.2" width="4" height="1" transform="translate(203.91 373.02) rotate(-79.86)"/><rect class="cls-3" x="323.76" y="64.38" width="4" height="1" transform="translate(204.54 374.14) rotate(-79.86)"/><rect class="cls-6" x="313.41" y="-16.77" width="1" height="154" transform="translate(199.36 358.63) rotate(-79.86)"/><rect class="cls-11" x="246.28" y="48.23" width="1" height="2" transform="translate(154.87 283.49) rotate(-79.86)"/><rect class="cls-11" x="254.16" y="49.65" width="1" height="2" transform="translate(159.97 292.41) rotate(-79.86)"/><rect class="cls-11" x="262.03" y="51.05" width="1" height="2" transform="translate(165.07 301.32) rotate(-79.86)"/><rect class="cls-11" x="269.92" y="52.47" width="1" height="2" transform="translate(170.18 310.25) rotate(-79.86)"/><rect class="cls-11" x="277.79" y="53.86" width="1" height="2" transform="translate(175.29 319.14) rotate(-79.86)"/><rect class="cls-11" x="285.67" y="55.28" width="1" height="2" transform="translate(180.39 328.07) rotate(-79.86)"/><rect class="cls-11" x="293.54" y="56.68" width="1" height="2" transform="translate(185.49 336.97) rotate(-79.86)"/><rect class="cls-11" x="301.42" y="58.09" width="1" height="2" transform="translate(190.59 345.89) rotate(-79.86)"/><rect class="cls-11" x="309.28" y="59.5" width="1" height="2" transform="translate(195.69 354.79) rotate(-79.86)"/><rect class="cls-11" x="317.16" y="60.91" width="1" height="2" transform="translate(200.79 363.71) rotate(-79.86)"/><rect class="cls-11" x="325.03" y="62.32" width="1" height="2" transform="translate(205.89 372.62) rotate(-79.86)"/><rect class="cls-11" x="332.91" y="63.72" width="1" height="2" transform="translate(211 381.53) rotate(-79.86)"/><rect class="cls-11" x="340.78" y="65.14" width="1" height="2" transform="translate(216.09 390.44) rotate(-79.86)"/><rect class="cls-11" x="348.67" y="66.54" width="1" height="2" transform="translate(221.21 399.37) rotate(-79.86)"/><rect class="cls-2" x="354.29" y="69.84" width="4" height="1" transform="translate(224.32 408.68) rotate(-79.86)"/><rect class="cls-3" x="355.27" y="70.01" width="4" height="1" transform="translate(224.96 409.79) rotate(-79.86)"/><rect class="cls-11" x="356.54" y="67.95" width="1" height="2" transform="translate(226.3 408.28) rotate(-79.86)"/><rect class="cls-2" x="362.15" y="71.25" width="4" height="1" transform="translate(229.41 417.59) rotate(-79.86)"/><rect class="cls-3" x="363.15" y="71.43" width="4" height="1" transform="translate(230.06 418.71) rotate(-79.86)"/><rect class="cls-11" x="364.42" y="69.36" width="1" height="2" transform="translate(231.41 417.19) rotate(-79.86)"/><rect class="cls-2" x="370.03" y="72.65" width="4" height="1" transform="translate(234.53 426.5) rotate(-79.86)"/><rect class="cls-3" x="371.02" y="72.83" width="4" height="1" transform="translate(235.16 427.61) rotate(-79.86)"/><rect class="cls-11" x="372.29" y="70.77" width="1" height="2" transform="translate(236.5 426.1) rotate(-79.86)"/><rect class="cls-2" x="377.9" y="74.06" width="4" height="1" transform="translate(239.62 435.41) rotate(-79.86)"/><rect class="cls-3" x="378.9" y="74.24" width="4" height="1" transform="translate(240.26 436.53) rotate(-79.86)"/><rect class="cls-11" x="380.17" y="72.17" width="1" height="2" transform="translate(241.62 435.01) rotate(-79.86)"/><rect class="cls-2" x="385.78" y="75.47" width="4" height="1" transform="translate(244.73 444.32) rotate(-79.86)"/><rect class="cls-3" x="386.77" y="75.65" width="4" height="1" transform="translate(245.36 445.44) rotate(-79.86)"/><rect class="cls-11" x="388.04" y="73.58" width="1" height="2" transform="translate(246.71 443.92) rotate(-79.86)"/><rect class="cls-11" x="235.32" y="30.02" width="1" height="2" transform="translate(163.77 257.69) rotate(-79.86)"/><rect class="cls-2" x="225.2" y="30.5" width="4" height="1" transform="translate(156.69 249.19) rotate(-79.86)"/><rect class="cls-3" x="226.17" y="30.67" width="4" height="1" transform="translate(157.32 250.29) rotate(-79.86)"/><rect class="cls-11" x="227.44" y="28.61" width="1" height="2" transform="translate(158.66 248.78) rotate(-79.86)"/><rect class="cls-2" x="231.92" y="32.69" width="3.99" height="1" transform="translate(159.01 257.25) rotate(-79.59)"/><rect class="cls-3" x="234.05" y="32.08" width="4" height="1" transform="translate(162.42 259.21) rotate(-79.86)"/><rect class="cls-2" x="240.95" y="33.32" width="4" height="1" transform="translate(166.89 267.02) rotate(-79.86)"/><rect class="cls-3" x="241.92" y="33.5" width="4" height="1" transform="translate(167.51 268.12) rotate(-79.86)"/><rect class="cls-2" x="248.82" y="34.72" width="4" height="1" transform="translate(171.99 275.92) rotate(-79.86)"/><rect class="cls-3" x="249.81" y="34.9" width="4" height="1" transform="translate(172.63 277.05) rotate(-79.86)"/><rect class="cls-2" x="256.69" y="36.14" width="4" height="1" transform="translate(177.09 284.84) rotate(-79.86)"/><rect class="cls-3" x="256.4" y="37.17" width="3.99" height="1" transform="translate(174.67 285.01) rotate(-79.59)"/><rect class="cls-2" x="264.56" y="37.54" width="4" height="1" transform="translate(182.19 293.74) rotate(-79.86)"/><rect class="cls-3" x="265.56" y="37.71" width="4" height="1" transform="translate(182.84 294.86) rotate(-79.86)"/><rect class="cls-2" x="272.44" y="38.96" width="4" height="1" transform="translate(187.29 302.66) rotate(-79.86)"/><rect class="cls-3" x="273.43" y="39.13" width="4" height="1" transform="translate(187.93 303.77) rotate(-79.86)"/><rect class="cls-6" x="255.18" y="2.55" width="1" height="62" transform="translate(177.64 279.34) rotate(-79.86)"/><rect class="cls-11" x="235.32" y="30.02" width="1" height="2" transform="translate(163.77 257.69) rotate(-79.86)"/><rect class="cls-11" x="243.2" y="31.42" width="1" height="2" transform="translate(168.88 266.61) rotate(-79.86)"/><rect class="cls-11" x="251.08" y="32.84" width="1" height="2" transform="translate(173.98 275.53) rotate(-79.86)"/><rect class="cls-11" x="258.95" y="34.24" width="1" height="2" transform="translate(179.08 284.43) rotate(-79.86)"/><rect class="cls-11" x="266.83" y="35.66" width="1" height="2" transform="translate(184.18 293.35) rotate(-79.86)"/><rect class="cls-11" x="274.69" y="37.06" width="1" height="2" transform="translate(189.28 302.26) rotate(-79.86)"/><rect class="cls-2" x="278.92" y="41.29" width="3.99" height="1" transform="translate(189.07 310.53) rotate(-79.59)"/><rect class="cls-3" x="281.31" y="40.53" width="4" height="1" transform="translate(193.04 312.69) rotate(-79.86)"/><rect class="cls-11" x="282.57" y="38.47" width="1" height="2" transform="translate(194.38 311.18) rotate(-79.86)"/><rect class="cls-3" x="87.42" y="-54.42" width="2" height="172" transform="translate(41.77 113.06) rotate(-79.86)"/><rect class="cls-3" x="31.94" y="-0.32" width="2" height="48" transform="translate(3.83 51.94) rotate(-79.86)"/><rect class="cls-3" x="43.75" y="-8.21" width="2" height="68" transform="translate(11.49 65.31) rotate(-79.86)"/><rect class="cls-3" x="33.57" y="2" width="2" height="48" transform="translate(2.88 55.45) rotate(-79.86)"/><rect class="cls-3" x="30.25" y="6.45" width="2" height="42" transform="translate(-1.27 53.38) rotate(-79.86)"/><rect class="cls-3" x="33.85" y="9.13" width="2" height="42" transform="translate(-0.95 59.13) rotate(-79.86)"/><rect class="cls-3" x="30.54" y="15.56" width="2" height="32" transform="matrix(0.18, -0.98, 0.98, 0.18, -5.09, 57.05)"/><rect class="cls-3" x="28.22" y="17.18" width="2" height="32" transform="matrix(0.18, -0.98, 0.98, 0.18, -8.59, 56.1)"/><rect class="cls-3" x="33.78" y="20.2" width="2" height="32" transform="translate(-6.98 64.06) rotate(-79.86)"/><rect class="cls-3" x="35.38" y="22.53" width="2" height="32" transform="translate(-7.95 67.56) rotate(-79.86)"/><rect class="cls-3" x="35.03" y="24.5" width="2" height="32" transform="translate(-10.17 68.84) rotate(-79.86)"/><rect class="cls-3" x="2.13" y="11.29" width="2" height="6" transform="translate(-11.49 14.86) rotate(-79.86)"/><rect class="cls-11" x="5.71" y="15.96" width="2" height="2" transform="translate(-11.17 20.58) rotate(-79.86)"/><rect class="cls-3" x="5.36" y="17.94" width="2" height="2" transform="translate(-13.4 21.87) rotate(-79.86)"/><rect class="cls-11" x="7.33" y="18.28" width="2" height="2" transform="translate(-12.12 24.09) rotate(-79.86)"/><rect class="cls-3" x="6.99" y="20.26" width="2" height="2" transform="translate(-14.34 25.38) rotate(-79.86)"/><rect class="cls-11" x="8.96" y="20.61" width="2" height="2" transform="translate(-13.07 27.61) rotate(-79.86)"/><rect class="cls-3" x="8.47" y="22.52" width="1.99" height="1.99" transform="translate(-15.37 28.58) rotate(-79.59)"/><rect class="cls-3" x="13.45" y="29.53" width="2" height="2" transform="translate(-18.15 39.38) rotate(-79.86)"/><rect class="cls-11" x="10.56" y="22.93" width="2" height="2" transform="translate(-14.03 31.1) rotate(-79.86)"/><rect class="cls-11" x="12.19" y="25.25" width="2" height="2" transform="translate(-14.97 34.61) rotate(-79.86)"/><rect class="cls-11" x="12.81" y="26.39" width="2" height="4" transform="translate(-16.57 36.99) rotate(-79.86)"/><rect class="cls-3" x="11.84" y="27.21" width="2" height="2" transform="translate(-17.2 35.88) rotate(-79.86)"/><rect class="cls-3" x="10.21" y="24.89" width="2" height="2" transform="translate(-16.25 32.37) rotate(-79.86)"/><rect class="cls-11" x="15.41" y="29.88" width="2" height="2" transform="translate(-16.88 41.6) rotate(-79.86)"/><rect class="cls-3" x="15.07" y="31.86" width="2" height="2" transform="translate(-19.11 42.89) rotate(-79.86)"/><rect class="cls-11" x="17.04" y="32.21" width="2" height="2" transform="translate(-17.83 45.12) rotate(-79.86)"/><rect class="cls-3" x="16.69" y="34.18" width="2" height="2" transform="translate(-20.06 46.39) rotate(-79.86)"/><rect class="cls-11" x="18.65" y="34.54" width="2" height="2" transform="translate(-18.79 48.63) rotate(-79.86)"/><rect class="cls-3" x="18.3" y="36.5" width="2" height="2" transform="translate(-21.01 49.9) rotate(-79.86)"/><rect class="cls-11" x="20.27" y="36.86" width="2" height="2" transform="translate(-19.74 52.13) rotate(-79.86)"/><rect class="cls-3" x="19.92" y="38.82" width="2" height="2" transform="translate(-21.97 53.4) rotate(-79.86)"/><rect class="cls-3" x="93.4" y="-18.67" width="2" height="143.28" transform="translate(25.64 136.56) rotate(-79.86)"/><rect class="cls-11" x="21.88" y="39.18" width="2" height="2" transform="translate(-20.69 55.63) rotate(-79.86)"/><rect class="cls-3" x="52.48" y="38.54" width="2" height="2" transform="translate(5.14 85.22) rotate(-79.86)"/><rect class="cls-3" x="57.11" y="35.32" width="2" height="2" transform="translate(12.13 87.13) rotate(-79.86)"/><rect class="cls-3" x="53.18" y="34.62" width="2" height="2" transform="translate(9.58 82.68) rotate(-79.86)"/><rect class="cls-3" x="50.85" y="36.22" width="2" height="2" transform="translate(6.08 81.71) rotate(-79.86)"/><rect class="cls-3" x="49.24" y="33.9" width="2" height="2" transform="translate(7.04 78.22) rotate(-79.86)"/><rect class="cls-3" x="46.92" y="35.52" width="2" height="2" transform="translate(3.53 77.26) rotate(-79.86)"/><rect class="cls-3" x="53.88" y="30.67" width="2" height="2" transform="translate(14.04 80.12) rotate(-79.86)"/><rect class="cls-3" x="55.5" y="32.99" width="2" height="2" transform="translate(13.09 83.62) rotate(-79.86)"/><rect class="cls-3" x="57.82" y="31.37" width="2" height="2" transform="translate(16.59 84.57) rotate(-79.86)"/><rect class="cls-3" x="60.14" y="29.77" width="2" height="2" transform="translate(20.09 85.54) rotate(-79.86)"/><rect class="cls-11" x="11.62" y="17.03" width="2" height="2" transform="translate(-7.34 27.28) rotate(-79.86)"/><rect class="cls-11" x="13.24" y="19.34" width="2" height="2" transform="translate(-8.29 30.78) rotate(-79.86)"/><rect class="cls-11" x="14.86" y="21.66" width="2" height="2" transform="translate(-9.24 34.28) rotate(-79.86)"/><rect class="cls-11" x="15.56" y="17.73" width="2" height="2" transform="translate(-4.79 31.73) rotate(-79.86)"/><rect class="cls-11" x="7.68" y="16.31" width="2" height="2" transform="translate(-9.89 22.81) rotate(-79.86)"/><rect class="cls-11" x="16.47" y="23.98" width="2" height="2" transform="translate(-10.19 37.78) rotate(-79.86)"/><rect class="cls-11" x="17.19" y="20.05" width="2" height="2" transform="translate(-5.73 35.24) rotate(-79.86)"/><rect class="cls-11" x="19.5" y="18.42" width="2" height="2" transform="translate(-2.22 36.19) rotate(-79.86)"/><rect class="cls-11" x="18.09" y="26.31" width="2" height="2" transform="translate(-11.15 41.29) rotate(-79.86)"/><rect class="cls-11" x="14.16" y="25.6" width="2" height="2" transform="translate(-13.69 36.83) rotate(-79.86)"/><rect class="cls-11" x="9.31" y="18.63" width="2" height="2" transform="translate(-10.83 26.32) rotate(-79.86)"/><rect class="cls-11" x="10.92" y="20.95" width="2" height="2" transform="translate(-11.78 29.82) rotate(-79.86)"/><rect class="cls-11" x="12.54" y="23.28" width="2" height="2" transform="translate(-12.74 33.33) rotate(-79.86)"/><rect class="cls-11" x="15.77" y="27.93" width="2" height="2" transform="translate(-14.66 40.34) rotate(-79.86)"/><rect class="cls-11" x="21.11" y="20.75" width="2" height="2" transform="translate(-3.19 39.69) rotate(-79.86)"/><rect class="cls-11" x="23.44" y="19.13" width="2" height="2" transform="translate(0.32 40.64) rotate(-79.86)"/><rect class="cls-3" x="58.38" y="39.6" width="2" height="2" transform="translate(8.96 91.91) rotate(-79.86)"/><rect class="cls-3" x="54.79" y="36.93" width="2" height="2" transform="translate(8.63 86.18) rotate(-79.86)"/><rect class="cls-3" x="54.09" y="40.87" width="2" height="2" transform="translate(4.18 88.73) rotate(-79.86)"/><rect class="cls-3" x="55.7" y="43.2" width="2" height="2" transform="translate(3.21 92.23) rotate(-79.86)"/><rect class="cls-3" x="51.76" y="42.48" width="2" height="2" transform="translate(0.67 87.77) rotate(-79.86)"/><rect class="cls-3" x="60" y="41.92" width="2" height="2" transform="translate(8 95.41) rotate(-79.86)"/><rect class="cls-3" x="60.71" y="37.99" width="2" height="2" transform="translate(12.46 92.87) rotate(-79.86)"/><rect class="cls-3" x="63.38" y="34.4" width="2" height="2" transform="translate(18.19 92.54) rotate(-79.86)"/><rect class="cls-3" x="64.08" y="30.46" width="2" height="2" transform="translate(22.65 89.98) rotate(-79.86)"/><rect class="cls-3" x="59.43" y="33.69" width="2" height="2" transform="translate(15.64 88.07) rotate(-79.86)"/><rect class="cls-3" x="64.63" y="38.69" width="2" height="2" transform="translate(15.01 97.31) rotate(-79.86)"/><rect class="cls-3" x="65.91" y="42.99" width="2" height="2" transform="translate(11.83 102.1) rotate(-79.86)"/><rect class="cls-3" x="69.63" y="33.49" width="2" height="2" transform="translate(24.24 97.94) rotate(-79.86)"/><rect class="cls-3" x="70.89" y="37.79" width="2" height="2" transform="translate(21.06 102.73) rotate(-79.86)"/><rect class="cls-3" x="297.09" y="-16.92" width="2" height="172" transform="translate(177.61 350.36) rotate(-79.86)"/><rect class="cls-3" x="351.87" y="56.91" width="2" height="48" transform="translate(211.1 414.02) rotate(-79.86)"/><rect class="cls-3" x="340.05" y="44.79" width="2" height="68" transform="translate(203.45 400.65) rotate(-79.86)"/><rect class="cls-3" x="349.55" y="58.52" width="2" height="48" transform="translate(207.6 413.06) rotate(-79.86)"/><rect class="cls-3" x="352.15" y="64.03" width="2" height="42" transform="translate(207.27 417.69) rotate(-79.86)"/><rect class="cls-3" x="349.73" y="64.36" width="1.99" height="41.85" transform="translate(203.49 414.84) rotate(-79.59)"/><rect class="cls-3" x="350.45" y="72.78" width="2" height="32" transform="translate(202.19 419.11) rotate(-79.86)"/><rect class="cls-3" x="352.08" y="75.1" width="2" height="32" transform="translate(201.24 422.62) rotate(-79.86)"/><rect class="cls-3" x="345.82" y="76.01" width="2" height="32" transform="translate(195.18 417.22) rotate(-79.86)"/><rect class="cls-3" x="343.5" y="77.63" width="2" height="32" transform="translate(191.68 416.26) rotate(-79.86)"/><rect class="cls-3" x="345.04" y="78.73" width="1.99" height="31.88" transform="translate(190.41 417.91) rotate(-79.59)"/><rect class="cls-3" x="383.09" y="79.43" width="2" height="6" transform="translate(235.33 446.01) rotate(-79.86)"/><rect class="cls-11" x="378.8" y="82.69" width="2" height="2" transform="translate(230.55 442.82) rotate(-79.86)"/><rect class="cls-3" x="378.45" y="84.67" width="2" height="2" transform="translate(228.31 444.11) rotate(-79.86)"/><rect class="cls-11" x="376.48" y="84.31" width="2" height="2" transform="translate(227.04 441.87) rotate(-79.86)"/><rect class="cls-3" x="376.13" y="86.28" width="2" height="2" transform="translate(224.81 443.16) rotate(-79.86)"/><rect class="cls-11" x="374.16" y="85.93" width="2" height="2" transform="translate(223.54 440.92) rotate(-79.86)"/><rect class="cls-3" x="373.81" y="87.9" width="2" height="2" transform="translate(221.31 442.2) rotate(-79.86)"/><rect class="cls-3" x="366.84" y="92.74" width="2" height="2" transform="translate(210.81 439.33) rotate(-79.86)"/><rect class="cls-11" x="371.84" y="87.54" width="2" height="2" transform="translate(220.04 439.96) rotate(-79.86)"/><rect class="cls-11" x="369.51" y="89.16" width="2" height="2" transform="translate(216.53 439.01) rotate(-79.86)"/><rect class="cls-11" x="368.18" y="89.95" width="2" height="4" transform="translate(213.67 439.17) rotate(-79.86)"/><rect class="cls-3" x="369.16" y="91.13" width="2" height="2" transform="translate(214.31 440.29) rotate(-79.86)"/><rect class="cls-3" x="371.48" y="89.51" width="2" height="2" transform="translate(217.81 441.24) rotate(-79.86)"/><rect class="cls-11" x="364.87" y="92.39" width="2" height="2" transform="translate(209.53 437.1) rotate(-79.86)"/><rect class="cls-3" x="364.52" y="94.36" width="2" height="2" transform="translate(207.29 438.38) rotate(-79.86)"/><rect class="cls-11" x="362.55" y="94.01" width="2" height="2" transform="translate(206.01 436.16) rotate(-79.86)"/><rect class="cls-3" x="362.2" y="95.98" width="2" height="2" transform="translate(203.79 437.43) rotate(-79.86)"/><rect class="cls-11" x="360.23" y="95.63" width="2" height="2" transform="translate(202.51 435.2) rotate(-79.86)"/><rect class="cls-3" x="359.88" y="97.59" width="2" height="2" transform="translate(200.29 436.47) rotate(-79.86)"/><rect class="cls-11" x="357.91" y="97.24" width="2" height="2" transform="translate(199.01 434.25) rotate(-79.86)"/><rect class="cls-3" x="357.56" y="99.22" width="2" height="2" transform="translate(196.79 435.54) rotate(-79.86)"/><rect class="cls-3" x="308.34" y="44.41" width="2" height="94" transform="translate(164.89 379.82) rotate(-79.86)"/><rect class="cls-11" x="355.58" y="98.87" width="2" height="2" transform="translate(195.5 433.3) rotate(-79.86)"/><rect class="cls-3" x="327.12" y="87.67" width="2" height="2" transform="translate(183.06 396.06) rotate(-79.86)"/><rect class="cls-3" x="323.88" y="83.03" width="2" height="2" transform="translate(184.97 389.04) rotate(-79.86)"/><rect class="cls-3" x="327.83" y="83.73" width="2" height="2" transform="translate(187.53 393.5) rotate(-79.86)"/><rect class="cls-3" x="329.44" y="86.05" width="2" height="2" transform="translate(186.57 397) rotate(-79.86)"/><rect class="cls-3" x="331.76" y="84.44" width="2" height="2" transform="translate(190.07 397.96) rotate(-79.86)"/><rect class="cls-3" x="333.38" y="86.76" width="2" height="2" transform="translate(189.12 401.46) rotate(-79.86)"/><rect class="cls-3" x="328.52" y="79.79" width="2" height="2" transform="translate(191.98 390.95) rotate(-79.86)"/><rect class="cls-3" x="326.2" y="81.41" width="2" height="2" transform="translate(188.48 389.99) rotate(-79.86)"/><rect class="cls-3" x="324.59" y="79.09" width="2" height="2" transform="translate(189.43 386.49) rotate(-79.86)"/><rect class="cls-3" x="322.97" y="76.78" width="2" height="2" transform="translate(190.38 383) rotate(-79.86)"/><rect class="cls-11" x="372.89" y="81.64" width="2" height="2" transform="translate(226.72 436.14) rotate(-79.86)"/><rect class="cls-11" x="370.57" y="83.25" width="2" height="2" transform="translate(223.22 435.19) rotate(-79.86)"/><rect class="cls-11" x="368.25" y="84.87" width="2" height="2" transform="translate(219.71 434.23) rotate(-79.86)"/><rect class="cls-11" x="368.96" y="80.92" width="2" height="2" transform="translate(224.18 431.68) rotate(-79.86)"/><rect class="cls-11" x="376.83" y="82.35" width="2" height="2" transform="translate(229.26 440.6) rotate(-79.86)"/><rect class="cls-11" x="365.93" y="86.48" width="2" height="2" transform="translate(216.21 433.28) rotate(-79.86)"/><rect class="cls-11" x="366.63" y="82.55" width="2" height="2" transform="translate(220.67 430.73) rotate(-79.86)"/><rect class="cls-11" x="365.02" y="80.23" width="2" height="2" transform="translate(221.62 427.23) rotate(-79.86)"/><rect class="cls-11" x="363.62" y="88.1" width="2" height="2" transform="translate(212.72 432.33) rotate(-79.86)"/><rect class="cls-11" x="369.52" y="87.75" width="1.99" height="1.99" transform="translate(216.3 437.13) rotate(-79.59)"/><rect class="cls-11" x="374.51" y="83.96" width="2" height="2" transform="translate(225.77 439.65) rotate(-79.86)"/><rect class="cls-11" x="372.19" y="85.58" width="2" height="2" transform="translate(222.27 438.7) rotate(-79.86)"/><rect class="cls-11" x="369.87" y="87.19" width="2" height="2" transform="translate(218.76 437.74) rotate(-79.86)"/><rect class="cls-11" x="365.23" y="90.42" width="2" height="2" transform="translate(211.76 435.83) rotate(-79.86)"/><rect class="cls-11" x="362.7" y="81.84" width="2" height="2" transform="translate(218.12 426.27) rotate(-79.86)"/><rect class="cls-11" x="361.08" y="79.52" width="2" height="2" transform="translate(219.07 422.76) rotate(-79.86)"/><rect class="cls-3" x="322.97" y="85.72" width="1.99" height="1.99" transform="translate(180.15 389.69) rotate(-79.59)"/><rect class="cls-3" x="325.5" y="85.35" width="2" height="2" transform="translate(184.02 392.56) rotate(-79.86)"/><rect class="cls-3" x="324.8" y="89.29" width="2" height="2" transform="translate(179.56 395.1) rotate(-79.86)"/><rect class="cls-3" x="322.48" y="90.9" width="2" height="2" transform="translate(176.06 394.15) rotate(-79.86)"/><rect class="cls-3" x="326.4" y="91.61" width="2" height="2" transform="translate(178.6 398.59) rotate(-79.86)"/><rect class="cls-3" x="318.89" y="88.23" width="2" height="2" transform="translate(175.73 388.41) rotate(-79.86)"/><rect class="cls-3" x="319.59" y="84.29" width="2" height="2" transform="translate(180.19 385.85) rotate(-79.86)"/><rect class="cls-3" x="318.33" y="80" width="2" height="2" transform="translate(183.37 381.09) rotate(-79.86)"/><rect class="cls-3" x="319.03" y="76.07" width="2" height="2" transform="translate(187.82 378.53) rotate(-79.86)"/><rect class="cls-3" x="324.01" y="79.8" width="1.99" height="1.99" transform="translate(186.83 385.85) rotate(-79.59)"/><rect class="cls-3" x="315.65" y="83.59" width="2" height="2" transform="translate(177.64 381.4) rotate(-79.86)"/><rect class="cls-3" x="312.98" y="87.17" width="2" height="2" transform="translate(171.91 381.73) rotate(-79.86)"/><rect class="cls-3" x="312.77" y="76.98" width="2" height="2" transform="translate(181.77 373.12) rotate(-79.86)"/><rect class="cls-3" x="310.09" y="80.56" width="2" height="2" transform="translate(176.04 373.43) rotate(-79.86)"/><rect class="cls-3" x="74.35" y="38.62" width="1.99" height="1.99" transform="translate(22.78 106.57) rotate(-79.59)"/><rect class="cls-3" x="178.97" y="46.95" width="2" height="2" transform="translate(101.08 216.67) rotate(-79.86)"/><rect class="cls-3" x="184.87" y="48" width="2" height="2" transform="translate(104.91 223.35) rotate(-79.86)"/><rect class="cls-2" x="198.45" y="-19.17" width="2" height="64" transform="translate(151.71 206.9) rotate(-79.86)"/><rect class="cls-1" x="306.46" y="5.08" width="2" height="46" transform="translate(225.68 325.8) rotate(-79.86)"/><rect class="cls-2" x="318.27" y="19.19" width="2" height="22" transform="translate(233.34 339.16) rotate(-79.86)"/><rect class="cls-4" x="288.03" y="27.85" width="2" height="2" transform="translate(209.75 308.29) rotate(-79.86)"/><rect class="cls-4" x="291.98" y="28.55" width="2" height="2" transform="translate(212.31 312.75) rotate(-79.86)"/><rect class="cls-4" x="295.92" y="29.26" width="2" height="2" transform="translate(214.85 317.22) rotate(-79.86)"/><rect class="cls-4" x="293.59" y="30.87" width="2" height="2" transform="translate(211.35 316.25) rotate(-79.86)"/><rect class="cls-4" x="306.87" y="5.57" width="1" height="46" transform="translate(225.13 326.11) rotate(-79.86)"/><rect class="cls-2" x="284.15" y="10.67" width="22" height="2" transform="translate(231.71 300.15) rotate(-79.86)"/><rect class="cls-3" x="286.13" y="11.02" width="22" height="2" transform="translate(232.99 302.39) rotate(-79.86)"/><rect class="cls-11" x="295.78" y="12.98" width="2" height="2" transform="translate(230.76 303.66) rotate(-79.86)"/><rect class="cls-3" x="293.8" y="12.63" width="2" height="2" transform="translate(229.48 301.43) rotate(-79.86)"/><rect class="cls-11" x="294.01" y="22.82" width="2" height="2" transform="translate(219.63 310.03) rotate(-79.86)"/><rect class="cls-3" x="292.04" y="22.47" width="2" height="2" transform="translate(218.35 307.81) rotate(-79.86)"/><rect class="cls-2" x="291.85" y="-0.1" width="10" height="16" transform="translate(236.81 298.72) rotate(-79.86)"/><polygon class="cls-3" points="304.54 10.29 303.84 14.23 288.09 11.41 288.26 10.44 302.04 12.89 302.57 9.95 304.54 10.29"/><rect class="cls-3" x="303.08" y="6.16" width="2" height="2" transform="translate(243.5 305.23) rotate(-79.86)"/><rect class="cls-9" x="294.52" y="8.04" width="1.99" height="1.99" transform="translate(233.24 298.06) rotate(-79.59)"/><rect class="cls-3" x="293.87" y="6.55" width="2" height="2" transform="translate(235.52 296.48) rotate(-79.86)"/><rect class="cls-3" x="296.2" y="4.93" width="2" height="2" transform="translate(239.03 297.45) rotate(-79.86)"/><rect class="cls-3" x="295.5" y="8.87" width="2" height="2" transform="translate(234.58 300) rotate(-79.86)"/><rect class="cls-3" x="294.6" y="8.62" width="1" height="1" transform="translate(234.17 298) rotate(-79.86)"/><rect class="cls-3" x="297.55" y="9.14" width="1" height="1" transform="translate(236.09 301.34) rotate(-79.86)"/><rect class="cls-3" x="295.13" y="5.67" width="1" height="1" transform="translate(237.52 296.09) rotate(-79.86)"/><rect class="cls-3" x="298.08" y="6.2" width="1" height="1" transform="translate(239.42 299.44) rotate(-79.86)"/><rect class="cls-3" x="297.81" y="7.25" width="2" height="2" transform="translate(238.08 300.95) rotate(-79.86)"/><polygon class="cls-6" points="293.79 2.27 293.43 4.25 291.46 3.9 291.11 5.87 289.14 5.5 289.85 1.57 293.79 2.27"/><rect class="cls-2" x="288.31" y="30.96" width="2" height="4" transform="translate(205.93 311.95) rotate(-79.86)"/><rect class="cls-11" x="285.19" y="30.23" width="6" height="1" transform="translate(207.2 309.01) rotate(-79.86)"/><rect class="cls-2" x="313.27" y="34.4" width="2" height="2" transform="translate(224.1 338.53) rotate(-79.86)"/><rect class="cls-2" x="315.59" y="32.78" width="2" height="2" transform="translate(227.6 339.48) rotate(-79.86)"/><rect class="cls-2" x="319.54" y="33.49" width="2" height="2" transform="translate(230.16 343.95) rotate(-79.86)"/><rect class="cls-2" x="309.35" y="33.69" width="2" height="2" transform="translate(221.56 334.08) rotate(-79.86)"/><rect class="cls-2" x="305.4" y="33" width="2" height="2" transform="translate(218.99 329.63) rotate(-79.86)"/><rect class="cls-2" x="303.09" y="34.6" width="2" height="2" transform="translate(215.5 328.67) rotate(-79.86)"/><rect class="cls-2" x="290.91" y="34.46" width="2" height="2" transform="translate(205.61 316.57) rotate(-79.86)"/><rect class="cls-4" x="289.66" y="30.18" width="2" height="2" transform="translate(208.79 311.81) rotate(-79.86)"/><rect class="cls-2" x="293.23" y="32.85" width="2" height="2" transform="translate(209.11 317.52) rotate(-79.86)"/><rect class="cls-2" x="292.54" y="36.78" width="2" height="2" transform="translate(204.67 320.08) rotate(-79.86)"/><rect class="cls-2" x="303.5" y="55.01" width="2" height="2" transform="translate(195.76 345.89) rotate(-79.86)"/><rect class="cls-2" x="314.4" y="50.85" width="2" height="2" transform="translate(208.83 353.2) rotate(-79.86)"/><rect class="cls-2" x="316.72" y="49.23" width="2" height="2" transform="translate(212.33 354.15) rotate(-79.86)"/><rect class="cls-2" x="310.1" y="52.12" width="2" height="2" transform="translate(204.05 350.01) rotate(-79.86)"/><rect class="cls-2" x="305.82" y="53.38" width="2" height="2" transform="translate(199.27 346.83) rotate(-79.86)"/><rect class="cls-2" x="297.17" y="33.55" width="2" height="2" transform="translate(211.67 321.98) rotate(-79.86)"/><rect class="cls-2" x="298.79" y="35.88" width="2" height="2" transform="translate(210.71 325.49) rotate(-79.86)"/><rect class="cls-1" x="189.6" y="-11.76" width="2" height="46" transform="translate(145.97 196.89) rotate(-79.86)"/><rect class="cls-2" x="208.31" y="10.6" width="2" height="8" transform="translate(158.09 218.06) rotate(-79.86)"/><rect class="cls-4" x="198.86" y="-18.67" width="1" height="64" transform="translate(151.15 207.23) rotate(-79.86)"/><rect class="cls-11" x="198.7" y="-13.7" width="1" height="56" transform="translate(150.05 207.87) rotate(-79.86)"/><rect class="cls-4" x="110.07" y="-12.81" width="2" height="40" transform="translate(84.44 115.26) rotate(-79.86)"/><rect class="cls-2" x="110.43" y="-18.79" width="2" height="48" transform="translate(86.68 113.98) rotate(-79.86)"/><rect class="cls-1" x="103.77" y="-13.22" width="2" height="34.5" transform="translate(82.36 106.45) rotate(-79.86)"/><rect class="cls-2" x="113.38" y="2.74" width="2" height="6" transform="translate(88.59 117.32) rotate(-79.86)"/><rect class="cls-4" x="110.83" y="-18.29" width="1" height="48" transform="translate(86.11 114.29) rotate(-79.86)"/><rect class="cls-11" x="110.65" y="-13.31" width="1" height="40" transform="translate(85 114.93) rotate(-79.86)"/><rect class="cls-2" x="187.9" y="-0.98" width="2" height="32" transform="translate(140.86 198.32) rotate(-79.86)"/><rect class="cls-2" x="209.56" y="14.88" width="2" height="8" transform="translate(154.91 222.83) rotate(-79.86)"/><rect class="cls-2" x="173.15" y="11.36" width="2" height="2" transform="translate(131.32 181.61) rotate(-79.86)"/><rect class="cls-2" x="175.11" y="11.72" width="2" height="2" transform="translate(132.59 183.84) rotate(-79.86)"/><rect class="cls-2" x="176.72" y="14.04" width="2" height="2" transform="translate(131.63 187.34) rotate(-79.86)"/><rect class="cls-2" x="178.07" y="11.24" width="2" height="4" transform="translate(134.51 187.18) rotate(-79.86)"/><rect class="cls-2" x="172.8" y="13.34" width="2" height="2" transform="translate(129.09 182.9) rotate(-79.86)"/><rect class="cls-2" x="174.4" y="15.65" width="2" height="2" transform="translate(128.13 186.39) rotate(-79.86)"/><rect class="cls-2" x="181.02" y="12.77" width="2" height="2" transform="translate(136.41 190.52) rotate(-79.86)"/><rect class="cls-2" x="180.31" y="16.72" width="2" height="2" transform="translate(131.95 193.08) rotate(-79.86)"/><rect class="cls-3" x="172.86" y="16.21" width="1.99" height="9.96" transform="translate(121.61 188.35) rotate(-79.59)"/><rect class="cls-2" x="71.43" y="3.38" width="2" height="8" transform="translate(52.41 77.38) rotate(-79.86)"/><rect class="cls-1" x="73.99" y="5.24" width="1" height="4" transform="translate(54.24 79.29) rotate(-79.86)"/><rect class="cls-6" x="69.07" y="5.36" width="1" height="2" transform="translate(51.06 73.72) rotate(-79.86)"/><rect class="cls-6" x="73" y="6.06" width="1" height="2" transform="translate(53.61 78.18) rotate(-79.86)"/><rect class="cls-2" x="77.16" y="5.43" width="2" height="8" transform="translate(55.12 84.71) rotate(-79.86)"/><rect class="cls-1" x="78.73" y="6.1" width="1" height="6" transform="translate(56.33 85.5) rotate(-79.86)"/><rect class="cls-1" x="84.05" y="8.45" width="1" height="5.98" transform="translate(58.03 92.53) rotate(-79.59)"/><rect class="cls-6" x="76.77" y="7.75" width="1" height="2" transform="translate(55.05 83.27) rotate(-79.86)"/><rect class="cls-2" x="85.68" y="11.97" width="2" height="2" transform="translate(58.65 96.01) rotate(-79.86)"/><rect class="cls-2" x="103.33" y="-5.48" width="1.99" height="27.9" transform="translate(77.15 109.54) rotate(-79.59)"/><rect class="cls-2" x="98.53" y="0.18" width="2" height="18" transform="translate(72.97 105.55) rotate(-79.86)"/><rect class="cls-2" x="94.25" y="5.44" width="2" height="10" transform="translate(68.2 102.36) rotate(-79.86)"/><rect class="cls-2" x="94.25" y="5.44" width="2" height="10" transform="translate(68.2 102.36) rotate(-79.86)"/><rect class="cls-2" x="89.95" y="10.71" width="2" height="2" transform="translate(63.41 99.18) rotate(-79.86)"/><rect class="cls-2" x="243.53" y="22.17" width="2" height="34" transform="translate(162.92 272.98) rotate(-79.86)"/><rect class="cls-2" x="235.79" y="27.32" width="2" height="25" transform="translate(155.9 265.9) rotate(-79.86)"/><rect class="cls-3" x="247.06" y="15.22" width="1" height="48" transform="translate(165.38 276.01) rotate(-79.86)"/><rect class="cls-3" x="281.51" y="42.38" width="1" height="6" transform="translate(187.7 314.99) rotate(-79.86)"/><rect class="cls-2" x="227.07" y="39.3" width="2" height="2" transform="translate(148.25 257.71) rotate(-79.86)"/><rect class="cls-2" x="228.68" y="41.63" width="2" height="2" transform="translate(147.29 261.22) rotate(-79.86)"/><rect class="cls-2" x="231" y="40" width="2" height="2" transform="translate(150.8 262.16) rotate(-79.86)"/><rect class="cls-2" x="232.63" y="42.33" width="2" height="2" transform="translate(149.85 265.68) rotate(-79.86)"/><rect class="cls-2" x="234.95" y="40.7" width="2" height="2" transform="translate(153.36 266.62) rotate(-79.86)"/><rect class="cls-2" x="248.73" y="43.17" width="2" height="2" transform="translate(162.28 282.22) rotate(-79.86)"/><rect class="cls-2" x="251.05" y="41.55" width="2" height="2" transform="translate(165.78 283.17) rotate(-79.86)"/><rect class="cls-2" x="240.86" y="41.77" width="2" height="2" transform="translate(157.18 273.32) rotate(-79.86)"/><rect class="cls-2" x="238.52" y="43.38" width="2" height="2" transform="translate(153.66 272.35) rotate(-79.86)"/><rect class="cls-2" x="242.46" y="44.08" width="2" height="2" transform="translate(156.22 276.81) rotate(-79.86)"/><rect class="cls-2" x="124.69" y="20.98" width="2" height="2" transform="translate(81.93 141.84) rotate(-79.86)"/><rect class="cls-2" x="120.76" y="20.29" width="2" height="2" transform="translate(79.37 137.39) rotate(-79.86)"/><rect class="cls-2" x="123.07" y="18.66" width="2" height="2" transform="translate(82.88 138.34) rotate(-79.86)"/><rect class="cls-2" x="108.04" y="11.92" width="2" height="2" transform="translate(77.12 117.98) rotate(-79.86)"/><rect class="cls-2" x="99.81" y="12.47" width="2" height="2" transform="translate(69.8 110.33) rotate(-79.86)"/><rect class="cls-2" x="102.13" y="10.85" width="2" height="2" transform="translate(73.3 111.28) rotate(-79.86)"/><rect class="cls-2" x="95.86" y="11.77" width="2" height="2" transform="translate(67.24 105.87) rotate(-79.86)"/><rect class="cls-2" x="91.92" y="11.07" width="2" height="2" transform="translate(64.68 101.41) rotate(-79.86)"/><rect class="cls-2" x="93.55" y="13.38" width="2" height="2" transform="translate(63.74 104.92) rotate(-79.86)"/><rect class="cls-2" x="89.6" y="12.68" width="2" height="2" transform="translate(61.18 100.46) rotate(-79.86)"/><rect class="cls-2" x="125.39" y="17.05" width="2" height="2" transform="translate(86.37 139.29) rotate(-79.86)"/><rect class="cls-2" x="126.1" y="13.11" width="2" height="2" transform="translate(90.84 136.75) rotate(-79.86)"/><rect class="cls-2" x="184.26" y="17.41" width="2" height="2" transform="translate(134.52 197.54) rotate(-79.86)"/><rect class="cls-3" x="181.02" y="12.77" width="2" height="2" transform="translate(136.41 190.52) rotate(-79.86)"/><rect class="cls-3" x="184.95" y="13.49" width="2" height="2" transform="translate(138.95 194.98) rotate(-79.86)"/><rect class="cls-3" x="174.12" y="8.54" width="2" height="8" transform="translate(131.95 182.72) rotate(-79.86)"/><rect class="cls-2" x="186.58" y="15.81" width="2" height="2" transform="translate(138.01 198.49) rotate(-79.86)"/><rect class="cls-2" x="190.51" y="16.51" width="2" height="2" transform="translate(140.56 202.95) rotate(-79.86)"/><rect class="cls-5" x="173.34" y="13.55" width="8" height="13" transform="translate(126.38 191.1) rotate(-79.86)"/><polygon class="cls-7" points="175.58 15.68 175.23 17.64 173.26 17.3 172.91 19.25 171.92 19.09 171.22 23.02 170.23 22.84 171.64 14.96 175.58 15.68"/><rect class="cls-12" x="171.45" y="15.13" width="2" height="2" transform="translate(126.21 183.05) rotate(-79.86)"/><polygon class="cls-7" points="184.09 19.23 183.03 25.14 173.19 23.38 173.36 22.39 179.27 23.45 179.44 22.46 181.41 22.82 181.77 20.84 182.75 21.02 183.1 19.05 184.09 19.23"/><rect class="cls-2" x="175.55" y="17.4" width="1" height="14" transform="translate(121.04 193.4) rotate(-79.86)"/><rect class="cls-6" x="170.15" y="20.92" width="1" height="5" transform="translate(117.55 187.28) rotate(-79.86)"/><rect class="cls-3" x="182.63" y="15.09" width="2" height="2" transform="translate(135.46 194.02) rotate(-79.86)"/><rect class="cls-3" x="171.8" y="12.17" width="2" height="4" transform="translate(128.43 181.77) rotate(-79.86)"/><rect class="cls-3" x="174.76" y="13.7" width="2" height="2" transform="translate(130.35 185.13) rotate(-79.86)"/><rect class="cls-3" x="178.7" y="14.39" width="2" height="2" transform="translate(132.91 189.57) rotate(-79.86)"/><rect class="cls-2" x="219.07" y="32.96" width="4" height="2" transform="translate(148.72 245.6) rotate(-79.86)"/><rect class="cls-2" x="215.97" y="33.25" width="2" height="2" transform="translate(145.06 241.8) rotate(-79.86)"/><rect class="cls-2" x="213.64" y="34.86" width="2" height="2" transform="translate(141.55 240.83) rotate(-79.86)"/><rect class="cls-2" x="209.7" y="34.16" width="2" height="2" transform="translate(139 236.38) rotate(-79.86)"/><rect class="cls-2" x="207.39" y="35.78" width="2" height="2" transform="translate(135.5 235.43) rotate(-79.86)"/><rect class="cls-2" x="201.47" y="34.72" width="2" height="2" transform="translate(131.66 228.74) rotate(-79.86)"/><rect class="cls-2" x="199.16" y="36.33" width="2" height="2" transform="translate(128.17 227.79) rotate(-79.86)"/><rect class="cls-2" x="205.77" y="33.46" width="2" height="2" transform="translate(136.45 231.93) rotate(-79.86)"/><rect class="cls-2" x="214.34" y="30.93" width="2" height="2" transform="translate(146 238.28) rotate(-79.86)"/><rect class="cls-2" x="212.02" y="32.54" width="2" height="2" transform="translate(142.5 237.33) rotate(-79.86)"/><rect class="cls-2" x="218.64" y="29.66" width="2" height="2" transform="translate(150.78 241.47) rotate(-79.86)"/><rect class="cls-2" x="220.95" y="28.05" width="2" height="2" transform="translate(154.29 242.42) rotate(-79.86)"/><rect class="cls-3" x="219.2" y="37.89" width="2" height="2" transform="translate(143.15 248.8) rotate(-79.86)"/><rect class="cls-3" x="221.87" y="34.3" width="2" height="2" transform="translate(148.88 248.47) rotate(-79.86)"/><rect class="cls-3" x="220.81" y="40.21" width="2" height="2" transform="translate(142.19 252.31) rotate(-79.86)"/><rect class="cls-3" x="216.87" y="39.5" width="2" height="2" transform="translate(139.65 247.84) rotate(-79.86)"/><rect class="cls-3" x="212.94" y="38.81" width="2" height="2" transform="translate(137.09 243.39) rotate(-79.86)"/><rect class="cls-3" x="208.99" y="38.09" width="2" height="2" transform="translate(134.54 238.92) rotate(-79.86)"/><rect class="cls-3" x="205.07" y="37.39" width="2" height="2" transform="translate(131.99 234.48) rotate(-79.86)"/><rect class="cls-3" x="215.25" y="37.18" width="2" height="2" transform="translate(140.6 244.34) rotate(-79.86)"/></g></g></g></g></svg>