<svg xmlns="http://www.w3.org/2000/svg" viewBox="0 0 19.25 30.08"><defs><style>.cls-1{fill:#ff4d4e;}.cls-2,.cls-8{fill:#f1f0ee;}.cls-2{opacity:0.46;}.cls-3,.cls-7{fill:#9f1e31;}.cls-3{opacity:0.52;}.cls-4{fill:#586c79;}.cls-5{fill:#96a5ab;}.cls-6{fill:#2a3747;}.cls-9{fill:#080d11;}.cls-10{fill:#f06c02;}.cls-11{fill:#fff;opacity:0.35;}</style></defs><g id="Layer_2" data-name="Layer 2"><g id="Markers"><polygon class="cls-1" points="12.03 13.23 14.44 13.23 14.44 14.44 4.82 14.44 4.82 13.23 7.22 13.23 7.22 12.03 12.03 12.03 12.03 13.23"/><rect class="cls-2" x="5.41" y="12.63" width="1.2" height="2.41" transform="translate(19.85 7.82) rotate(90)"/><rect class="cls-2" x="7.82" y="11.43" width="1.2" height="2.41" transform="translate(21.05 4.21) rotate(90)"/><rect class="cls-3" x="10.23" y="11.43" width="1.2" height="2.41" transform="translate(23.46 1.8) rotate(90)"/><rect class="cls-2" x="2.41" y="15.64" width="1.2" height="1.2"/><rect class="cls-2" y="19.25" width="1.2" height="1.2"/><rect class="cls-2" x="3.61" y="14.44" width="1.2" height="1.2"/><rect class="cls-2" x="0.6" y="17.44" width="2.41" height="1.2" transform="translate(19.85 16.24) rotate(90)"/><polygon class="cls-4" points="18.05 22.86 18.05 25.26 16.84 25.26 16.84 26.47 15.64 26.47 15.64 27.67 14.44 27.67 14.44 28.87 12.03 28.87 12.03 30.07 7.22 30.07 7.22 28.87 4.81 28.87 4.81 27.67 3.61 27.67 3.61 26.47 2.41 26.47 2.41 25.26 1.2 25.26 1.2 22.86 2.41 22.86 2.41 24.06 3.61 24.06 3.61 25.26 4.81 25.26 4.81 26.47 7.22 26.47 7.22 27.67 12.03 27.67 12.03 26.47 14.44 26.47 14.44 25.26 15.64 25.26 15.64 24.06 16.84 24.06 16.84 22.86 18.05 22.86"/><rect class="cls-5" y="20.45" width="1.2" height="2.41"/><rect class="cls-6" x="18.05" y="20.45" width="1.2" height="2.41"/><rect class="cls-7" x="14.44" y="18.05" width="2.41" height="1.2"/><polygon class="cls-7" points="16.84 15.64 16.84 16.84 14.44 16.84 14.44 14.44 15.64 14.44 15.64 15.64 16.84 15.64"/><rect class="cls-7" x="9.62" y="20.45" width="2.41" height="1.2"/><rect class="cls-7" x="13.23" y="18.05" width="2.41" height="1.2"/><polygon class="cls-6" points="18.05 22.86 18.05 25.26 16.84 25.26 16.84 26.47 15.64 26.47 15.64 27.67 14.44 27.67 14.44 28.87 12.03 28.87 12.03 30.07 7.22 30.07 7.22 27.67 12.03 27.67 12.03 26.47 14.44 26.47 14.44 25.26 15.64 25.26 15.64 24.06 16.84 24.06 16.84 22.86 18.05 22.86"/><polygon class="cls-8" points="18.05 21.65 18.05 24.06 16.84 24.06 16.84 25.26 15.64 25.26 15.64 26.47 14.44 26.47 14.44 27.67 12.03 27.67 12.03 28.87 9.62 28.87 9.62 21.65 18.05 21.65"/><polyline class="cls-8" points="9.62 21.65 9.62 28.87 7.22 28.87 7.22 27.67 4.81 27.67 4.81 26.47 3.61 26.47 3.61 25.26 2.41 25.26 2.41 24.06 1.2 24.06 1.2 21.65"/><polygon class="cls-5" points="12.03 26.47 12.03 28.87 7.22 28.87 7.22 27.67 4.81 27.67 4.81 26.47 12.03 26.47"/><rect class="cls-8" x="7.22" y="24.06" width="2.41" height="2.41"/><rect class="cls-5" x="6.02" y="25.26" width="1.2" height="1.2"/><rect class="cls-5" x="8.42" y="22.86" width="1.2" height="1.2"/><polygon class="cls-1" points="19.25 19.25 19.25 21.65 16.84 21.65 16.84 22.86 2.41 22.86 2.41 21.65 0 21.65 0 19.25 1.2 19.25 1.2 16.84 2.41 16.84 2.41 15.64 3.61 15.64 3.61 14.44 15.64 14.44 15.64 15.64 16.84 15.64 16.84 16.84 18.05 16.84 18.05 19.25 19.25 19.25"/><rect class="cls-1" x="7.22" y="22.86" width="4.81" height="1.2"/><rect class="cls-7" x="7.22" y="13.23" width="6.02" height="2.41"/><rect class="cls-7" x="7.22" y="14.44" width="6.02" height="2.41"/><rect class="cls-7" x="7.22" y="14.44" width="7.22" height="1.2"/><rect class="cls-6" x="10.83" y="4.81" width="1.2" height="9.62"/><rect class="cls-6" x="7.22" y="9.62" width="4.81" height="1.2"/><rect class="cls-6" x="7.22" y="7.22" width="4.81" height="1.2"/><rect class="cls-4" x="7.22" y="4.81" width="1.2" height="7.22"/><rect class="cls-9" x="7.22" y="4.81" width="4.81" height="1.2"/><rect class="cls-6" x="7.22" y="12.03" width="1.2" height="2.41"/><rect class="cls-6" x="7.22" width="4.81" height="4.81"/><rect class="cls-10" x="8.42" y="1.2" width="2.41" height="2.41"/><rect class="cls-2" x="9.62" y="2.41" width="1.2" height="1.2"/><rect class="cls-11" x="7.22" width="2.41" height="2.41"/><rect class="cls-7" x="16.84" y="19.25" width="2.41" height="2.41"/><rect class="cls-7" x="12.03" y="20.45" width="4.81" height="2.41"/><rect class="cls-7" x="2.41" y="21.65" width="4.81" height="1.2"/><rect class="cls-7" x="7.22" y="21.65" width="4.81" height="2.41"/><rect class="cls-7" x="16.84" y="16.84" width="1.2" height="2.41"/></g></g></svg>