<?xml version="1.0" encoding="utf-8"?>
<!-- Generator: Adobe Illustrator 25.1.0, SVG Export Plug-In . SVG Version: 6.00 Build 0)  -->
<svg version="1.1" id="Layer_1" xmlns="http://www.w3.org/2000/svg" xmlns:xlink="http://www.w3.org/1999/xlink" x="0px" y="0px"
	 viewBox="0 0 100 200" style="enable-background:new 0 0 100 200;" xml:space="preserve">
<style type="text/css">
	.st0{fill:#6CDFFB;}
	.st1{fill:#235FDA;}
	.st2{fill:#96A5AB;}
	.st3{fill:#586C79;}
	.st4{fill:#2A3747;}
	.st5{fill:#080D11;}
	.st6{fill:#182028;}
	.st7{fill:#F1F0EE;}
	.st8{fill:#FFFFFF;}
	.st9{fill:#2CA8F8;}
	.st10{fill:#9D1B32;}
	.st11{fill:#F1C18D;}
	.st12{fill:#EE6928;}
</style>
<g id="Water">
	<g>
		<rect x="14" y="175.1" class="st0" width="6" height="2"/>
		<rect x="4" y="163.1" class="st0" width="6" height="2"/>
		<rect x="2" y="153.1" class="st0" width="6" height="2"/>
		<rect x="64" y="193.1" class="st0" width="6" height="2"/>
		<rect x="72" y="185.1" class="st0" width="6" height="2"/>
		<rect x="30" y="193.1" class="st0" width="6" height="2"/>
	</g>
	<g>
		<rect x="34" y="5" class="st1" width="4" height="2"/>
		<rect x="66" y="5" class="st1" width="6" height="2"/>
		<path class="st1" d="M100,136v-2h-4v-4h2v-2h-2v-1h-3v-1h2v-6h2v-2h1v-2h-4v-2h5v-2h-3v-2h-2v-2h4v-4h-4v-4h2v-2h2v-2h-2v-4h-2v-2
			h3v-2h-1v-2h3v-2h-5v-4h2v-2h2v-2h-3v-2h-1v-2h4v-4h-4v-2h4v-2h-4v-4h2v-2h2v-2h-2v-4h2v-2h-4v-2h-2v-1h4v-2h2v-2h-4v-2h2v-2h2v-2
			h-4v-2h4v-2h-2v-2h-2v-2h2v-2h-4v-2h-2v-2h-6v-2h2v-2h2v-2h-4v-2h2v-2h-8v-2h4V9h-6V7h4V3h-4V1H30v2h4v2h4v2h-8v2h-4v2h4v2h-6v2
			h-2v2h-8v2h-2v2h-2v2H8v2H6v3h6v2H6v10H4v2h2v6H2v2h4v2H4v4h2v2H4v2H2v4h4v2H2v2h2v4H2v2h1v2h1v2H0v2h4v4h2v2H4v2h1v2H2v2h2v4h2v2
			H4v2H0v4h4v4H2v2h2v2h2v2H2v2h4v2H5v2H3v6H1v2h3v1h2v1H4v4h2v2H3v2h3v2H2v2h2v3h2v3H2v2h4v1H5v2h1v1H4v2h2v2H2v2h2v2h2v4H1v2h3v2
			h2v1.1h4v2H8v2H6v2h2v2h2v2h2v2h8v2h2v2h8v2h-6v2h4v2h4v4h-4v2h46v-2h4v-4h-4v-2h6v-2h-4v-2h8v-2h-2v-2h8v-2h-6v-2h-2v-2h6v-2h2
			v-2h4v-2h-6v-0.7h4V170h4v-2h-3v-2h6v-2h-1v-2h-2v-2h-2v-2h5v-2h-3v-1h2v-2h-1v-1h1v-2h-4v-2h4v-4h-2v-2h-2v-2h4v-2h-3v-2H100z
			 M72,7h-6V5h6V7z"/>
		<rect x="12" y="5" class="st1" width="16" height="2"/>
		<rect x="2" y="10" class="st1" width="16" height="2"/>
		<rect x="16" y="23" class="st0" width="6" height="2"/>
		<rect x="6" y="35" class="st0" width="6" height="2"/>
		<rect x="4" y="45" class="st0" width="6" height="2"/>
		<rect x="66" y="5" class="st0" width="6" height="2"/>
		<rect x="74" y="13" class="st0" width="6" height="2"/>
		<rect x="90" y="15" class="st0" width="6" height="2"/>
		<rect x="82" y="172" class="st0" width="6" height="2"/>
		<rect x="90" y="176" class="st0" width="8" height="2"/>
		<rect x="32" y="5" class="st0" width="6" height="2"/>
		<rect x="18" y="12" class="st0" width="4" height="2"/>
		<rect x="4" y="30" class="st0" width="4" height="2"/>
	</g>
</g>
<g>
	<polygon class="st2" points="90,52 51,13 13,51 13,67 90,67 	"/>
	<g>
		<polygon class="st2" points="11,135 50.5,174 89,136 89,111 11,111 		"/>
		<polygon class="st3" points="81,123 81,125 75,125 75,127 51,127 51,128.9 63,128.9 63,130.9 51,130.9 51,171 35,171 35,125 
			31,125 31,123 		"/>
		<polygon class="st4" points="79,121 79,123 61,123 61,125 49,125 49,123 47,123 47,125 41,125 41,123 29,123 29,121 		"/>
		<rect x="31" y="126" class="st4" width="6" height="41.1"/>
		<rect x="65" y="125" class="st3" width="20" height="18"/>
		<rect x="65" y="133" class="st4" width="20" height="10"/>
		<rect x="65" y="137" class="st5" width="20" height="6"/>
		<rect x="11" y="107" class="st3" width="2" height="24"/>
		<rect x="15" y="125" class="st3" width="20" height="18"/>
		<rect x="15" y="133" class="st4" width="20" height="10"/>
		<rect x="15" y="137" class="st5" width="20" height="6"/>
		<polygon class="st2" points="11,147 13,157 21,169 39,187 43,191 47,193 49,193 49,171 43,167 25,151 19,141 15,135 11,131 		"/>
		<polygon class="st3" points="89,147 87,157 79,169 61,187 57,191 53,193 51,193 51,171 57,167 75,149 81,143 85,135 89,129 		"/>
		<rect x="45" y="169" class="st4" width="10" height="2"/>
		<polygon class="st6" points="91,121 91,151 89,151 89,157 87,157 87,161 85,161 85,163 83,163 83,167 81,167 81,169 79,169 
			79,173 77,173 77,175 75,175 75,177 73,177 73,179 71,179 71,181 69,181 69,183 67,183 67,185 65,185 65,187 63,187 63,189 
			61,189 61,191 59,191 59,193 55,193 55,195 51,195 51,193 53,193 53,191 57,191 57,189 59,189 59,187 61,187 61,185 63,185 
			63,183 65,183 65,181 67,181 67,179 69,179 69,177 71,177 71,175 73,175 73,173 75,173 75,171 77,171 77,167 79,167 79,165 
			81,165 81,161 83,161 83,159 85,159 85,155 87,155 87,149 85,149 85,147 87,147 87,145 85,145 85,143 87,143 87,135 85,135 
			85,131 87,131 87,129 89,129 89,121 		"/>
		<rect x="49" y="169" class="st4" width="2" height="26"/>
		<rect x="50" y="169" class="st6" width="1" height="26"/>
		<g>
			<rect x="9.5" y="129.5" transform="matrix(-1.836970e-16 1 -1 -1.836970e-16 140.5 119.5)" class="st4" width="2" height="1"/>
		</g>
		<g>
			<rect x="41" y="167" class="st4" width="6" height="2"/>
			<rect x="39" y="165" class="st4" width="4" height="2"/>
			<rect x="37" y="163" class="st4" width="4" height="2"/>
			<rect x="35" y="161" class="st4" width="4" height="2"/>
			<rect x="33" y="159" class="st4" width="2" height="0.1"/>
			<rect x="33" y="159" class="st4" width="2" height="0.1"/>
			<polygon class="st4" points="37,159 37,161 33,161 33,161.1 31,161.1 31,163.1 29,163.1 29,161.1 27,161.1 27,159.1 25,159.1 
				25,161.1 23,161.1 23,159.1 21,159.1 21,157.1 29,157.1 29,155.1 33,155.1 33,157.1 35,157.1 35,159 			"/>
			<rect x="27" y="153" class="st4" width="4" height="2"/>
			<rect x="9" y="115" class="st4" width="2" height="12"/>
			<rect x="13" y="131" class="st4" width="2" height="6"/>
			<rect x="15" y="135" class="st4" width="2" height="4"/>
			<rect x="17" y="137" class="st4" width="2" height="6"/>
			<rect x="19" y="141" class="st4" width="2" height="4"/>
			<rect x="21" y="143" class="st4" width="2" height="6"/>
			<rect x="25" y="149" class="st4" width="2" height="4"/>
			<rect x="23" y="147" class="st4" width="2" height="2"/>
			<rect x="23" y="149" class="st4" width="2" height="2"/>
			<rect x="27" y="151" class="st4" width="2" height="2"/>
		</g>
		<g>
			<rect x="53" y="167" transform="matrix(-1 -4.486867e-11 4.486867e-11 -1 112 336)" class="st4" width="6" height="2"/>
			<rect x="57" y="165" transform="matrix(-1 -4.547486e-11 4.547486e-11 -1 118 332)" class="st4" width="4" height="2"/>
			<rect x="59" y="163" transform="matrix(-1 -4.456536e-11 4.456536e-11 -1 122 328)" class="st4" width="4" height="2"/>
			<rect x="61" y="161" transform="matrix(-1 -4.456536e-11 4.456536e-11 -1 126 324)" class="st4" width="4" height="2"/>
			<rect x="63" y="159" transform="matrix(-1 -4.547486e-11 4.547486e-11 -1 130 320)" class="st4" width="4" height="2"/>
			<rect x="65" y="157" transform="matrix(-1 -4.456536e-11 4.456536e-11 -1 134 316)" class="st4" width="4" height="2"/>
			<rect x="67" y="155" transform="matrix(-1 -4.456536e-11 4.456536e-11 -1 138 312)" class="st4" width="4" height="2"/>
			<rect x="69" y="153" transform="matrix(-1 -4.547486e-11 4.547486e-11 -1 142 308)" class="st4" width="4" height="2"/>
			<rect x="89" y="110.9" transform="matrix(-1 -7.094071e-11 7.094071e-11 -1 180 231.93)" class="st4" width="2" height="10.1"/>
			<rect x="87" y="123" transform="matrix(-1 -4.365587e-11 4.365587e-11 -1 176 256)" class="st4" width="2" height="10"/>
			<rect x="85" y="131" transform="matrix(-1 -4.547486e-11 4.547486e-11 -1 172 268)" class="st4" width="2" height="6"/>
			<rect x="83" y="135" transform="matrix(-1 -4.547486e-11 4.547486e-11 -1 168 274)" class="st4" width="2" height="4"/>
			<rect x="81" y="137" transform="matrix(-1 -4.547486e-11 4.547486e-11 -1 164 280)" class="st4" width="2" height="6"/>
			<rect x="79" y="141" transform="matrix(-1 -4.365587e-11 4.365587e-11 -1 160 286)" class="st4" width="2" height="4"/>
			<rect x="77" y="143" transform="matrix(-1 -4.547486e-11 4.547486e-11 -1 156 292)" class="st4" width="2" height="6"/>
			<rect x="73" y="149" transform="matrix(-1 -4.365587e-11 4.365587e-11 -1 148 302)" class="st4" width="2" height="4"/>
			<rect x="75" y="147" transform="matrix(-1 -4.547486e-11 4.547486e-11 -1 152 296)" class="st4" width="2" height="2"/>
			<rect x="75" y="149" transform="matrix(-1 -4.547486e-11 4.547486e-11 -1 152 300)" class="st4" width="2" height="2"/>
			<rect x="71" y="151" transform="matrix(-1 -4.547486e-11 4.547486e-11 -1 144 304)" class="st4" width="2" height="2"/>
		</g>
		<rect x="75" y="157" class="st4" width="2" height="8"/>
		<rect x="79" y="153" class="st4" width="2" height="8"/>
		<rect x="57" y="167" class="st6" width="2" height="2"/>
		<rect x="53" y="169" class="st6" width="2" height="2"/>
		<rect x="59" y="165" class="st6" width="2" height="2"/>
		<rect x="61" y="163" class="st6" width="2" height="2"/>
		<rect x="63" y="161" class="st6" width="2" height="2"/>
		<rect x="65" y="159" class="st6" width="2" height="2"/>
		<rect x="67" y="157" class="st6" width="2" height="2"/>
		<rect x="71" y="153" class="st6" width="2" height="2"/>
		<rect x="73" y="151" class="st6" width="2" height="2"/>
		<rect x="75" y="147" class="st6" width="2" height="2"/>
		<rect x="77" y="147" class="st6" width="2" height="2"/>
		<rect x="77" y="145" class="st6" width="2" height="2"/>
		<rect x="79" y="141" class="st6" width="2" height="2"/>
		<rect x="81" y="137" class="st6" width="2" height="2"/>
		<rect x="81" y="137" class="st6" width="2" height="2"/>
		<rect x="83" y="135" class="st6" width="2" height="2"/>
		<g>
			<polygon class="st4" points="87,145 87,155 85,155 85,159 83,159 83,161 81,161 81,163 79,163 79,167 77,167 77,171 75,171 
				75,173 73,173 73,175 71,175 71,177 69,177 69,179 67,179 67,181 65,181 65,183 63,183 63,185 61,185 61,187 59,187 59,189 
				57,189 57,191 53,191 53,193 51,193 51,185 53,185 53,183 55,183 55,185 57,185 57,183 59,183 59,181 61,181 61,179 63,179 
				63,177 65,177 65,173 67,173 67,171 69,171 69,169 73,169 73,165 75,165 75,163 77,163 77,161 79,161 79,157 81,157 81,153 
				83,153 83,151 85,151 85,149 83,149 83,147 85,147 85,145 			"/>
			<rect x="57" y="179" class="st4" width="2" height="2"/>
			<rect x="55" y="181" class="st4" width="2" height="2"/>
			<rect x="53" y="187" class="st6" width="2" height="2"/>
			<rect x="51" y="181" class="st4" width="2" height="2"/>
			<rect x="53" y="179" class="st4" width="2" height="2"/>
			<rect x="59" y="177" class="st4" width="2" height="2"/>
		</g>
		<g>
			<polygon class="st3" points="49,185 49,193 47,193 47,191 43,191 43,189 41,189 41,187 39,187 39,185 37,185 37,183 35,183 
				35,181 33,181 33,179 31,179 31,177 29,177 29,175 27,175 27,173 25,173 25,171 23,171 23,167 21,167 21,165 19,165 19,161 
				17,161 17,159 15,159 15,155 13,155 13,147 11,147 11,133 13,133 13,141 15,141 15,143 13,143 13,145 15,145 15,147 17,147 
				17,149 15,149 15,151 17,151 17,153 19,153 19,157 21,157 21,161 23,161 23,163 25,163 25,165 27,165 27,163 31,163 31,165 
				29,165 29,167 27,167 27,169 29,169 29,167 31,167 31,171 33,171 33,173 35,173 35,177 37,177 37,179 39,179 39,181 41,181 
				41,183 43,183 43,185 45,185 45,183 47,183 47,185 			"/>
			<rect x="41" y="179" transform="matrix(-1 -4.547486e-11 4.547486e-11 -1 84 360)" class="st3" width="2" height="2"/>
			<rect x="43" y="181" transform="matrix(-1 -4.365587e-11 4.365587e-11 -1 88 364)" class="st3" width="2" height="2"/>
			<rect x="47" y="181" transform="matrix(-1 -4.547486e-11 4.547486e-11 -1 96 364)" class="st3" width="2" height="2"/>
			<rect x="45" y="179" transform="matrix(-1 -4.547486e-11 4.547486e-11 -1 92 360)" class="st3" width="2" height="2"/>
			<rect x="39" y="177" transform="matrix(-1 -4.547486e-11 4.547486e-11 -1 80 356)" class="st3" width="2" height="2"/>
			<rect x="35" y="171" transform="matrix(-1 -4.547486e-11 4.547486e-11 -1 72 344)" class="st3" width="2" height="2"/>
			<rect x="37" y="173" transform="matrix(-1 -4.365587e-11 4.365587e-11 -1 76 348)" class="st3" width="2" height="2"/>
			<rect x="31" y="175" transform="matrix(-1 -4.365587e-11 4.365587e-11 -1 64 352)" class="st4" width="2" height="2"/>
			<rect x="29" y="171" transform="matrix(-1 -4.547486e-11 4.547486e-11 -1 60 344)" class="st4" width="2" height="2"/>
			<rect x="27" y="169" transform="matrix(-1 -4.547486e-11 4.547486e-11 -1 56 340)" class="st4" width="2" height="2"/>
			<rect x="23" y="165" transform="matrix(-1 -4.547486e-11 4.547486e-11 -1 48 332)" class="st4" width="2" height="2"/>
			<rect x="21" y="163" transform="matrix(-1 -4.547486e-11 4.547486e-11 -1 44 328)" class="st4" width="2" height="2"/>
			<rect x="17" y="157" transform="matrix(-1 -4.547486e-11 4.547486e-11 -1 36 316)" class="st4" width="2" height="2"/>
			<rect x="15" y="155" class="st4" width="2" height="2"/>
			<rect x="13" y="151" class="st4" width="2" height="4"/>
			<polygon class="st4" points="51,193 51,195 45,195 45,193 41,193 41,191 39,191 39,189 37,189 37,187 35,187 35,185 33,185 
				33,183 31,183 31,181 29,181 29,179 27,179 27,177 25,177 25,175 23,175 23,173 21,173 21,169 19,169 19,167 17,167 17,163 
				15,163 15,161 13,161 13,157 11,157 11,151 9,151 9,127 11,127 11,147 13,147 13,155 15,155 15,159 17,159 17,161 19,161 19,165 
				21,165 21,167 23,167 23,171 25,171 25,173 27,173 27,175 29,175 29,177 31,177 31,179 33,179 33,181 35,181 35,183 37,183 
				37,185 39,185 39,187 41,187 41,189 43,189 43,191 47,191 47,193 			"/>
			<rect x="19" y="161" class="st4" width="2" height="2"/>
			<rect x="25" y="169" transform="matrix(-1 -4.365587e-11 4.365587e-11 -1 52 340)" class="st4" width="2" height="2"/>
			<rect x="33" y="177" transform="matrix(-1 -4.365587e-11 4.365587e-11 -1 68 356)" class="st4" width="2" height="2"/>
			<rect x="35" y="179" transform="matrix(-1 -4.365587e-11 4.365587e-11 -1 72 360)" class="st4" width="2" height="2"/>
			<rect x="39" y="183" transform="matrix(-1 -4.365587e-11 4.365587e-11 -1 80 368)" class="st4" width="2" height="2"/>
			<rect x="43" y="185" transform="matrix(-1 -4.365587e-11 4.365587e-11 -1 88 372)" class="st4" width="2" height="2"/>
			<rect x="43" y="187" transform="matrix(-1 -4.365587e-11 4.365587e-11 -1 88 376)" class="st4" width="2" height="2"/>
			<rect x="45" y="187" transform="matrix(-1 -4.547486e-11 4.547486e-11 -1 92 376)" class="st4" width="2" height="2"/>
			<rect x="33" y="169" transform="matrix(-1 -4.547486e-11 4.547486e-11 -1 68 340)" class="st3" width="2" height="2"/>
			<rect x="25" y="161" transform="matrix(-1 -4.547486e-11 4.547486e-11 -1 52 324)" class="st3" width="2" height="2"/>
			<rect x="31" y="161" transform="matrix(-1 -4.547486e-11 4.547486e-11 -1 64 324)" class="st3" width="2" height="2"/>
			<rect x="21" y="155" transform="matrix(-1 -4.547486e-11 4.547486e-11 -1 44 312)" class="st3" width="2" height="2"/>
			<rect x="17" y="149" transform="matrix(-1 -4.365587e-11 4.365587e-11 -1 36 300)" class="st3" width="2" height="2"/>
			<rect x="19" y="151" transform="matrix(-1 -4.547486e-11 4.547486e-11 -1 40 304)" class="st3" width="2" height="2"/>
		</g>
		<rect x="61" y="175" class="st4" width="2" height="2"/>
		<rect x="63" y="173" class="st6" width="2" height="2"/>
		<rect x="67" y="171" class="st6" width="2" height="2"/>
		<rect x="61" y="177" class="st6" width="2" height="2"/>
		<rect x="57" y="181" class="st6" width="2" height="2"/>
		<rect x="71" y="163" class="st4" width="2" height="2"/>
		<rect x="71" y="163" class="st4" width="2" height="2"/>
		<rect x="77" y="153" class="st4" width="2" height="2"/>
		<rect x="81" y="149" class="st4" width="2" height="2"/>
		<rect x="83" y="149" class="st6" width="2" height="2"/>
		<rect x="75" y="161" class="st6" width="2" height="2"/>
		<polygon class="st6" points="83,153.1 83,157.1 81,157.1 81,159 75,159 75,161 69,161 69,155 71,155 71,157 79,157 79,155.1 
			81,155.1 81,153.1 		"/>
		<rect x="73" y="165" class="st6" width="2" height="2"/>
		<rect x="71" y="167" class="st6" width="2" height="2"/>
		<rect x="81" y="145" class="st4" width="2" height="2"/>
		<rect x="83" y="143" class="st4" width="2" height="2"/>
		<rect x="85" y="141" class="st4" width="2" height="2"/>
		<rect x="85" y="139" class="st4" width="2" height="2"/>
		<rect x="67" y="167" class="st4" width="2" height="2"/>
		<rect x="65" y="169" class="st4" width="2" height="2"/>
		<rect x="63" y="171" class="st4" width="2" height="2"/>
		<rect x="29" y="153" class="st7" width="2" height="1"/>
		<g>
			<rect x="9" y="123" class="st7" width="4" height="1"/>
			<rect x="13" y="131" class="st7" width="2" height="2"/>
			<rect x="15" y="135" class="st7" width="2" height="1"/>
			<rect x="17" y="137" class="st7" width="2" height="1"/>
			<rect x="19" y="141" class="st7" width="2" height="1"/>
			<rect x="21" y="143" class="st7" width="2" height="1"/>
			<rect x="23" y="147" class="st7" width="2" height="1"/>
			<rect x="25" y="149" class="st7" width="2" height="1"/>
			<rect x="27" y="151" class="st7" width="2" height="1"/>
			<rect x="31" y="155" class="st7" width="2" height="1"/>
			<rect x="33" y="157" class="st7" width="2" height="1"/>
			<rect x="35" y="159" class="st7" width="2" height="1"/>
			<rect x="37" y="161" class="st7" width="2" height="1"/>
			<rect x="39" y="163" class="st7" width="2" height="1"/>
			<rect x="41" y="165" class="st7" width="2" height="1"/>
			<rect x="43" y="167" class="st7" width="4" height="1"/>
			<rect x="47" y="169" class="st7" width="6" height="1"/>
			<rect x="12" y="133" transform="matrix(6.123234e-17 -1 1 6.123234e-17 -119 148)" class="st7" width="5" height="1"/>
			<rect x="15" y="136" transform="matrix(6.123234e-17 -1 1 6.123234e-17 -120 153)" class="st7" width="3" height="1"/>
			<rect x="19" y="142" transform="matrix(6.123234e-17 -1 1 6.123234e-17 -122 163)" class="st7" width="3" height="1"/>
			<rect x="23" y="148" transform="matrix(6.123234e-17 -1 1 6.123234e-17 -124 173)" class="st7" width="3" height="1"/>
			<rect x="25" y="150" transform="matrix(6.123234e-17 -1 1 6.123234e-17 -124 177)" class="st7" width="3" height="1"/>
			<rect x="27" y="152" transform="matrix(6.123234e-17 -1 1 6.123234e-17 -124 181)" class="st7" width="3" height="1"/>
			<rect x="29" y="154" transform="matrix(6.123234e-17 -1 1 6.123234e-17 -124 185)" class="st7" width="3" height="1"/>
			<rect x="31" y="156" transform="matrix(6.123234e-17 -1 1 6.123234e-17 -124 189)" class="st7" width="3" height="1"/>
			<rect x="33" y="158" transform="matrix(6.123234e-17 -1 1 6.123234e-17 -124 193)" class="st7" width="3" height="1"/>
			<rect x="35" y="160" transform="matrix(6.123234e-17 -1 1 6.123234e-17 -124 197)" class="st7" width="3" height="1"/>
			<rect x="37" y="162" transform="matrix(6.123234e-17 -1 1 6.123234e-17 -124 201)" class="st7" width="3" height="1"/>
			<rect x="39" y="164" transform="matrix(6.123234e-17 -1 1 6.123234e-17 -124 205)" class="st7" width="3" height="1"/>
			<rect x="41" y="166" transform="matrix(6.123234e-17 -1 1 6.123234e-17 -124 209)" class="st7" width="3" height="1"/>
			<rect x="45" y="168" transform="matrix(6.123234e-17 -1 1 6.123234e-17 -122 215)" class="st7" width="3" height="1"/>
			<rect x="16" y="139" transform="matrix(6.123234e-17 -1 1 6.123234e-17 -121 158)" class="st7" width="5" height="1"/>
			<rect x="20" y="145" transform="matrix(6.123234e-17 -1 1 6.123234e-17 -123 168)" class="st7" width="5" height="1"/>
		</g>
		<g>
			<rect x="87" y="123" transform="matrix(-1 -4.456536e-11 4.456536e-11 -1 178 247)" class="st7" width="4" height="1"/>
			<rect x="85" y="131" transform="matrix(-1 -4.547486e-11 4.547486e-11 -1 172 263)" class="st7" width="2" height="1"/>
			<rect x="87" y="129" transform="matrix(-1 -2.273749e-11 2.273749e-11 -1 178 259)" class="st7" width="4" height="1"/>
			<rect x="83" y="135" transform="matrix(-1 -4.547486e-11 4.547486e-11 -1 168 271)" class="st7" width="2" height="1"/>
			<rect x="81" y="137" transform="matrix(-1 -4.547486e-11 4.547486e-11 -1 164 275)" class="st7" width="2" height="1"/>
			<rect x="79" y="141" transform="matrix(-1 -4.365587e-11 4.365587e-11 -1 160 283)" class="st7" width="2" height="1"/>
			<rect x="77" y="143" transform="matrix(-1 -4.547486e-11 4.547486e-11 -1 156 287)" class="st7" width="2" height="1"/>
			<rect x="75" y="147" transform="matrix(-1 -4.547486e-11 4.547486e-11 -1 152 295)" class="st7" width="2" height="1"/>
			<rect x="73" y="149" transform="matrix(-1 -4.365587e-11 4.365587e-11 -1 148 299)" class="st7" width="2" height="1"/>
			<rect x="71" y="151" transform="matrix(-1 -4.547486e-11 4.547486e-11 -1 144 303)" class="st7" width="2" height="1"/>
			<rect x="67" y="155" transform="matrix(-1 -4.365587e-11 4.365587e-11 -1 136 311)" class="st7" width="2" height="1"/>
			<rect x="65" y="157" transform="matrix(-1 -4.547486e-11 4.547486e-11 -1 132 315)" class="st7" width="2" height="1"/>
			<rect x="63" y="159" transform="matrix(-1 -4.547486e-11 4.547486e-11 -1 128 319)" class="st7" width="2" height="1"/>
			<rect x="61" y="161" transform="matrix(-1 -4.365587e-11 4.365587e-11 -1 124 323)" class="st7" width="2" height="1"/>
			<rect x="59" y="163" transform="matrix(-1 -4.547486e-11 4.547486e-11 -1 120 327)" class="st7" width="2" height="1"/>
			<rect x="57" y="165" transform="matrix(-1 -4.547486e-11 4.547486e-11 -1 116 331)" class="st7" width="2" height="1"/>
			<rect x="53" y="167" transform="matrix(-1 -4.456536e-11 4.456536e-11 -1 110 335)" class="st7" width="4" height="1"/>
			<rect x="47" y="169" transform="matrix(-1 -4.486867e-11 4.486867e-11 -1 100 339)" class="st7" width="6" height="1"/>
			<rect x="83" y="127" transform="matrix(-4.486829e-11 1 -1 -4.486829e-11 215 40)" class="st7" width="9" height="1"/>
			<rect x="83" y="133" transform="matrix(4.511064e-11 -1 1 4.511064e-11 -48 219)" class="st7" width="5" height="1"/>
			<rect x="82" y="136" transform="matrix(4.486817e-11 -1 1 4.486817e-11 -53 220)" class="st7" width="3" height="1"/>
			<rect x="86.5" y="124.5" transform="matrix(4.456530e-11 -1 1 4.456530e-11 -36.5 213.5)" class="st7" width="4" height="1"/>
			<rect x="78" y="142" transform="matrix(4.486817e-11 -1 1 4.486817e-11 -63 222)" class="st7" width="3" height="1"/>
			<rect x="74" y="148" transform="matrix(4.486817e-11 -1 1 4.486817e-11 -73 224)" class="st7" width="3" height="1"/>
			<rect x="72" y="150" transform="matrix(4.486817e-11 -1 1 4.486817e-11 -77 224)" class="st7" width="3" height="1"/>
			<rect x="70" y="152" transform="matrix(4.608142e-11 -1 1 4.608142e-11 -81 224)" class="st7" width="3" height="1"/>
			<rect x="68" y="154" transform="matrix(4.486817e-11 -1 1 4.486817e-11 -85 224)" class="st7" width="3" height="1"/>
			<rect x="66" y="156" transform="matrix(4.486817e-11 -1 1 4.486817e-11 -89 224)" class="st7" width="3" height="1"/>
			<rect x="64" y="158" transform="matrix(4.486817e-11 -1 1 4.486817e-11 -93 224)" class="st7" width="3" height="1"/>
			<rect x="62" y="160" transform="matrix(4.486817e-11 -1 1 4.486817e-11 -97 224)" class="st7" width="3" height="1"/>
			<rect x="60" y="162" transform="matrix(4.608142e-11 -1 1 4.608142e-11 -101 224)" class="st7" width="3" height="1"/>
			<rect x="58" y="164" transform="matrix(4.486817e-11 -1 1 4.486817e-11 -105 224)" class="st7" width="3" height="1"/>
			<rect x="56" y="166" transform="matrix(4.486817e-11 -1 1 4.486817e-11 -109 224)" class="st7" width="3" height="1"/>
			<rect x="52" y="168" transform="matrix(4.486817e-11 -1 1 4.486817e-11 -115 222)" class="st7" width="3" height="1"/>
			<rect x="79" y="139" transform="matrix(4.511064e-11 -1 1 4.511064e-11 -58 221)" class="st7" width="5" height="1"/>
			<rect x="75" y="145" transform="matrix(4.511064e-11 -1 1 4.511064e-11 -68 223)" class="st7" width="5" height="1"/>
		</g>
	</g>
	<polygon class="st3" points="49,5 49,19 45,21 25,39 21,45 17,51 13,57 11,57 11,49 13,41 21,29 27,21 43,5 47,5 	"/>
	<path class="st4" d="M49,13v-2h-2V9h-2V7h-2v4h2v2h-2v2h2v2h-2v-2h-2v2h-4v2h2v2h-2v2h-2v-2h-2v2h-2v-2h2v-6l-6,6l-6,8l-8,12l-2,8
		v8h2l12-18l8-7.2V29h2v-2h2v-2h2v-2h2v-2h4v-2h4v-4h-2v-2H49z M31,27h-2v2h-2v-2h2v-2h2V27z"/>
	<rect x="9" y="55" class="st2" width="82" height="65"/>
	<polygon class="st3" points="89,62.9 89,129 87,129 87,131 85,131 85,126 87,126 87,62.9 	"/>
	<rect x="79" y="65" class="st3" width="4" height="56"/>
	<polygon class="st3" points="51,21 51,23 49,23 49,25 45,25 45,27 47,27 47,29 41,29 41,31 39,31 39,33 37,33 37,35 35,35 35,39 
		33,39 33,41 31,41 31,43 29,43 29,45 27,45 27,47 29,47 29,49 27,49 27,51 25,51 25,53 27,53 27,55 29,55 29,57 15,57 15,55 13,55 
		13,53 11,53 11,51 13,51 13,49 15,49 15,47 13,47 13,45 15,45 15,43 17,43 17,41 19,41 19,39 21,39 21,37 33,37 33,35 23,35 23,33 
		25,33 25,31 27,31 27,27 29,27 29,29 33,29 33,27 31,27 31,25 33,25 33,23 37,23 37,21 	"/>
	<rect x="15" y="41" class="st3" width="2" height="2"/>
	<rect x="19" y="35" class="st3" width="14" height="2"/>
	<rect x="21" y="35" class="st3" width="12" height="2"/>
	<rect x="13" y="57" class="st3" width="10" height="2"/>
	<rect x="11" y="59" class="st3" width="10" height="2"/>
	<rect x="9" y="61" class="st3" width="10" height="2"/>
	<rect x="9" y="63" class="st3" width="8" height="2"/>
	<rect x="9" y="65" class="st3" width="6" height="2"/>
	<rect x="9" y="69" class="st3" width="6" height="2"/>
	<rect x="9" y="67" class="st3" width="8" height="2"/>
	<rect x="27" y="27" class="st4" width="2" height="2"/>
	<rect x="31" y="21" class="st4" width="2" height="2"/>
	<polygon class="st3" points="51,5 51,19 55,21 75,39 79,45 83,51 87,57 89,57 89,49 87,41 79,29 73,21 57,5 53,5 	"/>
	<g>
		<polygon class="st4" points="87,49 87,43 85,43 85,39 83,39 83,37 81,37 81,33 79,33 79,31 77,31 77,27 75,27 75,25 73,25 73,23 
			71,23 71,21 69,21 69,19 67,19 67,17 65,17 65,15 63,15 63,13 61,13 61,11 59,11 59,9 57,9 57,7 51,7 51,3 55,3 55,5 59,5 59,7 
			61,7 61,9 63,9 63,11 65,11 65,13 67,13 67,15 69,15 69,17 71,17 71,19 73,19 73,21 75,21 75,23 77,23 77,25 79,25 79,29 81,29 
			81,31 83,31 83,35 85,35 85,37 87,37 87,41 89,41 89,51 85,51 85,49 		"/>
		<rect x="45" y="3" transform="matrix(-1 -6.002678e-11 6.002678e-11 -1 96 8)" class="st6" width="6" height="2"/>
		<g>
			<rect x="90" y="47" class="st4" width="1" height="24"/>
		</g>
		<g>
			<rect x="41" y="5" class="st6" width="6" height="2"/>
			<rect x="39" y="7" class="st6" width="4" height="2"/>
			<rect x="37" y="9" class="st6" width="4" height="2"/>
			<rect x="35" y="11" class="st6" width="4" height="2"/>
			<rect x="33" y="13" class="st6" width="4" height="2"/>
			<rect x="31" y="15" class="st6" width="4" height="2"/>
			<rect x="29" y="17" class="st6" width="4" height="2"/>
			<rect x="27" y="19" class="st6" width="4" height="2"/>
			<rect x="9" y="47" class="st6" width="2" height="24"/>
			<rect x="11" y="41" class="st6" width="2" height="8"/>
			<rect x="13" y="37" class="st6" width="2" height="6"/>
			<rect x="15" y="35" class="st6" width="2" height="4"/>
			<rect x="17" y="31" class="st6" width="2" height="6"/>
			<rect x="19" y="29" class="st6" width="2" height="4"/>
			<rect x="21" y="25" class="st6" width="2" height="6"/>
			<rect x="25" y="21" class="st6" width="2" height="4"/>
			<rect x="23" y="25" class="st6" width="2" height="2"/>
			<rect x="23" y="23" class="st6" width="2" height="2"/>
			<rect x="27" y="21" class="st6" width="2" height="2"/>
		</g>
	</g>
	<g>
		<rect x="49" y="19" transform="matrix(-1 -8.973679e-11 8.973679e-11 -1 104 40)" class="st4" width="6" height="2"/>
		<g>
			<polygon class="st4" points="75,39 75,41 73,41 73,39 71,39 71,37 69,37 69,35 67,35 67,33 65,33 65,31 63,31 63,29 61,29 61,27 
				59,27 59,25 57,25 57,23 53,23 53,21 63,21 63,23 61,23 61,25 63,25 63,27 65,27 65,29 67,29 67,27 69,27 69,29 71,29 71,31 
				69,31 69,33 71,33 71,35 73,35 73,37 77,37 77,39 			"/>
			<rect x="75" y="39" transform="matrix(-1 -8.913061e-11 8.913061e-11 -1 152 80)" class="st4" width="2" height="2"/>
		</g>
	</g>
	<g>
		<rect x="-15" y="95" transform="matrix(2.594093e-13 -1 1 2.594093e-13 -84 110)" class="st3" width="56" height="4"/>
		<g>
			<rect x="11" y="138" transform="matrix(-1 -1.224647e-16 1.224647e-16 -1 24 278)" class="st4" width="2" height="2"/>
			<polygon class="st4" points="11,74 11,81 13,81 13,83 11,83 11,90 13,90 13,92 11,92 11,99 13,99 13,101 11,101 11,107 13,107 
				13,109 11,109 11,115 13,115 13,117 11,117 11,123 13,123 13,125 11,125 11,129 10,129 10,47 11,47 11,72 13,72 13,74 			"/>
			<rect x="11" y="131" transform="matrix(-1 -1.224647e-16 1.224647e-16 -1 24 264)" class="st4" width="2" height="2"/>
		</g>
		<polygon class="st7" points="52,3 52,4 46,4 46,6 42,6 42,8 40,8 40,10 38,10 38,12 36,12 36,14 34,14 34,16 32,16 32,18 30,18 
			30,20 28,20 28,22 26,22 26,24 24,24 24,26 22,26 22,30 20,30 20,32 18,32 18,36 16,36 16,38 14,38 14,42 12,42 12,47 11,47 
			11,48 10,48 10,131 9,131 9,47 10,47 10,46 11,46 11,41 13,41 13,37 15,37 15,35 17,35 17,31 19,31 19,29 21,29 21,25 23,25 
			23,23 25,23 25,21 27,21 27,19 29,19 29,17 31,17 31,15 33,15 33,13 35,13 35,11 37,11 37,9 39,9 39,7 41,7 41,5 45,5 45,3 		"/>
	</g>
	<g>
		<g>
			<rect x="87" y="138" class="st4" width="2" height="2"/>
			<polygon class="st4" points="90,47 90,129 89,129 89,125 87,125 87,123 89,123 89,117 87,117 87,115 89,115 89,109 87,109 
				87,107 89,107 89,101 87,101 87,99 89,99 89,92 87,92 87,90 89,90 89,83 87,83 87,81 89,81 89,74 87,74 87,72 89,72 89,67 87,67 
				87,59 85,59 85,55 83,55 83,53 81,53 81,49 79,49 79,47 77,47 77,43 75,43 75,41 81,41 81,43 79,43 79,45 83,45 83,47 85,47 
				85,49 83,49 83,51 85,51 85,53 89,53 89,47 			"/>
		</g>
		<rect x="49.5" y="87.5" transform="matrix(1.018632e-10 1 -1 1.018632e-10 178.5 -2.5)" class="st7" width="82" height="1"/>
	</g>
	<g>
		<rect x="87" y="41" transform="matrix(-1 9.094935e-11 -9.094935e-11 -1 176 83)" class="st7" width="2" height="1"/>
		<rect x="85" y="37" transform="matrix(-1 8.913036e-11 -8.913036e-11 -1 172 75)" class="st7" width="2" height="1"/>
		<rect x="83" y="35" transform="matrix(-1 9.003985e-11 -9.003985e-11 -1 168 71)" class="st7" width="2" height="1"/>
		<rect x="81" y="31" transform="matrix(-1 9.003985e-11 -9.003985e-11 -1 164 63)" class="st7" width="2" height="1"/>
		<rect x="79" y="29" transform="matrix(-1 8.913036e-11 -8.913036e-11 -1 160 59)" class="st7" width="2" height="1"/>
		<rect x="77" y="25" transform="matrix(-1 9.003985e-11 -9.003985e-11 -1 156 51)" class="st7" width="2" height="1"/>
		<rect x="75" y="23" transform="matrix(-1 8.913036e-11 -8.913036e-11 -1 152 47)" class="st7" width="2" height="1"/>
		<rect x="73" y="21" transform="matrix(-1 9.003985e-11 -9.003985e-11 -1 148 43)" class="st7" width="2" height="1"/>
		<rect x="72" y="19" transform="matrix(-1 8.913036e-11 -8.913036e-11 -1 146 39)" class="st7" width="2" height="1"/>
		<rect x="69" y="17" transform="matrix(-1 9.003985e-11 -9.003985e-11 -1 140 35)" class="st7" width="2" height="1"/>
		<rect x="67" y="15" transform="matrix(-1 8.913036e-11 -8.913036e-11 -1 136 31)" class="st7" width="2" height="1"/>
		<rect x="65" y="13" transform="matrix(-1 9.094935e-11 -9.094935e-11 -1 132 27)" class="st7" width="2" height="1"/>
		<rect x="63" y="11" transform="matrix(-1 8.913036e-11 -8.913036e-11 -1 128 23)" class="st7" width="2" height="1"/>
		<rect x="61" y="9" transform="matrix(-1 9.003985e-11 -9.003985e-11 -1 124 19)" class="st7" width="2" height="1"/>
		<rect x="59" y="7" transform="matrix(-1 9.003985e-11 -9.003985e-11 -1 120 15)" class="st7" width="2" height="1"/>
		<rect x="55" y="5" transform="matrix(-1 8.958510e-11 -8.958510e-11 -1 114 11)" class="st7" width="4" height="1"/>
		<rect x="49" y="3" transform="matrix(-1 8.973654e-11 -8.973654e-11 -1 104 7)" class="st7" width="6" height="1"/>
		<rect x="86.5" y="43.5" transform="matrix(-1.570397e-10 -1 1 -1.570397e-10 45.5 133.5)" class="st7" width="6" height="1"/>
		<rect x="85" y="39" transform="matrix(9.022187e-11 1 -1 9.022187e-11 127 -48)" class="st7" width="5" height="1"/>
		<rect x="84" y="36" transform="matrix(8.973693e-11 1 -1 8.973693e-11 122 -49)" class="st7" width="3" height="1"/>
		<rect x="89.5" y="46.5" transform="matrix(2.237355e-10 1 -1 2.237355e-10 137.5 -43.5)" class="st7" width="2" height="1"/>
		<rect x="80" y="30" transform="matrix(8.973693e-11 1 -1 8.973693e-11 112 -51)" class="st7" width="3" height="1"/>
		<rect x="76" y="24" transform="matrix(8.973693e-11 1 -1 8.973693e-11 102 -53)" class="st7" width="3" height="1"/>
		<rect x="74" y="22" transform="matrix(8.973693e-11 1 -1 8.973693e-11 98 -53)" class="st7" width="3" height="1"/>
		<rect x="72" y="20" transform="matrix(8.973693e-11 1 -1 8.973693e-11 94 -53)" class="st7" width="3" height="1"/>
		<rect x="70" y="18" transform="matrix(9.094929e-11 1 -1 9.094929e-11 90 -53)" class="st7" width="3" height="1"/>
		<rect x="68" y="16" transform="matrix(8.973693e-11 1 -1 8.973693e-11 86 -53)" class="st7" width="3" height="1"/>
		<rect x="66" y="14" transform="matrix(8.973693e-11 1 -1 8.973693e-11 82 -53)" class="st7" width="3" height="1"/>
		<rect x="64" y="12" transform="matrix(8.973693e-11 1 -1 8.973693e-11 78 -53)" class="st7" width="3" height="1"/>
		<rect x="62" y="10" transform="matrix(9.094929e-11 1 -1 9.094929e-11 74 -53)" class="st7" width="3" height="1"/>
		<rect x="60" y="8" transform="matrix(8.973693e-11 1 -1 8.973693e-11 70 -53)" class="st7" width="3" height="1"/>
		<rect x="58" y="6" transform="matrix(8.973693e-11 1 -1 8.973693e-11 66 -53)" class="st7" width="3" height="1"/>
		<rect x="54" y="4" transform="matrix(8.973693e-11 1 -1 8.973693e-11 60 -51)" class="st7" width="3" height="1"/>
		<rect x="81" y="33" transform="matrix(8.949445e-11 1 -1 8.949445e-11 117 -50)" class="st7" width="5" height="1"/>
		<rect x="77" y="27" transform="matrix(9.022187e-11 1 -1 9.022187e-11 107 -52)" class="st7" width="5" height="1"/>
	</g>
	<polygon class="st6" points="51,5 51,21 47,21 47,23 43,23 43,25 41,25 41,27 39,27 39,29 37,29 37,31 35,31 35,33 33,33 33,35 
		31,35 31,37 29,37 29,39 27,39 27,41 25,41 25,43 23,43 23,47 21,47 21,49 19,49 19,53 17,53 17,55 15,55 15,59 13,59 13,67 11,67 
		11,57 13,57 13,53 15,53 15,51 17,51 17,47 19,47 19,45 21,45 21,41 23,41 23,39 25,39 25,37 27,37 27,35 29,35 29,33 31,33 31,31 
		33,31 33,29 35,29 35,27 37,27 37,25 39,25 39,23 41,23 41,21 45,21 45,19 49,19 49,5 	"/>
	<rect x="51" y="17" class="st4" width="2" height="2"/>
	<rect x="55" y="17" class="st4" width="2" height="2"/>
	<rect x="57" y="19" class="st4" width="2" height="2"/>
	<rect x="59" y="17" class="st4" width="2" height="2"/>
	<rect x="63" y="23" class="st4" width="2" height="2"/>
	<rect x="65" y="25" class="st4" width="2" height="2"/>
	<rect x="71" y="31" class="st4" width="2" height="2"/>
	<rect x="73" y="33" class="st4" width="2" height="2"/>
	<rect x="77" y="35" class="st4" width="2" height="2"/>
	<rect x="53" y="15" class="st4" width="2" height="2"/>
	<rect x="51" y="13" class="st4" width="2" height="2"/>
	<rect x="51" y="9" class="st4" width="2" height="2"/>
	<rect x="35" y="15" class="st4" width="2" height="2"/>
	<rect x="31" y="21" class="st3" width="2" height="2"/>
	<rect x="33" y="17" class="st4" width="2" height="2"/>
	<rect x="37" y="13" class="st4" width="2" height="2"/>
	<rect x="39" y="11" class="st4" width="4" height="2"/>
	<rect x="47" y="5" class="st4" width="2" height="4"/>
	<rect x="49" y="25" class="st3" width="2" height="2"/>
	<rect x="51" y="27" class="st3" width="2" height="2"/>
	<rect x="51" y="23" class="st3" width="2" height="2"/>
	<rect x="41" y="31" class="st3" width="2" height="2"/>
	<rect x="47" y="29" class="st3" width="2" height="2"/>
	<rect x="27" y="51" class="st3" width="2" height="2"/>
	<rect x="25" y="59" class="st3" width="2" height="2"/>
	<rect x="21" y="61" class="st3" width="2" height="2"/>
	<rect x="15" y="71" class="st3" width="2" height="2"/>
	<rect x="13" y="67" class="st6" width="2" height="2"/>
	<rect x="15" y="63" class="st6" width="2" height="2"/>
	<rect x="13" y="61" class="st6" width="2" height="2"/>
	<rect x="15" y="59" class="st6" width="2" height="2"/>
	<rect x="17" y="55" class="st6" width="2" height="2"/>
	<rect x="21" y="51" class="st6" width="2" height="2"/>
	<rect x="23" y="47" class="st6" width="2" height="2"/>
	<rect x="11" y="69" class="st6" width="2" height="2"/>
	<rect x="29" y="53" class="st3" width="2" height="2"/>
	<rect x="29" y="49" class="st3" width="2" height="2"/>
	<rect x="29" y="45" class="st3" width="2" height="2"/>
	<rect x="51" y="19" class="st6" width="4" height="2"/>
	<rect x="57" y="21" class="st6" width="2" height="2"/>
	<rect x="59" y="23" class="st6" width="2" height="2"/>
	<rect x="61" y="25" class="st6" width="2" height="2"/>
	<rect x="63" y="27" class="st6" width="2" height="2"/>
	<rect x="65" y="29" class="st6" width="2" height="2"/>
	<rect x="67" y="31" class="st6" width="2" height="2"/>
	<rect x="69" y="33" class="st6" width="2" height="2"/>
	<rect x="69" y="35" class="st6" width="2" height="2"/>
	<rect x="73" y="37" class="st6" width="2" height="2"/>
	<rect x="75" y="39" class="st6" width="2" height="2"/>
	<rect x="77" y="41" class="st6" width="2" height="4"/>
	<rect x="79" y="45" class="st6" width="2" height="2"/>
	<rect x="81" y="47" class="st6" width="2" height="4"/>
	<rect x="83" y="51" class="st6" width="2" height="2"/>
	<rect x="85" y="53" class="st6" width="2" height="2"/>
	<rect x="87" y="57" class="st6" width="2" height="2"/>
	<g>
		<g>
			<rect x="67" y="123" class="st4" width="12" height="2"/>
			<rect x="21" y="73" class="st3" width="56" height="46"/>
			<rect x="21" y="63" class="st2" width="56" height="26"/>
			<rect x="17" y="63" class="st3" width="2" height="26"/>
			<rect x="54" y="40" transform="matrix(7.639762e-11 -1 1 7.639762e-11 -9 119)" class="st3" width="2" height="48"/>
			<rect x="79" y="63" class="st3" width="2" height="26"/>
			<rect x="17" y="63" class="st8" width="12" height="2"/>
			<rect x="17" y="87" class="st4" width="64" height="2.1"/>
			<rect x="31" y="119" class="st5" width="46" height="2"/>
			<rect x="21" y="119" class="st4" width="10" height="2"/>
			<rect x="19" y="89" class="st4" width="2" height="30"/>
			<rect x="77" y="89" class="st4" width="2" height="30"/>
			<rect x="29" y="89.1" class="st5" width="50" height="2"/>
			<rect x="35" y="91.1" class="st4" width="40" height="2"/>
			<rect x="25" y="107" class="st2" width="48" height="2"/>
			<rect x="25" y="109" class="st4" width="48" height="1"/>
			<rect x="27" y="95" class="st9" width="22" height="12"/>
			<polygon class="st7" points="31,95 31,97 29,97 29,99 27,99 27,95 			"/>
			<polygon class="st7" points="49,99 49,103 47,103 47,105 45,105 45,107 41,107 41,105 43,105 43,103 45,103 45,101 47,101 47,99 
							"/>
			<polygon class="st1" points="49,103 49,107 45,107 45,105 47,105 47,103 			"/>
			<rect x="49" y="95.1" class="st9" width="22" height="12"/>
			<polygon class="st1" points="53,95 53,97 51,97 51,99 49,99 49,95 			"/>
			<polygon class="st1" points="71,99 71,103 69,103 69,105 67,105 67,107 63,107 63,105 65,105 65,103 67,103 67,101 69,101 69,99 
							"/>
			<polygon class="st7" points="71,103 71,107 67,107 67,105 69,105 69,103 			"/>
			<rect x="55" y="83" class="st4" width="14" height="2"/>
			<rect x="79" y="79" class="st4" width="2" height="2"/>
			<rect x="79" y="83" class="st4" width="2" height="4"/>
			<rect x="71" y="83" class="st4" width="2" height="2"/>
			<rect x="69" y="79" class="st4" width="4" height="2"/>
			<rect x="79" y="75" class="st4" width="2" height="2"/>
			<rect x="75" y="91" class="st5" width="4" height="2"/>
			<rect x="68" y="91.1" class="st5" width="4" height="2"/>
			<rect x="72" y="93.1" class="st5" width="2" height="2"/>
			<rect x="75" y="95" class="st4" width="2" height="2"/>
			<rect x="75" y="99" class="st4" width="2" height="2"/>
			<rect x="67" y="93.1" class="st4" width="2" height="2"/>
			<rect x="77" y="93" class="st5" width="2" height="2"/>
		</g>
		<rect x="79" y="89.1" class="st5" width="2" height="1"/>
		<rect x="49" y="95" class="st4" width="1" height="12"/>
		<rect x="71" y="95.1" class="st4" width="1" height="12"/>
		<rect x="75" y="89.1" class="st5" width="6" height="0.9"/>
		
			<rect x="78.5" y="86.5" transform="matrix(-4.917966e-09 1 -1 -4.917966e-09 167.535 6.535)" class="st5" width="4.1" height="1"/>
		<rect x="79" y="90" class="st4" width="2" height="1"/>
	</g>
	<rect x="87" y="59" class="st6" width="2" height="2"/>
	<rect x="9" y="130" class="st7" width="4" height="1"/>
	<rect x="11.5" y="130.5" transform="matrix(-1.836970e-16 1 -1 -1.836970e-16 143.5 119.5)" class="st7" width="1" height="2"/>
	<rect x="13" y="111" class="st2" width="22" height="14"/>
	<rect x="13" y="113" class="st3" width="2" height="10"/>
	<polygon class="st3" points="35,113 35,117 21,117 21,115 19,115 19,113 	"/>
	<rect x="31" y="119" class="st3" width="4" height="2"/>
	<rect x="13" y="111" class="st7" width="2" height="2"/>
	<rect x="15" y="111" class="st3" width="4" height="2"/>
	<rect x="19" y="111" class="st4" width="18" height="2"/>
	<rect x="13" y="123" class="st4" width="22" height="2"/>
	<rect x="25.6" y="111" class="st5" width="11.4" height="1"/>
	<rect x="15" y="125" class="st4" width="1" height="8"/>
	<rect x="15" y="125" class="st5" width="22" height="1"/>
	<rect x="13" y="125" class="st3" width="2" height="6"/>
	<rect x="13" y="125" class="st5" width="2" height="1"/>
	<g>
		<g>
			<g>
				<polygon class="st2" points="23,127 23,153 17,153 17,130 18,130 18,129 19,129 19,128 21,128 21,127 				"/>
				<rect x="23" y="128" class="st3" width="6" height="25"/>
				<polygon class="st4" points="33,130 33,153 29,153 29,128 31,128 31,129 32,129 32,130 				"/>
			</g>
			<g>
				<polygon class="st5" points="33,152.1 33,154.1 32,154.1 32,155.1 31,155.1 31,156.1 29,156.1 29,157.1 21,157.1 21,156.1 
					19,156.1 19,155.1 18,155.1 18,154.1 17,154.1 17,152.1 18,152.1 18,153.1 19,153.1 19,154.1 21,154.1 21,155.1 29,155.1 
					29,154.1 31,154.1 31,153.1 32,153.1 32,152.1 				"/>
			</g>
			<g>
				<polygon class="st4" points="32,151.1 32,153.1 31,153.1 31,154.1 29,154.1 29,155.1 21,155.1 21,154.1 19,154.1 19,153.1 
					18,153.1 18,151.1 19,151.1 19,150.1 21,150.1 21,149.1 29,149.1 29,150.1 31,150.1 31,151.1 				"/>
			</g>
			<polygon class="st5" points="33,150.1 33,152.1 32,152.1 32,151.1 31,151.1 31,150.1 29,150.1 29,149.1 21,149.1 21,150.1 
				19,150.1 19,151.1 18,151.1 18,152.1 17,152.1 17,150.1 18,150.1 18,149.1 19,149.1 19,148.1 21,148.1 21,147.1 29,147.1 
				29,148.1 31,148.1 31,149.1 32,149.1 32,150.1 			"/>
			<rect x="23" y="126" class="st4" width="6" height="2"/>
			<polygon class="st5" points="33,129 33,131 32,131 32,130 31,130 31,129 29,129 29,127 31,127 31,128 32,128 32,129 			"/>
			<polygon class="st4" points="23,126 23,128 21,128 21,129 19,129 19,130 18,130 18,132 17,132 17,129 18,129 18,128 19,128 
				19,127 21,127 21,126 			"/>
			<rect x="21" y="127" class="st5" width="10" height="1"/>
		</g>
		<rect x="17" y="132" class="st3" width="1" height="17.1"/>
		<rect x="17" y="142" class="st7" width="1" height="6"/>
		<rect x="17" y="138" class="st7" width="1" height="2"/>
		<rect x="17" y="149.1" class="st4" width="1" height="2"/>
		<rect x="17" y="136" class="st4" width="1" height="2"/>
		<rect x="32" y="130" class="st5" width="1" height="22"/>
	</g>
	<rect x="15" y="126" class="st4" width="20" height="1"/>
	<rect x="63" y="126" class="st4" width="20" height="1"/>
	<rect x="35" y="113" class="st4" width="2" height="12"/>
	<rect x="12" y="111" class="st5" width="1" height="15"/>
	<rect x="36" y="111.1" class="st5" width="1" height="14"/>
	<rect x="34" y="125" class="st5" width="1" height="12"/>
	<rect x="63" y="111.1" class="st2" width="22" height="13.9"/>
	<polygon class="st4" points="87,111.1 87,113.1 79,113.1 79,115.1 65,115.1 65,123 63,123 63,111.1 	"/>
	<rect x="63" y="113" class="st4" width="2" height="0.1"/>
	<polygon class="st3" points="83,117.1 83,119.1 73,119.1 73,121.1 65,121.1 65,115.1 81,115.1 81,117.1 	"/>
	<rect x="63" y="123" class="st4" width="22" height="2"/>
	<rect x="63" y="111.1" class="st5" width="18" height="1"/>
	<rect x="65" y="125" class="st4" width="1" height="18"/>
	<g>
		<g>
			<g>
				<polygon class="st2" points="73,127 73,153 67,153 67,130 68,130 68,129 69,129 69,128 71,128 71,127 				"/>
				<rect x="71" y="127.1" class="st3" width="8" height="26"/>
				<polygon class="st4" points="83,130 83,153 79,153 79,128 81,128 81,129 82,129 82,130 				"/>
			</g>
			<g>
				<polygon class="st4" points="82,151 82,153 81,153 81,154 79,154 79,155 71,155 71,154 69,154 69,153 68,153 68,151 69,151 
					69,150 71,150 71,149 79,149 79,150 81,150 81,151 				"/>
			</g>
			<rect x="73" y="126" class="st4" width="6" height="2"/>
			<polygon class="st4" points="73,126 73,128 71,128 71,129 69,129 69,130 68,130 68,131 67,131 67,129 68,129 68,128 69,128 
				69,127 71,127 71,126 			"/>
			<path class="st5" d="M82,129v-1h-1v-1H71v1h8v1h2v1h1v21h-1v-1h-2v-1h-8v1h-2v1h-1v1h-1v2h1v1h1v1h2v1h8v-1h2v-1h1v-1h1v-25H82z
				 M81,154h-2v1h-8v-1h-2v-2h2v-1h8v1h2V154z"/>
		</g>
		<rect x="67" y="130" class="st4" width="1" height="22"/>
		<rect x="67" y="145" class="st7" width="1" height="3"/>
		<rect x="67" y="141" class="st2" width="1" height="2"/>
		<rect x="67" y="150" class="st4" width="1" height="2"/>
		<rect x="67" y="136" class="st4" width="1" height="2"/>
		<rect x="67" y="130" class="st4" width="1" height="2"/>
	</g>
	<rect x="65" y="126" class="st4" width="20" height="1"/>
	<rect x="85" y="113.1" class="st4" width="2" height="12"/>
	<rect x="86" y="113.1" class="st5" width="1" height="12"/>
	<rect x="84" y="125" class="st5" width="1" height="10"/>
	<rect x="63" y="125" class="st5" width="24" height="1"/>
	<g>
		<g>
			<rect x="27" y="57" class="st3" width="2" height="22"/>
			<rect x="29" y="57" class="st4" width="2" height="22"/>
			<rect x="29" y="69" class="st6" width="2" height="2"/>
			<rect x="27" y="69" class="st4" width="2" height="2"/>
			<rect x="31" y="79" class="st4" width="2" height="2"/>
			<rect x="29" y="81" class="st4" width="2" height="2"/>
			<rect x="29" y="79" class="st6" width="2" height="2"/>
			<rect x="27" y="79" class="st4" width="2" height="2"/>
			<rect x="31" y="81" class="st3" width="2" height="2"/>
			<rect x="33" y="83" class="st3" width="2" height="2"/>
		</g>
		<g>
			<rect x="21" y="59" class="st3" width="16" height="10"/>
			<polygon class="st4" points="37,65 37,69 21,69 21,68 35,68 35,65 			"/>
			<rect x="35" y="61" class="st4" width="2" height="2"/>
			<g>
				<rect x="28" y="63" class="st10" width="2" height="2"/>
				<g>
					<rect x="26" y="63" class="st4" width="2" height="2"/>
					<rect x="28" y="61" class="st4" width="2" height="2"/>
					<rect x="28" y="65" class="st4" width="2" height="2"/>
					<rect x="27" y="65" class="st4" width="1" height="1"/>
					<rect x="30" y="65" class="st4" width="1" height="1"/>
					<rect x="27" y="62" class="st4" width="1" height="1"/>
					<rect x="30" y="62" class="st4" width="1" height="1"/>
					<rect x="30" y="63" class="st4" width="2" height="2"/>
				</g>
			</g>
			<polygon class="st7" points="25,59 25,61 23,61 23,63 21,63 21,59 			"/>
		</g>
	</g>
	<g>
		<g>
			<rect x="75" y="59" transform="matrix(-1 -4.456536e-11 4.456536e-11 -1 152 120)" class="st11" width="2" height="2"/>
			<rect x="77" y="59" transform="matrix(-1 -4.547486e-11 4.547486e-11 -1 156 120)" class="st10" width="2" height="2"/>
			<rect x="79" y="59" transform="matrix(-1 -4.365587e-11 4.365587e-11 -1 160 120)" class="st11" width="2" height="2"/>
			<rect x="81" y="59" transform="matrix(-1 -4.638435e-11 4.638435e-11 -1 164 120)" class="st10" width="2" height="2"/>
			<rect x="79" y="57" transform="matrix(-1 -4.365587e-11 4.365587e-11 -1 160 116)" class="st7" width="2" height="2"/>
			<rect x="77" y="57" transform="matrix(-1 -4.547486e-11 4.547486e-11 -1 156 116)" class="st12" width="2" height="2"/>
			<rect x="75" y="57" transform="matrix(-1 -4.456536e-11 4.456536e-11 -1 152 116)" class="st7" width="2" height="2"/>
			<rect x="75" y="55" transform="matrix(-1 -4.456536e-11 4.456536e-11 -1 152 112)" class="st7" width="2" height="2"/>
			<rect x="73" y="59" transform="matrix(-1 -4.456536e-11 4.456536e-11 -1 148 120)" class="st10" width="2" height="2"/>
			<rect x="73" y="57" transform="matrix(-1 -4.456536e-11 4.456536e-11 -1 148 116)" class="st12" width="2" height="2"/>
			<rect x="73" y="55" transform="matrix(-1 -4.456536e-11 4.456536e-11 -1 148 112)" class="st12" width="2" height="2"/>
			<rect x="77" y="55" transform="matrix(-1 -4.547486e-11 4.547486e-11 -1 156 112)" class="st12" width="2" height="2"/>
		</g>
		<rect x="71" y="55" transform="matrix(-1 -3.637991e-11 3.637991e-11 -1 144 130)" class="st4" width="2" height="20"/>
	</g>
	<rect x="81" y="67" class="st4" width="1" height="24"/>
	<rect x="79" y="89.1" class="st5" width="1" height="22"/>
	<rect x="77" y="121.1" class="st3" width="6" height="2"/>
	<rect x="75" y="121.1" class="st3" width="6" height="2"/>
	<rect x="27" y="119.1" class="st3" width="2" height="2"/>
	<polygon class="st4" points="47,117.1 47,119.1 37,119.1 37,111.1 39,111.1 39,113.1 41,113.1 41,115.1 43,115.1 43,117.1 	"/>
</g>
<rect x="8" y="186" class="st0" width="8" height="2"/>
</svg>
