<?xml version="1.0" encoding="utf-8"?>
<!-- Generator: Adobe Illustrator 25.1.0, SVG Export Plug-In . SVG Version: 6.00 Build 0)  -->
<svg version="1.1" id="Layer_1" xmlns="http://www.w3.org/2000/svg" xmlns:xlink="http://www.w3.org/1999/xlink" x="0px" y="0px"
	 viewBox="0 0 100 100" style="enable-background:new 0 0 100 100;" xml:space="preserve">
<style type="text/css">
	.st0{fill:#235FDA;}
	.st1{fill:#6CDFFB;}
	.st2{fill:#E8363F;}
	.st3{fill:#BC1929;}
	.st4{fill:#4C0315;}
	.st5{fill:#FF4D4E;}
	.st6{fill:#9F1E31;}
	.st7{fill:#F9A0A9;}
</style>
<g>
	<g>
		<polygon class="st0" points="46,33 46,35 38,35 38,37 34,37 34,39 32,39 32,41 30,41 30,43 28,43 28,47 26,47 26,55 24,55 24,45 
			26,45 26,41 28,41 28,39 30,39 30,37 32,37 32,35 36,35 36,33 		"/>
	</g>
	<g>
		<polygon class="st0" points="44,31 44,33 36,33 36,35 32,35 32,37 30,37 30,39 28,39 28,41 26,41 26,45 24,45 24,53 22,53 22,43 
			24,43 24,39 26,39 26,37 28,37 28,35 30,35 30,33 34,33 34,31 		"/>
	</g>
	<rect x="22" y="63" class="st0" width="40" height="2"/>
	<rect x="32" y="65" class="st0" width="28" height="2"/>
	<rect x="38" y="67" class="st0" width="28" height="2"/>
	<rect x="28" y="61" class="st0" width="38" height="2"/>
	<rect x="26" y="59" class="st0" width="40" height="2"/>
	<rect x="28" y="57" class="st0" width="40" height="2"/>
	<rect x="26" y="55" class="st0" width="44" height="2"/>
	<rect x="30" y="45" class="st0" width="38" height="12"/>
	<rect x="36" y="55" class="st0" width="2" height="10"/>
	<g>
		<polygon class="st0" points="76,53 74,53 74,61 72,61 72,65 70,65 70,67 68,67 68,69 66,69 66,71 62,71 62,73 54,73 54,75 64,75 
			64,73 68,73 68,71 70,71 70,69 72,69 72,67 74,67 74,63 76,63 		"/>
	</g>
	<g>
		<polygon class="st0" points="78,55 76,55 76,63 74,63 74,67 72,67 72,69 70,69 70,71 68,71 68,73 64,73 64,75 62,75 62,77 66,77 
			66,75 70,75 70,73 72,73 72,71 74,71 74,69 76,69 76,65 78,65 		"/>
	</g>
	<rect x="66" y="43" class="st0" width="6" height="2"/>
	<rect x="70" y="47" class="st0" width="2" height="2"/>
	<rect x="68" y="49" class="st0" width="2" height="2"/>
	<rect x="70" y="53" class="st0" width="2" height="2"/>
	<rect x="68" y="59" class="st0" width="4" height="2"/>
	<rect x="66" y="63" class="st0" width="2" height="2"/>
	<rect x="36" y="71" class="st0" width="2" height="2"/>
	<rect x="30" y="69" class="st0" width="4" height="2"/>
	<rect x="46" y="71" class="st0" width="2" height="2"/>
	<rect x="44" y="69" class="st0" width="2" height="2"/>
	<rect x="52" y="69" class="st0" width="6" height="2"/>
	<rect x="58" y="71" class="st0" width="2" height="2"/>
	<rect x="24" y="67" class="st0" width="2" height="4"/>
	<rect x="26" y="71" class="st0" width="2" height="4"/>
	<rect x="28" y="73" class="st0" width="2" height="2"/>
	<rect x="28" y="75" class="st0" width="6" height="2"/>
	<rect x="40" y="75" class="st0" width="10" height="2"/>
	<rect x="52" y="79" class="st0" width="4" height="2"/>
	<rect x="68" y="37" class="st0" width="2" height="2"/>
	<rect x="66" y="33" class="st0" width="6" height="2"/>
	<rect x="30" y="61" class="st1" width="2" height="2"/>
	<rect x="40" y="71" class="st1" width="6" height="2"/>
	<rect x="64" y="71" class="st1" width="6" height="2"/>
	<rect x="22" y="57" class="st1" width="4" height="2"/>
	<rect x="24" y="43" class="st1" width="2" height="4"/>
	<rect x="28" y="37" class="st1" width="4" height="2"/>
	<rect x="68" y="61" class="st1" width="2" height="2"/>
	<rect x="72" y="67" class="st1" width="2" height="2"/>
	<rect x="76" y="71" class="st1" width="6" height="2"/>
	<g>
		<g>
			<g>
				<polygon class="st2" points="40,39 40,63 38,63 38,61 36,61 36,59 34,59 34,55 32,55 32,39 				"/>
				<polygon class="st3" points="50,39 50,67 44,67 44,65 40,65 40,39 				"/>
				<polygon class="st4" points="66,39 66,55 64,55 64,59 62,59 62,61 60,61 60,63 58,63 58,65 54,65 54,67 50,67 50,39 				"/>
			</g>
			<g>
				<polygon class="st5" points="32,39 32,29 34,29 34,25 36,25 36,23 38,23 38,21 40,21 40,19 44,19 44,17 54,17 54,19 58,19 
					58,21 60,21 60,23 62,23 62,25 64,25 64,29 66,29 66,39 64,39 64,43 62,43 62,45 60,45 60,47 58,47 58,49 54,49 54,51 44,51 
					44,49 40,49 40,47 38,47 38,45 36,45 36,43 34,43 34,39 				"/>
			</g>
		</g>
		<g>
			<rect x="64" y="37" transform="matrix(-1 -1.224647e-16 1.224647e-16 -1 130 76)" class="st6" width="2" height="2"/>
			<rect x="64" y="35" transform="matrix(-1 -1.224647e-16 1.224647e-16 -1 130 72)" class="st6" width="2" height="2"/>
			<rect x="64" y="33" transform="matrix(-1 -1.224647e-16 1.224647e-16 -1 130 68)" class="st6" width="2" height="2"/>
			<rect x="64" y="31" transform="matrix(-1 -1.224647e-16 1.224647e-16 -1 130 64)" class="st6" width="2" height="2"/>
			<rect x="64" y="29" transform="matrix(-1 -1.224647e-16 1.224647e-16 -1 130 60)" class="st6" width="2" height="2"/>
			<rect x="62" y="37" transform="matrix(-1 -1.224647e-16 1.224647e-16 -1 126 76)" class="st6" width="2" height="2"/>
			<rect x="62" y="39" transform="matrix(-1 -1.224647e-16 1.224647e-16 -1 126 80)" class="st6" width="2" height="2"/>
			<rect x="62" y="41" transform="matrix(-1 -1.224647e-16 1.224647e-16 -1 126 84)" class="st6" width="2" height="2"/>
			<rect x="60" y="41" transform="matrix(-1 -1.224647e-16 1.224647e-16 -1 122 84)" class="st6" width="2" height="2"/>
			<rect x="60" y="43" transform="matrix(-1 -1.224647e-16 1.224647e-16 -1 122 88)" class="st6" width="2" height="2"/>
			<rect x="58" y="43" transform="matrix(-1 -1.224647e-16 1.224647e-16 -1 118 88)" class="st6" width="2" height="2"/>
			<rect x="58" y="45" transform="matrix(-1 -1.224647e-16 1.224647e-16 -1 118 92)" class="st6" width="2" height="2"/>
			<rect x="56" y="45" transform="matrix(-1 -1.224647e-16 1.224647e-16 -1 114 92)" class="st6" width="2" height="2"/>
			<rect x="56" y="47" transform="matrix(-1 -1.224647e-16 1.224647e-16 -1 114 96)" class="st6" width="2" height="2"/>
			<rect x="54" y="47" transform="matrix(-1 -1.224647e-16 1.224647e-16 -1 110 96)" class="st6" width="2" height="2"/>
			<rect x="52" y="47" transform="matrix(-1 -1.224647e-16 1.224647e-16 -1 106 96)" class="st6" width="2" height="2"/>
			<rect x="52" y="49" transform="matrix(-1 -1.224647e-16 1.224647e-16 -1 106 100)" class="st6" width="2" height="2"/>
			<rect x="50" y="49" transform="matrix(-1 -1.224647e-16 1.224647e-16 -1 102 100)" class="st6" width="2" height="2"/>
			<rect x="48" y="49" transform="matrix(-1 -1.224647e-16 1.224647e-16 -1 98 100)" class="st6" width="2" height="2"/>
			<rect x="46" y="49" transform="matrix(-1 -1.224647e-16 1.224647e-16 -1 94 100)" class="st6" width="2" height="2"/>
			<rect x="44" y="49" transform="matrix(-1 -1.224647e-16 1.224647e-16 -1 90 100)" class="st6" width="2" height="2"/>
		</g>
		<g>
			<rect x="32" y="29" class="st7" width="2" height="2"/>
			<rect x="32" y="31" class="st7" width="2" height="2"/>
			<rect x="32" y="33" class="st7" width="2" height="2"/>
			<rect x="32" y="35" class="st7" width="2" height="2"/>
			<rect x="32" y="37" class="st7" width="2" height="2"/>
			<rect x="34" y="29" class="st7" width="2" height="2"/>
			<rect x="34" y="27" class="st7" width="2" height="2"/>
			<rect x="34" y="25" class="st7" width="2" height="2"/>
			<rect x="36" y="25" class="st7" width="2" height="2"/>
			<rect x="36" y="23" class="st7" width="2" height="2"/>
			<rect x="38" y="23" class="st7" width="2" height="2"/>
			<rect x="38" y="21" class="st7" width="2" height="2"/>
			<rect x="40" y="21" class="st7" width="2" height="2"/>
			<rect x="40" y="19" class="st7" width="2" height="2"/>
			<rect x="42" y="19" class="st7" width="2" height="2"/>
			<rect x="44" y="19" class="st7" width="2" height="2"/>
			<rect x="44" y="17" class="st7" width="2" height="2"/>
			<rect x="46" y="17" class="st7" width="2" height="2"/>
			<rect x="48" y="17" class="st7" width="2" height="2"/>
			<rect x="50" y="17" class="st7" width="2" height="2"/>
			<rect x="52" y="17" class="st7" width="2" height="2"/>
		</g>
	</g>
</g>
</svg>
