<svg xmlns="http://www.w3.org/2000/svg" width="26.3" height="38.7" viewBox="0 0 26.3 38.7"><defs><style>.cls-1{fill:#c2cbce;}.cls-2{fill:#96a5ab;}.cls-3{fill:#777f82;}.cls-4{fill:#e4f0f4;}.cls-5{fill:#fff;}</style></defs><g id="Layer_2" data-name="Layer 2"><g id="Layer_1-2" data-name="Layer 1"><polygon class="cls-1" points="6.2 17 6.2 35.6 4.7 35.6 4.7 34.1 3.1 34.1 3.1 32.5 1.6 32.5 1.6 29.4 0 29.4 0 17 6.2 17"/><polygon class="cls-2" points="13.9 17 13.9 38.7 9.3 38.7 9.3 37.2 6.2 37.2 6.2 17 13.9 17"/><polygon class="cls-3" points="26.3 17 26.3 29.4 24.8 29.4 24.8 32.5 23.2 32.5 23.2 34.1 21.7 34.1 21.7 35.6 20.1 35.6 20.1 37.2 17 37.2 17 38.7 13.9 38.7 13.9 17 26.3 17"/><polygon class="cls-4" points="0 17 0 9.3 1.6 9.3 1.6 6.2 3.1 6.2 3.1 4.7 4.7 4.7 4.7 3.1 6.2 3.1 6.2 1.6 9.3 1.6 9.3 0 17 0 17 1.6 20.1 1.6 20.1 3.1 21.7 3.1 21.7 4.7 23.2 4.7 23.2 6.2 24.8 6.2 24.8 9.3 26.3 9.3 26.3 17 24.8 17 24.8 20.1 23.2 20.1 23.2 21.7 21.7 21.7 21.7 23.2 20.1 23.2 20.1 24.8 17 24.8 17 26.3 9.3 26.3 9.3 24.8 6.2 24.8 6.2 23.2 4.7 23.2 4.7 21.7 3.1 21.7 3.1 20.1 1.6 20.1 1.6 17 0 17"/><polygon class="cls-2" points="26.3 9.3 26.3 17 24.8 17 24.8 20.1 23.2 20.1 23.2 21.7 21.7 21.7 21.7 23.2 20.1 23.2 20.1 24.8 17 24.8 17 26.3 9.3 26.3 9.3 24.8 15.5 24.8 15.5 23.2 18.6 23.2 18.6 21.7 20.1 21.7 20.1 20.1 21.7 20.1 21.7 18.6 23.2 18.6 23.2 15.5 24.8 15.5 24.8 9.3 26.3 9.3"/><polygon class="cls-5" points="17 0 17 1.6 10.9 1.6 10.9 3.1 7.8 3.1 7.8 4.7 6.2 4.7 6.2 6.2 4.7 6.2 4.7 7.8 3.1 7.8 3.1 10.8 1.6 10.8 1.6 17 0 17 0 9.3 1.6 9.3 1.6 6.2 3.1 6.2 3.1 4.7 4.7 4.7 4.7 3.1 6.2 3.1 6.2 1.6 9.3 1.6 9.3 0 17 0"/></g></g></svg>