<svg id="Layer_1" data-name="Layer 1" xmlns="http://www.w3.org/2000/svg" width="100" height="100" viewBox="0 0 100 100"><defs><style>.cls-1{fill:#235fda;}.cls-2{fill:#6cdffb;}</style></defs><polygon class="cls-1" points="46 33 46 35 38 35 38 37 34 37 34 39 32 39 32 41 30 41 30 43 28 43 28 47 26 47 26 55 24 55 24 45 26 45 26 41 28 41 28 39 30 39 30 37 32 37 32 35 36 35 36 33 46 33"/><polygon class="cls-1" points="44 31 44 33 36 33 36 35 32 35 32 37 30 37 30 39 28 39 28 41 26 41 26 45 24 45 24 53 22 53 22 43 24 43 24 39 26 39 26 37 28 37 28 35 30 35 30 33 34 33 34 31 44 31"/><rect class="cls-1" x="22" y="63" width="40" height="2"/><rect class="cls-1" x="32" y="65" width="28" height="2"/><rect class="cls-1" x="38" y="67" width="28" height="2"/><rect class="cls-1" x="28" y="61" width="38" height="2"/><rect class="cls-1" x="26" y="59" width="40" height="2"/><rect class="cls-1" x="28" y="57" width="40" height="2"/><rect class="cls-1" x="26" y="55" width="44" height="2"/><rect class="cls-1" x="30" y="45" width="38" height="12"/><rect class="cls-1" x="36" y="55" width="2" height="10"/><polygon class="cls-1" points="76 53 74 53 74 61 72 61 72 65 70 65 70 67 68 67 68 69 66 69 66 71 62 71 62 73 54 73 54 75 64 75 64 73 68 73 68 71 70 71 70 69 72 69 72 67 74 67 74 63 76 63 76 53"/><polygon class="cls-1" points="78 55 76 55 76 63 74 63 74 67 72 67 72 69 70 69 70 71 68 71 68 73 64 73 64 75 62 75 62 77 66 77 66 75 70 75 70 73 72 73 72 71 74 71 74 69 76 69 76 65 78 65 78 55"/><rect class="cls-1" x="66" y="43" width="6" height="2"/><rect class="cls-1" x="70" y="47" width="2" height="2"/><rect class="cls-1" x="68" y="49" width="2" height="2"/><rect class="cls-1" x="70" y="53" width="2" height="2"/><rect class="cls-1" x="68" y="59" width="4" height="2"/><rect class="cls-1" x="66" y="63" width="2" height="2"/><rect class="cls-1" x="36" y="71" width="2" height="2"/><rect class="cls-1" x="30" y="69" width="4" height="2"/><rect class="cls-1" x="46" y="71" width="2" height="2"/><rect class="cls-1" x="44" y="69" width="2" height="2"/><rect class="cls-1" x="52" y="69" width="6" height="2"/><rect class="cls-1" x="58" y="71" width="2" height="2"/><rect class="cls-1" x="24" y="67" width="2" height="4"/><rect class="cls-1" x="26" y="71" width="2" height="4"/><rect class="cls-1" x="28" y="73" width="2" height="2"/><rect class="cls-1" x="28" y="75" width="6" height="2"/><rect class="cls-1" x="40" y="75" width="10" height="2"/><rect class="cls-1" x="52" y="79" width="4" height="2"/><rect class="cls-1" x="68" y="37" width="2" height="2"/><rect class="cls-1" x="66" y="33" width="6" height="2"/><rect class="cls-2" x="30" y="61" width="2" height="2"/><rect class="cls-2" x="40" y="71" width="6" height="2"/><rect class="cls-2" x="64" y="71" width="6" height="2"/><rect class="cls-2" x="22" y="57" width="4" height="2"/><rect class="cls-2" x="24" y="43" width="2" height="4"/><rect class="cls-2" x="28" y="37" width="4" height="2"/><rect class="cls-2" x="68" y="61" width="2" height="2"/><rect class="cls-2" x="72" y="67" width="2" height="2"/><rect class="cls-2" x="76" y="71" width="6" height="2"/></svg>