<?xml version="1.0" encoding="utf-8"?>
<!-- Generator: Adobe Illustrator 24.1.3, SVG Export Plug-In . SVG Version: 6.00 Build 0)  -->
<svg version="1.1" id="Layer_1" xmlns="http://www.w3.org/2000/svg" xmlns:xlink="http://www.w3.org/1999/xlink" x="0px" y="0px"
	 viewBox="0 0 100 100" style="enable-background:new 0 0 100 100;" xml:space="preserve">
<style type="text/css">
	.st0{fill:#235FDA;}
	.st1{fill:#C2CBCE;}
	.st2{fill:#96A5AB;}
	.st3{fill:#777F82;}
	.st4{fill:#E4F0F4;}
	.st5{fill:#FFFFFF;}
	.st6{fill:#6CDFFB;}
	.st7{fill:#E8363F;}
	.st8{fill:#BC1929;}
	.st9{fill:#4C0315;}
	.st10{fill:#FF4D4E;}
	.st11{fill:#9F1E31;}
	.st12{fill:#F9A0A9;}
</style>
<g>
	<polygon class="st0" points="47.9,40.7 47.9,42.3 41.7,42.3 41.7,43.8 38.6,43.8 38.6,45.3 37.1,45.3 37.1,46.9 35.5,46.9 
		35.5,48.4 34,48.4 34,51.5 32.5,51.5 32.5,57.7 30.9,57.7 30.9,50 32.5,50 32.5,46.9 34,46.9 34,45.3 35.5,45.3 35.5,43.8 
		37.1,43.8 37.1,42.3 40.2,42.3 40.2,40.7 	"/>
</g>
<g>
	<polygon class="st0" points="46.4,39.2 46.4,40.7 40.2,40.7 40.2,42.3 37.1,42.3 37.1,43.8 35.5,43.8 35.5,45.3 34,45.3 34,46.9 
		32.5,46.9 32.5,50 30.9,50 30.9,56.2 29.4,56.2 29.4,48.4 30.9,48.4 30.9,45.3 32.5,45.3 32.5,43.8 34,43.8 34,42.3 35.5,42.3 
		35.5,40.7 38.6,40.7 38.6,39.2 	"/>
</g>
<rect x="29.4" y="63.9" class="st0" width="31" height="1.5"/>
<rect x="37.1" y="65.5" class="st0" width="21.7" height="1.5"/>
<rect x="41.7" y="67" class="st0" width="21.7" height="1.5"/>
<rect x="34" y="62.4" class="st0" width="29.4" height="1.5"/>
<rect x="32.5" y="60.8" class="st0" width="31" height="1.5"/>
<rect x="34" y="59.3" class="st0" width="31" height="1.5"/>
<rect x="32.5" y="57.7" class="st0" width="34" height="1.5"/>
<rect x="35.5" y="50" class="st0" width="29.4" height="9.3"/>
<rect x="40.2" y="57.7" class="st0" width="1.5" height="7.7"/>
<g>
	<g>
		<g>
			<polygon class="st1" points="138.9,86.9 138.9,105.5 137.4,105.5 137.4,104 135.8,104 135.8,102.4 134.3,102.4 134.3,99.3 
				132.7,99.3 132.7,86.9 			"/>
			<polygon class="st2" points="146.6,86.9 146.6,108.6 142,108.6 142,107.1 138.9,107.1 138.9,86.9 			"/>
			<polygon class="st3" points="159,86.9 159,99.3 157.5,99.3 157.5,102.4 155.9,102.4 155.9,104 154.4,104 154.4,105.5 
				152.8,105.5 152.8,107.1 149.7,107.1 149.7,108.6 146.6,108.6 146.6,86.9 			"/>
		</g>
		<g>
			<polygon class="st4" points="132.7,86.9 132.7,79.2 134.3,79.2 134.3,76.1 135.8,76.1 135.8,74.6 137.4,74.6 137.4,73 138.9,73 
				138.9,71.5 142,71.5 142,69.9 149.7,69.9 149.7,71.5 152.8,71.5 152.8,73 154.4,73 154.4,74.6 155.9,74.6 155.9,76.1 157.5,76.1 
				157.5,79.2 159,79.2 159,86.9 157.5,86.9 157.5,90 155.9,90 155.9,91.6 154.4,91.6 154.4,93.1 152.8,93.1 152.8,94.7 149.7,94.7 
				149.7,96.2 142,96.2 142,94.7 138.9,94.7 138.9,93.1 137.4,93.1 137.4,91.6 135.8,91.6 135.8,90 134.3,90 134.3,86.9 			"/>
		</g>
	</g>
	<g>
		<polygon class="st2" points="159,79.2 159,86.9 157.5,86.9 157.5,90 155.9,90 155.9,91.6 154.4,91.6 154.4,93.1 152.8,93.1 
			152.8,94.7 149.7,94.7 149.7,96.2 142,96.2 142,94.7 148.2,94.7 148.2,93.1 151.3,93.1 151.3,91.6 152.8,91.6 152.8,90 154.4,90 
			154.4,88.5 155.9,88.5 155.9,85.4 157.5,85.4 157.5,79.2 		"/>
	</g>
	<g>
		<polygon class="st5" points="149.7,69.9 149.7,71.5 143.6,71.5 143.6,73 140.5,73 140.5,74.6 138.9,74.6 138.9,76.1 137.4,76.1 
			137.4,77.7 135.8,77.7 135.8,80.7 134.3,80.7 134.3,86.9 132.7,86.9 132.7,79.2 134.3,79.2 134.3,76.1 135.8,76.1 135.8,74.6 
			137.4,74.6 137.4,73 138.9,73 138.9,71.5 142,71.5 142,69.9 		"/>
	</g>
</g>
<g>
	<polygon class="st0" points="71.1,56.2 69.6,56.2 69.6,62.4 68,62.4 68,65.5 66.5,65.5 66.5,67 64.9,67 64.9,68.6 63.4,68.6 
		63.4,70.1 60.3,70.1 60.3,71.7 54.1,71.7 54.1,73.2 61.9,73.2 61.9,71.7 64.9,71.7 64.9,70.1 66.5,70.1 66.5,68.6 68,68.6 68,67 
		69.6,67 69.6,63.9 71.1,63.9 	"/>
</g>
<g>
	<polygon class="st0" points="72.7,57.7 71.1,57.7 71.1,63.9 69.6,63.9 69.6,67 68,67 68,68.6 66.5,68.6 66.5,70.1 64.9,70.1 
		64.9,71.7 61.9,71.7 61.9,73.2 60.3,73.2 60.3,74.8 63.4,74.8 63.4,73.2 66.5,73.2 66.5,71.7 68,71.7 68,70.1 69.6,70.1 69.6,68.6 
		71.1,68.6 71.1,65.5 72.7,65.5 	"/>
</g>
<rect x="63.4" y="48.4" class="st0" width="4.6" height="1.5"/>
<rect x="66.5" y="51.5" class="st0" width="1.5" height="1.5"/>
<rect x="64.9" y="53.1" class="st0" width="1.5" height="1.5"/>
<rect x="66.5" y="56.2" class="st0" width="1.5" height="1.5"/>
<rect x="64.9" y="60.8" class="st0" width="3.1" height="1.5"/>
<rect x="63.4" y="63.9" class="st0" width="1.5" height="1.5"/>
<rect x="40.2" y="70.1" class="st0" width="1.5" height="1.5"/>
<rect x="35.5" y="68.6" class="st0" width="3.1" height="1.5"/>
<rect x="47.9" y="70.1" class="st0" width="1.5" height="1.5"/>
<rect x="46.4" y="68.6" class="st0" width="1.5" height="1.5"/>
<rect x="52.6" y="68.6" class="st0" width="4.6" height="1.5"/>
<rect x="57.2" y="70.1" class="st0" width="1.5" height="1.5"/>
<rect x="30.9" y="67" class="st0" width="1.5" height="3.1"/>
<rect x="32.5" y="70.1" class="st0" width="1.5" height="3.1"/>
<rect x="34" y="71.7" class="st0" width="1.5" height="1.5"/>
<rect x="34" y="73.2" class="st0" width="4.6" height="1.5"/>
<rect x="43.3" y="73.2" class="st0" width="7.7" height="1.5"/>
<rect x="52.6" y="76.3" class="st0" width="3.1" height="1.5"/>
<rect x="64.9" y="43.8" class="st0" width="1.5" height="1.5"/>
<rect x="63.4" y="40.7" class="st0" width="4.6" height="1.5"/>
<rect x="35.5" y="62.4" class="st6" width="1.5" height="1.5"/>
<rect x="43.3" y="70.1" class="st6" width="4.6" height="1.5"/>
<rect x="61.9" y="70.1" class="st6" width="4.6" height="1.5"/>
<rect x="29.4" y="59.3" class="st6" width="3.1" height="1.5"/>
<rect x="30.9" y="48.4" class="st6" width="1.5" height="3.1"/>
<rect x="34" y="43.8" class="st6" width="3.1" height="1.5"/>
<rect x="64.9" y="62.4" class="st6" width="1.5" height="1.5"/>
<rect x="68" y="67" class="st6" width="1.5" height="1.5"/>
<rect x="71.1" y="70.1" class="st6" width="4.6" height="1.5"/>
<g>
	<g>
		<g>
			<polygon class="st7" points="128.2,45.6 128.2,63.9 126.7,63.9 126.7,62.4 125.2,62.4 125.2,60.9 123.6,60.9 123.6,57.8 
				122.1,57.8 122.1,45.6 			"/>
			<polygon class="st8" points="135.9,45.6 135.9,67 131.3,67 131.3,65.5 128.2,65.5 128.2,45.6 			"/>
			<polygon class="st9" points="148.1,45.6 148.1,57.8 146.5,57.8 146.5,60.9 145,60.9 145,62.4 143.5,62.4 143.5,63.9 142,63.9 
				142,65.5 138.9,65.5 138.9,67 135.9,67 135.9,45.6 			"/>
		</g>
		<g>
			<polygon class="st10" points="122.1,45.6 122.1,38 123.6,38 123.6,34.9 125.2,34.9 125.2,33.4 126.7,33.4 126.7,31.9 128.2,31.9 
				128.2,30.3 131.3,30.3 131.3,28.8 138.9,28.8 138.9,30.3 142,30.3 142,31.9 143.5,31.9 143.5,33.4 145,33.4 145,34.9 146.5,34.9 
				146.5,38 148.1,38 148.1,45.6 146.5,45.6 146.5,48.7 145,48.7 145,50.2 143.5,50.2 143.5,51.7 142,51.7 142,53.2 138.9,53.2 
				138.9,54.8 131.3,54.8 131.3,53.2 128.2,53.2 128.2,51.7 126.7,51.7 126.7,50.2 125.2,50.2 125.2,48.7 123.6,48.7 123.6,45.6 			
				"/>
		</g>
	</g>
	<g>
		
			<rect x="146.5" y="44.1" transform="matrix(-1 -1.224647e-16 1.224647e-16 -1 294.6112 89.6792)" class="st11" width="1.5" height="1.5"/>
		
			<rect x="146.5" y="42.5" transform="matrix(-1 -1.224647e-16 1.224647e-16 -1 294.6112 86.6251)" class="st11" width="1.5" height="1.5"/>
		
			<rect x="146.5" y="41" transform="matrix(-1 -1.224647e-16 1.224647e-16 -1 294.6112 83.571)" class="st11" width="1.5" height="1.5"/>
		
			<rect x="146.5" y="39.5" transform="matrix(-1 -1.224647e-16 1.224647e-16 -1 294.6112 80.5169)" class="st11" width="1.5" height="1.5"/>
		
			<rect x="146.5" y="38" transform="matrix(-1 -1.224647e-16 1.224647e-16 -1 294.6112 77.4628)" class="st11" width="1.5" height="1.5"/>
		
			<rect x="145" y="44.1" transform="matrix(-1 -1.224647e-16 1.224647e-16 -1 291.5571 89.6792)" class="st11" width="1.5" height="1.5"/>
		
			<rect x="145" y="45.6" transform="matrix(-1 -1.224647e-16 1.224647e-16 -1 291.5571 92.7334)" class="st11" width="1.5" height="1.5"/>
		
			<rect x="145" y="47.1" transform="matrix(-1 -1.224647e-16 1.224647e-16 -1 291.5571 95.7875)" class="st11" width="1.5" height="1.5"/>
		
			<rect x="143.5" y="47.1" transform="matrix(-1 -1.224647e-16 1.224647e-16 -1 288.503 95.7875)" class="st11" width="1.5" height="1.5"/>
		
			<rect x="143.5" y="48.7" transform="matrix(-1 -1.224647e-16 1.224647e-16 -1 288.503 98.8416)" class="st11" width="1.5" height="1.5"/>
		
			<rect x="142" y="48.7" transform="matrix(-1 -1.224647e-16 1.224647e-16 -1 285.4489 98.8416)" class="st11" width="1.5" height="1.5"/>
		
			<rect x="142" y="50.2" transform="matrix(-1 -1.224647e-16 1.224647e-16 -1 285.4489 101.8957)" class="st11" width="1.5" height="1.5"/>
		
			<rect x="140.4" y="50.2" transform="matrix(-1 -1.224647e-16 1.224647e-16 -1 282.3947 101.8957)" class="st11" width="1.5" height="1.5"/>
		
			<rect x="140.4" y="51.7" transform="matrix(-1 -1.224647e-16 1.224647e-16 -1 282.3947 104.9498)" class="st11" width="1.5" height="1.5"/>
		
			<rect x="138.9" y="51.7" transform="matrix(-1 -1.224647e-16 1.224647e-16 -1 279.3406 104.9498)" class="st11" width="1.5" height="1.5"/>
		
			<rect x="137.4" y="51.7" transform="matrix(-1 -1.224647e-16 1.224647e-16 -1 276.2865 104.9498)" class="st11" width="1.5" height="1.5"/>
		
			<rect x="137.4" y="53.2" transform="matrix(-1 -1.224647e-16 1.224647e-16 -1 276.2865 108.0039)" class="st11" width="1.5" height="1.5"/>
		
			<rect x="135.9" y="53.2" transform="matrix(-1 -1.224647e-16 1.224647e-16 -1 273.2324 108.0039)" class="st11" width="1.5" height="1.5"/>
		
			<rect x="134.3" y="53.2" transform="matrix(-1 -1.224647e-16 1.224647e-16 -1 270.1783 108.0039)" class="st11" width="1.5" height="1.5"/>
		
			<rect x="132.8" y="53.2" transform="matrix(-1 -1.224647e-16 1.224647e-16 -1 267.1241 108.0039)" class="st11" width="1.5" height="1.5"/>
		
			<rect x="131.3" y="53.2" transform="matrix(-1 -1.224647e-16 1.224647e-16 -1 264.07 108.0039)" class="st11" width="1.5" height="1.5"/>
	</g>
	<g>
		<rect x="122.1" y="38" class="st12" width="1.5" height="1.5"/>
		<rect x="122.1" y="39.5" class="st12" width="1.5" height="1.5"/>
		<rect x="122.1" y="41" class="st12" width="1.5" height="1.5"/>
		<rect x="122.1" y="42.5" class="st12" width="1.5" height="1.5"/>
		<rect x="122.1" y="44.1" class="st12" width="1.5" height="1.5"/>
		<rect x="123.6" y="38" class="st12" width="1.5" height="1.5"/>
		<rect x="123.6" y="36.4" class="st12" width="1.5" height="1.5"/>
		<rect x="123.6" y="34.9" class="st12" width="1.5" height="1.5"/>
		<rect x="125.2" y="34.9" class="st12" width="1.5" height="1.5"/>
		<rect x="125.2" y="33.4" class="st12" width="1.5" height="1.5"/>
		<rect x="126.7" y="33.4" class="st12" width="1.5" height="1.5"/>
		<rect x="126.7" y="31.9" class="st12" width="1.5" height="1.5"/>
		<rect x="128.2" y="31.9" class="st12" width="1.5" height="1.5"/>
		<rect x="128.2" y="30.3" class="st12" width="1.5" height="1.5"/>
		<rect x="129.7" y="30.3" class="st12" width="1.5" height="1.5"/>
		<rect x="131.3" y="30.3" class="st12" width="1.5" height="1.5"/>
		<rect x="131.3" y="28.8" class="st12" width="1.5" height="1.5"/>
		<rect x="132.8" y="28.8" class="st12" width="1.5" height="1.5"/>
		<rect x="134.3" y="28.8" class="st12" width="1.5" height="1.5"/>
		<rect x="135.9" y="28.8" class="st12" width="1.5" height="1.5"/>
		<rect x="137.4" y="28.8" class="st12" width="1.5" height="1.5"/>
	</g>
</g>
</svg>
