<svg xmlns="http://www.w3.org/2000/svg" width="26.31" height="38.69" viewBox="0 0 26.31 38.69"><defs><style>.cls-1{fill:#c2cbce;}.cls-2{fill:#96a5ab;}.cls-3{fill:#777f82;}.cls-4{fill:#e4f0f4;}.cls-5{fill:#fff;}</style></defs><g id="Layer_2" data-name="Layer 2"><g id="Layer_1-2" data-name="Layer 1"><polygon class="cls-1" points="6.19 17.02 6.19 35.59 4.64 35.59 4.64 34.05 3.1 34.05 3.1 32.5 1.55 32.5 1.55 29.4 0 29.4 0 17.02 6.19 17.02"/><polygon class="cls-2" points="13.93 17.02 13.93 38.69 9.29 38.69 9.29 37.14 6.19 37.14 6.19 17.02 13.93 17.02"/><polygon class="cls-3" points="26.31 17.02 26.31 29.4 24.76 29.4 24.76 32.5 23.21 32.5 23.21 34.05 21.67 34.05 21.67 35.59 20.12 35.59 20.12 37.14 17.02 37.14 17.02 38.69 13.93 38.69 13.93 17.02 26.31 17.02"/><polygon class="cls-4" points="0 17.02 0 9.29 1.55 9.29 1.55 6.19 3.1 6.19 3.1 4.64 4.64 4.64 4.64 3.1 6.19 3.1 6.19 1.55 9.29 1.55 9.29 0 17.02 0 17.02 1.55 20.12 1.55 20.12 3.1 21.67 3.1 21.67 4.64 23.21 4.64 23.21 6.19 24.76 6.19 24.76 9.29 26.31 9.29 26.31 17.02 24.76 17.02 24.76 20.12 23.21 20.12 23.21 21.67 21.67 21.67 21.67 23.21 20.12 23.21 20.12 24.76 17.02 24.76 17.02 26.31 9.29 26.31 9.29 24.76 6.19 24.76 6.19 23.21 4.64 23.21 4.64 21.67 3.1 21.67 3.1 20.12 1.55 20.12 1.55 17.02 0 17.02"/><polygon class="cls-2" points="26.31 9.29 26.31 17.02 24.76 17.02 24.76 20.12 23.21 20.12 23.21 21.67 21.67 21.67 21.67 23.21 20.12 23.21 20.12 24.76 17.02 24.76 17.02 26.31 9.29 26.31 9.29 24.76 15.48 24.76 15.48 23.21 18.57 23.21 18.57 21.67 20.12 21.67 20.12 20.12 21.67 20.12 21.67 18.57 23.21 18.57 23.21 15.48 24.76 15.48 24.76 9.29 26.31 9.29"/><polygon class="cls-5" points="17.02 0 17.02 1.55 10.83 1.55 10.83 3.1 7.74 3.1 7.74 4.64 6.19 4.64 6.19 6.19 4.64 6.19 4.64 7.74 3.1 7.74 3.1 10.83 1.55 10.83 1.55 17.02 0 17.02 0 9.29 1.55 9.29 1.55 6.19 3.1 6.19 3.1 4.64 4.64 4.64 4.64 3.1 6.19 3.1 6.19 1.55 9.29 1.55 9.29 0 17.02 0"/></g></g></svg>