<svg xmlns="http://www.w3.org/2000/svg" width="34" height="34" viewBox="0 0 34 34"><defs><style>.cls-1{fill:#2a3747;}.cls-2{fill:#080d11;}.cls-3{fill:#182028;}.cls-4{fill:#fff;}</style></defs><g id="Layer_2" data-name="Layer 2"><g id="draft_assets" data-name="draft assets"><polygon class="cls-1" points="34 12 34 22 32 22 32 26 30 26 30 28 28 28 28 30 26 30 26 32 22 32 22 34 12 34 12 32 8 32 8 30 6 30 6 28 4 28 4 26 2 26 2 22 0 22 0 12 2 12 2 8 4 8 4 6 6 6 6 4 8 4 8 2 12 2 12 0 22 0 22 2 26 2 26 4 28 4 28 6 30 6 30 8 32 8 32 12 34 12"/><rect class="cls-2" y="12" width="2" height="2"/><rect class="cls-2" y="14" width="2" height="2"/><rect class="cls-2" y="16" width="2" height="2"/><rect class="cls-2" y="18" width="2" height="2"/><rect class="cls-2" y="20" width="2" height="2"/><rect class="cls-2" x="2" y="12" width="2" height="2"/><rect class="cls-2" x="2" y="10" width="2" height="2"/><rect class="cls-2" x="2" y="8" width="2" height="2"/><rect class="cls-2" x="4" y="8" width="2" height="2"/><rect class="cls-2" x="4" y="6" width="2" height="2"/><rect class="cls-2" x="6" y="6" width="2" height="2"/><rect class="cls-2" x="6" y="4" width="2" height="2"/><rect class="cls-2" x="8" y="4" width="2" height="2"/><rect class="cls-2" x="8" y="2" width="2" height="2"/><rect class="cls-2" x="10" y="2" width="2" height="2"/><rect class="cls-2" x="12" y="2" width="2" height="2"/><rect class="cls-2" x="12" width="2" height="2"/><rect class="cls-2" x="14" width="2" height="2"/><rect class="cls-2" x="16" width="2" height="2"/><rect class="cls-2" x="18" width="2" height="2"/><rect class="cls-2" x="20" width="2" height="2"/><rect class="cls-3" x="2" y="14" width="2" height="2"/><rect class="cls-3" x="2" y="16" width="2" height="2"/><rect class="cls-3" x="2" y="18" width="2" height="2"/><rect class="cls-3" x="2" y="20" width="2" height="2"/><rect class="cls-3" x="2" y="22" width="2" height="4"/><rect class="cls-3" x="4" y="14" width="2" height="2"/><rect class="cls-3" x="4" y="12" width="2" height="2"/><rect class="cls-3" x="4" y="10" width="2" height="2"/><rect class="cls-3" x="6" y="10" width="2" height="2"/><rect class="cls-3" x="6" y="8" width="2" height="2"/><rect class="cls-3" x="8" y="8" width="2" height="2"/><rect class="cls-3" x="8" y="6" width="2" height="2"/><rect class="cls-3" x="10" y="6" width="2" height="2"/><rect class="cls-3" x="10" y="4" width="2" height="2"/><rect class="cls-3" x="12" y="4" width="2" height="2"/><rect class="cls-3" x="14" y="4" width="2" height="2"/><rect class="cls-3" x="14" y="2" width="2" height="2"/><rect class="cls-3" x="16" y="2" width="2" height="2"/><rect class="cls-3" x="18" y="2" width="2" height="2"/><rect class="cls-3" x="20" y="2" width="2" height="2"/><rect class="cls-3" x="22" y="2" width="4" height="2"/><rect class="cls-4" x="20" y="32" width="2" height="2" transform="translate(-12 54) rotate(-90)"/><rect class="cls-4" x="18" y="32" width="2" height="2" transform="translate(-14 52) rotate(-90)"/><rect class="cls-4" x="16" y="32" width="2" height="2" transform="translate(-16 50) rotate(-90)"/><rect class="cls-4" x="14" y="32" width="2" height="2" transform="translate(-18 48) rotate(-90)"/><rect class="cls-4" x="12" y="32" width="2" height="2" transform="translate(-20 46) rotate(-90)"/><rect class="cls-4" x="20" y="30" width="2" height="2" transform="translate(-10 52) rotate(-90)"/><rect class="cls-4" x="22" y="30" width="2" height="2" transform="translate(-8 54) rotate(-90)"/><rect class="cls-4" x="24" y="30" width="2" height="2" transform="translate(-6 56) rotate(-90)"/><rect class="cls-4" x="24" y="28" width="2" height="2" transform="translate(-4 54) rotate(-90)"/><rect class="cls-4" x="26" y="28" width="2" height="2" transform="translate(-2 56) rotate(-90)"/><rect class="cls-4" x="26" y="26" width="2" height="2" transform="translate(0 54) rotate(-90)"/><rect class="cls-4" x="28" y="26" width="2" height="2" transform="translate(2 56) rotate(-90)"/><rect class="cls-4" x="28" y="24" width="2" height="2" transform="translate(4 54) rotate(-90)"/><rect class="cls-4" x="30" y="24" width="2" height="2" transform="translate(6 56) rotate(-90)"/><rect class="cls-4" x="30" y="22" width="2" height="2" transform="translate(8 54) rotate(-90)"/><rect class="cls-4" x="30" y="20" width="2" height="2" transform="translate(10 52) rotate(-90)"/><rect class="cls-4" x="32" y="20" width="2" height="2" transform="translate(12 54) rotate(-90)"/><rect class="cls-4" x="32" y="18" width="2" height="2" transform="translate(14 52) rotate(-90)"/><rect class="cls-4" x="32" y="16" width="2" height="2" transform="translate(16 50) rotate(-90)"/><rect class="cls-4" x="32" y="14" width="2" height="2" transform="translate(18 48) rotate(-90)"/><rect class="cls-4" x="32" y="12" width="2" height="2" transform="translate(20 46) rotate(-90)"/></g></g></svg>