<svg xmlns="http://www.w3.org/2000/svg" width="26" height="26" viewBox="0 0 26 26"><defs><style>.cls-1{fill:#2a3747;}.cls-2{fill:#080d11;}.cls-3{fill:#182028;}.cls-4{fill:#fff;}</style></defs><g id="Layer_2" data-name="Layer 2"><g id="Layer_1-2" data-name="Layer 1"><g id="Layer_2-2" data-name="Layer 2"><g id="draft_assets" data-name="draft assets"><polygon class="cls-1" points="26 9.18 26 16.82 24.47 16.82 24.47 19.88 22.94 19.88 22.94 21.41 21.41 21.41 21.41 22.94 19.88 22.94 19.88 24.47 16.82 24.47 16.82 26 9.18 26 9.18 24.47 6.12 24.47 6.12 22.94 4.59 22.94 4.59 21.41 3.06 21.41 3.06 19.88 1.53 19.88 1.53 16.82 0 16.82 0 9.18 1.53 9.18 1.53 6.12 3.06 6.12 3.06 4.59 4.59 4.59 4.59 3.06 6.12 3.06 6.12 1.53 9.18 1.53 9.18 0 16.82 0 16.82 1.53 19.88 1.53 19.88 3.06 21.41 3.06 21.41 4.59 22.94 4.59 22.94 6.12 24.47 6.12 24.47 9.18 26 9.18"/><rect class="cls-2" y="9.18" width="1.53" height="1.53"/><rect class="cls-2" y="10.71" width="1.53" height="1.53"/><rect class="cls-2" y="12.24" width="1.53" height="1.53"/><rect class="cls-2" y="13.76" width="1.53" height="1.53"/><rect class="cls-2" y="15.29" width="1.53" height="1.53"/><rect class="cls-2" x="1.53" y="9.18" width="1.53" height="1.53"/><rect class="cls-2" x="1.53" y="7.65" width="1.53" height="1.53"/><rect class="cls-2" x="1.53" y="6.12" width="1.53" height="1.53"/><rect class="cls-2" x="3.06" y="6.12" width="1.53" height="1.53"/><rect class="cls-2" x="3.06" y="4.59" width="1.53" height="1.53"/><rect class="cls-2" x="4.59" y="4.59" width="1.53" height="1.53"/><rect class="cls-2" x="4.59" y="3.06" width="1.53" height="1.53"/><rect class="cls-2" x="6.12" y="3.06" width="1.53" height="1.53"/><rect class="cls-2" x="6.12" y="1.53" width="1.53" height="1.53"/><rect class="cls-2" x="7.65" y="1.53" width="1.53" height="1.53"/><rect class="cls-2" x="9.18" y="1.53" width="1.53" height="1.53"/><rect class="cls-2" x="9.18" width="1.53" height="1.53"/><rect class="cls-2" x="10.71" width="1.53" height="1.53"/><rect class="cls-2" x="12.24" width="1.53" height="1.53"/><rect class="cls-2" x="13.76" width="1.53" height="1.53"/><rect class="cls-2" x="15.29" width="1.53" height="1.53"/><rect class="cls-3" x="1.53" y="10.71" width="1.53" height="1.53"/><rect class="cls-3" x="1.53" y="12.24" width="1.53" height="1.53"/><rect class="cls-3" x="1.53" y="13.76" width="1.53" height="1.53"/><rect class="cls-3" x="1.53" y="15.29" width="1.53" height="1.53"/><rect class="cls-3" x="1.53" y="16.82" width="1.53" height="3.06"/><rect class="cls-3" x="3.06" y="10.71" width="1.53" height="1.53"/><rect class="cls-3" x="3.06" y="9.18" width="1.53" height="1.53"/><rect class="cls-3" x="3.06" y="7.65" width="1.53" height="1.53"/><rect class="cls-3" x="4.59" y="7.65" width="1.53" height="1.53"/><rect class="cls-3" x="4.59" y="6.12" width="1.53" height="1.53"/><rect class="cls-3" x="6.12" y="6.12" width="1.53" height="1.53"/><rect class="cls-3" x="6.12" y="4.59" width="1.53" height="1.53"/><rect class="cls-3" x="7.65" y="4.59" width="1.53" height="1.53"/><rect class="cls-3" x="7.65" y="3.06" width="1.53" height="1.53"/><rect class="cls-3" x="9.18" y="3.06" width="1.53" height="1.53"/><rect class="cls-3" x="10.71" y="3.06" width="1.53" height="1.53"/><rect class="cls-3" x="10.71" y="1.53" width="1.53" height="1.53"/><rect class="cls-3" x="12.24" y="1.53" width="1.53" height="1.53"/><rect class="cls-3" x="13.76" y="1.53" width="1.53" height="1.53"/><rect class="cls-3" x="15.29" y="1.53" width="1.53" height="1.53"/><rect class="cls-3" x="16.82" y="1.53" width="3.06" height="1.53"/><rect class="cls-4" x="15.29" y="24.47" width="1.53" height="1.53"/><rect class="cls-4" x="13.76" y="24.47" width="1.53" height="1.53"/><rect class="cls-4" x="12.24" y="24.47" width="1.53" height="1.53"/><rect class="cls-4" x="10.71" y="24.47" width="1.53" height="1.53"/><rect class="cls-4" x="9.18" y="24.47" width="1.53" height="1.53"/><rect class="cls-4" x="15.29" y="22.94" width="1.53" height="1.53"/><rect class="cls-4" x="16.82" y="22.94" width="1.53" height="1.53"/><rect class="cls-4" x="18.35" y="22.94" width="1.53" height="1.53"/><rect class="cls-4" x="18.35" y="21.41" width="1.53" height="1.53"/><rect class="cls-4" x="19.88" y="21.41" width="1.53" height="1.53"/><rect class="cls-4" x="19.88" y="19.88" width="1.53" height="1.53"/><rect class="cls-4" x="21.41" y="19.88" width="1.53" height="1.53"/><rect class="cls-4" x="21.41" y="18.35" width="1.53" height="1.53"/><rect class="cls-4" x="22.94" y="18.35" width="1.53" height="1.53"/><rect class="cls-4" x="22.94" y="16.82" width="1.53" height="1.53"/><rect class="cls-4" x="22.94" y="15.29" width="1.53" height="1.53"/><rect class="cls-4" x="24.47" y="15.29" width="1.53" height="1.53"/><rect class="cls-4" x="24.47" y="13.76" width="1.53" height="1.53"/><rect class="cls-4" x="24.47" y="12.24" width="1.53" height="1.53"/><rect class="cls-4" x="24.47" y="10.71" width="1.53" height="1.53"/><rect class="cls-4" x="24.47" y="9.18" width="1.53" height="1.53"/></g></g></g></g></svg>