<svg xmlns="http://www.w3.org/2000/svg" width="26" height="39.72" viewBox="0 0 26 39.72"><defs><style>.cls-1{fill:#2a3747;}.cls-2{fill:#080d11;}.cls-3{fill:#182028;}.cls-4{fill:#fff;}.cls-5{fill:#e8363f;}.cls-6{fill:#bc1929;}.cls-7{fill:#4c0315;}.cls-8{fill:#ff4d4e;}.cls-9{fill:#9f1e31;}.cls-10{fill:#f9a0a9;}</style></defs><g id="Layer_2" data-name="Layer 2"><g id="Layer_1-2" data-name="Layer 1"><g id="Layer_2-2" data-name="Layer 2"><g id="draft_assets" data-name="draft assets"><polygon class="cls-1" points="26 22.9 26 30.54 24.47 30.54 24.47 33.6 22.94 33.6 22.94 35.13 21.41 35.13 21.41 36.66 19.88 36.66 19.88 38.19 16.82 38.19 16.82 39.72 9.18 39.72 9.18 38.19 6.12 38.19 6.12 36.66 4.59 36.66 4.59 35.13 3.06 35.13 3.06 33.6 1.53 33.6 1.53 30.54 0 30.54 0 22.9 1.53 22.9 1.53 19.84 3.06 19.84 3.06 18.31 4.59 18.31 4.59 16.78 6.12 16.78 6.12 15.25 9.18 15.25 9.18 13.72 16.82 13.72 16.82 15.25 19.88 15.25 19.88 16.78 21.41 16.78 21.41 18.31 22.94 18.31 22.94 19.84 24.47 19.84 24.47 22.9 26 22.9"/><rect class="cls-2" y="22.9" width="1.53" height="1.53"/><rect class="cls-2" y="24.43" width="1.53" height="1.53"/><rect class="cls-2" y="25.96" width="1.53" height="1.53"/><rect class="cls-2" y="27.49" width="1.53" height="1.53"/><rect class="cls-2" y="29.01" width="1.53" height="1.53"/><rect class="cls-2" x="1.53" y="22.9" width="1.53" height="1.53"/><rect class="cls-2" x="1.53" y="21.37" width="1.53" height="1.53"/><rect class="cls-2" x="1.53" y="19.84" width="1.53" height="1.53"/><rect class="cls-2" x="3.06" y="19.84" width="1.53" height="1.53"/><rect class="cls-2" x="3.06" y="18.31" width="1.53" height="1.53"/><rect class="cls-2" x="4.59" y="18.31" width="1.53" height="1.53"/><rect class="cls-2" x="4.59" y="16.78" width="1.53" height="1.53"/><rect class="cls-2" x="6.12" y="16.78" width="1.53" height="1.53"/><rect class="cls-2" x="6.12" y="15.25" width="1.53" height="1.53"/><rect class="cls-2" x="7.65" y="15.25" width="1.53" height="1.53"/><rect class="cls-2" x="9.18" y="15.25" width="1.53" height="1.53"/><rect class="cls-2" x="9.18" y="13.72" width="1.53" height="1.53"/><rect class="cls-2" x="10.71" y="13.72" width="1.53" height="1.53"/><rect class="cls-2" x="12.24" y="13.72" width="1.53" height="1.53"/><rect class="cls-2" x="13.76" y="13.72" width="1.53" height="1.53"/><rect class="cls-2" x="15.29" y="13.72" width="1.53" height="1.53"/><rect class="cls-3" x="1.53" y="24.43" width="1.53" height="1.53"/><rect class="cls-3" x="1.53" y="25.96" width="1.53" height="1.53"/><rect class="cls-3" x="1.53" y="27.49" width="1.53" height="1.53"/><rect class="cls-3" x="1.53" y="29.01" width="1.53" height="1.53"/><rect class="cls-3" x="1.53" y="30.54" width="1.53" height="3.06"/><rect class="cls-3" x="3.06" y="24.43" width="1.53" height="1.53"/><rect class="cls-3" x="3.06" y="22.9" width="1.53" height="1.53"/><rect class="cls-3" x="3.06" y="21.37" width="1.53" height="1.53"/><rect class="cls-3" x="4.59" y="21.37" width="1.53" height="1.53"/><rect class="cls-3" x="4.59" y="19.84" width="1.53" height="1.53"/><rect class="cls-3" x="6.12" y="19.84" width="1.53" height="1.53"/><rect class="cls-3" x="6.12" y="18.31" width="1.53" height="1.53"/><rect class="cls-3" x="7.65" y="18.31" width="1.53" height="1.53"/><rect class="cls-3" x="7.65" y="16.78" width="1.53" height="1.53"/><rect class="cls-3" x="9.18" y="16.78" width="1.53" height="1.53"/><rect class="cls-3" x="10.71" y="16.78" width="1.53" height="1.53"/><rect class="cls-3" x="10.71" y="15.25" width="1.53" height="1.53"/><rect class="cls-3" x="12.24" y="15.25" width="1.53" height="1.53"/><rect class="cls-3" x="13.76" y="15.25" width="1.53" height="1.53"/><rect class="cls-3" x="15.29" y="15.25" width="1.53" height="1.53"/><rect class="cls-3" x="16.82" y="15.25" width="3.06" height="1.53"/><rect class="cls-4" x="15.29" y="38.19" width="1.53" height="1.53"/><rect class="cls-4" x="13.76" y="38.19" width="1.53" height="1.53"/><rect class="cls-4" x="12.24" y="38.19" width="1.53" height="1.53"/><rect class="cls-4" x="10.71" y="38.19" width="1.53" height="1.53"/><rect class="cls-4" x="9.18" y="38.19" width="1.53" height="1.53"/><rect class="cls-4" x="15.29" y="36.66" width="1.53" height="1.53"/><rect class="cls-4" x="16.82" y="36.66" width="1.53" height="1.53"/><rect class="cls-4" x="18.35" y="36.66" width="1.53" height="1.53"/><rect class="cls-4" x="18.35" y="35.13" width="1.53" height="1.53"/><rect class="cls-4" x="19.88" y="35.13" width="1.53" height="1.53"/><rect class="cls-4" x="19.88" y="33.6" width="1.53" height="1.53"/><rect class="cls-4" x="21.41" y="33.6" width="1.53" height="1.53"/><rect class="cls-4" x="21.41" y="32.07" width="1.53" height="1.53"/><rect class="cls-4" x="22.94" y="32.07" width="1.53" height="1.53"/><rect class="cls-4" x="22.94" y="30.54" width="1.53" height="1.53"/><rect class="cls-4" x="22.94" y="29.01" width="1.53" height="1.53"/><rect class="cls-4" x="24.47" y="29.01" width="1.53" height="1.53"/><rect class="cls-4" x="24.47" y="27.49" width="1.53" height="1.53"/><rect class="cls-4" x="24.47" y="25.96" width="1.53" height="1.53"/><rect class="cls-4" x="24.47" y="24.43" width="1.53" height="1.53"/><rect class="cls-4" x="24.47" y="22.9" width="1.53" height="1.53"/></g></g><polygon class="cls-5" points="6.13 16.8 6.13 35.12 4.6 35.12 4.6 33.59 3.08 33.59 3.08 32.07 1.55 32.07 1.55 29.01 0.02 29.01 0.02 16.8 6.13 16.8"/><polygon class="cls-6" points="13.76 16.8 13.76 38.18 9.18 38.18 9.18 36.65 6.13 36.65 6.13 16.8 13.76 16.8"/><polygon class="cls-7" points="25.98 16.8 25.98 29.01 24.45 29.01 24.45 32.07 22.93 32.07 22.93 33.59 21.4 33.59 21.4 35.12 19.87 35.12 19.87 36.65 16.82 36.65 16.82 38.18 13.76 38.18 13.76 16.8 25.98 16.8"/><polygon class="cls-8" points="0.02 16.8 0.02 9.16 1.55 9.16 1.55 6.11 3.08 6.11 3.08 4.58 4.6 4.58 4.6 3.05 6.13 3.05 6.13 1.53 9.18 1.53 9.18 0 16.82 0 16.82 1.53 19.87 1.53 19.87 3.05 21.4 3.05 21.4 4.58 22.93 4.58 22.93 6.11 24.45 6.11 24.45 9.16 25.98 9.16 25.98 16.8 24.45 16.8 24.45 19.85 22.93 19.85 22.93 21.38 21.4 21.38 21.4 22.91 19.87 22.91 19.87 24.43 16.82 24.43 16.82 25.96 9.18 25.96 9.18 24.43 6.13 24.43 6.13 22.91 4.6 22.91 4.6 21.38 3.08 21.38 3.08 19.85 1.55 19.85 1.55 16.8 0.02 16.8"/><rect class="cls-9" x="24.45" y="15.27" width="1.53" height="1.53" transform="translate(50.43 32.07) rotate(180)"/><rect class="cls-9" x="24.45" y="13.74" width="1.53" height="1.53" transform="translate(50.43 29.01) rotate(180)"/><rect class="cls-9" x="24.45" y="12.22" width="1.53" height="1.53" transform="translate(50.43 25.96) rotate(180)"/><rect class="cls-9" x="24.45" y="10.69" width="1.53" height="1.53" transform="translate(50.43 22.91) rotate(180)"/><rect class="cls-9" x="24.45" y="9.16" width="1.53" height="1.53" transform="translate(50.43 19.85) rotate(180)"/><rect class="cls-9" x="22.93" y="15.27" width="1.53" height="1.53" transform="translate(47.38 32.07) rotate(180)"/><rect class="cls-9" x="22.93" y="16.8" width="1.53" height="1.53" transform="translate(47.38 35.12) rotate(180)"/><rect class="cls-9" x="22.93" y="18.32" width="1.53" height="1.53" transform="translate(47.38 38.18) rotate(180)"/><rect class="cls-9" x="21.4" y="18.32" width="1.53" height="1.53" transform="translate(44.33 38.18) rotate(180)"/><rect class="cls-9" x="21.4" y="19.85" width="1.53" height="1.53" transform="translate(44.33 41.23) rotate(180)"/><rect class="cls-9" x="19.87" y="19.85" width="1.53" height="1.53" transform="translate(41.27 41.23) rotate(180)"/><rect class="cls-9" x="19.87" y="21.38" width="1.53" height="1.53" transform="translate(41.27 44.28) rotate(180)"/><rect class="cls-9" x="18.35" y="21.38" width="1.53" height="1.53" transform="translate(38.22 44.28) rotate(180)"/><rect class="cls-9" x="18.35" y="22.91" width="1.53" height="1.53" transform="translate(38.22 47.34) rotate(180)"/><rect class="cls-9" x="16.82" y="22.91" width="1.53" height="1.53" transform="translate(35.16 47.34) rotate(180)"/><rect class="cls-9" x="15.29" y="22.91" width="1.53" height="1.53" transform="translate(32.11 47.34) rotate(180)"/><rect class="cls-9" x="15.29" y="24.43" width="1.53" height="1.53" transform="translate(32.11 50.39) rotate(180)"/><rect class="cls-9" x="13.76" y="24.43" width="1.53" height="1.53" transform="translate(29.06 50.39) rotate(180)"/><rect class="cls-9" x="12.24" y="24.43" width="1.53" height="1.53" transform="translate(26 50.39) rotate(180)"/><rect class="cls-9" x="10.71" y="24.43" width="1.53" height="1.53" transform="translate(22.95 50.39) rotate(180)"/><rect class="cls-9" x="9.18" y="24.43" width="1.53" height="1.53" transform="translate(19.89 50.39) rotate(180)"/><rect class="cls-10" x="0.02" y="9.16" width="1.53" height="1.53"/><rect class="cls-10" x="0.02" y="10.69" width="1.53" height="1.53"/><rect class="cls-10" x="0.02" y="12.22" width="1.53" height="1.53"/><rect class="cls-10" x="0.02" y="13.74" width="1.53" height="1.53"/><rect class="cls-10" x="0.02" y="15.27" width="1.53" height="1.53"/><rect class="cls-10" x="1.55" y="9.16" width="1.53" height="1.53"/><rect class="cls-10" x="1.55" y="7.64" width="1.53" height="1.53"/><rect class="cls-10" x="1.55" y="6.11" width="1.53" height="1.53"/><rect class="cls-10" x="3.07" y="6.11" width="1.53" height="1.53"/><rect class="cls-10" x="3.07" y="4.58" width="1.53" height="1.53"/><rect class="cls-10" x="4.6" y="4.58" width="1.53" height="1.53"/><rect class="cls-10" x="4.6" y="3.05" width="1.53" height="1.53"/><rect class="cls-10" x="6.13" y="3.05" width="1.53" height="1.53"/><rect class="cls-10" x="6.13" y="1.53" width="1.53" height="1.53"/><rect class="cls-10" x="7.66" y="1.53" width="1.53" height="1.53"/><rect class="cls-10" x="9.18" y="1.53" width="1.53" height="1.53"/><rect class="cls-10" x="9.18" width="1.53" height="1.53"/><rect class="cls-10" x="10.71" width="1.53" height="1.53"/><rect class="cls-10" x="12.24" width="1.53" height="1.53"/><rect class="cls-10" x="13.76" width="1.53" height="1.53"/><rect class="cls-10" x="15.29" width="1.53" height="1.53"/></g></g></svg>