<?xml version="1.0" encoding="utf-8"?>
<!-- Generator: Adobe Illustrator 24.1.3, SVG Export Plug-In . SVG Version: 6.00 Build 0)  -->
<svg version="1.1" id="Layer_1" xmlns="http://www.w3.org/2000/svg" xmlns:xlink="http://www.w3.org/1999/xlink" x="0px" y="0px"
	 viewBox="0 0 26 38.2" style="enable-background:new 0 0 26 38.2;" xml:space="preserve">
<style type="text/css">
	.st0{fill:#E8363F;}
	.st1{fill:#BC1929;}
	.st2{fill:#4C0315;}
	.st3{fill:#FF4D4E;}
	.st4{fill:#9F1E31;}
	.st5{fill:#F9A0A9;}
</style>
<g id="Layer_2_1_">
	<g id="Layer_1-2">
		<polygon class="st0" points="6.1,16.8 6.1,35.1 4.6,35.1 4.6,33.6 3,33.6 3,32.1 1.5,32.1 1.5,29 0,29 0,16.8 		"/>
		<polygon class="st1" points="13.7,16.8 13.7,38.2 9.2,38.2 9.2,36.7 6.1,36.7 6.1,16.8 		"/>
		<polygon class="st2" points="26,16.8 26,29 24.4,29 24.4,32.1 22.9,32.1 22.9,33.6 21.4,33.6 21.4,35.1 19.9,35.1 19.9,36.7 
			16.8,36.7 16.8,38.2 13.7,38.2 13.7,16.8 		"/>
		<polygon class="st3" points="0,16.8 0,9.2 1.5,9.2 1.5,6.1 3,6.1 3,4.6 4.6,4.6 4.6,3 6.1,3 6.1,1.5 9.2,1.5 9.2,0 16.8,0 
			16.8,1.5 19.9,1.5 19.9,3 21.4,3 21.4,4.6 22.9,4.6 22.9,6.1 24.4,6.1 24.4,9.2 26,9.2 26,16.8 24.4,16.8 24.4,19.9 22.9,19.9 
			22.9,21.4 21.4,21.4 21.4,22.9 19.9,22.9 19.9,24.4 16.8,24.4 16.8,26 9.2,26 9.2,24.4 6.1,24.4 6.1,22.9 4.6,22.9 4.6,21.4 
			3,21.4 3,19.9 1.5,19.9 1.5,16.8 		"/>
		<rect x="24.4" y="15.3" class="st4" width="1.5" height="1.5"/>
		<rect x="24.4" y="13.7" class="st4" width="1.5" height="1.5"/>
		<rect x="24.4" y="12.2" class="st4" width="1.5" height="1.5"/>
		<rect x="24.4" y="10.7" class="st4" width="1.5" height="1.5"/>
		<rect x="24.4" y="9.2" class="st4" width="1.5" height="1.5"/>
		<rect x="22.9" y="15.3" class="st4" width="1.5" height="1.5"/>
		<rect x="22.9" y="16.8" class="st4" width="1.5" height="1.5"/>
		<rect x="22.9" y="18.3" class="st4" width="1.5" height="1.5"/>
		<rect x="21.4" y="18.3" class="st4" width="1.5" height="1.5"/>
		<rect x="21.4" y="19.8" class="st4" width="1.5" height="1.5"/>
		<rect x="19.8" y="19.8" class="st4" width="1.5" height="1.5"/>
		<rect x="19.8" y="21.4" class="st4" width="1.5" height="1.5"/>
		<rect x="18.3" y="21.4" class="st4" width="1.5" height="1.5"/>
		<rect x="18.3" y="22.9" class="st4" width="1.5" height="1.5"/>
		<rect x="16.8" y="22.9" class="st4" width="1.5" height="1.5"/>
		<rect x="15.3" y="22.9" class="st4" width="1.5" height="1.5"/>
		<rect x="15.3" y="24.4" class="st4" width="1.5" height="1.5"/>
		<rect x="13.7" y="24.4" class="st4" width="1.5" height="1.5"/>
		<rect x="12.2" y="24.4" class="st4" width="1.5" height="1.5"/>
		<rect x="10.7" y="24.4" class="st4" width="1.5" height="1.5"/>
		<rect x="9.2" y="24.4" class="st4" width="1.5" height="1.5"/>
		<rect y="9.2" class="st5" width="1.5" height="1.5"/>
		<rect y="10.7" class="st5" width="1.5" height="1.5"/>
		<rect y="12.2" class="st5" width="1.5" height="1.5"/>
		<rect y="13.7" class="st5" width="1.5" height="1.5"/>
		<rect y="15.3" class="st5" width="1.5" height="1.5"/>
		<rect x="1.5" y="9.2" class="st5" width="1.5" height="1.5"/>
		<rect x="1.5" y="7.6" class="st5" width="1.5" height="1.5"/>
		<rect x="1.5" y="6.1" class="st5" width="1.5" height="1.5"/>
		<rect x="3" y="6.1" class="st5" width="1.5" height="1.5"/>
		<rect x="3" y="4.6" class="st5" width="1.5" height="1.5"/>
		<rect x="4.6" y="4.6" class="st5" width="1.5" height="1.5"/>
		<rect x="4.6" y="3" class="st5" width="1.5" height="1.5"/>
		<rect x="6.1" y="3" class="st5" width="1.5" height="1.5"/>
		<rect x="6.1" y="1.5" class="st5" width="1.5" height="1.5"/>
		<rect x="7.6" y="1.5" class="st5" width="1.5" height="1.5"/>
		<rect x="9.2" y="1.5" class="st5" width="1.5" height="1.5"/>
		<rect x="9.2" class="st5" width="1.5" height="1.5"/>
		<rect x="10.7" class="st5" width="1.5" height="1.5"/>
		<rect x="12.2" class="st5" width="1.5" height="1.5"/>
		<rect x="13.7" class="st5" width="1.5" height="1.5"/>
		<rect x="15.3" class="st5" width="1.5" height="1.5"/>
	</g>
</g>
</svg>
