<svg xmlns="http://www.w3.org/2000/svg" viewBox="0 0 34 58"><defs><style>.cls-1{fill:#e8363f;}.cls-2{fill:#bc1929;}.cls-3{fill:#4c0315;}.cls-4{fill:#ff4d4e;}.cls-5{fill:#721225;}.cls-6{fill:#9f1e31;}.cls-7{fill:#fff;}</style></defs><g id="Layer_2" data-name="Layer 2"><g id="draft_assets" data-name="draft assets"><polygon class="cls-1" points="8 22 8 54 6 54 6 52 4 52 4 50 2 50 2 46 0 46 0 22 8 22"/><polygon class="cls-2" points="18 22 18 58 12 58 12 56 8 56 8 22 18 22"/><polygon class="cls-3" points="34 22 34 46 32 46 32 50 30 50 30 52 28 52 28 54 26 54 26 56 22 56 22 58 18 58 18 22 34 22"/><polygon class="cls-4" points="0 22 0 12 2 12 2 8 4 8 4 6 6 6 6 4 8 4 8 2 12 2 12 0 22 0 22 2 26 2 26 4 28 4 28 6 30 6 30 8 32 8 32 12 34 12 34 22 32 22 32 26 30 26 30 28 28 28 28 30 26 30 26 32 22 32 22 34 12 34 12 32 8 32 8 30 6 30 6 28 4 28 4 26 2 26 2 22 0 22"/><rect class="cls-5" x="32" y="20" width="2" height="2" transform="translate(66 42) rotate(180)"/><rect class="cls-5" x="32" y="18" width="2" height="2" transform="translate(66 38) rotate(180)"/><rect class="cls-5" x="32" y="16" width="2" height="2" transform="translate(66 34) rotate(180)"/><rect class="cls-5" x="32" y="14" width="2" height="2" transform="translate(66 30) rotate(180)"/><rect class="cls-5" x="32" y="12" width="2" height="2" transform="translate(66 26) rotate(180)"/><rect class="cls-5" x="30" y="20" width="2" height="2" transform="translate(62 42) rotate(180)"/><rect class="cls-5" x="30" y="22" width="2" height="2" transform="translate(62 46) rotate(180)"/><rect class="cls-5" x="30" y="24" width="2" height="2" transform="translate(62 50) rotate(180)"/><rect class="cls-5" x="28" y="24" width="2" height="2" transform="translate(58 50) rotate(180)"/><rect class="cls-5" x="28" y="26" width="2" height="2" transform="translate(58 54) rotate(180)"/><rect class="cls-5" x="26" y="26" width="2" height="2" transform="translate(54 54) rotate(180)"/><rect class="cls-5" x="26" y="28" width="2" height="2" transform="translate(54 58) rotate(180)"/><rect class="cls-5" x="24" y="28" width="2" height="2" transform="translate(50 58) rotate(180)"/><rect class="cls-5" x="24" y="30" width="2" height="2" transform="translate(50 62) rotate(180)"/><rect class="cls-5" x="22" y="30" width="2" height="2" transform="translate(46 62) rotate(180)"/><rect class="cls-5" x="20" y="30" width="2" height="2" transform="translate(42 62) rotate(180)"/><rect class="cls-5" x="20" y="32" width="2" height="2" transform="translate(42 66) rotate(180)"/><rect class="cls-5" x="18" y="32" width="2" height="2" transform="translate(38 66) rotate(180)"/><rect class="cls-5" x="16" y="32" width="2" height="2" transform="translate(34 66) rotate(180)"/><rect class="cls-5" x="14" y="32" width="2" height="2" transform="translate(30 66) rotate(180)"/><rect class="cls-5" x="12" y="32" width="2" height="2" transform="translate(26 66) rotate(180)"/><rect class="cls-6" x="30" y="18" width="2" height="2" transform="translate(62 38) rotate(180)"/><rect class="cls-6" x="30" y="16" width="2" height="2" transform="translate(62 34) rotate(180)"/><rect class="cls-6" x="30" y="14" width="2" height="2" transform="translate(62 30) rotate(180)"/><rect class="cls-6" x="30" y="12" width="2" height="2" transform="translate(62 26) rotate(180)"/><rect class="cls-6" x="30" y="8" width="2" height="4" transform="translate(62 20) rotate(180)"/><rect class="cls-6" x="28" y="18" width="2" height="2" transform="translate(58 38) rotate(180)"/><rect class="cls-6" x="28" y="20" width="2" height="2" transform="translate(58 42) rotate(180)"/><rect class="cls-6" x="28" y="22" width="2" height="2" transform="translate(58 46) rotate(180)"/><rect class="cls-6" x="26" y="22" width="2" height="2" transform="translate(54 46) rotate(180)"/><rect class="cls-6" x="26" y="24" width="2" height="2" transform="translate(54 50) rotate(180)"/><rect class="cls-6" x="24" y="24" width="2" height="2" transform="translate(50 50) rotate(180)"/><rect class="cls-6" x="24" y="26" width="2" height="2" transform="translate(50 54) rotate(180)"/><rect class="cls-6" x="22" y="26" width="2" height="2" transform="translate(46 54) rotate(180)"/><rect class="cls-6" x="22" y="28" width="2" height="2" transform="translate(46 58) rotate(180)"/><rect class="cls-6" x="20" y="28" width="2" height="2" transform="translate(42 58) rotate(180)"/><rect class="cls-6" x="18" y="28" width="2" height="2" transform="translate(38 58) rotate(180)"/><rect class="cls-6" x="18" y="30" width="2" height="2" transform="translate(38 62) rotate(180)"/><rect class="cls-6" x="16" y="30" width="2" height="2" transform="translate(34 62) rotate(180)"/><rect class="cls-6" x="14" y="30" width="2" height="2" transform="translate(30 62) rotate(180)"/><rect class="cls-6" x="12" y="30" width="2" height="2" transform="translate(26 62) rotate(180)"/><rect class="cls-6" x="8" y="30" width="4" height="2" transform="translate(20 62) rotate(180)"/><rect class="cls-7" x="12" width="2" height="2" transform="translate(14 -12) rotate(90)"/><rect class="cls-7" x="14" width="2" height="2" transform="translate(16 -14) rotate(90)"/><rect class="cls-7" x="16" width="2" height="2" transform="translate(18 -16) rotate(90)"/><rect class="cls-7" x="18" width="2" height="2" transform="translate(20 -18) rotate(90)"/><rect class="cls-7" x="20" width="2" height="2" transform="translate(22 -20) rotate(90)"/><rect class="cls-7" x="12" y="2" width="2" height="2" transform="translate(16 -10) rotate(90)"/><rect class="cls-7" x="10" y="2" width="2" height="2" transform="translate(14 -8) rotate(90)"/><rect class="cls-7" x="8" y="2" width="2" height="2" transform="translate(12 -6) rotate(90)"/><rect class="cls-7" x="8" y="4" width="2" height="2" transform="translate(14 -4) rotate(90)"/><rect class="cls-7" x="6" y="4" width="2" height="2" transform="translate(12 -2) rotate(90)"/><rect class="cls-7" x="6" y="6" width="2" height="2" transform="translate(14 0) rotate(90)"/><rect class="cls-7" x="4" y="6" width="2" height="2" transform="translate(12 2) rotate(90)"/><rect class="cls-7" x="4" y="8" width="2" height="2" transform="translate(14 4) rotate(90)"/><rect class="cls-7" x="2" y="8" width="2" height="2" transform="translate(12 6) rotate(90)"/><rect class="cls-7" x="2" y="10" width="2" height="2" transform="translate(14 8) rotate(90)"/><rect class="cls-7" x="2" y="12" width="2" height="2" transform="translate(16 10) rotate(90)"/><rect class="cls-7" y="12" width="2" height="2" transform="translate(14 12) rotate(90)"/><rect class="cls-7" y="14" width="2" height="2" transform="translate(16 14) rotate(90)"/><rect class="cls-7" y="16" width="2" height="2" transform="translate(18 16) rotate(90)"/><rect class="cls-7" y="18" width="2" height="2" transform="translate(20 18) rotate(90)"/><rect class="cls-7" y="20" width="2" height="2" transform="translate(22 20) rotate(90)"/></g></g></svg>