<svg xmlns="http://www.w3.org/2000/svg" width="26" height="39" viewBox="0 0 26 39"><defs><style>.cls-1{fill:#2a3747;}.cls-2{fill:#080d11;}.cls-3{fill:#182028;}.cls-4{fill:#fff;}.cls-5{fill:#e8363f;}.cls-6{fill:#bc1929;}.cls-7{fill:#4c0315;}.cls-8{fill:#ff4d4e;}.cls-9{fill:#9f1e31;}.cls-10{fill:#f9a0a9;}</style></defs><g id="Layer_2" data-name="Layer 2"><g id="Layer_1-2" data-name="Layer 1"><g id="Layer_2-2" data-name="Layer 2"><g id="draft_assets" data-name="draft assets"><polygon class="cls-1" points="26 22.18 26 29.82 24.47 29.82 24.47 32.88 22.94 32.88 22.94 34.41 21.41 34.41 21.41 35.94 19.88 35.94 19.88 37.47 16.82 37.47 16.82 39 9.18 39 9.18 37.47 6.12 37.47 6.12 35.94 4.59 35.94 4.59 34.41 3.06 34.41 3.06 32.88 1.53 32.88 1.53 29.82 0 29.82 0 22.18 1.53 22.18 1.53 19.12 3.06 19.12 3.06 17.59 4.59 17.59 4.59 16.06 6.12 16.06 6.12 14.53 9.18 14.53 9.18 13 16.82 13 16.82 14.53 19.88 14.53 19.88 16.06 21.41 16.06 21.41 17.59 22.94 17.59 22.94 19.12 24.47 19.12 24.47 22.18 26 22.18"/><rect class="cls-2" y="22.18" width="1.53" height="1.53"/><rect class="cls-2" y="23.71" width="1.53" height="1.53"/><rect class="cls-2" y="25.24" width="1.53" height="1.53"/><rect class="cls-2" y="26.76" width="1.53" height="1.53"/><rect class="cls-2" y="28.29" width="1.53" height="1.53"/><rect class="cls-2" x="1.53" y="22.18" width="1.53" height="1.53"/><rect class="cls-2" x="1.53" y="20.65" width="1.53" height="1.53"/><rect class="cls-2" x="1.53" y="19.12" width="1.53" height="1.53"/><rect class="cls-2" x="3.06" y="19.12" width="1.53" height="1.53"/><rect class="cls-2" x="3.06" y="17.59" width="1.53" height="1.53"/><rect class="cls-2" x="4.59" y="17.59" width="1.53" height="1.53"/><rect class="cls-2" x="4.59" y="16.06" width="1.53" height="1.53"/><rect class="cls-2" x="6.12" y="16.06" width="1.53" height="1.53"/><rect class="cls-2" x="6.12" y="14.53" width="1.53" height="1.53"/><rect class="cls-2" x="7.65" y="14.53" width="1.53" height="1.53"/><rect class="cls-2" x="9.18" y="14.53" width="1.53" height="1.53"/><rect class="cls-2" x="9.18" y="13" width="1.53" height="1.53"/><rect class="cls-2" x="10.71" y="13" width="1.53" height="1.53"/><rect class="cls-2" x="12.24" y="13" width="1.53" height="1.53"/><rect class="cls-2" x="13.76" y="13" width="1.53" height="1.53"/><rect class="cls-2" x="15.29" y="13" width="1.53" height="1.53"/><rect class="cls-3" x="1.53" y="23.71" width="1.53" height="1.53"/><rect class="cls-3" x="1.53" y="25.24" width="1.53" height="1.53"/><rect class="cls-3" x="1.53" y="26.76" width="1.53" height="1.53"/><rect class="cls-3" x="1.53" y="28.29" width="1.53" height="1.53"/><rect class="cls-3" x="1.53" y="29.82" width="1.53" height="3.06"/><rect class="cls-3" x="3.06" y="23.71" width="1.53" height="1.53"/><rect class="cls-3" x="3.06" y="22.18" width="1.53" height="1.53"/><rect class="cls-3" x="3.06" y="20.65" width="1.53" height="1.53"/><rect class="cls-3" x="4.59" y="20.65" width="1.53" height="1.53"/><rect class="cls-3" x="4.59" y="19.12" width="1.53" height="1.53"/><rect class="cls-3" x="6.12" y="19.12" width="1.53" height="1.53"/><rect class="cls-3" x="6.12" y="17.59" width="1.53" height="1.53"/><rect class="cls-3" x="7.65" y="17.59" width="1.53" height="1.53"/><rect class="cls-3" x="7.65" y="16.06" width="1.53" height="1.53"/><rect class="cls-3" x="9.18" y="16.06" width="1.53" height="1.53"/><rect class="cls-3" x="10.71" y="16.06" width="1.53" height="1.53"/><rect class="cls-3" x="10.71" y="14.53" width="1.53" height="1.53"/><rect class="cls-3" x="12.24" y="14.53" width="1.53" height="1.53"/><rect class="cls-3" x="13.76" y="14.53" width="1.53" height="1.53"/><rect class="cls-3" x="15.29" y="14.53" width="1.53" height="1.53"/><rect class="cls-3" x="16.82" y="14.53" width="3.06" height="1.53"/><rect class="cls-4" x="15.29" y="37.47" width="1.53" height="1.53"/><rect class="cls-4" x="13.76" y="37.47" width="1.53" height="1.53"/><rect class="cls-4" x="12.24" y="37.47" width="1.53" height="1.53"/><rect class="cls-4" x="10.71" y="37.47" width="1.53" height="1.53"/><rect class="cls-4" x="9.18" y="37.47" width="1.53" height="1.53"/><rect class="cls-4" x="15.29" y="35.94" width="1.53" height="1.53"/><rect class="cls-4" x="16.82" y="35.94" width="1.53" height="1.53"/><rect class="cls-4" x="18.35" y="35.94" width="1.53" height="1.53"/><rect class="cls-4" x="18.35" y="34.41" width="1.53" height="1.53"/><rect class="cls-4" x="19.88" y="34.41" width="1.53" height="1.53"/><rect class="cls-4" x="19.88" y="32.88" width="1.53" height="1.53"/><rect class="cls-4" x="21.41" y="32.88" width="1.53" height="1.53"/><rect class="cls-4" x="21.41" y="31.35" width="1.53" height="1.53"/><rect class="cls-4" x="22.94" y="31.35" width="1.53" height="1.53"/><rect class="cls-4" x="22.94" y="29.82" width="1.53" height="1.53"/><rect class="cls-4" x="22.94" y="28.29" width="1.53" height="1.53"/><rect class="cls-4" x="24.47" y="28.29" width="1.53" height="1.53"/><rect class="cls-4" x="24.47" y="26.76" width="1.53" height="1.53"/><rect class="cls-4" x="24.47" y="25.24" width="1.53" height="1.53"/><rect class="cls-4" x="24.47" y="23.71" width="1.53" height="1.53"/><rect class="cls-4" x="24.47" y="22.18" width="1.53" height="1.53"/></g></g><polygon class="cls-5" points="6.11 16.8 6.11 35.12 4.58 35.12 4.58 33.59 3.05 33.59 3.05 32.07 1.53 32.07 1.53 29.01 0 29.01 0 16.8 6.11 16.8"/><polygon class="cls-6" points="13.74 16.8 13.74 38.18 9.16 38.18 9.16 36.65 6.11 36.65 6.11 16.8 13.74 16.8"/><polygon class="cls-7" points="25.96 16.8 25.96 29.01 24.43 29.01 24.43 32.07 22.91 32.07 22.91 33.59 21.38 33.59 21.38 35.12 19.85 35.12 19.85 36.65 16.8 36.65 16.8 38.18 13.74 38.18 13.74 16.8 25.96 16.8"/><polygon class="cls-8" points="0 16.8 0 9.16 1.53 9.16 1.53 6.11 3.05 6.11 3.05 4.58 4.58 4.58 4.58 3.05 6.11 3.05 6.11 1.53 9.16 1.53 9.16 0 16.8 0 16.8 1.53 19.85 1.53 19.85 3.05 21.38 3.05 21.38 4.58 22.91 4.58 22.91 6.11 24.43 6.11 24.43 9.16 25.96 9.16 25.96 16.8 24.43 16.8 24.43 19.85 22.91 19.85 22.91 21.38 21.38 21.38 21.38 22.91 19.85 22.91 19.85 24.43 16.8 24.43 16.8 25.96 9.16 25.96 9.16 24.43 6.11 24.43 6.11 22.91 4.58 22.91 4.58 21.38 3.05 21.38 3.05 19.85 1.53 19.85 1.53 16.8 0 16.8"/><rect class="cls-9" x="24.43" y="15.27" width="1.53" height="1.53" transform="translate(50.39 32.07) rotate(180)"/><rect class="cls-9" x="24.43" y="13.74" width="1.53" height="1.53" transform="translate(50.39 29.01) rotate(180)"/><rect class="cls-9" x="24.43" y="12.22" width="1.53" height="1.53" transform="translate(50.39 25.96) rotate(180)"/><rect class="cls-9" x="24.43" y="10.69" width="1.53" height="1.53" transform="translate(50.39 22.91) rotate(180)"/><rect class="cls-9" x="24.43" y="9.16" width="1.53" height="1.53" transform="translate(50.39 19.85) rotate(180)"/><rect class="cls-9" x="22.91" y="15.27" width="1.53" height="1.53" transform="translate(47.34 32.07) rotate(180)"/><rect class="cls-9" x="22.91" y="16.8" width="1.53" height="1.53" transform="translate(47.34 35.12) rotate(180)"/><rect class="cls-9" x="22.91" y="18.32" width="1.53" height="1.53" transform="translate(47.34 38.18) rotate(180)"/><rect class="cls-9" x="21.38" y="18.32" width="1.53" height="1.53" transform="translate(44.28 38.18) rotate(180)"/><rect class="cls-9" x="21.38" y="19.85" width="1.53" height="1.53" transform="translate(44.28 41.23) rotate(180)"/><rect class="cls-9" x="19.85" y="19.85" width="1.53" height="1.53" transform="translate(41.23 41.23) rotate(180)"/><rect class="cls-9" x="19.85" y="21.38" width="1.53" height="1.53" transform="translate(41.23 44.28) rotate(180)"/><rect class="cls-9" x="18.32" y="21.38" width="1.53" height="1.53" transform="translate(38.18 44.28) rotate(180)"/><rect class="cls-9" x="18.32" y="22.91" width="1.53" height="1.53" transform="translate(38.18 47.34) rotate(180)"/><rect class="cls-9" x="16.8" y="22.91" width="1.53" height="1.53" transform="translate(35.12 47.34) rotate(180)"/><rect class="cls-9" x="15.27" y="22.91" width="1.53" height="1.53" transform="translate(32.07 47.34) rotate(180)"/><rect class="cls-9" x="15.27" y="24.43" width="1.53" height="1.53" transform="translate(32.07 50.39) rotate(180)"/><rect class="cls-9" x="13.74" y="24.43" width="1.53" height="1.53" transform="translate(29.01 50.39) rotate(180)"/><rect class="cls-9" x="12.22" y="24.43" width="1.53" height="1.53" transform="translate(25.96 50.39) rotate(180)"/><rect class="cls-9" x="10.69" y="24.43" width="1.53" height="1.53" transform="translate(22.91 50.39) rotate(180)"/><rect class="cls-9" x="9.16" y="24.43" width="1.53" height="1.53" transform="translate(19.85 50.39) rotate(180)"/><rect class="cls-10" y="9.16" width="1.53" height="1.53"/><rect class="cls-10" y="10.69" width="1.53" height="1.53"/><rect class="cls-10" y="12.22" width="1.53" height="1.53"/><rect class="cls-10" y="13.74" width="1.53" height="1.53"/><rect class="cls-10" y="15.27" width="1.53" height="1.53"/><rect class="cls-10" x="1.53" y="9.16" width="1.53" height="1.53"/><rect class="cls-10" x="1.53" y="7.64" width="1.53" height="1.53"/><rect class="cls-10" x="1.53" y="6.11" width="1.53" height="1.53"/><rect class="cls-10" x="3.05" y="6.11" width="1.53" height="1.53"/><rect class="cls-10" x="3.05" y="4.58" width="1.53" height="1.53"/><rect class="cls-10" x="4.58" y="4.58" width="1.53" height="1.53"/><rect class="cls-10" x="4.58" y="3.05" width="1.53" height="1.53"/><rect class="cls-10" x="6.11" y="3.05" width="1.53" height="1.53"/><rect class="cls-10" x="6.11" y="1.53" width="1.53" height="1.53"/><rect class="cls-10" x="7.64" y="1.53" width="1.53" height="1.53"/><rect class="cls-10" x="9.16" y="1.53" width="1.53" height="1.53"/><rect class="cls-10" x="9.16" width="1.53" height="1.53"/><rect class="cls-10" x="10.69" width="1.53" height="1.53"/><rect class="cls-10" x="12.22" width="1.53" height="1.53"/><rect class="cls-10" x="13.74" width="1.53" height="1.53"/><rect class="cls-10" x="15.27" width="1.53" height="1.53"/></g></g></svg>