<svg xmlns="http://www.w3.org/2000/svg" width="26" height="45.88" viewBox="0 0 26 45.88"><defs><style>.cls-1{fill:#2a3747;}.cls-2{fill:#080d11;}.cls-3{fill:#182028;}.cls-4{fill:#fff;}.cls-5{fill:#e8363f;}.cls-6{fill:#bc1929;}.cls-7{fill:#4c0315;}.cls-8{fill:#ff4d4e;}.cls-9{fill:#721225;}.cls-10{fill:#9f1e31;}</style></defs><g id="Layer_2" data-name="Layer 2"><g id="Layer_1-2" data-name="Layer 1"><polygon class="cls-1" points="26 29.06 26 36.71 24.47 36.71 24.47 39.77 22.94 39.77 22.94 41.29 21.41 41.29 21.41 42.82 19.88 42.82 19.88 44.35 16.82 44.35 16.82 45.88 9.18 45.88 9.18 44.35 6.12 44.35 6.12 42.82 4.59 42.82 4.59 41.29 3.06 41.29 3.06 39.77 1.53 39.77 1.53 36.71 0 36.71 0 29.06 1.53 29.06 1.53 26 3.06 26 3.06 24.47 4.59 24.47 4.59 22.94 6.12 22.94 6.12 21.41 9.18 21.41 9.18 19.88 16.82 19.88 16.82 21.41 19.88 21.41 19.88 22.94 21.41 22.94 21.41 24.47 22.94 24.47 22.94 26 24.47 26 24.47 29.06 26 29.06"/><rect class="cls-2" y="29.06" width="1.53" height="1.53"/><rect class="cls-2" y="30.59" width="1.53" height="1.53"/><rect class="cls-2" y="32.12" width="1.53" height="1.53"/><rect class="cls-2" y="33.65" width="1.53" height="1.53"/><rect class="cls-2" y="35.18" width="1.53" height="1.53"/><rect class="cls-2" x="1.53" y="29.06" width="1.53" height="1.53"/><rect class="cls-2" x="1.53" y="27.53" width="1.53" height="1.53"/><rect class="cls-2" x="1.53" y="26" width="1.53" height="1.53"/><rect class="cls-2" x="3.06" y="26" width="1.53" height="1.53"/><rect class="cls-2" x="3.06" y="24.47" width="1.53" height="1.53"/><rect class="cls-2" x="4.59" y="24.47" width="1.53" height="1.53"/><rect class="cls-2" x="4.59" y="22.94" width="1.53" height="1.53"/><rect class="cls-2" x="6.12" y="22.94" width="1.53" height="1.53"/><rect class="cls-2" x="6.12" y="21.41" width="1.53" height="1.53"/><rect class="cls-2" x="7.65" y="21.41" width="1.53" height="1.53"/><rect class="cls-2" x="9.18" y="21.41" width="1.53" height="1.53"/><rect class="cls-2" x="9.18" y="19.88" width="1.53" height="1.53"/><rect class="cls-2" x="10.71" y="19.88" width="1.53" height="1.53"/><rect class="cls-2" x="12.24" y="19.88" width="1.53" height="1.53"/><rect class="cls-2" x="13.76" y="19.88" width="1.53" height="1.53"/><rect class="cls-2" x="15.29" y="19.88" width="1.53" height="1.53"/><rect class="cls-3" x="1.53" y="30.59" width="1.53" height="1.53"/><rect class="cls-3" x="1.53" y="32.12" width="1.53" height="1.53"/><rect class="cls-3" x="1.53" y="33.65" width="1.53" height="1.53"/><rect class="cls-3" x="1.53" y="35.18" width="1.53" height="1.53"/><rect class="cls-3" x="1.53" y="36.71" width="1.53" height="3.06"/><rect class="cls-3" x="3.06" y="30.59" width="1.53" height="1.53"/><rect class="cls-3" x="3.06" y="29.06" width="1.53" height="1.53"/><rect class="cls-3" x="3.06" y="27.53" width="1.53" height="1.53"/><rect class="cls-3" x="4.59" y="27.53" width="1.53" height="1.53"/><rect class="cls-3" x="4.59" y="26" width="1.53" height="1.53"/><rect class="cls-3" x="6.12" y="26" width="1.53" height="1.53"/><rect class="cls-3" x="6.12" y="24.47" width="1.53" height="1.53"/><rect class="cls-3" x="7.65" y="24.47" width="1.53" height="1.53"/><rect class="cls-3" x="7.65" y="22.94" width="1.53" height="1.53"/><rect class="cls-3" x="9.18" y="22.94" width="1.53" height="1.53"/><rect class="cls-3" x="10.71" y="22.94" width="1.53" height="1.53"/><rect class="cls-3" x="10.71" y="21.41" width="1.53" height="1.53"/><rect class="cls-3" x="12.24" y="21.41" width="1.53" height="1.53"/><rect class="cls-3" x="13.76" y="21.41" width="1.53" height="1.53"/><rect class="cls-3" x="15.29" y="21.41" width="1.53" height="1.53"/><rect class="cls-3" x="16.82" y="21.41" width="3.06" height="1.53"/><rect class="cls-4" x="15.29" y="44.35" width="1.53" height="1.53" transform="translate(-29.06 61.18) rotate(-90)"/><rect class="cls-4" x="13.76" y="44.35" width="1.53" height="1.53" transform="translate(-30.59 59.65) rotate(-90)"/><rect class="cls-4" x="12.24" y="44.35" width="1.53" height="1.53" transform="translate(-32.12 58.12) rotate(-90)"/><rect class="cls-4" x="10.71" y="44.35" width="1.53" height="1.53" transform="translate(-33.65 56.59) rotate(-90)"/><rect class="cls-4" x="9.18" y="44.35" width="1.53" height="1.53" transform="translate(-35.18 55.06) rotate(-90)"/><rect class="cls-4" x="15.29" y="42.82" width="1.53" height="1.53" transform="translate(-27.53 59.65) rotate(-90)"/><rect class="cls-4" x="16.82" y="42.82" width="1.53" height="1.53" transform="translate(-26 61.18) rotate(-90)"/><rect class="cls-4" x="18.35" y="42.82" width="1.53" height="1.53" transform="translate(-24.47 62.71) rotate(-90)"/><rect class="cls-4" x="18.35" y="41.29" width="1.53" height="1.53" transform="translate(-22.94 61.18) rotate(-90)"/><rect class="cls-4" x="19.88" y="41.29" width="1.53" height="1.53" transform="translate(-21.41 62.71) rotate(-90)"/><rect class="cls-4" x="19.88" y="39.76" width="1.53" height="1.53" transform="translate(-19.88 61.18) rotate(-90)"/><rect class="cls-4" x="21.41" y="39.76" width="1.53" height="1.53" transform="translate(-18.35 62.71) rotate(-90)"/><rect class="cls-4" x="21.41" y="38.24" width="1.53" height="1.53" transform="translate(-16.82 61.18) rotate(-90)"/><rect class="cls-4" x="22.94" y="38.24" width="1.53" height="1.53" transform="translate(-15.29 62.71) rotate(-90)"/><rect class="cls-4" x="22.94" y="36.71" width="1.53" height="1.53" transform="translate(-13.76 61.18) rotate(-90)"/><rect class="cls-4" x="22.94" y="35.18" width="1.53" height="1.53" transform="translate(-12.24 59.65) rotate(-90)"/><rect class="cls-4" x="24.47" y="35.18" width="1.53" height="1.53" transform="translate(-10.71 61.18) rotate(-90)"/><rect class="cls-4" x="24.47" y="33.65" width="1.53" height="1.53" transform="translate(-9.18 59.65) rotate(-90)"/><rect class="cls-4" x="24.47" y="32.12" width="1.53" height="1.53" transform="translate(-7.65 58.12) rotate(-90)"/><rect class="cls-4" x="24.47" y="30.59" width="1.53" height="1.53" transform="translate(-6.12 56.59) rotate(-90)"/><rect class="cls-4" x="24.47" y="29.06" width="1.53" height="1.53" transform="translate(-4.59 55.06) rotate(-90)"/><polygon class="cls-5" points="6.12 16.82 6.12 41.29 4.59 41.29 4.59 39.77 3.06 39.77 3.06 38.23 1.53 38.23 1.53 35.18 0 35.18 0 16.82 6.12 16.82"/><polygon class="cls-6" points="13.77 16.82 13.77 44.35 9.18 44.35 9.18 42.82 6.12 42.82 6.12 16.82 13.77 16.82"/><polygon class="cls-7" points="26 16.82 26 35.18 24.47 35.18 24.47 38.23 22.94 38.23 22.94 39.77 21.41 39.77 21.41 41.29 19.88 41.29 19.88 42.82 16.82 42.82 16.82 44.35 13.77 44.35 13.77 16.82 26 16.82"/><polygon class="cls-8" points="0 16.82 0 9.18 1.53 9.18 1.53 6.12 3.06 6.12 3.06 4.59 4.59 4.59 4.59 3.06 6.12 3.06 6.12 1.53 9.18 1.53 9.18 0 16.82 0 16.82 1.53 19.88 1.53 19.88 3.06 21.41 3.06 21.41 4.59 22.94 4.59 22.94 6.12 24.47 6.12 24.47 9.18 26 9.18 26 16.82 24.47 16.82 24.47 19.88 22.94 19.88 22.94 21.41 21.41 21.41 21.41 22.94 19.88 22.94 19.88 24.47 16.82 24.47 16.82 26 9.18 26 9.18 24.47 6.12 24.47 6.12 22.94 4.59 22.94 4.59 21.41 3.06 21.41 3.06 19.88 1.53 19.88 1.53 16.82 0 16.82"/><rect class="cls-9" x="24.47" y="15.29" width="1.53" height="1.53" transform="translate(50.47 32.12) rotate(180)"/><rect class="cls-9" x="24.47" y="13.76" width="1.53" height="1.53" transform="translate(50.47 29.06) rotate(180)"/><rect class="cls-9" x="24.47" y="12.24" width="1.53" height="1.53" transform="translate(50.47 26) rotate(180)"/><rect class="cls-9" x="24.47" y="10.71" width="1.53" height="1.53" transform="translate(50.47 22.94) rotate(180)"/><rect class="cls-9" x="24.47" y="9.18" width="1.53" height="1.53" transform="translate(50.47 19.88) rotate(180)"/><rect class="cls-9" x="22.94" y="15.29" width="1.53" height="1.53" transform="translate(47.41 32.12) rotate(180)"/><rect class="cls-9" x="22.94" y="16.82" width="1.53" height="1.53" transform="translate(47.41 35.18) rotate(180)"/><rect class="cls-9" x="22.94" y="18.35" width="1.53" height="1.53" transform="translate(47.41 38.24) rotate(180)"/><rect class="cls-9" x="21.41" y="18.35" width="1.53" height="1.53" transform="translate(44.35 38.24) rotate(180)"/><rect class="cls-9" x="21.41" y="19.88" width="1.53" height="1.53" transform="translate(44.35 41.29) rotate(180)"/><rect class="cls-9" x="19.88" y="19.88" width="1.53" height="1.53" transform="translate(41.29 41.29) rotate(180)"/><rect class="cls-9" x="19.88" y="21.41" width="1.53" height="1.53" transform="translate(41.29 44.35) rotate(180)"/><rect class="cls-9" x="18.35" y="21.41" width="1.53" height="1.53" transform="translate(38.24 44.35) rotate(180)"/><rect class="cls-9" x="18.35" y="22.94" width="1.53" height="1.53" transform="translate(38.24 47.41) rotate(180)"/><rect class="cls-9" x="16.82" y="22.94" width="1.53" height="1.53" transform="translate(35.18 47.41) rotate(180)"/><rect class="cls-9" x="15.29" y="22.94" width="1.53" height="1.53" transform="translate(32.12 47.41) rotate(180)"/><rect class="cls-9" x="15.29" y="24.47" width="1.53" height="1.53" transform="translate(32.12 50.47) rotate(180)"/><rect class="cls-9" x="13.76" y="24.47" width="1.53" height="1.53" transform="translate(29.06 50.47) rotate(180)"/><rect class="cls-9" x="12.24" y="24.47" width="1.53" height="1.53" transform="translate(26 50.47) rotate(180)"/><rect class="cls-9" x="10.71" y="24.47" width="1.53" height="1.53" transform="translate(22.94 50.47) rotate(180)"/><rect class="cls-9" x="9.18" y="24.47" width="1.53" height="1.53" transform="translate(19.88 50.47) rotate(180)"/><rect class="cls-10" x="22.94" y="13.76" width="1.53" height="1.53" transform="translate(47.41 29.06) rotate(180)"/><rect class="cls-10" x="22.94" y="12.24" width="1.53" height="1.53" transform="translate(47.41 26) rotate(180)"/><rect class="cls-10" x="22.94" y="10.71" width="1.53" height="1.53" transform="translate(47.41 22.94) rotate(180)"/><rect class="cls-10" x="22.94" y="9.18" width="1.53" height="1.53" transform="translate(47.41 19.88) rotate(180)"/><rect class="cls-10" x="22.94" y="6.12" width="1.53" height="3.06" transform="translate(47.41 15.29) rotate(180)"/><rect class="cls-10" x="21.41" y="13.76" width="1.53" height="1.53" transform="translate(44.35 29.06) rotate(180)"/><rect class="cls-10" x="21.41" y="15.29" width="1.53" height="1.53" transform="translate(44.35 32.12) rotate(180)"/><rect class="cls-10" x="21.41" y="16.82" width="1.53" height="1.53" transform="translate(44.35 35.18) rotate(180)"/><rect class="cls-10" x="19.88" y="16.82" width="1.53" height="1.53" transform="translate(41.29 35.18) rotate(180)"/><rect class="cls-10" x="19.88" y="18.35" width="1.53" height="1.53" transform="translate(41.29 38.24) rotate(180)"/><rect class="cls-10" x="18.35" y="18.35" width="1.53" height="1.53" transform="translate(38.24 38.24) rotate(180)"/><rect class="cls-10" x="18.35" y="19.88" width="1.53" height="1.53" transform="translate(38.24 41.29) rotate(180)"/><rect class="cls-10" x="16.82" y="19.88" width="1.53" height="1.53" transform="translate(35.18 41.29) rotate(180)"/><rect class="cls-10" x="16.82" y="21.41" width="1.53" height="1.53" transform="translate(35.18 44.35) rotate(180)"/><rect class="cls-10" x="15.29" y="21.41" width="1.53" height="1.53" transform="translate(32.12 44.35) rotate(180)"/><rect class="cls-10" x="13.76" y="21.41" width="1.53" height="1.53" transform="translate(29.06 44.35) rotate(180)"/><rect class="cls-10" x="13.76" y="22.94" width="1.53" height="1.53" transform="translate(29.06 47.41) rotate(180)"/><rect class="cls-10" x="12.24" y="22.94" width="1.53" height="1.53" transform="translate(26 47.41) rotate(180)"/><rect class="cls-10" x="10.71" y="22.94" width="1.53" height="1.53" transform="translate(22.94 47.41) rotate(180)"/><rect class="cls-10" x="9.18" y="22.94" width="1.53" height="1.53" transform="translate(19.88 47.41) rotate(180)"/><rect class="cls-10" x="6.12" y="22.94" width="3.06" height="1.53" transform="translate(15.29 47.41) rotate(180)"/><rect class="cls-4" x="9.18" width="1.53" height="1.53" transform="translate(10.71 -9.18) rotate(90)"/><rect class="cls-4" x="10.71" width="1.53" height="1.53" transform="translate(12.24 -10.71) rotate(90)"/><rect class="cls-4" x="12.24" width="1.53" height="1.53" transform="translate(13.76 -12.24) rotate(90)"/><rect class="cls-4" x="13.76" width="1.53" height="1.53" transform="translate(15.29 -13.76) rotate(90)"/><rect class="cls-4" x="15.29" width="1.53" height="1.53" transform="translate(16.82 -15.29) rotate(90)"/><rect class="cls-4" x="9.18" y="1.53" width="1.53" height="1.53" transform="translate(12.24 -7.65) rotate(90)"/><rect class="cls-4" x="7.65" y="1.53" width="1.53" height="1.53" transform="translate(10.71 -6.12) rotate(90)"/><rect class="cls-4" x="6.12" y="1.53" width="1.53" height="1.53" transform="translate(9.18 -4.59) rotate(90)"/><rect class="cls-4" x="6.12" y="3.06" width="1.53" height="1.53" transform="translate(10.71 -3.06) rotate(90)"/><rect class="cls-4" x="4.59" y="3.06" width="1.53" height="1.53" transform="translate(9.18 -1.53) rotate(90)"/><rect class="cls-4" x="4.59" y="4.59" width="1.53" height="1.53" transform="translate(10.71 0) rotate(90)"/><rect class="cls-4" x="3.06" y="4.59" width="1.53" height="1.53" transform="translate(9.18 1.53) rotate(90)"/><rect class="cls-4" x="3.06" y="6.12" width="1.53" height="1.53" transform="translate(10.71 3.06) rotate(90)"/><rect class="cls-4" x="1.53" y="6.12" width="1.53" height="1.53" transform="translate(9.18 4.59) rotate(90)"/><rect class="cls-4" x="1.53" y="7.65" width="1.53" height="1.53" transform="translate(10.71 6.12) rotate(90)"/><rect class="cls-4" x="1.53" y="9.18" width="1.53" height="1.53" transform="translate(12.24 7.65) rotate(90)"/><rect class="cls-4" y="9.18" width="1.53" height="1.53" transform="translate(10.71 9.18) rotate(90)"/><rect class="cls-4" y="10.71" width="1.53" height="1.53" transform="translate(12.24 10.71) rotate(90)"/><rect class="cls-4" y="12.24" width="1.53" height="1.53" transform="translate(13.76 12.24) rotate(90)"/><rect class="cls-4" y="13.76" width="1.53" height="1.53" transform="translate(15.29 13.76) rotate(90)"/><rect class="cls-4" y="15.29" width="1.53" height="1.53" transform="translate(16.82 15.29) rotate(90)"/></g></g></svg>