<svg xmlns="http://www.w3.org/2000/svg" width="25.96" height="38.18" viewBox="0 0 25.96 38.18"><defs><style>.cls-1{fill:#e8363f;}.cls-2{fill:#bc1929;}.cls-3{fill:#4c0315;}.cls-4{fill:#ff4d4e;}.cls-5{fill:#9f1e31;}.cls-6{fill:#f9a0a9;}</style></defs><g id="Layer_2" data-name="Layer 2"><g id="Layer_1-2" data-name="Layer 1"><polygon class="cls-1" points="6.11 16.8 6.11 35.12 4.58 35.12 4.58 33.59 3.05 33.59 3.05 32.07 1.53 32.07 1.53 29.01 0 29.01 0 16.8 6.11 16.8"/><polygon class="cls-2" points="13.74 16.8 13.74 38.18 9.16 38.18 9.16 36.65 6.11 36.65 6.11 16.8 13.74 16.8"/><polygon class="cls-3" points="25.96 16.8 25.96 29.01 24.43 29.01 24.43 32.07 22.91 32.07 22.91 33.59 21.38 33.59 21.38 35.12 19.85 35.12 19.85 36.65 16.8 36.65 16.8 38.18 13.74 38.18 13.74 16.8 25.96 16.8"/><polygon class="cls-4" points="0 16.8 0 9.16 1.53 9.16 1.53 6.11 3.05 6.11 3.05 4.58 4.58 4.58 4.58 3.05 6.11 3.05 6.11 1.53 9.16 1.53 9.16 0 16.8 0 16.8 1.53 19.85 1.53 19.85 3.05 21.38 3.05 21.38 4.58 22.91 4.58 22.91 6.11 24.43 6.11 24.43 9.16 25.96 9.16 25.96 16.8 24.43 16.8 24.43 19.85 22.91 19.85 22.91 21.38 21.38 21.38 21.38 22.91 19.85 22.91 19.85 24.43 16.8 24.43 16.8 25.96 9.16 25.96 9.16 24.43 6.11 24.43 6.11 22.91 4.58 22.91 4.58 21.38 3.05 21.38 3.05 19.85 1.53 19.85 1.53 16.8 0 16.8"/><rect class="cls-5" x="24.43" y="15.27" width="1.53" height="1.53" transform="translate(50.39 32.07) rotate(180)"/><rect class="cls-5" x="24.43" y="13.74" width="1.53" height="1.53" transform="translate(50.39 29.01) rotate(180)"/><rect class="cls-5" x="24.43" y="12.22" width="1.53" height="1.53" transform="translate(50.39 25.96) rotate(180)"/><rect class="cls-5" x="24.43" y="10.69" width="1.53" height="1.53" transform="translate(50.39 22.91) rotate(180)"/><rect class="cls-5" x="24.43" y="9.16" width="1.53" height="1.53" transform="translate(50.39 19.85) rotate(180)"/><rect class="cls-5" x="22.91" y="15.27" width="1.53" height="1.53" transform="translate(47.34 32.07) rotate(180)"/><rect class="cls-5" x="22.91" y="16.8" width="1.53" height="1.53" transform="translate(47.34 35.12) rotate(180)"/><rect class="cls-5" x="22.91" y="18.32" width="1.53" height="1.53" transform="translate(47.34 38.18) rotate(180)"/><rect class="cls-5" x="21.38" y="18.32" width="1.53" height="1.53" transform="translate(44.28 38.18) rotate(180)"/><rect class="cls-5" x="21.38" y="19.85" width="1.53" height="1.53" transform="translate(44.28 41.23) rotate(180)"/><rect class="cls-5" x="19.85" y="19.85" width="1.53" height="1.53" transform="translate(41.23 41.23) rotate(180)"/><rect class="cls-5" x="19.85" y="21.38" width="1.53" height="1.53" transform="translate(41.23 44.28) rotate(180)"/><rect class="cls-5" x="18.32" y="21.38" width="1.53" height="1.53" transform="translate(38.18 44.28) rotate(180)"/><rect class="cls-5" x="18.32" y="22.91" width="1.53" height="1.53" transform="translate(38.18 47.34) rotate(180)"/><rect class="cls-5" x="16.8" y="22.91" width="1.53" height="1.53" transform="translate(35.12 47.34) rotate(180)"/><rect class="cls-5" x="15.27" y="22.91" width="1.53" height="1.53" transform="translate(32.07 47.34) rotate(180)"/><rect class="cls-5" x="15.27" y="24.43" width="1.53" height="1.53" transform="translate(32.07 50.39) rotate(180)"/><rect class="cls-5" x="13.74" y="24.43" width="1.53" height="1.53" transform="translate(29.01 50.39) rotate(180)"/><rect class="cls-5" x="12.22" y="24.43" width="1.53" height="1.53" transform="translate(25.96 50.39) rotate(180)"/><rect class="cls-5" x="10.69" y="24.43" width="1.53" height="1.53" transform="translate(22.91 50.39) rotate(180)"/><rect class="cls-5" x="9.16" y="24.43" width="1.53" height="1.53" transform="translate(19.85 50.39) rotate(180)"/><rect class="cls-6" y="9.16" width="1.53" height="1.53"/><rect class="cls-6" y="10.69" width="1.53" height="1.53"/><rect class="cls-6" y="12.22" width="1.53" height="1.53"/><rect class="cls-6" y="13.74" width="1.53" height="1.53"/><rect class="cls-6" y="15.27" width="1.53" height="1.53"/><rect class="cls-6" x="1.53" y="9.16" width="1.53" height="1.53"/><rect class="cls-6" x="1.53" y="7.64" width="1.53" height="1.53"/><rect class="cls-6" x="1.53" y="6.11" width="1.53" height="1.53"/><rect class="cls-6" x="3.05" y="6.11" width="1.53" height="1.53"/><rect class="cls-6" x="3.05" y="4.58" width="1.53" height="1.53"/><rect class="cls-6" x="4.58" y="4.58" width="1.53" height="1.53"/><rect class="cls-6" x="4.58" y="3.05" width="1.53" height="1.53"/><rect class="cls-6" x="6.11" y="3.05" width="1.53" height="1.53"/><rect class="cls-6" x="6.11" y="1.53" width="1.53" height="1.53"/><rect class="cls-6" x="7.64" y="1.53" width="1.53" height="1.53"/><rect class="cls-6" x="9.16" y="1.53" width="1.53" height="1.53"/><rect class="cls-6" x="9.16" width="1.53" height="1.53"/><rect class="cls-6" x="10.69" width="1.53" height="1.53"/><rect class="cls-6" x="12.22" width="1.53" height="1.53"/><rect class="cls-6" x="13.74" width="1.53" height="1.53"/><rect class="cls-6" x="15.27" width="1.53" height="1.53"/></g></g></svg>