<svg xmlns="http://www.w3.org/2000/svg" width="46.43" height="40.69" viewBox="0 0 46.43 40.69"><defs><style>.cls-1{fill:#235fda;}.cls-2{fill:#6cdffb;}</style></defs><g id="Layer_2" data-name="Layer 2"><g id="Layer_1-2" data-name="Layer 1"><polygon class="cls-1" points="14.57 1.55 14.57 3.1 8.38 3.1 8.38 4.64 5.29 4.64 5.29 6.19 7.74 6.19 7.74 7.74 6.19 7.74 6.19 9.29 4.64 9.29 4.64 12.38 3.1 12.38 3.1 18.57 1.55 18.57 1.55 10.83 3.1 10.83 3.1 7.74 4.64 7.74 4.64 6.19 6.19 6.19 6.19 4.64 7.74 4.64 7.74 3.1 6.83 3.1 6.83 1.55 14.57 1.55"/><polygon class="cls-1" points="13.02 0 13.02 1.55 6.83 1.55 6.83 3.1 7.74 3.1 7.74 4.64 6.19 4.64 6.19 6.19 4.64 6.19 4.64 7.74 3.1 7.74 3.1 10.83 1.55 10.83 1.55 17.02 0 17.02 0 9.29 1.55 9.29 1.55 6.19 3.1 6.19 3.1 4.64 4.64 4.64 4.64 3.1 6.19 3.1 6.19 1.55 5.29 1.55 5.29 0 13.02 0"/><rect class="cls-1" y="24.76" width="26.95" height="1.55"/><rect class="cls-1" x="7.74" y="26.31" width="17.67" height="1.55"/><rect class="cls-1" x="8.38" y="27.86" width="25.67" height="1.55"/><rect class="cls-1" x="4.64" y="23.21" width="29.4" height="1.55"/><rect class="cls-1" x="3.1" y="21.67" width="30.95" height="1.55"/><rect class="cls-1" x="4.64" y="20.12" width="30.95" height="1.55"/><rect class="cls-1" x="3.1" y="18.57" width="34.05" height="1.55"/><rect class="cls-1" x="6.83" y="18.57" width="1.55" height="7.74"/><polygon class="cls-1" points="41.78 17.02 40.24 17.02 40.24 23.21 38.69 23.21 38.69 26.31 37.14 26.31 37.14 27.86 35.59 27.86 35.59 29.4 34.05 29.4 34.05 32.95 26.95 32.95 26.95 34.5 20.76 34.5 20.76 36.05 32.5 36.05 32.5 34.5 35.59 34.5 35.59 32.95 37.14 32.95 37.14 29.4 38.69 29.4 38.69 27.86 40.24 27.86 40.24 24.76 41.78 24.76 41.78 17.02"/><polygon class="cls-1" points="43.33 18.57 41.78 18.57 41.78 24.76 40.24 24.76 40.24 27.86 38.69 27.86 38.69 29.4 37.14 29.4 37.14 32.95 35.59 32.95 35.59 34.5 32.5 34.5 32.5 36.05 26.95 36.05 26.95 37.59 34.05 37.59 34.05 36.05 37.14 36.05 37.14 34.5 38.69 34.5 38.69 32.95 40.24 32.95 40.24 29.4 41.78 29.4 41.78 26.31 43.33 26.31 43.33 18.57"/><rect class="cls-1" x="34.05" y="9.29" width="4.64" height="1.55"/><rect class="cls-1" x="37.14" y="12.38" width="1.55" height="1.55"/><rect class="cls-1" x="35.59" y="13.93" width="1.55" height="1.55"/><rect class="cls-1" x="37.14" y="17.02" width="1.55" height="1.55"/><rect class="cls-1" x="35.59" y="21.67" width="3.1" height="1.55"/><rect class="cls-1" x="34.05" y="24.76" width="1.55" height="1.55"/><rect class="cls-1" x="6.83" y="32.95" width="1.55" height="1.55"/><rect class="cls-1" x="5.29" y="29.4" width="0.9" height="3.55"/><rect class="cls-1" x="14.57" y="32.95" width="1.55" height="1.55"/><rect class="cls-1" x="13.02" y="29.4" width="1.55" height="3.55"/><rect class="cls-1" x="19.21" y="29.4" width="4.64" height="3.55"/><rect class="cls-1" x="23.86" y="32.95" width="1.55" height="1.55"/><rect class="cls-1" x="1.55" y="27.86" width="1.55" height="5.1"/><rect class="cls-1" x="3.1" y="32.95" width="1.55" height="3.1"/><rect class="cls-1" x="4.64" y="34.5" width="1.55" height="1.55"/><rect class="cls-1" x="4.64" y="36.05" width="0.64" height="1.55"/><rect class="cls-1" x="9.93" y="36.05" width="7.74" height="1.55"/><rect class="cls-1" x="19.21" y="39.14" width="3.1" height="1.55"/><rect class="cls-1" x="35.59" y="4.64" width="1.55" height="1.55"/><rect class="cls-1" x="34.05" y="1.55" width="4.64" height="1.55"/><rect class="cls-2" x="6.19" y="23.21" width="1.55" height="1.55"/><rect class="cls-2" x="9.93" y="32.95" width="4.64" height="1.55"/><rect class="cls-2" x="32.5" y="32.95" width="4.64" height="1.55"/><rect class="cls-2" y="20.12" width="3.1" height="1.55"/><rect class="cls-2" x="1.55" y="9.29" width="1.55" height="3.1"/><rect class="cls-2" x="4.64" y="4.64" width="3.1" height="1.55"/><rect class="cls-2" x="35.59" y="23.21" width="1.55" height="1.55"/><rect class="cls-2" x="38.69" y="27.86" width="1.55" height="1.55"/><rect class="cls-2" x="41.78" y="32.95" width="4.64" height="1.55"/></g></g></svg>