<svg xmlns="http://www.w3.org/2000/svg" viewBox="0 0 104.01 292"><defs><style>.cls-1{fill:#33a5ff;}.cls-2{fill:#96a5ab;}.cls-3{fill:#162433;}.cls-19,.cls-20,.cls-22,.cls-23,.cls-29,.cls-4{fill:#2a3747;}.cls-5{fill:#182028;}.cls-6{fill:#586c79;}.cls-7{fill:#293746;}.cls-26,.cls-8{fill:#fff;}.cls-9{fill:#080d11;}.cls-10,.cls-15{fill:#235fda;}.cls-11{fill:#6cdffb;}.cls-12,.cls-19{opacity:0.75;}.cls-13{fill:#0442af;}.cls-14{fill:#9f1e31;}.cls-15,.cls-18{opacity:0.5;}.cls-16{fill:#7e8c91;}.cls-17{fill:#3259e2;}.cls-20{opacity:0.85;}.cls-21{opacity:0.3;}.cls-22{opacity:0.6;}.cls-23{opacity:0.35;}.cls-24{fill:#ff4d4e;}.cls-25{fill:#56142d;}.cls-26{opacity:0.54;}.cls-27{fill:#dde5e8;}.cls-28{fill:#f1f0ee;opacity:0.58;}.cls-29{opacity:0.63;}</style></defs><g id="Layer_2" data-name="Layer 2"><g id="Layer_1-2" data-name="Layer 1"><rect class="cls-1" y="218" width="2" height="2"/></g><g id="Sub"><rect class="cls-2" x="14.01" y="4" width="80" height="284" rx="40"/><polygon points="92.01 34 92.01 262 88.01 262 86.01 24 90.01 24 90.01 34 92.01 34"/><polygon class="cls-3" points="88.01 20 88.01 272 86.01 272 86.01 274 84.01 274 84.01 276 82.01 276 82.01 278 80.01 278 80.01 18 86.01 18 86.01 20 88.01 20"/><rect x="86" y="254" width="2" height="12"/><polygon class="cls-4" points="20.01 262 20.01 260 18.01 260 18.01 258 16.01 258 16.01 256 14.01 256 14.01 34 16.01 34 16.01 28 18.01 28 18.01 24 20.01 24 20.01 20 20.01 262"/><rect class="cls-4" x="22.01" y="102" width="10" height="2"/><rect class="cls-4" x="14.01" y="104" width="10" height="2"/><rect class="cls-5" x="84.01" y="104" width="10" height="2"/><rect class="cls-4" x="76.01" y="102" width="10" height="2"/><rect class="cls-5" x="80.01" y="102" width="6" height="2"/><rect class="cls-4" x="28.01" y="100" width="12" height="2"/><rect class="cls-4" x="68.01" y="100" width="12" height="2"/><rect class="cls-4" x="36.01" y="98" width="36" height="2"/><rect class="cls-6" x="36.01" y="98" width="28" height="2"/><polygon class="cls-4" points="86.01 254 86.01 258 84.01 258 84.01 260 82.01 260 82.01 262 80.01 262 80.01 264 78.01 264 78.01 266 74.01 266 74.01 268 70.01 268 70.01 270 64.01 270 64.01 272 80.01 272 80.01 280 78.01 280 78.01 282 74.01 282 74.01 284 70.01 284 70.01 286 64.01 286 64.01 288 44.01 288 44.01 286 38.01 286 38.01 284 34.01 284 34.01 282 30.01 282 30.01 280 28.01 280 28.01 278 26.01 278 26.01 276 24.01 276 24.01 272 22.01 272 22.01 268 20.01 268 20.01 262 18.01 262 18.01 258 22.01 258 22.01 254 24.01 254 24.01 256 26.01 256 26.01 258 28.01 258 28.01 260 30.01 260 30.01 262 32.01 262 32.01 264 36.01 264 36.01 266 40.01 266 40.01 268 46.01 268 46.01 270 62.01 270 62.01 268 68.01 268 68.01 266 72.01 266 72.01 264 76.01 264 76.01 262 78.01 262 78.01 260 80.01 260 80.01 258 82.01 258 82.01 256 84.01 256 84.01 254 86.01 254"/><rect class="cls-5" x="92.01" y="34" width="2" height="224"/><rect class="cls-7" x="14.01" y="34" width="2" height="224"/><rect class="cls-5" x="90.01" y="256" width="2" height="8"/><rect x="88.01" y="262" width="2" height="6"/><rect x="86.01" y="266" width="2" height="6"/><rect x="84.01" y="270" width="2" height="4"/><rect x="76.01" y="278" width="2" height="2"/><rect class="cls-7" x="16.01" y="256" width="2" height="8" transform="translate(34.02 520) rotate(-180)"/><rect class="cls-7" x="18.01" y="262" width="2" height="6" transform="translate(38.02 530) rotate(-180)"/><rect class="cls-7" x="20.01" y="266" width="2" height="6" transform="translate(42.02 538) rotate(-180)"/><rect class="cls-7" x="22.01" y="270" width="2" height="4" transform="translate(46.02 544) rotate(-180)"/><rect class="cls-7" x="16.01" y="28" width="2" height="8"/><rect class="cls-7" x="18.01" y="24" width="2" height="6"/><rect class="cls-7" x="20.01" y="20" width="2" height="6"/><rect class="cls-7" x="22.01" y="18" width="2" height="4" transform="translate(46.02 40) rotate(180)"/><rect class="cls-7" x="24.01" y="16" width="2" height="4" transform="translate(50.02 36) rotate(180)"/><rect class="cls-7" x="26.01" y="14" width="2" height="4" transform="translate(54.02 32) rotate(180)"/><rect class="cls-7" x="28.01" y="12" width="2" height="4" transform="translate(58.02 28) rotate(180)"/><rect class="cls-7" x="30.01" y="12" width="2" height="2" transform="translate(62.02 26) rotate(180)"/><rect class="cls-7" x="44.01" y="4" width="20" height="2" transform="translate(108.02 10) rotate(180)"/><rect class="cls-7" x="38.01" y="6" width="8" height="2" transform="translate(84.02 14) rotate(180)"/><rect class="cls-7" x="34.01" y="8" width="6" height="2" transform="translate(74.02 18) rotate(180)"/><rect class="cls-7" x="30.01" y="10" width="6" height="2" transform="translate(66.02 22) rotate(180)"/><rect class="cls-5" x="90.01" y="28" width="2" height="8"/><rect class="cls-5" x="88.01" y="24" width="2" height="6"/><rect class="cls-5" x="86.01" y="20" width="2" height="6"/><rect class="cls-5" x="84.01" y="18" width="2" height="4"/><rect class="cls-5" x="82.01" y="16" width="2" height="4"/><rect class="cls-5" x="80.01" y="14" width="2" height="4"/><rect class="cls-5" x="78.01" y="12" width="2" height="4"/><rect class="cls-5" x="76.01" y="12" width="2" height="2"/><rect class="cls-7" x="62.01" y="6" width="8" height="2"/><rect class="cls-7" x="68.01" y="8" width="6" height="2"/><rect class="cls-5" x="72.01" y="10" width="6" height="2"/><rect class="cls-6" x="76.01" y="258" width="2" height="2"/><rect class="cls-6" x="74.01" y="252" width="2" height="2"/><rect class="cls-6" x="76.01" y="254" width="2" height="2"/><rect class="cls-6" x="74.01" y="256" width="2" height="2"/><rect class="cls-6" x="74.01" y="260" width="2" height="2"/><rect class="cls-6" x="72.01" y="262" width="2" height="2"/><rect class="cls-6" x="70.01" y="258" width="2" height="2"/><rect class="cls-6" x="22.01" y="248" width="2" height="6"/><rect class="cls-6" x="78.01" y="250" width="2" height="2"/><rect class="cls-6" x="78.01" y="254" width="2" height="2"/><rect class="cls-6" x="78.01" y="246" width="2" height="2"/><rect class="cls-4" x="84.01" y="244" width="2" height="8"/><rect class="cls-5" x="90.01" y="250" width="2" height="2"/><rect class="cls-5" x="88.01" y="248" width="2" height="2"/><rect class="cls-5" x="88.01" y="246" width="2" height="2"/><rect class="cls-5" x="88.01" y="254" width="2" height="2"/><rect class="cls-5" x="90.01" y="246" width="2" height="2"/><rect class="cls-5" x="90.01" y="238" width="2" height="2"/><rect class="cls-4" x="86.01" y="208" width="2" height="2"/><rect class="cls-5" x="88.01" y="258" width="2" height="2"/><rect class="cls-4" x="86.01" y="254" width="2" height="2"/><rect class="cls-4" x="84.01" y="256" width="2" height="2"/><rect class="cls-4" x="82.01" y="258" width="2" height="2"/><rect class="cls-4" x="84.01" y="260" width="2" height="2"/><rect x="78" y="264" width="2" height="6"/><rect x="60" y="278" width="2" height="2"/><rect x="42" y="284" width="2" height="2"/><rect x="44" y="286" width="2" height="2"/><rect x="44" y="282" width="2" height="2"/><rect x="62" y="280" width="2" height="2"/><rect x="62" y="276" width="2" height="2"/><rect x="62" y="272" width="2" height="2"/><rect x="84" y="242" width="2" height="14"/><rect x="84" y="258" width="2" height="10"/><rect x="82" y="264" width="2" height="10"/><rect x="86" y="236" width="2" height="8"/><rect x="86" y="248" width="2" height="8"/><rect class="cls-4" x="82.01" y="262" width="2" height="2"/><rect class="cls-4" x="80.01" y="264" width="2" height="2"/><rect class="cls-4" x="76.01" y="266" width="2" height="2"/><rect x="70.01" y="278" width="2" height="2"/><rect class="cls-4" x="62.01" y="280" width="2" height="2"/><rect class="cls-4" x="64.01" y="278" width="2" height="2"/><polygon points="86 268 86 274 84.01 274 84.01 276 82.01 276 82.01 278 80.01 278 80.01 280 78.01 280 78.01 282 74.01 282 74.01 284 70.01 284 70.01 286 64.01 286 64.01 288 44.01 288 44.01 286 38.01 286 38.01 284 34.01 284 34.01 282 30.01 282 30.01 280 28.01 280 28.01 278 26.01 278 26.01 276 24.01 276 24.01 272 26.01 272 26.01 274 28.01 274 28.01 276 30.01 276 30.01 278 32.01 278 32.01 280 36.01 280 36.01 282 40.01 282 40.01 284 46 284 46 282 64 282 64 274 64.01 274 64.01 268 86 268"/><rect class="cls-6" x="78.01" y="258" width="2" height="2"/><rect class="cls-6" x="66.01" y="264" width="2" height="2"/><rect class="cls-6" x="68.01" y="262" width="2" height="2"/><rect class="cls-6" x="64.01" y="266" width="2" height="2"/><rect class="cls-6" x="60.01" y="266" width="2" height="2"/><rect class="cls-6" x="56.01" y="268" width="2" height="2"/><rect class="cls-6" x="58.01" y="268" width="2" height="2"/><rect class="cls-6" x="52.01" y="268" width="2" height="2"/><rect class="cls-6" x="54.01" y="266" width="2" height="2"/><rect class="cls-6" x="54.01" y="264" width="2" height="2"/><rect class="cls-6" x="62.01" y="262" width="2" height="2"/><rect class="cls-6" x="56.01" y="264" width="2" height="2"/><rect class="cls-6" x="48.01" y="266" width="2" height="2"/><rect class="cls-6" x="46.01" y="268" width="2" height="2"/><rect class="cls-6" x="44.01" y="268" width="2" height="2"/><rect class="cls-6" x="44.01" y="264" width="2" height="2"/><rect class="cls-6" x="40.01" y="264" width="2" height="2"/><rect class="cls-6" x="42.01" y="266" width="2" height="2"/><rect class="cls-6" x="36.01" y="262" width="2" height="2"/><rect class="cls-6" x="32.01" y="260" width="2" height="2"/><rect class="cls-6" x="36.01" y="258" width="2" height="2"/><rect class="cls-6" x="30.01" y="258" width="2" height="2"/><rect class="cls-6" x="28.01" y="256" width="2" height="2"/><rect class="cls-6" x="26.01" y="254" width="2" height="2"/><rect class="cls-6" x="24.01" y="252" width="2" height="2"/><rect class="cls-6" x="22.01" y="244" width="2" height="2"/><rect class="cls-6" x="24.01" y="242" width="2" height="2"/><rect class="cls-6" x="24.01" y="246" width="2" height="2"/><rect class="cls-6" x="26.01" y="248" width="2" height="2"/><rect class="cls-6" x="32.01" y="254" width="2" height="2"/><rect class="cls-6" x="70.01" y="264" width="2" height="2"/><rect class="cls-4" x="82.01" y="128" width="2" height="12"/><rect class="cls-4" x="84.01" y="158" width="2" height="38"/><rect class="cls-4" x="84.01" y="182" width="2" height="26"/><rect class="cls-4" x="82.01" y="88" width="2" height="28"/><rect class="cls-4" x="82.01" y="118" width="2" height="6"/><rect class="cls-6" x="50.01" y="132" width="24" height="2"/><rect class="cls-6" x="64.01" y="130" width="14" height="2"/><rect class="cls-4" x="66.01" y="128" width="14" height="2"/><rect class="cls-4" x="66.01" y="84" width="14" height="44"/><rect class="cls-6" x="54.01" y="134" width="14" height="2"/><polygon class="cls-5" points="78.01 78 78.01 120 76.01 120 76.01 124 74.01 124 74.01 126 72.01 126 72.01 128 70.01 128 70.01 130 66.01 130 66.01 132 44.01 132 44.01 130 40.01 130 40.01 128 38.01 128 38.01 126 36.01 126 36.01 124 34.01 124 34.01 120 32.01 120 32.01 94 34.01 94 34.01 90 36.01 90 36.01 88 38.01 88 38.01 86 40.01 86 40.01 84 44.01 84 44.01 82 48.01 82 48.01 78 78.01 78"/><polygon class="cls-5" points="76.01 92 76.01 118 74.01 118 74.01 122 72.01 122 72.01 124 70.01 124 70.01 126 68.01 126 68.01 128 64.01 128 64.01 130 42.01 130 42.01 128 38.01 128 38.01 126 36.01 126 36.01 124 34.01 124 34.01 122 32.01 122 32.01 118 30.01 118 30.01 92 32.01 92 32.01 88 34.01 88 34.01 86 36.01 86 36.01 84 38.01 84 38.01 82 42.01 82 42.01 80 64.01 80 64.01 82 68.01 82 68.01 84 70.01 84 70.01 86 72.01 86 72.01 88 74.01 88 74.01 92 76.01 92"/><polygon class="cls-6" points="76.01 90 76.01 116 74.01 116 74.01 120 72.01 120 72.01 122 70.01 122 70.01 124 68.01 124 68.01 126 64.01 126 64.01 128 42.01 128 42.01 126 38.01 126 38.01 124 36.01 124 36.01 122 34.01 122 34.01 120 32.01 120 32.01 116 30.01 116 30.01 90 32.01 90 32.01 86 34.01 86 34.01 84 36.01 84 36.01 82 38.01 82 38.01 80 42.01 80 42.01 78 64.01 78 64.01 80 68.01 80 68.01 82 70.01 82 70.01 84 72.01 84 72.01 86 74.01 86 74.01 90 76.01 90"/><polygon class="cls-2" points="76.01 78 76.01 104 74.01 104 74.01 108 72.01 108 72.01 110 70.01 110 70.01 112 68.01 112 68.01 114 64.01 114 64.01 116 42.01 116 42.01 114 38.01 114 38.01 112 36.01 112 36.01 110 34.01 110 34.01 108 32.01 108 32.01 104 30.01 104 30.01 78 32.01 78 32.01 74 34.01 74 34.01 72 36.01 72 36.01 70 38.01 70 38.01 68 42.01 68 42.01 66 64.01 66 64.01 68 68.01 68 68.01 70 70.01 70 70.01 72 72.01 72 72.01 74 74.01 74 74.01 78 76.01 78"/><rect class="cls-6" x="56.01" y="108" width="14" height="2"/><rect class="cls-6" x="60.01" y="106" width="14" height="2"/><rect class="cls-4" x="62.01" y="104" width="14" height="2"/><polygon class="cls-5" points="70.01 92 70.01 102 68.01 102 68.01 104 64.01 104 64.01 94 68.01 94 68.01 92 70.01 92"/><rect class="cls-8" x="42.01" y="66" width="2" height="2" transform="translate(110.01 23.99) rotate(90)"/><rect class="cls-8" x="44.01" y="66" width="2" height="2" transform="translate(112.01 21.99) rotate(90)"/><rect class="cls-8" x="46.01" y="66" width="2" height="2" transform="translate(114.01 19.99) rotate(90)"/><rect class="cls-8" x="48.01" y="66" width="2" height="2" transform="translate(116.01 17.99) rotate(90)"/><rect class="cls-8" x="50.01" y="66" width="2" height="2" transform="translate(118.01 15.99) rotate(90)"/><rect class="cls-8" x="42.01" y="68" width="2" height="2" transform="translate(112.01 25.99) rotate(90)"/><rect class="cls-8" x="40.01" y="68" width="2" height="2" transform="translate(110.01 27.99) rotate(90)"/><rect class="cls-6" x="38.01" y="68" width="2" height="2" transform="translate(108.01 29.99) rotate(90)"/><rect class="cls-8" x="38.01" y="70" width="2" height="2" transform="translate(110.01 31.99) rotate(90)"/><rect class="cls-6" x="36.01" y="70" width="2" height="2" transform="translate(108.01 33.99) rotate(90)"/><rect class="cls-8" x="36.01" y="72" width="2" height="2" transform="translate(110.01 35.99) rotate(90)"/><rect class="cls-6" x="34.01" y="72" width="2" height="2" transform="translate(108.01 37.99) rotate(90)"/><rect class="cls-6" x="34.01" y="74" width="2" height="2" transform="translate(110.01 39.99) rotate(90)"/><rect class="cls-6" x="32.01" y="74" width="2" height="2" transform="translate(108.01 41.99) rotate(90)"/><rect class="cls-8" x="32.01" y="76" width="2" height="2" transform="translate(110.01 43.99) rotate(90)"/><rect class="cls-6" x="32.01" y="78" width="2" height="2" transform="translate(112.01 45.99) rotate(90)"/><rect class="cls-6" x="30.01" y="78" width="2" height="2" transform="translate(110.01 47.99) rotate(90)"/><rect class="cls-8" x="30.01" y="80" width="2" height="2" transform="translate(112.01 49.99) rotate(90)"/><rect class="cls-8" x="30.01" y="82" width="2" height="2" transform="translate(114.01 51.99) rotate(90)"/><rect class="cls-6" x="30.01" y="84" width="2" height="2" transform="translate(116.01 53.99) rotate(90)"/><rect class="cls-6" x="30.01" y="86" width="2" height="2" transform="translate(118.01 55.99) rotate(90)"/><polygon class="cls-4" points="68.01 114 68.01 126 64.01 126 64.01 128 50.01 128 50.01 116 64.01 116 64.01 114 68.01 114"/><rect class="cls-6" x="30.01" y="90" width="2" height="10"/><rect class="cls-6" x="66.01" y="70" width="4" height="2"/><rect class="cls-6" x="68.01" y="72" width="4" height="2"/><rect class="cls-6" x="70.01" y="74" width="4" height="2"/><rect class="cls-5" x="72.01" y="74" width="2" height="12"/><rect class="cls-5" x="72.01" y="74" width="2" height="2"/><rect class="cls-5" x="72.01" y="118" width="2" height="2"/><rect class="cls-5" x="32.01" y="118" width="2" height="2"/><rect class="cls-5" x="42.01" y="126" width="2" height="2"/><rect class="cls-5" x="62.01" y="126" width="2" height="2"/><polygon class="cls-5" points="76.01 104 76.01 116 74.01 116 74.01 120 72.01 120 72.01 122 70.01 122 70.01 124 68.01 124 68.01 112 70.01 112 70.01 110 72.01 110 72.01 108 74.01 108 74.01 104 76.01 104"/><rect class="cls-5" x="66.01" y="114" width="2" height="12"/><rect class="cls-8" x="42.01" y="104" width="2" height="2"/><polygon class="cls-6" points="50.01 98 50.01 108 48.01 108 48.01 106 42.01 106 42.01 102 38.01 102 38.01 90 42.01 90 42.01 96 48.01 96 48.01 98 50.01 98"/><rect class="cls-4" x="50.01" y="96" width="14" height="12"/><rect class="cls-4" x="46.01" y="108" width="16" height="2"/><rect class="cls-5" x="50.01" y="108" width="12" height="2"/><rect class="cls-4" x="42.01" y="106" width="6" height="2"/><rect class="cls-4" x="40.01" y="102" width="2" height="4"/><rect class="cls-4" x="38.01" y="100" width="2" height="4"/><rect class="cls-6" x="36.01" y="90" width="2" height="12"/><rect class="cls-5" x="60.01" y="106" width="6" height="2" transform="translate(126.02 214) rotate(-180)"/><rect class="cls-5" x="66.01" y="102" width="2" height="4" transform="translate(134.02 208) rotate(-180)"/><rect class="cls-5" x="68.01" y="100" width="2" height="4" transform="translate(138.02 204) rotate(-180)"/><rect class="cls-5" x="70.01" y="90" width="2" height="12" transform="translate(142.02 192) rotate(-180)"/><rect class="cls-8" x="46.01" y="64" width="16" height="2" transform="translate(108.02 130) rotate(180)"/><rect class="cls-6" x="54.01" y="64" width="8" height="2" transform="translate(116.02 130) rotate(180)"/><rect class="cls-6" x="60.01" y="66" width="6" height="2" transform="translate(126.02 134) rotate(180)"/><rect class="cls-6" x="66.01" y="68" width="2" height="4" transform="translate(134.02 140) rotate(180)"/><rect class="cls-6" x="68.01" y="70" width="2" height="4" transform="translate(138.02 144) rotate(180)"/><rect class="cls-4" x="70.01" y="72" width="2" height="12" transform="translate(142.02 156) rotate(180)"/><rect class="cls-8" x="42.01" y="66" width="6" height="2"/><rect class="cls-8" x="40.01" y="68" width="2" height="4"/><rect class="cls-8" x="38.01" y="70" width="2" height="4"/><rect class="cls-8" x="36.01" y="72" width="2" height="12"/><rect class="cls-6" x="36.01" y="74" width="2" height="2"/><rect class="cls-4" x="46.01" y="96" width="16" height="2"/><rect class="cls-4" x="42.01" y="94" width="6" height="2"/><rect class="cls-4" x="40.01" y="90" width="2" height="4"/><rect class="cls-4" x="38.01" y="88" width="2" height="4"/><rect class="cls-4" x="36.01" y="78" width="2" height="12"/><rect class="cls-4" x="60.01" y="94" width="6" height="2" transform="translate(126.02 190) rotate(-180)"/><rect class="cls-4" x="66.01" y="90" width="2" height="4" transform="translate(134.02 184) rotate(-180)"/><rect class="cls-4" x="68.01" y="88" width="2" height="4" transform="translate(138.02 180) rotate(-180)"/><rect class="cls-4" x="70.01" y="78" width="2" height="12" transform="translate(142.02 168) rotate(-180)"/><rect class="cls-5" x="64.01" y="104" width="2" height="2" transform="translate(130.02 210) rotate(-180)"/><rect class="cls-4" x="36.01" y="98" width="2" height="4"/><rect class="cls-6" x="74.01" y="82" width="2" height="16"/><rect class="cls-4" x="62.01" y="64" width="2" height="2"/><rect class="cls-4" x="66.01" y="66" width="2" height="2"/><rect class="cls-5" x="68.01" y="68" width="2" height="2"/><rect class="cls-5" x="70.01" y="70" width="2" height="2"/><rect class="cls-5" x="72.01" y="72" width="2" height="2"/><rect class="cls-5" x="74.01" y="76" width="2" height="6"/><rect class="cls-4" x="38.01" y="88" width="2" height="2"/><rect class="cls-4" x="68.01" y="88" width="2" height="2"/><rect class="cls-4" x="64.01" y="92" width="2" height="2"/><rect class="cls-4" x="42.01" y="92" width="2" height="2"/><rect class="cls-8" x="42.01" y="68" width="2" height="2"/><rect class="cls-6" x="64.01" y="68" width="2" height="2"/><rect class="cls-8" x="38.01" y="72" width="2" height="2"/><rect class="cls-6" x="68.01" y="72" width="2" height="2"/><rect class="cls-6" x="50.01" y="110" width="14" height="2"/><rect class="cls-4" x="76.01" y="130" width="2" height="2"/><rect class="cls-4" x="72.01" y="130" width="2" height="2"/><rect class="cls-4" x="68.01" y="130" width="2" height="2"/><rect class="cls-4" x="66.01" y="130" width="2" height="2"/><rect class="cls-6" x="78.01" y="132" width="2" height="2"/><rect class="cls-4" x="52" y="88" width="2" height="2"/><rect class="cls-6" x="54" y="86" width="2" height="2"/><rect class="cls-4" x="54" y="88" width="2" height="2"/><rect class="cls-6" x="56.01" y="90" width="2" height="2"/><rect class="cls-6" x="48" y="94" width="2" height="2"/><rect class="cls-6" x="46" y="92" width="2" height="2"/><rect class="cls-6" x="50" y="92" width="2" height="2"/><rect class="cls-6" x="48" y="88" width="2" height="2"/><rect class="cls-4" x="42.01" y="78" width="2" height="2"/><rect class="cls-6" x="44.01" y="76" width="2" height="2"/><rect class="cls-4" x="44.01" y="78" width="2" height="2"/><rect class="cls-6" x="46.01" y="80" width="2" height="2"/><rect class="cls-6" x="60" y="90" width="2" height="2"/><rect class="cls-6" x="62" y="92" width="2" height="2"/><rect class="cls-6" x="64" y="88" width="2" height="4"/><rect class="cls-6" x="58" y="92" width="2" height="2"/><rect class="cls-6" x="52" y="94" width="6" height="2"/><polygon class="cls-6" points="66.01 76 66.01 80 65.01 80 65.01 81 64.01 81 64.01 82 60.01 82 60.01 81 59.01 81 59.01 80 58.01 80 58.01 76 59.01 76 59.01 75 60.01 75 60.01 74 64.01 74 64.01 75 65.01 75 65.01 76 66.01 76"/><rect class="cls-4" x="60.01" y="81" width="4" height="1"/><rect class="cls-4" x="63.01" y="80" width="2" height="1"/><rect class="cls-4" x="65.01" y="79" width="1" height="1"/><rect class="cls-6" x="22.01" y="194" width="10" height="2"/><rect class="cls-4" x="22.01" y="194" width="4" height="2"/><rect class="cls-4" x="14.01" y="196" width="10" height="2"/><rect class="cls-5" x="84.01" y="196" width="10" height="2"/><rect class="cls-4" x="76.01" y="194" width="10" height="2"/><rect class="cls-5" x="80.01" y="194" width="6" height="2"/><rect class="cls-6" x="28.01" y="192" width="12" height="2"/><rect class="cls-4" x="68.01" y="192" width="12" height="2"/><rect class="cls-4" x="36.01" y="190" width="36" height="2"/><rect class="cls-6" x="36.01" y="190" width="28" height="2"/><rect class="cls-4" x="20.01" y="212" width="4" height="50"/><rect class="cls-9" x="21.01" y="212" width="1" height="28"/><rect class="cls-6" x="22.01" y="210" width="2" height="32"/><rect class="cls-8" x="23.01" y="210" width="1" height="8"/><rect class="cls-8" x="23.01" y="220" width="1" height="6"/><rect class="cls-8" x="23.01" y="228" width="1" height="2"/><rect class="cls-9" x="20.01" y="210" width="2" height="2"/><rect class="cls-9" x="84.01" y="212" width="4" height="28" transform="translate(172.02 452) rotate(-180)"/><rect class="cls-9" x="86.01" y="212" width="1" height="28" transform="translate(173.02 452) rotate(-180)"/><rect class="cls-4" x="84.01" y="210" width="2" height="32" transform="translate(170.02 452) rotate(-180)"/><rect class="cls-2" x="84.01" y="210" width="1" height="8" transform="translate(169.02 428) rotate(-180)"/><rect class="cls-2" x="84.01" y="220" width="1" height="6" transform="translate(169.02 446) rotate(-180)"/><rect class="cls-2" x="84.01" y="228" width="1" height="2" transform="translate(169.02 458) rotate(-180)"/><rect class="cls-9" x="86.01" y="210" width="2" height="2" transform="translate(174.02 422) rotate(-180)"/><rect class="cls-10" x="8.01" y="258" width="8" height="4"/><rect class="cls-10" x="8.01" y="248" width="6" height="4"/><rect class="cls-10" x="10.01" y="242" width="4" height="14"/><rect class="cls-10" x="6.01" y="264" width="12" height="4"/><rect class="cls-10" x="32.01" y="288" width="58" height="4"/><rect class="cls-10" x="64.01" y="286" width="22" height="4"/><rect class="cls-10" x="70.01" y="284" width="22" height="2"/><rect class="cls-10" x="74.01" y="282" width="22" height="2"/><rect class="cls-10" x="78.01" y="280" width="14" height="2"/><rect class="cls-10" x="80.01" y="278" width="20" height="2"/><rect class="cls-10" x="94.01" y="256" width="8" height="2"/><rect class="cls-10" x="94.01" y="266" width="8" height="2"/><rect class="cls-10" x="94.01" y="268" width="6" height="2"/><rect class="cls-10" x="94.01" y="252" width="10" height="4"/><rect class="cls-10" x="16.01" y="278" width="12" height="2"/><rect class="cls-10" x="18.01" y="280" width="12" height="2"/><rect class="cls-10" x="22.01" y="282" width="12" height="2"/><rect class="cls-10" x="26.01" y="284" width="12" height="2"/><rect class="cls-10" x="16.01" y="286" width="28" height="2"/><rect class="cls-10" x="12.01" y="272" width="10" height="2"/><rect class="cls-10" x="10.01" y="270" width="10" height="2"/><rect class="cls-10" x="14.01" y="274" width="10" height="2"/><rect class="cls-10" x="12.01" y="276" width="14" height="2"/><rect class="cls-10" x="10.01" y="276" width="14" height="2"/><rect class="cls-10" x="12.01" y="268" width="8" height="2"/><rect class="cls-10" x="6.01" y="252" width="8" height="2"/><rect class="cls-10" x="6.01" y="244" width="8" height="2"/><rect class="cls-10" x="6.01" y="236" width="8" height="2"/><rect class="cls-10" x="94.01" y="236" width="8" height="2"/><rect class="cls-10" x="94.01" y="250" width="6" height="2"/><rect class="cls-10" x="94.01" y="248" width="8" height="2"/><rect class="cls-10" x="94.01" y="242" width="4" height="2"/><rect class="cls-10" x="94.01" y="240" width="8" height="2"/><rect class="cls-10" x="90.01" y="264" width="8" height="4"/><rect class="cls-10" x="88.01" y="268" width="10" height="4"/><rect class="cls-10" x="88.01" y="270" width="8" height="4"/><rect class="cls-10" x="86.01" y="272" width="16" height="2"/><rect class="cls-10" x="84.01" y="274" width="12" height="2"/><rect class="cls-10" x="82.01" y="276" width="16" height="2"/><rect class="cls-10" x="6.01" y="240" width="8" height="2"/><rect class="cls-10" x="10.01" y="262" width="6" height="2"/><rect class="cls-10" x="6.01" y="258" width="2" height="2"/><rect class="cls-10" x="12.01" y="256" width="2" height="2"/><rect class="cls-11" x="6.01" y="256" width="4" height="2"/><rect class="cls-11" x="6.01" y="246" width="4" height="2"/><rect class="cls-11" x="8.01" y="240" width="4" height="2"/><rect class="cls-11" x="8.01" y="268" width="4" height="2"/><rect class="cls-11" x="16.01" y="274" width="4" height="2"/><rect class="cls-11" x="98.01" y="268" width="4" height="2"/><rect class="cls-11" x="88.01" y="278" width="4" height="2"/><rect class="cls-11" x="12.01" y="278" width="4" height="2"/><rect class="cls-11" x="24.01" y="284" width="4" height="2"/><rect class="cls-11" x="16.01" y="284" width="4" height="2"/><rect class="cls-11" x="80.01" y="284" width="12" height="2"/><rect class="cls-11" x="12.01" y="288" width="10" height="2"/><rect class="cls-8" x="12.01" y="260" width="2" height="2"/><rect class="cls-11" x="14.01" y="264" width="2" height="2"/><rect class="cls-8" x="14.01" y="274" width="2" height="2"/><rect class="cls-10" x="10.01" y="274" width="2" height="2"/><rect class="cls-8" x="10.01" y="278" width="2" height="2"/><rect class="cls-8" x="38.01" y="288" width="2" height="2"/><rect class="cls-8" x="70.01" y="288" width="2" height="2"/><rect class="cls-8" x="78.01" y="286" width="2" height="2"/><rect class="cls-8" x="92.01" y="276" width="2" height="2"/><rect class="cls-8" x="98.01" y="248" width="2" height="2"/><rect class="cls-8" x="8.01" y="250" width="4" height="2"/><rect class="cls-10" x="94.01" y="244" width="4" height="24"/><rect class="cls-10" x="92.01" y="258" width="6" height="6"/><rect class="cls-11" x="96.01" y="256" width="6" height="2"/><rect class="cls-11" x="98.01" y="252" width="2" height="2"/><g class="cls-12"><rect class="cls-10" x="102" y="10" width="2" height="2"/><path class="cls-10" d="M102,10V8h2V6h-4V4H96V2H92V0H78V2H70V0H50V2H44V0H42V2H40V0H36V2H34V0H26V2H24V0H16V2h4V4H11V6h3V8H12v2h2v2H10v2H8v6h2v2h4v2H10v2H8v2h3v2H10v2h4v2H8v2h6v2H8v2h6v2H10v2h4v2H12v2H10v2h2v4H10v2h2v2h2v2H10v2H8v2h4v2h2v2H12v2h2v2H10v2h4v2H12v2h2v2H10v2H8v2h3v2H10v2h4v2H8v2h6v2H8v2h6v2H10v2h4v2H12v2H10v2h2v4H10v2h2v2h2v2H10v2H8v2h4v2H10v2h2v2h2v2H10v2h4v2H12v2h2v2H10v2H8v2h3v2H10v2h4v2H8v2h6v2H8v2h6v2H10v2h4v2H12v2H10v2h2v4H10v2h2v2h2v2H10v2H8v2h4v2h2v.52H6.78v13H10V192H8v2h3v2H10v.52H9.78V200H8v2H9.78v2H8v2H9.78v3.52H10V210h4v2H12v2H10v2h2v4H10v2h2v2h2v2H10v2H8v2h4v2h2v2H10v2H6v2h8v2H6v2h4v2H6v4H8v4H6v2h4v2H6v4H8v2h2v2H6v4H8v2h2v2h2v2H10v6h8v2h4v2h2v2H20v-2H16v4H12v2H22v-2H32v4H90v-4H86v-2h6v-2h4v-2H92v-2h8v-2H98v-2H96v-2h6v-2H98v-2h4v-4H98v-8h4v-2h2v-4h-4v-2h2v-2H98v-6h4v-2H94v-2h8v-2H98v-2H96v-2h5v-2H98v-2h2v-2H98v-2h4v-2h2v-6h-2v-2H96v-2h6v-2h2v-2h-3v-2h1v-2H98v-2h6v-2H98v-2h6v-2H94v-2h8v-2H96v-2H94v-2h2v-2h4v-4h2v-2h-2v-2H98v-2h4v-2h2v-2h-4v-2H96v-2h4v-2H98v-2h4v-2H98v-2h2v-2H96v-2h6v-2h2v-2h-3v-2h1v-2H98v-2h6v-2H94v-2h10v-2H94v-2h8v-2H96v-2H94v-2h2v-2h4v-4h2v-2h-2v-2H98v-2h4v-2h2v-2h-4v-2h2v-2h-2v-2H98v-2h4v-2H98v-2h2v-2H98v-2h4V98h2V96h-3V94h1V92H98V90h6V88H98V86h6V84H98V82h4V80H96V78H94V76h2V74h4V70h2V68h-2V66H98V64h4V62h2V60h-4V58H96V56h4V54H98V52h4V50H98V48h2V46h2V44h2V42h-3V40h1V38H98V36h6V34H94V32h10V30H94V28h8V26H96V24H94V22h2V20h4V16h2V14h-2V12H98V10ZM70,90H66v4H60v2H48V94H42V90H38V72h4V68h6V66H60v2h6v4h4Z"/><rect class="cls-10" x="102" y="46" width="2" height="2"/><rect class="cls-10" x="100" y="186" width="2" height="2"/><rect class="cls-10" x="100" y="130" width="2" height="2"/><rect class="cls-10" x="100" y="74" width="2" height="2"/><rect class="cls-10" x="100" y="20" width="2" height="2"/><rect class="cls-10" x="96" width="6" height="2"/><rect class="cls-10" x="98" y="188" width="2" height="2"/><rect class="cls-10" x="98" y="132" width="2" height="2"/><rect class="cls-10" x="98" y="76" width="2" height="2"/><rect class="cls-10" x="98" y="22" width="2" height="2"/><rect class="cls-10" x="8" y="114" width="2" height="2"/><rect class="cls-10" x="8" y="170" width="2" height="2"/><rect class="cls-10" x="8" y="126" width="2" height="2"/><rect class="cls-10" x="8" y="132" width="2" height="2"/><rect class="cls-10" x="8" y="58" width="2" height="2"/><rect class="cls-10" x="8" y="70" width="2" height="2"/><rect class="cls-10" x="8" y="224" width="2" height="2"/><rect class="cls-10" x="8" y="76" width="2" height="2"/><rect class="cls-10" x="102" y="158" width="2" height="2"/><rect class="cls-10" x="102" y="52" width="2" height="2"/><rect class="cls-10" x="102" y="64" width="2" height="2"/><rect class="cls-10" x="102" y="176" width="2" height="2"/><rect class="cls-10" x="102" y="120" width="2" height="2"/><rect class="cls-10" x="102" y="164" width="2" height="2"/><rect class="cls-10" x="102" y="108" width="2" height="2"/><rect class="cls-10" x="102" y="102" width="2" height="2"/></g><rect class="cls-6" x="52" y="81" width="2" height="8"/><rect class="cls-5" x="53" y="82.02" width="1" height="6.98"/><rect class="cls-8" x="74" y="78" width="6" height="2"/><rect class="cls-13" x="20" y="132" width="20" height="2"/><rect class="cls-8" x="20" y="126" width="4" height="2"/><rect class="cls-8" x="24" y="178" width="4" height="2"/><rect class="cls-10" x="32" y="178" width="6" height="2"/><rect class="cls-11" x="30" y="178" width="6" height="2"/><rect class="cls-1" x="62.78" y="138.52" width="15" height="3"/><rect class="cls-1" x="66" y="204" width="12" height="2.03"/><rect class="cls-8" x="28" y="232" width="4" height="2.03"/><rect class="cls-1" x="40" y="198" width="12" height="2.03"/><rect class="cls-1" x="32" y="152.03" width="26" height="1.97"/><rect class="cls-1" x="72" y="64" width="10" height="2"/><rect class="cls-1" x="46" y="30" width="26" height="2"/><rect class="cls-1" x="24" y="52" width="14" height="2"/><rect class="cls-10" x="42" y="46" width="28" height="2"/><rect class="cls-10" x="70" y="30" width="6" height="2"/><rect class="cls-10" x="74" y="34" width="2" height="2"/><rect class="cls-10" x="72" y="36" width="2" height="2"/><rect class="cls-10" x="74" y="40" width="2" height="2"/><rect class="cls-10" x="72" y="46" width="4" height="2"/><rect class="cls-10" x="70" y="50" width="2" height="2"/><rect class="cls-10" x="38" y="58" width="2" height="2"/><rect class="cls-10" x="32" y="56" width="4" height="2"/><rect class="cls-10" x="52" y="58" width="2" height="2"/><rect class="cls-10" x="50" y="56" width="2" height="2"/><rect class="cls-10" x="56" y="56" width="6" height="2"/><rect class="cls-10" x="62" y="58" width="2" height="2"/><rect class="cls-10" x="24" y="78" width="4" height="2"/><rect class="cls-10" x="22" y="76" width="2" height="2"/><rect class="cls-10" x="22" y="86" width="6" height="2"/><rect class="cls-10" x="34" y="62" width="10" height="2"/><rect class="cls-10" x="72" y="24" width="2" height="2"/><rect class="cls-10" x="64" y="22" width="6" height="2"/><rect class="cls-10" x="58" y="8" width="6" height="2"/><rect class="cls-11" x="34" y="48" width="2" height="2"/><rect class="cls-11" x="78" y="4" width="2" height="2"/><rect class="cls-11" x="46" y="58" width="6" height="2"/><rect class="cls-11" x="24" y="68" width="6" height="2"/><rect class="cls-11" x="64" y="62" width="6" height="2"/><rect class="cls-11" x="26" y="44" width="4" height="2"/><rect class="cls-11" x="22" y="30" width="8" height="2"/><rect class="cls-11" x="32" y="24" width="4" height="2"/><rect class="cls-11" x="56" y="8" width="4" height="2"/><rect class="cls-11" x="18" y="8" width="4" height="2"/><rect class="cls-11" x="72" y="48" width="2" height="2"/><rect class="cls-11" x="75.78" y="53.52" width="2" height="2"/><rect class="cls-11" x="79.78" y="57.52" width="6" height="2"/><rect class="cls-13" x="38" y="214" width="14" height="2"/><rect class="cls-10" x="36" y="242" width="8" height="2"/><rect class="cls-13" x="42" y="176" width="10" height="2"/><rect class="cls-13" x="58" y="170" width="12" height="2"/><rect class="cls-13" x="46" y="158" width="14" height="2"/><rect class="cls-13" x="62" y="148" width="14" height="2"/><rect class="cls-13" x="28" y="204" width="10" height="2"/><rect class="cls-13" x="72" y="228" width="6" height="2"/><rect class="cls-10" x="68" y="152" width="6" height="2"/><rect class="cls-10" x="76" y="154" width="2" height="2"/><rect class="cls-10" x="74" y="162" width="2" height="2"/><rect class="cls-10" x="68" y="162" width="4" height="2"/><rect class="cls-10" x="28" y="176" width="2" height="2"/><rect class="cls-10" x="30" y="168" width="6" height="2"/><rect class="cls-10" x="28" y="160" width="2" height="2"/><rect class="cls-10" x="56" y="178" width="6" height="2"/><rect class="cls-13" x="62" y="180" width="2" height="2"/><rect class="cls-10" x="24" y="184" width="10" height="2"/><rect class="cls-10" x="54" y="238" width="10" height="2"/><rect class="cls-10" x="32" y="232" width="10" height="2"/><rect class="cls-10" x="56" y="186" width="4" height="2"/><rect class="cls-10" x="52" y="198" width="4" height="2"/><rect class="cls-10" x="24" y="204" width="4" height="2"/><rect class="cls-10" x="76" y="146" width="2" height="2"/><rect class="cls-10" x="69.78" y="141.52" width="6" height="2"/><rect class="cls-11" x="46" y="214" width="2" height="2"/><rect class="cls-8" x="32" y="212" width="2" height="2"/><rect class="cls-11" x="44" y="180" width="6" height="2"/><rect class="cls-11" x="67.78" y="179.52" width="6" height="2"/><rect class="cls-11" x="34" y="214" width="4" height="2"/><rect class="cls-11" x="48" y="164" width="4" height="2"/><rect class="cls-11" x="32" y="146" width="4" height="2"/><rect class="cls-11" x="24" y="160" width="4" height="2"/><rect class="cls-13" x="30" y="160" width="8" height="2"/><rect class="cls-11" x="72" y="170" width="2" height="2"/><rect class="cls-11" x="75.78" y="175.52" width="2" height="2"/><rect class="cls-11" x="79.78" y="179.52" width="6" height="2"/><rect class="cls-10" x="68" y="230" width="6" height="2"/><rect class="cls-10" x="74" y="236" width="2" height="2"/><rect class="cls-10" x="72" y="238" width="2" height="2"/><rect class="cls-10" x="52" y="250" width="8" height="2"/><rect class="cls-10" x="72" y="248" width="4" height="2"/><rect class="cls-8" x="64" y="252" width="2" height="2"/><rect class="cls-10" x="42" y="256" width="2" height="2"/><rect class="cls-10" x="50" y="260" width="2" height="2"/><rect class="cls-10" x="48" y="258" width="2" height="2"/><rect class="cls-13" x="56" y="258" width="6" height="2"/><rect class="cls-13" x="28" y="268" width="6" height="2"/><rect class="cls-13" x="34" y="254" width="6" height="2"/><rect class="cls-10" x="62" y="260" width="2" height="2"/><rect class="cls-10" x="55.78" y="267.52" width="4" height="2"/><rect class="cls-10" x="70" y="226" width="2" height="2"/><rect class="cls-10" x="56" y="222" width="2" height="2"/><rect class="cls-10" x="60" y="222" width="10" height="2"/><rect class="cls-11" x="44" y="260" width="6" height="2"/><rect class="cls-11" x="66" y="254" width="6" height="2"/><rect class="cls-11" x="28" y="252" width="8" height="2"/><rect class="cls-11" x="32" y="240" width="2" height="2"/><rect class="cls-11" x="44" y="242" width="2" height="2"/><rect class="cls-11" x="64" y="248" width="2" height="2"/><rect class="cls-11" x="76" y="256" width="2" height="2"/><rect class="cls-13" x="80" y="260" width="12" height="2"/><rect class="cls-4" x="43.01" y="60" width="1" height="18"/><rect class="cls-6" x="42.01" y="60" width="1" height="18"/><rect class="cls-14" x="42.01" y="58" width="2" height="2"/><rect class="cls-6" x="52" y="77" width="2" height="5"/><rect class="cls-6" x="50" y="73" width="6" height="6"/><rect class="cls-15" x="51" y="76" width="2" height="2"/><rect class="cls-4" x="51" y="74" width="2" height="2"/><rect class="cls-16" x="53" y="74" width="2" height="2" transform="translate(108 150) rotate(-180)"/><rect class="cls-17" x="53" y="76" width="2" height="2" transform="translate(108 154) rotate(-180)"/><rect class="cls-4" x="50" y="78" width="6" height="1"/><rect class="cls-8" x="50" y="73" width="3" height="1"/><rect class="cls-5" x="52" y="79" width="2" height="1"/><rect class="cls-5" x="53" y="79" width="1" height="3"/><g class="cls-18"><rect class="cls-15" x="40" y="82" width="2" height="2"/><rect class="cls-15" x="60" y="84" width="2" height="2"/><path class="cls-10" d="M68,78v2H66v2H64v4H62v2H60V86H58V84h2V82H56v4H54V82H52v2H48v4H46V82H44v2H42v2H40V84H38v6h4v4h6v2H60V94h6V90h4V78Zm0,8H66V84h2Z"/></g><rect class="cls-13" x="56" y="36" width="14" height="2"/><rect class="cls-13" x="50" y="48" width="14" height="2"/><rect class="cls-13" x="42" y="26" width="14" height="2"/><rect class="cls-13" x="80" y="8" width="14" height="2"/><rect class="cls-13" x="18" y="16" width="14" height="2"/><polygon class="cls-19" points="84 96 84 98 86 98 86 100 84 100 84 102 86 102 86 104 82 104 82 120 84 120 84 122 86 122 86 124 84 124 84 126 80 126 80 128 72 128 72 130 70 130 70 132 44 132 44 128 70 128 70 126 74 126 74 124 76 124 76 120 78 120 78 82 80 82 80 84 86 84 86 86 82 86 82 88 86 88 86 90 84 90 84 92 86 92 86 94 88 94 88 96 84 96"/><rect class="cls-20" x="92" y="34" width="2" height="224"/><polygon class="cls-21" points="86 268 86 274 84.01 274 84.01 276 82.01 276 82.01 278 80.01 278 80.01 280 78.01 280 78.01 282 74.01 282 74.01 284 70.01 284 70.01 286 64.01 286 64.01 288 44.01 288 44.01 286 38.01 286 38.01 284 34.01 284 34.01 282 30.01 282 30.01 280 28.01 280 28.01 278 26.01 278 26.01 276 24.01 276 24.01 272 26.01 272 26.01 274 28.01 274 28.01 276 30.01 276 30.01 278 32.01 278 32.01 280 36.01 280 36.01 282 40.01 282 40.01 284 46 284 46 282 64 282 64 280 70 280 70 278 66 278 66 276 68 276 68 274 72 274 72 272 70 272 70 270 78 270 78 268 86 268"/><rect class="cls-22" x="90" y="28" width="2" height="236"/><rect class="cls-23" x="88" y="24" width="2" height="244"/><rect class="cls-23" x="86" y="20" width="2" height="252"/><rect class="cls-20" x="14" y="34" width="2" height="224" transform="translate(30 292) rotate(-180)"/><rect class="cls-22" x="16" y="28" width="2" height="236" transform="translate(34 292) rotate(-180)"/><rect class="cls-23" x="18" y="24" width="2" height="244" transform="translate(38 292) rotate(-180)"/><rect class="cls-23" x="20" y="20" width="2" height="252" transform="translate(42 292) rotate(-180)"/><rect class="cls-19" x="90" y="256" width="2" height="8"/><g id="life_preserver" data-name="life preserver"><rect class="cls-6" x="89.95" y="118.41" width="2" height="2"/><rect class="cls-6" x="94.95" y="115.41" width="1" height="1"/><rect class="cls-6" x="94.95" y="114.41" width="2" height="2"/><polygon class="cls-13" points="97.95 110.41 97.95 116.41 96.95 116.41 96.95 117.41 95.95 117.41 95.95 120.41 91.95 120.41 91.95 121.41 85.95 121.41 85.95 119.41 91.95 119.41 91.95 118.41 93.95 118.41 93.95 116.41 95.95 116.41 95.95 110.41 97.95 110.41"/><rect class="cls-13" x="85.95" y="110.41" width="2" height="2"/><rect class="cls-13" x="83.95" y="112.41" width="2" height="2"/><polygon class="cls-13" points="92.95 104.41 92.95 108.41 89.95 108.41 89.95 110.41 87.95 110.41 87.95 108.41 85.95 108.41 85.95 110.41 83.95 110.41 83.95 116.41 81.95 116.41 81.95 106.41 83.95 106.41 83.95 104.41 92.95 104.41"/><rect class="cls-8" x="78.95" y="108.41" width="2" height="6"/><rect class="cls-24" x="79.95" y="106.41" width="2" height="2"/><rect class="cls-8" x="80.95" y="104.41" width="2" height="2"/><rect class="cls-24" x="82.95" y="103.41" width="2" height="2"/><rect class="cls-8" x="84.95" y="102.41" width="6" height="2"/><rect class="cls-24" x="90.95" y="103.41" width="2" height="2" transform="translate(196.36 12.46) rotate(90)"/><rect class="cls-8" x="92.95" y="104.41" width="2" height="2" transform="translate(199.36 11.46) rotate(90)"/><rect class="cls-24" x="93.95" y="106.41" width="2" height="2" transform="translate(202.36 12.46) rotate(90)"/><rect class="cls-8" x="92.95" y="110.41" width="6" height="2" transform="translate(207.36 15.46) rotate(90)"/><rect class="cls-8" x="94.95" y="108.41" width="2" height="6" transform="translate(191.9 222.82) rotate(-180)"/><rect class="cls-24" x="93.95" y="114.41" width="2" height="2" transform="translate(189.9 230.82) rotate(-180)"/><rect class="cls-8" x="92.95" y="116.41" width="2" height="2" transform="translate(187.9 234.82) rotate(-180)"/><rect class="cls-24" x="90.95" y="117.41" width="2" height="2" transform="translate(183.9 236.82) rotate(-180)"/><rect class="cls-8" x="84.95" y="118.41" width="6" height="2" transform="translate(175.9 238.82) rotate(-180)"/><rect class="cls-24" x="82.95" y="117.41" width="2" height="2" transform="translate(-34.46 202.36) rotate(-90)"/><rect class="cls-8" x="80.95" y="116.41" width="2" height="2" transform="translate(-35.46 199.36) rotate(-90)"/><rect class="cls-24" x="79.95" y="114.41" width="2" height="2" transform="translate(-34.46 196.36) rotate(-90)"/><rect class="cls-8" x="76.95" y="110.41" width="6" height="2" transform="translate(-31.46 191.36) rotate(-90)"/><rect class="cls-16" x="78.45" y="110.91" width="6" height="1" transform="translate(-29.96 192.86) rotate(-90)"/><rect class="cls-25" x="80.45" y="110.91" width="2" height="1" transform="translate(-29.96 192.86) rotate(-90)"/><rect class="cls-16" x="91.45" y="110.91" width="6" height="1" transform="translate(-16.96 205.86) rotate(-90)"/><rect class="cls-25" x="93.45" y="110.91" width="2" height="1" transform="translate(-16.96 205.86) rotate(-90)"/><rect class="cls-16" x="84.95" y="104.41" width="6" height="1"/><rect class="cls-25" x="86.95" y="104.41" width="2" height="1"/><rect class="cls-16" x="84.95" y="117.41" width="6" height="1"/><rect class="cls-25" x="86.95" y="117.41" width="2" height="1"/><rect class="cls-24" x="78.95" y="110.41" width="2" height="2" transform="translate(-31.46 191.36) rotate(-90)"/><rect class="cls-24" x="86.95" y="102.41" width="2" height="2"/><rect class="cls-24" x="94.95" y="110.41" width="2" height="2"/><rect class="cls-24" x="86.95" y="118.41" width="2" height="2"/><rect class="cls-25" x="90.95" y="105.41" width="2" height="1"/><rect class="cls-25" x="82.95" y="105.41" width="2" height="1"/><rect class="cls-25" x="90.95" y="116.41" width="2" height="1"/><rect class="cls-25" x="82.95" y="116.41" width="2" height="1"/><rect class="cls-25" x="92.45" y="114.91" width="2" height="1" transform="translate(208.86 21.96) rotate(90)"/><rect class="cls-25" x="92.45" y="106.91" width="2" height="1" transform="translate(200.86 13.96) rotate(90)"/><rect class="cls-25" x="81.45" y="114.91" width="2" height="1" transform="translate(197.86 32.96) rotate(90)"/><rect class="cls-25" x="81.45" y="106.91" width="2" height="1" transform="translate(189.86 24.96) rotate(90)"/><rect class="cls-26" x="61.95" y="119.41" width="6" height="1" transform="translate(129.9 239.82) rotate(180)"/><rect class="cls-27" x="67.95" y="119.41" width="1" height="1" transform="translate(136.9 239.82) rotate(180)"/><rect class="cls-8" x="68.95" y="119.41" width="1" height="1" transform="translate(138.9 239.82) rotate(180)"/><rect class="cls-27" x="73.95" y="115.41" width="1" height="1" transform="translate(148.9 231.82) rotate(180)"/><rect class="cls-27" x="77.95" y="109.41" width="1" height="1" transform="translate(156.9 219.82) rotate(180)"/><rect class="cls-27" x="75.95" y="113.41" width="2" height="1" transform="translate(153.9 227.82) rotate(180)"/><rect class="cls-8" x="74.95" y="113.41" width="1" height="3" transform="translate(150.9 229.82) rotate(180)"/><rect class="cls-8" x="76.95" y="110.41" width="1" height="3" transform="translate(154.9 223.82) rotate(180)"/><rect class="cls-8" x="70.95" y="115.41" width="3" height="1" transform="translate(144.9 231.82) rotate(180)"/><rect class="cls-8" x="69.95" y="115.41" width="1" height="5" transform="translate(140.9 235.82) rotate(180)"/><rect class="cls-28" x="60.95" y="118.41" width="1" height="1" transform="translate(122.9 237.82) rotate(180)"/><rect class="cls-28" x="59.95" y="117.41" width="1" height="1" transform="translate(120.9 235.82) rotate(180)"/><rect class="cls-28" x="58.95" y="116.41" width="1" height="1" transform="translate(118.9 233.82) rotate(180)"/></g><rect class="cls-4" x="40" y="128" width="6" height="2"/><rect class="cls-4" x="38" y="126" width="6" height="2"/><rect class="cls-29" x="50" y="108" width="12" height="2"/><rect class="cls-29" x="60" y="106" width="6" height="2"/><rect class="cls-29" x="64" y="104" width="6" height="2"/><rect class="cls-29" x="66" y="102" width="6" height="2"/><rect class="cls-29" x="70" y="98" width="4" height="2"/><rect class="cls-29" x="70" y="100" width="6" height="2"/><rect class="cls-29" x="70" y="94" width="4" height="2"/><rect class="cls-29" x="70" y="92" width="4" height="2"/><rect class="cls-29" x="70" y="84" width="4" height="2"/><rect class="cls-29" x="70" y="90" width="6" height="2"/><rect class="cls-29" x="70" y="82" width="2" height="2"/><rect class="cls-29" x="74" y="88" width="2" height="2"/><rect class="cls-29" x="76" y="92" width="2" height="2"/><rect class="cls-29" x="72" y="104" width="2" height="2"/><rect class="cls-29" x="70" y="106" width="2" height="2"/><rect class="cls-29" x="68" y="108" width="2" height="2"/><rect class="cls-29" x="66" y="106" width="2" height="2"/><rect class="cls-29" x="76" y="84" width="2" height="2"/><rect class="cls-29" x="70" y="86" width="6" height="2"/><rect class="cls-29" x="70" y="88" width="2" height="2"/><rect class="cls-29" x="70" y="96" width="6" height="2"/><rect x="64" y="268" width="0.01" height="2"/><rect class="cls-21" x="40" y="282" width="6" height="2"/><rect class="cls-21" x="60" y="278" width="6" height="2"/><rect class="cls-21" x="62" y="272" width="6" height="2"/><rect class="cls-21" x="44" y="286" width="20" height="2"/><rect class="cls-21" x="60" y="284" width="10" height="2"/><rect class="cls-21" x="64" y="282" width="10" height="2"/><rect class="cls-21" x="72" y="280" width="6" height="2"/><rect class="cls-21" x="76" y="278" width="4" height="2"/><rect class="cls-21" x="78" y="276" width="4" height="2"/><rect class="cls-21" x="80" y="274" width="4" height="2"/><rect class="cls-21" x="82" y="272" width="4" height="2"/><rect class="cls-21" x="52" y="280" width="6" height="2"/><rect class="cls-21" x="46" y="276" width="6" height="2"/><rect class="cls-21" x="46" y="280" width="4" height="2"/><rect class="cls-21" x="56" y="274" width="2" height="2"/><rect class="cls-21" x="72" y="268" width="2" height="2"/><rect class="cls-21" x="76" y="266" width="2" height="2"/><rect class="cls-21" x="78" y="264" width="2" height="2"/><rect class="cls-21" x="82" y="262" width="2" height="2"/><rect class="cls-21" x="84" y="260" width="2" height="2"/><rect class="cls-21" x="84" y="256" width="2" height="2"/><rect class="cls-21" x="88" y="254" width="2" height="2"/><rect class="cls-21" x="88" y="260" width="2" height="2"/><rect class="cls-21" x="86" y="258" width="2" height="2"/><rect class="cls-21" x="84" y="252" width="2" height="2"/><rect class="cls-21" x="60" y="274" width="2" height="2"/><rect class="cls-21" x="44" y="278" width="2" height="2"/><rect class="cls-21" x="40" y="278" width="2" height="2"/><rect class="cls-21" x="32" y="274" width="2" height="2"/><rect class="cls-21" x="34" y="276" width="2" height="2"/><rect class="cls-21" x="36" y="278" width="2" height="2"/><rect class="cls-21" x="38" y="274" width="2" height="2"/><rect class="cls-21" x="28" y="272" width="2" height="2"/><rect class="cls-21" x="22" y="272" width="2" height="2"/><rect class="cls-21" x="20" y="270" width="2" height="2"/><rect class="cls-21" x="20" y="268" width="2" height="2"/><rect class="cls-21" x="18" y="266" width="2" height="2"/><rect class="cls-21" x="18" y="264" width="2" height="2"/><rect class="cls-21" x="18" y="262" width="2" height="2"/><rect class="cls-21" x="22" y="268" width="2" height="6"/><rect class="cls-21" x="38" y="280" width="2" height="2"/><rect class="cls-21" x="86" y="266" width="2" height="6"/><rect class="cls-21" x="88" y="262" width="2" height="6"/></g></g></svg>