<svg xmlns="http://www.w3.org/2000/svg" viewBox="0 0 98.01 298"><defs><style>.cls-1{fill:#96a5ab;}.cls-2{fill:#162433;}.cls-19,.cls-20,.cls-22,.cls-23,.cls-29,.cls-3{fill:#2a3747;}.cls-4{fill:#182028;}.cls-5{fill:#586c79;}.cls-6{fill:#293746;}.cls-26,.cls-7{fill:#fff;}.cls-8{fill:#080d11;}.cls-15,.cls-9{fill:#235fda;}.cls-10{fill:#6cdffb;}.cls-11,.cls-19{opacity:0.75;}.cls-12{fill:#0442af;}.cls-13{fill:#33a5ff;}.cls-14{fill:#9f1e31;}.cls-15,.cls-18{opacity:0.5;}.cls-16{fill:#7e8c91;}.cls-17{fill:#3259e2;}.cls-20{opacity:0.85;}.cls-21{opacity:0.3;}.cls-22{opacity:0.6;}.cls-23{opacity:0.35;}.cls-24{fill:#ff4d4e;}.cls-25{fill:#56142d;}.cls-26{opacity:0.54;}.cls-27{fill:#dde5e8;}.cls-28{fill:#f1f0ee;opacity:0.58;}.cls-29{opacity:0.63;}</style></defs><g id="Layer_2" data-name="Layer 2"><g id="Sub"><path class="cls-1" d="M48,4h0A40,40,0,0,0,8,44V248c0,22.09,17.91,46,40,46h0c22.09,0,40-23.91,40-46V44A40,40,0,0,0,48,4Z"/><polygon points="86.01 34 86.01 268 82.01 268 80.01 24 84.01 24 84.01 34 86.01 34"/><polygon class="cls-2" points="82.01 20 82.01 278 80.01 278 80.01 280 78.01 280 78.01 282 76.01 282 76.01 284 74.01 284 74.01 18 80.01 18 80.01 20 82.01 20"/><rect x="80" y="260" width="2" height="12"/><polygon class="cls-3" points="14.01 268 14.01 266 12.01 266 12.01 264 10.01 264 10.01 262 8.01 262 8.01 34 10.01 34 10.01 28 12.01 28 12.01 24 14.01 24 14.01 20 14.01 268"/><rect class="cls-3" x="16.01" y="102" width="10" height="2"/><rect class="cls-3" x="8.01" y="104" width="10" height="2"/><rect class="cls-4" x="78.01" y="104" width="10" height="2"/><rect class="cls-3" x="70.01" y="102" width="10" height="2"/><rect class="cls-4" x="74.01" y="102" width="6" height="2"/><rect class="cls-3" x="22.01" y="100" width="12" height="2"/><rect class="cls-3" x="62.01" y="100" width="12" height="2"/><rect class="cls-3" x="30.01" y="98" width="36" height="2"/><rect class="cls-5" x="30.01" y="98" width="28" height="2"/><polygon class="cls-3" points="80.01 260 80.01 264 78.01 264 78.01 266 76.01 266 76.01 268 74.01 268 74.01 270 72.01 270 72.01 272 68.01 272 68.01 274 64.01 274 64.01 276 58.01 276 58.01 278 74.01 278 74.01 286 72.01 286 72.01 288 68.01 288 68.01 290 64.01 290 64.01 292 58.01 292 58.01 294 38.01 294 38.01 292 32.01 292 32.01 290 28.01 290 28.01 288 24.01 288 24.01 286 22.01 286 22.01 284 20.01 284 20.01 282 18.01 282 18.01 278 16.01 278 16.01 274 14.01 274 14.01 268 12.01 268 12.01 264 16.01 264 16.01 260 18.01 260 18.01 262 20.01 262 20.01 264 22.01 264 22.01 266 24.01 266 24.01 268 26.01 268 26.01 270 30.01 270 30.01 272 34.01 272 34.01 274 40.01 274 40.01 276 56.01 276 56.01 274 62.01 274 62.01 272 66.01 272 66.01 270 70.01 270 70.01 268 72.01 268 72.01 266 74.01 266 74.01 264 76.01 264 76.01 262 78.01 262 78.01 260 80.01 260"/><rect class="cls-4" x="86.01" y="34" width="2" height="230"/><rect class="cls-6" x="8.01" y="34" width="2" height="230"/><rect class="cls-4" x="84.01" y="262" width="2" height="8"/><rect x="82.01" y="268" width="2" height="6"/><rect x="80.01" y="272" width="2" height="6"/><rect x="78.01" y="276" width="2" height="4"/><rect x="70.01" y="284" width="2" height="2"/><rect class="cls-6" x="10.01" y="262" width="2" height="8" transform="translate(22.02 532) rotate(-180)"/><rect class="cls-6" x="12.01" y="268" width="2" height="6" transform="translate(26.02 542) rotate(-180)"/><rect class="cls-6" x="14.01" y="272" width="2" height="6" transform="translate(30.02 550) rotate(-180)"/><rect class="cls-6" x="16.01" y="276" width="2" height="4" transform="translate(34.02 556) rotate(-180)"/><rect class="cls-6" x="10.01" y="28" width="2" height="8"/><rect class="cls-6" x="12.01" y="24" width="2" height="6"/><rect class="cls-6" x="14.01" y="20" width="2" height="6"/><rect class="cls-6" x="16.01" y="18" width="2" height="4" transform="translate(34.02 40) rotate(180)"/><rect class="cls-6" x="18.01" y="16" width="2" height="4" transform="translate(38.02 36) rotate(180)"/><rect class="cls-6" x="20.01" y="14" width="2" height="4" transform="translate(42.02 32) rotate(180)"/><rect class="cls-6" x="22.01" y="12" width="2" height="4" transform="translate(46.02 28) rotate(180)"/><rect class="cls-6" x="24.01" y="12" width="2" height="2" transform="translate(50.02 26) rotate(180)"/><rect class="cls-6" x="38.01" y="4" width="20" height="2" transform="translate(96.02 10) rotate(180)"/><rect class="cls-6" x="32.01" y="6" width="8" height="2" transform="translate(72.02 14) rotate(180)"/><rect class="cls-6" x="28.01" y="8" width="6" height="2" transform="translate(62.02 18) rotate(180)"/><rect class="cls-6" x="24.01" y="10" width="6" height="2" transform="translate(54.02 22) rotate(180)"/><rect class="cls-4" x="84.01" y="28" width="2" height="8"/><rect class="cls-4" x="82.01" y="24" width="2" height="6"/><rect class="cls-4" x="80.01" y="20" width="2" height="6"/><rect class="cls-4" x="78.01" y="18" width="2" height="4"/><rect class="cls-4" x="76.01" y="16" width="2" height="4"/><rect class="cls-4" x="74.01" y="14" width="2" height="4"/><rect class="cls-4" x="72.01" y="12" width="2" height="4"/><rect class="cls-4" x="70.01" y="12" width="2" height="2"/><rect class="cls-6" x="56.01" y="6" width="8" height="2"/><rect class="cls-6" x="62.01" y="8" width="6" height="2"/><rect class="cls-4" x="66.01" y="10" width="6" height="2"/><rect class="cls-5" x="70.01" y="264" width="2" height="2"/><rect class="cls-5" x="68.01" y="258" width="2" height="2"/><rect class="cls-5" x="70.01" y="260" width="2" height="2"/><rect class="cls-5" x="68.01" y="262" width="2" height="2"/><rect class="cls-5" x="68.01" y="266" width="2" height="2"/><rect class="cls-5" x="66.01" y="268" width="2" height="2"/><rect class="cls-5" x="64.01" y="264" width="2" height="2"/><rect class="cls-5" x="16.01" y="248" width="2" height="12"/><rect class="cls-5" x="72.01" y="250" width="2" height="8"/><rect class="cls-5" x="72.01" y="260" width="2" height="2"/><rect class="cls-5" x="72.01" y="246" width="2" height="2"/><rect class="cls-3" x="78.01" y="244" width="2" height="14"/><rect class="cls-4" x="84.01" y="250" width="2" height="8"/><rect class="cls-4" x="82.01" y="248" width="2" height="2"/><rect class="cls-4" x="82.01" y="246" width="2" height="2"/><rect class="cls-4" x="82.01" y="260" width="2" height="2"/><rect class="cls-4" x="84.01" y="246" width="2" height="2"/><rect class="cls-4" x="84.01" y="238" width="2" height="2"/><rect class="cls-3" x="80.01" y="208" width="2" height="2"/><rect class="cls-4" x="82.01" y="264" width="2" height="2"/><rect class="cls-3" x="80.01" y="260" width="2" height="2"/><rect class="cls-3" x="78.01" y="262" width="2" height="2"/><rect class="cls-3" x="76.01" y="264" width="2" height="2"/><rect class="cls-3" x="78.01" y="266" width="2" height="2"/><rect x="72" y="270" width="2" height="6"/><rect x="54" y="284" width="2" height="2"/><rect x="36" y="290" width="2" height="2"/><rect x="38" y="292" width="2" height="2"/><rect x="38" y="288" width="2" height="2"/><rect x="56" y="286" width="2" height="2"/><rect x="56" y="282" width="2" height="2"/><rect x="56" y="278" width="2" height="2"/><rect x="78" y="242" width="2" height="20"/><rect x="78" y="264" width="2" height="10"/><rect x="76" y="270" width="2" height="10"/><rect x="80" y="236" width="2" height="8"/><rect x="80" y="248" width="2" height="14"/><rect class="cls-3" x="76.01" y="268" width="2" height="2"/><rect class="cls-3" x="74.01" y="270" width="2" height="2"/><rect class="cls-3" x="70.01" y="272" width="2" height="2"/><rect x="64.01" y="284" width="2" height="2"/><rect class="cls-3" x="56.01" y="286" width="2" height="2"/><rect class="cls-3" x="58.01" y="284" width="2" height="2"/><polygon points="80 274 80 280 78.01 280 78.01 282 76.01 282 76.01 284 74.01 284 74.01 286 72.01 286 72.01 288 68.01 288 68.01 290 64.01 290 64.01 292 58.01 292 58.01 294 38.01 294 38.01 292 32.01 292 32.01 290 28.01 290 28.01 288 24.01 288 24.01 286 22.01 286 22.01 284 20.01 284 20.01 282 18.01 282 18.01 278 20.01 278 20.01 280 22.01 280 22.01 282 24.01 282 24.01 284 26.01 284 26.01 286 30.01 286 30.01 288 34.01 288 34.01 290 40 290 40 288 58 288 58 280 58.01 280 58.01 274 80 274"/><rect class="cls-5" x="72.01" y="264" width="2" height="2"/><rect class="cls-5" x="60.01" y="270" width="2" height="2"/><rect class="cls-5" x="62.01" y="268" width="2" height="2"/><rect class="cls-5" x="58.01" y="272" width="2" height="2"/><rect class="cls-5" x="54.01" y="272" width="2" height="2"/><rect class="cls-5" x="50.01" y="274" width="2" height="2"/><rect class="cls-5" x="52.01" y="274" width="2" height="2"/><rect class="cls-5" x="46.01" y="274" width="2" height="2"/><rect class="cls-5" x="48.01" y="272" width="2" height="2"/><rect class="cls-5" x="48.01" y="270" width="2" height="2"/><rect class="cls-5" x="56.01" y="268" width="2" height="2"/><rect class="cls-5" x="50.01" y="270" width="2" height="2"/><rect class="cls-5" x="42.01" y="272" width="2" height="2"/><rect class="cls-5" x="40.01" y="274" width="2" height="2"/><rect class="cls-5" x="38.01" y="274" width="2" height="2"/><rect class="cls-5" x="38.01" y="270" width="2" height="2"/><rect class="cls-5" x="34.01" y="270" width="2" height="2"/><rect class="cls-5" x="36.01" y="272" width="2" height="2"/><rect class="cls-5" x="30.01" y="268" width="2" height="2"/><rect class="cls-5" x="26.01" y="266" width="2" height="2"/><rect class="cls-5" x="30.01" y="264" width="2" height="2"/><rect class="cls-5" x="24.01" y="264" width="2" height="2"/><rect class="cls-5" x="22.01" y="262" width="2" height="2"/><rect class="cls-5" x="20.01" y="260" width="2" height="2"/><rect class="cls-5" x="18.01" y="258" width="2" height="2"/><rect class="cls-5" x="16.01" y="244" width="2" height="2"/><rect class="cls-5" x="18.01" y="242" width="2" height="2"/><rect class="cls-5" x="18.01" y="246" width="2" height="2"/><rect class="cls-5" x="20.01" y="248" width="2" height="2"/><rect class="cls-5" x="26.01" y="260" width="2" height="2"/><rect class="cls-5" x="64.01" y="270" width="2" height="2"/><rect class="cls-3" x="76.01" y="128" width="2" height="12"/><rect class="cls-3" x="78.01" y="158" width="2" height="38"/><rect class="cls-3" x="78.01" y="182" width="2" height="26"/><rect class="cls-3" x="76.01" y="88" width="2" height="28"/><rect class="cls-3" x="76.01" y="118" width="2" height="6"/><rect class="cls-5" x="44.01" y="132" width="24" height="2"/><rect class="cls-5" x="58.01" y="130" width="14" height="2"/><rect class="cls-3" x="60.01" y="128" width="14" height="2"/><rect class="cls-3" x="60.01" y="84" width="14" height="44"/><rect class="cls-5" x="48.01" y="134" width="14" height="2"/><polygon class="cls-4" points="72.01 78 72.01 120 70.01 120 70.01 124 68.01 124 68.01 126 66.01 126 66.01 128 64.01 128 64.01 130 60.01 130 60.01 132 38.01 132 38.01 130 34.01 130 34.01 128 32.01 128 32.01 126 30.01 126 30.01 124 28.01 124 28.01 120 26.01 120 26.01 94 28.01 94 28.01 90 30.01 90 30.01 88 32.01 88 32.01 86 34.01 86 34.01 84 38.01 84 38.01 82 42.01 82 42.01 78 72.01 78"/><polygon class="cls-4" points="70.01 92 70.01 118 68.01 118 68.01 122 66.01 122 66.01 124 64.01 124 64.01 126 62.01 126 62.01 128 58.01 128 58.01 130 36.01 130 36.01 128 32.01 128 32.01 126 30.01 126 30.01 124 28.01 124 28.01 122 26.01 122 26.01 118 24.01 118 24.01 92 26.01 92 26.01 88 28.01 88 28.01 86 30.01 86 30.01 84 32.01 84 32.01 82 36.01 82 36.01 80 58.01 80 58.01 82 62.01 82 62.01 84 64.01 84 64.01 86 66.01 86 66.01 88 68.01 88 68.01 92 70.01 92"/><polygon class="cls-5" points="70.01 90 70.01 116 68.01 116 68.01 120 66.01 120 66.01 122 64.01 122 64.01 124 62.01 124 62.01 126 58.01 126 58.01 128 36.01 128 36.01 126 32.01 126 32.01 124 30.01 124 30.01 122 28.01 122 28.01 120 26.01 120 26.01 116 24.01 116 24.01 90 26.01 90 26.01 86 28.01 86 28.01 84 30.01 84 30.01 82 32.01 82 32.01 80 36.01 80 36.01 78 58.01 78 58.01 80 62.01 80 62.01 82 64.01 82 64.01 84 66.01 84 66.01 86 68.01 86 68.01 90 70.01 90"/><polygon class="cls-1" points="70.01 78 70.01 104 68.01 104 68.01 108 66.01 108 66.01 110 64.01 110 64.01 112 62.01 112 62.01 114 58.01 114 58.01 116 36.01 116 36.01 114 32.01 114 32.01 112 30.01 112 30.01 110 28.01 110 28.01 108 26.01 108 26.01 104 24.01 104 24.01 78 26.01 78 26.01 74 28.01 74 28.01 72 30.01 72 30.01 70 32.01 70 32.01 68 36.01 68 36.01 66 58.01 66 58.01 68 62.01 68 62.01 70 64.01 70 64.01 72 66.01 72 66.01 74 68.01 74 68.01 78 70.01 78"/><rect class="cls-5" x="50.01" y="108" width="14" height="2"/><rect class="cls-5" x="54.01" y="106" width="14" height="2"/><rect class="cls-3" x="56.01" y="104" width="14" height="2"/><polygon class="cls-4" points="64.01 92 64.01 102 62.01 102 62.01 104 58.01 104 58.01 94 62.01 94 62.01 92 64.01 92"/><rect class="cls-7" x="36.01" y="66" width="2" height="2" transform="translate(104.01 29.99) rotate(90)"/><rect class="cls-7" x="38.01" y="66" width="2" height="2" transform="translate(106.01 27.99) rotate(90)"/><rect class="cls-7" x="40.01" y="66" width="2" height="2" transform="translate(108.01 25.99) rotate(90)"/><rect class="cls-7" x="42.01" y="66" width="2" height="2" transform="translate(110.01 23.99) rotate(90)"/><rect class="cls-7" x="44.01" y="66" width="2" height="2" transform="translate(112.01 21.99) rotate(90)"/><rect class="cls-7" x="36.01" y="68" width="2" height="2" transform="translate(106.01 31.99) rotate(90)"/><rect class="cls-7" x="34.01" y="68" width="2" height="2" transform="translate(104.01 33.99) rotate(90)"/><rect class="cls-5" x="32.01" y="68" width="2" height="2" transform="translate(102.01 35.99) rotate(90)"/><rect class="cls-7" x="32.01" y="70" width="2" height="2" transform="translate(104.01 37.99) rotate(90)"/><rect class="cls-5" x="30.01" y="70" width="2" height="2" transform="translate(102.01 39.99) rotate(90)"/><rect class="cls-7" x="30.01" y="72" width="2" height="2" transform="translate(104.01 41.99) rotate(90)"/><rect class="cls-5" x="28.01" y="72" width="2" height="2" transform="translate(102.01 43.99) rotate(90)"/><rect class="cls-5" x="28.01" y="74" width="2" height="2" transform="translate(104.01 45.99) rotate(90)"/><rect class="cls-5" x="26.01" y="74" width="2" height="2" transform="translate(102.01 47.99) rotate(90)"/><rect class="cls-7" x="26.01" y="76" width="2" height="2" transform="translate(104.01 49.99) rotate(90)"/><rect class="cls-5" x="26.01" y="78" width="2" height="2" transform="translate(106.01 51.99) rotate(90)"/><rect class="cls-5" x="24.01" y="78" width="2" height="2" transform="translate(104.01 53.99) rotate(90)"/><rect class="cls-7" x="24.01" y="80" width="2" height="2" transform="translate(106.01 55.99) rotate(90)"/><rect class="cls-7" x="24.01" y="82" width="2" height="2" transform="translate(108.01 57.99) rotate(90)"/><rect class="cls-5" x="24.01" y="84" width="2" height="2" transform="translate(110.01 59.99) rotate(90)"/><rect class="cls-5" x="24.01" y="86" width="2" height="2" transform="translate(112.01 61.99) rotate(90)"/><polygon class="cls-3" points="62.01 114 62.01 126 58.01 126 58.01 128 44.01 128 44.01 116 58.01 116 58.01 114 62.01 114"/><rect class="cls-5" x="24.01" y="90" width="2" height="10"/><rect class="cls-5" x="60.01" y="70" width="4" height="2"/><rect class="cls-5" x="62.01" y="72" width="4" height="2"/><rect class="cls-5" x="64.01" y="74" width="4" height="2"/><rect class="cls-4" x="66.01" y="74" width="2" height="12"/><rect class="cls-4" x="66.01" y="74" width="2" height="2"/><rect class="cls-4" x="66.01" y="118" width="2" height="2"/><rect class="cls-4" x="26.01" y="118" width="2" height="2"/><rect class="cls-4" x="36.01" y="126" width="2" height="2"/><rect class="cls-4" x="56.01" y="126" width="2" height="2"/><polygon class="cls-4" points="70.01 104 70.01 116 68.01 116 68.01 120 66.01 120 66.01 122 64.01 122 64.01 124 62.01 124 62.01 112 64.01 112 64.01 110 66.01 110 66.01 108 68.01 108 68.01 104 70.01 104"/><rect class="cls-4" x="60.01" y="114" width="2" height="12"/><rect class="cls-7" x="36.01" y="104" width="2" height="2"/><polygon class="cls-5" points="44.01 98 44.01 108 42.01 108 42.01 106 36.01 106 36.01 102 32.01 102 32.01 90 36.01 90 36.01 96 42.01 96 42.01 98 44.01 98"/><rect class="cls-3" x="44.01" y="96" width="14" height="12"/><rect class="cls-3" x="40.01" y="108" width="16" height="2"/><rect class="cls-4" x="44.01" y="108" width="12" height="2"/><rect class="cls-3" x="36.01" y="106" width="6" height="2"/><rect class="cls-3" x="34.01" y="102" width="2" height="4"/><rect class="cls-3" x="32.01" y="100" width="2" height="4"/><rect class="cls-5" x="30.01" y="90" width="2" height="12"/><rect class="cls-4" x="54.01" y="106" width="6" height="2" transform="translate(114.02 214) rotate(-180)"/><rect class="cls-4" x="60.01" y="102" width="2" height="4" transform="translate(122.02 208) rotate(-180)"/><rect class="cls-4" x="62.01" y="100" width="2" height="4" transform="translate(126.02 204) rotate(-180)"/><rect class="cls-4" x="64.01" y="90" width="2" height="12" transform="translate(130.02 192) rotate(-180)"/><rect class="cls-7" x="40.01" y="64" width="16" height="2" transform="translate(96.02 130) rotate(180)"/><rect class="cls-5" x="48.01" y="64" width="8" height="2" transform="translate(104.02 130) rotate(180)"/><rect class="cls-5" x="54.01" y="66" width="6" height="2" transform="translate(114.02 134) rotate(180)"/><rect class="cls-5" x="60.01" y="68" width="2" height="4" transform="translate(122.02 140) rotate(180)"/><rect class="cls-5" x="62.01" y="70" width="2" height="4" transform="translate(126.02 144) rotate(180)"/><rect class="cls-3" x="64.01" y="72" width="2" height="12" transform="translate(130.02 156) rotate(180)"/><rect class="cls-7" x="36.01" y="66" width="6" height="2"/><rect class="cls-7" x="34.01" y="68" width="2" height="4"/><rect class="cls-7" x="32.01" y="70" width="2" height="4"/><rect class="cls-7" x="30.01" y="72" width="2" height="12"/><rect class="cls-5" x="30.01" y="74" width="2" height="2"/><rect class="cls-3" x="40.01" y="96" width="16" height="2"/><rect class="cls-3" x="36.01" y="94" width="6" height="2"/><rect class="cls-3" x="34.01" y="90" width="2" height="4"/><rect class="cls-3" x="32.01" y="88" width="2" height="4"/><rect class="cls-3" x="30.01" y="78" width="2" height="12"/><rect class="cls-3" x="54.01" y="94" width="6" height="2" transform="translate(114.02 190) rotate(-180)"/><rect class="cls-3" x="60.01" y="90" width="2" height="4" transform="translate(122.02 184) rotate(-180)"/><rect class="cls-3" x="62.01" y="88" width="2" height="4" transform="translate(126.02 180) rotate(-180)"/><rect class="cls-3" x="64.01" y="78" width="2" height="12" transform="translate(130.02 168) rotate(-180)"/><rect class="cls-4" x="58.01" y="104" width="2" height="2" transform="translate(118.02 210) rotate(-180)"/><rect class="cls-3" x="30.01" y="98" width="2" height="4"/><rect class="cls-5" x="68.01" y="82" width="2" height="16"/><rect class="cls-3" x="56.01" y="64" width="2" height="2"/><rect class="cls-3" x="60.01" y="66" width="2" height="2"/><rect class="cls-4" x="62.01" y="68" width="2" height="2"/><rect class="cls-4" x="64.01" y="70" width="2" height="2"/><rect class="cls-4" x="66.01" y="72" width="2" height="2"/><rect class="cls-4" x="68.01" y="76" width="2" height="6"/><rect class="cls-3" x="32.01" y="88" width="2" height="2"/><rect class="cls-3" x="62.01" y="88" width="2" height="2"/><rect class="cls-3" x="58.01" y="92" width="2" height="2"/><rect class="cls-3" x="36.01" y="92" width="2" height="2"/><rect class="cls-7" x="36.01" y="68" width="2" height="2"/><rect class="cls-5" x="58.01" y="68" width="2" height="2"/><rect class="cls-7" x="32.01" y="72" width="2" height="2"/><rect class="cls-5" x="62.01" y="72" width="2" height="2"/><rect class="cls-5" x="44.01" y="110" width="14" height="2"/><rect class="cls-3" x="70.01" y="130" width="2" height="2"/><rect class="cls-3" x="66.01" y="130" width="2" height="2"/><rect class="cls-3" x="62.01" y="130" width="2" height="2"/><rect class="cls-3" x="60.01" y="130" width="2" height="2"/><rect class="cls-5" x="72.01" y="132" width="2" height="2"/><rect class="cls-3" x="46" y="88" width="2" height="2"/><rect class="cls-5" x="48" y="86" width="2" height="2"/><rect class="cls-3" x="48" y="88" width="2" height="2"/><rect class="cls-5" x="50.01" y="90" width="2" height="2"/><rect class="cls-5" x="42" y="94" width="2" height="2"/><rect class="cls-5" x="40" y="92" width="2" height="2"/><rect class="cls-5" x="44" y="92" width="2" height="2"/><rect class="cls-5" x="42" y="88" width="2" height="2"/><rect class="cls-3" x="36.01" y="78" width="2" height="2"/><rect class="cls-5" x="38.01" y="76" width="2" height="2"/><rect class="cls-3" x="38.01" y="78" width="2" height="2"/><rect class="cls-5" x="40.01" y="80" width="2" height="2"/><rect class="cls-5" x="54" y="90" width="2" height="2"/><rect class="cls-5" x="56" y="92" width="2" height="2"/><rect class="cls-5" x="58" y="88" width="2" height="4"/><rect class="cls-5" x="52" y="92" width="2" height="2"/><rect class="cls-5" x="46" y="94" width="6" height="2"/><polygon class="cls-5" points="60.01 76 60.01 80 59.01 80 59.01 81 58.01 81 58.01 82 54.01 82 54.01 81 53.01 81 53.01 80 52.01 80 52.01 76 53.01 76 53.01 75 54.01 75 54.01 74 58.01 74 58.01 75 59.01 75 59.01 76 60.01 76"/><rect class="cls-3" x="54.01" y="81" width="4" height="1"/><rect class="cls-3" x="57.01" y="80" width="2" height="1"/><rect class="cls-3" x="59.01" y="79" width="1" height="1"/><rect class="cls-5" x="16.01" y="194" width="10" height="2"/><rect class="cls-3" x="16.01" y="194" width="4" height="2"/><rect class="cls-3" x="8.01" y="196" width="10" height="2"/><rect class="cls-4" x="78.01" y="196" width="10" height="2"/><rect class="cls-3" x="70.01" y="194" width="10" height="2"/><rect class="cls-4" x="74.01" y="194" width="6" height="2"/><rect class="cls-5" x="22.01" y="192" width="12" height="2"/><rect class="cls-3" x="62.01" y="192" width="12" height="2"/><rect class="cls-3" x="30.01" y="190" width="36" height="2"/><rect class="cls-5" x="30.01" y="190" width="28" height="2"/><rect class="cls-3" x="14.01" y="212" width="4" height="56"/><rect class="cls-8" x="15.01" y="212" width="1" height="28"/><rect class="cls-5" x="16.01" y="210" width="2" height="32"/><rect class="cls-7" x="17.01" y="210" width="1" height="8"/><rect class="cls-7" x="17.01" y="220" width="1" height="6"/><rect class="cls-7" x="17.01" y="228" width="1" height="2"/><rect class="cls-8" x="14.01" y="210" width="2" height="2"/><rect class="cls-8" x="78.01" y="212" width="4" height="28" transform="translate(160.02 452) rotate(-180)"/><rect class="cls-8" x="80.01" y="212" width="1" height="28" transform="translate(161.02 452) rotate(-180)"/><rect class="cls-3" x="78.01" y="210" width="2" height="32" transform="translate(158.02 452) rotate(-180)"/><rect class="cls-1" x="78.01" y="210" width="1" height="8" transform="translate(157.02 428) rotate(-180)"/><rect class="cls-1" x="78.01" y="220" width="1" height="6" transform="translate(157.02 446) rotate(-180)"/><rect class="cls-1" x="78.01" y="228" width="1" height="2" transform="translate(157.02 458) rotate(-180)"/><rect class="cls-8" x="80.01" y="210" width="2" height="2" transform="translate(162.02 422) rotate(-180)"/><rect class="cls-9" x="2.01" y="264" width="8" height="4"/><rect class="cls-9" x="2.01" y="248" width="6" height="10"/><rect class="cls-9" x="4.01" y="242" width="4" height="20"/><rect class="cls-9" x="0.01" y="270" width="12" height="4"/><rect class="cls-9" x="26.01" y="294" width="58" height="4"/><rect class="cls-9" x="58.01" y="292" width="22" height="4"/><rect class="cls-9" x="64.01" y="290" width="22" height="2"/><rect class="cls-9" x="68.01" y="288" width="22" height="2"/><rect class="cls-9" x="72.01" y="286" width="14" height="2"/><rect class="cls-9" x="74.01" y="284" width="20" height="2"/><rect class="cls-9" x="88.01" y="262" width="8" height="2"/><rect class="cls-9" x="88.01" y="272" width="8" height="2"/><rect class="cls-9" x="88.01" y="274" width="6" height="2"/><rect class="cls-9" x="88.01" y="258" width="10" height="4"/><rect class="cls-9" x="10.01" y="284" width="12" height="2"/><rect class="cls-9" x="12.01" y="286" width="12" height="2"/><rect class="cls-9" x="16.01" y="288" width="12" height="2"/><rect class="cls-9" x="20.01" y="290" width="12" height="2"/><rect class="cls-9" x="10.01" y="292" width="28" height="2"/><rect class="cls-9" x="6.01" y="278" width="10" height="2"/><rect class="cls-9" x="4.01" y="276" width="10" height="2"/><rect class="cls-9" x="8.01" y="280" width="10" height="2"/><rect class="cls-9" x="6.01" y="282" width="14" height="2"/><rect class="cls-9" x="4.01" y="282" width="14" height="2"/><rect class="cls-9" x="6.01" y="274" width="8" height="2"/><rect class="cls-9" x="0.01" y="258" width="8" height="2"/><rect class="cls-9" x="0.01" y="244" width="8" height="2"/><rect class="cls-9" x="0.01" y="236" width="8" height="2"/><rect class="cls-9" x="88.01" y="236" width="8" height="2"/><rect class="cls-9" x="88.01" y="250" width="6" height="8"/><rect class="cls-9" x="88.01" y="248" width="8" height="2"/><rect class="cls-9" x="88.01" y="242" width="4" height="2"/><rect class="cls-9" x="88.01" y="240" width="8" height="2"/><rect class="cls-9" x="84.01" y="270" width="8" height="4"/><rect class="cls-9" x="82.01" y="274" width="10" height="4"/><rect class="cls-9" x="82.01" y="276" width="8" height="4"/><rect class="cls-9" x="80.01" y="278" width="16" height="2"/><rect class="cls-9" x="78.01" y="280" width="12" height="2"/><rect class="cls-9" x="76.01" y="282" width="16" height="2"/><rect class="cls-9" x="0.01" y="240" width="8" height="2"/><rect class="cls-9" x="4.01" y="268" width="6" height="2"/><rect class="cls-9" x="0.01" y="264" width="2" height="2"/><rect class="cls-9" x="6.01" y="262" width="2" height="2"/><rect class="cls-10" x="0.01" y="262" width="4" height="2"/><rect class="cls-10" x="0.01" y="246" width="4" height="2"/><rect class="cls-10" x="2.01" y="240" width="4" height="2"/><rect class="cls-10" x="2.01" y="274" width="4" height="2"/><rect class="cls-10" x="10.01" y="280" width="4" height="2"/><rect class="cls-10" x="92.01" y="274" width="4" height="2"/><rect class="cls-10" x="82.01" y="284" width="4" height="2"/><rect class="cls-10" x="6.01" y="284" width="4" height="2"/><rect class="cls-10" x="18.01" y="290" width="4" height="2"/><rect class="cls-10" x="10.01" y="290" width="4" height="2"/><rect class="cls-10" x="74.01" y="290" width="12" height="2"/><rect class="cls-10" x="6.01" y="294" width="10" height="2"/><rect class="cls-7" x="6.01" y="266" width="2" height="2"/><rect class="cls-10" x="8.01" y="270" width="2" height="2"/><rect class="cls-7" x="8.01" y="280" width="2" height="2"/><rect class="cls-9" x="4.01" y="280" width="2" height="2"/><rect class="cls-7" x="4.01" y="284" width="2" height="2"/><rect class="cls-7" x="32.01" y="294" width="2" height="2"/><rect class="cls-7" x="64.01" y="294" width="2" height="2"/><rect class="cls-7" x="72.01" y="292" width="2" height="2"/><rect class="cls-7" x="86.01" y="282" width="2" height="2"/><rect class="cls-7" x="94.01" y="260" width="2" height="2"/><rect class="cls-7" x="92.01" y="248" width="2" height="2"/><rect class="cls-7" x="2.01" y="250" width="4" height="8"/><rect class="cls-9" x="88.01" y="244" width="4" height="30"/><rect class="cls-9" x="86.01" y="264" width="6" height="6"/><rect class="cls-10" x="90.01" y="262" width="6" height="2"/><rect class="cls-10" x="92.01" y="258" width="2" height="2"/><g class="cls-11"><rect class="cls-9" x="96" y="10" width="2" height="2"/><path class="cls-9" d="M96,10V8h2V6H94V4H90V2H86V0H72V2H64V0H44V2H38V0H36V2H34V0H30V2H28V0H20V2H18V0H10V2h4V4H5V6H8V8H6v2H8v2H4v2H2v6H4v2H8v2H4v2H2v2H5v2H4v2H8v2H2v2H8v2H2v2H8v2H4v2H8v2H6v2H4v2H6v4H4v2H6v2H8v2H4v2H2v2H6v2H8v2H6v2H8v2H4v2H8v2H6v2H8v2H4v2H2v2H5v2H4v2H8v2H2v2H8v2H2v2H8v2H4v2H8v2H6v2H4v2H6v4H4v2H6v2H8v2H4v2H2v2H6v2H4v2H6v2H8v2H4v2H8v2H6v2H8v2H4v2H2v2H5v2H4v2H8v2H2v2H8v2H2v2H8v2H4v2H8v2H6v2H4v2H6v4H4v2H6v2H8v2H4v2H2v2H6v2H8v.52H.78v13H4V192H2v2H5v2H4v.52H3.78V200H2v2H3.78v2H2v2H3.78v3.52H4V210H8v2H6v2H4v2H6v4H4v2H6v2H8v2H4v2H2v2H6v2H8v2H4v2H0v2H8v2H0v2H4v2H0v4H2v4H0v2H4v2H0v4H2v2H4v2H0v4H2v2H4v2H6v2H4v6h8v2h4v2h2v2H14v-2H10v4H6v2H16v-2H26v4H84v-4H80v-2h6v-2h4v-2H86v-2h8v-2H92v-2H90v-2h6v-2H92v-2h4v-4H92v-8h4v-2h2v-4H94v-2h2v-2H92v-6h4v-2H88v-2h8v-2H92v-2H90v-2h5v-2H92v-2h2v-2H92v-2h4v-2h2v-6H96v-2H90v-2h6v-2h2v-2H95v-2h1v-2H92v-2h6v-2H92v-2h6v-2H88v-2h8v-2H90v-2H88v-2h2v-2h4v-4h2v-2H94v-2H92v-2h4v-2h2v-2H94v-2H90v-2h4v-2H92v-2h4v-2H92v-2h2v-2H90v-2h6v-2h2v-2H95v-2h1v-2H92v-2h6v-2H88v-2H98v-2H88v-2h8v-2H90v-2H88v-2h2v-2h4v-4h2v-2H94v-2H92v-2h4v-2h2v-2H94v-2h2v-2H94v-2H92v-2h4v-2H92v-2h2v-2H92v-2h4V98h2V96H95V94h1V92H92V90h6V88H92V86h6V84H92V82h4V80H90V78H88V76h2V74h4V70h2V68H94V66H92V64h4V62h2V60H94V58H90V56h4V54H92V52h4V50H92V48h2V46h2V44h2V42H95V40h1V38H92V36h6V34H88V32H98V30H88V28h8V26H90V24H88V22h2V20h4V16h2V14H94V12H92V10ZM64,90H60v4H54v2H42V94H36V90H32V72h4V68h6V66H54v2h6v4h4Z"/><rect class="cls-9" x="96" y="46" width="2" height="2"/><rect class="cls-9" x="94" y="186" width="2" height="2"/><rect class="cls-9" x="94" y="130" width="2" height="2"/><rect class="cls-9" x="94" y="74" width="2" height="2"/><rect class="cls-9" x="94" y="20" width="2" height="2"/><rect class="cls-9" x="90" width="6" height="2"/><rect class="cls-9" x="92" y="188" width="2" height="2"/><rect class="cls-9" x="92" y="132" width="2" height="2"/><rect class="cls-9" x="92" y="76" width="2" height="2"/><rect class="cls-9" x="92" y="22" width="2" height="2"/><rect class="cls-9" x="2" y="114" width="2" height="2"/><rect class="cls-9" x="2" y="170" width="2" height="2"/><rect class="cls-9" x="2" y="126" width="2" height="2"/><rect class="cls-9" x="2" y="132" width="2" height="2"/><rect class="cls-9" x="2" y="58" width="2" height="2"/><rect class="cls-9" x="2" y="70" width="2" height="2"/><rect class="cls-9" x="2" y="224" width="2" height="2"/><rect class="cls-9" x="2" y="76" width="2" height="2"/><rect class="cls-9" x="96" y="158" width="2" height="2"/><rect class="cls-9" x="96" y="52" width="2" height="2"/><rect class="cls-9" x="96" y="64" width="2" height="2"/><rect class="cls-9" x="96" y="176" width="2" height="2"/><rect class="cls-9" x="96" y="120" width="2" height="2"/><rect class="cls-9" x="96" y="164" width="2" height="2"/><rect class="cls-9" x="96" y="108" width="2" height="2"/><rect class="cls-9" x="96" y="102" width="2" height="2"/></g><rect class="cls-5" x="46" y="81" width="2" height="8"/><rect class="cls-4" x="47" y="82.02" width="1" height="6.98"/><rect class="cls-7" x="68" y="78" width="6" height="2"/><rect class="cls-12" x="14" y="132" width="20" height="2"/><rect class="cls-7" x="14" y="126" width="4" height="2"/><rect class="cls-7" x="18" y="178" width="4" height="2"/><rect class="cls-9" x="26" y="178" width="6" height="2"/><rect class="cls-10" x="24" y="178" width="6" height="2"/><rect class="cls-13" x="56.78" y="138.52" width="15" height="3"/><rect class="cls-13" x="60" y="204" width="12" height="2.03"/><rect class="cls-7" x="22" y="232" width="4" height="2.03"/><rect class="cls-13" x="34" y="198" width="12" height="2.03"/><rect class="cls-13" x="26" y="152.03" width="26" height="1.97"/><rect class="cls-13" x="66" y="64" width="10" height="2"/><rect class="cls-13" x="40" y="30" width="26" height="2"/><rect class="cls-13" x="18" y="52" width="14" height="2"/><rect class="cls-9" x="36" y="46" width="28" height="2"/><rect class="cls-9" x="64" y="30" width="6" height="2"/><rect class="cls-9" x="68" y="34" width="2" height="2"/><rect class="cls-9" x="66" y="36" width="2" height="2"/><rect class="cls-9" x="68" y="40" width="2" height="2"/><rect class="cls-9" x="66" y="46" width="4" height="2"/><rect class="cls-9" x="64" y="50" width="2" height="2"/><rect class="cls-9" x="32" y="58" width="2" height="2"/><rect class="cls-9" x="26" y="56" width="4" height="2"/><rect class="cls-9" x="46" y="58" width="2" height="2"/><rect class="cls-9" x="44" y="56" width="2" height="2"/><rect class="cls-9" x="50" y="56" width="6" height="2"/><rect class="cls-9" x="56" y="58" width="2" height="2"/><rect class="cls-9" x="18" y="78" width="4" height="2"/><rect class="cls-9" x="16" y="76" width="2" height="2"/><rect class="cls-9" x="16" y="86" width="6" height="2"/><rect class="cls-9" x="28" y="62" width="10" height="2"/><rect class="cls-9" x="66" y="24" width="2" height="2"/><rect class="cls-9" x="58" y="22" width="6" height="2"/><rect class="cls-9" x="52" y="8" width="6" height="2"/><rect class="cls-10" x="28" y="48" width="2" height="2"/><rect class="cls-10" x="72" y="4" width="2" height="2"/><rect class="cls-10" x="40" y="58" width="6" height="2"/><rect class="cls-10" x="18" y="68" width="6" height="2"/><rect class="cls-10" x="58" y="62" width="6" height="2"/><rect class="cls-10" x="20" y="44" width="4" height="2"/><rect class="cls-10" x="16" y="30" width="8" height="2"/><rect class="cls-10" x="26" y="24" width="4" height="2"/><rect class="cls-10" x="50" y="8" width="4" height="2"/><rect class="cls-10" x="12" y="8" width="4" height="2"/><rect class="cls-10" x="66" y="48" width="2" height="2"/><rect class="cls-10" x="69.78" y="53.52" width="2" height="2"/><rect class="cls-10" x="73.78" y="57.52" width="6" height="2"/><rect class="cls-12" x="32" y="214" width="14" height="2"/><rect class="cls-9" x="30" y="242" width="8" height="2"/><rect class="cls-12" x="36" y="176" width="10" height="2"/><rect class="cls-12" x="52" y="170" width="12" height="2"/><rect class="cls-12" x="40" y="158" width="14" height="2"/><rect class="cls-12" x="56" y="148" width="14" height="2"/><rect class="cls-12" x="22" y="204" width="10" height="2"/><rect class="cls-12" x="66" y="228" width="6" height="2"/><rect class="cls-9" x="62" y="152" width="6" height="2"/><rect class="cls-9" x="70" y="154" width="2" height="2"/><rect class="cls-9" x="68" y="162" width="2" height="2"/><rect class="cls-9" x="62" y="162" width="4" height="2"/><rect class="cls-9" x="22" y="176" width="2" height="2"/><rect class="cls-9" x="24" y="168" width="6" height="2"/><rect class="cls-9" x="22" y="160" width="2" height="2"/><rect class="cls-9" x="50" y="178" width="6" height="2"/><rect class="cls-12" x="56" y="180" width="2" height="2"/><rect class="cls-9" x="18" y="184" width="10" height="2"/><rect class="cls-9" x="48" y="238" width="10" height="2"/><rect class="cls-9" x="26" y="232" width="10" height="2"/><rect class="cls-9" x="50" y="186" width="4" height="2"/><rect class="cls-9" x="46" y="198" width="4" height="2"/><rect class="cls-9" x="18" y="204" width="4" height="2"/><rect class="cls-9" x="70" y="146" width="2" height="2"/><rect class="cls-9" x="63.78" y="141.52" width="6" height="2"/><rect class="cls-10" x="40" y="214" width="2" height="2"/><rect class="cls-7" x="26" y="212" width="2" height="2"/><rect class="cls-10" x="38" y="180" width="6" height="2"/><rect class="cls-10" x="61.78" y="179.52" width="6" height="2"/><rect class="cls-10" x="28" y="214" width="4" height="2"/><rect class="cls-10" x="42" y="164" width="4" height="2"/><rect class="cls-10" x="26" y="146" width="4" height="2"/><rect class="cls-10" x="18" y="160" width="4" height="2"/><rect class="cls-12" x="24" y="160" width="8" height="2"/><rect class="cls-10" x="66" y="170" width="2" height="2"/><rect class="cls-10" x="69.78" y="175.52" width="2" height="2"/><rect class="cls-10" x="73.78" y="179.52" width="6" height="2"/><rect class="cls-9" x="62" y="230" width="6" height="2"/><rect class="cls-9" x="68" y="236" width="2" height="2"/><rect class="cls-9" x="66" y="238" width="2" height="2"/><rect class="cls-9" x="46" y="250" width="8" height="8"/><rect class="cls-9" x="66" y="248" width="4" height="2"/><rect class="cls-7" x="58" y="258" width="2" height="2"/><rect class="cls-9" x="36" y="262" width="2" height="2"/><rect class="cls-9" x="44" y="266" width="2" height="2"/><rect class="cls-9" x="42" y="264" width="2" height="2"/><rect class="cls-12" x="50" y="264" width="6" height="2"/><rect class="cls-12" x="22" y="274" width="6" height="2"/><rect class="cls-12" x="28" y="260" width="6" height="2"/><rect class="cls-9" x="56" y="266" width="2" height="2"/><rect class="cls-9" x="49.78" y="273.52" width="4" height="2"/><rect class="cls-9" x="64" y="226" width="2" height="2"/><rect class="cls-9" x="50" y="222" width="2" height="2"/><rect class="cls-9" x="54" y="222" width="10" height="2"/><rect class="cls-10" x="38" y="266" width="6" height="2"/><rect class="cls-10" x="60" y="260" width="6" height="2"/><rect class="cls-10" x="22" y="258" width="8" height="2"/><rect class="cls-10" x="26" y="240" width="2" height="2"/><rect class="cls-10" x="38" y="242" width="2" height="2"/><rect class="cls-10" x="58" y="248" width="2" height="2"/><rect class="cls-10" x="70" y="262" width="2" height="2"/><rect class="cls-12" x="74" y="266" width="12" height="2"/><rect class="cls-3" x="37.01" y="60" width="1" height="18"/><rect class="cls-5" x="36.01" y="60" width="1" height="18"/><rect class="cls-14" x="36.01" y="58" width="2" height="2"/><rect class="cls-5" x="46" y="77" width="2" height="5"/><rect class="cls-5" x="44" y="73" width="6" height="6"/><rect class="cls-15" x="45" y="76" width="2" height="2"/><rect class="cls-3" x="45" y="74" width="2" height="2"/><rect class="cls-16" x="47" y="74" width="2" height="2" transform="translate(96 150) rotate(-180)"/><rect class="cls-17" x="47" y="76" width="2" height="2" transform="translate(96 154) rotate(-180)"/><rect class="cls-3" x="44" y="78" width="6" height="1"/><rect class="cls-7" x="44" y="73" width="3" height="1"/><rect class="cls-4" x="46" y="79" width="2" height="1"/><rect class="cls-4" x="47" y="79" width="1" height="3"/><g class="cls-18"><rect class="cls-15" x="34" y="82" width="2" height="2"/><rect class="cls-15" x="54" y="84" width="2" height="2"/><path class="cls-9" d="M62,78v2H60v2H58v4H56v2H54V86H52V84h2V82H50v4H48V82H46v2H42v4H40V82H38v2H36v2H34V84H32v6h4v4h6v2H54V94h6V90h4V78Zm0,8H60V84h2Z"/></g><rect class="cls-12" x="50" y="36" width="14" height="2"/><rect class="cls-12" x="44" y="48" width="14" height="2"/><rect class="cls-12" x="36" y="26" width="14" height="2"/><rect class="cls-12" x="74" y="8" width="14" height="2"/><rect class="cls-12" x="12" y="16" width="14" height="2"/><polygon class="cls-19" points="78 96 78 98 80 98 80 100 78 100 78 102 80 102 80 104 76 104 76 120 78 120 78 122 80 122 80 124 78 124 78 126 74 126 74 128 66 128 66 130 64 130 64 132 38 132 38 128 64 128 64 126 68 126 68 124 70 124 70 120 72 120 72 82 74 82 74 84 80 84 80 86 76 86 76 88 80 88 80 90 78 90 78 92 80 92 80 94 82 94 82 96 78 96"/><rect class="cls-20" x="86" y="34" width="2" height="230"/><polygon class="cls-21" points="80 274 80 280 78.01 280 78.01 282 76.01 282 76.01 284 74.01 284 74.01 286 72.01 286 72.01 288 68.01 288 68.01 290 64.01 290 64.01 292 58.01 292 58.01 294 38.01 294 38.01 292 32.01 292 32.01 290 28.01 290 28.01 288 24.01 288 24.01 286 22.01 286 22.01 284 20.01 284 20.01 282 18.01 282 18.01 278 20.01 278 20.01 280 22.01 280 22.01 282 24.01 282 24.01 284 26.01 284 26.01 286 30.01 286 30.01 288 34.01 288 34.01 290 40 290 40 288 58 288 58 286 64 286 64 284 60 284 60 282 62 282 62 280 66 280 66 278 64 278 64 276 72 276 72 274 80 274"/><rect class="cls-22" x="84" y="28" width="2" height="242"/><rect class="cls-23" x="82" y="24" width="2" height="250"/><rect class="cls-23" x="80" y="20" width="2" height="258"/><rect class="cls-20" x="8" y="34" width="2" height="230" transform="translate(18 298) rotate(-180)"/><rect class="cls-22" x="10" y="28" width="2" height="242" transform="translate(22 298) rotate(-180)"/><rect class="cls-23" x="12" y="24" width="2" height="250" transform="translate(26 298) rotate(-180)"/><rect class="cls-23" x="14" y="20" width="2" height="258" transform="translate(30 298) rotate(-180)"/><rect class="cls-19" x="84" y="262" width="2" height="8"/><g id="life_preserver" data-name="life preserver"><rect class="cls-5" x="83.95" y="118.41" width="2" height="2"/><rect class="cls-5" x="88.95" y="115.41" width="1" height="1"/><rect class="cls-5" x="88.95" y="114.41" width="2" height="2"/><polygon class="cls-12" points="91.95 110.41 91.95 116.41 90.95 116.41 90.95 117.41 89.95 117.41 89.95 120.41 85.95 120.41 85.95 121.41 79.95 121.41 79.95 119.41 85.95 119.41 85.95 118.41 87.95 118.41 87.95 116.41 89.95 116.41 89.95 110.41 91.95 110.41"/><rect class="cls-12" x="79.95" y="110.41" width="2" height="2"/><rect class="cls-12" x="77.95" y="112.41" width="2" height="2"/><polygon class="cls-12" points="86.95 104.41 86.95 108.41 83.95 108.41 83.95 110.41 81.95 110.41 81.95 108.41 79.95 108.41 79.95 110.41 77.95 110.41 77.95 116.41 75.95 116.41 75.95 106.41 77.95 106.41 77.95 104.41 86.95 104.41"/><rect class="cls-7" x="72.95" y="108.41" width="2" height="6"/><rect class="cls-24" x="73.95" y="106.41" width="2" height="2"/><rect class="cls-7" x="74.95" y="104.41" width="2" height="2"/><rect class="cls-24" x="76.95" y="103.41" width="2" height="2"/><rect class="cls-7" x="78.95" y="102.41" width="6" height="2"/><rect class="cls-24" x="84.95" y="103.41" width="2" height="2" transform="translate(190.36 18.46) rotate(90)"/><rect class="cls-7" x="86.95" y="104.41" width="2" height="2" transform="translate(193.36 17.46) rotate(90)"/><rect class="cls-24" x="87.95" y="106.41" width="2" height="2" transform="translate(196.36 18.46) rotate(90)"/><rect class="cls-7" x="86.95" y="110.41" width="6" height="2" transform="translate(201.36 21.46) rotate(90)"/><rect class="cls-7" x="88.95" y="108.41" width="2" height="6" transform="translate(179.9 222.82) rotate(-180)"/><rect class="cls-24" x="87.95" y="114.41" width="2" height="2" transform="translate(177.9 230.82) rotate(-180)"/><rect class="cls-7" x="86.95" y="116.41" width="2" height="2" transform="translate(175.9 234.82) rotate(-180)"/><rect class="cls-24" x="84.95" y="117.41" width="2" height="2" transform="translate(171.9 236.82) rotate(-180)"/><rect class="cls-7" x="78.95" y="118.41" width="6" height="2" transform="translate(163.9 238.82) rotate(-180)"/><rect class="cls-24" x="76.95" y="117.41" width="2" height="2" transform="translate(-40.46 196.36) rotate(-90)"/><rect class="cls-7" x="74.95" y="116.41" width="2" height="2" transform="translate(-41.46 193.36) rotate(-90)"/><rect class="cls-24" x="73.95" y="114.41" width="2" height="2" transform="translate(-40.46 190.36) rotate(-90)"/><rect class="cls-7" x="70.95" y="110.41" width="6" height="2" transform="translate(-37.46 185.36) rotate(-90)"/><rect class="cls-16" x="72.45" y="110.91" width="6" height="1" transform="translate(-35.96 186.86) rotate(-90)"/><rect class="cls-25" x="74.45" y="110.91" width="2" height="1" transform="translate(-35.96 186.86) rotate(-90)"/><rect class="cls-16" x="85.45" y="110.91" width="6" height="1" transform="translate(-22.96 199.86) rotate(-90)"/><rect class="cls-25" x="87.45" y="110.91" width="2" height="1" transform="translate(-22.96 199.86) rotate(-90)"/><rect class="cls-16" x="78.95" y="104.41" width="6" height="1"/><rect class="cls-25" x="80.95" y="104.41" width="2" height="1"/><rect class="cls-16" x="78.95" y="117.41" width="6" height="1"/><rect class="cls-25" x="80.95" y="117.41" width="2" height="1"/><rect class="cls-24" x="72.95" y="110.41" width="2" height="2" transform="translate(-37.46 185.36) rotate(-90)"/><rect class="cls-24" x="80.95" y="102.41" width="2" height="2"/><rect class="cls-24" x="88.95" y="110.41" width="2" height="2"/><rect class="cls-24" x="80.95" y="118.41" width="2" height="2"/><rect class="cls-25" x="84.95" y="105.41" width="2" height="1"/><rect class="cls-25" x="76.95" y="105.41" width="2" height="1"/><rect class="cls-25" x="84.95" y="116.41" width="2" height="1"/><rect class="cls-25" x="76.95" y="116.41" width="2" height="1"/><rect class="cls-25" x="86.45" y="114.91" width="2" height="1" transform="translate(202.86 27.96) rotate(90)"/><rect class="cls-25" x="86.45" y="106.91" width="2" height="1" transform="translate(194.86 19.96) rotate(90)"/><rect class="cls-25" x="75.45" y="114.91" width="2" height="1" transform="translate(191.86 38.96) rotate(90)"/><rect class="cls-25" x="75.45" y="106.91" width="2" height="1" transform="translate(183.86 30.96) rotate(90)"/><rect class="cls-26" x="55.95" y="119.41" width="6" height="1" transform="translate(117.9 239.82) rotate(180)"/><rect class="cls-27" x="61.95" y="119.41" width="1" height="1" transform="translate(124.9 239.82) rotate(180)"/><rect class="cls-7" x="62.95" y="119.41" width="1" height="1" transform="translate(126.9 239.82) rotate(180)"/><rect class="cls-27" x="67.95" y="115.41" width="1" height="1" transform="translate(136.9 231.82) rotate(180)"/><rect class="cls-27" x="71.95" y="109.41" width="1" height="1" transform="translate(144.9 219.82) rotate(180)"/><rect class="cls-27" x="69.95" y="113.41" width="2" height="1" transform="translate(141.9 227.82) rotate(180)"/><rect class="cls-7" x="68.95" y="113.41" width="1" height="3" transform="translate(138.9 229.82) rotate(180)"/><rect class="cls-7" x="70.95" y="110.41" width="1" height="3" transform="translate(142.9 223.82) rotate(180)"/><rect class="cls-7" x="64.95" y="115.41" width="3" height="1" transform="translate(132.9 231.82) rotate(180)"/><rect class="cls-7" x="63.95" y="115.41" width="1" height="5" transform="translate(128.9 235.82) rotate(180)"/><rect class="cls-28" x="54.95" y="118.41" width="1" height="1" transform="translate(110.9 237.82) rotate(180)"/><rect class="cls-28" x="53.95" y="117.41" width="1" height="1" transform="translate(108.9 235.82) rotate(180)"/><rect class="cls-28" x="52.95" y="116.41" width="1" height="1" transform="translate(106.9 233.82) rotate(180)"/></g><rect class="cls-3" x="34" y="128" width="6" height="2"/><rect class="cls-3" x="32" y="126" width="6" height="2"/><rect class="cls-29" x="44" y="108" width="12" height="2"/><rect class="cls-29" x="54" y="106" width="6" height="2"/><rect class="cls-29" x="58" y="104" width="6" height="2"/><rect class="cls-29" x="60" y="102" width="6" height="2"/><rect class="cls-29" x="64" y="98" width="4" height="2"/><rect class="cls-29" x="64" y="100" width="6" height="2"/><rect class="cls-29" x="64" y="94" width="4" height="2"/><rect class="cls-29" x="64" y="92" width="4" height="2"/><rect class="cls-29" x="64" y="84" width="4" height="2"/><rect class="cls-29" x="64" y="90" width="6" height="2"/><rect class="cls-29" x="64" y="82" width="2" height="2"/><rect class="cls-29" x="68" y="88" width="2" height="2"/><rect class="cls-29" x="70" y="92" width="2" height="2"/><rect class="cls-29" x="66" y="104" width="2" height="2"/><rect class="cls-29" x="64" y="106" width="2" height="2"/><rect class="cls-29" x="62" y="108" width="2" height="2"/><rect class="cls-29" x="60" y="106" width="2" height="2"/><rect class="cls-29" x="70" y="84" width="2" height="2"/><rect class="cls-29" x="64" y="86" width="6" height="2"/><rect class="cls-29" x="64" y="88" width="2" height="2"/><rect class="cls-29" x="64" y="96" width="6" height="2"/><rect x="58" y="274" width="0.01" height="2"/><rect class="cls-21" x="34" y="288" width="6" height="2"/><rect class="cls-21" x="54" y="284" width="6" height="2"/><rect class="cls-21" x="56" y="278" width="6" height="2"/><rect class="cls-21" x="38" y="292" width="20" height="2"/><rect class="cls-21" x="54" y="290" width="10" height="2"/><rect class="cls-21" x="58" y="288" width="10" height="2"/><rect class="cls-21" x="66" y="286" width="6" height="2"/><rect class="cls-21" x="70" y="284" width="4" height="2"/><rect class="cls-21" x="72" y="282" width="4" height="2"/><rect class="cls-21" x="74" y="280" width="4" height="2"/><rect class="cls-21" x="76" y="278" width="4" height="2"/><rect class="cls-21" x="46" y="286" width="6" height="2"/><rect class="cls-21" x="40" y="282" width="6" height="2"/><rect class="cls-21" x="40" y="286" width="4" height="2"/><rect class="cls-21" x="50" y="280" width="2" height="2"/><rect class="cls-21" x="66" y="274" width="2" height="2"/><rect class="cls-21" x="70" y="272" width="2" height="2"/><rect class="cls-21" x="72" y="270" width="2" height="2"/><rect class="cls-21" x="76" y="268" width="2" height="2"/><rect class="cls-21" x="78" y="266" width="2" height="2"/><rect class="cls-21" x="78" y="262" width="2" height="2"/><rect class="cls-21" x="82" y="260" width="2" height="2"/><rect class="cls-21" x="82" y="266" width="2" height="2"/><rect class="cls-21" x="80" y="264" width="2" height="2"/><rect class="cls-21" x="78" y="258" width="2" height="2"/><rect class="cls-21" x="54" y="280" width="2" height="2"/><rect class="cls-21" x="38" y="284" width="2" height="2"/><rect class="cls-21" x="34" y="284" width="2" height="2"/><rect class="cls-21" x="26" y="280" width="2" height="2"/><rect class="cls-21" x="28" y="282" width="2" height="2"/><rect class="cls-21" x="30" y="284" width="2" height="2"/><rect class="cls-21" x="32" y="280" width="2" height="2"/><rect class="cls-21" x="22" y="278" width="2" height="2"/><rect class="cls-21" x="16" y="278" width="2" height="2"/><rect class="cls-21" x="14" y="276" width="2" height="2"/><rect class="cls-21" x="14" y="274" width="2" height="2"/><rect class="cls-21" x="12" y="272" width="2" height="2"/><rect class="cls-21" x="12" y="270" width="2" height="2"/><rect class="cls-21" x="12" y="268" width="2" height="2"/><rect class="cls-21" x="16" y="274" width="2" height="6"/><rect class="cls-21" x="32" y="286" width="2" height="2"/><rect class="cls-21" x="80" y="272" width="2" height="6"/><rect class="cls-21" x="82" y="268" width="2" height="6"/></g></g></svg>