<?xml version="1.0" encoding="utf-8"?>
<!-- Generator: Adobe Illustrator 25.1.0, SVG Export Plug-In . SVG Version: 6.00 Build 0)  -->
<svg version="1.1" id="Layer_1" xmlns="http://www.w3.org/2000/svg" xmlns:xlink="http://www.w3.org/1999/xlink" x="0px" y="0px"
	 viewBox="0 0 100 300" style="enable-background:new 0 0 100 300;" xml:space="preserve">
<style type="text/css">
	.st0{fill:#235FDA;}
	.st1{fill:#FFFFFF;}
	.st2{fill:#6CDFFB;}
	.st3{fill:#96A5AB;}
	.st4{fill:#586C79;}
	.st5{fill:#2A3747;}
	.st6{fill:#182028;}
	.st7{fill:#293746;}
	.st8{fill:#69DEFF;}
	.st9{fill:#34A4FE;}
	.st10{fill:#3259E2;}
	.st11{fill:#9F1E31;}
	.st12{fill:#080D11;}
</style>
<rect x="7" y="35" class="st0" width="84" height="188"/>
<g>
	<g>
		<rect x="3" y="260" class="st0" width="8" height="4"/>
		<rect x="3" y="250" class="st0" width="6" height="4"/>
		<rect x="5" y="244" class="st0" width="4" height="14"/>
		<rect x="1" y="266" class="st0" width="12" height="4"/>
		<rect x="26.6" y="290" class="st0" width="58" height="4"/>
		<rect x="58.6" y="288" class="st0" width="22" height="4"/>
		<rect x="64.6" y="286" class="st0" width="22" height="2"/>
		<rect x="68.6" y="284" class="st0" width="22" height="2"/>
		<rect x="72.6" y="282" class="st0" width="14" height="2"/>
		<rect x="74.6" y="280" class="st0" width="20" height="2"/>
		<rect x="88.6" y="258" class="st0" width="8" height="2"/>
		<rect x="88.6" y="268" class="st0" width="8" height="2"/>
		<rect x="88.6" y="270" class="st0" width="6" height="2"/>
		<rect x="88.6" y="254" class="st0" width="10" height="4"/>
		<rect x="11" y="280" class="st0" width="12" height="2"/>
		<rect x="13" y="282" class="st0" width="12" height="2"/>
		<rect x="16.6" y="284" class="st0" width="12" height="2"/>
		<rect x="20.6" y="286" class="st0" width="12" height="2"/>
		<rect x="10.6" y="288" class="st0" width="28" height="2"/>
		<rect x="7" y="274" class="st0" width="10" height="2"/>
		<rect x="5" y="272" class="st0" width="10" height="2"/>
		<rect x="9" y="276" class="st0" width="10" height="2"/>
		<rect x="6.6" y="278" class="st0" width="14" height="2"/>
		<rect x="5" y="278" class="st0" width="14" height="2"/>
		<rect x="6.6" y="270" class="st0" width="8" height="2"/>
		<rect x="0.6" y="254" class="st0" width="8" height="2"/>
		<rect x="0.6" y="246" class="st0" width="8" height="2"/>
		<rect x="1" y="238" class="st0" width="8" height="2"/>
		<rect x="88.6" y="238" class="st0" width="8" height="2"/>
		<rect x="88.6" y="252" class="st0" width="6" height="2"/>
		<rect x="88.6" y="250" class="st0" width="8" height="2"/>
		<rect x="88.6" y="244" class="st0" width="4" height="2"/>
		<rect x="88.6" y="242" class="st0" width="8" height="2"/>
		<rect x="84.6" y="266" class="st0" width="8" height="4"/>
		<rect x="82.6" y="270" class="st0" width="10" height="4"/>
		<rect x="82.6" y="272" class="st0" width="8" height="4"/>
		<rect x="80.6" y="274" class="st0" width="16" height="2"/>
		<rect x="78.6" y="276" class="st0" width="12" height="2"/>
		<rect x="76.6" y="278" class="st0" width="16" height="2"/>
		<rect x="1" y="242" class="st0" width="8" height="2"/>
		<rect x="5" y="264" class="st0" width="6" height="2"/>
		<rect x="0.6" y="260" class="st0" width="2" height="2"/>
		<rect x="7" y="258" class="st0" width="2" height="2"/>
		<rect x="4.6" y="276" class="st0" width="2" height="2"/>
		<rect x="88.6" y="246" class="st0" width="4" height="24"/>
		<rect x="86.6" y="260" class="st0" width="6" height="6"/>
	</g>
	<rect x="32.6" y="290" class="st1" width="2" height="2"/>
	<rect x="64.6" y="290" class="st1" width="2" height="2"/>
	<rect x="72.6" y="288" class="st1" width="2" height="2"/>
	<g>
		<rect x="0.6" y="258" class="st2" width="4" height="2"/>
		<rect x="1" y="248" class="st2" width="4" height="2"/>
		<rect x="2.6" y="270" class="st2" width="4" height="2"/>
		<rect x="10.6" y="276" class="st2" width="4" height="2"/>
		<rect x="92.6" y="270" class="st2" width="4" height="2"/>
		<rect x="82.6" y="280" class="st2" width="4" height="2"/>
		<rect x="6.6" y="280" class="st2" width="4" height="2"/>
		<rect x="18.6" y="286" class="st2" width="4" height="2"/>
		<rect x="10.6" y="286" class="st2" width="4" height="2"/>
		<rect x="74.6" y="286" class="st2" width="12" height="2"/>
		<rect x="6.6" y="290" class="st2" width="10" height="2"/>
		<rect x="8.6" y="266" class="st2" width="2" height="2"/>
		<rect x="90.6" y="258" class="st2" width="6" height="2"/>
		<rect x="92.6" y="254" class="st2" width="2" height="2"/>
	</g>
</g>
<rect x="88" y="36" transform="matrix(-1 -8.981273e-11 8.981273e-11 -1 184 76)" class="st0" width="8" height="4"/>
<rect x="90.2" y="46" transform="matrix(-1 -8.973679e-11 8.973679e-11 -1 186.4429 96)" class="st0" width="6" height="4"/>
<rect x="90.2" y="42" transform="matrix(-1 -8.958535e-11 8.958535e-11 -1 184.4429 98)" class="st0" width="4" height="14"/>
<rect x="80" y="30" transform="matrix(-1 -5.982471e-11 5.982471e-11 -1 178 64)" class="st0" width="18" height="4"/>
<rect x="14.6" y="6" transform="matrix(-1 -8.978919e-11 8.978919e-11 -1 87.2215 16)" class="st0" width="58" height="4"/>
<rect x="18.6" y="8" transform="matrix(-1 -8.979185e-11 8.979185e-11 -1 59.2215 20)" class="st0" width="22" height="4"/>
<rect x="12.6" y="12" transform="matrix(-1 -8.979185e-11 8.979185e-11 -1 47.2215 26)" class="st0" width="22" height="2"/>
<rect x="8.6" y="14" transform="matrix(-1 -8.979185e-11 8.979185e-11 -1 39.2215 30)" class="st0" width="22" height="2"/>
<rect x="12.6" y="16" transform="matrix(-1 -8.978031e-11 8.978031e-11 -1 39.2215 34)" class="st0" width="14" height="2"/>
<rect x="4.6" y="18" transform="matrix(-1 -8.981273e-11 8.981273e-11 -1 29.2215 38)" class="st0" width="20" height="2"/>
<rect x="2.6" y="40" transform="matrix(-1 -8.981273e-11 8.981273e-11 -1 13.2215 82)" class="st0" width="8" height="2"/>
<rect x="2.6" y="30" transform="matrix(-1 -8.981273e-11 8.981273e-11 -1 13.2215 62)" class="st0" width="8" height="2"/>
<rect x="6" y="32" transform="matrix(-1 -8.981273e-11 8.981273e-11 -1 20 66)" class="st0" width="8" height="2"/>
<rect x="4" y="34" transform="matrix(-1 -8.981273e-11 8.981273e-11 -1 16 70)" class="st0" width="8" height="2"/>
<rect x="2" y="36" transform="matrix(-1 -8.981273e-11 8.981273e-11 -1 12 74)" class="st0" width="8" height="2"/>
<rect x="4" y="38" transform="matrix(-1 -8.981273e-11 8.981273e-11 -1 16 78)" class="st0" width="8" height="2"/>
<rect x="4.6" y="28" transform="matrix(-1 -8.988867e-11 8.988867e-11 -1 15.2215 58)" class="st0" width="6" height="2"/>
<rect x="0.6" y="42" transform="matrix(-1 -8.985802e-11 8.985802e-11 -1 11.2215 88)" class="st0" width="10" height="4"/>
<rect x="76.2" y="18" transform="matrix(-1 -8.981273e-11 8.981273e-11 -1 164.4429 38)" class="st0" width="12" height="2"/>
<rect x="74.2" y="16" transform="matrix(-1 -8.981273e-11 8.981273e-11 -1 160.4429 34)" class="st0" width="12" height="2"/>
<rect x="70.6" y="14" transform="matrix(-1 -8.981273e-11 8.981273e-11 -1 153.2215 30)" class="st0" width="12" height="2"/>
<rect x="66.6" y="12" transform="matrix(-1 -8.981273e-11 8.981273e-11 -1 145.2215 26)" class="st0" width="12" height="2"/>
<rect x="60.6" y="10" transform="matrix(-1 -8.978031e-11 8.978031e-11 -1 149.2215 22)" class="st0" width="28" height="2"/>
<rect x="82.2" y="24" transform="matrix(-1 -8.976743e-11 8.976743e-11 -1 174.4429 50)" class="st0" width="10" height="2"/>
<rect x="81" y="26" transform="matrix(-1 -6.905156e-11 6.905156e-11 -1 175 54)" class="st0" width="13" height="2"/>
<rect x="80.2" y="22" transform="matrix(-1 -8.985802e-11 8.985802e-11 -1 170.4429 46)" class="st0" width="10" height="2"/>
<rect x="78.6" y="20" transform="matrix(-1 -8.978031e-11 8.978031e-11 -1 171.2215 42)" class="st0" width="14" height="2"/>
<rect x="80.2" y="20" transform="matrix(-1 -8.978031e-11 8.978031e-11 -1 174.4429 42)" class="st0" width="14" height="2"/>
<rect x="84.6" y="28" transform="matrix(-1 -8.969904e-11 8.969904e-11 -1 177.2215 58)" class="st0" width="8" height="2"/>
<rect x="90.6" y="44" transform="matrix(-1 -8.981273e-11 8.981273e-11 -1 189.2215 90)" class="st0" width="8" height="2"/>
<rect x="90.6" y="52" transform="matrix(-1 -8.981273e-11 8.981273e-11 -1 189.2215 106)" class="st0" width="8" height="2"/>
<rect x="90.2" y="60" transform="matrix(-1 -8.969904e-11 8.969904e-11 -1 188.4429 122)" class="st0" width="8" height="2"/>
<rect x="84" y="62" transform="matrix(-1 -8.969904e-11 8.969904e-11 -1 176 126)" class="st0" width="8" height="2"/>
<rect x="86" y="64" transform="matrix(-1 -8.969904e-11 8.969904e-11 -1 180 130)" class="st0" width="8" height="2"/>
<rect x="90" y="66" transform="matrix(-1 -8.969904e-11 8.969904e-11 -1 188 134)" class="st0" width="8" height="2"/>
<rect x="89" y="68" transform="matrix(-1 -8.969904e-11 8.969904e-11 -1 186 138)" class="st0" width="8" height="2"/>
<rect x="87" y="72" transform="matrix(-1 -8.969904e-11 8.969904e-11 -1 182 146)" class="st0" width="8" height="2"/>
<rect x="89" y="74" transform="matrix(-1 -8.969904e-11 8.969904e-11 -1 186 150)" class="st0" width="8" height="2"/>
<rect x="87" y="76" transform="matrix(-1 -8.969904e-11 8.969904e-11 -1 182 154)" class="st0" width="8" height="2"/>
<rect x="86" y="78" transform="matrix(-1 -8.969904e-11 8.969904e-11 -1 180 158)" class="st0" width="8" height="2"/>
<rect x="84" y="80" transform="matrix(-1 -8.969904e-11 8.969904e-11 -1 176 162)" class="st0" width="8" height="2"/>
<rect x="88" y="82" transform="matrix(-1 -8.969904e-11 8.969904e-11 -1 184 166)" class="st0" width="8" height="2"/>
<rect x="86" y="84" transform="matrix(-1 -8.969904e-11 8.969904e-11 -1 180 170)" class="st0" width="8" height="2"/>
<rect x="90" y="86" transform="matrix(-1 -8.969904e-11 8.969904e-11 -1 188 174)" class="st0" width="8" height="2"/>
<rect x="86" y="88" transform="matrix(-1 -8.969904e-11 8.969904e-11 -1 180 178)" class="st0" width="8" height="2"/>
<rect x="88" y="89" transform="matrix(-1 -8.969904e-11 8.969904e-11 -1 184 180)" class="st0" width="8" height="2"/>
<rect x="84" y="90" transform="matrix(-1 -8.969904e-11 8.969904e-11 -1 176 182)" class="st0" width="8" height="2"/>
<rect x="90" y="92" transform="matrix(-1 -8.969904e-11 8.969904e-11 -1 188 186)" class="st0" width="8" height="2"/>
<rect x="86" y="70" transform="matrix(-1 -8.969904e-11 8.969904e-11 -1 180 142)" class="st0" width="8" height="2"/>
<rect x="84" y="72" transform="matrix(-1 -8.969904e-11 8.969904e-11 -1 176 146)" class="st0" width="8" height="2"/>
<rect x="86" y="74" transform="matrix(-1 -8.969904e-11 8.969904e-11 -1 180 150)" class="st0" width="8" height="2"/>
<rect x="90" y="76" transform="matrix(-1 -8.969904e-11 8.969904e-11 -1 188 154)" class="st0" width="8" height="2"/>
<rect x="89" y="78" transform="matrix(-1 -8.969904e-11 8.969904e-11 -1 186 158)" class="st0" width="8" height="2"/>
<rect x="87" y="82" transform="matrix(-1 -8.969904e-11 8.969904e-11 -1 182 166)" class="st0" width="8" height="2"/>
<rect x="89" y="84" transform="matrix(-1 -8.969904e-11 8.969904e-11 -1 186 170)" class="st0" width="8" height="2"/>
<rect x="87" y="86" transform="matrix(-1 -8.969904e-11 8.969904e-11 -1 182 174)" class="st0" width="8" height="2"/>
<rect x="86" y="88" transform="matrix(-1 -8.969904e-11 8.969904e-11 -1 180 178)" class="st0" width="8" height="2"/>
<rect x="84" y="90" transform="matrix(-1 -8.969904e-11 8.969904e-11 -1 176 182)" class="st0" width="8" height="2"/>
<rect x="88" y="92" transform="matrix(-1 -8.969904e-11 8.969904e-11 -1 184 186)" class="st0" width="8" height="2"/>
<rect x="86" y="94" transform="matrix(-1 -8.969904e-11 8.969904e-11 -1 180 190)" class="st0" width="8" height="2"/>
<rect x="90" y="96" transform="matrix(-1 -8.969904e-11 8.969904e-11 -1 188 194)" class="st0" width="8" height="2"/>
<rect x="86" y="98" transform="matrix(-1 -8.969904e-11 8.969904e-11 -1 180 198)" class="st0" width="8" height="2"/>
<rect x="88" y="99" transform="matrix(-1 -8.969904e-11 8.969904e-11 -1 184 200)" class="st0" width="8" height="2"/>
<rect x="84" y="100" transform="matrix(-1 -8.969904e-11 8.969904e-11 -1 176 202)" class="st0" width="8" height="2"/>
<rect x="90" y="102" transform="matrix(-1 -8.969904e-11 8.969904e-11 -1 188 206)" class="st0" width="8" height="2"/>
<rect x="86" y="80" transform="matrix(-1 -8.969904e-11 8.969904e-11 -1 180 162)" class="st0" width="8" height="2"/>
<rect x="84" y="104" transform="matrix(-1 -8.969904e-11 8.969904e-11 -1 176 210)" class="st0" width="8" height="2"/>
<rect x="86" y="106" transform="matrix(-1 -8.969904e-11 8.969904e-11 -1 180 214)" class="st0" width="8" height="2"/>
<rect x="90" y="108" transform="matrix(-1 -8.969904e-11 8.969904e-11 -1 188 218)" class="st0" width="8" height="2"/>
<rect x="89" y="110" transform="matrix(-1 -8.969904e-11 8.969904e-11 -1 186 222)" class="st0" width="8" height="2"/>
<rect x="87" y="114" transform="matrix(-1 -8.969904e-11 8.969904e-11 -1 182 230)" class="st0" width="8" height="2"/>
<rect x="89" y="116" transform="matrix(-1 -8.969904e-11 8.969904e-11 -1 186 234)" class="st0" width="8" height="2"/>
<rect x="87" y="118" transform="matrix(-1 -8.969904e-11 8.969904e-11 -1 182 238)" class="st0" width="8" height="2"/>
<rect x="86" y="120" transform="matrix(-1 -8.969904e-11 8.969904e-11 -1 180 242)" class="st0" width="8" height="2"/>
<rect x="84" y="122" transform="matrix(-1 -8.969904e-11 8.969904e-11 -1 176 246)" class="st0" width="8" height="2"/>
<rect x="88" y="124" transform="matrix(-1 -8.969904e-11 8.969904e-11 -1 184 250)" class="st0" width="8" height="2"/>
<rect x="86" y="126" transform="matrix(-1 -8.969904e-11 8.969904e-11 -1 180 254)" class="st0" width="8" height="2"/>
<rect x="90" y="128" transform="matrix(-1 -8.969904e-11 8.969904e-11 -1 188 258)" class="st0" width="8" height="2"/>
<rect x="86" y="130" transform="matrix(-1 -8.969904e-11 8.969904e-11 -1 180 262)" class="st0" width="8" height="2"/>
<rect x="88" y="131" transform="matrix(-1 -8.969904e-11 8.969904e-11 -1 184 264)" class="st0" width="8" height="2"/>
<rect x="84" y="132" transform="matrix(-1 -8.969904e-11 8.969904e-11 -1 176 266)" class="st0" width="8" height="2"/>
<rect x="90" y="134" transform="matrix(-1 -8.969904e-11 8.969904e-11 -1 188 270)" class="st0" width="8" height="2"/>
<rect x="86" y="112" transform="matrix(-1 -8.969904e-11 8.969904e-11 -1 180 226)" class="st0" width="8" height="2"/>
<rect x="84" y="114" transform="matrix(-1 -8.969904e-11 8.969904e-11 -1 176 230)" class="st0" width="8" height="2"/>
<rect x="86" y="116" transform="matrix(-1 -8.969904e-11 8.969904e-11 -1 180 234)" class="st0" width="8" height="2"/>
<rect x="90" y="118" transform="matrix(-1 -8.969904e-11 8.969904e-11 -1 188 238)" class="st0" width="8" height="2"/>
<rect x="89" y="120" transform="matrix(-1 -8.969904e-11 8.969904e-11 -1 186 242)" class="st0" width="8" height="2"/>
<rect x="87" y="124" transform="matrix(-1 -8.969904e-11 8.969904e-11 -1 182 250)" class="st0" width="8" height="2"/>
<rect x="89" y="126" transform="matrix(-1 -8.969904e-11 8.969904e-11 -1 186 254)" class="st0" width="8" height="2"/>
<rect x="87" y="128" transform="matrix(-1 -8.969904e-11 8.969904e-11 -1 182 258)" class="st0" width="8" height="2"/>
<rect x="86" y="130" transform="matrix(-1 -8.969904e-11 8.969904e-11 -1 180 262)" class="st0" width="8" height="2"/>
<rect x="84" y="132" transform="matrix(-1 -8.969904e-11 8.969904e-11 -1 176 266)" class="st0" width="8" height="2"/>
<rect x="88" y="134" transform="matrix(-1 -8.969904e-11 8.969904e-11 -1 184 270)" class="st0" width="8" height="2"/>
<rect x="86" y="136" transform="matrix(-1 -8.969904e-11 8.969904e-11 -1 180 274)" class="st0" width="8" height="2"/>
<rect x="90" y="138" transform="matrix(-1 -8.969904e-11 8.969904e-11 -1 188 278)" class="st0" width="8" height="2"/>
<rect x="86" y="140" transform="matrix(-1 -8.969904e-11 8.969904e-11 -1 180 282)" class="st0" width="8" height="2"/>
<rect x="88" y="141" transform="matrix(-1 -8.969904e-11 8.969904e-11 -1 184 284)" class="st0" width="8" height="2"/>
<rect x="84" y="142" transform="matrix(-1 -8.969904e-11 8.969904e-11 -1 176 286)" class="st0" width="8" height="2"/>
<rect x="90" y="144" transform="matrix(-1 -8.969904e-11 8.969904e-11 -1 188 290)" class="st0" width="8" height="2"/>
<rect x="86" y="122" transform="matrix(-1 -8.969904e-11 8.969904e-11 -1 180 246)" class="st0" width="8" height="2"/>
<rect x="84" y="148" transform="matrix(-1 -8.958535e-11 8.958535e-11 -1 176 298)" class="st0" width="8" height="2"/>
<rect x="86" y="150" transform="matrix(-1 -8.958535e-11 8.958535e-11 -1 180 302)" class="st0" width="8" height="2"/>
<rect x="90" y="152" transform="matrix(-1 -8.958535e-11 8.958535e-11 -1 188 306)" class="st0" width="8" height="2"/>
<rect x="89" y="154" transform="matrix(-1 -8.958535e-11 8.958535e-11 -1 186 310)" class="st0" width="8" height="2"/>
<rect x="87" y="158" transform="matrix(-1 -8.958535e-11 8.958535e-11 -1 182 318)" class="st0" width="8" height="2"/>
<rect x="89" y="160" transform="matrix(-1 -8.958535e-11 8.958535e-11 -1 186 322)" class="st0" width="8" height="2"/>
<rect x="87" y="162" transform="matrix(-1 -8.958535e-11 8.958535e-11 -1 182 326)" class="st0" width="8" height="2"/>
<rect x="86" y="164" transform="matrix(-1 -8.958535e-11 8.958535e-11 -1 180 330)" class="st0" width="8" height="2"/>
<rect x="84" y="166" transform="matrix(-1 -8.958535e-11 8.958535e-11 -1 176 334)" class="st0" width="8" height="2"/>
<rect x="88" y="168" transform="matrix(-1 -8.958535e-11 8.958535e-11 -1 184 338)" class="st0" width="8" height="2"/>
<rect x="86" y="170" transform="matrix(-1 -8.958535e-11 8.958535e-11 -1 180 342)" class="st0" width="8" height="2"/>
<rect x="90" y="172" transform="matrix(-1 -8.958535e-11 8.958535e-11 -1 188 346)" class="st0" width="8" height="2"/>
<rect x="86" y="174" transform="matrix(-1 -8.958535e-11 8.958535e-11 -1 180 350)" class="st0" width="8" height="2"/>
<rect x="88" y="175" transform="matrix(-1 -8.958535e-11 8.958535e-11 -1 184 352)" class="st0" width="8" height="2"/>
<rect x="84" y="176" transform="matrix(-1 -8.958535e-11 8.958535e-11 -1 176 354)" class="st0" width="8" height="2"/>
<rect x="90" y="178" transform="matrix(-1 -8.958535e-11 8.958535e-11 -1 188 358)" class="st0" width="8" height="2"/>
<rect x="86" y="156" transform="matrix(-1 -8.958535e-11 8.958535e-11 -1 180 314)" class="st0" width="8" height="2"/>
<rect x="84" y="168" transform="matrix(-1 -8.958535e-11 8.958535e-11 -1 176 338)" class="st0" width="8" height="2"/>
<rect x="86" y="170" transform="matrix(-1 -8.958535e-11 8.958535e-11 -1 180 342)" class="st0" width="8" height="2"/>
<rect x="90" y="172" transform="matrix(-1 -8.958535e-11 8.958535e-11 -1 188 346)" class="st0" width="8" height="2"/>
<rect x="89" y="174" transform="matrix(-1 -8.958535e-11 8.958535e-11 -1 186 350)" class="st0" width="8" height="2"/>
<rect x="87" y="178" transform="matrix(-1 -8.958535e-11 8.958535e-11 -1 182 358)" class="st0" width="8" height="2"/>
<rect x="89" y="180" transform="matrix(-1 -8.958535e-11 8.958535e-11 -1 186 362)" class="st0" width="8" height="2"/>
<rect x="87" y="182" transform="matrix(-1 -8.958535e-11 8.958535e-11 -1 182 366)" class="st0" width="8" height="2"/>
<rect x="86" y="184" transform="matrix(-1 -8.958535e-11 8.958535e-11 -1 180 370)" class="st0" width="8" height="2"/>
<rect x="84" y="186" transform="matrix(-1 -8.958535e-11 8.958535e-11 -1 176 374)" class="st0" width="8" height="2"/>
<rect x="88" y="188" transform="matrix(-1 -8.958535e-11 8.958535e-11 -1 184 378)" class="st0" width="8" height="2"/>
<rect x="86" y="190" transform="matrix(-1 -8.958535e-11 8.958535e-11 -1 180 382)" class="st0" width="8" height="2"/>
<rect x="90" y="192" transform="matrix(-1 -8.958535e-11 8.958535e-11 -1 188 386)" class="st0" width="8" height="2"/>
<rect x="86" y="194" transform="matrix(-1 -8.958535e-11 8.958535e-11 -1 180 390)" class="st0" width="8" height="2"/>
<rect x="88" y="195" transform="matrix(-1 -8.958535e-11 8.958535e-11 -1 184 392)" class="st0" width="8" height="2"/>
<rect x="84" y="196" transform="matrix(-1 -8.958535e-11 8.958535e-11 -1 176 394)" class="st0" width="8" height="2"/>
<rect x="90" y="198" transform="matrix(-1 -8.958535e-11 8.958535e-11 -1 188 398)" class="st0" width="8" height="2"/>
<rect x="5" y="66" transform="matrix(-1 -8.969904e-11 8.969904e-11 -1 18 134)" class="st0" width="8" height="2"/>
<rect x="4" y="68" transform="matrix(-1 -8.969904e-11 8.969904e-11 -1 16 138)" class="st0" width="8" height="2"/>
<rect x="2" y="72" transform="matrix(-1 -8.969904e-11 8.969904e-11 -1 12 146)" class="st0" width="8" height="2"/>
<rect x="4" y="74" transform="matrix(-1 -8.969904e-11 8.969904e-11 -1 16 150)" class="st0" width="8" height="2"/>
<rect x="2" y="76" transform="matrix(-1 -8.969904e-11 8.969904e-11 -1 12 154)" class="st0" width="8" height="2"/>
<rect x="3" y="82" transform="matrix(-1 -8.969904e-11 8.969904e-11 -1 14 166)" class="st0" width="8" height="2"/>
<rect x="5" y="86" transform="matrix(-1 -8.969904e-11 8.969904e-11 -1 18 174)" class="st0" width="8" height="2"/>
<rect x="3" y="89" transform="matrix(-1 -8.969904e-11 8.969904e-11 -1 14 180)" class="st0" width="8" height="2"/>
<rect x="5" y="92" transform="matrix(-1 -8.969904e-11 8.969904e-11 -1 18 186)" class="st0" width="8" height="2"/>
<rect x="5" y="76" transform="matrix(-1 -8.969904e-11 8.969904e-11 -1 18 154)" class="st0" width="8" height="2"/>
<rect x="4" y="78" transform="matrix(-1 -8.969904e-11 8.969904e-11 -1 16 158)" class="st0" width="8" height="2"/>
<rect x="2" y="82" transform="matrix(-1 -8.969904e-11 8.969904e-11 -1 12 166)" class="st0" width="8" height="2"/>
<rect x="4" y="84" transform="matrix(-1 -8.969904e-11 8.969904e-11 -1 16 170)" class="st0" width="8" height="2"/>
<rect x="2" y="86" transform="matrix(-1 -8.969904e-11 8.969904e-11 -1 12 174)" class="st0" width="8" height="2"/>
<rect x="3" y="92" transform="matrix(-1 -8.969904e-11 8.969904e-11 -1 14 186)" class="st0" width="8" height="2"/>
<rect x="5" y="96" transform="matrix(-1 -8.969904e-11 8.969904e-11 -1 18 194)" class="st0" width="8" height="2"/>
<rect x="3" y="99" transform="matrix(-1 -8.969904e-11 8.969904e-11 -1 14 200)" class="st0" width="8" height="2"/>
<rect x="5" y="102" transform="matrix(-1 -8.969904e-11 8.969904e-11 -1 18 206)" class="st0" width="8" height="2"/>
<rect x="4" y="104" transform="matrix(-1 -2.391972e-10 2.391972e-10 -1 17 214)" class="st0" width="9" height="6"/>
<rect x="2" y="110" transform="matrix(-1 -7.175917e-11 7.175917e-11 -1 14 222)" class="st0" width="10" height="2"/>
<rect x="2" y="114" transform="matrix(-1 -8.969904e-11 8.969904e-11 -1 12 230)" class="st0" width="8" height="2"/>
<rect x="4" y="116" transform="matrix(-1 -8.969904e-11 8.969904e-11 -1 16 234)" class="st0" width="8" height="2"/>
<rect x="2" y="118" transform="matrix(-1 -8.969904e-11 8.969904e-11 -1 12 238)" class="st0" width="8" height="2"/>
<rect x="3" y="124" transform="matrix(-1 -8.969904e-11 8.969904e-11 -1 14 250)" class="st0" width="8" height="2"/>
<rect x="5" y="128" transform="matrix(-1 -8.969904e-11 8.969904e-11 -1 18 258)" class="st0" width="8" height="2"/>
<rect x="3" y="131" transform="matrix(-1 -8.969904e-11 8.969904e-11 -1 14 264)" class="st0" width="8" height="2"/>
<rect x="5" y="134" transform="matrix(-1 -8.969904e-11 8.969904e-11 -1 18 270)" class="st0" width="8" height="2"/>
<rect x="5" y="118" transform="matrix(-1 -8.969904e-11 8.969904e-11 -1 18 238)" class="st0" width="8" height="2"/>
<rect x="4" y="120" transform="matrix(-1 -8.969904e-11 8.969904e-11 -1 16 242)" class="st0" width="8" height="2"/>
<rect x="2" y="124" transform="matrix(-1 -8.969904e-11 8.969904e-11 -1 12 250)" class="st0" width="8" height="2"/>
<rect x="4" y="126" transform="matrix(-1 -8.969904e-11 8.969904e-11 -1 16 254)" class="st0" width="8" height="2"/>
<rect x="2" y="128" transform="matrix(-1 -8.969904e-11 8.969904e-11 -1 12 258)" class="st0" width="8" height="2"/>
<rect x="2" y="136" transform="matrix(-1 -8.969904e-11 8.969904e-11 -1 12 274)" class="st0" width="8" height="2"/>
<rect x="5" y="138" transform="matrix(-1 -8.969904e-11 8.969904e-11 -1 18 278)" class="st0" width="8" height="2"/>
<rect x="3" y="141" transform="matrix(-1 -8.969904e-11 8.969904e-11 -1 14 284)" class="st0" width="8" height="2"/>
<rect x="1" y="146" transform="matrix(-1 -8.969904e-11 8.969904e-11 -1 10 294)" class="st0" width="8" height="2"/>
<rect x="3" y="148" transform="matrix(-1 -8.969904e-11 8.969904e-11 -1 14 298)" class="st0" width="8" height="2"/>
<rect x="5" y="144" transform="matrix(-1 -8.969904e-11 8.969904e-11 -1 18 290)" class="st0" width="8" height="2"/>
<rect x="4" y="150" transform="matrix(-1 -8.969904e-11 8.969904e-11 -1 16 302)" class="st0" width="8" height="2"/>
<rect x="5" y="152" transform="matrix(-1 -8.958535e-11 8.958535e-11 -1 18 306)" class="st0" width="8" height="2"/>
<rect x="4" y="154" transform="matrix(-1 -8.958535e-11 8.958535e-11 -1 16 310)" class="st0" width="8" height="2"/>
<rect x="2" y="158" transform="matrix(-1 -8.958535e-11 8.958535e-11 -1 12 318)" class="st0" width="8" height="2"/>
<rect x="4" y="160" transform="matrix(-1 -8.958535e-11 8.958535e-11 -1 16 322)" class="st0" width="8" height="2"/>
<rect x="2" y="162" transform="matrix(-1 -8.958535e-11 8.958535e-11 -1 12 326)" class="st0" width="8" height="2"/>
<rect x="3" y="168" transform="matrix(-1 -8.958535e-11 8.958535e-11 -1 14 338)" class="st0" width="8" height="2"/>
<rect x="5" y="172" transform="matrix(-1 -8.958535e-11 8.958535e-11 -1 18 346)" class="st0" width="8" height="2"/>
<rect x="3" y="175" transform="matrix(-1 -8.958535e-11 8.958535e-11 -1 14 352)" class="st0" width="8" height="2"/>
<rect x="5" y="178" transform="matrix(-1 -8.958535e-11 8.958535e-11 -1 18 358)" class="st0" width="8" height="2"/>
<rect x="5" y="172" transform="matrix(-1 -8.958535e-11 8.958535e-11 -1 18 346)" class="st0" width="8" height="2"/>
<rect x="4" y="174" transform="matrix(-1 -8.958535e-11 8.958535e-11 -1 16 350)" class="st0" width="8" height="2"/>
<rect x="2" y="178" transform="matrix(-1 -8.958535e-11 8.958535e-11 -1 12 358)" class="st0" width="8" height="2"/>
<rect x="4" y="180" transform="matrix(-1 -8.958535e-11 8.958535e-11 -1 16 362)" class="st0" width="8" height="2"/>
<rect x="2" y="182" transform="matrix(-1 -8.958535e-11 8.958535e-11 -1 12 366)" class="st0" width="8" height="2"/>
<rect x="3" y="188" transform="matrix(-1 -8.958535e-11 8.958535e-11 -1 14 378)" class="st0" width="8" height="2"/>
<rect x="5" y="192" transform="matrix(-1 -8.958535e-11 8.958535e-11 -1 18 386)" class="st0" width="8" height="2"/>
<rect x="3" y="195" transform="matrix(-1 -8.958535e-11 8.958535e-11 -1 14 392)" class="st0" width="8" height="2"/>
<rect x="5" y="198" transform="matrix(-1 -8.958535e-11 8.958535e-11 -1 18 398)" class="st0" width="8" height="2"/>
<rect x="86" y="176" transform="matrix(-1 -8.958535e-11 8.958535e-11 -1 180 354)" class="st0" width="8" height="2"/>
<rect x="2.6" y="60" transform="matrix(-1 -8.981273e-11 8.981273e-11 -1 13.2215 122)" class="st0" width="8" height="2"/>
<rect x="4" y="62" transform="matrix(-1 -8.981273e-11 8.981273e-11 -1 16 126)" class="st0" width="8" height="2"/>
<rect x="2" y="64" transform="matrix(-1 -8.981273e-11 8.981273e-11 -1 12 130)" class="st0" width="8" height="2"/>
<rect x="4.6" y="46" transform="matrix(-1 -8.988867e-11 8.988867e-11 -1 15.2215 94)" class="st0" width="6" height="2"/>
<rect x="2.6" y="48" transform="matrix(-1 -8.981273e-11 8.981273e-11 -1 13.2215 98)" class="st0" width="8" height="2"/>
<rect x="6.6" y="54" transform="matrix(-1 -8.981273e-11 8.981273e-11 -1 17.2215 110)" class="st0" width="4" height="2"/>
<rect x="2.6" y="56" transform="matrix(-1 -8.981273e-11 8.981273e-11 -1 13.2215 114)" class="st0" width="8" height="2"/>
<rect x="6.6" y="30" transform="matrix(-1 -8.981273e-11 8.981273e-11 -1 21.2215 64)" class="st0" width="8" height="4"/>
<rect x="6.6" y="26" transform="matrix(-1 -8.976743e-11 8.976743e-11 -1 23.2215 56)" class="st0" width="10" height="4"/>
<rect x="8.6" y="24" transform="matrix(-1 -8.981273e-11 8.981273e-11 -1 25.2215 52)" class="st0" width="8" height="4"/>
<rect x="2.6" y="24" transform="matrix(-1 -8.975588e-11 8.975588e-11 -1 21.2215 50)" class="st0" width="16" height="2"/>
<rect x="8.6" y="22" transform="matrix(-1 -8.981273e-11 8.981273e-11 -1 29.2215 46)" class="st0" width="12" height="2"/>
<rect x="6.6" y="20" transform="matrix(-1 -8.975588e-11 8.975588e-11 -1 29.2215 42)" class="st0" width="16" height="2"/>
<rect x="90.2" y="56" transform="matrix(-1 -8.969904e-11 8.969904e-11 -1 188.4429 114)" class="st0" width="8" height="2"/>
<rect x="81" y="34" transform="matrix(-1 -4.072310e-11 4.072310e-11 -1 175.2215 70)" class="st0" width="13.2" height="2"/>
<rect x="90.2" y="40" transform="matrix(-1 -8.958535e-11 8.958535e-11 -1 182.4429 82)" class="st0" width="2" height="2"/>
<rect x="92.6" y="22" transform="matrix(-1 -9.004010e-11 9.004010e-11 -1 187.2215 46)" class="st0" width="2" height="2"/>
<rect x="6.6" y="30" transform="matrix(-1 -8.981273e-11 8.981273e-11 -1 17.2215 84)" class="st0" width="4" height="24"/>
<rect x="6.6" y="34" transform="matrix(-1 -8.973679e-11 8.973679e-11 -1 19.2215 74)" class="st0" width="6" height="6"/>
<rect x="64.6" y="8" transform="matrix(-1 -8.958535e-11 8.958535e-11 -1 131.2215 18)" class="st1" width="2" height="2"/>
<rect x="32.6" y="8" transform="matrix(-1 -8.958535e-11 8.958535e-11 -1 67.2215 18)" class="st1" width="2" height="2"/>
<rect x="24.6" y="10" transform="matrix(-1 -8.958535e-11 8.958535e-11 -1 51.2215 22)" class="st1" width="2" height="2"/>
<g>
	<rect x="94.6" y="40" transform="matrix(-1 -8.981273e-11 8.981273e-11 -1 193.2215 82)" class="st2" width="4" height="2"/>
	<rect x="94.2" y="50" transform="matrix(-1 -8.981273e-11 8.981273e-11 -1 192.4429 102)" class="st2" width="4" height="2"/>
	<rect x="92.6" y="56" transform="matrix(-1 -8.981273e-11 8.981273e-11 -1 189.2215 114)" class="st2" width="4" height="2"/>
	<rect x="90" y="96" transform="matrix(-1 -8.981273e-11 8.981273e-11 -1 184 194)" class="st2" width="4" height="2"/>
	<rect x="93" y="118" transform="matrix(-1 -8.981273e-11 8.981273e-11 -1 190 238)" class="st2" width="4" height="2"/>
	<rect x="92" y="114" transform="matrix(-1 -8.981273e-11 8.981273e-11 -1 188 230)" class="st2" width="4" height="2"/>
	<rect x="92" y="126" transform="matrix(-1 -1.800801e-10 1.800801e-10 -1 186 254)" class="st2" width="2" height="2"/>
	<rect x="90" y="110" transform="matrix(-1 -1.800801e-10 1.800801e-10 -1 182 222)" class="st2" width="2" height="2"/>
	<rect x="94" y="76" transform="matrix(-1 -1.796253e-10 1.796253e-10 -1 190 154)" class="st2" width="2" height="2"/>
	<rect x="98" y="78" transform="matrix(-1 -1.796253e-10 1.796253e-10 -1 198 158)" class="st2" width="2" height="2"/>
	<rect x="94" y="28" transform="matrix(-1 -8.981273e-11 8.981273e-11 -1 192 58)" class="st2" width="4" height="2"/>
	<rect x="84.6" y="22" transform="matrix(-1 -8.958535e-11 8.958535e-11 -1 173.2215 46)" class="st2" width="4" height="2"/>
	<rect x="2.6" y="28" transform="matrix(-1 -8.981273e-11 8.981273e-11 -1 9.2215 58)" class="st2" width="4" height="2"/>
	<rect x="12.6" y="18" transform="matrix(-1 -8.981273e-11 8.981273e-11 -1 29.2215 38)" class="st2" width="4" height="2"/>
	<rect x="88.6" y="18" transform="matrix(-1 -8.981273e-11 8.981273e-11 -1 181.2215 38)" class="st2" width="4" height="2"/>
	<rect x="76.6" y="12" transform="matrix(-1 -8.981273e-11 8.981273e-11 -1 157.2215 26)" class="st2" width="4" height="2"/>
	<rect x="84.6" y="12" transform="matrix(-1 -8.958535e-11 8.958535e-11 -1 173.2215 26)" class="st2" width="4" height="2"/>
	<rect x="12.6" y="12" transform="matrix(-1 -8.981273e-11 8.981273e-11 -1 37.2215 26)" class="st2" width="12" height="2"/>
	<rect x="82.6" y="8" transform="matrix(-1 -8.976743e-11 8.976743e-11 -1 175.2215 18)" class="st2" width="10" height="2"/>
	<rect x="88.6" y="32" transform="matrix(-1 -9.004010e-11 9.004010e-11 -1 179.2215 66)" class="st2" width="2" height="2"/>
	<rect x="2" y="40" transform="matrix(-1 -8.973679e-11 8.973679e-11 -1 10 82)" class="st2" width="6" height="2"/>
	<rect x="4" y="52" transform="matrix(-1 -8.973679e-11 8.973679e-11 -1 14 106)" class="st2" width="6" height="2"/>
	<rect x="0" y="70" transform="matrix(-1 -8.973679e-11 8.973679e-11 -1 6 142)" class="st2" width="6" height="2"/>
	<rect x="4" y="84" transform="matrix(-1 -2.692105e-10 2.692105e-10 -1 10 170)" class="st2" width="2" height="2"/>
	<rect x="6" y="98" transform="matrix(-1 -2.692105e-10 2.692105e-10 -1 14 198)" class="st2" width="2" height="2"/>
	<rect x="0" y="104" transform="matrix(-1 -2.692105e-10 2.692105e-10 -1 2 210)" class="st2" width="2" height="2"/>
	<rect x="6" y="136" transform="matrix(-1 -2.692105e-10 2.692105e-10 -1 14 274)" class="st2" width="2" height="2"/>
	<rect x="4" y="148" transform="matrix(-1 -2.692105e-10 2.692105e-10 -1 10 298)" class="st2" width="2" height="2"/>
	<rect x="6" y="126" transform="matrix(-1 -2.692105e-10 2.692105e-10 -1 14 254)" class="st2" width="2" height="2"/>
	<rect x="0" y="152" transform="matrix(-1 -2.692105e-10 2.692105e-10 -1 2 306)" class="st2" width="2" height="2"/>
	<rect x="6" y="22" transform="matrix(-1 -8.973679e-11 8.973679e-11 -1 18 46)" class="st2" width="6" height="2"/>
	<rect x="4.6" y="44" transform="matrix(-1 -9.004010e-11 9.004010e-11 -1 11.2215 90)" class="st2" width="2" height="2"/>
</g>
<g>
	<g>
		<rect x="3" y="223" class="st0" width="8" height="4"/>
		<rect x="3" y="213" class="st0" width="6" height="4"/>
		<rect x="5" y="207" class="st0" width="4" height="14"/>
		<rect x="1" y="229" class="st0" width="12" height="5"/>
		<rect x="26.6" y="253" class="st0" width="58" height="4"/>
		<rect x="58.6" y="251" class="st0" width="22" height="4"/>
		<rect x="64.6" y="249" class="st0" width="22" height="2"/>
		<rect x="68.6" y="247" class="st0" width="22" height="2"/>
		<rect x="72.6" y="245" class="st0" width="14" height="2"/>
		<rect x="74.6" y="243" class="st0" width="20" height="2"/>
		<rect x="88.6" y="221" class="st0" width="8" height="2"/>
		<rect x="88.6" y="231" class="st0" width="8" height="2"/>
		<rect x="88.6" y="233" class="st0" width="6" height="2"/>
		<rect x="88.6" y="217" class="st0" width="10" height="4"/>
		<rect x="11" y="243" class="st0" width="12" height="2"/>
		<rect x="13" y="245" class="st0" width="12" height="2"/>
		<rect x="16.6" y="247" class="st0" width="12" height="2"/>
		<rect x="20.6" y="249" class="st0" width="12" height="2"/>
		<rect x="10.6" y="251" class="st0" width="28" height="2"/>
		<rect x="7" y="237" class="st0" width="10" height="2"/>
		<rect x="5" y="235" class="st0" width="10" height="2"/>
		<rect x="9" y="239" class="st0" width="10" height="2"/>
		<rect x="6.6" y="241" class="st0" width="14" height="2"/>
		<rect x="5" y="240" class="st0" width="14" height="3"/>
		<rect x="4" y="242" class="st2" width="2" height="2"/>
		<rect x="6.6" y="233" class="st0" width="8" height="2"/>
		<rect x="0.6" y="217" class="st0" width="8" height="2"/>
		<rect x="0.6" y="209" class="st0" width="8" height="2"/>
		<rect x="1" y="201" class="st0" width="8" height="2"/>
		<rect x="88.6" y="201" class="st0" width="8" height="2"/>
		<rect x="88.6" y="215" class="st0" width="6" height="2"/>
		<rect x="88.6" y="213" class="st0" width="8" height="2"/>
		<rect x="88.6" y="207" class="st0" width="4" height="2"/>
		<rect x="88.6" y="205" class="st0" width="8" height="2"/>
		<rect x="84.6" y="229" class="st0" width="8" height="4"/>
		<rect x="82.6" y="233" class="st0" width="10" height="4"/>
		<rect x="82.6" y="235" class="st0" width="8" height="4"/>
		<rect x="80.6" y="237" class="st0" width="16" height="2"/>
		<rect x="78.6" y="239" class="st0" width="12" height="2"/>
		<rect x="76.6" y="241" class="st0" width="16" height="2"/>
		<rect x="1" y="205" class="st0" width="8" height="2"/>
		<rect x="5" y="227" class="st0" width="6" height="2"/>
		<rect x="0.6" y="223" class="st0" width="2" height="2"/>
		<rect x="7" y="221" class="st0" width="2" height="2"/>
		<rect x="88.6" y="209" class="st0" width="4" height="24"/>
		<rect x="86.6" y="223" class="st0" width="6" height="6"/>
	</g>
	<rect x="32.6" y="253" class="st1" width="2" height="2"/>
	<rect x="64.6" y="253" class="st1" width="2" height="2"/>
	<rect x="72.6" y="251" class="st1" width="2" height="2"/>
	<g>
		<rect x="0.6" y="221" class="st2" width="4" height="2"/>
		<rect x="1" y="211" class="st2" width="4" height="2"/>
		<rect x="2.6" y="205" class="st2" width="4" height="2"/>
		<rect x="1" y="232" class="st2" width="4" height="2"/>
		<rect x="10.6" y="239" class="st2" width="4" height="2"/>
		<rect x="92.6" y="233" class="st2" width="4" height="2"/>
		<rect x="82.6" y="243" class="st2" width="4" height="2"/>
		<rect x="6" y="244" class="st2" width="4" height="2"/>
		<rect x="18.6" y="249" class="st2" width="4" height="2"/>
		<rect x="10.6" y="249" class="st2" width="4" height="2"/>
		<rect x="74.6" y="249" class="st2" width="12" height="2"/>
		<rect x="6.6" y="253" class="st2" width="10" height="2"/>
		<rect x="6" y="230" class="st2" width="2" height="2"/>
		<rect x="90.6" y="221" class="st2" width="6" height="2"/>
		<rect x="92" y="190" class="st2" width="6" height="2"/>
		<rect x="90" y="178" class="st2" width="6" height="2"/>
		<rect x="92" y="160" class="st2" width="2" height="2"/>
		<rect x="96" y="148" class="st2" width="2" height="2"/>
		<rect x="88" y="140" class="st2" width="2" height="2"/>
		<rect x="90" y="136" class="st2" width="2" height="2"/>
		<rect x="94" y="134" class="st2" width="2" height="2"/>
		<rect x="90" y="154" class="st2" width="4" height="2"/>
		<rect x="92" y="144" class="st2" width="4" height="2"/>
		<rect x="98" y="160" class="st2" width="2" height="2"/>
		<rect x="92.6" y="217" class="st2" width="2" height="2"/>
	</g>
</g>
<g>
	<path class="st3" d="M49,8L49,8C26.9,8,9,25.9,9,48v204c0,22.1,17.9,40,40,40h0c22.1,0,40-17.9,40-40V48C89,25.9,71.1,8,49,8z"/>
	<path class="st4" d="M81,24v-2h-6v228h-2v2h2v2h-2v2h2v2h-4v2h4v2h-4v2h2v2h-2v2h-2v-2h-2v2h-2v2h-2v2h-2v-2h-2v2h-2v2h-2v-2h-4v2
		h-2v-2h-2v2h-4v-2h-4v-2h-2v2h-2v-2h-4v-2h-4v-2h-2v-2h-2v-2h-2v-2h-2v-2h2v-2h-2v-4h-2v-2h2v-2h-2V24h-2v4h-2v4h-2v6H9v222h2v2h2
		v4h2v6h2v4h2v4h2v2h2v2h2v2h4v2h4v2h6v2h20v-2h6v-2h4v-2h4v-2h2v-2h2v-2h2v-2h2v-2h2V24H81z M75,276h-2v-2h2V276z"/>
	<polygon class="st5" points="87,38 87,266 83,266 81,28 85,28 85,38 	"/>
	<g>
		<rect x="17" y="106" class="st5" width="10" height="2"/>
		<rect x="9" y="108" class="st5" width="10" height="2"/>
		<rect x="79" y="108" class="st6" width="10" height="2"/>
		<rect x="71" y="106" class="st5" width="10" height="2"/>
		<rect x="75" y="106" class="st6" width="6" height="2"/>
		<rect x="23" y="104" class="st5" width="12" height="2"/>
		<rect x="63" y="104" class="st5" width="12" height="2"/>
		<rect x="31" y="102" class="st5" width="36" height="2"/>
		<rect x="31" y="102" class="st4" width="28" height="2"/>
	</g>
	<g>
		<polygon class="st7" points="69,12 69,14 63,14 63,12 57,12 57,10 41,10 41,12 35,12 35,14 31,14 31,16 27,16 27,18 25,18 25,20 
			23,20 23,22 21,22 21,24 19,24 19,26 17,26 17,30 15,30 15,34 13,34 13,40 11,40 11,260 13,260 13,266 15,266 15,270 17,270 
			17,274 19,274 19,278 17,278 17,276 15,276 15,272 13,272 13,268 11,268 11,262 9,262 9,38 11,38 11,32 13,32 13,28 15,28 15,24 
			17,24 17,22 19,22 19,20 21,20 21,18 23,18 23,16 25,16 25,14 29,14 29,12 33,12 33,10 39,10 39,8 59,8 59,10 65,10 65,12 		"/>
	</g>
	<rect x="73" y="274" class="st4" width="2" height="2"/>
	<rect x="69" y="256" class="st4" width="2" height="2"/>
	<rect x="69" y="260" class="st4" width="2" height="2"/>
	<rect x="69" y="264" class="st4" width="2" height="2"/>
	<rect x="65" y="262" class="st4" width="2" height="2"/>
	<rect x="79" y="248" class="st5" width="2" height="8"/>
	<rect x="85" y="254" class="st6" width="2" height="2"/>
	<rect x="83" y="252" class="st6" width="2" height="2"/>
	<rect x="83" y="250" class="st6" width="2" height="2"/>
	<rect x="83" y="258" class="st6" width="2" height="2"/>
	<rect x="85" y="250" class="st6" width="2" height="2"/>
	<rect x="85" y="242" class="st6" width="2" height="2"/>
	<rect x="81" y="212" class="st5" width="2" height="2"/>
	<rect x="83" y="262" class="st6" width="2" height="2"/>
	<rect x="81" y="258" class="st5" width="2" height="2"/>
	<rect x="79" y="260" class="st5" width="2" height="2"/>
	<rect x="77" y="262" class="st5" width="2" height="2"/>
	<rect x="79" y="264" class="st5" width="2" height="2"/>
	<rect x="81" y="268" class="st5" width="2" height="2"/>
	<rect x="81" y="266" class="st5" width="2" height="2"/>
	<rect x="79" y="268" class="st5" width="2" height="2"/>
	<rect x="79" y="272" class="st5" width="2" height="2"/>
	<rect x="81" y="262" class="st5" width="2" height="2"/>
	<rect x="77" y="266" class="st5" width="2" height="2"/>
	<rect x="77" y="270" class="st5" width="2" height="2"/>
	<rect x="75" y="268" class="st5" width="2" height="2"/>
	<rect x="77" y="272" class="st5" width="2" height="2"/>
	<rect x="77" y="274" class="st5" width="2" height="2"/>
	<rect x="75" y="276" class="st5" width="2" height="2"/>
	<rect x="73" y="278" class="st5" width="2" height="2"/>
	<rect x="71" y="274" class="st5" width="2" height="2"/>
	<rect x="71" y="270" class="st5" width="2" height="2"/>
	<rect x="71" y="278" class="st5" width="2" height="2"/>
	<rect x="71" y="280" class="st5" width="2" height="2"/>
	<rect x="69" y="282" class="st5" width="2" height="2"/>
	<rect x="67" y="282" class="st5" width="2" height="2"/>
	<rect x="67" y="280" class="st5" width="2" height="2"/>
	<rect x="67" y="278" class="st5" width="2" height="2"/>
	<rect x="65" y="282" class="st5" width="2" height="2"/>
	<rect x="63" y="284" class="st5" width="2" height="2"/>
	<rect x="61" y="286" class="st5" width="2" height="2"/>
	<rect x="59" y="286" class="st5" width="2" height="2"/>
	<rect x="57" y="284" class="st5" width="2" height="2"/>
	<rect x="59" y="282" class="st5" width="2" height="2"/>
	<rect x="63" y="280" class="st5" width="2" height="2"/>
	<rect x="65" y="284" class="st5" width="2" height="2"/>
	<rect x="75" y="272" class="st5" width="2" height="2"/>
	<rect x="73" y="272" class="st5" width="2" height="2"/>
	<rect x="73" y="274" class="st5" width="2" height="2"/>
	<rect x="61" y="268" class="st4" width="2" height="2"/>
	<rect x="63" y="266" class="st4" width="2" height="2"/>
	<rect x="55" y="270" class="st4" width="2" height="2"/>
	<rect x="49" y="270" class="st4" width="2" height="2"/>
	<rect x="49" y="268" class="st4" width="2" height="2"/>
	<rect x="57" y="266" class="st4" width="2" height="2"/>
	<rect x="51" y="268" class="st4" width="2" height="2"/>
	<rect x="43" y="270" class="st4" width="2" height="2"/>
	<rect x="39" y="272" class="st4" width="2" height="2"/>
	<rect x="39" y="268" class="st4" width="2" height="2"/>
	<rect x="35" y="268" class="st4" width="2" height="2"/>
	<rect x="31" y="266" class="st4" width="2" height="2"/>
	<rect x="27" y="264" class="st4" width="2" height="2"/>
	<rect x="31" y="262" class="st4" width="2" height="2"/>
	<rect x="25" y="262" class="st4" width="2" height="2"/>
	<rect x="23" y="260" class="st4" width="2" height="2"/>
	<rect x="21" y="258" class="st4" width="2" height="2"/>
	<rect x="19" y="246" class="st4" width="2" height="2"/>
	<rect x="19" y="250" class="st4" width="2" height="2"/>
	<rect x="21" y="252" class="st4" width="2" height="2"/>
	<rect x="27" y="258" class="st4" width="2" height="2"/>
	<rect x="77" y="132" class="st5" width="2" height="12"/>
	<rect x="79" y="162" class="st5" width="2" height="38"/>
	<rect x="79" y="186" class="st5" width="2" height="26"/>
	<rect x="77" y="92" class="st5" width="2" height="28"/>
	<rect x="77" y="122" class="st5" width="2" height="6"/>
	<rect x="79" y="70" class="st5" width="2" height="16"/>
	<g>
		<polygon class="st4" points="73,134 73,136 69,136 69,138 63,138 63,140 49,140 49,138 45,138 45,136 59,136 59,134 		"/>
		<rect x="61" y="88" class="st5" width="14" height="46"/>
		<g>
			<g>
				<polygon class="st6" points="73,82 73,124 71,124 71,128 69,128 69,130 67,130 67,132 65,132 65,134 61,134 61,136 39,136 
					39,134 35,134 35,132 33,132 33,130 31,130 31,128 29,128 29,124 27,124 27,98 29,98 29,94 31,94 31,92 33,92 33,90 35,90 
					35,88 39,88 39,86 43,86 43,82 				"/>
			</g>
		</g>
		<g>
			<g>
				<polygon class="st6" points="71,96 71,122 69,122 69,126 67,126 67,128 65,128 65,130 63,130 63,132 59,132 59,134 37,134 
					37,132 33,132 33,130 31,130 31,128 29,128 29,126 27,126 27,122 25,122 25,96 27,96 27,92 29,92 29,90 31,90 31,88 33,88 
					33,86 37,86 37,84 59,84 59,86 63,86 63,88 65,88 65,90 67,90 67,92 69,92 69,96 				"/>
			</g>
		</g>
		<g>
			<g>
				<polygon class="st4" points="71,94 71,120 69,120 69,124 67,124 67,126 65,126 65,128 63,128 63,130 59,130 59,132 37,132 
					37,130 33,130 33,128 31,128 31,126 29,126 29,124 27,124 27,120 25,120 25,94 27,94 27,90 29,90 29,88 31,88 31,86 33,86 
					33,84 37,84 37,82 59,82 59,84 63,84 63,86 65,86 65,88 67,88 67,90 69,90 69,94 				"/>
			</g>
		</g>
		<g>
			<g>
				<polygon class="st3" points="71,82 71,108 69,108 69,112 67,112 67,114 65,114 65,116 63,116 63,118 59,118 59,120 37,120 
					37,118 33,118 33,116 31,116 31,114 29,114 29,112 27,112 27,108 25,108 25,82 27,82 27,78 29,78 29,76 31,76 31,74 33,74 
					33,72 37,72 37,70 59,70 59,72 63,72 63,74 65,74 65,76 67,76 67,78 69,78 69,82 				"/>
			</g>
		</g>
		<rect x="51" y="112" class="st4" width="14" height="2"/>
		<rect x="55" y="110" class="st4" width="14" height="2"/>
		<rect x="57" y="108" class="st5" width="14" height="2"/>
		<rect x="57" y="90" class="st5" width="14" height="18"/>
		<polygon class="st6" points="65,96 65,106 63,106 63,108 59,108 59,98 63,98 63,96 		"/>
		<g>
			<rect x="37" y="70" transform="matrix(-1.355149e-10 1 -1 -1.355149e-10 108.9996 32.9996)" class="st1" width="2" height="2"/>
			<rect x="39" y="70" transform="matrix(-1.355149e-10 1 -1 -1.355149e-10 110.9996 30.9996)" class="st1" width="2" height="2"/>
			<rect x="41" y="70" transform="matrix(-1.355149e-10 1 -1 -1.355149e-10 112.9996 28.9996)" class="st1" width="2" height="2"/>
			<rect x="43" y="70" transform="matrix(-1.355149e-10 1 -1 -1.355149e-10 114.9996 26.9996)" class="st1" width="2" height="2"/>
			<rect x="45" y="70" transform="matrix(-1.355149e-10 1 -1 -1.355149e-10 116.9996 24.9996)" class="st1" width="2" height="2"/>
			<rect x="37" y="72" transform="matrix(-1.336959e-10 1 -1 -1.336959e-10 110.9996 34.9996)" class="st1" width="2" height="2"/>
			<rect x="35" y="72" transform="matrix(-1.336959e-10 1 -1 -1.336959e-10 108.9996 36.9996)" class="st1" width="2" height="2"/>
			<rect x="33" y="72" transform="matrix(-1.336959e-10 1 -1 -1.336959e-10 106.9996 38.9996)" class="st4" width="2" height="2"/>
			<rect x="33" y="74" transform="matrix(-1.346054e-10 1 -1 -1.346054e-10 108.9996 40.9996)" class="st1" width="2" height="2"/>
			<rect x="31" y="74" transform="matrix(-1.346054e-10 1 -1 -1.346054e-10 106.9996 42.9996)" class="st4" width="2" height="2"/>
			<rect x="31" y="76" transform="matrix(-1.355149e-10 1 -1 -1.355149e-10 108.9996 44.9996)" class="st1" width="2" height="2"/>
			<polygon class="st4" points="31,76 31,80 27,80 27,78 29,78 29,76 			"/>
			<rect x="27" y="80" transform="matrix(-1.355149e-10 1 -1 -1.355149e-10 108.9996 52.9996)" class="st1" width="2" height="2"/>
			<rect x="25" y="82" class="st4" width="4" height="2"/>
			<rect x="25" y="84" transform="matrix(-1.327864e-10 1 -1 -1.327864e-10 110.9996 58.9996)" class="st1" width="2" height="2"/>
			<rect x="25" y="86" transform="matrix(-1.355149e-10 1 -1 -1.355149e-10 112.9996 60.9996)" class="st1" width="2" height="2"/>
			<rect x="25" y="88" class="st4" width="2" height="4"/>
		</g>
		<polygon class="st5" points="63,118 63,130 59,130 59,132 45,132 45,120 59,120 59,118 		"/>
		<rect x="25" y="94" class="st4" width="2" height="10"/>
		<rect x="63" y="76" class="st4" width="4" height="2"/>
		<rect x="65" y="78" class="st4" width="4" height="2"/>
		<rect x="67" y="78" class="st6" width="2" height="12"/>
		<rect x="67" y="78" class="st6" width="2" height="2"/>
		<rect x="67" y="122" class="st6" width="2" height="2"/>
		<rect x="27" y="122" class="st6" width="2" height="2"/>
		<rect x="37" y="130" class="st6" width="2" height="2"/>
		<rect x="57" y="130" class="st6" width="2" height="2"/>
		<polygon class="st6" points="71,108 71,120 69,120 69,124 67,124 67,126 65,126 65,128 63,128 63,116 65,116 65,114 67,114 
			67,112 69,112 69,108 		"/>
		<rect x="61" y="118" class="st6" width="2" height="12"/>
		<rect x="37" y="108" class="st1" width="2" height="2"/>
		<polygon class="st4" points="45,102 45,112 43,112 43,110 37,110 37,106 33,106 33,94 37,94 37,100 43,100 43,102 		"/>
		<rect x="45" y="100" class="st5" width="14" height="12"/>
		<g>
			<rect x="41" y="112" class="st5" width="16" height="2"/>
			<rect x="45" y="112" class="st6" width="12" height="2"/>
			<rect x="37" y="110" class="st5" width="6" height="2"/>
			<rect x="35" y="106" class="st5" width="2" height="4"/>
			<rect x="33" y="104" class="st5" width="2" height="4"/>
			<rect x="31" y="94" class="st4" width="2" height="12"/>
			<rect x="55" y="110" transform="matrix(-1 -4.486867e-11 4.486867e-11 -1 116 221.9993)" class="st6" width="6" height="2"/>
			<rect x="61" y="106" transform="matrix(-1 -4.547486e-11 4.547486e-11 -1 124 215.9993)" class="st6" width="2" height="4"/>
			<rect x="63" y="104" transform="matrix(-1 -4.547486e-11 4.547486e-11 -1 128 211.9993)" class="st6" width="2" height="4"/>
			<rect x="65" y="94" transform="matrix(-1 -4.456536e-11 4.456536e-11 -1 132 199.9993)" class="st6" width="2" height="12"/>
		</g>
		<g>
			<rect x="65" y="76" transform="matrix(-1 -1.224647e-16 1.224647e-16 -1 132 163.9993)" class="st5" width="2" height="12"/>
			<polygon class="st1" points="57,68 57,70 43,70 43,72 37,72 37,70 41,70 41,68 			"/>
			<polygon class="st1" points="37,72 37,76 35,76 35,78 33,78 33,88 31,88 31,76 33,76 33,74 35,74 35,72 			"/>
			<rect x="31" y="78" class="st4" width="2" height="2"/>
		</g>
		<g>
			<polygon class="st5" points="67,82 67,94 65,94 65,96 63,96 63,98 61,98 61,100 57,100 57,102 41,102 41,100 37,100 37,98 35,98 
				35,96 33,96 33,94 31,94 31,82 33,82 33,92 35,92 35,94 37,94 37,96 39,96 39,98 43,98 43,100 55,100 55,98 59,98 59,96 61,96 
				61,94 63,94 63,92 65,92 65,82 			"/>
		</g>
		<rect x="59" y="108" transform="matrix(-1 -4.456536e-11 4.456536e-11 -1 120 217.9993)" class="st6" width="2" height="2"/>
		<polygon class="st3" points="65,76 65,94 61,94 61,98 55,98 55,100 43,100 43,98 37,98 37,94 33,94 33,76 37,76 37,72 43,72 
			43,70 55,70 55,72 61,72 61,76 		"/>
		<rect x="31" y="102" class="st5" width="2" height="4"/>
		<rect x="69" y="86" class="st4" width="2" height="16"/>
		<rect x="57" y="68" class="st5" width="2" height="2"/>
		<rect x="61" y="70" class="st5" width="2" height="2"/>
		<rect x="63" y="72" class="st6" width="2" height="2"/>
		<rect x="65" y="74" class="st6" width="2" height="2"/>
		<rect x="67" y="76" class="st6" width="2" height="2"/>
		<rect x="69" y="80" class="st6" width="2" height="6"/>
		<rect x="33" y="92" class="st5" width="2" height="2"/>
		<rect x="63" y="92" class="st5" width="2" height="2"/>
		<rect x="37" y="72" class="st1" width="2" height="2"/>
		<rect x="33" y="76" class="st1" width="2" height="2"/>
		<rect x="45" y="114" class="st4" width="14" height="2"/>
		<rect x="71" y="134" class="st5" width="2" height="2"/>
		<rect x="67" y="134" class="st5" width="2" height="2"/>
		<rect x="63" y="134" class="st5" width="2" height="2"/>
		<rect x="61" y="134" class="st5" width="2" height="2"/>
		<rect x="73" y="136" class="st4" width="2" height="2"/>
		<g>
			<rect x="47" y="92" class="st5" width="2" height="2"/>
			<rect x="49" y="90" class="st4" width="2" height="2"/>
			<rect x="49" y="92" class="st5" width="2" height="2"/>
			<rect x="51" y="94" class="st4" width="2" height="2"/>
			<rect x="47" y="79" class="st4" width="2" height="13"/>
			<rect x="45" y="76" class="st4" width="6" height="6"/>
			<g>
				<rect x="46" y="79" class="st1" width="2" height="2"/>
				<rect x="46" y="77" class="st8" width="2" height="2"/>
				<rect x="48" y="77" transform="matrix(-1 -8.913061e-11 8.913061e-11 -1 98 155.9993)" class="st9" width="2" height="2"/>
				<rect x="48" y="79" transform="matrix(-1 -8.913061e-11 8.913061e-11 -1 98 159.9993)" class="st10" width="2" height="2"/>
			</g>
			<rect x="45" y="81" class="st5" width="6" height="1"/>
			<rect x="45" y="76" class="st1" width="3" height="1"/>
			<rect x="47" y="82" class="st6" width="2" height="1"/>
			<rect x="48" y="81.8" class="st6" width="1" height="10.2"/>
		</g>
		<g>
			<rect x="38" y="64" class="st5" width="1" height="18"/>
			<g>
				<rect x="37" y="82" class="st5" width="2" height="2"/>
				<rect x="39" y="80" class="st4" width="2" height="2"/>
				<rect x="39" y="82" class="st5" width="2" height="2"/>
				<rect x="41" y="84" class="st4" width="2" height="2"/>
				<rect x="37" y="64" class="st4" width="1" height="18"/>
				<rect x="37" y="62" class="st11" width="2" height="2"/>
			</g>
		</g>
		<polygon class="st4" points="61,80 61,84 60,84 60,85 59,85 59,86 55,86 55,85 54,85 54,84 53,84 53,80 54,80 54,79 55,79 55,78 
			59,78 59,79 60,79 60,80 		"/>
		<polygon class="st5" points="60,84 60,85 59,85 59,86 55,86 55,85 58,85 58,84 		"/>
		<rect x="60" y="83" class="st5" width="1" height="1"/>
	</g>
	<polygon class="st5" points="81,198 81,200 71,200 71,198 63,198 63,196 31,196 31,194 67,194 67,196 75,196 75,198 	"/>
	<g>
		<polygon class="st4" points="59,194 59,196 35,196 35,198 27,198 27,200 17,200 17,198 23,198 23,196 31,196 31,194 		"/>
		<polygon class="st5" points="21,198 21,200 19,200 19,202 9,202 9,200 17,200 17,198 		"/>
		<rect x="79" y="200" class="st6" width="10" height="2"/>
		<rect x="75" y="198" class="st6" width="6" height="2"/>
	</g>
	<g>
		<rect x="15" y="216" class="st5" width="4" height="28"/>
		<rect x="16" y="216" class="st12" width="1" height="28"/>
		<rect x="17" y="214" class="st4" width="2" height="32"/>
		<rect x="18" y="214" class="st1" width="1" height="8"/>
		<rect x="18" y="224" class="st1" width="1" height="6"/>
		<rect x="18" y="232" class="st1" width="1" height="2"/>
		<rect x="15" y="214" class="st12" width="2" height="2"/>
	</g>
	<g>
		<rect x="79" y="216" transform="matrix(-1 -4.547486e-11 4.547486e-11 -1 162 459.9992)" class="st12" width="4" height="28"/>
		<rect x="81" y="216" transform="matrix(-1 -4.365587e-11 4.365587e-11 -1 163 459.9992)" class="st12" width="1" height="28"/>
		<rect x="79" y="214" transform="matrix(-1 -4.547486e-11 4.547486e-11 -1 160 459.9992)" class="st5" width="2" height="32"/>
		<rect x="79" y="214" transform="matrix(-1 -4.729385e-11 4.729385e-11 -1 159 435.9992)" class="st3" width="1" height="8"/>
		<rect x="79" y="224" transform="matrix(-1 -4.729385e-11 4.729385e-11 -1 159 453.9992)" class="st3" width="1" height="6"/>
		<rect x="79" y="232" transform="matrix(-1 -4.729385e-11 4.729385e-11 -1 159 465.9992)" class="st3" width="1" height="2"/>
		<rect x="81" y="214" transform="matrix(-1 -4.547486e-11 4.547486e-11 -1 164 429.9992)" class="st12" width="2" height="2"/>
	</g>
	<rect x="9" y="278" class="st1" width="2" height="2"/>
	<rect x="5" y="282" class="st1" width="2" height="2"/>
	<rect x="87" y="280" class="st1" width="2" height="2"/>
	<rect x="95" y="258" class="st1" width="2" height="2"/>
	<rect x="93" y="252" class="st1" width="2" height="2"/>
	<rect x="3" y="254" class="st1" width="4" height="2"/>
	<polygon class="st4" points="65,74 65,78 63,78 63,76 61,76 61,74 59,74 59,72 55,72 55,70 49,70 49,68 57,68 57,70 61,70 61,72 
		63,72 63,74 	"/>
	<g>
		<polygon class="st6" points="89,38 89,262 87,262 87,268 85,268 85,272 83,272 83,276 81,276 81,278 79,278 79,280 77,280 77,282 
			75,282 75,284 73,284 73,286 69,286 69,288 65,288 65,290 59,290 59,292 39,292 39,290 33,290 33,288 29,288 29,286 25,286 
			25,284 23,284 23,282 21,282 21,280 19,280 19,276 21,276 21,278 23,278 23,280 25,280 25,282 27,282 27,284 31,284 31,286 
			35,286 35,288 41,288 41,290 57,290 57,288 63,288 63,286 67,286 67,284 71,284 71,282 73,282 73,280 75,280 75,278 77,278 
			77,276 79,276 79,274 81,274 81,270 83,270 83,266 85,266 85,260 87,260 87,40 85,40 85,34 83,34 83,30 81,30 81,26 79,26 79,24 
			77,24 77,22 75,22 75,20 73,20 73,18 71,18 71,16 67,16 67,14 73,14 73,16 75,16 75,18 77,18 77,20 79,20 79,22 81,22 81,24 
			83,24 83,28 85,28 85,32 87,32 87,38 		"/>
	</g>
</g>
</svg>
