<svg xmlns="http://www.w3.org/2000/svg" width="269.2" height="148.33" viewBox="0 0 269.2 148.33"><defs><style>.cls-1{fill:#96a5ab;}.cls-1,.cls-10,.cls-11,.cls-2,.cls-3,.cls-4,.cls-5,.cls-6,.cls-7,.cls-8,.cls-9{stroke:#000;stroke-miterlimit:10;stroke-width:0.25px;}.cls-2{fill:#293746;}.cls-3{fill:#182028;}.cls-4{fill:#586c79;}.cls-5{fill:#2a3747;}.cls-6{fill:#9f1e31;}.cls-7{fill:#3259e2;}.cls-8{fill:#34a4fe;}.cls-9{fill:#fff;}.cls-10{fill:#69deff;}.cls-11{fill:#080d11;}</style></defs><g id="Layer_2" data-name="Layer 2"><g id="Layer_1-2" data-name="Layer 1"><g id="Layer_2-2" data-name="Layer 2"><g id="Submarine_sideview" data-name="Submarine sideview"><path class="cls-1" d="M265,130.92l-.37.93Z"/><path class="cls-2" d="M266.5,127.2,265,130.92h0c.28-.69.49-1.4.71-2.11A13.9,13.9,0,0,0,266.5,127.2Z"/><path class="cls-2" d="M268.7,121.62l-2.2,5.58a13.08,13.08,0,0,1-.77,1.6,40.69,40.69,0,0,0,1.56-7.74Z"/><path class="cls-2" d="M265,130.92l-.55-.21a18.39,18.39,0,0,0,1.26-1.9C265.51,129.51,265.31,130.23,265,130.92Z"/><path class="cls-2" d="M265.73,128.8a17.37,17.37,0,0,1-1.26,1.9l-1.3-.51,3.67-9.3.45.17A40.69,40.69,0,0,1,265.73,128.8Z"/><path class="cls-1" d="M263.17,130.19l1.3.51a24.87,24.87,0,0,1-2.72,3.08Z"/><path class="cls-1" d="M267.29,121.06l-.45-.17.58-1.46C267.37,120,267.34,120.52,267.29,121.06Z"/><path class="cls-2" d="M261.75,133.78l-.78,2-1-.39C260.61,134.86,261.2,134.31,261.75,133.78Z"/><path class="cls-2" d="M263.17,130.19l-1.42,3.59c-.55.53-1.14,1.08-1.77,1.6l-.87-.34-.61,1.53c-.71.56-1.5,1.09-2.26,1.63l-.46-.18,2.2-5.58,1.86.74,2.2-5.58,1.86.73Z"/><polygon class="cls-1" points="266.11 122.75 263.9 128.33 262.04 127.59 259.84 133.18 257.98 132.44 256.51 136.16 254.65 135.43 253.19 139.15 251.32 138.42 210.4 122.27 209.66 124.13 207.8 123.4 207.07 125.26 181.02 114.98 181.75 113.12 172.45 109.45 173.92 105.73 180.53 88.99 184.19 79.68 182.33 78.95 183.07 77.09 203.53 85.16 204.27 83.3 206.13 84.04 206.86 82.18 208.72 82.91 209.46 81.05 213.18 82.52 213.91 80.66 217.63 82.13 218.37 80.26 216.5 79.53 217.24 77.67 219.1 78.4 219.83 76.54 217.97 75.81 218.71 73.95 214.99 72.48 215.72 70.62 249.21 83.83 248.47 85.69 254.06 87.89 253.32 89.75 257.04 91.22 256.31 93.08 260.03 94.55 259.3 96.41 261.16 97.14 260.42 99.01 262.28 99.74 261.55 101.6 263.41 102.33 262.68 104.19 264.54 104.93 263.8 106.79 265.66 107.52 264.19 111.24 266.06 111.98 264.59 115.7 266.45 116.43 264.25 122.01 266.11 122.75"/><path class="cls-2" d="M266.84,120.89l-.73,1.86-1.86-.74,2.93-7.44.23.09a40,40,0,0,1,0,4.77Z"/><path class="cls-2" d="M269,115.31l-1.62,4.12a40,40,0,0,0,0-4.77Z"/><path class="cls-1" d="M259.11,135l.87.34c-.47.41-1,.81-1.48,1.19Z"/><path class="cls-1" d="M267.41,114.66l-.23-.09.2-.5C267.4,114.27,267.41,114.47,267.41,114.66Z"/><path class="cls-2" d="M258.5,136.57l-.86,2.19-1.4-.56C257,137.66,257.79,137.13,258.5,136.57Z"/><path class="cls-2" d="M267.18,114.57l-.73,1.86-1.86-.73,2.2-5.58.13,0c.21,1.29.37,2.6.46,3.9Z"/><path class="cls-2" d="M268.65,110.85l-1.27,3.22c-.09-1.3-.25-2.61-.46-3.9Z"/><path class="cls-1" d="M255.78,138l.46.18-.71.47Z"/><path class="cls-1" d="M266.92,110.17l-.13,0,.08-.21Z"/><path class="cls-3" d="M255.53,138.67l-1.22,3.08-1.86-.74-.73,1.86-1.86-.73-.74,1.86-1.86-.74-.73,1.86-1.86-.73-.74,1.86-1.86-.73.37-.93A51.16,51.16,0,0,0,255.53,138.67Z"/><path class="cls-3" d="M255.78,138l-.25.65a51.41,51.41,0,0,1-13.11,6l1.1-2.79,1.86.74.74-1.86,1.86.73.73-1.86,1.86.73.74-1.86,1.86.74,1.48-3.77,1.86.73Z"/><path class="cls-2" d="M266.79,110.12l-.74,1.86-1.86-.74,1.91-4.81c.29,1.19.56,2.3.75,3.52Z"/><path class="cls-2" d="M268.26,106.4l-1.39,3.51c-.22-1.16-.47-2.33-.76-3.52l.29-.73Z"/><path class="cls-2" d="M266.1,106.43l-.44,1.09-1.86-.73.74-1.86,1.27.5C265.92,105.76,266,106.09,266.1,106.43Z"/><path class="cls-2" d="M266.4,105.66l-.3.77c-.1-.34-.18-.67-.29-1Z"/><path class="cls-2" d="M267.13,103.8l-.73,1.86-.59-.23c-.24-.83-.51-1.65-.81-2.47Z"/><path class="cls-2" d="M265.81,105.43l-3.13-1.24.73-1.86L265,103C265.3,103.78,265.57,104.6,265.81,105.43Z"/><polygon class="cls-4" points="251.32 138.42 250.59 140.28 248.73 139.54 248 141.4 246.14 140.67 244.28 139.94 243.54 141.8 242.81 143.66 240.95 142.92 237.23 141.46 235.37 140.72 168.39 114.3 169.12 112.44 170.98 113.17 172.45 109.45 181.75 113.12 181.02 114.98 207.07 125.26 207.8 123.4 209.66 124.13 210.4 122.27 251.32 138.42"/><path class="cls-2" d="M266,101.21l-.73,1.86L265,103c-.31-.86-.65-1.72-1-2.56Z"/><path class="cls-2" d="M265,103l-3.45-1.36.73-1.86,1.68.66C264.35,101.24,264.69,102.1,265,103Z"/><path class="cls-2" d="M264.88,98.61l-.74,1.86-.18-.07c-.4-.91-.82-1.79-1.29-2.66Z"/><path class="cls-2" d="M264,100.4,260.42,99l.74-1.86,1.51.59C263.14,98.61,263.56,99.49,264,100.4Z"/><rect class="cls-4" x="243.84" y="140.23" width="2" height="2" transform="translate(23.61 317.16) rotate(-68.47)"/><path class="cls-2" d="M263.75,96,263,97.88l-.35-.14c-.5-.95-1.05-1.88-1.64-2.79Z"/><path class="cls-2" d="M262.67,97.74l-3.37-1.33.73-1.86,1,.4A27.45,27.45,0,0,1,262.67,97.74Z"/><path class="cls-3" d="M242.07,145.52l-.73,1.86-3.72-1.47,0-.13c1.09-.2,2.17-.45,3.23-.73Z"/><path class="cls-3" d="M242.42,144.63l-.36.93-1.18-.46C241.42,144.92,241.92,144.78,242.42,144.63Z"/><path class="cls-3" d="M242.81,143.66l-.37.93c-.5.14-1,.29-1.54.46l-.69-.27.74-1.86Z"/><path class="cls-2" d="M262.62,93.42l-.73,1.86L261,95c-.67-1-1.35-2-2.1-3Z"/><path class="cls-2" d="M261,95l-4.72-1.87.73-1.86,1.86.74A33.92,33.92,0,0,1,261,95Z"/><path class="cls-3" d="M240.21,144.78l.69.27c-1.06.28-2.14.53-3.23.73l.68-1.73Z"/><polygon class="cls-5" points="240.95 142.92 240.21 144.78 238.35 144.05 236.49 143.31 237.23 141.46 240.95 142.92"/><path class="cls-3" d="M237.62,145.91l-.74,1.86-3.54-1.4c1.37-.11,2.73-.3,4.07-.54Z"/><path class="cls-3" d="M237.67,145.78l0,.13-.21-.08Z"/><path class="cls-3" d="M238.35,144.05l-.68,1.73-.26.05-1.65-.65.73-1.86Z"/><path class="cls-2" d="M258.9,92h0l-5.58-2.21.74-1.86,2,.81A36.29,36.29,0,0,1,258.9,92Z"/><path class="cls-2" d="M259.64,90.1,258.9,92a36.29,36.29,0,0,0-2.81-3.26Z"/><path class="cls-3" d="M235.76,145.18l1.65.65c-1.34.24-2.7.43-4.07.54l-.18-.07,0,.09a40.41,40.41,0,0,1-4.92.11l-1.36-.54-.18.45a34.15,34.15,0,0,1-9.86-2.26L179.6,129.47l.74-1.86,45.11,17.8.74-1.86,5.11,2,.74-1.86Z"/><polygon class="cls-5" points="236.49 143.31 235.76 145.18 232.04 143.71 228.32 142.24 226.92 141.69 227.47 140.29 167.47 116.63 168.39 114.3 235.37 140.72 234.63 142.58 236.49 143.31"/><rect class="cls-5" x="234.93" y="141.02" width="2" height="2" transform="translate(17.24 309.37) rotate(-68.47)"/><path class="cls-1" d="M256.09,88.7l-.17-.07,0-.08Z"/><path class="cls-1" d="M233.34,146.37l-.21,0,0-.09Z"/><path class="cls-3" d="M233.13,146.39l-.7,1.77-4.22-1.66A40.41,40.41,0,0,0,233.13,146.39Z"/><path class="cls-2" d="M256,88.55l0,.08-7.45-2.94.74-1.86,2.55,1A36.92,36.92,0,0,1,256,88.55Z"/><path class="cls-2" d="M256.65,86.77l-.7,1.78a36.92,36.92,0,0,0-4.19-3.71Z"/><rect class="cls-5" x="228.81" y="141.9" width="2" height="4" transform="translate(11.61 304.87) rotate(-68.47)"/><path class="cls-1" d="M226.85,146l1.36.54-1.54-.09Z"/><path class="cls-1" d="M251.76,84.84l-.69-.27.08-.2Z"/><path class="cls-3" d="M226.67,146.41l-.56,1.41-9.3-3.67A34.15,34.15,0,0,0,226.67,146.41Z"/><rect class="cls-5" x="226.25" y="142.15" width="2" height="1.5" transform="translate(10.93 301.85) rotate(-68.47)"/><path class="cls-2" d="M251.15,84.37l-.08.2L213.86,69.89l.55-1.4,27.91,11A39.42,39.42,0,0,1,251.15,84.37Z"/><path class="cls-2" d="M251.8,82.71l-.65,1.66a39.42,39.42,0,0,0-8.83-4.87l-27.91-11,.18-.46Z"/><rect class="cls-5" x="224.59" y="144.14" width="2" height="0.5" transform="translate(8.49 301.25) rotate(-68.47)"/><rect class="cls-5" x="225.32" y="142.28" width="2" height="0.5" transform="translate(10.68 300.76) rotate(-68.47)"/><polygon class="cls-5" points="227.47 140.29 226.92 141.69 226.46 141.51 166.92 118.02 167.47 116.63 227.47 140.29"/><polygon class="cls-5" points="225.72 143.37 224.99 145.23 180.34 127.61 64.99 82.11 20.34 64.49 21.07 62.63 78.75 85.39 80.61 86.12 164.33 119.15 166.19 119.88 225.72 143.37"/><rect class="cls-5" x="195.32" y="98.69" width="2" height="64" transform="translate(2.7 265.36) rotate(-68.47)"/><polygon class="cls-4" points="218.37 80.26 217.63 82.13 213.91 80.66 200.89 75.52 201.62 73.66 203.48 74.39 216.5 79.53 218.37 80.26"/><polygon class="cls-4" points="219.83 76.54 219.1 78.4 217.24 77.67 206.08 73.27 206.81 71.41 217.97 75.81 219.83 76.54"/><polygon class="cls-4" points="217.24 77.67 216.5 79.53 203.48 74.39 204.22 72.53 206.08 73.27 217.24 77.67"/><polygon class="cls-4" points="218.71 73.95 217.97 75.81 206.81 71.41 207.54 69.55 209.41 70.28 214.99 72.48 218.71 73.95"/><polygon class="cls-4" points="213.91 80.66 213.18 82.52 209.46 81.05 198.29 76.65 199.03 74.79 200.89 75.52 213.91 80.66"/><polygon class="cls-4" points="215.72 70.62 214.99 72.48 209.41 70.28 210.14 68.42 213.86 69.89 215.72 70.62"/><polygon class="cls-4" points="209.46 81.05 208.72 82.91 206.86 82.18 197.56 78.51 198.29 76.65 209.46 81.05"/><rect class="cls-3" x="211.52" y="66.46" width="1.5" height="4" transform="translate(70.7 240.8) rotate(-68.47)"/><rect class="cls-3" x="212.39" y="65.52" width="0.5" height="4" transform="translate(71.79 240.55) rotate(-68.47)"/><polygon class="cls-4" points="206.86 82.18 206.13 84.04 204.27 83.3 183.8 75.23 184.54 73.37 191.98 76.31 193.84 77.04 195.7 77.77 197.56 78.51 206.86 82.18"/><rect class="cls-4" x="192.67" y="69.2" width="2" height="22" transform="translate(48 230.92) rotate(-68.47)"/><rect class="cls-3" x="207.84" y="67.98" width="2" height="2" transform="translate(68.03 237.94) rotate(-68.47)"/><rect class="cls-3" x="208.73" y="66.35" width="1.5" height="2" transform="translate(69.95 237.51) rotate(-68.47)"/><rect class="cls-3" x="209.6" y="65.42" width="0.5" height="2" transform="translate(71.05 237.26) rotate(-68.47)"/><rect class="cls-3" x="207.41" y="61.47" width="8" height="2" transform="translate(75.72 236.21) rotate(-68.47)"/><rect class="cls-3" x="212.56" y="57.28" width="1" height="2" transform="translate(80.66 235.09) rotate(-68.47)"/><rect class="cls-1" x="212.93" y="56.35" width="1" height="2" transform="translate(81.75 234.84) rotate(-68.47)"/><rect class="cls-3" x="204.51" y="70.97" width="2" height="2" transform="translate(63.15 236.73) rotate(-68.47)"/><rect class="cls-3" x="205.25" y="69.11" width="2" height="2" transform="translate(65.34 236.24) rotate(-68.47)"/><rect class="cls-3" x="205.98" y="67.25" width="2" height="2" transform="translate(67.54 235.74) rotate(-68.47)"/><rect class="cls-3" x="206.87" y="65.62" width="1.5" height="2" transform="translate(69.46 235.31) rotate(-68.47)"/><rect class="cls-3" x="207.74" y="64.69" width="0.5" height="2" transform="translate(70.56 235.06) rotate(-68.47)"/><rect class="cls-3" x="205.55" y="60.74" width="8" height="2" transform="translate(75.22 234.01) rotate(-68.47)"/><rect class="cls-3" x="210.7" y="56.55" width="1" height="2" transform="translate(80.16 232.9) rotate(-68.47)"/><rect class="cls-1" x="211.07" y="55.62" width="1" height="2" transform="translate(81.26 232.65) rotate(-68.47)"/><rect class="cls-3" x="202.65" y="70.24" width="2" height="2" transform="translate(62.65 234.54) rotate(-68.47)"/><polygon class="cls-5" points="205.68 68.81 204.95 70.67 203.09 69.94 195.65 67 196.38 65.14 205.68 68.81"/><rect class="cls-3" x="201.92" y="72.1" width="2" height="2" transform="translate(60.46 235.03) rotate(-68.47)"/><rect class="cls-5" x="200.4" y="61.05" width="2" height="10" transform="translate(66.05 229.16) rotate(-68.47)"/><rect class="cls-5" x="201.29" y="59.42" width="1.5" height="10" transform="translate(67.97 228.72) rotate(-68.47)"/><rect class="cls-5" x="202.16" y="58.49" width="0.5" height="10" transform="translate(69.07 228.48) rotate(-68.47)"/><rect class="cls-5" x="199.97" y="54.53" width="8" height="10" transform="translate(73.74 227.43) rotate(-68.47)"/><polygon class="cls-3" points="210.45 56.72 210.09 57.65 200.78 53.98 201.52 52.12 203.38 52.85 205.24 53.59 208.96 55.05 210.82 55.79 210.45 56.72"/><rect class="cls-3" x="121.3" y="43.79" width="2" height="124" transform="translate(-20.99 180.73) rotate(-68.47)"/><rect class="cls-3" x="199.32" y="73.22" width="2" height="2" transform="translate(57.77 233.33) rotate(-68.47)"/><rect class="cls-3" x="200.06" y="71.36" width="2" height="2" transform="translate(59.96 232.84) rotate(-68.47)"/><polygon class="cls-5" points="203.09 69.94 202.35 71.8 200.5 71.06 194.91 68.86 195.65 67 203.09 69.94"/><polygon class="cls-5" points="214.83 40.17 208.96 55.05 205.24 53.59 205.97 51.73 204.11 50.99 204.85 49.13 205.58 47.27 206.31 45.41 207.05 43.55 207.78 41.69 209.25 37.97 214.83 40.17"/><polygon class="cls-5" points="215.57 38.31 214.83 40.17 209.25 37.97 194.37 32.1 194.73 31.17 202.18 34.1 202.54 33.17 215.57 38.31"/><rect class="cls-3" x="196" y="76.21" width="2" height="2" transform="translate(52.88 232.13) rotate(-68.47)"/><rect class="cls-3" x="196.73" y="74.35" width="2" height="2" transform="translate(55.08 231.63) rotate(-68.47)"/><polygon class="cls-5" points="199.76 72.92 199.03 74.79 197.17 74.05 193.45 72.58 194.18 70.72 199.76 72.92"/><rect class="cls-5" x="196.34" y="67.89" width="2" height="6" transform="translate(58.97 228.45) rotate(-68.47)"/><rect class="cls-3" x="194.14" y="75.48" width="2" height="2" transform="translate(52.39 229.93) rotate(-68.47)"/><polygon class="cls-5" points="197.17 74.05 196.43 75.91 194.57 75.18 192.71 74.44 193.45 72.58 197.17 74.05"/><rect class="cls-5" x="203.68" y="51.29" width="2" height="2" transform="translate(80.92 223.5) rotate(-68.47)"/><rect class="cls-3" x="192.27" y="74.74" width="2" height="2" transform="translate(51.89 227.74) rotate(-68.47)"/><polygon class="cls-5" points="204.11 50.99 203.38 52.85 201.52 52.12 188.5 46.98 189.23 45.12 198.53 48.79 200.39 49.52 202.25 50.26 204.11 50.99"/><rect class="cls-5" x="202.55" y="48.69" width="2" height="2" transform="translate(82.63 220.81) rotate(-68.47)"/><rect class="cls-4" x="203.28" y="46.83" width="2" height="2" transform="translate(84.82 220.31) rotate(-68.47)"/><rect class="cls-5" x="204.02" y="44.97" width="2" height="2" transform="translate(87.02 219.82) rotate(-68.47)"/><path class="cls-4" d="M207.05,43.55l-.73,1.86-1.87-.73-.73,1.86-1.86-.74-.73,1.86-1.86-.73-.74,1.86-9.3-3.67,5.14-13L209.25,38l-1.47,3.72L205.92,41l-.73,1.86Zm-4.46.39.74-1.86-1.86-.73-.74,1.86Z"/><rect class="cls-5" x="205.49" y="41.25" width="2" height="2" transform="translate(91.41 218.83) rotate(-68.47)"/><polygon class="cls-3" points="192.71 74.44 191.98 76.31 184.54 73.37 185.27 71.51 187.13 72.24 188.99 72.98 192.71 74.44"/><polygon class="cls-5" points="193.45 72.58 192.71 74.44 188.99 72.98 189.72 71.12 191.59 71.85 193.45 72.58"/><rect class="cls-5" x="191.88" y="70.29" width="2" height="2" transform="translate(55.79 224.55) rotate(-68.47)"/><rect class="cls-4" x="192.62" y="68.43" width="2" height="2" transform="translate(57.98 224.06) rotate(-68.47)"/><rect class="cls-5" x="193.35" y="66.57" width="2" height="2" transform="translate(60.18 223.56) rotate(-68.47)"/><polygon class="cls-4" points="196.38 65.14 195.65 67 193.79 66.27 191.93 65.53 192.66 63.67 194.52 64.41 196.38 65.14"/><rect class="cls-5" x="194.82" y="62.84" width="2" height="2" transform="translate(64.57 222.57) rotate(-68.47)"/><polygon class="cls-4" points="197.67 61.89 197.12 63.28 195.25 62.55 189.67 60.35 185.95 58.88 186.5 57.48 197.67 61.89"/><rect class="cls-4" x="191.93" y="53.45" width="0.5" height="12" transform="translate(66.35 216.4) rotate(-68.47)"/><polygon class="cls-4" points="200.78 53.98 197.85 61.42 186.69 57.02 184.83 56.28 182.97 55.55 184.43 51.83 185.9 48.11 200.78 53.98"/><polygon class="cls-3" points="201.52 52.12 200.78 53.98 185.9 48.11 186.63 46.25 188.5 46.98 201.52 52.12"/><rect class="cls-4" x="200.69" y="47.96" width="2" height="2" transform="translate(82.13 218.61) rotate(-68.47)"/><rect class="cls-5" x="201.42" y="46.1" width="2" height="2" transform="translate(84.33 218.12) rotate(-68.47)"/><rect class="cls-4" x="190.02" y="69.55" width="2" height="2" transform="translate(55.29 222.36) rotate(-68.47)"/><rect class="cls-5" x="190.76" y="67.69" width="2" height="2" transform="translate(57.49 221.86) rotate(-68.47)"/><rect class="cls-4" x="191.49" y="65.83" width="2" height="2" transform="translate(59.68 221.37) rotate(-68.47)"/><polygon class="cls-4" points="195.25 62.55 194.52 64.41 192.66 63.67 188.94 62.21 189.67 60.35 195.25 62.55"/><rect class="cls-5" x="198.83" y="47.23" width="2" height="2" transform="translate(81.64 216.42) rotate(-68.47)"/><rect class="cls-5" x="201.03" y="41.65" width="2" height="2" transform="translate(88.22 214.93) rotate(-68.47)"/><rect class="cls-4" x="187.43" y="70.68" width="2" height="2" transform="translate(52.6 220.66) rotate(-68.47)"/><rect class="cls-5" x="188.16" y="68.82" width="2" height="2" transform="translate(54.8 220.16) rotate(-68.47)"/><polygon class="cls-4" points="191.19 67.39 190.46 69.25 188.6 68.52 187.86 70.38 186 69.65 186.74 67.79 184.88 67.05 185.61 65.19 183.75 64.46 185.95 58.88 189.67 60.35 188.94 62.21 192.66 63.67 191.93 65.53 190.07 64.8 189.33 66.66 191.19 67.39"/><rect class="cls-5" x="189.63" y="65.1" width="2" height="2" transform="translate(59.19 219.17) rotate(-68.47)"/><rect class="cls-5" x="168.79" y="109.95" width="4" height="2" transform="translate(4.91 229.1) rotate(-68.47)"/><rect class="cls-5" x="170.26" y="106.22" width="4" height="2" transform="translate(9.3 228.11) rotate(-68.47)"/><rect class="cls-4" x="167.29" y="95.99" width="18" height="2" transform="translate(21.37 225.39) rotate(-68.47)"/><polygon class="cls-5" points="184.19 79.68 180.53 88.99 178.66 88.25 180.87 82.67 182.33 78.95 184.19 79.68"/><rect class="cls-5" x="185.57" y="69.95" width="2" height="2" transform="translate(52.11 218.46) rotate(-68.47)"/><polygon class="cls-1" points="202.54 33.17 202.18 34.1 194.73 31.17 195.1 30.24 198.82 31.7 199.75 32.07 200.68 32.44 202.54 33.17"/><rect class="cls-5" x="164.62" y="117.58" width="2" height="2" transform="translate(-5.47 229.14) rotate(-68.47)"/><rect class="cls-5" x="165.52" y="115.96" width="1.5" height="2" transform="translate(-3.54 228.7) rotate(-68.47)"/><rect class="cls-5" x="165.75" y="114.09" width="2.5" height="2" transform="translate(-1.35 228.21) rotate(-68.47)"/><polygon class="cls-5" points="169.12 112.44 168.39 114.3 166.53 113.56 168.73 107.98 170.59 108.72 169.12 112.44"/><path class="cls-1" d="M172.06,105l-1.47,3.72L129.66,92.57l-.73,1.86L125.21,93l1.46-3.72-20.46-8.07-1.47,3.72-1.86-.73.73-1.86L86.87,75.69,98.61,45.92l-1.86-.73,2.94-7.44L97.83,37l2.2-5.58-1.86-.73,2.2-5.58,61.4,24.22L161,51.2l1.86.73-1.46,3.72,1.86.74-.74,1.86,1.86.73-.73,1.86,1.86.73-.74,1.86,1.87.74L165.93,66l1.86.73-.73,1.86,3.72,1.47L170,72l11.17,4.41L179,81.94l1.86.73Zm-12.5-50.08.74-1.86-1.86-.74-.74,1.86Z"/><polygon class="cls-5" points="182.33 78.95 180.87 82.67 179.01 81.94 181.21 76.36 183.07 77.09 182.33 78.95"/><rect class="cls-3" x="181.5" y="74.79" width="2" height="2" transform="translate(45.03 217.75) rotate(-68.47)"/><rect class="cls-3" x="182.24" y="72.93" width="2" height="2" transform="translate(47.22 217.26) rotate(-68.47)"/><rect class="cls-3" x="182.97" y="71.07" width="2" height="2" transform="translate(49.42 216.76) rotate(-68.47)"/><rect class="cls-4" x="183.71" y="69.21" width="2" height="2" transform="translate(51.61 216.27) rotate(-68.47)"/><rect class="cls-5" x="184.44" y="67.35" width="2" height="2" transform="translate(53.81 215.77) rotate(-68.47)"/><rect class="cls-3" x="199.58" y="30.82" width="2" height="1" transform="translate(97.84 206.42) rotate(-68.47)"/><rect class="cls-5" x="195.89" y="22.45" width="16" height="1" transform="translate(107.71 204.19) rotate(-68.47)"/><polygon class="cls-6" points="208.02 13.83 207.29 15.69 206.36 15.33 205.43 14.96 206.16 13.1 208.02 13.83"/><rect class="cls-3" x="198.65" y="30.46" width="2" height="1" transform="translate(97.59 205.32) rotate(-68.47)"/><rect class="cls-4" x="194.96" y="22.09" width="16" height="1" transform="translate(107.47 203.09) rotate(-68.47)"/><rect class="cls-5" x="121.83" y="56.7" width="2" height="90" transform="translate(-16.85 178.64) rotate(-68.47)"/><rect class="cls-5" x="122.73" y="55.07" width="1.5" height="90" transform="translate(-14.93 178.21) rotate(-68.47)"/><rect class="cls-5" x="122.96" y="53.21" width="2.5" height="90" transform="translate(-12.73 177.72) rotate(-68.47)"/><polygon class="cls-4" points="168.73 107.98 166.53 113.56 82.81 80.54 83.54 78.68 85.4 79.41 86.14 77.55 102.88 84.16 104.74 84.89 106.21 81.17 126.67 89.24 125.21 92.96 128.93 94.43 129.66 92.57 168.73 107.98"/><polygon class="cls-4" points="181.94 74.5 181.21 76.36 170.04 71.95 170.78 70.09 178.22 73.03 180.08 73.76 181.94 74.5"/><rect class="cls-3" x="180.38" y="72.2" width="2" height="2" transform="translate(46.73 215.06) rotate(-68.47)"/><rect class="cls-3" x="181.11" y="70.34" width="2" height="2" transform="translate(48.92 214.57) rotate(-68.47)"/><rect class="cls-5" x="181.85" y="68.48" width="2" height="2" transform="translate(51.12 214.07) rotate(-68.47)"/><rect class="cls-5" x="182.58" y="66.62" width="2" height="2" transform="translate(53.31 213.58) rotate(-68.47)"/><rect class="cls-4" x="183.31" y="64.76" width="2" height="2" transform="translate(55.51 213.08) rotate(-68.47)"/><rect class="cls-5" x="178.52" y="71.46" width="2" height="2" transform="translate(46.23 212.86) rotate(-68.47)"/><polygon class="cls-3" points="181.55 70.04 180.81 71.9 178.95 71.17 177.09 70.43 177.83 68.57 179.69 69.31 181.55 70.04"/><rect class="cls-5" x="179.99" y="67.74" width="2" height="2" transform="translate(50.62 211.87) rotate(-68.47)"/><rect class="cls-4" x="180.72" y="65.88" width="2" height="2" transform="translate(52.82 211.38) rotate(-68.47)"/><polygon class="cls-4" points="183.75 64.46 183.02 66.32 181.16 65.59 184.09 58.14 185.95 58.88 183.75 64.46"/><rect class="cls-4" x="184.55" y="56.81" width="1.5" height="2" transform="translate(63.52 208.97) rotate(-68.47)"/><rect class="cls-4" x="185.41" y="55.88" width="0.5" height="2" transform="translate(64.62 208.72) rotate(-68.47)"/><polygon class="cls-4" points="178.95 71.17 178.22 73.03 170.78 70.09 167.06 68.62 167.79 66.76 169.65 67.5 177.09 70.43 178.95 71.17"/><rect class="cls-5" x="178.13" y="67.01" width="2" height="2" transform="translate(50.13 209.68) rotate(-68.47)"/><polygon class="cls-4" points="181.16 65.59 180.42 67.45 178.56 66.71 179.3 64.85 180.03 62.99 180.76 61.13 181.5 59.27 182.23 57.41 184.09 58.14 181.16 65.59"/><rect class="cls-4" x="182.69" y="56.08" width="1.5" height="2" transform="translate(63.02 206.77) rotate(-68.47)"/><rect class="cls-4" x="183.55" y="55.15" width="0.5" height="2" transform="translate(64.12 206.52) rotate(-68.47)"/><polygon class="cls-4" points="189.23 45.12 188.5 46.98 186.63 46.25 184.78 45.51 182.91 44.78 171.75 40.38 172.49 38.52 181.79 42.19 183.65 42.92 185.51 43.65 187.37 44.39 189.23 45.12"/><rect class="cls-1" x="187.67" y="42.82" width="2" height="2" transform="translate(78.67 203.24) rotate(-68.47)"/><rect class="cls-4" x="188.4" y="40.96" width="2" height="2" transform="translate(80.86 202.75) rotate(-68.47)"/><path class="cls-1" d="M194.37,32.1l-3.67,9.3-1.86-.73-.74,1.86-1.86-.74-.73,1.86-1.86-.73.73-1.86-1.86-.74-.73,1.86-9.3-3.67,5.13-13ZM187,39.93l.73-1.86-1.86-.73-.73,1.86Z"/><polygon class="cls-4" points="194.73 31.17 194.37 32.1 177.62 25.49 177.99 24.56 181.71 26.03 194.73 31.17"/><polygon class="cls-1" points="195.1 30.24 194.73 31.17 181.71 26.03 182.08 25.1 191.38 28.77 192.31 29.14 193.24 29.5 195.1 30.24"/><polygon class="cls-5" points="177.83 68.57 177.09 70.43 169.65 67.5 170.39 65.64 172.25 66.37 174.11 67.11 175.97 67.84 177.83 68.57"/><rect class="cls-5" x="176.26" y="66.28" width="2" height="2" transform="translate(49.63 207.48) rotate(-68.47)"/><rect class="cls-4" x="177" y="64.41" width="2" height="2" transform="translate(51.83 206.99) rotate(-68.47)"/><rect class="cls-1" x="177.73" y="62.55" width="2" height="2" transform="translate(54.02 206.49) rotate(-68.47)"/><rect class="cls-4" x="178.47" y="60.69" width="2" height="2" transform="translate(56.22 206) rotate(-68.47)"/><rect class="cls-1" x="179.2" y="58.83" width="2" height="2" transform="translate(58.41 205.5) rotate(-68.47)"/><rect class="cls-4" x="179.93" y="56.97" width="2" height="2" transform="translate(60.61 205.01) rotate(-68.47)"/><rect class="cls-1" x="180.83" y="55.35" width="1.5" height="2" transform="translate(62.53 204.58) rotate(-68.47)"/><rect class="cls-1" x="181.69" y="54.41" width="0.5" height="2" transform="translate(63.63 204.33) rotate(-68.47)"/><rect class="cls-1" x="180.77" y="52.32" width="4" height="2" transform="translate(66.1 203.77) rotate(-68.47)"/><rect class="cls-1" x="182.24" y="48.6" width="4" height="2" transform="translate(70.49 202.78) rotate(-68.47)"/><rect class="cls-5" x="184.34" y="45.81" width="2" height="2" transform="translate(73.78 202.04) rotate(-68.47)"/><rect class="cls-4" x="185.81" y="42.09" width="2" height="2" transform="translate(78.17 201.05) rotate(-68.47)"/><rect class="cls-3" x="192.46" y="28.35" width="1" height="1" transform="translate(95.31 197.76) rotate(-68.47)"/><rect class="cls-3" x="190.61" y="24.17" width="8" height="1" transform="translate(100.25 196.65) rotate(-68.47)"/><rect class="cls-3" x="195.76" y="19.98" width="1" height="1" transform="translate(105.19 195.53) rotate(-68.47)"/><rect class="cls-3" x="196.13" y="19.05" width="1" height="1" transform="translate(106.28 195.29) rotate(-68.47)"/><rect class="cls-3" x="196.18" y="17.66" width="2" height="1" transform="translate(107.93 194.92) rotate(-68.47)"/><rect class="cls-4" x="197.23" y="16.26" width="1" height="1" transform="translate(109.58 194.54) rotate(-68.47)"/><rect class="cls-3" x="191.53" y="27.99" width="1" height="1" transform="translate(95.06 196.66) rotate(-68.47)"/><rect class="cls-4" x="189.68" y="23.8" width="8" height="1" transform="translate(100 195.55) rotate(-68.47)"/><rect class="cls-3" x="194.83" y="19.62" width="1" height="1" transform="translate(104.94 194.44) rotate(-68.47)"/><rect class="cls-5" x="195.2" y="18.68" width="1" height="1" transform="translate(106.04 194.19) rotate(-68.47)"/><polygon class="cls-5" points="197.08 17.04 196.35 18.9 195.42 18.54 196.52 15.75 197.45 16.11 197.08 17.04"/><polygon class="cls-4" points="198.18 14.25 197.45 16.11 196.52 15.75 195.59 15.38 195.96 14.45 196.32 13.52 198.18 14.25"/><rect class="cls-4" x="174.4" y="65.54" width="2" height="2" transform="translate(49.14 205.29) rotate(-68.47)"/><rect class="cls-1" x="175.14" y="63.68" width="2" height="2" transform="translate(51.33 204.79) rotate(-68.47)"/><rect class="cls-4" x="175.87" y="61.82" width="2" height="2" transform="translate(53.53 204.3) rotate(-68.47)"/><polygon class="cls-1" points="178.9 60.4 178.17 62.26 176.31 61.52 177.04 59.66 175.18 58.93 174.45 60.79 176.31 61.52 175.57 63.38 173.71 62.65 172.98 64.51 171.12 63.78 170.39 65.64 168.53 64.9 169.26 63.04 167.4 62.31 165.54 61.58 166.27 59.71 164.41 58.98 165.15 57.12 163.29 56.39 164.75 52.66 165.49 50.8 178.51 55.94 177.78 57.8 179.64 58.54 178.9 60.4"/><rect class="cls-1" x="178.07" y="56.24" width="2" height="2" transform="translate(60.11 202.81) rotate(-68.47)"/><rect class="cls-1" x="178.97" y="54.61" width="1.5" height="2" transform="translate(62.03 202.38) rotate(-68.47)"/><rect class="cls-1" x="179.83" y="53.68" width="0.5" height="2" transform="translate(63.13 202.13) rotate(-68.47)"/><polygon class="cls-1" points="182.57 51.09 181.1 54.81 179.25 54.08 182.18 46.64 184.04 47.37 182.57 51.09"/><polygon class="cls-5" points="184.78 45.51 184.04 47.37 182.18 46.64 182.55 45.71 182.91 44.78 184.78 45.51"/><rect class="cls-4" x="185.41" y="37.63" width="2" height="2" transform="translate(82.07 197.86) rotate(-68.47)"/><rect class="cls-5" x="194.27" y="18.32" width="1" height="1" transform="translate(105.79 193.09) rotate(-68.47)"/><polygon class="cls-5" points="196.52 15.75 195.42 18.54 194.49 18.17 195.22 16.31 195.59 15.38 196.52 15.75"/><polygon class="cls-5" points="194.49 18.17 194.12 19.1 191.33 18 191.7 17.07 192.63 17.43 193.56 17.8 194.49 18.17"/><rect class="cls-7" x="193.39" y="16.56" width="2" height="1" transform="translate(107.19 191.62) rotate(-68.47)"/><polygon class="cls-8" points="195.59 15.38 195.22 16.31 194.29 15.94 195.02 14.08 195.96 14.45 195.59 15.38"/><polygon class="cls-9" points="196.32 13.52 195.96 14.45 195.02 14.08 194.09 13.71 193.16 13.35 193.53 12.42 196.32 13.52"/><rect class="cls-1" x="172.54" y="64.81" width="2" height="2" transform="translate(48.64 203.09) rotate(-68.47)"/><rect class="cls-4" x="173.28" y="62.95" width="2" height="2" transform="translate(50.84 202.6) rotate(-68.47)"/><rect class="cls-4" x="174.75" y="59.23" width="2" height="2" transform="translate(55.23 201.61) rotate(-68.47)"/><polygon class="cls-1" points="179.06 54.55 178.51 55.94 165.49 50.8 163.63 50.07 164.18 48.67 179.06 54.55"/><rect class="cls-1" x="171.46" y="43.38" width="0.5" height="16" transform="matrix(0.37, -0.93, 0.93, 0.37, 60.9, 192.25)"/><rect class="cls-1" x="169.27" y="39.42" width="8" height="16" transform="translate(65.57 191.2) rotate(-68.47)"/><polygon class="cls-5" points="182.55 45.71 182.18 46.64 167.3 40.77 167.66 39.84 169.52 40.57 182.55 45.71"/><polygon class="cls-1" points="182.91 44.78 182.55 45.71 169.52 40.57 169.89 39.64 171.75 40.38 182.91 44.78"/><rect class="cls-4" x="182.09" y="40.62" width="2" height="2" transform="translate(77.18 196.66) rotate(-68.47)"/><rect class="cls-9" x="192.46" y="16.19" width="2" height="1" transform="translate(106.94 190.53) rotate(-68.47)"/><rect class="cls-10" x="193.19" y="14.33" width="2" height="1" transform="translate(109.14 190.03) rotate(-68.47)"/><polygon class="cls-4" points="193.36 15.57 192.63 17.43 191.7 17.07 193.16 13.35 194.09 13.71 193.36 15.57"/><rect class="cls-4" x="170.68" y="64.07" width="2" height="2" transform="translate(48.15 200.9) rotate(-68.47)"/><rect class="cls-5" x="168.09" y="65.2" width="2" height="2" transform="translate(45.46 199.2) rotate(-68.47)"/><rect class="cls-5" x="166.23" y="64.47" width="2" height="2" transform="translate(44.96 197) rotate(-68.47)"/><rect class="cls-1" x="166.96" y="62.61" width="2" height="2" transform="translate(47.16 196.51) rotate(-68.47)"/><rect class="cls-3" x="165.1" y="61.87" width="2" height="2" transform="translate(46.66 194.31) rotate(-68.47)"/><rect class="cls-9" x="179.53" y="22.83" width="1" height="4" transform="translate(90.87 183.19) rotate(-68.47)"/><rect class="cls-3" x="163.98" y="59.28" width="2" height="2" transform="translate(48.36 191.62) rotate(-68.47)"/><rect class="cls-3" x="162.85" y="56.68" width="2" height="2" transform="translate(50.06 188.93) rotate(-68.47)"/><rect class="cls-3" x="161.09" y="53.16" width="4" height="2" transform="translate(52.86 185.99) rotate(-68.47)"/><rect class="cls-1" x="163.19" y="50.37" width="2" height="2" transform="translate(56.15 185.25) rotate(-68.47)"/><rect class="cls-9" x="168.28" y="38.74" width="1" height="2" transform="translate(69.87 182.16) rotate(-68.47)"/><rect class="cls-3" x="161.33" y="49.63" width="2" height="2" transform="translate(55.66 183.06) rotate(-68.47)"/><rect class="cls-3" x="162.22" y="48.01" width="1.5" height="2" transform="translate(57.58 182.62) rotate(-68.47)"/><rect class="cls-3" x="163.09" y="47.08" width="0.5" height="2" transform="translate(58.68 182.38) rotate(-68.47)"/><rect class="cls-3" x="160.9" y="43.12" width="8" height="2" transform="translate(63.34 181.32) rotate(-68.47)"/><rect class="cls-5" x="166.05" y="38.94" width="1" height="2" transform="translate(68.28 180.21) rotate(-68.47)"/><rect class="cls-9" x="166.42" y="38.01" width="1" height="2" transform="translate(69.38 179.96) rotate(-68.47)"/><rect class="cls-5" x="158" y="52.62" width="2" height="2" transform="translate(50.77 181.85) rotate(-68.47)"/><rect class="cls-2" x="130.59" y="3.53" width="1.5" height="66" transform="translate(49.16 145.3) rotate(-68.47)"/><rect class="cls-2" x="131.46" y="2.6" width="0.5" height="66" transform="translate(50.26 145.06) rotate(-68.47)"/><rect class="cls-4" x="93.88" y="70.92" width="2" height="18" transform="translate(-14.29 138.85) rotate(-68.47)"/><rect class="cls-5" x="83.84" y="77.11" width="2" height="2" transform="translate(-18.96 128.37) rotate(-68.47)"/><rect class="cls-5" x="84.57" y="75.25" width="2" height="2" transform="translate(-16.76 127.87) rotate(-68.47)"/><rect class="cls-5" x="84.67" y="72.46" width="4" height="2" transform="translate(-13.47 127.13) rotate(-68.47)"/><rect class="cls-4" x="81.08" y="61.3" width="20" height="2" transform="translate(-0.3 124.16) rotate(-68.47)"/><polygon class="cls-5" points="98.61 45.92 95.68 53.37 93.82 52.63 95.28 48.91 96.75 45.19 98.61 45.92"/><rect class="cls-5" x="79.04" y="83.82" width="2" height="2" transform="translate(-28.23 128.15) rotate(-68.47)"/><rect class="cls-5" x="79.93" y="82.19" width="1.5" height="2" transform="translate(-26.31 127.72) rotate(-68.47)"/><rect class="cls-5" x="80.17" y="80.33" width="2.5" height="2" transform="translate(-24.12 127.22) rotate(-68.47)"/><polygon class="cls-5" points="83.54 78.68 82.81 80.54 80.95 79.8 82.42 76.08 84.28 76.82 83.54 78.68"/><rect class="cls-5" x="82.71" y="74.52" width="2" height="2" transform="translate(-17.26 125.68) rotate(-68.47)"/><path class="cls-1" d="M86.48,71.24,85,75,51.52,61.75l-.73,1.86-3.72-1.47.73-1.86,1.86.73.73-1.86-1.86-.73.74-1.86L23.22,46.28l-.73,1.86,7.44,2.94-.73,1.86-9.31-3.67.74-1.86-1.86-.74.73-1.86,1.86.74.74-1.86,22.32,8.8.73-1.86-22.32-8.8-.73,1.86L20.23,43,21,41.09l-1.86-.73.73-1.86L16.12,37l.74-1.86L15,34.44l-.73,1.86-1.86-.74.73-1.86L11.27,33l-.73,1.86L6.82,33.36l.73-1.86-1.86-.73.74-1.86,1.86.73L9,27.78l-1.86-.73-.73,1.86-1.86-.74.73-1.86-1.86-.73L5.64,20l1.86.73,2.2-5.58,1.86.73L13,12.16l1.86.74,1.47-3.73,1.86.74L19,8.05l1.87.73.73-1.86,1.86.74.73-1.87L26,6.53l.74-1.86,1.86.73.73-1.86L33.05,5l.74-1.86,3.72,1.47.73-1.86L43.82,5l.74-1.86,54,21.28-2.94,7.44,1.87.74L94.5,40l1.86.73-2.94,7.45,1.86.73ZM78.88,36l1.47-3.72L50.58,20.52l-.73,1.87,1.86.73L51,25ZM54.12,60.62l.73-1.86L53,58l-.73,1.86Z"/><polygon class="cls-5" points="96.75 45.19 95.28 48.91 93.42 48.18 96.36 40.73 97.83 37.01 99.69 37.75 96.75 45.19"/><rect class="cls-5" x="49.28" y="42.08" width="2" height="62" transform="translate(-36.15 93.03) rotate(-68.47)"/><polygon class="cls-5" points="80.03 82.13 79.48 83.53 21.8 60.77 22.36 59.38 46.54 68.92 80.03 82.13"/><polygon class="cls-5" points="80.95 79.8 80.03 82.13 46.54 68.92 46.73 68.45 48.59 69.19 49.32 67.33 80.95 79.8"/><path class="cls-4" d="M82.42,76.08,81,79.8,17.69,54.85,17,56.71l-5.12-2-.32-.55,1.32-3.35,1.86.73.74-1.86-1.86-.73-.74,1.86L11,50.05l.74-1.86-1.86-.73,1.46-3.72L9.46,43l.74-1.86-1.86-.73.73-1.86-1.86-.73,1.47-3.73,1.86.74L11.27,33l1.86.73-.73,1.86,1.86.74L15,34.44l1.87.73L16.12,37l1.86.73-.73,1.86,1.86.74-.74,1.86-1.86-.74-.73,1.87,1.86.73-.73,1.86,1.86.73L18,48.53l1.86.74-.73,1.86,1.86.73L21.75,50l1.86.74-.73,1.86,1.86.73.73-1.86,1.87.73-.74,1.86,1.86.74.74-1.86,1.86.73-.74,1.86,1.86.74.74-1.86,5.58,2.2-.74,1.86,1.86.73.74-1.86,7.44,2.94-.73,1.86Z"/><rect class="cls-4" x="65.97" y="51.91" width="2" height="34" transform="translate(-21.71 105.92) rotate(-68.47)"/><polygon class="cls-4" points="97.83 37.01 96.36 40.73 94.5 40 97.44 32.56 95.58 31.82 98.51 24.38 100.37 25.12 98.17 30.7 100.03 31.43 97.83 37.01"/><rect class="cls-2" x="98.97" y="23.05" width="1.5" height="2" transform="matrix(0.37, -0.93, 0.93, 0.37, 40.75, 107.98)"/><rect class="cls-2" x="99.83" y="22.12" width="0.5" height="2" transform="translate(41.85 107.74) rotate(-68.47)"/><path class="cls-2" d="M99.06,23l-.55,1.39L42.7,2.36h0a35.56,35.56,0,0,1,9.85,2.28Z"/><path class="cls-2" d="M99.24,22.52l-.18.47L52.55,4.64A35.56,35.56,0,0,0,42.7,2.36L43.43.5Z"/><path class="cls-3" d="M65,82.11,64.25,84,27.05,69.29a27.55,27.55,0,0,1-11.24-8.73l5.26,2.07-.73,1.86Z"/><polygon class="cls-11" points="79.62 34.13 78.88 35.99 77.02 35.26 77.39 34.33 77.75 33.39 79.62 34.13"/><rect class="cls-4" x="78.37" y="32.3" width="1" height="2" transform="translate(18.95 94.44) rotate(-68.47)"/><rect class="cls-9" x="78.74" y="31.37" width="1" height="2" transform="translate(20.05 94.2) rotate(-68.47)"/><rect class="cls-5" x="63.68" y="15.65" width="1" height="28" transform="translate(13.05 78.47) rotate(-68.47)"/><rect class="cls-11" x="64.05" y="14.72" width="1" height="28" transform="translate(14.14 78.23) rotate(-68.47)"/><polygon class="cls-4" points="78.12 32.46 77.75 33.39 51.71 23.12 52.44 21.26 61.74 24.93 61.38 25.86 63.24 26.59 63.61 25.66 65.47 26.4 65.1 27.33 70.68 29.53 71.05 28.6 72.91 29.33 72.54 30.26 78.12 32.46"/><rect class="cls-9" x="75.02" y="27.9" width="1" height="6" transform="translate(19.06 89.81) rotate(-68.47)"/><rect class="cls-9" x="67.57" y="24.96" width="1" height="6" transform="translate(17.08 81.02) rotate(-68.47)"/><rect class="cls-4" x="52.55" y="58.32" width="2" height="2" transform="translate(-21.28 87.37) rotate(-68.47)"/><rect class="cls-5" x="47.02" y="66.89" width="2" height="2" transform="translate(-32.75 87.65) rotate(-68.47)"/><polygon class="cls-5" points="46.73 68.45 46.54 68.92 22.36 59.38 21.8 60.77 16.22 58.57 16.96 56.71 17.69 54.85 47.46 66.59 46.73 68.45"/><rect class="cls-4" x="48.1" y="58.71" width="2" height="2" transform="translate(-24.47 83.47) rotate(-68.47)"/><rect class="cls-9" x="61.99" y="24.76" width="1" height="2" transform="translate(15.6 74.44) rotate(-68.47)"/><polygon class="cls-1" points="48.53 58.42 47.8 60.28 40.36 57.34 38.5 56.61 36.64 55.87 37.37 54.01 48.53 58.42"/><polygon class="cls-4" points="49.27 56.56 48.53 58.42 37.37 54.01 35.51 53.28 31.79 51.81 29.93 51.08 22.49 48.14 23.22 46.28 49.27 56.56"/><rect class="cls-4" x="32.62" y="35.16" width="2" height="24" transform="translate(-22.58 61.13) rotate(-68.47)"/><rect class="cls-4" x="38.06" y="56.9" width="2" height="2" transform="translate(-29.14 72.99) rotate(-68.47)"/><rect class="cls-4" x="50.15" y="20.82" width="2" height="2" transform="translate(12.08 61.39) rotate(-68.47)"/><rect class="cls-4" x="35.07" y="53.58" width="2" height="2" transform="translate(-27.93 68.11) rotate(-68.47)"/><polygon class="cls-1" points="35.51 53.28 34.78 55.14 32.92 54.41 31.06 53.67 31.79 51.81 35.51 53.28"/><rect class="cls-4" x="30.62" y="53.97" width="2" height="2" transform="translate(-31.12 64.21) rotate(-68.47)"/><path class="cls-3" d="M27.05,69.29l-9.31-3.67.74-1.86-5.58-2.2.73-1.86L9.91,58.23l.73-1.86,3,1.17c.62.93,1.27,1.84,2,2.7l-.07.19.32.13A27.55,27.55,0,0,0,27.05,69.29Z"/><rect class="cls-4" x="29.49" y="51.37" width="2" height="2" transform="translate(-29.42 61.52) rotate(-68.47)"/><rect class="cls-4" x="26.9" y="52.5" width="2" height="2" transform="translate(-32.11 59.82) rotate(-68.47)"/><path class="cls-5" d="M21.8,60.77l-.73,1.86-5.26-2.07-.25-.32.66-1.67Z"/><rect class="cls-4" x="23.18" y="51.03" width="2" height="2" transform="translate(-33.1 55.43) rotate(-68.47)"/><path class="cls-2" d="M44.56,3.1,43.82,5,37,2.26a39.05,39.05,0,0,1,5.62.07Z"/><path class="cls-1" d="M42.7,2.36h0l-.09,0Z"/><path class="cls-2" d="M37.12.16l5.49,2.17A39.05,39.05,0,0,0,37,2.26L36.38,2Z"/><rect class="cls-4" x="19.46" y="49.57" width="2" height="2" transform="translate(-34.09 51.04) rotate(-68.47)"/><path class="cls-5" d="M15.81,60.56l-.32-.13.07-.19Z"/><path class="cls-3" d="M16.22,58.57l-.66,1.67a29.88,29.88,0,0,1-2-2.7Z"/><rect class="cls-5" x="14.66" y="56.27" width="2" height="2" transform="translate(-43.36 50.82) rotate(-68.47)"/><rect class="cls-4" x="18.33" y="46.97" width="2" height="2" transform="translate(-32.39 48.35) rotate(-68.47)"/><rect class="cls-4" x="19.8" y="43.25" width="2" height="2" transform="translate(-28 47.36) rotate(-68.47)"/><path class="cls-2" d="M38.24,2.76l-.73,1.86L32.73,2.73A40.5,40.5,0,0,1,37,2.26Z"/><path class="cls-2" d="M36.38,2l.61.24a40.5,40.5,0,0,0-4.26.47l-.8-.31L32.66.55Z"/><path class="cls-5" d="M15.1,56l-.74,1.86-.76-.3c-.26-.4-.53-.81-.79-1.23l.43-1.07Z"/><rect class="cls-4" x="17.2" y="44.38" width="2" height="2" transform="translate(-30.69 45.66) rotate(-68.47)"/><polygon class="cls-1" points="20.23 42.95 19.5 44.81 17.64 44.08 15.78 43.34 16.51 41.48 18.37 42.22 20.23 42.95"/><rect class="cls-4" x="18.67" y="40.66" width="2" height="2" transform="translate(-26.3 44.67) rotate(-68.47)"/><path class="cls-5" d="M13.6,57.54l-1.1-.44.31-.79C13.07,56.73,13.34,57.14,13.6,57.54Z"/><path class="cls-3" d="M12.81,56.31l-.31.79L6.92,54.9,7.66,53l-1.87-.73.74-1.86,3.72,1.46-.73,1.86,2.32.92C12.16,55.24,12.49,55.78,12.81,56.31Z"/><path class="cls-3" d="M13.24,55.24l-.43,1.07c-.32-.53-.65-1.07-1-1.62Z"/><rect class="cls-5" x="13.14" y="49.22" width="2" height="2" transform="translate(-37.77 44.95) rotate(-68.47)"/><rect class="cls-4" x="17.54" y="38.06" width="2" height="2" transform="matrix(0.37, -0.93, 0.93, 0.37, -24.6, 41.98)"/><path class="cls-2" d="M33.79,3.15,33.05,5,29.12,3.46a35.48,35.48,0,0,1,3.61-.73Z"/><path class="cls-2" d="M31.93,2.42l.8.31c-1.22.19-2.42.43-3.61.73l-1.65-.65L28.21,1Z"/><path class="cls-4" d="M11.84,54.69l-.46-.18.14-.37Z"/><path class="cls-5" d="M11.52,54.14l-.14.37-1.86-.74.73-1.86.13.06C10.75,52.7,11.13,53.42,11.52,54.14Z"/><path class="cls-5" d="M12.11,52.65l-.59,1.49c-.39-.72-.79-1.39-1.14-2.17Z"/><path class="cls-5" d="M12.84,50.79l-.73,1.86L10.38,52l-.09-.17L11,50.05Z"/><path class="cls-5" d="M10.38,52l-.13-.06,0-.11Z"/><path class="cls-5" d="M10.29,51.8l0,.11-1.86-.73.73-1.86C9.49,50.16,9.88,51,10.29,51.8Z"/><path class="cls-5" d="M11,50.05l-.69,1.75c-.41-.81-.8-1.64-1.17-2.46h0Z"/><rect class="cls-5" x="9.42" y="47.76" width="2" height="2" transform="translate(-38.76 40.56) rotate(-68.47)"/><path class="cls-2" d="M29.33,3.54,28.6,5.4,26,4.36c1-.33,2.09-.64,3.16-.9Z"/><path class="cls-2" d="M27.47,2.81l1.65.65C28.05,3.72,27,4,26,4.36l-1.08-.43.73-1.86Z"/><rect class="cls-4" x="6.26" y="53.94" width="2" height="0.05" transform="translate(-45.6 40.92) rotate(-68.47)"/><path class="cls-5" d="M9.12,49.32l-.73,1.86-1.86-.73.73-1.86Z"/><path class="cls-5" d="M9.86,47.46l-.74,1.86h0L8,46.72,9.46,43l1.86.74Z"/><path class="cls-3" d="M26.74,4.67,26,6.53,23.11,5.39C24,5,25,4.67,26,4.36Z"/><path class="cls-5" d="M9.12,49.32l-1.86-.73L8,46.72H8Z"/><path class="cls-3" d="M24.88,3.93,26,4.36c-1,.31-1.92.65-2.85,1l-.83-.33L23,3.2Z"/><rect class="cls-4" x="5.15" y="51.36" width="2" height="0.03" transform="translate(-43.89 38.24) rotate(-68.47)"/><polygon class="cls-3" points="8 46.73 7.26 48.59 6.53 50.45 6.5 50.44 4.67 49.71 5.4 47.85 5.38 47.84 3.54 47.12 4.28 45.26 2.42 44.52 3.15 42.66 3.88 40.8 5.74 41.54 5.01 43.4 6.87 44.13 6.14 45.99 8 46.73"/><path class="cls-5" d="M8,46.72,6.14,46l.8-2C7.27,44.87,7.62,45.79,8,46.72Z"/><path class="cls-5" d="M9.46,43,8,46.72c-.38-.92-.74-1.84-1.06-2.76l.66-1.69Z"/><rect class="cls-5" x="7.9" y="40.71" width="2" height="2" transform="translate(-33.16 34.68) rotate(-68.47)"/><path class="cls-3" d="M24.14,5.79l-.73,1.87L20.5,6.51c.84-.4,1.72-.77,2.59-1.13Z"/><path class="cls-3" d="M22.28,5.06l.83.33c-.89.35-1.77.72-2.59,1.12l-.83-.32.73-1.86Z"/><rect class="cls-4" x="4.03" y="48.77" width="2" height="0.02" transform="translate(-42.19 35.55) rotate(-68.47)"/><path class="cls-5" d="M6.94,44l-.07.18L5,43.4l.73-1.86.4.15C6.39,42.44,6.65,43.19,6.94,44Z"/><path class="cls-5" d="M7.6,42.27,6.94,44c-.29-.76-.55-1.51-.8-2.26Z"/><path class="cls-5" d="M8.34,40.41,7.6,42.27l-1.46-.58-.21-.64.55-1.37Z"/><rect class="cls-5" x="6.77" y="38.11" width="2" height="2" transform="translate(-31.46 31.99) rotate(-68.47)"/><path class="cls-3" d="M21.55,6.92l-.73,1.86L18.09,7.71c.79-.42,1.59-.83,2.41-1.2Z"/><path class="cls-3" d="M19.69,6.19l.81.32c-.82.37-1.62.78-2.41,1.2l-1-.4.74-1.86Z"/><path class="cls-5" d="M6.14,41.69l-.4-.15.19-.49Z"/><rect class="cls-3" x="1.98" y="44.82" width="2" height="2" transform="translate(-40.74 31.78) rotate(-68.47)"/><path class="cls-5" d="M5.93,41.05l-.19.49L3.88,40.8l.74-1.86.74.3Z"/><path class="cls-5" d="M6.48,39.68l-.55,1.37-.57-1.81Z"/><path class="cls-5" d="M7.21,37.82l-.73,1.86-1.12-.44L5,38l.37-.93Z"/><rect class="cls-5" x="5.65" y="35.52" width="2" height="2" transform="translate(-29.76 29.3) rotate(-68.47)"/><rect class="cls-5" x="6.38" y="33.66" width="2" height="2" transform="translate(-27.57 28.81) rotate(-68.47)"/><path class="cls-3" d="M19,8.05l-.73,1.86-1.86-.74.25-.63c.49-.29,1-.56,1.48-.83Z"/><path class="cls-3" d="M17.09,7.31l1,.4c-.51.27-1,.54-1.48.83Z"/><path class="cls-5" d="M5.36,39.24l-.74-.3L5,38Z"/><rect class="cls-3" x="0.85" y="42.23" width="2" height="2" transform="translate(-39.04 29.09) rotate(-68.47)"/><polygon class="cls-3" points="3.88 40.8 3.15 42.66 1.29 41.93 2.02 40.07 2.76 38.21 4.62 38.94 3.88 40.8"/><path class="cls-3" d="M5,38l-.36.93-1.86-.73.73-1.86,1.16.46C4.77,37.2,4.87,37.59,5,38Z"/><path class="cls-3" d="M5.35,37.08,5,38c-.12-.39-.22-.79-.33-1.2Z"/><path class="cls-5" d="M6.08,35.22l-.73,1.86-.7-.27c-.19-.69-.37-1.38-.54-2l.11-.29Z"/><rect class="cls-5" x="4.52" y="32.92" width="2" height="2" transform="translate(-28.06 26.61) rotate(-68.47)"/><rect class="cls-4" x="5.26" y="31.06" width="2" height="2" transform="translate(-25.87 26.12) rotate(-68.47)"/><rect class="cls-4" x="6.72" y="27.34" width="2" height="2" transform="translate(-21.48 25.13) rotate(-68.47)"/><path class="cls-3" d="M16.36,9.17,14.89,12.9,13,12.16l.74-1.86c.92-.62,1.87-1.24,2.86-1.8Z"/><path class="cls-3" d="M17.09,7.31l-.48,1.23c-1,.57-1.94,1.18-2.86,1.81l1.48-3.77Z"/><path class="cls-5" d="M4.65,36.81l-1.16-.46.62-1.57C4.28,35.43,4.46,36.12,4.65,36.81Z"/><path class="cls-3" d="M2.76,38.21,2,40.07.16,39.33l2.2-5.58L.5,33l2.07-5.24c.19,1,.43,2.24.74,3.58l-.21.53.35.14c.2.86.38,1.77.66,2.75Z"/><path class="cls-3" d="M4.22,34.49l-.11.29c-.25-1-.46-1.89-.66-2.75l1.51.6Z"/><path class="cls-1" d="M5.69,30.77,5,32.63,3.45,32c-.05-.22-.1-.45-.14-.67L3.83,30Z"/><rect class="cls-5" x="4.13" y="28.47" width="2" height="2" transform="translate(-24.17 23.43) rotate(-68.47)"/><path class="cls-3" d="M13,12.16l-1.47,3.72L9.7,15.15l1-2.48a38,38,0,0,1,3.07-2.32Z"/><path class="cls-3" d="M13.77,10.3h0a36.36,36.36,0,0,0-3.07,2.33l1.21-3.06Z"/><path class="cls-3" d="M3.83,30l-.52,1.33C3,30,2.76,28.82,2.57,27.78l.87-2.2,1.86.73Z"/><path class="cls-3" d="M9.7,15.15,7.5,20.73,5.64,20l1.63-4.14a38.09,38.09,0,0,1,2.84-2.7l.33.13Z"/><path class="cls-1" d="M10.68,12.67l-.24.62-.33-.13C10.29,13,10.48,12.83,10.68,12.67Z"/><path class="cls-3" d="M8.58,12.55l1.53.61a38.09,38.09,0,0,0-2.84,2.7Z"/><path class="cls-1" d="M2.71,27.44l-.14.34-.08-.43Z"/><path class="cls-3" d="M3.44,25.58l-.73,1.86-.22-.09C2.1,25.2,2,23.91,2,23.91a23.75,23.75,0,0,1,3.62-6.09l.81.32Z"/><path class="cls-1" d="M7.27,15.86l-.89,2.28-.81-.32C6.1,17.15,6.67,16.5,7.27,15.86Z"/><path class="cls-3" d="M2.49,27.35.84,26.7,2,23.91S2.1,25.2,2.49,27.35Z"/><path class="cls-3" d="M4.51,17.4l1.06.42A23.75,23.75,0,0,0,2,23.91Z"/></g></g></g></g></svg>