<svg xmlns="http://www.w3.org/2000/svg" width="1920.55" height="668.39" viewBox="0 0 1920.55 668.39"><defs><style>.cls-1{fill:#2ca8f8;}.cls-2{fill:#1790e2;}.cls-3{fill:#dfecf4;}.cls-4{fill:#235fda;}.cls-5{fill:#6cdffb;}.cls-6{fill:#586c79;}.cls-7{fill:#96a5ab;}.cls-8{fill:#182028;}.cls-9{fill:#2a3747;}.cls-10{fill:#ee6928;}.cls-11{fill:#f1f0ee;}.cls-12{fill:#9d1b32;}.cls-13{fill:#f1c18d;}.cls-14{fill:#95c8e5;}</style></defs><g id="Layer_2" data-name="Layer 2"><g id="Layer_1-2" data-name="Layer 1"><rect class="cls-1" x="1.08" y="311" width="1919.06" height="355.57" transform="translate(-0.93 1.83) rotate(-0.11)"/><rect class="cls-2" y="436" width="1920" height="231.34"/><rect class="cls-3" x="0.54" y="311.16" width="1920.02" height="1.03" transform="translate(-1.45 4.49) rotate(-0.27)"/><rect class="cls-4" x="760" y="406" width="40" height="5"/><rect class="cls-4" x="729" y="426" width="40" height="5"/><rect class="cls-2" x="635" y="421" width="155" height="5"/><rect class="cls-2" x="600" y="426" width="205" height="5"/><rect class="cls-2" x="655" y="411" width="155" height="5"/><rect class="cls-2" x="685" y="416" width="100" height="5"/><rect class="cls-2" x="650" y="406" width="155" height="5"/><rect class="cls-2" x="660" y="401" width="155" height="5"/><rect class="cls-2" x="640" y="396" width="155" height="5"/><rect class="cls-2" x="635" y="391" width="155" height="5"/><rect class="cls-4" x="690" y="446" width="155" height="5"/><rect class="cls-4" x="715" y="411" width="40" height="5"/><rect class="cls-5" x="620" y="396" width="80" height="5"/><rect class="cls-5" x="650" y="371" width="80" height="5"/><rect class="cls-5" x="505" y="421" width="80" height="5"/><rect class="cls-2" x="650" y="431" width="155" height="5"/><rect class="cls-2" x="758" y="502" width="155" height="5"/><rect class="cls-2" x="723" y="507" width="205" height="5"/><rect class="cls-2" x="778" y="492" width="155" height="5"/><rect class="cls-2" x="808" y="497" width="100" height="5"/><rect class="cls-2" x="773" y="487" width="155" height="5"/><rect class="cls-2" x="783" y="482" width="155" height="5"/><rect class="cls-2" x="763" y="477" width="155" height="5"/><rect class="cls-2" x="758" y="472" width="155" height="5"/><rect class="cls-4" x="813" y="527" width="155" height="5"/><rect class="cls-4" x="838" y="492" width="40" height="5"/><rect class="cls-5" x="743" y="477" width="80" height="5"/><rect class="cls-5" x="773" y="452" width="80" height="5"/><rect class="cls-5" x="628" y="502" width="80" height="5"/><rect class="cls-2" x="773" y="512" width="155" height="5"/><rect class="cls-2" x="1120" y="421" width="155" height="5" transform="translate(2395 847) rotate(-180)"/><rect class="cls-2" x="1105" y="426" width="205" height="5" transform="translate(2415 857) rotate(-180)"/><rect class="cls-2" x="1100" y="411" width="155" height="5" transform="translate(2355 827) rotate(-180)"/><rect class="cls-2" x="1125" y="416" width="100" height="5" transform="translate(2350 837) rotate(-180)"/><rect class="cls-2" x="1105" y="406" width="155" height="5" transform="translate(2365 817) rotate(-180)"/><rect class="cls-2" x="1095" y="401" width="155" height="5" transform="translate(2345 807) rotate(-180)"/><rect class="cls-2" x="1115" y="396" width="155" height="5" transform="translate(2385 797) rotate(-180)"/><rect class="cls-2" x="1120" y="391" width="155" height="5" transform="translate(2395 787) rotate(-180)"/><rect class="cls-4" x="1065" y="446" width="155" height="5" transform="translate(2285 897) rotate(-180)"/><rect class="cls-4" x="1155" y="411" width="40" height="5" transform="translate(2350 827) rotate(-180)"/><rect class="cls-5" x="1210" y="396" width="80" height="5" transform="translate(2500 797) rotate(-180)"/><rect class="cls-5" x="1180" y="371" width="80" height="5" transform="translate(2440 747) rotate(-180)"/><rect class="cls-5" x="1325" y="421" width="80" height="5" transform="translate(2730 847) rotate(-180)"/><rect class="cls-2" x="1105" y="431" width="155" height="5" transform="translate(2365 867) rotate(-180)"/></g><g id="Layer_4" data-name="Layer 4"><path class="cls-6" d="M798,226h9v10h10v5h10v5h11v6h9v4h5v5h9v5h12v5h9v4h10v5h19v5h16v6h15v5h16V506H942v-4h-9v-7H922v-9h-9v-9H902V466h-8V456H882V445h-8v-8H863V426H852V410h-9V396H832.17V385H827v-9h-9V365H808v-9h-5V345h-6S797.82,226,798,226Z"/><path class="cls-6" d="M1117,226h-9v10h-10v5h-10v5h-11v6h-9v4h-5v5h-9v5h-12v5h-9v4h-10v5h-19v5H988v6H973v5H957V506h16v-4h9v-7h11v-9h9v-9h11V466h8V456h12V445h8v-8h11V426h11V410h9V396h10.83V385H1088v-9h9V365h10v-9h5V345h6S1117.18,226,1117,226Z"/></g><g id="Layer_3" data-name="Layer 3"><rect class="cls-7" x="795" y="295" width="325" height="100"/><rect class="cls-6" x="840" y="340" width="125" height="5" transform="translate(1805 685) rotate(-180)"/><rect class="cls-6" x="850" y="345" width="110" height="5" transform="translate(1810 695) rotate(-180)"/><rect class="cls-6" x="855" y="350" width="120" height="5" transform="translate(1830 705) rotate(-180)"/><rect class="cls-6" x="860" y="355" width="120" height="5" transform="translate(1840 715) rotate(-180)"/><rect class="cls-6" x="866" y="360" width="120" height="5" transform="translate(1852 725) rotate(-180)"/><rect class="cls-6" x="884" y="365" width="120" height="5" transform="translate(1888 735) rotate(-180)"/><rect class="cls-6" x="899" y="370" width="120" height="5" transform="translate(1918 745) rotate(-180)"/><rect class="cls-6" x="809" y="325" width="296" height="15"/><rect class="cls-8" x="809" y="325" width="296" height="5"/><rect class="cls-9" x="809" y="330" width="176" height="5"/><rect class="cls-9" x="809" y="335" width="161" height="5"/><rect class="cls-9" x="809" y="340" width="141" height="5"/><rect class="cls-9" x="895" y="345" width="25" height="5"/><rect class="cls-10" x="1010" y="25" width="5" height="35"/><rect class="cls-11" x="1015" y="25" width="5" height="35"/><rect class="cls-10" x="1020" y="30" width="5" height="30"/><rect class="cls-11" x="1025" y="30" width="5" height="30"/><rect class="cls-10" x="1030" y="35" width="5" height="25"/><rect class="cls-11" x="1035" y="35" width="5" height="25"/><rect class="cls-10" x="1040" y="40" width="5" height="20"/><rect class="cls-12" x="1010" y="40" width="5" height="20"/><rect class="cls-12" x="1020" y="45" width="5" height="15"/><rect class="cls-12" x="1030" y="45" width="5" height="15"/><rect class="cls-13" x="1015" y="45" width="5" height="15"/><rect class="cls-6" x="1000" y="20" width="10" height="110"/><rect class="cls-9" x="1005" y="20" width="5" height="110"/><rect class="cls-13" x="1025" y="45" width="5" height="15"/><rect class="cls-13" x="1035" y="50" width="5" height="10"/><rect class="cls-12" x="1040" y="50" width="5" height="10"/><rect class="cls-11" x="1045" y="40" width="5" height="20"/><rect class="cls-13" x="1045" y="55" width="5" height="5"/><rect class="cls-10" x="1050" y="45" width="5" height="15"/><rect class="cls-12" x="1050" y="55" width="5" height="5"/><rect class="cls-11" x="1055" y="50" width="5" height="10"/><rect class="cls-13" x="1055" y="55" width="5" height="5"/><rect class="cls-10" x="915" y="5" width="5" height="35"/><rect class="cls-11" x="920" y="5" width="5" height="35"/><rect class="cls-10" x="925" y="10" width="5" height="30"/><rect class="cls-11" x="930" y="10" width="5" height="30"/><rect class="cls-10" x="935" y="15" width="5" height="25"/><rect class="cls-11" x="940" y="15" width="5" height="25"/><rect class="cls-10" x="945" y="20" width="5" height="20"/><rect class="cls-12" x="915" y="20" width="5" height="20"/><rect class="cls-12" x="925" y="25" width="5" height="15"/><rect class="cls-12" x="935" y="25" width="5" height="15"/><rect class="cls-13" x="920" y="25" width="5" height="15"/><rect class="cls-6" x="905" width="10" height="125"/><rect class="cls-9" x="910" width="5" height="125"/><rect class="cls-13" x="930" y="25" width="5" height="15"/><rect class="cls-13" x="940" y="30" width="5" height="10"/><rect class="cls-12" x="945" y="30" width="5" height="10"/><rect class="cls-11" x="950" y="20" width="5" height="20"/><rect class="cls-13" x="950" y="35" width="5" height="5"/><rect class="cls-10" x="955" y="25" width="5" height="15"/><rect class="cls-12" x="955" y="35" width="5" height="5"/><rect class="cls-11" x="960" y="30" width="5" height="10"/><rect class="cls-13" x="960" y="35" width="5" height="5"/><rect class="cls-6" x="850" y="65" width="10" height="75"/><rect class="cls-9" x="855" y="65" width="5" height="75"/><rect class="cls-6" x="830" y="70" width="50" height="30"/><rect class="cls-9" x="830" y="97" width="50" height="3"/><rect class="cls-8" x="850" y="100" width="10" height="5"/><rect class="cls-9" x="875" y="85" width="5" height="15"/><rect class="cls-9" x="875" y="75" width="5" height="5"/><rect class="cls-7" x="835" y="70" width="5" height="5"/><rect class="cls-7" x="845" y="70" width="5" height="5"/><rect class="cls-7" x="830" y="70" width="5" height="15"/><rect class="cls-9" x="845" y="80" width="20" height="10" transform="translate(940 -770) rotate(90)"/><rect class="cls-9" x="845" y="80" width="20" height="10" transform="translate(1710 170) rotate(180)"/><rect class="cls-12" x="852.5" y="82.5" width="5" height="5"/><rect class="cls-6" x="1055" y="65" width="10" height="75"/><rect class="cls-9" x="1060" y="65" width="5" height="75"/><rect class="cls-6" x="1035" y="70" width="50" height="30"/><rect class="cls-9" x="1035" y="97" width="50" height="3"/><rect class="cls-8" x="1055" y="100" width="10" height="5"/><rect class="cls-9" x="1080" y="85" width="5" height="15"/><rect class="cls-9" x="1080" y="75" width="5" height="5"/><rect class="cls-7" x="1040" y="70" width="5" height="5"/><rect class="cls-7" x="1050" y="70" width="5" height="5"/><rect class="cls-7" x="1035" y="70" width="5" height="15"/><rect class="cls-9" x="1050" y="80" width="20" height="10" transform="translate(1145 -975) rotate(90)"/><rect class="cls-9" x="1050" y="80" width="20" height="10" transform="translate(2120 170) rotate(180)"/><rect class="cls-12" x="1057.5" y="82.5" width="5" height="5"/><rect class="cls-6" x="830" y="130" width="255" height="180"/><rect class="cls-9" x="1036" y="150" width="49" height="5"/><rect class="cls-9" x="1060" y="155" width="15" height="5"/><rect class="cls-9" x="1060" y="160" width="10" height="5"/><rect class="cls-9" x="1065" y="165" width="10" height="5"/><rect class="cls-9" x="850" y="155" width="15" height="5"/><rect class="cls-9" x="840" y="150" width="20" height="5"/><rect class="cls-9" x="830" y="135" width="255" height="15"/><polygon class="cls-9" points="985 245 985 305 930 305 930 200 940 200 940 215 945 215 945 220 950 220 950 225 955 225 955 230 960 230 960 235 965 235 965 230 970 230 970 240 975 240 975 245 985 245"/><rect x="985" y="210" width="5" height="115"/><rect x="1100" y="210" width="5" height="115"/><rect x="925" y="305" width="65" height="5"/><rect class="cls-9" x="925" y="310" width="60" height="15"/><rect class="cls-8" x="930" y="310" width="55" height="15"/><path class="cls-7" d="M798,323h9v10h10v5h10v5h11v6h9v4h5v5h9v5h12v5h9v4h10v5h19v5h16v6h15v5h16V603H942v-4h-9v-7H922v-9h-9v-9H902V563h-8V553H882V542h-8v-8H863V523H852V507h-9V493H832.17V482H827v-9h-9V462H808v-9h-5V442h-6S797.82,323,798,323Z"/><path class="cls-6" d="M1117,323h-9v10h-10v5h-10v5h-11v6h-9v4h-5v5h-9v5h-12v5h-9v4h-10v5h-19v5H988v6H973v5H957V603h16v-4h9v-7h11v-9h9v-9h11V563h8V553h12V542h8v-8h11V523h11V507h9V493h10.83V482H1088v-9h9V462h10v-9h5V442h6S1117.18,323,1117,323Z"/><rect class="cls-8" x="950" y="390" width="10" height="215"/><rect class="cls-11" x="810" y="220" width="5" height="36"/><rect class="cls-8" x="810" y="289" width="5" height="36"/><rect class="cls-7" x="815" y="215" width="110" height="105"/><rect class="cls-9" x="815" y="265" width="110" height="60"/><rect x="810" y="320" width="120" height="5"/><polygon class="cls-8" points="930 275 930 320 810 320 810 305 905 305 905 300 910 300 910 295 915 295 915 285 920 285 920 275 930 275"/><rect class="cls-9" x="810" y="210" width="115" height="5"/><rect class="cls-6" x="805" y="205" width="130" height="5"/><rect class="cls-7" x="805" y="200" width="130" height="5"/><rect class="cls-11" x="805" y="200" width="30" height="5"/><rect class="cls-11" x="840" y="200" width="10" height="5"/><rect class="cls-6" x="810" y="215" width="115" height="5"/><rect class="cls-6" x="870" y="220" width="55" height="5"/><rect class="cls-6" x="870" y="225" width="55" height="5"/><rect class="cls-6" x="870" y="230" width="55" height="5"/><rect class="cls-7" x="870" y="225" width="20" height="5"/><rect class="cls-7" x="880" y="230" width="20" height="5"/><polygon class="cls-9" points="915 255 915 285 910 285 910 295 905 295 905 300 900 300 900 305 895 305 895 310 885 310 885 315 855 315 855 310 845 310 845 305 840 305 840 300 835 300 835 295 830 295 830 285 825 285 825 255 830 255 830 245 835 245 835 240 840 240 840 235 845 235 845 230 855 230 855 225 885 225 885 230 895 230 895 235 900 235 900 240 905 240 905 245 910 245 910 255 915 255"/><polygon class="cls-6" points="915 255 915 260 825 260 825 255 830 255 830 245 835 245 835 240 840 240 840 235 845 235 845 230 855 230 855 225 885 225 885 230 895 230 895 235 900 235 900 240 905 240 905 245 910 245 910 255 915 255"/><polygon class="cls-9" points="915 285 915 280 825 280 825 285 830 285 830 295 835 295 835 300 840 300 840 305 845 305 845 310 855 310 855 315 885 315 885 310 895 310 895 305 900 305 900 300 905 300 905 295 910 295 910 285 915 285"/><rect x="910" y="255" width="5" height="30"/><polygon class="cls-8" points="895 250 895 280 890 280 890 290 885 290 885 295 880 295 880 300 875 300 875 305 865 305 865 310 835 310 835 305 825 305 825 300 820 300 820 295 815 295 815 290 810 290 810 280 805 280 805 250 810 250 810 240 815 240 815 235 820 235 820 230 825 230 825 225 835 225 835 220 865 220 865 225 875 225 875 230 880 230 880 235 885 235 885 240 890 240 890 250 895 250"/><polygon class="cls-7" points="870 220 840 220 840 225 865 225 865 230 875 230 875 235 880 235 880 240 885 240 885 245 890 245 890 255 895 255 895 280 900 280 900 250 895 250 895 240 890 240 890 235 885 235 885 230 880 230 880 225 870 225 870 220"/><polygon points="900 285 900 255 895 255 895 280 890 280 890 290 885 290 885 295 880 295 880 300 875 300 875 305 865 305 865 310 840 310 840 315 870 315 870 310 880 310 880 305 885 305 885 300 890 300 890 295 895 295 895 285 900 285"/><polygon class="cls-6" points="805 285 805 255 810 255 810 280 815 280 815 290 820 290 820 295 825 295 825 300 830 300 830 305 840 305 840 310 865 310 865 315 835 315 835 310 825 310 825 305 820 305 820 300 815 300 815 295 810 295 810 285 805 285"/><polyline points="885 310 850 310 850 315 885 315 885 310"/><polygon class="cls-7" points="835 220 865 220 865 225 840 225 840 230 830 230 830 235 825 235 825 240 820 240 820 245 815 245 815 255 810 255 810 280 805 280 805 250 810 250 810 240 815 240 815 235 820 235 820 230 825 230 825 225 835 225 835 220"/><rect class="cls-11" x="835" y="220" width="20" height="5"/><rect class="cls-11" x="825" y="225" width="10" height="5"/><rect class="cls-11" x="820" y="230" width="5" height="5"/><rect class="cls-11" x="860" y="220" width="5" height="5"/><rect class="cls-11" x="815" y="235" width="5" height="5"/><rect class="cls-11" x="810" y="240" width="5" height="5"/><rect class="cls-11" x="805" y="250" width="5" height="15"/><polyline points="905 290 900 290 900 300 905 300 905 290"/><polyline points="900 300 890 300 890 305 900 305 900 300"/><polyline points="895 305 880 305 880 310 895 310 895 305"/><polyline points="910 285 910 295 905 295 905 285"/><rect class="cls-6" x="830" y="220" width="5" height="5"/><rect class="cls-6" x="905" y="235" width="5" height="5"/><rect class="cls-6" x="910" y="240" width="5" height="5"/><rect class="cls-6" x="915" y="245" width="5" height="5"/><rect class="cls-6" x="915" y="260" width="5" height="5"/><rect class="cls-6" x="920" y="255" width="5" height="5"/><rect class="cls-9" x="920" y="260" width="5" height="5"/><rect class="cls-9" x="915" y="255" width="5" height="5"/><rect class="cls-9" x="920" y="250" width="5" height="5"/><rect class="cls-9" x="910" y="250" width="5" height="5"/><rect class="cls-9" x="875" y="215" width="5" height="5"/><rect class="cls-9" x="890" y="220" width="5" height="5"/><rect class="cls-9" x="885" y="215" width="25" height="5"/><rect class="cls-9" x="900" y="220" width="5" height="5"/><rect class="cls-9" x="920" y="225" width="5" height="5"/><rect class="cls-9" x="915" y="215" width="5" height="5"/><rect class="cls-9" x="910" y="220" width="5" height="5"/><rect class="cls-9" x="915" y="230" width="5" height="5"/><rect class="cls-9" x="905" y="225" width="5" height="5"/><rect class="cls-9" x="920" y="215" width="5" height="10"/><rect class="cls-6" x="920" y="240" width="5" height="10"/><rect class="cls-6" x="915" y="235" width="10" height="5"/><rect class="cls-9" x="920" y="235" width="5" height="5"/><rect class="cls-6" x="820" y="225" width="5" height="5"/><rect class="cls-7" x="990" y="215" width="110" height="105" transform="translate(2090 535) rotate(-180)"/><rect class="cls-9" x="990" y="265" width="110" height="60" transform="translate(2090 590) rotate(-180)"/><polygon class="cls-8" points="990 275 990 320 1105 320 1105 305 1010 305 1010 300 1005 300 1005 295 1000 295 1000 285 995 285 995 275 990 275"/><rect x="985" y="320" width="115" height="5"/><rect class="cls-9" x="990" y="210" width="110" height="5" transform="translate(2090 425) rotate(-180)"/><rect class="cls-6" x="980" y="205" width="130" height="5" transform="translate(2090 415) rotate(-180)"/><rect class="cls-7" x="980" y="200" width="130" height="5" transform="translate(2090 405) rotate(-180)"/><rect class="cls-11" x="1005" y="200" width="30" height="5" transform="translate(2040 405) rotate(-180)"/><rect class="cls-11" x="990" y="200" width="10" height="5" transform="translate(1990 405) rotate(-180)"/><rect class="cls-6" x="990" y="215" width="110" height="5" transform="translate(2090 435) rotate(-180)"/><rect class="cls-6" x="990" y="220" width="55" height="5" transform="translate(2035 445) rotate(-180)"/><rect class="cls-6" x="990" y="225" width="55" height="5" transform="translate(2035 455) rotate(-180)"/><rect class="cls-6" x="990" y="230" width="55" height="5" transform="translate(2035 465) rotate(-180)"/><rect class="cls-7" x="1025" y="225" width="20" height="5" transform="translate(2070 455) rotate(-180)"/><rect class="cls-7" x="1015" y="230" width="20" height="5" transform="translate(2050 465) rotate(-180)"/><polygon class="cls-9" points="1000 255 1000 285 1005 285 1005 295 1010 295 1010 300 1015 300 1015 305 1020 305 1020 310 1030 310 1030 315 1060 315 1060 310 1070 310 1070 305 1075 305 1075 300 1080 300 1080 295 1085 295 1085 285 1090 285 1090 255 1085 255 1085 245 1080 245 1080 240 1075 240 1075 235 1070 235 1070 230 1060 230 1060 225 1030 225 1030 230 1020 230 1020 235 1015 235 1015 240 1010 240 1010 245 1005 245 1005 255 1000 255"/><polygon class="cls-6" points="1000 255 1000 260 1090 260 1090 255 1085 255 1085 245 1080 245 1080 240 1075 240 1075 235 1070 235 1070 230 1060 230 1060 225 1030 225 1030 230 1020 230 1020 235 1015 235 1015 240 1010 240 1010 245 1005 245 1005 255 1000 255"/><polygon class="cls-9" points="1000 285 1000 280 1090 280 1090 285 1085 285 1085 295 1080 295 1080 300 1075 300 1075 305 1070 305 1070 310 1060 310 1060 315 1030 315 1030 310 1020 310 1020 305 1015 305 1015 300 1010 300 1010 295 1005 295 1005 285 1000 285"/><rect x="1000" y="255" width="5" height="30" transform="translate(2005 540) rotate(-180)"/><polygon class="cls-8" points="1020 250 1020 280 1025 280 1025 290 1030 290 1030 295 1035 295 1035 300 1040 300 1040 305 1050 305 1050 310 1080 310 1080 305 1090 305 1090 300 1095 300 1095 295 1100 295 1100 290 1105 290 1105 280 1110 280 1110 250 1105 250 1105 240 1100 240 1100 235 1095 235 1095 230 1090 230 1090 225 1080 225 1080 220 1050 220 1050 225 1040 225 1040 230 1035 230 1035 235 1030 235 1030 240 1025 240 1025 250 1020 250"/><polygon class="cls-7" points="1045 220 1075 220 1075 225 1050 225 1050 230 1040 230 1040 235 1035 235 1035 240 1030 240 1030 245 1025 245 1025 255 1020 255 1020 280 1015 280 1015 250 1020 250 1020 240 1025 240 1025 235 1030 235 1030 230 1035 230 1035 225 1045 225 1045 220"/><polygon points="1015 285 1015 255 1020 255 1020 280 1025 280 1025 290 1030 290 1030 295 1035 295 1035 300 1040 300 1040 305 1050 305 1050 310 1075 310 1075 315 1045 315 1045 310 1035 310 1035 305 1030 305 1030 300 1025 300 1025 295 1020 295 1020 285 1015 285"/><polygon class="cls-6" points="1110 285 1110 255 1105 255 1105 280 1100 280 1100 290 1095 290 1095 295 1090 295 1090 300 1085 300 1085 305 1075 305 1075 310 1050 310 1050 315 1080 315 1080 310 1090 310 1090 305 1095 305 1095 300 1100 300 1100 295 1105 295 1105 285 1110 285"/><polyline points="1030 310 1080 310 1080 315 1030 315 1030 310"/><polyline points="1090 305 1075 305 1075 310 1090 310 1090 305"/><polyline class="cls-9" points="1095 300 1085 300 1085 305 1095 305 1095 300"/><polygon class="cls-7" points="1080 220 1050 220 1050 225 1075 225 1075 230 1085 230 1085 235 1090 235 1090 240 1095 240 1095 245 1100 245 1100 255 1105 255 1105 280 1110 280 1110 250 1105 250 1105 240 1100 240 1100 235 1095 235 1095 230 1090 230 1090 225 1080 225 1080 220"/><rect class="cls-11" x="1060" y="220" width="20" height="5" transform="translate(2140 445) rotate(-180)"/><rect class="cls-11" x="1080" y="225" width="10" height="5" transform="translate(2170 455) rotate(-180)"/><rect class="cls-11" x="1090" y="230" width="5" height="5" transform="translate(2185 465) rotate(-180)"/><rect class="cls-11" x="1050" y="220" width="5" height="5" transform="translate(2105 445) rotate(-180)"/><rect class="cls-11" x="1095" y="235" width="5" height="5" transform="translate(2195 475) rotate(-180)"/><rect class="cls-11" x="1100" y="240" width="5" height="5" transform="translate(2205 485) rotate(-180)"/><rect class="cls-11" x="1105" y="250" width="5" height="15" transform="translate(2215 515) rotate(-180)"/><polyline points="1010 290 1015 290 1015 300 1010 300 1010 290"/><polyline points="1015 300 1025 300 1025 305 1015 305 1015 300"/><polyline points="1020 305 1035 305 1035 310 1020 310 1020 305"/><polyline points="1005 285 1005 295 1010 295 1010 285"/><rect class="cls-6" x="1080" y="220" width="5" height="5" transform="translate(2165 445) rotate(-180)"/><rect class="cls-6" x="1005" y="235" width="5" height="5" transform="translate(2015 475) rotate(-180)"/><rect class="cls-6" x="1000" y="240" width="5" height="5" transform="translate(2005 485) rotate(-180)"/><rect class="cls-6" x="995" y="245" width="5" height="5" transform="translate(1995 495) rotate(-180)"/><rect class="cls-6" x="995" y="260" width="5" height="5" transform="translate(1995 525) rotate(-180)"/><rect class="cls-6" x="990" y="255" width="5" height="5" transform="translate(1985 515) rotate(-180)"/><rect class="cls-9" x="990" y="260" width="5" height="5" transform="translate(1985 525) rotate(-180)"/><rect class="cls-9" x="995" y="255" width="5" height="5" transform="translate(1995 515) rotate(-180)"/><rect class="cls-9" x="990" y="250" width="5" height="5" transform="translate(1985 505) rotate(-180)"/><rect class="cls-9" x="1000" y="250" width="5" height="5" transform="translate(2005 505) rotate(-180)"/><rect class="cls-9" x="1035" y="215" width="5" height="5" transform="translate(2075 435) rotate(-180)"/><rect class="cls-9" x="1020" y="220" width="5" height="5" transform="translate(2045 445) rotate(-180)"/><rect class="cls-9" x="1005" y="215" width="25" height="5" transform="translate(2035 435) rotate(-180)"/><rect class="cls-9" x="1010" y="220" width="5" height="5" transform="translate(2025 445) rotate(-180)"/><rect class="cls-9" x="990" y="225" width="5" height="5" transform="translate(1985 455) rotate(-180)"/><rect class="cls-9" x="995" y="215" width="5" height="5" transform="translate(1995 435) rotate(-180)"/><rect class="cls-9" x="1000" y="220" width="5" height="5" transform="translate(2005 445) rotate(-180)"/><rect class="cls-9" x="995" y="230" width="5" height="5" transform="translate(1995 465) rotate(-180)"/><rect class="cls-9" x="1005" y="225" width="5" height="5" transform="translate(2015 455) rotate(-180)"/><rect class="cls-9" x="990" y="215" width="5" height="10" transform="translate(1985 440) rotate(-180)"/><rect class="cls-6" x="990" y="240" width="5" height="10" transform="translate(1985 490) rotate(-180)"/><rect class="cls-6" x="990" y="235" width="10" height="5" transform="translate(1990 475) rotate(-180)"/><rect class="cls-9" x="990" y="235" width="5" height="5" transform="translate(1985 475) rotate(-180)"/><rect class="cls-6" x="1090" y="225" width="5" height="5" transform="translate(2185 455) rotate(-180)"/><rect class="cls-9" x="950" y="390" width="5" height="215"/><rect class="cls-9" x="960" y="390" width="5" height="215"/><rect class="cls-8" x="960" y="495" width="5" height="110"/><rect class="cls-9" x="965" y="445" width="5" height="160"/><rect class="cls-9" x="970" y="450" width="5" height="150"/><rect class="cls-9" x="975" y="465" width="5" height="135"/><rect class="cls-9" x="980" y="460" width="5" height="130"/><rect class="cls-9" x="985" y="445" width="5" height="145"/><rect class="cls-9" x="990" y="450" width="5" height="135"/><rect class="cls-9" x="995" y="455" width="5" height="125"/><rect class="cls-9" x="1000" y="450" width="5" height="120"/><rect class="cls-9" x="1005" y="440" width="5" height="130"/><rect class="cls-9" x="1025" y="430" width="5" height="120"/><rect class="cls-9" x="1030" y="425" width="5" height="125"/><rect class="cls-9" x="1010" y="445" width="5" height="120"/><rect class="cls-9" x="1015" y="440" width="5" height="120"/><rect class="cls-9" x="1020" y="435" width="5" height="125"/><rect class="cls-9" x="1110" y="324" width="5" height="125"/><rect class="cls-9" x="1105" y="330" width="5" height="125"/><rect class="cls-9" x="1100" y="355" width="5" height="110"/><rect class="cls-9" x="1095" y="365" width="5" height="110"/><rect class="cls-9" x="1090" y="370" width="5" height="105"/><rect class="cls-9" x="1085" y="385" width="5" height="95"/><rect class="cls-9" x="1080" y="390" width="5" height="95"/><rect class="cls-9" x="1075" y="395" width="5" height="95"/><rect class="cls-9" x="1070" y="390" width="5" height="110"/><rect class="cls-9" x="1060" y="410" width="5" height="100"/><rect class="cls-9" x="1055" y="405" width="5" height="115"/><rect class="cls-9" x="1050" y="415" width="5" height="115"/><rect class="cls-9" x="1045" y="410" width="5" height="125"/><rect class="cls-9" x="1040" y="420" width="5" height="110"/><rect class="cls-9" x="1035" y="430" width="5" height="115"/><rect class="cls-9" x="1065" y="400" width="5" height="105"/><polygon class="cls-6" points="950 445 950 605 945 605 945 600 935 600 935 590 925 590 925 585 920 585 920 580 915 580 915 570 905 570 905 565 900 565 900 560 890 560 890 550 880 550 880 545 875 545 875 530 870 530 870 535 865 535 865 530 860 530 860 520 855 520 855 510 850 510 850 505 845 505 845 500 840 500 840 490 835 490 835 485 830 485 830 480 825 480 825 475 815 475 815 465 810 465 810 455 805 455 805 449 800 449 800 345 805 345 805 355 810 355 810 365 815 365 815 360 820 360 820 375 825 375 825 385 830 385 830 390 835 390 835 395 840 395 840 390 845 390 845 400 850 400 850 410 855 410 855 405 860 405 860 415 865 415 865 410 870 410 870 420 875 420 875 430 880 430 880 425 885 425 885 430 890 430 890 435 895 435 895 440 900 440 900 445 905 445 905 440 910 440 910 450 915 450 915 455 920 455 920 450 925 450 925 445 930 445 930 460 935 460 935 465 940 465 940 450 945 450 945 445 950 445"/><polygon class="cls-9" points="950 520 950 605 945 605 945 600 935 600 935 590 925 590 925 585 920 585 920 580 915 580 915 570 905 570 905 565 900 565 900 560 890 560 890 550 880 550 880 545 875 545 875 530 870 530 870 535 865 535 865 530 860 530 860 520 855 520 855 510 850 510 850 505 845 505 845 500 840 500 840 490 835 490 835 485 830 485 830 480 825 480 825 475 815 475 815 465 810 465 810 455 805 455 805 449 800 449 800 420 805 420 805 430 810 430 810 440 815 440 815 435 820 435 820 450 825 450 825 460 830 460 830 465 835 465 835 470 840 470 840 465 845 465 845 475 850 475 850 485 855 485 855 480 860 480 860 490 865 490 865 485 870 485 870 495 875 495 875 505 880 505 880 500 885 500 885 505 890 505 890 510 895 510 895 515 900 515 900 520 905 520 905 515 910 515 910 525 915 525 915 530 920 530 920 525 925 525 925 520 930 520 930 535 935 535 935 540 940 540 940 525 945 525 945 520 950 520"/><polygon class="cls-8" points="965 520 965 605 970 605 970 600 980 600 980 590 990 590 990 585 995 585 995 580 1000 580 1000 570 1010 570 1010 565 1015 565 1015 560 1025 560 1025 550 1035 550 1035 545 1040 545 1040 530 1045 530 1045 535 1050 535 1050 530 1055 530 1055 520 1060 520 1060 510 1065 510 1065 505 1070 505 1070 500 1075 500 1075 490 1080 490 1080 485 1085 485 1085 480 1090 480 1090 475 1100 475 1100 465 1105 465 1105 455 1110 455 1110 449 1115 449 1115 420 1110 420 1110 430 1105 430 1105 440 1100 440 1100 435 1095 435 1095 450 1090 450 1090 460 1085 460 1085 465 1080 465 1080 470 1075 470 1075 465 1070 465 1070 475 1065 475 1065 485 1060 485 1060 480 1055 480 1055 490 1050 490 1050 485 1045 485 1045 495 1040 495 1040 505 1035 505 1035 500 1030 500 1030 505 1025 505 1025 510 1020 510 1020 515 1015 515 1015 520 1010 520 1010 515 1005 515 1005 525 1000 525 1000 530 995 530 995 525 990 525 990 520 985 520 985 535 980 535 980 540 975 540 975 525 970 525 970 520 965 520"/><rect class="cls-8" x="960" y="600" width="15" height="5"/><rect class="cls-8" x="970" y="595" width="15" height="5" transform="translate(1955 1195) rotate(-180)"/><rect class="cls-8" x="980" y="590" width="15" height="5" transform="translate(1975 1185) rotate(-180)"/><rect class="cls-8" x="990" y="580" width="15" height="5" transform="translate(1995 1165) rotate(-180)"/><rect class="cls-8" x="1000" y="570" width="15" height="5" transform="translate(2015 1145) rotate(-180)"/><rect class="cls-8" x="1010" y="560" width="15" height="5" transform="translate(2035 1125) rotate(-180)"/><rect class="cls-8" x="1070" y="490" width="15" height="5" transform="translate(2155 985) rotate(-180)"/><rect class="cls-8" x="985" y="585" width="15" height="5" transform="translate(405 1580) rotate(-90)"/><rect class="cls-8" x="967.5" y="597.5" width="10" height="5" transform="translate(372.5 1572.5) rotate(-90)"/><rect class="cls-8" x="995" y="575" width="15" height="5" transform="translate(425 1580) rotate(-90)"/><rect class="cls-8" x="1055" y="510" width="15" height="5" transform="translate(550 1575) rotate(-90)"/><rect class="cls-8" x="1060" y="505" width="15" height="5" transform="translate(2135 1015) rotate(-180)"/><rect class="cls-8" x="1065" y="495" width="15" height="5" transform="translate(575 1570) rotate(-90)"/><rect class="cls-8" x="1075" y="485" width="15" height="5" transform="translate(595 1570) rotate(-90)"/><rect class="cls-8" x="1085" y="470" width="15" height="5" transform="translate(2185 945) rotate(-180)"/><rect class="cls-8" x="1105" y="450" width="10" height="5" transform="translate(2220 905) rotate(-180)"/><rect class="cls-8" x="1080" y="475" width="15" height="5" transform="translate(610 1565) rotate(-90)"/><rect class="cls-8" x="1090" y="465" width="15" height="5" transform="translate(630 1565) rotate(-90)"/><rect class="cls-8" x="1100" y="460" width="10" height="5" transform="translate(2210 925) rotate(-180)"/><rect class="cls-8" x="1100" y="455" width="15" height="5" transform="translate(650 1565) rotate(-90)"/><rect class="cls-8" x="1105" y="445" width="15" height="5" transform="translate(665 1560) rotate(-90)"/><rect class="cls-8" x="1005" y="565" width="15" height="5" transform="translate(445 1580) rotate(-90)"/><rect class="cls-8" x="1115" y="295" width="5" height="150" transform="translate(2235 740) rotate(-180)"/><rect class="cls-8" x="1020" y="550" width="15" height="5" transform="translate(2055 1105) rotate(-180)"/><rect class="cls-8" x="1030" y="540" width="15" height="5" transform="translate(2075 1085) rotate(-180)"/><rect class="cls-8" x="1015" y="555" width="15" height="5" transform="translate(465 1580) rotate(-90)"/><rect class="cls-8" x="1025" y="545" width="15" height="5" transform="translate(485 1580) rotate(-90)"/><rect class="cls-8" x="1040" y="530" width="15" height="5" transform="translate(2095 1065) rotate(-180)"/><rect class="cls-8" x="1050" y="520" width="15" height="5" transform="translate(2115 1045) rotate(-180)"/><rect class="cls-8" x="1035" y="535" width="15" height="5" transform="translate(505 1580) rotate(-90)"/><rect class="cls-8" x="1045" y="525" width="15" height="5" transform="translate(525 1580) rotate(-90)"/><rect class="cls-8" x="940" y="600" width="15" height="5" transform="translate(1895 1205) rotate(-180)"/><rect class="cls-8" x="930" y="595" width="15" height="5"/><rect class="cls-8" x="920" y="590" width="15" height="5"/><rect class="cls-8" x="910" y="580" width="15" height="5"/><rect class="cls-8" x="900" y="570" width="15" height="5"/><rect class="cls-8" x="890" y="560" width="15" height="5"/><rect class="cls-8" x="830" y="490" width="15" height="5"/><rect class="cls-8" x="915" y="585" width="15" height="5" transform="translate(335 1510) rotate(-90)"/><rect class="cls-8" x="937.5" y="597.5" width="10" height="5" transform="translate(342.5 1542.5) rotate(-90)"/><rect class="cls-8" x="905" y="575" width="15" height="5" transform="translate(335 1490) rotate(-90)"/><rect class="cls-8" x="845" y="510" width="15" height="5" transform="translate(340 1365) rotate(-90)"/><rect class="cls-8" x="840" y="505" width="15" height="5"/><rect class="cls-8" x="835" y="495" width="15" height="5" transform="translate(345 1340) rotate(-90)"/><rect class="cls-8" x="825" y="485" width="15" height="5" transform="translate(345 1320) rotate(-90)"/><rect class="cls-8" x="815" y="470" width="15" height="5"/><rect class="cls-8" x="800" y="450" width="10" height="5"/><rect class="cls-8" x="820" y="475" width="15" height="5" transform="translate(350 1305) rotate(-90)"/><rect class="cls-8" x="810" y="465" width="15" height="5" transform="translate(350 1285) rotate(-90)"/><rect class="cls-8" x="805" y="460" width="10" height="5"/><rect class="cls-8" x="800" y="455" width="15" height="5" transform="translate(350 1265) rotate(-90)"/><rect class="cls-8" x="795" y="445" width="15" height="5" transform="translate(355 1250) rotate(-90)"/><rect class="cls-8" x="895" y="565" width="15" height="5" transform="translate(335 1470) rotate(-90)"/><rect class="cls-8" x="795" y="315" width="5" height="130"/><rect class="cls-8" x="880" y="550" width="15" height="5"/><rect class="cls-8" x="870" y="540" width="15" height="5"/><rect class="cls-8" x="885" y="555" width="15" height="5" transform="translate(335 1450) rotate(-90)"/><rect class="cls-8" x="875" y="545" width="15" height="5" transform="translate(335 1430) rotate(-90)"/><rect class="cls-8" x="860" y="530" width="15" height="5"/><rect class="cls-8" x="850" y="520" width="15" height="5"/><rect class="cls-8" x="865" y="535" width="15" height="5" transform="translate(335 1410) rotate(-90)"/><rect class="cls-8" x="855" y="525" width="15" height="5" transform="translate(335 1390) rotate(-90)"/><rect class="cls-11" x="940" y="365" width="35" height="5"/><rect class="cls-11" x="970" y="360" width="20" height="5"/><rect class="cls-11" x="985" y="355" width="20" height="5"/><rect class="cls-11" x="1000" y="350" width="25" height="5"/><rect class="cls-11" x="1020" y="345" width="15" height="5"/><rect class="cls-11" x="1030" y="340" width="15" height="5"/><rect class="cls-11" x="1040" y="335" width="15" height="5"/><rect class="cls-11" x="1050" y="330" width="15" height="5"/><rect class="cls-11" x="1060" y="325" width="10" height="5"/><rect class="cls-11" x="1065" y="320" width="15" height="5"/><rect class="cls-11" x="1075" y="315" width="15" height="5"/><rect class="cls-11" x="1085" y="310" width="15" height="5"/><rect class="cls-11" x="1095" y="305" width="15" height="5"/><rect class="cls-11" x="1105" y="300" width="5" height="5"/><rect class="cls-11" x="1105" y="295" width="15" height="5"/><rect class="cls-11" x="925" y="360" width="20" height="5" transform="translate(1870 725) rotate(-180)"/><rect class="cls-11" x="910" y="355" width="20" height="5" transform="translate(1840 715) rotate(-180)"/><rect class="cls-11" x="890" y="350" width="25" height="5" transform="translate(1805 705) rotate(-180)"/><rect class="cls-11" x="880" y="345" width="15" height="5" transform="translate(1775 695) rotate(-180)"/><rect class="cls-11" x="870" y="340" width="15" height="5" transform="translate(1755 685) rotate(-180)"/><rect class="cls-11" x="860" y="335" width="15" height="5" transform="translate(1735 675) rotate(-180)"/><rect class="cls-11" x="850" y="330" width="15" height="5" transform="translate(1715 665) rotate(-180)"/><rect class="cls-11" x="845" y="325" width="10" height="5" transform="translate(1700 655) rotate(-180)"/><rect class="cls-11" x="835" y="320" width="15" height="5" transform="translate(1685 645) rotate(-180)"/><rect class="cls-11" x="825" y="315" width="15" height="5" transform="translate(1665 635) rotate(-180)"/><rect class="cls-11" x="815" y="310" width="15" height="5" transform="translate(1645 625) rotate(-180)"/><rect class="cls-11" x="805" y="305" width="15" height="5" transform="translate(1625 615) rotate(-180)"/><rect class="cls-11" x="805" y="300" width="5" height="5" transform="translate(1615 605) rotate(-180)"/><rect class="cls-11" x="795" y="295" width="15" height="5" transform="translate(1605 595) rotate(-180)"/><rect class="cls-9" x="940" y="390" width="35" height="5"/><rect class="cls-6" x="940" y="390" width="15" height="5"/><rect class="cls-9" x="970" y="385" width="20" height="5"/><rect class="cls-9" x="985" y="380" width="20" height="5"/><rect class="cls-9" x="1000" y="375" width="25" height="5"/><rect class="cls-9" x="1020" y="370" width="15" height="5"/><rect class="cls-9" x="1030" y="365" width="15" height="5"/><rect class="cls-9" x="1040" y="360" width="15" height="5"/><rect class="cls-9" x="1050" y="355" width="15" height="5"/><rect class="cls-9" x="1060" y="350" width="10" height="5"/><rect class="cls-9" x="1065" y="345" width="15" height="5"/><rect class="cls-9" x="1075" y="340" width="15" height="5"/><rect class="cls-9" x="1085" y="335" width="15" height="5"/><rect class="cls-9" x="1095" y="330" width="15" height="5"/><rect class="cls-9" x="1105" y="325" width="5" height="5"/><rect class="cls-9" x="1105" y="320" width="15" height="5"/><rect class="cls-6" x="925" y="385" width="20" height="5" transform="translate(1870 775) rotate(-180)"/><rect class="cls-6" x="910" y="380" width="20" height="5" transform="translate(1840 765) rotate(-180)"/><rect class="cls-6" x="890" y="375" width="25" height="5" transform="translate(1805 755) rotate(-180)"/><rect class="cls-6" x="880" y="370" width="15" height="5" transform="translate(1775 745) rotate(-180)"/><rect class="cls-6" x="870" y="365" width="15" height="5" transform="translate(1755 735) rotate(-180)"/><rect class="cls-6" x="860" y="360" width="15" height="5" transform="translate(1735 725) rotate(-180)"/><rect class="cls-6" x="850" y="355" width="15" height="5" transform="translate(1715 715) rotate(-180)"/><rect class="cls-6" x="845" y="350" width="10" height="5" transform="translate(1700 705) rotate(-180)"/><rect class="cls-6" x="835" y="345" width="15" height="5" transform="translate(1685 695) rotate(-180)"/><rect class="cls-11" x="835" y="345" width="5" height="5" transform="translate(1675 695) rotate(-180)"/><rect class="cls-11" x="845" y="350" width="5" height="5" transform="translate(1695 705) rotate(-180)"/><rect class="cls-11" x="850" y="355" width="5" height="5" transform="translate(1705 715) rotate(-180)"/><rect class="cls-11" x="860" y="360" width="5" height="5" transform="translate(1725 725) rotate(-180)"/><rect class="cls-11" x="870" y="365" width="5" height="5" transform="translate(1745 735) rotate(-180)"/><rect class="cls-11" x="880" y="370" width="5" height="5" transform="translate(1765 745) rotate(-180)"/><rect class="cls-11" x="825" y="340" width="15" height="5" transform="translate(1665 685) rotate(-180)"/><rect class="cls-11" x="815" y="335" width="15" height="5" transform="translate(1645 675) rotate(-180)"/><rect class="cls-7" x="820" y="335" width="10" height="5" transform="translate(1650 675) rotate(-180)"/><rect class="cls-7" x="830" y="340" width="5" height="5" transform="translate(1665 685) rotate(-180)"/><rect class="cls-7" x="870" y="360" width="5" height="5" transform="translate(1745 725) rotate(-180)"/><rect class="cls-7" x="855" y="355" width="5" height="5" transform="translate(1715 715) rotate(-180)"/><rect class="cls-7" x="890" y="370" width="5" height="5" transform="translate(1785 745) rotate(-180)"/><rect class="cls-11" x="805" y="330" width="15" height="5" transform="translate(1625 665) rotate(-180)"/><rect class="cls-7" x="805" y="330" width="5" height="5" transform="translate(1615 665) rotate(-180)"/><rect class="cls-7" x="815" y="330" width="5" height="5" transform="translate(1635 665) rotate(-180)"/><rect class="cls-11" x="805" y="325" width="5" height="5" transform="translate(1615 655) rotate(-180)"/><rect class="cls-11" x="800" y="320" width="10" height="5" transform="translate(1610 645) rotate(-180)"/><rect class="cls-6" x="970" y="370" width="5" height="20"/><rect class="cls-9" x="970" y="385" width="5" height="5"/><rect class="cls-9" x="940" y="370" width="5" height="20"/><rect class="cls-9" x="925" y="365" width="5" height="20"/><rect class="cls-9" x="910" y="360" width="5" height="20"/><rect class="cls-9" x="895" y="355" width="5" height="20"/><rect class="cls-9" x="880" y="350" width="5" height="20"/><rect class="cls-9" x="865" y="340" width="5" height="20"/><rect class="cls-9" x="850" y="335" width="5" height="20"/><rect class="cls-8" x="835" y="325" width="5" height="20"/><rect class="cls-8" x="820" y="315" width="5" height="20"/><rect class="cls-9" x="805" y="305" width="5" height="20"/><rect class="cls-6" x="795" y="300" width="5" height="20"/><rect class="cls-9" x="795" y="315" width="5" height="5"/><rect class="cls-9" x="805" y="320" width="5" height="5"/><rect x="820" y="330" width="5" height="5"/><rect x="835" y="340" width="5" height="5"/><rect class="cls-8" x="850" y="350" width="5" height="5"/><rect class="cls-8" x="865" y="355" width="5" height="5"/><rect class="cls-8" x="880" y="365" width="5" height="5"/><rect class="cls-8" x="895" y="370" width="5" height="5"/><rect class="cls-8" x="910" y="375" width="5" height="5"/><rect class="cls-8" x="925" y="380" width="5" height="5"/><rect class="cls-8" x="940" y="385" width="5" height="5"/><rect class="cls-8" x="795" y="300" width="5" height="5"/><rect class="cls-8" x="805" y="305" width="5" height="5"/><rect x="820" y="315" width="5" height="5"/><rect x="835" y="325" width="5" height="5"/><rect class="cls-8" x="850" y="335" width="5" height="5"/><rect class="cls-8" x="865" y="340" width="5" height="5"/><rect class="cls-8" x="880" y="350" width="5" height="5"/><rect class="cls-8" x="895" y="355" width="5" height="5"/><rect class="cls-8" x="910" y="360" width="5" height="5"/><rect class="cls-8" x="925" y="365" width="5" height="5"/><rect class="cls-8" x="940" y="370" width="5" height="5"/><rect class="cls-9" x="970" y="370" width="5" height="20" transform="translate(1945 760) rotate(-180)"/><rect class="cls-9" x="985" y="365" width="5" height="20" transform="translate(1975 750) rotate(-180)"/><rect class="cls-9" x="1000" y="360" width="5" height="20" transform="translate(2005 740) rotate(-180)"/><rect class="cls-9" x="1015" y="355" width="5" height="20" transform="translate(2035 730) rotate(-180)"/><rect class="cls-9" x="1030" y="350" width="5" height="20" transform="translate(2065 720) rotate(-180)"/><rect class="cls-9" x="1045" y="340" width="5" height="20" transform="translate(2095 700) rotate(-180)"/><rect class="cls-9" x="1060" y="335" width="5" height="20" transform="translate(2125 690) rotate(-180)"/><rect class="cls-9" x="1075" y="325" width="5" height="20" transform="translate(2155 670) rotate(-180)"/><rect class="cls-9" x="1090" y="315" width="5" height="20" transform="translate(2185 650) rotate(-180)"/><rect class="cls-9" x="1105" y="305" width="5" height="20" transform="translate(2215 630) rotate(-180)"/><rect class="cls-9" x="1115" y="300" width="5" height="20" transform="translate(2235 620) rotate(-180)"/><rect class="cls-8" x="1115" y="315" width="5" height="5" transform="translate(2235 635) rotate(-180)"/><rect class="cls-8" x="1105" y="320" width="5" height="5" transform="translate(2215 645) rotate(-180)"/><rect class="cls-8" x="1090" y="330" width="5" height="5" transform="translate(2185 665) rotate(-180)"/><rect class="cls-8" x="1075" y="340" width="5" height="5" transform="translate(2155 685) rotate(-180)"/><rect class="cls-8" x="1060" y="350" width="5" height="5" transform="translate(2125 705) rotate(-180)"/><rect class="cls-8" x="1045" y="355" width="5" height="5" transform="translate(2095 715) rotate(-180)"/><rect class="cls-8" x="1030" y="365" width="5" height="5" transform="translate(2065 735) rotate(-180)"/><rect class="cls-8" x="1015" y="370" width="5" height="5" transform="translate(2035 745) rotate(-180)"/><rect class="cls-8" x="1000" y="375" width="5" height="5" transform="translate(2005 755) rotate(-180)"/><rect class="cls-8" x="985" y="380" width="5" height="5" transform="translate(1975 765) rotate(-180)"/><rect class="cls-8" x="970" y="385" width="5" height="5" transform="translate(1945 775) rotate(-180)"/><rect class="cls-9" x="1115" y="300" width="5" height="5" transform="translate(2235 605) rotate(-180)"/><rect class="cls-8" x="1105" y="305" width="5" height="5" transform="translate(2215 615) rotate(-180)"/><rect class="cls-8" x="1090" y="315" width="5" height="5" transform="translate(2185 635) rotate(-180)"/><rect class="cls-8" x="1075" y="325" width="5" height="5" transform="translate(2155 655) rotate(-180)"/><rect class="cls-8" x="1060" y="335" width="5" height="5" transform="translate(2125 675) rotate(-180)"/><rect class="cls-8" x="1045" y="340" width="5" height="5" transform="translate(2095 685) rotate(-180)"/><rect class="cls-8" x="1030" y="350" width="5" height="5" transform="translate(2065 705) rotate(-180)"/><rect class="cls-8" x="1015" y="355" width="5" height="5" transform="translate(2035 715) rotate(-180)"/><rect class="cls-8" x="1000" y="360" width="5" height="5" transform="translate(2005 725) rotate(-180)"/><rect class="cls-8" x="985" y="365" width="5" height="5" transform="translate(1975 735) rotate(-180)"/><rect class="cls-8" x="970" y="370" width="5" height="5" transform="translate(1945 745) rotate(-180)"/><rect class="cls-9" x="955" y="370" width="5" height="25"/><rect class="cls-8" x="955" y="385" width="5" height="5" transform="translate(1915 775) rotate(-180)"/><rect class="cls-9" x="955" y="390" width="10" height="5"/><rect class="cls-8" x="955" y="370" width="5" height="5"/><rect class="cls-9" x="975" y="455" width="5" height="5"/><rect class="cls-9" x="980" y="450" width="5" height="5"/><rect class="cls-9" x="990" y="440" width="5" height="5"/><rect class="cls-8" x="1010" y="505" width="5" height="5"/><rect class="cls-8" x="1020" y="495" width="5" height="5"/><rect class="cls-8" x="1010" y="495" width="5" height="5"/><rect class="cls-8" x="1035" y="495" width="5" height="5"/><rect class="cls-8" x="1035" y="485" width="5" height="5"/><rect class="cls-8" x="1040" y="475" width="5" height="5"/><rect class="cls-8" x="1070" y="455" width="5" height="5"/><rect class="cls-8" x="1080" y="455" width="5" height="5"/><rect class="cls-8" x="1085" y="445" width="5" height="5"/><rect class="cls-8" x="1080" y="440" width="5" height="5"/><rect class="cls-8" x="1070" y="430" width="5" height="5"/><rect class="cls-8" x="1085" y="430" width="5" height="5"/><rect class="cls-8" x="1080" y="420" width="5" height="5"/><rect class="cls-8" x="1075" y="450" width="5" height="5"/><rect class="cls-8" x="1060" y="475" width="5" height="5"/><rect class="cls-8" x="1060" y="465" width="5" height="5"/><rect class="cls-8" x="1050" y="465" width="5" height="5"/><rect class="cls-8" x="1025" y="480" width="5" height="5"/><rect class="cls-8" x="995" y="520" width="5" height="5"/><rect class="cls-8" x="980" y="515" width="5" height="5"/><rect class="cls-9" x="1010" y="430" width="5" height="5"/><rect class="cls-9" x="1035" y="415" width="5" height="5"/><rect class="cls-9" x="1025" y="410" width="5" height="5"/><rect class="cls-9" x="1020" y="420" width="5" height="5"/><rect class="cls-6" x="995" y="465" width="5" height="5"/><rect class="cls-6" x="1000" y="460" width="5" height="5"/><rect class="cls-6" x="1020" y="445" width="5" height="5"/><rect class="cls-6" x="1030" y="440" width="5" height="5"/><rect class="cls-6" x="1050" y="420" width="5" height="5"/><rect class="cls-6" x="975" y="470" width="5" height="5"/><rect class="cls-6" x="985" y="470" width="5" height="5"/><rect class="cls-7" x="925" y="465" width="5" height="5"/><rect class="cls-7" x="910" y="465" width="5" height="5"/><rect class="cls-7" x="895" y="470" width="5" height="5"/><rect class="cls-7" x="820" y="385" width="5" height="5"/><rect class="cls-7" x="810" y="370" width="5" height="5"/><rect class="cls-7" x="805" y="380" width="5" height="5"/><rect class="cls-7" x="825" y="395" width="5" height="5"/><rect class="cls-7" x="825" y="396" width="5" height="5"/><rect class="cls-6" x="835" y="380" width="5" height="5"/><rect class="cls-9" x="810" y="425" width="5" height="5"/><rect class="cls-9" x="825" y="435" width="5" height="5"/><rect class="cls-9" x="825" y="445" width="5" height="5"/><rect class="cls-9" x="830" y="455" width="5" height="5"/><rect class="cls-9" x="840" y="445" width="5" height="5"/><rect class="cls-9" x="835" y="450" width="5" height="5"/><rect class="cls-9" x="840" y="455" width="5" height="5"/><rect class="cls-9" x="820" y="425" width="5" height="5"/><rect class="cls-9" x="805" y="410" width="5" height="5"/><rect class="cls-7" x="840" y="400" width="5" height="5"/><rect class="cls-9" x="890" y="495" width="5" height="5"/><rect class="cls-7" x="880" y="435" width="5" height="5"/><rect class="cls-6" x="915" y="440" width="5" height="5"/><rect class="cls-7" x="945" y="455" width="5" height="5"/><rect class="cls-7" x="900" y="450" width="5" height="5"/><rect class="cls-6" x="1005" y="450" width="5" height="5"/><rect class="cls-9" x="985" y="435" width="5" height="5"/><rect class="cls-9" x="965" y="430" width="5" height="5"/><rect class="cls-9" x="975" y="425" width="5" height="5"/><rect class="cls-9" x="995" y="435" width="5" height="5"/><rect class="cls-9" x="1000" y="425" width="5" height="5"/><rect class="cls-9" x="1085" y="365" width="5" height="5"/><rect class="cls-9" x="1090" y="355" width="5" height="5"/><rect class="cls-9" x="1095" y="345" width="5" height="5"/><rect class="cls-9" x="1085" y="375" width="5" height="5"/><rect class="cls-9" x="1100" y="340" width="5" height="5"/><rect class="cls-9" x="1075" y="380" width="5" height="5"/><rect class="cls-9" x="1050" y="400" width="5" height="5"/><rect class="cls-9" x="1040" y="400" width="5" height="5"/><rect class="cls-9" x="1060" y="395" width="5" height="5"/><rect class="cls-9" x="1070" y="370" width="5" height="5"/><rect class="cls-9" x="970" y="440" width="5" height="5"/><rect x="925" y="210" width="5" height="115"/><rect class="cls-9" x="945" y="210" width="5" height="5"/><rect class="cls-9" x="975" y="235" width="5" height="5"/><rect class="cls-9" x="980" y="230" width="5" height="5"/><rect class="cls-9" x="970" y="225" width="5" height="5"/><rect class="cls-9" x="960" y="225" width="5" height="5"/><rect class="cls-8" x="930" y="270" width="5" height="35"/><rect class="cls-8" x="940" y="270" width="5" height="5"/><rect class="cls-8" x="940" y="255" width="5" height="10"/><rect class="cls-8" x="950" y="265" width="5" height="10"/><rect class="cls-8" x="950" y="280" width="5" height="5"/><rect class="cls-8" x="945" y="285" width="5" height="5"/><rect class="cls-8" x="980" y="285" width="5" height="5"/><rect class="cls-8" x="955" y="275" width="5" height="5"/><rect class="cls-8" x="945" y="260" width="5" height="20"/><rect class="cls-8" x="940" y="280" width="5" height="25"/><rect class="cls-8" x="930" y="230" width="5" height="35"/><rect class="cls-8" x="935" y="240" width="5" height="40"/><rect class="cls-8" x="930" y="220" width="5" height="5"/><rect class="cls-8" x="935" y="285" width="5" height="20"/><rect class="cls-8" x="945" y="290" width="5" height="15"/><rect class="cls-8" x="950" y="290" width="5" height="15"/><rect class="cls-8" x="955" y="285" width="5" height="20"/><rect class="cls-8" x="970" y="285" width="5" height="20"/><rect class="cls-8" x="960" y="280" width="5" height="25"/><rect class="cls-8" x="965" y="290" width="5" height="15"/><rect class="cls-8" x="975" y="295" width="10" height="10"/><rect class="cls-8" x="980" y="210" width="5" height="5"/><rect class="cls-9" x="980" y="240" width="5" height="5"/><rect class="cls-9" x="955" y="140" width="5" height="50"/><rect class="cls-1" x="860" y="140" width="95" height="50"/><rect class="cls-7" x="850" y="190" width="215" height="5"/><rect class="cls-9" x="835" y="195" width="245" height="5"/><rect class="cls-8" x="830" y="130" width="255" height="5"/><rect class="cls-6" x="955" y="50" width="10" height="75"/><rect class="cls-9" x="960" y="50" width="5" height="75"/><rect class="cls-6" x="935" y="55" width="50" height="30"/><rect class="cls-9" x="935" y="82" width="50" height="3"/><rect class="cls-8" x="955" y="85" width="10" height="5"/><rect class="cls-9" x="980" y="70" width="5" height="15"/><rect class="cls-9" x="980" y="60" width="5" height="5"/><rect class="cls-7" x="940" y="55" width="5" height="5"/><rect class="cls-7" x="950" y="55" width="5" height="5"/><rect class="cls-7" x="935" y="55" width="5" height="15"/><rect class="cls-9" x="950" y="65" width="20" height="10" transform="translate(1030 -890) rotate(90)"/><rect class="cls-9" x="950" y="65" width="20" height="10" transform="translate(1920 140) rotate(180)"/><rect class="cls-12" x="957.5" y="67.5" width="5" height="5"/><rect class="cls-9" x="820" y="125" width="275" height="5"/><rect class="cls-7" x="820" y="120" width="275" height="5"/><rect class="cls-11" x="820" y="120" width="25" height="5"/><rect class="cls-11" x="850" y="120" width="5" height="5"/><rect class="cls-4" x="920" y="185" width="5" height="5"/><rect class="cls-4" x="925" y="180" width="5" height="5"/><rect class="cls-4" x="930" y="175" width="5" height="5"/><rect class="cls-4" x="935" y="170" width="5" height="5"/><rect class="cls-4" x="940" y="165" width="5" height="5"/><rect class="cls-4" x="945" y="160" width="5" height="5"/><rect class="cls-4" x="950" y="155" width="5" height="5"/><rect class="cls-11" x="860" y="120" width="5" height="5"/><polygon class="cls-4" points="950 170 955 170 955 190 935 190 935 185 940 185 940 180 945 180 945 175 950 175 950 170"/><polygon class="cls-14" points="955 160 955 170 950 170 950 175 945 175 945 180 940 180 940 185 935 185 935 190 925 190 925 185 930 185 930 180 935 180 935 175 940 175 940 170 945 170 945 165 950 165 950 160 955 160"/><polygon class="cls-11" points="955 155 955 165 950 165 950 170 945 170 945 175 940 175 940 180 935 180 935 185 930 185 930 190 920 190 920 185 925 185 925 180 930 180 930 175 935 175 935 170 940 170 940 165 945 165 945 160 950 160 950 155 955 155"/><polygon class="cls-14" points="955 145 955 155 950 155 950 160 945 160 945 165 940 165 940 170 935 170 935 175 930 175 930 180 925 180 925 185 920 185 920 190 910 190 910 185 915 185 915 180 920 180 920 175 925 175 925 170 930 170 930 165 935 165 935 160 940 160 940 155 945 155 945 150 950 150 950 145 955 145"/><polygon class="cls-4" points="895 140 895 145 890 145 890 150 885 150 885 155 880 155 880 160 875 160 875 165 870 165 870 170 865 170 865 175 860 175 860 140 895 140"/><polygon class="cls-11" points="895 140 895 145 890 145 890 150 885 150 885 155 880 155 880 160 875 160 875 165 870 165 870 170 865 170 865 175 860 175 860 165 865 165 865 160 870 160 870 155 875 155 875 150 880 150 880 145 885 145 885 140 895 140"/><rect class="cls-1" x="960" y="140" width="95" height="50"/><polygon class="cls-4" points="1050 170 1055 170 1055 190 1035 190 1035 185 1040 185 1040 180 1045 180 1045 175 1050 175 1050 170"/><polygon class="cls-11" points="1055 155 1055 165 1050 165 1050 170 1045 170 1045 175 1040 175 1040 180 1035 180 1035 185 1030 185 1030 190 1020 190 1020 185 1025 185 1025 180 1030 180 1030 175 1035 175 1035 170 1040 170 1040 165 1045 165 1045 160 1050 160 1050 155 1055 155"/><polygon class="cls-14" points="1055 145 1055 155 1050 155 1050 160 1045 160 1045 165 1040 165 1040 170 1035 170 1035 175 1030 175 1030 180 1025 180 1025 185 1020 185 1020 190 1010 190 1010 185 1015 185 1015 180 1020 180 1020 175 1025 175 1025 170 1030 170 1030 165 1035 165 1035 160 1040 160 1040 155 1045 155 1045 150 1050 150 1050 145 1055 145"/><polygon class="cls-4" points="995 140 995 145 990 145 990 150 985 150 985 155 980 155 980 160 975 160 975 165 970 165 970 170 965 170 965 175 960 175 960 140 995 140"/><polygon class="cls-14" points="990 140 990 145 985 145 985 150 980 150 980 155 975 155 975 160 970 160 970 165 965 165 965 170 960 170 960 160 965 160 965 155 970 155 970 150 975 150 975 145 980 145 980 140 990 140"/><polygon class="cls-11" points="995 140 995 145 990 145 990 150 985 150 985 155 980 155 980 160 975 160 975 165 970 165 970 170 965 170 965 175 960 175 960 165 965 165 965 160 970 160 970 155 975 155 975 150 980 150 980 145 985 145 985 140 995 140"/><polygon class="cls-14" points="1000 140 1000 145 995 145 995 150 990 150 990 155 985 155 985 160 980 160 980 165 975 165 975 170 970 170 970 175 965 175 965 180 960 180 960 170 965 170 965 165 970 165 970 160 975 160 975 155 980 155 980 150 985 150 985 145 990 145 990 140 1000 140"/><rect class="cls-8" x="1080" y="130" width="5" height="70"/><rect class="cls-6" x="1055" y="140" width="5" height="50"/><rect class="cls-9" x="1060" y="140" width="5" height="50"/><rect class="cls-9" x="850" y="140" width="5" height="50"/><rect class="cls-9" x="830" y="145" width="5" height="55"/><rect class="cls-9" x="1055" y="185" width="5" height="5"/><rect class="cls-9" x="1075" y="160" width="5" height="5"/><rect class="cls-9" x="840" y="160" width="10" height="5"/><rect class="cls-9" x="835" y="185" width="10" height="5"/><rect class="cls-9" x="835" y="170" width="10" height="5"/><rect class="cls-9" x="835" y="190" width="10" height="5"/><rect class="cls-9" x="845" y="155" width="5" height="5"/><rect class="cls-9" x="835" y="155" width="5" height="5"/><rect class="cls-9" x="845" y="165" width="5" height="5"/><rect class="cls-9" x="840" y="180" width="5" height="5"/><rect class="cls-9" x="835" y="175" width="5" height="5"/><rect class="cls-9" x="845" y="185" width="5" height="10"/><rect class="cls-9" x="845" y="170" width="5" height="20"/><rect class="cls-9" x="1065" y="175" width="10" height="5"/><rect class="cls-9" x="1075" y="180" width="5" height="5"/><rect class="cls-9" x="1075" y="190" width="5" height="5"/><rect class="cls-9" x="1065" y="170" width="5" height="15"/><rect class="cls-9" x="1065" y="185" width="10" height="15"/><rect class="cls-7" x="855" y="140" width="5" height="50"/><rect class="cls-9" x="855" y="185" width="5" height="5"/><rect x="850" y="185" width="5" height="5"/><rect x="1060" y="185" width="5" height="5"/><rect class="cls-6" x="965" y="345" width="5" height="5"/><rect class="cls-6" x="970" y="340" width="10" height="5"/><rect class="cls-6" x="985" y="340" width="15" height="5"/><rect class="cls-6" x="980" y="345" width="5" height="5"/><rect class="cls-6" x="985" y="350" width="5" height="5"/><rect class="cls-6" x="990" y="345" width="5" height="5"/><rect class="cls-6" x="1000" y="345" width="5" height="5"/><rect class="cls-7" x="955" y="355" width="5" height="5"/><rect class="cls-9" x="975" y="335" width="5" height="5"/><rect class="cls-9" x="990" y="330" width="5" height="5"/><rect class="cls-8" x="925" y="330" width="25" height="5"/><rect class="cls-8" x="930" y="335" width="5" height="5"/><rect class="cls-8" x="935" y="340" width="5" height="5"/><rect class="cls-8" x="920" y="335" width="5" height="5"/><rect class="cls-8" x="900" y="340" width="5" height="5"/><rect class="cls-8" x="905" y="335" width="5" height="5"/><rect class="cls-8" x="885" y="340" width="5" height="5"/><rect class="cls-8" x="890" y="335" width="5" height="5"/><rect class="cls-8" x="910" y="340" width="5" height="5"/><rect class="cls-8" x="905" y="345" width="5" height="5"/><rect class="cls-8" x="895" y="345" width="5" height="5"/><rect class="cls-8" x="895" y="335" width="5" height="5"/><rect class="cls-8" x="840" y="330" width="10" height="5"/><rect class="cls-8" x="875" y="335" width="10" height="5"/><rect class="cls-8" x="865" y="330" width="30" height="5"/><rect class="cls-8" x="900" y="330" width="20" height="5"/><rect class="cls-9" x="990" y="340" width="5" height="5"/><rect class="cls-9" x="985" y="335" width="5" height="5"/><rect class="cls-7" x="945" y="350" width="5" height="5"/><rect class="cls-9" x="925" y="345" width="5" height="5"/><rect class="cls-9" x="900" y="355" width="5" height="5"/><rect class="cls-9" x="915" y="360" width="5" height="5"/><rect class="cls-9" x="885" y="350" width="5" height="5"/><rect class="cls-9" x="890" y="355" width="5" height="5"/><rect class="cls-9" x="861" y="345" width="5" height="5"/><rect class="cls-9" x="930" y="350" width="5" height="5"/><rect class="cls-9" x="950" y="345" width="5" height="5"/><rect class="cls-9" x="955" y="340" width="5" height="5"/><rect class="cls-9" x="935" y="355" width="5" height="5"/><rect class="cls-9" x="935" y="345" width="10" height="5"/><rect class="cls-9" x="870" y="345" width="10" height="5"/><rect class="cls-7" x="920" y="350" width="5" height="5"/><rect class="cls-7" x="920" y="365" width="5" height="5"/><rect class="cls-7" x="930" y="365" width="5" height="5"/><rect class="cls-6" x="960" y="375" width="5" height="5"/><rect class="cls-6" x="950" y="380" width="5" height="5"/><rect class="cls-6" x="965" y="380" width="5" height="5"/><rect class="cls-6" x="975" y="375" width="5" height="5"/><rect class="cls-6" x="945" y="375" width="5" height="5"/><rect class="cls-6" x="930" y="375" width="5" height="5"/></g><g id="Layer_5" data-name="Layer 5"><rect class="cls-1" x="775" y="465" width="65" height="5"/><rect class="cls-1" x="765" y="470" width="30" height="5"/><rect class="cls-1" x="795" y="470" width="55" height="5"/><rect class="cls-1" x="785" y="475" width="70" height="5"/><rect class="cls-1" x="805" y="480" width="55" height="5"/><rect class="cls-1" x="845" y="485" width="25" height="5"/><rect class="cls-1" x="845" y="490" width="30" height="5"/><rect class="cls-1" x="835" y="495" width="45" height="5"/><rect class="cls-1" x="845" y="500" width="40" height="10"/><polygon class="cls-1" points="905 510 905 530 845 530 845 525 840 525 840 510 905 510"/><rect class="cls-1" x="855" y="520" width="37" height="20"/><rect class="cls-1" x="865" y="530" width="35" height="20"/><rect class="cls-1" x="875" y="540" width="30" height="20"/><rect class="cls-1" x="800" y="460" width="30" height="5"/><rect class="cls-1" x="765" y="470" width="5" height="15"/><rect class="cls-1" x="760" y="475" width="5" height="5"/><rect class="cls-1" x="770" y="475" width="5" height="5"/><rect class="cls-1" x="775" y="460" width="5" height="5"/><rect class="cls-1" x="815" y="450" width="5" height="5"/><rect class="cls-1" x="805" y="475" width="5" height="5"/><rect class="cls-1" x="805" y="445" width="5" height="5"/><rect class="cls-1" x="825" y="445" width="5" height="5"/><rect class="cls-1" x="835" y="490" width="5" height="5"/><rect class="cls-1" x="825" y="495" width="5" height="5"/><rect class="cls-4" x="845" y="485" width="5" height="5"/><rect class="cls-4" x="850" y="490" width="5" height="5"/><rect class="cls-4" x="850" y="510" width="5" height="5"/><rect class="cls-4" x="865" y="535" width="5" height="5"/><rect class="cls-4" x="825" y="490" width="5" height="5"/><rect class="cls-4" x="815" y="495" width="5" height="5"/><rect class="cls-4" x="770" y="470" width="5" height="5"/><rect class="cls-4" x="870" y="520" width="10" height="10"/><rect class="cls-4" x="875" y="530" width="10" height="10"/><rect class="cls-4" x="850" y="500" width="15" height="5"/><rect class="cls-4" x="860" y="503" width="15" height="17"/><rect class="cls-4" x="825" y="475" width="15" height="5"/><rect class="cls-4" x="815" y="480" width="5" height="5"/><rect class="cls-4" x="820" y="465" width="5" height="5"/><rect class="cls-4" x="800" y="460" width="20" height="5"/><rect class="cls-4" x="785" y="465" width="20" height="5"/><rect class="cls-4" x="815" y="470" width="15" height="5"/><rect class="cls-11" x="830" y="495" width="5" height="5"/><rect class="cls-1" x="840" y="500" width="5" height="5"/><rect class="cls-1" x="845" y="505" width="5" height="5"/><rect class="cls-1" x="820" y="485" width="25" height="5"/><rect class="cls-11" x="780" y="455" width="60" height="5"/><rect class="cls-11" x="765" y="460" width="30" height="5"/><rect class="cls-11" x="820" y="460" width="30" height="5"/><rect class="cls-11" x="825" y="465" width="30" height="5"/><rect class="cls-11" x="830" y="470" width="30" height="5"/><rect class="cls-11" x="845" y="475" width="25" height="5"/><rect class="cls-11" x="845" y="480" width="30" height="5"/><rect class="cls-11" x="850" y="485" width="30" height="5"/><rect class="cls-11" x="855" y="490" width="30" height="10"/><rect class="cls-11" x="870" y="500" width="30" height="10"/><rect class="cls-11" x="865" y="500" width="20" height="10"/><rect class="cls-11" x="800" y="450" width="30" height="5"/><rect class="cls-11" x="765" y="460" width="5" height="15"/><rect class="cls-11" x="760" y="465" width="5" height="5"/><rect class="cls-11" x="770" y="465" width="5" height="5"/><rect class="cls-11" x="775" y="450" width="5" height="5"/><rect class="cls-11" x="815" y="440" width="5" height="5"/><rect class="cls-11" x="870" y="510" width="5" height="5"/><rect class="cls-11" x="880" y="525" width="20" height="5"/><rect class="cls-11" x="895" y="490" width="5" height="5"/><rect class="cls-11" x="885" y="530" width="5" height="15"/><rect class="cls-11" x="890" y="505" width="15" height="55"/><rect class="cls-11" x="890" y="510" width="20" height="50"/><rect class="cls-11" x="805" y="465" width="5" height="5"/><rect class="cls-11" x="790" y="470" width="5" height="5"/><rect class="cls-11" x="815" y="465" width="5" height="5"/><rect class="cls-11" x="805" y="435" width="5" height="5"/><rect class="cls-11" x="825" y="435" width="5" height="5"/><rect class="cls-11" x="835" y="480" width="5" height="5"/><rect class="cls-11" x="885" y="495" width="5" height="5"/><rect class="cls-11" x="875" y="510" width="25" height="15"/><rect class="cls-11" x="825" y="485" width="5" height="5"/><rect class="cls-11" x="840" y="490" width="5" height="5"/><rect class="cls-11" x="830" y="490" width="5" height="5"/><rect class="cls-11" x="845" y="495" width="5" height="5"/><rect class="cls-11" x="840" y="505" width="5" height="5"/><rect class="cls-11" x="855" y="520" width="5" height="5"/><rect class="cls-11" x="860" y="540" width="5" height="5"/><rect class="cls-11" x="910" y="515" width="5" height="5"/><rect class="cls-11" x="920" y="510" width="5" height="5"/><rect class="cls-11" x="915" y="505" width="5" height="5"/><rect class="cls-11" x="885" y="555" width="5" height="5"/><rect class="cls-11" x="880" y="550" width="5" height="5"/><rect class="cls-4" x="890" y="550" width="5" height="5"/><rect class="cls-4" x="880" y="555" width="5" height="5"/><rect class="cls-4" x="885" y="545" width="5" height="5"/><rect class="cls-4" x="880" y="540" width="5" height="5"/><rect class="cls-11" x="845" y="525" width="5" height="5"/><rect class="cls-11" x="830" y="515" width="5" height="5"/><rect class="cls-11" x="840" y="475" width="5" height="5"/><rect class="cls-1" x="855" y="475" width="5" height="5"/><rect class="cls-1" x="880" y="510" width="5" height="5"/><rect class="cls-11" x="840" y="515" width="5" height="5"/><rect class="cls-4" x="890" y="535" width="5" height="5"/><rect class="cls-1" x="1075" y="465" width="65" height="5" transform="translate(2215 935) rotate(-180)"/><rect class="cls-1" x="1120" y="470" width="30" height="5" transform="translate(2270 945) rotate(-180)"/><rect class="cls-1" x="1065" y="470" width="55" height="5" transform="translate(2185 945) rotate(-180)"/><rect class="cls-1" x="1060" y="475" width="70" height="5" transform="translate(2190 955) rotate(-180)"/><rect class="cls-1" x="1055" y="480" width="55" height="5" transform="translate(2165 965) rotate(-180)"/><rect class="cls-1" x="1045" y="485" width="25" height="5" transform="translate(2115 975) rotate(-180)"/><rect class="cls-1" x="1040" y="490" width="30" height="5" transform="translate(2110 985) rotate(-180)"/><rect class="cls-1" x="1035" y="495" width="45" height="5" transform="translate(2115 995) rotate(-180)"/><rect class="cls-1" x="1030" y="500" width="40" height="10" transform="translate(2100 1010) rotate(-180)"/><polygon class="cls-1" points="1010 510 1010 530 1070 530 1070 525 1075 525 1075 510 1010 510"/><rect class="cls-1" x="1023" y="520" width="37" height="20" transform="translate(2083 1060) rotate(-180)"/><rect class="cls-1" x="1015" y="530" width="35" height="20" transform="translate(2065 1080) rotate(-180)"/><rect class="cls-1" x="1010" y="540" width="30" height="20" transform="translate(2050 1100) rotate(-180)"/><rect class="cls-1" x="1085" y="460" width="30" height="5" transform="translate(2200 925) rotate(-180)"/><rect class="cls-1" x="1145" y="470" width="5" height="15" transform="translate(2295 955) rotate(-180)"/><rect class="cls-1" x="1150" y="475" width="5" height="5" transform="translate(2305 955) rotate(-180)"/><rect class="cls-1" x="1140" y="475" width="5" height="5" transform="translate(2285 955) rotate(-180)"/><rect class="cls-1" x="1135" y="460" width="5" height="5" transform="translate(2275 925) rotate(-180)"/><rect class="cls-1" x="1095" y="450" width="5" height="5" transform="translate(2195 905) rotate(-180)"/><rect class="cls-1" x="1105" y="475" width="5" height="5" transform="translate(2215 955) rotate(-180)"/><rect class="cls-1" x="1105" y="445" width="5" height="5" transform="translate(2215 895) rotate(-180)"/><rect class="cls-1" x="1085" y="445" width="5" height="5" transform="translate(2175 895) rotate(-180)"/><rect class="cls-1" x="1075" y="490" width="5" height="5" transform="translate(2155 985) rotate(-180)"/><rect class="cls-1" x="1085" y="495" width="5" height="5" transform="translate(2175 995) rotate(-180)"/><rect class="cls-4" x="1065" y="485" width="5" height="5" transform="translate(2135 975) rotate(-180)"/><rect class="cls-4" x="1060" y="490" width="5" height="5" transform="translate(2125 985) rotate(-180)"/><rect class="cls-4" x="1060" y="510" width="5" height="5" transform="translate(2125 1025) rotate(-180)"/><rect class="cls-4" x="1045" y="535" width="5" height="5" transform="translate(2095 1075) rotate(-180)"/><rect class="cls-4" x="1085" y="490" width="5" height="5" transform="translate(2175 985) rotate(-180)"/><rect class="cls-4" x="1095" y="495" width="5" height="5" transform="translate(2195 995) rotate(-180)"/><rect class="cls-4" x="1140" y="470" width="5" height="5" transform="translate(2285 945) rotate(-180)"/><rect class="cls-4" x="1035" y="520" width="10" height="10" transform="translate(2080 1050) rotate(-180)"/><rect class="cls-4" x="1030" y="530" width="10" height="10" transform="translate(2070 1070) rotate(-180)"/><rect class="cls-4" x="1050" y="500" width="15" height="5" transform="translate(2115 1005) rotate(-180)"/><rect class="cls-4" x="1040" y="503" width="15" height="17" transform="translate(2095 1023) rotate(-180)"/><rect class="cls-4" x="1075" y="475" width="15" height="5" transform="translate(2165 955) rotate(-180)"/><rect class="cls-4" x="1095" y="480" width="5" height="5" transform="translate(2195 965) rotate(-180)"/><rect class="cls-4" x="1090" y="465" width="5" height="5" transform="translate(2185 935) rotate(-180)"/><rect class="cls-4" x="1095" y="460" width="20" height="5" transform="translate(2210 925) rotate(-180)"/><rect class="cls-4" x="1110" y="465" width="20" height="5" transform="translate(2240 935) rotate(-180)"/><rect class="cls-4" x="1085" y="470" width="15" height="5" transform="translate(2185 945) rotate(-180)"/><rect class="cls-11" x="1080" y="495" width="5" height="5" transform="translate(2165 995) rotate(-180)"/><rect class="cls-1" x="1070" y="500" width="5" height="5" transform="translate(2145 1005) rotate(-180)"/><rect class="cls-1" x="1065" y="505" width="5" height="5" transform="translate(2135 1015) rotate(-180)"/><rect class="cls-1" x="1070" y="485" width="25" height="5" transform="translate(2165 975) rotate(-180)"/><rect class="cls-11" x="1075" y="455" width="60" height="5" transform="translate(2210 915) rotate(-180)"/><rect class="cls-11" x="1120" y="460" width="30" height="5" transform="translate(2270 925) rotate(-180)"/><rect class="cls-11" x="1065" y="460" width="30" height="5" transform="translate(2160 925) rotate(-180)"/><rect class="cls-11" x="1060" y="465" width="30" height="5" transform="translate(2150 935) rotate(-180)"/><rect class="cls-11" x="1055" y="470" width="30" height="5" transform="translate(2140 945) rotate(-180)"/><rect class="cls-11" x="1045" y="475" width="25" height="5" transform="translate(2115 955) rotate(-180)"/><rect class="cls-11" x="1040" y="480" width="30" height="5" transform="translate(2110 965) rotate(-180)"/><rect class="cls-11" x="1035" y="485" width="30" height="5" transform="translate(2100 975) rotate(-180)"/><rect class="cls-11" x="1030" y="490" width="30" height="10" transform="translate(2090 990) rotate(-180)"/><rect class="cls-11" x="1015" y="500" width="30" height="10" transform="translate(2060 1010) rotate(-180)"/><rect class="cls-11" x="1030" y="500" width="20" height="10" transform="translate(2080 1010) rotate(-180)"/><rect class="cls-11" x="1085" y="450" width="30" height="5" transform="translate(2200 905) rotate(-180)"/><rect class="cls-11" x="1145" y="460" width="5" height="15" transform="translate(2295 935) rotate(-180)"/><rect class="cls-11" x="1150" y="465" width="5" height="5" transform="translate(2305 935) rotate(-180)"/><rect class="cls-11" x="1140" y="465" width="5" height="5" transform="translate(2285 935) rotate(-180)"/><rect class="cls-11" x="1135" y="450" width="5" height="5" transform="translate(2275 905) rotate(-180)"/><rect class="cls-11" x="1095" y="440" width="5" height="5" transform="translate(2195 885) rotate(-180)"/><rect class="cls-11" x="1040" y="510" width="5" height="5" transform="translate(2085 1025) rotate(-180)"/><rect class="cls-11" x="1015" y="525" width="20" height="5" transform="translate(2050 1055) rotate(-180)"/><rect class="cls-11" x="1015" y="490" width="5" height="5" transform="translate(2035 985) rotate(-180)"/><rect class="cls-11" x="1025" y="530" width="5" height="15" transform="translate(2055 1075) rotate(-180)"/><rect class="cls-11" x="1010" y="505" width="15" height="55" transform="translate(2035 1065) rotate(-180)"/><rect class="cls-11" x="1105" y="465" width="5" height="5" transform="translate(2215 935) rotate(-180)"/><rect class="cls-11" x="1120" y="470" width="5" height="5" transform="translate(2245 945) rotate(-180)"/><rect class="cls-11" x="1095" y="465" width="5" height="5" transform="translate(2195 935) rotate(-180)"/><rect class="cls-11" x="1105" y="435" width="5" height="5" transform="translate(2215 875) rotate(-180)"/><rect class="cls-11" x="1085" y="435" width="5" height="5" transform="translate(2175 875) rotate(-180)"/><rect class="cls-11" x="1075" y="480" width="5" height="5" transform="translate(2155 965) rotate(-180)"/><rect class="cls-11" x="1025" y="495" width="5" height="5" transform="translate(2055 995) rotate(-180)"/><rect class="cls-11" x="1015" y="510" width="25" height="15" transform="translate(2055 1035) rotate(-180)"/><rect class="cls-11" x="1085" y="485" width="5" height="5" transform="translate(2175 975) rotate(-180)"/><rect class="cls-11" x="1070" y="490" width="5" height="5" transform="translate(2145 985) rotate(-180)"/><rect class="cls-11" x="1080" y="490" width="5" height="5" transform="translate(2165 985) rotate(-180)"/><rect class="cls-11" x="1065" y="495" width="5" height="5" transform="translate(2135 995) rotate(-180)"/><rect class="cls-11" x="1070" y="505" width="5" height="5" transform="translate(2145 1015) rotate(-180)"/><rect class="cls-11" x="1055" y="520" width="5" height="5" transform="translate(2115 1045) rotate(-180)"/><rect class="cls-11" x="1050" y="540" width="5" height="5" transform="translate(2105 1085) rotate(-180)"/><rect class="cls-11" x="1025" y="555" width="5" height="5" transform="translate(2055 1115) rotate(-180)"/><rect class="cls-11" x="1030" y="550" width="5" height="5" transform="translate(2065 1105) rotate(-180)"/><rect class="cls-4" x="1020" y="550" width="5" height="5" transform="translate(2045 1105) rotate(-180)"/><rect class="cls-4" x="1030" y="555" width="5" height="5" transform="translate(2065 1115) rotate(-180)"/><rect class="cls-4" x="1025" y="545" width="5" height="5" transform="translate(2055 1095) rotate(-180)"/><rect class="cls-4" x="1030" y="540" width="5" height="5" transform="translate(2065 1085) rotate(-180)"/><rect class="cls-11" x="1065" y="525" width="5" height="5" transform="translate(2135 1055) rotate(-180)"/><rect class="cls-11" x="1080" y="515" width="5" height="5" transform="translate(2165 1035) rotate(-180)"/><rect class="cls-11" x="1070" y="475" width="5" height="5" transform="translate(2145 955) rotate(-180)"/><rect class="cls-1" x="1055" y="475" width="5" height="5" transform="translate(2115 955) rotate(-180)"/><rect class="cls-1" x="1030" y="510" width="5" height="5" transform="translate(2065 1025) rotate(-180)"/><rect class="cls-11" x="1070" y="515" width="5" height="5" transform="translate(2145 1035) rotate(-180)"/><rect class="cls-4" x="1020" y="535" width="5" height="5" transform="translate(2045 1075) rotate(-180)"/><rect class="cls-1" x="825" y="520" width="65" height="5"/><rect class="cls-1" x="815" y="525" width="30" height="5"/><rect class="cls-1" x="845" y="525" width="55" height="5"/><rect class="cls-1" x="835" y="530" width="70" height="5"/><rect class="cls-1" x="855" y="535" width="55" height="5"/><rect class="cls-1" x="895" y="540" width="25" height="5"/><rect class="cls-1" x="895" y="545" width="30" height="5"/><rect class="cls-1" x="885" y="550" width="45" height="5"/><rect class="cls-1" x="895" y="555" width="40" height="10"/><polygon class="cls-1" points="955 565 955 585 895 585 895 580 890 580 890 565 955 565"/><rect class="cls-1" x="905" y="575" width="37" height="20"/><rect class="cls-1" x="915" y="585" width="35" height="20"/><rect class="cls-1" x="925" y="595" width="30" height="20"/><rect class="cls-1" x="850" y="515" width="30" height="5"/><rect class="cls-1" x="815" y="525" width="5" height="15"/><rect class="cls-1" x="810" y="530" width="5" height="5"/><rect class="cls-1" x="820" y="530" width="5" height="5"/><rect class="cls-1" x="825" y="515" width="5" height="5"/><rect class="cls-1" x="865" y="505" width="5" height="5"/><rect class="cls-1" x="855" y="530" width="5" height="5"/><rect class="cls-1" x="855" y="500" width="5" height="5"/><rect class="cls-1" x="875" y="500" width="5" height="5"/><rect class="cls-1" x="885" y="545" width="5" height="5"/><rect class="cls-1" x="875" y="550" width="5" height="5"/><rect class="cls-4" x="895" y="540" width="5" height="5"/><rect class="cls-4" x="900" y="545" width="5" height="5"/><rect class="cls-4" x="900" y="565" width="5" height="5"/><rect class="cls-4" x="915" y="590" width="5" height="5"/><rect class="cls-4" x="875" y="545" width="5" height="5"/><rect class="cls-4" x="865" y="550" width="5" height="5"/><rect class="cls-4" x="820" y="525" width="5" height="5"/><rect class="cls-4" x="920" y="575" width="10" height="10"/><rect class="cls-4" x="925" y="585" width="10" height="10"/><rect class="cls-4" x="900" y="555" width="15" height="5"/><rect class="cls-4" x="910" y="558" width="15" height="17"/><rect class="cls-4" x="875" y="530" width="15" height="5"/><rect class="cls-4" x="865" y="535" width="5" height="5"/><rect class="cls-4" x="870" y="520" width="5" height="5"/><rect class="cls-4" x="850" y="515" width="20" height="5"/><rect class="cls-4" x="835" y="520" width="20" height="5"/><rect class="cls-4" x="865" y="525" width="15" height="5"/><rect class="cls-11" x="880" y="550" width="5" height="5"/><rect class="cls-1" x="890" y="555" width="5" height="5"/><rect class="cls-1" x="895" y="560" width="5" height="5"/><rect class="cls-1" x="870" y="540" width="25" height="5"/><rect class="cls-11" x="830" y="510" width="60" height="5"/><rect class="cls-11" x="815" y="515" width="30" height="5"/><rect class="cls-11" x="870" y="515" width="30" height="5"/><rect class="cls-11" x="875" y="520" width="30" height="5"/><rect class="cls-11" x="880" y="525" width="30" height="5"/><rect class="cls-11" x="895" y="530" width="25" height="5"/><rect class="cls-11" x="895" y="520" width="25" height="10"/><rect class="cls-11" x="895" y="535" width="30" height="5"/><rect class="cls-11" x="900" y="540" width="30" height="5"/><rect class="cls-11" x="905" y="545" width="30" height="10"/><rect class="cls-11" x="920" y="555" width="30" height="10"/><rect class="cls-11" x="915" y="555" width="20" height="10"/><rect class="cls-11" x="850" y="505" width="30" height="5"/><rect class="cls-11" x="815" y="515" width="5" height="15"/><rect class="cls-11" x="810" y="520" width="5" height="5"/><rect class="cls-11" x="820" y="520" width="5" height="5"/><rect class="cls-11" x="825" y="505" width="5" height="5"/><rect class="cls-11" x="865" y="495" width="5" height="5"/><rect class="cls-11" x="920" y="565" width="5" height="5"/><rect class="cls-11" x="930" y="580" width="20" height="5"/><rect class="cls-11" x="945" y="545" width="5" height="5"/><rect class="cls-11" x="935" y="585" width="5" height="15"/><rect class="cls-11" x="940" y="560" width="15" height="55"/><rect class="cls-11" x="855" y="520" width="5" height="5"/><rect class="cls-11" x="840" y="525" width="5" height="5"/><rect class="cls-11" x="865" y="520" width="5" height="5"/><rect class="cls-11" x="855" y="490" width="5" height="5"/><rect class="cls-11" x="875" y="490" width="5" height="5"/><rect class="cls-11" x="885" y="535" width="5" height="5"/><rect class="cls-11" x="935" y="550" width="5" height="5"/><rect class="cls-11" x="925" y="565" width="25" height="15"/><rect class="cls-11" x="875" y="540" width="5" height="5"/><rect class="cls-11" x="890" y="545" width="5" height="5"/><rect class="cls-11" x="880" y="545" width="5" height="5"/><rect class="cls-11" x="895" y="550" width="5" height="5"/><rect class="cls-11" x="890" y="560" width="5" height="5"/><rect class="cls-11" x="905" y="575" width="5" height="5"/><rect class="cls-11" x="910" y="595" width="5" height="5"/><rect class="cls-11" x="935" y="610" width="5" height="5"/><rect class="cls-11" x="930" y="605" width="5" height="5"/><rect class="cls-4" x="940" y="605" width="5" height="5"/><rect class="cls-4" x="930" y="610" width="5" height="5"/><rect class="cls-4" x="935" y="600" width="5" height="5"/><rect class="cls-4" x="930" y="595" width="5" height="5"/><rect class="cls-11" x="895" y="580" width="5" height="5"/><rect class="cls-11" x="880" y="570" width="5" height="5"/><rect class="cls-11" x="890" y="530" width="5" height="5"/><rect class="cls-1" x="905" y="530" width="5" height="5"/><rect class="cls-1" x="930" y="565" width="5" height="5"/><rect class="cls-11" x="890" y="570" width="5" height="5"/><rect class="cls-4" x="940" y="590" width="5" height="5"/><rect class="cls-1" x="1020" y="520" width="65" height="5" transform="translate(2105 1045) rotate(-180)"/><rect class="cls-1" x="1065" y="525" width="30" height="5" transform="translate(2160 1055) rotate(-180)"/><rect class="cls-1" x="1010" y="525" width="55" height="5" transform="translate(2075 1055) rotate(-180)"/><rect class="cls-1" x="1005" y="530" width="70" height="5" transform="translate(2080 1065) rotate(-180)"/><rect class="cls-1" x="1000" y="535" width="55" height="5" transform="translate(2055 1075) rotate(-180)"/><rect class="cls-1" x="990" y="540" width="25" height="5" transform="translate(2005 1085) rotate(-180)"/><rect class="cls-1" x="985" y="545" width="30" height="5" transform="translate(2000 1095) rotate(-180)"/><rect class="cls-1" x="980" y="550" width="45" height="5" transform="translate(2005 1105) rotate(-180)"/><rect class="cls-1" x="975" y="555" width="40" height="10" transform="translate(1990 1120) rotate(-180)"/><polygon class="cls-1" points="955 565 955 585 1015 585 1015 580 1020 580 1020 565 955 565"/><rect class="cls-1" x="968" y="575" width="37" height="20" transform="translate(1973 1170) rotate(-180)"/><rect class="cls-1" x="960" y="585" width="35" height="20" transform="translate(1955 1190) rotate(-180)"/><rect class="cls-1" x="955" y="595" width="30" height="20" transform="translate(1940 1210) rotate(-180)"/><rect class="cls-1" x="1030" y="515" width="30" height="5" transform="translate(2090 1035) rotate(-180)"/><rect class="cls-1" x="1090" y="525" width="5" height="15" transform="translate(2185 1065) rotate(-180)"/><rect class="cls-1" x="1095" y="530" width="5" height="5" transform="translate(2195 1065) rotate(-180)"/><rect class="cls-1" x="1085" y="530" width="5" height="5" transform="translate(2175 1065) rotate(-180)"/><rect class="cls-1" x="1080" y="515" width="5" height="5" transform="translate(2165 1035) rotate(-180)"/><rect class="cls-1" x="1040" y="505" width="5" height="5" transform="translate(2085 1015) rotate(-180)"/><rect class="cls-1" x="1050" y="530" width="5" height="5" transform="translate(2105 1065) rotate(-180)"/><rect class="cls-1" x="1050" y="500" width="5" height="5" transform="translate(2105 1005) rotate(-180)"/><rect class="cls-1" x="1030" y="500" width="5" height="5" transform="translate(2065 1005) rotate(-180)"/><rect class="cls-1" x="1020" y="545" width="5" height="5" transform="translate(2045 1095) rotate(-180)"/><rect class="cls-1" x="1030" y="550" width="5" height="5" transform="translate(2065 1105) rotate(-180)"/><rect class="cls-4" x="1010" y="540" width="5" height="5" transform="translate(2025 1085) rotate(-180)"/><rect class="cls-4" x="1005" y="545" width="5" height="5" transform="translate(2015 1095) rotate(-180)"/><rect class="cls-4" x="1005" y="565" width="5" height="5" transform="translate(2015 1135) rotate(-180)"/><rect class="cls-4" x="990" y="590" width="5" height="5" transform="translate(1985 1185) rotate(-180)"/><rect class="cls-4" x="1030" y="545" width="5" height="5" transform="translate(2065 1095) rotate(-180)"/><rect class="cls-4" x="1040" y="550" width="5" height="5" transform="translate(2085 1105) rotate(-180)"/><rect class="cls-4" x="1085" y="525" width="5" height="5" transform="translate(2175 1055) rotate(-180)"/><rect class="cls-4" x="980" y="575" width="10" height="10" transform="translate(1970 1160) rotate(-180)"/><rect class="cls-4" x="975" y="585" width="10" height="10" transform="translate(1960 1180) rotate(-180)"/><rect class="cls-4" x="995" y="555" width="15" height="5" transform="translate(2005 1115) rotate(-180)"/><rect class="cls-4" x="985" y="558" width="15" height="17" transform="translate(1985 1133) rotate(-180)"/><rect class="cls-4" x="1020" y="530" width="15" height="5" transform="translate(2055 1065) rotate(-180)"/><rect class="cls-4" x="1040" y="535" width="5" height="5" transform="translate(2085 1075) rotate(-180)"/><rect class="cls-4" x="1035" y="520" width="5" height="5" transform="translate(2075 1045) rotate(-180)"/><rect class="cls-4" x="1045" y="520" width="25" height="5" transform="translate(2115 1045) rotate(-180)"/><rect class="cls-4" x="1060" y="525" width="20" height="5" transform="translate(2140 1055) rotate(-180)"/><rect class="cls-4" x="1030" y="525" width="15" height="5" transform="translate(2075 1055) rotate(-180)"/><rect class="cls-11" x="1025" y="550" width="5" height="5" transform="translate(2055 1105) rotate(-180)"/><rect class="cls-1" x="1015" y="555" width="5" height="5" transform="translate(2035 1115) rotate(-180)"/><rect class="cls-1" x="1010" y="560" width="5" height="5" transform="translate(2025 1125) rotate(-180)"/><rect class="cls-1" x="1015" y="540" width="25" height="5" transform="translate(2055 1085) rotate(-180)"/><rect class="cls-11" x="1020" y="510" width="60" height="10" transform="translate(2100 1030) rotate(-180)"/><rect class="cls-11" x="1065" y="515" width="30" height="5" transform="translate(2160 1035) rotate(-180)"/><rect class="cls-11" x="1010" y="515" width="30" height="5" transform="translate(2050 1035) rotate(-180)"/><rect class="cls-11" x="1005" y="520" width="30" height="5" transform="translate(2040 1045) rotate(-180)"/><rect class="cls-11" x="1000" y="525" width="30" height="5" transform="translate(2030 1055) rotate(-180)"/><rect class="cls-11" x="990" y="530" width="25" height="5" transform="translate(2005 1065) rotate(-180)"/><rect class="cls-11" x="985" y="535" width="30" height="5" transform="translate(2000 1075) rotate(-180)"/><rect class="cls-11" x="980" y="540" width="30" height="5" transform="translate(1990 1085) rotate(-180)"/><rect class="cls-11" x="975" y="545" width="30" height="10" transform="translate(1980 1100) rotate(-180)"/><rect class="cls-11" x="960" y="555" width="30" height="10" transform="translate(1950 1120) rotate(-180)"/><rect class="cls-11" x="975" y="555" width="20" height="10" transform="translate(1970 1120) rotate(-180)"/><rect class="cls-11" x="1030" y="505" width="30" height="5" transform="translate(2090 1015) rotate(-180)"/><rect class="cls-11" x="1090" y="515" width="5" height="15" transform="translate(2185 1045) rotate(-180)"/><rect class="cls-11" x="1095" y="520" width="5" height="5" transform="translate(2195 1045) rotate(-180)"/><rect class="cls-11" x="1085" y="520" width="5" height="5" transform="translate(2175 1045) rotate(-180)"/><rect class="cls-11" x="1080" y="505" width="5" height="5" transform="translate(2165 1015) rotate(-180)"/><rect class="cls-11" x="1040" y="495" width="5" height="5" transform="translate(2085 995) rotate(-180)"/><rect class="cls-11" x="985" y="565" width="5" height="5" transform="translate(1975 1135) rotate(-180)"/><rect class="cls-11" x="960" y="580" width="20" height="5" transform="translate(1940 1165) rotate(-180)"/><rect class="cls-11" x="960" y="545" width="5" height="5" transform="translate(1925 1095) rotate(-180)"/><rect class="cls-11" x="970" y="585" width="5" height="15" transform="translate(1945 1185) rotate(-180)"/><rect class="cls-11" x="955" y="560" width="15" height="55" transform="translate(1925 1175) rotate(-180)"/><rect class="cls-11" x="1050" y="520" width="5" height="5" transform="translate(2105 1045) rotate(-180)"/><rect class="cls-11" x="1065" y="525" width="5" height="5" transform="translate(2135 1055) rotate(-180)"/><rect class="cls-11" x="1050" y="530" width="5" height="5" transform="translate(2105 1065) rotate(-180)"/><rect class="cls-4" x="1010" y="519" width="5" height="5" transform="translate(2025 1043) rotate(-180)"/><rect class="cls-4" x="1045" y="555" width="5" height="5" transform="translate(2095 1115) rotate(-180)"/><rect class="cls-4" x="1020" y="560" width="5" height="5" transform="translate(2045 1125) rotate(-180)"/><rect class="cls-11" x="1040" y="520" width="5" height="5" transform="translate(2085 1045) rotate(-180)"/><rect class="cls-11" x="1050" y="490" width="5" height="5" transform="translate(2105 985) rotate(-180)"/><rect class="cls-11" x="1030" y="490" width="5" height="5" transform="translate(2065 985) rotate(-180)"/><rect class="cls-11" x="1020" y="535" width="5" height="5" transform="translate(2045 1075) rotate(-180)"/><rect class="cls-11" x="970" y="550" width="5" height="5" transform="translate(1945 1105) rotate(-180)"/><rect class="cls-11" x="960" y="565" width="25" height="15" transform="translate(1945 1145) rotate(-180)"/><rect class="cls-11" x="1030" y="540" width="5" height="5" transform="translate(2065 1085) rotate(-180)"/><rect class="cls-11" x="1015" y="545" width="5" height="5" transform="translate(2035 1095) rotate(-180)"/><rect class="cls-11" x="1025" y="545" width="5" height="5" transform="translate(2055 1095) rotate(-180)"/><rect class="cls-11" x="1010" y="550" width="5" height="5" transform="translate(2025 1105) rotate(-180)"/><rect class="cls-11" x="1015" y="560" width="5" height="5" transform="translate(2035 1125) rotate(-180)"/><rect class="cls-11" x="1000" y="575" width="5" height="5" transform="translate(2005 1155) rotate(-180)"/><rect class="cls-11" x="995" y="595" width="5" height="5" transform="translate(1995 1195) rotate(-180)"/><rect class="cls-11" x="970" y="610" width="5" height="5" transform="translate(1945 1225) rotate(-180)"/><rect class="cls-11" x="975" y="605" width="5" height="5" transform="translate(1955 1215) rotate(-180)"/><rect class="cls-4" x="965" y="605" width="5" height="5" transform="translate(1935 1215) rotate(-180)"/><rect class="cls-4" x="975" y="610" width="5" height="5" transform="translate(1955 1225) rotate(-180)"/><rect class="cls-4" x="970" y="600" width="5" height="5" transform="translate(1945 1205) rotate(-180)"/><rect class="cls-4" x="975" y="595" width="5" height="5" transform="translate(1955 1195) rotate(-180)"/><rect class="cls-11" x="1010" y="580" width="5" height="5" transform="translate(2025 1165) rotate(-180)"/><rect class="cls-11" x="1025" y="570" width="5" height="5" transform="translate(2055 1145) rotate(-180)"/><rect class="cls-11" x="1015" y="530" width="5" height="5" transform="translate(2035 1065) rotate(-180)"/><rect class="cls-1" x="1000" y="530" width="5" height="5" transform="translate(2005 1065) rotate(-180)"/><rect class="cls-1" x="975" y="565" width="5" height="5" transform="translate(1955 1135) rotate(-180)"/><rect class="cls-11" x="1015" y="570" width="5" height="5" transform="translate(2035 1145) rotate(-180)"/><rect class="cls-4" x="965" y="590" width="5" height="5" transform="translate(1935 1185) rotate(-180)"/></g></g></svg>