<svg xmlns="http://www.w3.org/2000/svg" viewBox="0 0 840 110"><defs><style>.cls-1{fill:#424b75;}.cls-2{fill:#475487;}.cls-3{fill:#566596;}.cls-4{fill:#293052;}.cls-5{fill:#171b33;}.cls-6{fill:#6573a9;}.cls-7{fill:#c0bc5a;}.cls-8{fill:#f9f7e4;}.cls-9{fill:#dbd695;}</style></defs><g id="Layer_2" data-name="Layer 2"><g id="Layer_6" data-name="Layer 6"><polygon class="cls-1" points="200 0 200 110 170 110 170 60 135 60 135 110 105 110 105 0 135 0 135 45 170 45 170 0 200 0"/><polygon class="cls-1" points="515 0 515 95 500 95 500 110 470 110 470 95 440 95 440 110 410 110 410 95 395 95 395 0 425 0 425 80 440 80 440 30 470 30 470 80 485 80 485 0 515 0"/><rect class="cls-2" x="445" y="30" width="25" height="5"/><path class="cls-1" d="M365,15V0H290V110h30V65h45V50h15V15Zm-45,0h30V50H320Z"/><path class="cls-1" d="M610,15V0H545V15H530v95h30V80h35v30h30V15ZM595,65H560V15h35Z"/><polygon class="cls-1" points="260 95 275 95 275 110 215 110 215 95 230 95 230 15 215 15 215 0 275 0 275 15 260 15 260 95"/><path class="cls-1" d="M725,75V60H715V50h15V15H715V0H640V110h30V65h20V75h15v35h30V75ZM670,15h30V50H670Z"/><polygon class="cls-1" points="65 30 65 15 30 15 30 45 80 45 80 60 95 60 95 95 80 95 80 110 15 110 15 95 0 95 0 80 30 80 30 95 65 95 65 60 15 60 15 45 0 45 0 15 15 15 15 0 80 0 80 15 95 15 95 30 65 30"/><rect class="cls-3" x="60" width="20" height="5"/><polygon class="cls-1" points="810 30 810 15 775 15 775 45 825 45 825 60 840 60 840 95 825 95 825 110 760 110 760 95 745 95 745 80 775 80 775 95 810 95 810 60 760 60 760 45 745 45 745 15 760 15 760 0 825 0 825 15 840 15 840 30 810 30"/><rect class="cls-4" x="830" y="25" width="5" height="5"/><rect class="cls-4" x="835" y="20" width="5" height="10"/><polygon class="cls-5" points="80 60 95 60 95 95 80 95 80 110 15 110 15 95 0 95 0 80 30 80 30 95 65 95 65 60 15 60 15 55 80 55 80 60"/><polygon class="cls-5" points="105 55 200 55 200 110 170 110 170 60 135 60 135 110 105 110 105 55"/><polygon class="cls-5" points="260 95 275 95 275 110 215 110 215 95 230 95 230 55 260 55 260 95"/><polygon class="cls-5" points="290 55 365 55 365 65 320 65 320 110 290 110 290 55"/><polygon class="cls-5" points="515 55 515 95 500 95 500 110 470 110 470 95 440 95 440 110 410 110 410 95 395 95 395 55 425 55 425 80 440 80 440 55 470 55 470 80 485 80 485 55 515 55"/><polygon class="cls-5" points="625 55 625 110 595 110 595 80 560 80 560 110 530 110 530 55 560 55 560 65 595 65 595 55 625 55"/><polygon class="cls-5" points="725 75 735 75 735 110 705 110 705 75 690 75 690 65 670 65 670 110 640 110 640 55 715 55 715 60 725 60 725 75"/><polygon class="cls-5" points="840 60 840 95 825 95 825 110 760 110 760 95 745 95 745 80 775 80 775 95 810 95 810 60 760 60 760 55 825 55 825 60 840 60"/><rect class="cls-6" x="15" width="45" height="5"/><rect class="cls-6" y="15" width="15" height="5"/><rect class="cls-6" y="15" width="5" height="10"/><rect class="cls-6" x="15" y="5" width="5" height="5"/><rect class="cls-7" x="17.5" width="2.5" height="2.5"/><rect class="cls-8" x="15" width="2.5" height="2.5"/><rect class="cls-7" x="22.5" width="2.5" height="2.5"/><rect class="cls-9" x="20" width="2.5" height="2.5"/><rect class="cls-9" x="15" y="2.5" width="2.5" height="2.5"/><rect class="cls-7" x="15" y="5" width="2.5" height="2.5"/><rect class="cls-6" x="105" width="30" height="5"/><rect class="cls-6" x="105" y="5" width="5" height="5"/><rect class="cls-6" x="170" width="30" height="5"/><rect class="cls-6" x="170" y="5" width="5" height="5"/><rect class="cls-3" x="80" y="15" width="15" height="5"/><rect class="cls-3" y="30" width="5" height="5"/><rect class="cls-5" x="75" y="50" width="5" height="5"/><rect class="cls-5" x="65" y="50" width="5" height="5"/><rect class="cls-5" x="50" y="50" width="5" height="5"/><rect class="cls-5" x="55" y="45" width="5" height="5"/><rect class="cls-5" x="20" y="50" width="5" height="5"/><rect class="cls-5" x="35" y="50" width="5" height="5"/><rect class="cls-4" x="25" y="55" width="5" height="5"/><rect class="cls-4" x="70" y="60" width="5" height="5"/><rect class="cls-4" x="50" y="55" width="5" height="5"/><rect class="cls-4" x="40" y="55" width="5" height="5"/><rect class="cls-4" x="45" y="45" width="5" height="5"/><rect class="cls-5" x="70" y="45" width="5" height="5"/><rect class="cls-5" x="815" y="50" width="5" height="5"/><rect class="cls-5" x="805" y="50" width="5" height="5"/><rect class="cls-5" x="790" y="50" width="5" height="5"/><rect class="cls-5" x="795" y="45" width="5" height="5"/><rect class="cls-5" x="760" y="50" width="5" height="5"/><rect class="cls-5" x="775" y="50" width="5" height="5"/><rect class="cls-4" x="765" y="55" width="5" height="5"/><rect class="cls-4" x="810" y="60" width="5" height="5"/><rect class="cls-4" x="800" y="50" width="5" height="5"/><rect class="cls-4" x="820" y="25" width="5" height="5"/><rect class="cls-4" x="820" y="45" width="5" height="10"/><rect class="cls-4" x="790" y="55" width="5" height="5"/><rect class="cls-4" x="780" y="55" width="5" height="5"/><rect class="cls-4" x="785" y="45" width="5" height="5"/><rect class="cls-5" x="810" y="45" width="5" height="5"/><rect class="cls-5" x="195" y="40" width="5" height="15"/><rect class="cls-5" x="185" y="50" width="5" height="5"/><rect class="cls-5" x="230" y="50" width="5" height="5"/><rect class="cls-5" x="240" y="45" width="5" height="5"/><rect class="cls-5" x="250" y="41" width="5" height="5"/><rect class="cls-5" x="235" y="50" width="5" height="5"/><rect class="cls-4" x="235" y="55" width="5" height="5"/><rect class="cls-5" x="245" y="50" width="5" height="5"/><rect class="cls-5" x="295" y="45" width="5" height="5"/><rect class="cls-5" x="290" y="50" width="5" height="5"/><rect class="cls-5" x="300" y="50" width="5" height="5"/><rect class="cls-5" x="310" y="50" width="5" height="5"/><rect class="cls-5" x="320" y="50" width="5" height="5"/><rect class="cls-5" x="330" y="50" width="5" height="5"/><rect class="cls-5" x="350" y="50" width="5" height="5"/><rect class="cls-4" x="340" y="55" width="5" height="5"/><rect class="cls-5" x="405" y="50" width="5" height="5"/><rect class="cls-5" x="410" y="45" width="5" height="5"/><rect class="cls-5" x="415" y="50" width="5" height="5"/><rect class="cls-5" x="420" y="45" width="5" height="10"/><rect class="cls-5" x="395" y="50" width="5" height="5"/><rect class="cls-4" x="395" y="55" width="5" height="5"/><rect class="cls-4" x="415" y="55" width="5" height="5"/><rect class="cls-4" x="405" y="55" width="5" height="5"/><rect class="cls-5" x="450" y="50" width="5" height="5"/><rect class="cls-5" x="455" y="45" width="5" height="5"/><rect class="cls-5" x="460" y="50" width="5" height="5"/><rect class="cls-5" x="465" y="45" width="5" height="10"/><rect class="cls-5" x="440" y="50" width="5" height="5"/><rect class="cls-4" x="440" y="55" width="5" height="5"/><rect class="cls-4" x="460" y="55" width="5" height="5"/><rect class="cls-4" x="450" y="55" width="5" height="5"/><rect class="cls-5" x="540" y="50" width="5" height="5"/><rect class="cls-5" x="545" y="45" width="5" height="5"/><rect class="cls-5" x="550" y="50" width="5" height="5"/><rect class="cls-5" x="555" y="45" width="5" height="10"/><rect class="cls-5" x="530" y="50" width="5" height="5"/><rect class="cls-4" x="530" y="55" width="5" height="5"/><rect class="cls-4" x="550" y="55" width="5" height="5"/><rect class="cls-4" x="540" y="55" width="5" height="5"/><rect class="cls-5" x="495" y="50" width="5" height="5"/><rect class="cls-5" x="500" y="45" width="5" height="5"/><rect class="cls-5" x="505" y="40" width="5" height="5"/><rect class="cls-5" x="490" y="45" width="5" height="5"/><rect class="cls-5" x="505" y="50" width="5" height="5"/><rect class="cls-5" x="510" y="45" width="5" height="10"/><rect class="cls-5" x="485" y="50" width="5" height="5"/><rect class="cls-4" x="485" y="55" width="5" height="5"/><rect class="cls-4" x="505" y="55" width="5" height="5"/><rect class="cls-4" x="495" y="55" width="5" height="5"/><rect class="cls-5" x="605" y="50" width="5" height="5"/><rect class="cls-5" x="610" y="45" width="5" height="5"/><rect class="cls-5" x="615" y="40" width="5" height="5"/><rect class="cls-5" x="600" y="45" width="5" height="5"/><rect class="cls-5" x="615" y="50" width="5" height="5"/><rect class="cls-5" x="620" y="45" width="5" height="10"/><rect class="cls-5" x="595" y="50" width="5" height="5"/><rect class="cls-4" x="595" y="55" width="5" height="5"/><rect class="cls-4" x="615" y="55" width="5" height="5"/><rect class="cls-4" x="605" y="55" width="5" height="5"/><rect class="cls-4" x="330" y="55" width="5" height="5"/><rect class="cls-4" x="310" y="55" width="5" height="5"/><rect class="cls-4" x="300" y="55" width="5" height="5"/><rect class="cls-5" x="340" y="50" width="5" height="5"/><rect class="cls-5" x="355" y="45" width="5" height="5"/><rect class="cls-5" x="365" y="45" width="5" height="5"/><rect class="cls-5" x="360" y="50" width="5" height="5"/><rect class="cls-5" x="645" y="45" width="5" height="5"/><rect class="cls-5" x="640" y="50" width="5" height="5"/><rect class="cls-5" x="650" y="50" width="5" height="5"/><rect class="cls-5" x="660" y="50" width="5" height="5"/><rect class="cls-5" x="670" y="50" width="5" height="5"/><rect class="cls-5" x="680" y="50" width="5" height="5"/><rect class="cls-5" x="700" y="50" width="5" height="5"/><rect class="cls-4" x="690" y="55" width="5" height="5"/><rect class="cls-4" x="680" y="55" width="5" height="5"/><rect class="cls-4" x="720" y="45" width="5" height="5"/><rect class="cls-5" x="725" y="35" width="5" height="15"/><rect class="cls-4" x="725" y="40" width="5" height="5"/><rect class="cls-4" x="705" y="50" width="5" height="5"/><rect class="cls-4" x="660" y="55" width="5" height="5"/><rect class="cls-4" x="650" y="55" width="5" height="5"/><rect class="cls-5" x="690" y="50" width="5" height="5"/><rect class="cls-5" x="705" y="45" width="5" height="5"/><rect class="cls-5" x="715" y="45" width="5" height="5"/><rect class="cls-5" x="720" y="40" width="5" height="5"/><rect class="cls-5" x="710" y="50" width="5" height="5"/><rect class="cls-5" x="255" y="45" width="5" height="10"/><rect class="cls-5" x="230" y="15" width="5" height="5"/><rect class="cls-5" x="190" y="45" width="5" height="5"/><rect class="cls-5" x="175" y="50" width="5" height="5"/><rect class="cls-5" x="165" y="50" width="5" height="5"/><rect class="cls-5" x="155" y="50" width="5" height="5"/><rect class="cls-5" x="160" y="45" width="5" height="5"/><rect class="cls-5" x="150" y="45" width="5" height="5"/><rect class="cls-5" x="145" y="50" width="5" height="5"/><rect class="cls-5" x="135" y="50" width="5" height="5"/><rect class="cls-5" x="125" y="50" width="5" height="5"/><rect class="cls-5" x="115" y="50" width="5" height="5"/><rect class="cls-4" x="125" y="55" width="5" height="5"/><rect class="cls-4" x="110" y="60" width="5" height="5"/><rect class="cls-4" x="115" y="55" width="5" height="5"/><rect class="cls-5" x="170" y="45" width="5" height="5"/><rect class="cls-5" x="180" y="45" width="5" height="5"/><rect class="cls-5" x="185" y="40" width="5" height="5"/><rect class="cls-4" x="185" y="55" width="5" height="5"/><rect class="cls-3" x="90" y="20" width="5" height="5"/><rect class="cls-3" x="170" y="10" width="5" height="35"/><rect class="cls-2" x="230" y="20" width="5" height="30"/><rect class="cls-3" x="105" y="10" width="5" height="20"/><rect class="cls-6" x="215" width="30" height="5"/><rect class="cls-6" x="215" y="5" width="5" height="5"/><rect class="cls-6" x="395" width="30" height="5"/><rect class="cls-6" x="395" y="5" width="5" height="5"/><rect class="cls-6" x="545" width="30" height="5"/><rect class="cls-6" x="545" y="5" width="5" height="5"/><rect class="cls-6" x="640" width="30" height="5"/><rect class="cls-6" x="640" y="5" width="5" height="5"/><rect class="cls-6" x="485" width="30" height="5"/><rect class="cls-6" x="485" y="5" width="5" height="5"/><rect class="cls-6" x="395" y="15" width="5" height="5"/><rect class="cls-6" x="440" y="30" width="5" height="5"/><rect class="cls-6" x="530" y="15" width="15" height="5"/><rect class="cls-6" x="450" y="30" width="5" height="5"/><rect class="cls-2" x="485" y="15" width="5" height="5"/><rect class="cls-2" x="545" y="10" width="5" height="10"/><rect class="cls-2" x="215" y="10" width="5" height="5"/><rect class="cls-2" x="290" y="10" width="5" height="5"/><rect class="cls-2" x="290" y="20" width="5" height="5"/><rect class="cls-2" x="250" width="5" height="5"/><rect class="cls-6" x="290" width="30" height="5"/><rect class="cls-6" x="290" y="5" width="5" height="5"/><rect class="cls-2" x="325" width="5" height="5"/><rect class="cls-2" x="370" y="15" width="10" height="5"/><rect class="cls-3" x="105" y="35" width="5" height="5"/><rect class="cls-5" x="65" y="25" width="30" height="5"/><rect class="cls-7" x="107.5" width="2.5" height="2.5"/><rect class="cls-8" x="105" width="2.5" height="2.5"/><rect class="cls-7" x="112.5" width="2.5" height="2.5"/><rect class="cls-9" x="110" width="2.5" height="2.5"/><rect class="cls-9" x="105" y="2.5" width="2.5" height="2.5"/><rect class="cls-7" x="105" y="5" width="2.5" height="2.5"/><rect class="cls-2" x="615" y="15" width="10" height="5"/><rect class="cls-2" x="720" y="15" width="10" height="5"/><rect class="cls-2" x="640" y="15" width="5" height="16"/><rect class="cls-6" x="760" width="45" height="5"/><rect class="cls-6" x="745" y="15" width="15" height="5"/><rect class="cls-6" x="745" y="15" width="5" height="10"/><rect class="cls-6" x="760" y="5" width="5" height="5"/><rect class="cls-3" x="745" y="30" width="5" height="5"/></g></g></svg>