<svg xmlns="http://www.w3.org/2000/svg" viewBox="0 0 1064 325"><defs><style>.cls-1{fill:#eb5b55;}.cls-2{fill:#802710;}.cls-3{fill:#450b16;}.cls-4{fill:#fc9292;}.cls-5{fill:#fff;}.cls-6{fill:#424b75;}.cls-7{fill:#475487;}.cls-8{fill:#566596;}.cls-9{fill:#293052;}.cls-10{fill:#171b33;}.cls-11{fill:#6573a9;}.cls-12{fill:#c0bc5a;}.cls-13{fill:#f9f7e4;}.cls-14{fill:#dbd695;}</style></defs><g id="Layer_2" data-name="Layer 2"><g id="Target"><path class="cls-1" d="M1044,205V190h-5v-5h-5V175h-10V165h-10v-5h-5v-5H994v-5H944v5H929v5h-5v5H914v10H904v10h-5v5h-5v15h-5v50h5v15h5v5h5v10h10v10h10v5h5v5h15v5h50v-5h15v-5h5v-5h10V285h10V275h5v-5h5V255h5V205Zm-10,45h-5v10h-5v5h-5v10h-5v5h-10v5h-5v5H989v5H949v-5H939v-5h-5v-5H924v-5h-5V265h-5v-5h-5V250h-5V210h5V200h5v-5h5V185h5v-5h10v-5h5v-5h10v-5h40v5h10v5h5v5h10v5h5v10h5v5h5v10h5Z"/><rect class="cls-2" x="1034" y="235" width="15" height="2"/><rect class="cls-2" x="1034" y="237" width="15" height="2"/><rect class="cls-2" x="992" y="303" width="2" height="7"/><rect class="cls-3" x="944" y="308" width="50" height="2"/><rect class="cls-2" x="902" y="210" width="2" height="40"/><rect class="cls-2" x="907" y="198" width="2" height="12"/><rect class="cls-2" x="912" y="193" width="2" height="7"/><rect class="cls-2" x="922" y="178" width="2" height="7"/><rect class="cls-2" x="932" y="173" width="2" height="7"/><rect class="cls-2" x="937" y="168" width="2" height="7"/><rect class="cls-2" x="947" y="163" width="2" height="7"/><rect class="cls-2" x="917" y="183" width="2" height="12"/><rect class="cls-2" x="907" y="250" width="2" height="10"/><rect class="cls-2" x="917" y="265" width="2" height="10"/><rect class="cls-2" x="922" y="275" width="2" height="5"/><rect class="cls-2" x="932" y="280" width="2" height="5"/><rect class="cls-2" x="937" y="285" width="2" height="5"/><rect class="cls-2" x="947" y="290" width="2" height="5"/><rect class="cls-2" x="912" y="260" width="2" height="5"/><rect class="cls-2" x="959" y="210" width="2" height="40"/><rect class="cls-2" x="1047" y="205" width="2" height="50"/><rect class="cls-2" x="1042" y="190" width="2" height="15"/><rect class="cls-2" x="1037" y="185" width="2" height="5"/><rect class="cls-2" x="1012" y="160" width="2" height="5"/><rect class="cls-2" x="1007" y="155" width="2" height="5"/><rect class="cls-2" x="992" y="150" width="2" height="5"/><rect class="cls-2" x="1032" y="175" width="2" height="10"/><rect class="cls-2" x="1022" y="165" width="2" height="10"/><rect class="cls-2" x="1042" y="255" width="2" height="15"/><rect class="cls-2" x="1037" y="268" width="2" height="7"/><rect class="cls-2" x="1032" y="273" width="2" height="12"/><rect class="cls-2" x="1022" y="283" width="2" height="12"/><rect class="cls-1" x="964" y="135" width="10" height="50"/><rect class="cls-2" x="972" y="135" width="2" height="48"/><rect class="cls-3" x="964" y="183" width="10" height="2"/><rect class="cls-3" x="967.5" y="156.5" width="15" height="2" transform="translate(1132.5 -817.5) rotate(90)"/><rect class="cls-2" x="955.5" y="156.5" width="15" height="2" transform="translate(1120.5 -805.5) rotate(90)"/><rect class="cls-2" x="969.5" y="156.5" width="15" height="2" transform="translate(1134.5 -819.5) rotate(90)"/><rect class="cls-3" x="974" y="163" width="15" height="2" transform="translate(1963 328) rotate(180)"/><rect class="cls-3" x="947" y="163" width="17" height="2" transform="translate(1911 328) rotate(180)"/><rect class="cls-3" x="989" y="168" width="10" height="2" transform="translate(1988 338) rotate(180)"/><rect class="cls-3" x="1004" y="178" width="10" height="2" transform="translate(2018 358) rotate(180)"/><rect class="cls-3" x="999" y="173" width="5" height="2" transform="translate(2003 348) rotate(180)"/><rect class="cls-3" x="1014" y="183" width="5" height="2" transform="translate(2033 368) rotate(180)"/><rect class="cls-3" x="1019" y="193" width="5" height="2" transform="translate(2043 388) rotate(180)"/><rect class="cls-3" x="1024" y="198" width="5" height="2" transform="translate(2053 398) rotate(180)"/><rect class="cls-3" x="1029" y="208" width="5" height="2" transform="translate(2063 418) rotate(180)"/><rect class="cls-3" x="937" y="168" width="12" height="2"/><rect class="cls-3" x="922" y="178" width="12" height="2"/><rect class="cls-3" x="932" y="173" width="7" height="2"/><rect class="cls-3" x="919" y="183" width="5" height="2"/><rect class="cls-3" x="912" y="193" width="7" height="2"/><rect class="cls-3" x="907" y="198" width="7" height="2"/><rect class="cls-3" x="902" y="208" width="7" height="2"/><rect class="cls-1" x="1034" y="205" width="10" height="50" transform="translate(1269 -809) rotate(90)"/><rect class="cls-2" x="1062" y="225" width="2" height="10"/><rect class="cls-3" x="1038" y="209" width="2" height="50" transform="translate(805 1273) rotate(-90)"/><rect class="cls-1" x="963" y="275" width="10" height="50" transform="translate(1936 600) rotate(-180)"/><rect class="cls-2" x="971" y="275" width="2" height="48"/><rect class="cls-1" x="894" y="205" width="10" height="50" transform="translate(669 1129) rotate(-90)"/><rect class="cls-4" x="874" y="225" width="5" height="2"/><rect class="cls-4" x="889" y="205" width="5" height="2"/><rect class="cls-4" x="894" y="190" width="5" height="2"/><rect class="cls-4" x="899" y="185" width="5" height="2"/><rect class="cls-4" x="909" y="175" width="5" height="2"/><rect class="cls-4" x="916" y="165" width="8" height="2"/><rect class="cls-4" x="926" y="160" width="3" height="2"/><rect class="cls-5" x="924" y="160" width="2" height="2"/><rect class="cls-4" x="931" y="155" width="6" height="2"/><rect class="cls-4" x="948" y="150" width="9" height="2"/><rect class="cls-5" x="929" y="155" width="2" height="2"/><rect class="cls-4" x="966" y="135" width="6" height="2"/><rect class="cls-4" x="962" y="141" width="6" height="2" transform="translate(1107 -823) rotate(90)"/><rect class="cls-5" x="964" y="135" width="2" height="2"/><rect class="cls-5" x="944" y="150" width="2" height="2"/><rect class="cls-4" x="939" y="155" width="2" height="2"/><rect class="cls-5" x="874" y="225" width="2" height="2"/><rect class="cls-5" x="899" y="185" width="2" height="2"/><rect class="cls-5" x="904" y="175" width="2" height="2"/><rect class="cls-5" x="914" y="165" width="2" height="2"/><rect class="cls-5" x="918" y="165" width="2" height="2"/><rect class="cls-4" x="914" y="169" width="2" height="2"/><rect class="cls-4" x="904" y="177" width="2" height="2"/><rect class="cls-4" x="894" y="194" width="2" height="4"/><rect class="cls-4" x="889" y="209" width="2" height="4"/><rect class="cls-4" x="889" y="215" width="2" height="2"/><rect class="cls-4" x="874" y="229" width="2" height="2"/><rect class="cls-2" x="922" y="225" width="2" height="10"/><rect class="cls-3" x="898" y="209" width="2" height="50" transform="translate(665 1133) rotate(-90)"/><rect class="cls-2" x="894.5" y="229.5" width="2" height="13" transform="translate(659.5 1131.5) rotate(-90)"/><rect class="cls-2" x="894.5" y="217.5" width="2" height="13" transform="translate(671.5 1119.5) rotate(-90)"/><rect class="cls-2" x="894.5" y="231.5" width="2" height="13" transform="translate(657.5 1133.5) rotate(-90)"/><rect class="cls-3" x="902" y="235" width="2" height="2" transform="translate(667 1139) rotate(-90)"/><rect class="cls-3" x="902" y="237" width="2" height="2" transform="translate(665 1141) rotate(-90)"/><polygon class="cls-1" points="989 220 989 240 984 240 984 245 979 245 979 250 959 250 959 245 954 245 954 240 949 240 949 220 954 220 954 215 959 215 959 210 979 210 979 215 984 215 984 220 989 220"/><rect class="cls-3" x="1042" y="253" width="7" height="2"/><rect class="cls-3" x="1047" y="235" width="2" height="4"/><rect class="cls-3" x="1039" y="268" width="5" height="2"/><rect class="cls-3" x="1034" y="273" width="5" height="2"/><rect class="cls-3" x="1024" y="283" width="10" height="2"/><rect class="cls-3" x="1014" y="293" width="10" height="2"/><rect class="cls-2" x="1012" y="293" width="2" height="7"/><rect class="cls-3" x="1009" y="298" width="5" height="2"/><rect class="cls-3" x="963" y="323" width="10" height="2"/><rect class="cls-3" x="966.5" y="301.5" width="15" height="2" transform="translate(1276.5 -671.5) rotate(90)"/><rect class="cls-2" x="969.5" y="300.5" width="13" height="2" transform="translate(1277.5 -674.5) rotate(90)"/><rect class="cls-2" x="955.5" y="300.5" width="13" height="2" transform="translate(1263.5 -660.5) rotate(90)"/><rect class="cls-2" x="1007" y="298" width="2" height="7"/><rect class="cls-3" x="994" y="303" width="15" height="2"/><rect class="cls-2" x="974.5" y="245.5" width="7" height="2" transform="translate(1224.5 -731.5) rotate(90)"/><rect class="cls-2" x="979.5" y="240.5" width="7" height="2" transform="translate(1224.5 -741.5) rotate(90)"/><rect class="cls-2" x="980.5" y="216.5" width="5" height="2" transform="translate(1200.5 -765.5) rotate(90)"/><rect class="cls-2" x="975.5" y="211.5" width="5" height="2" transform="translate(1190.5 -765.5) rotate(90)"/><rect class="cls-2" x="978" y="229" width="20" height="2" transform="translate(1218 -758) rotate(90)"/><rect class="cls-2" x="1034" y="223" width="15" height="2"/><rect class="cls-3" x="959" y="248" width="20" height="2"/><rect class="cls-4" x="954" y="215" width="5" height="2"/><rect class="cls-4" x="963" y="210" width="5" height="2"/><rect class="cls-4" x="947.5" y="225.5" width="5" height="2" transform="translate(1176.5 -723.5) rotate(90)"/><rect class="cls-5" x="959" y="210" width="2" height="2"/><rect class="cls-5" x="954" y="215" width="2" height="2"/><rect class="cls-4" x="949" y="220" width="5" height="2"/><rect class="cls-3" x="977" y="243" width="7" height="2"/><rect class="cls-5" x="949" y="220" width="2" height="2"/><rect class="cls-3" x="982" y="238" width="7" height="2"/><path class="cls-1" d="M170,70V55h-5V50h-5V40H150V30H140V25h-5V20H120V15H70v5H55v5H50v5H40V40H30V50H25v5H20V70H15v50h5v15h5v5h5v10H40v10H50v5h5v5H70v5h50v-5h15v-5h5v-5h10V150h10V140h5v-5h5V120h5V70Zm-10,45h-5v10h-5v5h-5v10h-5v5H130v5h-5v5H115v5H75v-5H65v-5H60v-5H50v-5H45V130H40v-5H35V115H30V75h5V65h5V60h5V50h5V45H60V40h5V35H75V30h40v5h10v5h5v5h10v5h5V60h5v5h5V75h5Z"/><rect class="cls-2" x="160" y="100" width="15" height="2"/><rect class="cls-2" x="160" y="102" width="15" height="2"/><rect class="cls-2" x="118" y="168" width="2" height="7"/><rect class="cls-3" x="70" y="173" width="50" height="2"/><rect class="cls-2" x="28" y="75" width="2" height="40"/><rect class="cls-2" x="33" y="63" width="2" height="12"/><rect class="cls-2" x="38" y="58" width="2" height="7"/><rect class="cls-2" x="48" y="43" width="2" height="7"/><rect class="cls-2" x="58" y="38" width="2" height="7"/><rect class="cls-2" x="63" y="33" width="2" height="7"/><rect class="cls-2" x="73" y="28" width="2" height="7"/><rect class="cls-2" x="43" y="48" width="2" height="12"/><rect class="cls-2" x="33" y="115" width="2" height="10"/><rect class="cls-2" x="43" y="130" width="2" height="10"/><rect class="cls-2" x="48" y="140" width="2" height="5"/><rect class="cls-2" x="58" y="145" width="2" height="5"/><rect class="cls-2" x="63" y="150" width="2" height="5"/><rect class="cls-2" x="73" y="155" width="2" height="5"/><rect class="cls-2" x="38" y="125" width="2" height="5"/><rect class="cls-2" x="85" y="75" width="2" height="40"/><rect class="cls-2" x="173" y="70" width="2" height="50"/><rect class="cls-2" x="168" y="55" width="2" height="15"/><rect class="cls-2" x="163" y="50" width="2" height="5"/><rect class="cls-2" x="138" y="25" width="2" height="5"/><rect class="cls-2" x="133" y="20" width="2" height="5"/><rect class="cls-2" x="118" y="15" width="2" height="5"/><rect class="cls-2" x="158" y="40" width="2" height="10"/><rect class="cls-2" x="148" y="30" width="2" height="10"/><rect class="cls-2" x="168" y="120" width="2" height="15"/><rect class="cls-2" x="163" y="133" width="2" height="7"/><rect class="cls-2" x="158" y="138" width="2" height="12"/><rect class="cls-2" x="148" y="148" width="2" height="12"/><rect class="cls-1" x="90" width="10" height="50"/><rect class="cls-2" x="98" width="2" height="48"/><rect class="cls-3" x="90" y="48" width="10" height="2"/><rect class="cls-3" x="93.5" y="21.5" width="15" height="2" transform="translate(123.5 -78.5) rotate(90)"/><rect class="cls-2" x="81.5" y="21.5" width="15" height="2" transform="translate(111.5 -66.5) rotate(90)"/><rect class="cls-2" x="95.5" y="21.5" width="15" height="2" transform="translate(125.5 -80.5) rotate(90)"/><rect class="cls-3" x="100" y="28" width="15" height="2" transform="translate(215 58) rotate(180)"/><rect class="cls-3" x="73" y="28" width="17" height="2" transform="translate(163 58) rotate(180)"/><rect class="cls-3" x="115" y="33" width="10" height="2" transform="translate(240 68) rotate(180)"/><rect class="cls-3" x="130" y="43" width="10" height="2" transform="translate(270 88) rotate(180)"/><rect class="cls-3" x="125" y="38" width="5" height="2" transform="translate(255 78) rotate(180)"/><rect class="cls-3" x="140" y="48" width="5" height="2" transform="translate(285 98) rotate(180)"/><rect class="cls-3" x="145" y="58" width="5" height="2" transform="translate(295 118) rotate(180)"/><rect class="cls-3" x="150" y="63" width="5" height="2" transform="translate(305 128) rotate(180)"/><rect class="cls-3" x="155" y="73" width="5" height="2" transform="translate(315 148) rotate(180)"/><rect class="cls-3" x="63" y="33" width="12" height="2"/><rect class="cls-3" x="48" y="43" width="12" height="2"/><rect class="cls-3" x="58" y="38" width="7" height="2"/><rect class="cls-3" x="45" y="48" width="5" height="2"/><rect class="cls-3" x="38" y="58" width="7" height="2"/><rect class="cls-3" x="33" y="63" width="7" height="2"/><rect class="cls-3" x="28" y="73" width="7" height="2"/><rect class="cls-1" x="160" y="70" width="10" height="50" transform="translate(260 -70) rotate(90)"/><rect class="cls-2" x="188" y="90" width="2" height="10"/><rect class="cls-3" x="164" y="74" width="2" height="50" transform="translate(66 264) rotate(-90)"/><rect class="cls-1" x="89" y="140" width="10" height="50" transform="translate(188 330) rotate(-180)"/><rect class="cls-2" x="97" y="140" width="2" height="48"/><rect class="cls-1" x="20" y="70" width="10" height="50" transform="translate(-70 120) rotate(-90)"/><rect class="cls-4" y="90" width="5" height="2"/><rect class="cls-4" x="15" y="70" width="5" height="2"/><rect class="cls-4" x="20" y="55" width="5" height="2"/><rect class="cls-4" x="25" y="50" width="5" height="2"/><rect class="cls-4" x="35" y="40" width="5" height="2"/><rect class="cls-4" x="42" y="30" width="8" height="2"/><rect class="cls-4" x="52" y="25" width="3" height="2"/><rect class="cls-5" x="50" y="25" width="2" height="2"/><rect class="cls-4" x="57" y="20" width="6" height="2"/><rect class="cls-4" x="74" y="15" width="9" height="2"/><rect class="cls-5" x="55" y="20" width="2" height="2"/><rect class="cls-4" x="92" width="6" height="2"/><rect class="cls-4" x="88" y="6" width="6" height="2" transform="translate(98 -84) rotate(90)"/><rect class="cls-5" x="90" width="2" height="2"/><rect class="cls-5" x="70" y="15" width="2" height="2"/><rect class="cls-4" x="65" y="20" width="2" height="2"/><rect class="cls-5" y="90" width="2" height="2"/><rect class="cls-5" x="25" y="50" width="2" height="2"/><rect class="cls-5" x="30" y="40" width="2" height="2"/><rect class="cls-5" x="40" y="30" width="2" height="2"/><rect class="cls-5" x="44" y="30" width="2" height="2"/><rect class="cls-4" x="40" y="34" width="2" height="2"/><rect class="cls-4" x="30" y="42" width="2" height="2"/><rect class="cls-4" x="20" y="59" width="2" height="4"/><rect class="cls-4" x="15" y="74" width="2" height="4"/><rect class="cls-4" x="15" y="80" width="2" height="2"/><rect class="cls-4" y="94" width="2" height="2"/><rect class="cls-2" x="48" y="90" width="2" height="10"/><rect class="cls-3" x="24" y="74" width="2" height="50" transform="translate(-74 124) rotate(-90)"/><rect class="cls-2" x="20.5" y="94.5" width="2" height="13" transform="translate(-79.5 122.5) rotate(-90)"/><rect class="cls-2" x="20.5" y="82.5" width="2" height="13" transform="translate(-67.5 110.5) rotate(-90)"/><rect class="cls-2" x="20.5" y="96.5" width="2" height="13" transform="translate(-81.5 124.5) rotate(-90)"/><rect class="cls-3" x="28" y="100" width="2" height="2" transform="translate(-72 130) rotate(-90)"/><rect class="cls-3" x="28" y="102" width="2" height="2" transform="translate(-74 132) rotate(-90)"/><polygon class="cls-1" points="115 85 115 105 110 105 110 110 105 110 105 115 85 115 85 110 80 110 80 105 75 105 75 85 80 85 80 80 85 80 85 75 105 75 105 80 110 80 110 85 115 85"/><rect class="cls-3" x="168" y="118" width="7" height="2"/><rect class="cls-3" x="173" y="100" width="2" height="4"/><rect class="cls-3" x="165" y="133" width="5" height="2"/><rect class="cls-3" x="160" y="138" width="5" height="2"/><rect class="cls-3" x="150" y="148" width="10" height="2"/><rect class="cls-3" x="140" y="158" width="10" height="2"/><rect class="cls-2" x="138" y="158" width="2" height="7"/><rect class="cls-3" x="135" y="163" width="5" height="2"/><rect class="cls-3" x="89" y="188" width="10" height="2"/><rect class="cls-3" x="92.5" y="166.5" width="15" height="2" transform="translate(267.5 67.5) rotate(90)"/><rect class="cls-2" x="95.5" y="165.5" width="13" height="2" transform="translate(268.5 64.5) rotate(90)"/><rect class="cls-2" x="81.5" y="165.5" width="13" height="2" transform="translate(254.5 78.5) rotate(90)"/><rect class="cls-2" x="133" y="163" width="2" height="7"/><rect class="cls-3" x="120" y="168" width="15" height="2"/><rect class="cls-2" x="100.5" y="110.5" width="7" height="2" transform="translate(215.5 7.5) rotate(90)"/><rect class="cls-2" x="105.5" y="105.5" width="7" height="2" transform="translate(215.5 -2.5) rotate(90)"/><rect class="cls-2" x="106.5" y="81.5" width="5" height="2" transform="translate(191.5 -26.5) rotate(90)"/><rect class="cls-2" x="101.5" y="76.5" width="5" height="2" transform="translate(181.5 -26.5) rotate(90)"/><rect class="cls-2" x="104" y="94" width="20" height="2" transform="translate(209 -19) rotate(90)"/><rect class="cls-2" x="160" y="88" width="15" height="2"/><rect class="cls-3" x="85" y="113" width="20" height="2"/><rect class="cls-4" x="80" y="80" width="5" height="2"/><rect class="cls-4" x="89" y="75" width="5" height="2"/><rect class="cls-4" x="73.5" y="90.5" width="5" height="2" transform="translate(167.5 15.5) rotate(90)"/><rect class="cls-5" x="85" y="75" width="2" height="2"/><rect class="cls-5" x="80" y="80" width="2" height="2"/><rect class="cls-4" x="75" y="85" width="5" height="2"/><rect class="cls-3" x="103" y="108" width="7" height="2"/><rect class="cls-5" x="75" y="85" width="2" height="2"/><rect class="cls-3" x="108" y="103" width="7" height="2"/></g><g id="Layer_6" data-name="Layer 6"><polygon class="cls-6" points="309 110 309 220 279 220 279 170 244 170 244 220 214 220 214 110 244 110 244 155 279 155 279 110 309 110"/><polygon class="cls-6" points="624 110 624 205 609 205 609 220 579 220 579 205 549 205 549 220 519 220 519 205 504 205 504 110 534 110 534 190 549 190 549 140 579 140 579 190 594 190 594 110 624 110"/><rect class="cls-7" x="554" y="140" width="25" height="5"/><path class="cls-6" d="M474,125V110H399V220h30V175h45V160h15V125Zm-45,0h30v35H429Z"/><path class="cls-6" d="M719,125V110H654v15H639v95h30V190h35v30h30V125Zm-15,50H669V125h35Z"/><polygon class="cls-6" points="369 205 384 205 384 220 324 220 324 205 339 205 339 125 324 125 324 110 384 110 384 125 369 125 369 205"/><path class="cls-6" d="M834,185V170H824V160h15V125H824V110H749V220h30V175h20v10h15v35h30V185Zm-55-60h30v35H779Z"/><polygon class="cls-6" points="174 140 174 125 139 125 139 155 189 155 189 170 204 170 204 205 189 205 189 220 124 220 124 205 109 205 109 190 139 190 139 205 174 205 174 170 124 170 124 155 109 155 109 125 124 125 124 110 189 110 189 125 204 125 204 140 174 140"/><rect class="cls-8" x="169" y="110" width="20" height="5"/><polygon class="cls-6" points="919 140 919 125 884 125 884 155 934 155 934 170 949 170 949 205 934 205 934 220 869 220 869 205 854 205 854 190 884 190 884 205 919 205 919 170 869 170 869 155 854 155 854 125 869 125 869 110 934 110 934 125 949 125 949 140 919 140"/><rect class="cls-9" x="939" y="135" width="5" height="5"/><rect class="cls-9" x="944" y="130" width="5" height="10"/><polygon class="cls-10" points="189 170 204 170 204 205 189 205 189 220 124 220 124 205 109 205 109 190 139 190 139 205 174 205 174 170 124 170 124 165 189 165 189 170"/><polygon class="cls-10" points="214 165 309 165 309 220 279 220 279 170 244 170 244 220 214 220 214 165"/><polygon class="cls-10" points="369 205 384 205 384 220 324 220 324 205 339 205 339 165 369 165 369 205"/><polygon class="cls-10" points="399 165 474 165 474 175 429 175 429 220 399 220 399 165"/><polygon class="cls-10" points="624 165 624 205 609 205 609 220 579 220 579 205 549 205 549 220 519 220 519 205 504 205 504 165 534 165 534 190 549 190 549 165 579 165 579 190 594 190 594 165 624 165"/><polygon class="cls-10" points="734 165 734 220 704 220 704 190 669 190 669 220 639 220 639 165 669 165 669 175 704 175 704 165 734 165"/><polygon class="cls-10" points="834 185 844 185 844 220 814 220 814 185 799 185 799 175 779 175 779 220 749 220 749 165 824 165 824 170 834 170 834 185"/><polygon class="cls-10" points="949 170 949 205 934 205 934 220 869 220 869 205 854 205 854 190 884 190 884 205 919 205 919 170 869 170 869 165 934 165 934 170 949 170"/><rect class="cls-11" x="124" y="110" width="45" height="5"/><rect class="cls-11" x="109" y="125" width="15" height="5"/><rect class="cls-11" x="109" y="125" width="5" height="10"/><rect class="cls-11" x="124" y="115" width="5" height="5"/><rect class="cls-12" x="126.5" y="110" width="2.5" height="2.5"/><rect class="cls-13" x="124" y="110" width="2.5" height="2.5"/><rect class="cls-12" x="131.5" y="110" width="2.5" height="2.5"/><rect class="cls-14" x="129" y="110" width="2.5" height="2.5"/><rect class="cls-14" x="124" y="112.5" width="2.5" height="2.5"/><rect class="cls-12" x="124" y="115" width="2.5" height="2.5"/><rect class="cls-11" x="214" y="110" width="30" height="5"/><rect class="cls-11" x="214" y="115" width="5" height="5"/><rect class="cls-11" x="279" y="110" width="30" height="5"/><rect class="cls-11" x="279" y="115" width="5" height="5"/><rect class="cls-8" x="189" y="125" width="15" height="5"/><rect class="cls-8" x="109" y="140" width="5" height="5"/><rect class="cls-10" x="184" y="160" width="5" height="5"/><rect class="cls-10" x="174" y="160" width="5" height="5"/><rect class="cls-10" x="159" y="160" width="5" height="5"/><rect class="cls-10" x="164" y="155" width="5" height="5"/><rect class="cls-10" x="129" y="160" width="5" height="5"/><rect class="cls-10" x="144" y="160" width="5" height="5"/><rect class="cls-9" x="134" y="165" width="5" height="5"/><rect class="cls-9" x="179" y="170" width="5" height="5"/><rect class="cls-9" x="159" y="165" width="5" height="5"/><rect class="cls-9" x="149" y="165" width="5" height="5"/><rect class="cls-9" x="154" y="155" width="5" height="5"/><rect class="cls-10" x="179" y="155" width="5" height="5"/><rect class="cls-10" x="924" y="160" width="5" height="5"/><rect class="cls-10" x="914" y="160" width="5" height="5"/><rect class="cls-10" x="899" y="160" width="5" height="5"/><rect class="cls-10" x="904" y="155" width="5" height="5"/><rect class="cls-10" x="869" y="160" width="5" height="5"/><rect class="cls-10" x="884" y="160" width="5" height="5"/><rect class="cls-9" x="874" y="165" width="5" height="5"/><rect class="cls-9" x="919" y="170" width="5" height="5"/><rect class="cls-9" x="909" y="160" width="5" height="5"/><rect class="cls-9" x="929" y="135" width="5" height="5"/><rect class="cls-9" x="929" y="155" width="5" height="10"/><rect class="cls-9" x="899" y="165" width="5" height="5"/><rect class="cls-9" x="889" y="165" width="5" height="5"/><rect class="cls-9" x="894" y="155" width="5" height="5"/><rect class="cls-10" x="919" y="155" width="5" height="5"/><rect class="cls-10" x="304" y="150" width="5" height="15"/><rect class="cls-10" x="294" y="160" width="5" height="5"/><rect class="cls-10" x="339" y="160" width="5" height="5"/><rect class="cls-10" x="349" y="155" width="5" height="5"/><rect class="cls-10" x="359" y="151" width="5" height="5"/><rect class="cls-10" x="344" y="160" width="5" height="5"/><rect class="cls-9" x="344" y="165" width="5" height="5"/><rect class="cls-10" x="354" y="160" width="5" height="5"/><rect class="cls-10" x="404" y="155" width="5" height="5"/><rect class="cls-10" x="399" y="160" width="5" height="5"/><rect class="cls-10" x="409" y="160" width="5" height="5"/><rect class="cls-10" x="419" y="160" width="5" height="5"/><rect class="cls-10" x="429" y="160" width="5" height="5"/><rect class="cls-10" x="439" y="160" width="5" height="5"/><rect class="cls-10" x="459" y="160" width="5" height="5"/><rect class="cls-9" x="449" y="165" width="5" height="5"/><rect class="cls-10" x="514" y="160" width="5" height="5"/><rect class="cls-10" x="519" y="155" width="5" height="5"/><rect class="cls-10" x="524" y="160" width="5" height="5"/><rect class="cls-10" x="529" y="155" width="5" height="10"/><rect class="cls-10" x="504" y="160" width="5" height="5"/><rect class="cls-9" x="504" y="165" width="5" height="5"/><rect class="cls-9" x="524" y="165" width="5" height="5"/><rect class="cls-9" x="514" y="165" width="5" height="5"/><rect class="cls-10" x="559" y="160" width="5" height="5"/><rect class="cls-10" x="564" y="155" width="5" height="5"/><rect class="cls-10" x="569" y="160" width="5" height="5"/><rect class="cls-10" x="574" y="155" width="5" height="10"/><rect class="cls-10" x="549" y="160" width="5" height="5"/><rect class="cls-9" x="549" y="165" width="5" height="5"/><rect class="cls-9" x="569" y="165" width="5" height="5"/><rect class="cls-9" x="559" y="165" width="5" height="5"/><rect class="cls-10" x="649" y="160" width="5" height="5"/><rect class="cls-10" x="654" y="155" width="5" height="5"/><rect class="cls-10" x="659" y="160" width="5" height="5"/><rect class="cls-10" x="664" y="155" width="5" height="10"/><rect class="cls-10" x="639" y="160" width="5" height="5"/><rect class="cls-9" x="639" y="165" width="5" height="5"/><rect class="cls-9" x="659" y="165" width="5" height="5"/><rect class="cls-9" x="649" y="165" width="5" height="5"/><rect class="cls-10" x="604" y="160" width="5" height="5"/><rect class="cls-10" x="609" y="155" width="5" height="5"/><rect class="cls-10" x="614" y="150" width="5" height="5"/><rect class="cls-10" x="599" y="155" width="5" height="5"/><rect class="cls-10" x="614" y="160" width="5" height="5"/><rect class="cls-10" x="619" y="155" width="5" height="10"/><rect class="cls-10" x="594" y="160" width="5" height="5"/><rect class="cls-9" x="594" y="165" width="5" height="5"/><rect class="cls-9" x="614" y="165" width="5" height="5"/><rect class="cls-9" x="604" y="165" width="5" height="5"/><rect class="cls-10" x="714" y="160" width="5" height="5"/><rect class="cls-10" x="719" y="155" width="5" height="5"/><rect class="cls-10" x="724" y="150" width="5" height="5"/><rect class="cls-10" x="709" y="155" width="5" height="5"/><rect class="cls-10" x="724" y="160" width="5" height="5"/><rect class="cls-10" x="729" y="155" width="5" height="10"/><rect class="cls-10" x="704" y="160" width="5" height="5"/><rect class="cls-9" x="704" y="165" width="5" height="5"/><rect class="cls-9" x="724" y="165" width="5" height="5"/><rect class="cls-9" x="714" y="165" width="5" height="5"/><rect class="cls-9" x="439" y="165" width="5" height="5"/><rect class="cls-9" x="419" y="165" width="5" height="5"/><rect class="cls-9" x="409" y="165" width="5" height="5"/><rect class="cls-10" x="449" y="160" width="5" height="5"/><rect class="cls-10" x="464" y="155" width="5" height="5"/><rect class="cls-10" x="474" y="155" width="5" height="5"/><rect class="cls-10" x="469" y="160" width="5" height="5"/><rect class="cls-10" x="754" y="155" width="5" height="5"/><rect class="cls-10" x="749" y="160" width="5" height="5"/><rect class="cls-10" x="759" y="160" width="5" height="5"/><rect class="cls-10" x="769" y="160" width="5" height="5"/><rect class="cls-10" x="779" y="160" width="5" height="5"/><rect class="cls-10" x="789" y="160" width="5" height="5"/><rect class="cls-10" x="809" y="160" width="5" height="5"/><rect class="cls-9" x="799" y="165" width="5" height="5"/><rect class="cls-9" x="789" y="165" width="5" height="5"/><rect class="cls-9" x="829" y="155" width="5" height="5"/><rect class="cls-10" x="834" y="145" width="5" height="15"/><rect class="cls-9" x="834" y="150" width="5" height="5"/><rect class="cls-9" x="814" y="160" width="5" height="5"/><rect class="cls-9" x="769" y="165" width="5" height="5"/><rect class="cls-9" x="759" y="165" width="5" height="5"/><rect class="cls-10" x="799" y="160" width="5" height="5"/><rect class="cls-10" x="814" y="155" width="5" height="5"/><rect class="cls-10" x="824" y="155" width="5" height="5"/><rect class="cls-10" x="829" y="150" width="5" height="5"/><rect class="cls-10" x="819" y="160" width="5" height="5"/><rect class="cls-10" x="364" y="155" width="5" height="10"/><rect class="cls-10" x="339" y="125" width="5" height="5"/><rect class="cls-10" x="299" y="155" width="5" height="5"/><rect class="cls-10" x="284" y="160" width="5" height="5"/><rect class="cls-10" x="274" y="160" width="5" height="5"/><rect class="cls-10" x="264" y="160" width="5" height="5"/><rect class="cls-10" x="269" y="155" width="5" height="5"/><rect class="cls-10" x="259" y="155" width="5" height="5"/><rect class="cls-10" x="254" y="160" width="5" height="5"/><rect class="cls-10" x="244" y="160" width="5" height="5"/><rect class="cls-10" x="234" y="160" width="5" height="5"/><rect class="cls-10" x="224" y="160" width="5" height="5"/><rect class="cls-9" x="234" y="165" width="5" height="5"/><rect class="cls-9" x="219" y="170" width="5" height="5"/><rect class="cls-9" x="224" y="165" width="5" height="5"/><rect class="cls-10" x="279" y="155" width="5" height="5"/><rect class="cls-10" x="289" y="155" width="5" height="5"/><rect class="cls-10" x="294" y="150" width="5" height="5"/><rect class="cls-9" x="294" y="165" width="5" height="5"/><rect class="cls-8" x="199" y="130" width="5" height="5"/><rect class="cls-8" x="279" y="120" width="5" height="35"/><rect class="cls-7" x="339" y="130" width="5" height="30"/><rect class="cls-8" x="214" y="120" width="5" height="20"/><rect class="cls-11" x="324" y="110" width="30" height="5"/><rect class="cls-11" x="324" y="115" width="5" height="5"/><rect class="cls-11" x="504" y="110" width="30" height="5"/><rect class="cls-11" x="504" y="115" width="5" height="5"/><rect class="cls-11" x="654" y="110" width="30" height="5"/><rect class="cls-11" x="654" y="115" width="5" height="5"/><rect class="cls-11" x="749" y="110" width="30" height="5"/><rect class="cls-11" x="749" y="115" width="5" height="5"/><rect class="cls-11" x="594" y="110" width="30" height="5"/><rect class="cls-11" x="594" y="115" width="5" height="5"/><rect class="cls-11" x="504" y="125" width="5" height="5"/><rect class="cls-11" x="549" y="140" width="5" height="5"/><rect class="cls-11" x="639" y="125" width="15" height="5"/><rect class="cls-11" x="559" y="140" width="5" height="5"/><rect class="cls-7" x="594" y="125" width="5" height="5"/><rect class="cls-7" x="654" y="120" width="5" height="10"/><rect class="cls-7" x="324" y="120" width="5" height="5"/><rect class="cls-7" x="399" y="120" width="5" height="5"/><rect class="cls-7" x="399" y="130" width="5" height="5"/><rect class="cls-7" x="359" y="110" width="5" height="5"/><rect class="cls-11" x="399" y="110" width="30" height="5"/><rect class="cls-11" x="399" y="115" width="5" height="5"/><rect class="cls-7" x="434" y="110" width="5" height="5"/><rect class="cls-7" x="479" y="125" width="10" height="5"/><rect class="cls-8" x="214" y="145" width="5" height="5"/><rect class="cls-10" x="174" y="135" width="30" height="5"/><rect class="cls-12" x="216.5" y="110" width="2.5" height="2.5"/><rect class="cls-13" x="214" y="110" width="2.5" height="2.5"/><rect class="cls-12" x="221.5" y="110" width="2.5" height="2.5"/><rect class="cls-14" x="219" y="110" width="2.5" height="2.5"/><rect class="cls-14" x="214" y="112.5" width="2.5" height="2.5"/><rect class="cls-12" x="214" y="115" width="2.5" height="2.5"/><rect class="cls-7" x="724" y="125" width="10" height="5"/><rect class="cls-7" x="829" y="125" width="10" height="5"/><rect class="cls-7" x="749" y="125" width="5" height="16"/><rect class="cls-11" x="869" y="110" width="45" height="5"/><rect class="cls-11" x="854" y="125" width="15" height="5"/><rect class="cls-11" x="854" y="125" width="5" height="10"/><rect class="cls-11" x="869" y="115" width="5" height="5"/><rect class="cls-8" x="854" y="140" width="5" height="5"/></g></g></svg>