<?xml version="1.0" encoding="utf-8"?>
<!-- Generator: Adobe Illustrator 24.1.3, SVG Export Plug-In . SVG Version: 6.00 Build 0)  -->
<svg version="1.1" id="Layer_1" xmlns="http://www.w3.org/2000/svg" xmlns:xlink="http://www.w3.org/1999/xlink" x="0px" y="0px"
	 viewBox="0 0 458.1 762" style="enable-background:new 0 0 458.1 762;" xml:space="preserve">
<style type="text/css">
	.st0{fill:#2795F5;}
	.st1{fill:#191D35;}
	.st2{fill:#262B51;}
	.st3{fill:#151828;}
	.st4{fill:#45528C;}
	.st5{fill:#7989BC;}
	.st6{fill:#121423;}
	.st7{fill:#424B70;}
	.st8{fill:#232944;}
	.st9{fill:#0B0D16;}
	.st10{fill:#10131E;}
	.st11{opacity:0.8;fill:#0D1019;enable-background:new    ;}
	.st12{fill:#0D1019;}
	.st13{fill:#4F3C25;}
	.st14{fill:#7C7C7C;}
	.st15{fill:#C6C6C6;}
	.st16{fill:#110D09;}
	.st17{fill:#595958;}
	.st18{fill:#354066;}
	.st19{fill:#131623;}
	.st20{opacity:0.6;fill:#141923;enable-background:new    ;}
	.st21{fill:#6172AF;}
	.st22{fill:#61B6BF;}
	.st23{fill:#C59986;}
	.st24{fill:#D2CC45;}
	.st25{fill:#D8EBCC;}
	.st26{fill:#738390;}
	.st27{fill:#625E4E;}
	.st28{fill:#0F1E16;}
</style>
<polygon class="st0" points="458.2,762.1 -0.1,762.1 -0.1,727.7 413.6,726.4 416.3,23.3 -0.1,19.8 -0.1,0 458.2,0 "/>
<g id="Layer_17">
	<polygon class="st1" points="404.8,720.9 0,725.9 0,747.6 426,747.7 426,380 400.4,380 	"/>
	<polygon class="st2" points="0.2,754 0.2,748 432.2,748 432.1,754 	"/>
	<polygon class="st3" points="0.2,754 0.2,748 432.2,748 432.1,754 	"/>
	<polygon class="st2" points="444.1,688.4 444.1,380 425.2,380 425.2,737.5 420.5,738.2 419.4,744 0,744 0,754 360.2,754 360.1,760 
		442.1,760 442.1,758 444.1,758 444.1,756 446.1,756 446.1,748 448.1,748 448.1,742 448.1,742 	"/>
	<rect x="434.1" y="758" class="st4" width="4" height="2"/>
	<polygon class="st4" points="444.2,687.9 444.1,754 442.1,754 442.1,756 440.2,756 440.1,758 360.2,758 360.1,762 440.2,762 
		440.2,760 442.2,760 442.2,758 444.2,758 444.1,756 446.2,756 446.2,754 448.1,754 448.1,687.9 	"/>
	<rect x="444.2" y="689.7" class="st4" width="4" height="3.6"/>
	<rect x="442.2" y="665.7" class="st5" width="2" height="2"/>
	<rect x="442.2" y="667.7" width="2" height="2"/>
	<rect x="442.1" y="674" class="st5" width="2" height="2"/>
	<rect x="442.1" y="676" width="2" height="2"/>
	<polygon class="st4" points="424.1,680.7 424.1,736 422.1,736 422.1,738 420.1,738 420.1,740 418.1,740 418.1,742 416.1,742 
		416.1,744 0,744 0,746 418.1,746 418.1,744 420.1,744 420.1,742 422.1,742 422.1,740 424.1,740 424.1,738 426.1,738 426.1,680.7 	
		"/>
	<rect x="424.1" y="380" class="st4" width="2" height="317.3"/>
	<rect x="424.2" y="702" class="st6" width="23.9" height="2"/>
	<rect x="424.2" y="704" class="st7" width="23.9" height="2"/>
	<rect x="436.1" y="514" class="st8" width="2" height="166"/>
	<polyline class="st4" points="434.1,516 434.1,667.9 436.1,667.9 436.1,516 	"/>
	<polygon points="14.1,752 358.1,752 358.1,760 16.1,760 16.1,758.1 14.1,758.1 	"/>
	<rect x="16.2" y="756" class="st8" width="342" height="2"/>
	<rect y="752" class="st4" width="354.1" height="2"/>
	<rect x="358.1" y="758.1" class="st4" width="5.1" height="2"/>
	<rect x="354.1" y="752" class="st2" width="9.1" height="6"/>
	<rect x="16.2" y="758" class="st7" width="2" height="2"/>
	<rect x="14.1" y="755.9" class="st7" width="2" height="2"/>
	<rect x="12.2" y="754" class="st7" width="2" height="2"/>
	<rect x="308.1" y="758" class="st5" width="2" height="2"/>
	<rect x="310.1" y="758" class="st9" width="2" height="2"/>
	<rect x="300.2" y="758" class="st5" width="2" height="2"/>
	<rect x="302.1" y="758" class="st9" width="2" height="2"/>
	<rect x="292.1" y="758" class="st5" width="2" height="2"/>
	<rect x="294.1" y="758" class="st9" width="2" height="2"/>
	<rect x="356.1" y="756" class="st4" width="2" height="2"/>
	<rect x="354.1" y="754" class="st4" width="2" height="2"/>
	<polygon class="st1" points="402.8,38.7 0,37.6 0,15.4 426,15.4 426,382 406.7,382 	"/>
	<polygon class="st2" points="10.2,8 10.2,14 432.2,14 432.1,8 	"/>
	<polygon class="st3" points="10.2,8 10.2,14 432.2,14 432.1,8 	"/>
	<path class="st2" d="M454.5,280.1l-0.3-44.1h-6v-3.9l-4-2.2V73.6l4-53.6l0,0v-6h-2V6h-2V4h-2V2h-82l0.1,6H0v10h425.1l1,486.4
		l18.5,3.8l7.3-6.5l4.1-3.7l-0.3-40h-11.6V280L454.5,280.1z"/>
	<rect x="434.1" y="2" class="st4" width="4" height="2"/>
	<polygon class="st4" points="444.2,74.1 444.1,8 442.1,8 442.1,6 440.2,6 440.1,4 360.2,4 360.1,0 440.2,0 440.2,2 442.2,2 
		442.2,4 444.2,4 444.1,6 446.2,6 446.2,8 448.1,8 448.1,74.1 	"/>
	<polygon class="st2" points="444.1,224.1 444.1,78 436.2,78 436.2,224.1 	"/>
	<polygon class="st10" points="444.1,224.1 444.1,78 436.2,78 436.2,224.1 	"/>
	<polyline class="st4" points="434.1,222 434.1,80 436.1,80 436.1,78 438.1,78 438.1,76 440.1,76 440.1,74 442.1,74 442.1,72 
		444.1,72 444.1,70 446.1,70 446.1,72 446.1,74 444.1,74 444.1,76 442.1,76 442.1,78 440.1,78 440.1,80 438.1,80 438.1,82 436.1,82 
		436.1,222.1 	"/>
	<rect x="444.2" y="68.7" class="st4" width="4" height="3.6"/>
	<rect x="442.1" y="76" class="st8" width="2" height="154"/>
	<rect x="442.2" y="94.3" class="st5" width="2" height="2"/>
	<rect x="442.2" y="92.3" width="2" height="2"/>
	<rect x="442.1" y="84" class="st5" width="2" height="2"/>
	<rect x="442.1" y="86" width="2" height="2"/>
	<rect x="442.2" y="215.4" class="st5" width="2" height="2"/>
	<rect x="442.2" y="213.4" width="2" height="2"/>
	<rect x="442.1" y="205" class="st5" width="2" height="2"/>
	<rect x="442.1" y="207" width="2" height="2"/>
	<polygon class="st4" points="424.1,81.3 424.1,26 422.1,26 422.1,24 420.1,24 420.1,22 418.1,22 418.1,20 416.1,20 416.1,18 0,18 
		0,16 418.1,16 418.1,18 420.1,18 420.1,20 422.1,20 422.1,22 424.1,22 424.1,24 426.1,24 426.1,81.3 	"/>
	<rect x="424.1" y="64.7" class="st4" width="2" height="317.3"/>
	<rect x="424.2" y="58" class="st6" width="23.9" height="2"/>
	<rect x="424.2" y="56" class="st7" width="23.9" height="2"/>
	<rect x="436.1" y="82" class="st8" width="2" height="142.1"/>
	<polyline class="st4" points="434.1,222.1 434.1,94.1 436.1,94.1 436.1,222 	"/>
	<polygon points="14.1,9.9 358.1,9.9 358.1,2 16.1,2 16.1,3.9 14.1,3.9 	"/>
	<rect x="16.2" y="4" class="st8" width="342" height="2"/>
	<rect y="8" class="st4" width="354.1" height="2"/>
	<rect x="358.1" y="2" class="st4" width="5.1" height="2"/>
	<rect x="354.1" y="4" class="st2" width="9.1" height="6"/>
	<rect x="16.2" y="2" class="st7" width="2" height="2"/>
	<rect x="14.1" y="4" class="st7" width="2" height="2"/>
	<rect x="12.2" y="6" class="st7" width="2" height="2"/>
	<rect x="308.1" y="2" class="st5" width="2" height="2"/>
	<rect x="310.1" y="2" class="st9" width="2" height="2"/>
	<rect x="300.1" y="2" class="st5" width="2" height="2"/>
	<rect x="302.1" y="2" class="st9" width="2" height="2"/>
	<rect x="292.1" y="2" class="st5" width="2" height="2"/>
	<rect x="294.1" y="2" class="st9" width="2" height="2"/>
	<rect x="356.1" y="4" class="st4" width="2" height="2"/>
	<rect x="354.1" y="6" class="st4" width="2" height="2"/>
	<polygon class="st2" points="438.1,514 436.1,514 436.2,684 444.1,684 444.1,512 438.1,512 	"/>
	<polygon class="st10" points="438.1,514 436.1,514 436.2,684 444.1,684 444.1,512 438.1,512 	"/>
	<rect x="442.1" y="508" class="st8" width="2" height="178"/>
	<path class="st4" d="M454.1,458v40h-2v2h-2v2h-2v2h-2v2h4v-2h2v-2h2v-2h2v-2h2v-42h-14v2H454.1z"/>
	<polygon class="st4" points="444.1,458 444.1,305.1 444.1,280 440.1,280 440.2,305.1 440.1,458 	"/>
	<polygon class="st4" points="444.1,280 444.1,282 458.1,282 458.1,280.2 458.1,240 456.2,240 456.2,238 454.1,238 454.2,236 
		452.2,236 452.2,234 450.2,234 450.2,232 444.1,232 446.1,232 446.1,234 448.1,234 448.1,236 450.1,236 450.2,238 452.1,238 
		452.1,240 454.1,240 454.1,280 	"/>
	<polyline class="st4" points="436.1,516 436.1,680 438.1,680 438.1,682 440.1,682 440.1,684 442.1,684 442.1,686 444.1,686 
		444.1,688 446.1,688 446.1,690 446.1,692 444.1,692 444.1,690 442.1,690 442.1,688 440.1,688 440.1,686 438.1,686 438.1,684 
		436.1,684 436.1,682 434.1,682 434.1,516 	"/>
	<polygon class="st4" points="440.1,222 440.1,224.1 442.1,224 442.1,226 444.1,226 444.1,228 446.1,228 446.1,230 448.1,230.1 
		448.1,232.1 450.1,232 450.1,234 450.1,236 448.1,236 448.1,234 446.1,234 446.1,232 444.1,232 444.1,230 442.1,230 442.1,228 
		440.1,228 440.1,226 438.1,226 438.1,224 436.1,224 436.1,220 438.1,220 438.1,222 	"/>
	<polygon class="st4" points="440.1,516 440.1,514 442.1,514 442.1,512 444.1,512 444.1,510 446.1,510 446.1,508 448.1,508 
		448.1,506 450.1,506 450.1,504 450.1,502 448.1,502 448.1,504 446.1,504 446.1,506 444.1,506 444.1,508 442.1,508 442.1,510 
		440.1,510 440.1,512 438.1,512 438.1,514 436.1,514 436.1,518 438.1,518 438.1,516 	"/>
	<rect x="442.2" y="535.3" class="st5" width="2" height="2"/>
	<rect x="442.2" y="533.3" width="2" height="2"/>
	<rect x="442.1" y="525" class="st5" width="2" height="2"/>
	<rect x="442.1" y="527" width="2" height="2"/>
	<rect x="442.2" y="667.4" class="st5" width="2" height="2"/>
	<rect x="442.2" y="665.4" width="2" height="2"/>
	<rect x="442.1" y="657" class="st5" width="2" height="2"/>
	<rect x="442.1" y="659" width="2" height="2"/>
	<polygon class="st11" points="422,662.1 422,734 420.1,734 420.1,736 418.1,736 418.1,738 416.1,738 416.1,740 414.1,740 414,742 
		0.1,742 0.1,740.1 412.1,740 412.1,738 414.1,738 414,736 416.1,736 416.1,734 418.1,734 418.1,732 420.1,732 420,662.1 	"/>
	<polygon class="st11" points="424,698 424,26 422.1,26.1 422.1,24.1 420.1,24.1 420.1,22 418.1,22 418.1,20.1 416.1,20.1 416,18 
		0.1,18 0.1,20 414.1,20 414.1,22 416.1,22.1 416,24 418.1,24.1 418.1,26.1 420.1,26 420.1,28.1 422.1,28 422,697.9 	"/>
	<rect x="0.1" y="720.1" class="st12" width="110.9" height="1.9"/>
	<rect x="111" y="718" class="st12" width="2" height="2"/>
	<rect x="312" y="720.1" class="st12" width="111.9" height="1.9"/>
	<rect x="310" y="718" class="st12" width="2" height="2"/>
	<rect x="424.2" y="488" class="st6" width="33.9" height="2"/>
	<rect x="424.2" y="490" class="st7" width="33.9" height="2"/>
	<rect x="424.2" y="400" class="st6" width="20" height="2"/>
	<rect x="424.2" y="398" class="st7" width="20" height="2"/>
	<rect x="424.2" y="338" class="st6" width="20.1" height="2"/>
	<rect x="424.2" y="340" class="st7" width="20.1" height="2"/>
	<rect x="424.2" y="250.5" class="st6" width="33.9" height="2"/>
	<rect x="424.2" y="248.5" class="st7" width="33.9" height="2"/>
	<rect x="444" y="282" class="st8" width="12.1" height="8.1"/>
	<rect x="444" y="290.1" class="st13" width="10.1" height="157.9"/>
	<rect x="444" y="290.1" class="st14" width="10.1" height="157.9"/>
	<rect x="444" y="448" class="st6" width="12.1" height="8.1"/>
	<rect x="450" y="290.1" class="st13" width="2" height="157.9"/>
	<rect x="450" y="290.1" class="st15" width="2" height="157.9"/>
	<rect x="444.1" y="290.1" class="st13" width="2" height="157.9"/>
	<rect x="444.1" y="290.1" class="st16" width="2" height="157.9"/>
	<rect x="446.1" y="290.1" class="st13" width="2" height="157.9"/>
	<rect x="446.1" y="290.1" class="st17" width="2" height="157.9"/>
	<rect x="450" y="282" class="st18" width="2" height="8.1"/>
	<rect x="446" y="282" class="st19" width="2" height="8.1"/>
	<rect x="444" y="282" width="2" height="8.1"/>
	<rect x="444" y="282" class="st20" width="12.1" height="2"/>
	<rect x="444" y="448" class="st8" width="12.1" height="8.1"/>
	<rect x="450" y="448" class="st18" width="2" height="8.1"/>
	<rect x="446" y="448" class="st19" width="2" height="8.1"/>
	<rect x="444" y="448" width="2" height="8.1"/>
	<rect x="444" y="454.1" class="st20" width="12.1" height="2"/>
	<rect x="444" y="290.1" class="st20" width="10" height="2"/>
	<rect x="444" y="446.1" class="st20" width="10" height="2"/>
	<rect x="0" y="742.1" class="st21" width="408.1" height="2"/>
	<rect x="410.1" y="742.1" class="st22" width="2" height="2"/>
	<rect x="412.1" y="742.1" class="st23" width="2" height="2"/>
	<rect x="414.1" y="742.2" class="st24" width="2" height="2"/>
	<rect x="416" y="742.1" class="st25" width="2" height="2"/>
	<rect x="418" y="742.1" class="st24" width="2" height="2"/>
	<rect x="422.1" y="738.1" class="st24" width="2" height="2"/>
	<rect x="418" y="740.1" class="st26" width="2" height="2"/>
	<rect x="420" y="738.1" class="st26" width="2" height="2"/>
	<rect x="420" y="740.1" class="st25" width="2" height="2"/>
	<rect x="422.1" y="736.1" class="st25" width="2" height="2"/>
	<rect x="420" y="742.1" class="st27" width="2" height="2"/>
	<rect x="422.1" y="740.2" class="st27" width="2" height="2"/>
	<rect x="422.1" y="28.2" class="st21" width="2" height="700"/>
	<rect x="422.1" y="730.2" class="st22" width="2" height="2"/>
	<rect x="422.1" y="732.2" class="st23" width="2" height="2"/>
	<rect x="422.1" y="734.1" class="st24" width="2" height="2"/>
	<polygon class="st28" points="400.7,152.9 400.7,712.9 400.7,714.9 398.7,714.9 398.7,716.9 396.7,716.9 396.7,718.9 394.7,718.9 
		0,718.9 0,716.9 394.7,716.9 394.7,714.9 396.7,714.9 396.7,712.9 398.7,712.9 398.7,710.9 398.7,152.9 	"/>
	<polygon class="st28" points="32.4,718.9 404.7,718.9 404.7,716.9 32.4,716.9 	"/>
	<polygon class="st14" points="408.7,152.9 408.7,716.9 406.7,716.9 406.7,718.9 404.7,718.9 404.7,720.9 402.7,720.9 402.7,722.9 
		400.8,722.9 400.8,724.9 400.8,724.9 0,724.9 0,718.9 398.7,718.9 398.7,716.9 400.7,716.9 400.7,714.9 402.7,714.9 402.8,152.9 	
		"/>
	<polygon class="st14" points="32.6,724.9 399.8,724.9 399.8,718.9 32.6,718.9 	"/>
	<polygon class="st15" points="32.3,726.9 400.8,726.9 400.8,724.9 32.3,724.9 	"/>
	<polygon class="st16" points="43.3,720.9 396.8,720.9 396.8,718.9 43.3,718.9 	"/>
	<polygon class="st16" points="402.7,151.9 402.7,714.9 400.7,714.9 400.7,716.9 398.7,716.9 398.7,718.9 396.7,718.9 396.7,720.9 
		394.7,720.9 0,720.9 0,718.9 394.7,718.9 394.7,716.9 396.7,716.9 396.7,714.9 398.7,714.9 398.7,712.9 400.7,712.9 400.7,151.9 	
		"/>
	<polygon class="st28" points="32.5,40.6 32.5,42.6 396.8,42.6 396.8,40.6 	"/>
	<polygon class="st28" points="400.8,154.7 400.8,46.6 400.8,44.6 398.8,44.6 398.8,42.6 396.8,42.6 396.8,40.7 394.8,40.7 0,40.7 
		0,42.6 394.8,42.7 394.8,44.6 396.8,44.7 396.8,46.7 398.8,46.6 398.8,48.7 398.8,154.7 	"/>
	<polygon class="st14" points="29.3,34.7 29.3,40.7 400.8,40.7 400.8,34.7 	"/>
	<polygon class="st14" points="408.7,152.9 408.7,42.7 406.7,42.7 406.7,40.7 404.7,40.7 404.7,38.7 402.8,38.7 402.8,36.7 
		400.7,36.6 400.7,34.7 400.7,34.7 0,34.7 0,40.7 398.7,40.7 398.7,42.7 400.7,42.7 400.7,44.7 402.7,44.7 402.7,152.9 	"/>
	<polygon class="st15" points="408.8,140.6 408.8,38.7 406.8,38.7 406.8,36.7 404.8,36.7 404.8,34.7 402.8,34.7 402.8,32.7 
		400.8,32.7 -0.1,32.7 -0.1,34.7 400.8,34.7 400.7,36.6 402.8,36.7 402.8,38.7 404.8,38.7 404.7,40.7 406.7,40.7 406.8,150.6 
		408.8,150.6 	"/>
	<polygon class="st16" points="402.8,152.6 402.8,44.7 400.8,44.7 400.8,42.7 398.7,42.7 398.8,40.7 396.8,40.7 396.8,38.7 
		394.8,38.7 0,38.7 0,40.7 394.7,40.7 394.7,42.6 396.7,42.7 396.8,44.7 398.7,44.7 398.7,46.7 400.7,46.7 400.8,152.6 	"/>
	<polygon class="st15" points="25.8,32.7 25.8,34.7 400.8,34.7 400.8,32.7 	"/>
	<polygon class="st16" points="32.5,38.7 32.5,40.7 396.8,40.7 396.8,38.7 	"/>
	<polygon class="st15" points="408.8,150.6 408.8,720.9 406.8,720.9 406.8,722.9 404.8,722.9 404.8,724.9 402.8,724.9 402.8,726.9 
		400.8,726.9 0,726.9 0,724.9 400.8,724.9 400.7,722.9 402.8,722.9 402.8,720.9 404.8,720.9 404.8,718.9 406.7,718.9 406.8,150.6 	
		"/>
</g>
</svg>
