<svg xmlns="http://www.w3.org/2000/svg" viewBox="0 0 576.02 133.11"><defs><style>.cls-1{fill:#0f121e;}.cls-2{fill:#191d35;}.cls-3{fill:#111423;}.cls-4{fill:#293154;}.cls-5{fill:#262b51;}.cls-6{fill:#1b1f38;}.cls-7{fill:#45528c;}.cls-8{fill:#6172af;}.cls-9{fill:#61b6bf;}.cls-10{fill:#c59986;}.cls-11{fill:#d2cc45;}.cls-12{fill:#d8ebcc;}.cls-13{fill:#738390;}.cls-14{fill:#625e4e;}.cls-15{fill:#232944;}.cls-16{fill:#7989bc;}.cls-17{fill:#0b0d16;}.cls-18{fill:#ba7979;}.cls-19{fill:#79ba93;}.cls-20{fill:#353b63;}.cls-21{fill:#121423;}.cls-22{fill:#424b70;}</style></defs><g id="Layer_2" data-name="Layer 2"><g id="Layer_15" data-name="Layer 15"><polygon class="cls-1" points="11.95 121.12 11.95 0 562.03 0 562.05 114.32 555.82 114.17 555.71 121.12 11.95 121.12"/><polygon class="cls-2" points="30.07 101.1 30.01 0 546.03 0 545.96 96.36 538.71 101.1 30.07 101.1"/><polygon class="cls-3" points="562.08 78.41 562.03 115.16 555.96 115.08 555.99 121.13 110.03 121.11 110.03 129.11 562.08 129.12 562.08 129.12 564.02 129.12 564.02 127.12 566.03 127.12 566.03 125.12 568.02 125.12 568.02 123.12 570.02 123.12 570.02 78.41 562.08 78.41"/><rect class="cls-3" x="-24.7" y="28.93" width="65.55" height="7.95" transform="translate(40.98 24.82) rotate(90)"/><polygon class="cls-4" points="32.01 103.1 32 101.11 30.05 101.09 29.96 57.13 545.99 57.13 545.99 101.12 544.01 101.14 544.04 103.06 542.02 103.11 542.1 103.11 542.05 105.12 33.99 105.12 34.04 103.1 32.01 103.1"/><rect class="cls-5" x="565.02" y="80.12" width="2" height="8.01" transform="translate(650.15 -481.89) rotate(90)"/><rect class="cls-5" x="564.03" y="83.12" width="2" height="6" transform="translate(651.15 -478.91) rotate(90)"/><rect class="cls-5" x="563.03" y="86.07" width="2" height="4" transform="translate(652.1 -475.96) rotate(90)"/><rect class="cls-5" x="562.03" y="89.13" width="2" height="1.99" transform="translate(653.15 -472.9) rotate(90)"/><rect class="cls-5" x="529.56" y="32.64" width="78.93" height="14" transform="translate(608.66 -529.38) rotate(90)"/><rect class="cls-5" x="567.03" y="74.08" width="2" height="12" transform="translate(648.11 -487.95) rotate(90)"/><rect class="cls-5" x="563.39" y="74.52" width="7.26" height="9.99" transform="translate(646.54 -487.5) rotate(90)"/><polygon class="cls-5" points="125.98 121.11 123.99 121.11 123.98 121.11 121.99 121.11 121.99 121.11 119.99 121.11 119.99 121.11 118 121.11 117.99 121.11 116.01 121.11 116 121.11 114.01 121.11 114.01 133.11 116.01 133.11 116.01 131.1 118 131.1 118 129.13 119.99 129.13 119.99 127.11 121.99 127.11 121.99 125.12 123.99 125.12 123.99 123.1 125.98 123.1 125.98 121.11"/><polygon class="cls-5" points="114.03 121.14 12.02 121.14 12 37.1 0 37.1 0.02 127.1 2.02 127.11 2.03 129.12 4.01 129.11 4.02 131.09 6.02 131.09 6 133.11 12.02 133.11 12.02 133.1 114.03 133.1 114.03 121.14"/><polygon class="cls-5" points="0.03 37.1 2.02 37.1 2.03 37.1 4.02 37.1 4.02 37.1 6.02 37.1 6.02 37.1 8.01 37.1 8.02 37.1 10 37.1 10.01 37.1 12 37.1 12 25.11 10 25.11 10 27.11 8.01 27.11 8.01 29.09 6.02 29.09 6.02 31.1 4.02 31.1 4.02 33.1 2.02 33.1 2.02 35.11 0.03 35.11 0.03 37.1"/><rect class="cls-5" x="12.01" y="0.16" width="9.94" height="122.84"/><rect class="cls-5" x="12.01" y="0.16" width="9.94" height="122.84"/><polygon class="cls-6" points="551.98 0.15 551.98 111.14 18.02 111.14 18.02 121.14 551.98 121.14 556.02 121.14 556 119.14 558.01 119.1 558.05 117.13 560.04 117.13 560.06 115.12 562.04 115.08 562.04 111.14 562.04 0.15 551.98 0.15"/><polygon class="cls-5" points="551.98 0.15 551.98 111.14 18.02 111.14 18.02 121.14 551.98 121.14 556.02 121.14 556 119.14 558.01 119.1 558.05 117.13 560.04 117.13 560.06 115.12 562.04 115.08 562.04 111.14 562.04 0.15 551.98 0.15"/><rect class="cls-5" x="548.02" y="107.14" width="2" height="6" transform="translate(438.88 659.16) rotate(-90)"/><rect class="cls-5" x="549.02" y="106.13" width="2" height="4" transform="translate(441.88 658.15) rotate(-90)"/><rect class="cls-5" x="550.02" y="105.14" width="2" height="1.99" transform="translate(444.88 657.15) rotate(-90)"/><rect class="cls-7" x="0.03" y="125.11" width="1.96" height="1.96"/><rect class="cls-7" x="2.04" y="125.11" width="1.96" height="1.96"/><rect class="cls-7" x="4.04" y="127.1" width="1.96" height="1.96"/><rect class="cls-7" x="6.05" y="129.11" width="1.96" height="1.96"/><rect class="cls-7" x="2.03" y="127.11" width="1.96" height="1.96"/><rect class="cls-7" x="4.05" y="129.12" width="1.96" height="1.96"/><rect class="cls-7" x="6.03" y="131.11" width="1.96" height="1.96"/><rect class="cls-7" x="-42.92" y="78.19" width="89.83" height="3.94" transform="translate(82.16 78.16) rotate(90)"/><rect class="cls-7" x="8.03" y="129.11" width="106" height="3.99"/><rect class="cls-7" x="124" y="119.12" width="432" height="1.99"/><rect class="cls-7" x="124" y="119.12" width="432" height="1.99"/><rect class="cls-7" x="124" y="119.12" width="432" height="1.99"/><rect class="cls-7" x="26" y="111.12" width="522.03" height="1.99"/><polygon class="cls-7" points="562.02 91.1 562.02 115.14 560.04 115.14 560.04 117.1 558.03 117.1 558.03 119.11 554.02 119.1 554.02 117.09 556.01 117.11 556.01 115.1 558.02 115.1 558.02 113.1 560.02 113.12 560.02 91.09 562.02 91.1"/><polygon class="cls-7" points="576.02 79.1 574.03 79.08 574.03 81.08 572.02 81.15 572.02 83.15 570.03 83.13 570.03 85.13 568.03 85.12 568.03 87.12 566.03 87.07 566.03 89.07 564.02 89.13 564.02 91.13 560.02 91.09 560 89.11 562.03 89.13 562.03 87.12 563.99 87.11 564 85.1 566.02 85.11 566.01 83.1 568 83.11 568.01 81.1 570.02 81.1 570.01 79.1 572.02 79.12 572.02 77.09 576 77.12 576.02 79.1"/><rect class="cls-7" x="535.38" y="36.73" width="77.31" height="3.94" transform="translate(612.73 -535.34) rotate(90)"/><polygon class="cls-7" points="14.03 0.06 14.03 27.11 12.02 27.11 12.02 29.11 10.02 29.11 10.03 31.11 8.03 31.11 8.04 33.08 6.03 33.13 6.03 35.13 2.03 35.09 2.01 33.12 4.04 33.13 4.04 31.13 6 31.12 6.01 29.1 8.03 29.12 8.02 27.11 10.01 27.12 10.03 25.11 12 25.13 12.03 0.06 14.03 0.06"/><polygon class="cls-7" points="0.03 125.11 0.03 127.11 2.03 127.11 2.03 129.1 4.03 129.1 4.03 131.1 6.03 131.1 6.03 133.1 8.03 133.11 8.03 129.11 6.03 129.11 6.03 127.11 4.03 127.11 4.03 125.11 2.03 125.11 2.02 123.11 0.03 123.11 0.03 125.11"/><rect class="cls-7" x="22.02" y="0.13" width="4.03" height="108.95"/><rect class="cls-7" x="22.02" y="0.13" width="4.03" height="108.95"/><rect class="cls-7" x="22.02" y="0.13" width="4.03" height="108.95"/><rect class="cls-7" x="22.02" y="0.13" width="4.03" height="108.95"/><polygon class="cls-5" points="18.02 109.13 18.02 111.13 20.02 111.13 20.02 113.12 22.02 113.12 22.03 115.12 24.03 115.12 24.03 117.12 26.03 117.13 26.03 113.13 24.03 113.13 24.02 111.13 24.02 109.14 22.02 109.13 20.03 109.13 20.02 107.13 18.02 107.13 18.02 109.13"/><rect class="cls-8" x="39.96" y="1.03" width="438.05" height="2"/><rect class="cls-9" x="35.96" y="1.03" width="2" height="2" transform="translate(38.99 -34.93) rotate(90)"/><rect class="cls-10" x="33.98" y="1.03" width="2" height="2" transform="translate(37.01 -32.95) rotate(90)"/><rect class="cls-11" x="32.01" y="1.03" width="2" height="2" transform="translate(35.04 -30.98) rotate(90)"/><rect class="cls-12" x="30.03" y="1.03" width="2" height="2" transform="translate(33.07 -29) rotate(90)"/><rect class="cls-11" x="28.03" y="1.03" width="2" height="2" transform="translate(31.07 -27) rotate(90)"/><rect class="cls-11" x="24" y="5.05" width="2" height="2" transform="translate(31.05 -18.95) rotate(90)"/><rect class="cls-13" x="28.03" y="3.04" width="2" height="2" transform="translate(33.08 -24.99) rotate(90)"/><rect class="cls-13" x="26.04" y="5.05" width="2" height="2" transform="translate(33.1 -20.99) rotate(90)"/><rect class="cls-12" x="26.05" y="3.04" width="2" height="2" transform="translate(31.09 -23) rotate(90)"/><rect class="cls-12" x="24" y="7.06" width="2" height="2" transform="translate(33.06 -16.94) rotate(90)"/><rect class="cls-14" x="26.03" y="1.03" width="2" height="2" transform="translate(29.06 -25) rotate(90)"/><rect class="cls-14" x="24.01" y="3.03" width="2" height="2" transform="translate(29.04 -20.98) rotate(90)"/><rect class="cls-8" x="23.99" y="17" width="2" height="89.97" transform="translate(49.98 123.97) rotate(180)"/><rect class="cls-9" x="23.99" y="13" width="2" height="2" transform="translate(49.98 28) rotate(180)"/><rect class="cls-10" x="23.99" y="11.02" width="2" height="2" transform="translate(49.98 24.05) rotate(180)"/><rect class="cls-11" x="23.99" y="9.05" width="2" height="2" transform="translate(49.98 20.1) rotate(180)"/><rect class="cls-8" x="468.06" y="0.97" width="68.05" height="2"/><rect class="cls-9" x="538.1" y="0.97" width="2" height="2" transform="translate(541.07 -537.14) rotate(90)"/><rect class="cls-10" x="540.08" y="0.97" width="2" height="2" transform="translate(543.05 -539.11) rotate(90)"/><rect class="cls-11" x="542.05" y="0.97" width="2" height="2" transform="translate(545.02 -541.09) rotate(90)"/><rect class="cls-12" x="544.03" y="0.97" width="2" height="2" transform="translate(546.99 -543.06) rotate(90)"/><rect class="cls-11" x="546.03" y="0.97" width="2" height="2" transform="translate(549 -545.06) rotate(90)"/><rect class="cls-11" x="550.06" y="4.98" width="2" height="2" transform="translate(557.05 -545.07) rotate(90)"/><rect class="cls-13" x="546.03" y="2.98" width="2" height="2" transform="translate(551.01 -543.05) rotate(90)"/><rect class="cls-13" x="548.02" y="4.99" width="2" height="2" transform="translate(555 -543.03) rotate(90)"/><rect class="cls-12" x="548.01" y="2.98" width="2" height="2" transform="translate(552.99 -545.04) rotate(90)"/><rect class="cls-12" x="550.06" y="7" width="2" height="2" transform="translate(559.06 -543.06) rotate(90)"/><rect class="cls-14" x="548.03" y="0.97" width="2" height="2" transform="translate(551 -547.06) rotate(90)"/><rect class="cls-14" x="550.05" y="2.96" width="2" height="2" transform="translate(555.01 -547.09) rotate(90)"/><rect class="cls-8" x="550.07" y="16.93" width="2" height="92.12"/><rect class="cls-9" x="550.07" y="12.93" width="2" height="2"/><rect class="cls-10" x="550.07" y="10.96" width="2" height="2"/><rect class="cls-11" x="550.07" y="8.99" width="2" height="2"/><rect class="cls-15" x="116.06" y="127.11" width="447.96" height="2"/><rect class="cls-16" x="530.02" y="127.11" width="2" height="1.99" transform="translate(659.13 -402.91) rotate(90)"/><rect class="cls-17" x="528.02" y="127.11" width="2" height="2" transform="translate(657.13 -400.91) rotate(90)"/><rect class="cls-16" x="538.03" y="127.11" width="2" height="1.99" transform="translate(667.14 -410.92) rotate(90)"/><rect class="cls-17" x="536.03" y="127.11" width="2" height="2" transform="translate(665.14 -408.92) rotate(90)"/><rect class="cls-16" x="522.01" y="127.11" width="2" height="1.99" transform="translate(651.12 -394.9) rotate(90)"/><rect class="cls-17" x="520.01" y="127.11" width="2" height="2" transform="translate(649.12 -392.9) rotate(90)"/><rect class="cls-15" x="564.02" y="125.12" width="2.01" height="1.99" transform="translate(691.13 -438.91) rotate(90)"/><rect class="cls-15" x="566.01" y="123.12" width="2.01" height="1.99" transform="translate(691.13 -442.9) rotate(90)"/><rect class="cls-15" x="550.01" y="103.12" width="38.01" height="1.99" transform="translate(673.13 -464.9) rotate(90)"/><rect class="cls-16" x="568.02" y="115.13" width="2" height="1.99" transform="translate(1138.03 232.24) rotate(-180)"/><rect class="cls-17" x="568.02" y="113.12" width="2" height="2" transform="translate(1138.03 228.24) rotate(-180)"/><rect class="cls-16" x="568.02" y="107.15" width="2" height="1.99" transform="translate(1138.03 216.29) rotate(-180)"/><rect class="cls-17" x="568.02" y="105.14" width="2" height="2" transform="translate(1138.03 212.29) rotate(-180)"/><rect class="cls-16" x="568.02" y="99.11" width="2" height="1.99" transform="translate(1138.03 200.2) rotate(-180)"/><rect class="cls-17" x="568.02" y="97.1" width="2" height="2" transform="translate(1138.03 196.2) rotate(-180)"/><rect class="cls-15" x="-10.46" y="14.61" width="30.97" height="1.99" transform="translate(20.63 10.58) rotate(90)"/><rect class="cls-18" x="4.03" y="23.09" width="2" height="1.99" transform="translate(10.06 48.18) rotate(-180)"/><rect class="cls-17" x="4.03" y="21.09" width="2" height="2" transform="translate(10.05 44.18) rotate(-180)"/><rect class="cls-19" x="4.03" y="9.51" width="2" height="1.99" transform="translate(10.06 21.01) rotate(-180)"/><rect class="cls-17" x="4.03" y="7.5" width="2" height="2" transform="translate(10.05 17.01) rotate(-180)"/><rect class="cls-16" x="150.02" y="127.11" width="2" height="1.99" transform="translate(279.13 -22.91) rotate(90)"/><rect class="cls-17" x="148.02" y="127.11" width="2" height="2" transform="translate(277.13 -20.91) rotate(90)"/><rect class="cls-16" x="158.03" y="127.11" width="2" height="1.99" transform="translate(287.14 -30.92) rotate(90)"/><rect class="cls-17" x="156.03" y="127.11" width="2" height="2" transform="translate(285.14 -28.92) rotate(90)"/><rect class="cls-16" x="142.01" y="127.11" width="2" height="1.99" transform="translate(271.12 -14.9) rotate(90)"/><rect class="cls-17" x="140.01" y="127.11" width="2" height="2" transform="translate(269.12 -12.9) rotate(90)"/><rect class="cls-6" x="562.02" y="27.11" width="1.99" height="17.99" transform="translate(526.91 599.13) rotate(-90)"/><rect class="cls-20" x="562.02" y="29.12" width="1.99" height="17.97" transform="translate(601.12 -524.9) rotate(90)"/><rect class="cls-21" x="573.02" y="34.11" width="1.99" height="4" transform="translate(537.91 610.13) rotate(-90)"/><rect class="cls-22" x="573.02" y="36.11" width="1.99" height="4" transform="translate(612.13 -535.91) rotate(90)"/><rect class="cls-6" x="562.01" y="59.21" width="1.99" height="17.99" transform="translate(631.21 -494.8) rotate(90)"/><rect class="cls-20" x="562.01" y="57.22" width="1.99" height="17.97" transform="translate(496.81 629.22) rotate(-90)"/><rect class="cls-21" x="573.02" y="66.2" width="1.99" height="4" transform="translate(642.23 -505.81) rotate(90)"/><rect class="cls-22" x="573.02" y="64.21" width="1.99" height="4" transform="translate(507.81 640.23) rotate(-90)"/><rect class="cls-2" x="67.99" y="113.11" width="4.06" height="12.03"/><rect class="cls-20" x="70.01" y="125.14" width="1.98" height="1.93"/><rect class="cls-20" x="68.04" y="113.17" width="1.97" height="11.89" transform="translate(138.04 238.24) rotate(180)"/><rect class="cls-2" x="86.04" y="113.11" width="4.06" height="12.03"/><rect class="cls-20" x="88.06" y="125.14" width="1.98" height="1.93"/><rect class="cls-20" x="86.09" y="113.17" width="1.97" height="11.89" transform="translate(174.16 238.24) rotate(180)"/><rect class="cls-6" x="12.02" y="27.11" width="1.99" height="17.99" transform="translate(-23.09 49.13) rotate(-90)"/><rect class="cls-20" x="12.02" y="29.12" width="1.99" height="17.97" transform="translate(51.12 25.1) rotate(90)"/><rect class="cls-21" x="1.01" y="34.11" width="1.99" height="4" transform="translate(-34.11 38.11) rotate(-90)"/><rect class="cls-22" x="1.01" y="36.11" width="1.99" height="4" transform="translate(40.11 36.1) rotate(90)"/><rect class="cls-21" x="21.02" y="34.11" width="1.99" height="4" transform="translate(-14.09 58.13) rotate(-90)"/><rect class="cls-22" x="21.02" y="36.11" width="1.99" height="4" transform="translate(60.13 16.09) rotate(90)"/><rect class="cls-6" x="12.01" y="71.21" width="1.99" height="17.99" transform="translate(93.21 67.2) rotate(90)"/><rect class="cls-20" x="12.01" y="69.22" width="1.99" height="17.97" transform="translate(-65.19 91.22) rotate(-90)"/><rect class="cls-21" x="21.02" y="78.2" width="1.99" height="4" transform="translate(102.23 58.19) rotate(90)"/><rect class="cls-22" x="21.02" y="76.21" width="1.99" height="4" transform="translate(-56.19 100.23) rotate(-90)"/><rect class="cls-21" x="1.01" y="78.2" width="1.99" height="4" transform="translate(82.21 78.2) rotate(90)"/><rect class="cls-22" x="1.01" y="76.21" width="1.99" height="4" transform="translate(-76.2 80.21) rotate(-90)"/><rect class="cls-6" x="49.95" y="110.97" width="1.99" height="17.99"/><rect class="cls-20" x="47.96" y="110.97" width="1.99" height="17.97" transform="translate(97.91 239.92) rotate(-180)"/><rect class="cls-21" x="49.95" y="111.07" width="1.99" height="1.88"/><rect class="cls-22" x="47.96" y="111.07" width="1.99" height="1.88" transform="translate(97.91 224.02) rotate(-180)"/><rect class="cls-21" x="49.95" y="128.97" width="1.99" height="4"/><rect class="cls-22" x="47.96" y="128.97" width="1.99" height="4" transform="translate(97.91 261.94) rotate(-180)"/><rect class="cls-6" x="169.01" y="113.12" width="1.99" height="5.94"/><rect class="cls-20" x="167.02" y="113.12" width="1.99" height="5.94" transform="translate(336.02 232.18) rotate(-180)"/><rect class="cls-21" x="169.01" y="111.12" width="1.99" height="1.97"/><rect class="cls-22" x="167.02" y="111.12" width="1.99" height="1.97" transform="translate(336.02 224.22) rotate(-180)"/><rect class="cls-21" x="169.01" y="119.1" width="1.99" height="2.04"/><rect class="cls-22" x="167.02" y="119.1" width="1.99" height="2.04" transform="translate(336.02 240.24) rotate(-180)"/><rect class="cls-6" x="278.01" y="113.12" width="1.99" height="5.94"/><rect class="cls-20" x="276.02" y="113.12" width="1.99" height="5.94" transform="translate(554.02 232.18) rotate(-180)"/><rect class="cls-21" x="278.01" y="111.12" width="1.99" height="1.97"/><rect class="cls-22" x="276.02" y="111.12" width="1.99" height="1.97" transform="translate(554.02 224.22) rotate(-180)"/><rect class="cls-21" x="278.01" y="119.1" width="1.99" height="2.04"/><rect class="cls-22" x="276.02" y="119.1" width="1.99" height="2.04" transform="translate(554.02 240.24) rotate(-180)"/><rect class="cls-6" x="358.98" y="113.12" width="1.99" height="5.94"/><rect class="cls-20" x="356.98" y="113.12" width="1.99" height="5.94" transform="translate(715.95 232.18) rotate(-180)"/><rect class="cls-21" x="358.98" y="111.12" width="1.99" height="1.97"/><rect class="cls-22" x="356.98" y="111.12" width="1.99" height="1.97" transform="translate(715.95 224.22) rotate(-180)"/><rect class="cls-21" x="358.98" y="119.1" width="1.99" height="2.04"/><rect class="cls-22" x="356.98" y="119.1" width="1.99" height="2.04" transform="translate(715.95 240.24) rotate(-180)"/><rect class="cls-6" x="464.98" y="113.12" width="1.99" height="5.94"/><rect class="cls-20" x="462.98" y="113.12" width="1.99" height="5.94" transform="translate(927.95 232.18) rotate(-180)"/><rect class="cls-21" x="464.98" y="111.12" width="1.99" height="1.97"/><rect class="cls-22" x="462.98" y="111.12" width="1.99" height="1.97" transform="translate(927.95 224.22) rotate(-180)"/><rect class="cls-21" x="464.98" y="119.1" width="1.99" height="2.04"/><rect class="cls-22" x="462.98" y="119.1" width="1.99" height="2.04" transform="translate(927.95 240.24) rotate(-180)"/><rect class="cls-6" x="531.98" y="113.12" width="1.99" height="5.94"/><rect class="cls-20" x="529.98" y="113.12" width="1.99" height="5.94" transform="translate(1061.95 232.18) rotate(-180)"/><rect class="cls-21" x="531.98" y="111.12" width="1.99" height="1.97"/><rect class="cls-22" x="529.98" y="111.12" width="1.99" height="1.97" transform="translate(1061.95 224.22) rotate(-180)"/><rect class="cls-21" x="531.98" y="119.1" width="1.99" height="2.04"/><rect class="cls-22" x="529.98" y="119.1" width="1.99" height="2.04" transform="translate(1061.95 240.24) rotate(-180)"/><polygon class="cls-7" points="554.03 0.13 554.03 107.18 552.06 107.18 552.06 109.14 550.05 109.14 550.05 111.14 546.04 111.14 546.04 109.13 548.03 109.14 548.03 107.13 550.03 107.13 550.03 105.14 552.04 105.15 552.04 0.12 554.03 0.13"/><polygon class="cls-7" points="22.01 109.11 24.02 109.11 24 111.12 25.99 111.12 27.99 111.12 27.99 113.12 29.99 113.12 29.99 109.12 27.99 109.12 27.99 107.12 25.99 107.12 25.99 105.12 23.99 105.13 23.99 103.12 21.99 103.12 22.01 109.11"/><rect class="cls-21" x="551.01" y="66.2" width="1.99" height="4" transform="translate(620.21 -483.8) rotate(90)"/><rect class="cls-22" x="551.01" y="64.21" width="1.99" height="4" transform="translate(485.8 618.21) rotate(-90)"/><rect class="cls-22" x="551.01" y="36.11" width="1.99" height="4" transform="translate(590.11 -513.9) rotate(90)"/><rect class="cls-21" x="551.01" y="34.11" width="1.99" height="4" transform="translate(515.89 588.11) rotate(-90)"/><polygon class="cls-7" points="116.03 131.11 118.02 131.11 118.03 129.11 120.03 129.11 120.03 127.11 122.02 127.11 122.02 125.11 124.02 125.11 124.02 123.11 126.02 123.11 126.03 121.11 122.03 121.11 122.03 123.11 120.03 123.11 120.03 125.11 118.03 125.11 118.03 127.11 116.03 127.11 116.03 129.11 114.02 129.11 114.02 133.11 116.02 133.11 116.03 131.11"/></g></g></svg>