<svg xmlns="http://www.w3.org/2000/svg" viewBox="0 0 389.78 101.36"><defs><style>.cls-1{fill:#84939a;}.cls-2{fill:#475966;}.cls-3{fill:#202a37;}.cls-4{fill:#1f2a36;}.cls-5{fill:#2d96f8;}.cls-6{fill:#ecebe9;}.cls-7{fill:#1a4ad4;}.cls-8{fill:#e9b278;}.cls-9{fill:#850a26;}.cls-10{fill:#e2511a;}.cls-11{fill:#13181e;}.cls-12{fill:#0f3699;}</style></defs><g id="Layer_2" data-name="Layer 2"><g id="Layer_23" data-name="Layer 23"><rect class="cls-1" x="68.25" y="7.36" width="8" height="2" transform="translate(2.6 -12.59) rotate(10.14)"/><rect class="cls-1" x="168.64" y="11.58" width="56" height="34" transform="translate(8.1 -34.17) rotate(10.14)"/><rect class="cls-2" x="188.72" y="39.18" width="32" height="2" transform="translate(10.27 -35.42) rotate(10.14)"/><rect class="cls-3" x="196.83" y="37.95" width="2" height="2" transform="translate(9.95 -34.22) rotate(10.14)"/><rect class="cls-3" x="202.67" y="39.71" width="10" height="2" transform="translate(10.41 -35.93) rotate(10.14)"/><rect class="cls-2" x="202.96" y="38.45" width="18" height="2" transform="translate(10.26 -36.7) rotate(10.14)"/><rect class="cls-2" x="211.25" y="37.18" width="10" height="2" transform="translate(10.1 -37.48) rotate(10.14)"/><rect class="cls-2" x="217.56" y="35.74" width="4" height="2" transform="translate(9.9 -38.08) rotate(10.14)"/><rect class="cls-2" x="166.35" y="39.38" width="56" height="4" transform="translate(10.32 -33.57) rotate(10.14)"/><rect class="cls-2" x="222.4" y="16.26" width="1" height="32" transform="translate(9.16 -38.74) rotate(10.14)"/><rect class="cls-3" x="168.16" y="41.54" width="54" height="2" transform="translate(10.54 -33.69) rotate(10.14)"/><rect class="cls-3" x="180.41" y="40.62" width="42" height="2" transform="translate(10.47 -34.81) rotate(10.14)"/><rect class="cls-3" x="214.5" y="41.65" width="8" height="2" transform="translate(10.92 -37.8) rotate(10.14)"/><rect class="cls-2" x="219.08" y="16.05" width="8" height="2" transform="translate(6.49 -39.01) rotate(10.14)"/><rect class="cls-3" x="223.38" y="16.44" width="1" height="32" transform="translate(9.21 -38.91) rotate(10.14)"/><rect class="cls-2" x="169.23" y="8.84" width="2" height="28" transform="translate(6.68 -29.61) rotate(10.14)"/><rect class="cls-4" x="171.1" y="13.8" width="56" height="2" transform="translate(5.72 -34.82) rotate(10.14)"/><rect class="cls-3" x="169.24" y="6.75" width="1" height="32" transform="translate(6.66 -29.53) rotate(10.14)"/><rect class="cls-1" x="222.48" y="37.86" width="62" height="16" transform="translate(12.03 -43.91) rotate(10.14)"/><rect class="cls-2" x="225.39" y="50.11" width="58" height="4" transform="translate(13.15 -43.97) rotate(10.14)"/><rect class="cls-2" x="222.76" y="34.74" width="4" height="14" transform="translate(10.86 -38.92) rotate(10.14)"/><rect class="cls-2" x="223.71" y="37.97" width="62" height="2" transform="translate(10.84 -44.24) rotate(10.14)"/><rect class="cls-3" x="223.05" y="34.49" width="1" height="11" transform="translate(10.53 -38.73) rotate(10.14)"/><rect class="cls-1" x="223.8" y="37.97" width="62" height="1" transform="translate(10.75 -44.26) rotate(10.14)"/><rect class="cls-1" x="285.29" y="28.8" width="38" height="34" transform="translate(12.82 -52.86) rotate(10.14)"/><rect class="cls-2" x="297.23" y="55.91" width="2" height="2" transform="translate(14.68 -51.62) rotate(10.14)"/><rect class="cls-2" x="301.17" y="56.61" width="2" height="2" transform="translate(14.86 -52.3) rotate(10.14)"/><rect class="cls-2" x="282.64" y="58.57" width="38" height="4" transform="translate(15.38 -52.16) rotate(10.14)"/><rect class="cls-3" x="282.48" y="60.37" width="36" height="2" transform="translate(15.5 -51.94) rotate(10.14)"/><rect class="cls-3" x="296.73" y="59.64" width="22" height="2" transform="translate(15.48 -53.23) rotate(10.14)"/><path class="cls-3" d="M296.16,51.46,294.4,61.3l-5.9-1,1.76-9.85,5.9,1.06m1.16-.81-1-.18-5.91-1-1-.18-.18,1-1.76,9.84-.18,1,1,.18,5.91,1.06,1,.17.18-1,1.76-9.85.17-1Z"/><rect class="cls-5" x="291.68" y="52.88" width="2" height="2" transform="translate(14.06 -50.69) rotate(10.14)"/><rect class="cls-6" x="291.78" y="52.8" width="1" height="1" transform="translate(13.95 -50.63) rotate(10.14)"/><rect class="cls-7" x="292.58" y="53.96" width="1" height="1" transform="translate(14.17 -50.75) rotate(10.14)"/><path class="cls-3" d="M179,30.51l-1.76,9.84-5.91-1.06,1.76-9.84L179,30.51m1.16-.81-1-.18-5.91-1.05-1-.18-.18,1-1.76,9.85-.18,1,1,.18,5.9,1.06,1,.17.17-1L180,30.68l.17-1Z"/><rect class="cls-5" x="174.54" y="31.93" width="2" height="2" transform="translate(8.54 -30.39) rotate(10.14)"/><rect class="cls-6" x="174.64" y="31.85" width="1" height="1" transform="translate(8.43 -30.33) rotate(10.14)"/><rect class="cls-7" x="175.44" y="33.01" width="1" height="1" transform="translate(8.65 -30.45) rotate(10.14)"/><rect class="cls-3" x="305.02" y="58.37" width="14" height="2" transform="translate(15.33 -54.01) rotate(10.14)"/><rect class="cls-2" x="307.35" y="56.58" width="12" height="2" transform="translate(15.03 -54.27) rotate(10.14)"/><rect class="cls-2" x="311.67" y="54.96" width="8" height="2" transform="translate(14.78 -54.7) rotate(10.14)"/><rect class="cls-2" x="315.99" y="53.35" width="4" height="2" transform="translate(14.54 -55.14) rotate(10.14)"/><rect class="cls-2" x="319.92" y="33.7" width="2" height="20" transform="translate(12.71 -55.82) rotate(10.14)"/><rect class="cls-8" x="327.03" y="15.74" width="2" height="2" transform="matrix(-0.98, -0.18, 0.18, -0.98, 648, 90.96)"/><rect class="cls-9" x="329" y="16.09" width="2" height="2" transform="translate(651.84 92.01) rotate(-169.86)"/><rect class="cls-8" x="330.97" y="16.44" width="2" height="2" transform="translate(655.69 93.05) rotate(-169.86)"/><rect class="cls-9" x="332.94" y="16.79" width="2" height="2" transform="matrix(-0.98, -0.18, 0.18, -0.98, 659.53, 94.1)"/><rect class="cls-6" x="331.32" y="14.47" width="2" height="2" transform="matrix(-0.98, -0.18, 0.18, -0.98, 656.73, 89.21)"/><rect class="cls-10" x="329.35" y="14.12" width="2" height="2" transform="translate(652.89 88.16) rotate(-169.86)"/><rect class="cls-6" x="327.39" y="13.77" width="2" height="2" transform="translate(649.04 87.12) rotate(-169.86)"/><rect class="cls-6" x="327.74" y="11.8" width="2" height="2" transform="translate(650.09 83.27) rotate(-169.86)"/><rect class="cls-9" x="325.06" y="15.38" width="2" height="2" transform="translate(644.15 89.92) rotate(-169.86)"/><rect class="cls-10" x="325.42" y="13.41" width="2" height="2" transform="translate(645.2 86.07) rotate(-169.86)"/><rect class="cls-10" x="325.77" y="11.45" width="2" height="2" transform="translate(646.24 82.23) rotate(-169.86)"/><rect class="cls-10" x="329.71" y="12.15" width="2" height="2" transform="translate(653.93 84.32) rotate(-169.86)"/><rect class="cls-3" x="322.22" y="10.95" width="2" height="20" transform="translate(637.69 98.48) rotate(-169.86)"/><rect class="cls-2" x="288.1" y="29.05" width="38" height="2" transform="translate(10.09 -53.6) rotate(10.14)"/><rect class="cls-2" x="287.84" y="29.96" width="26" height="2" transform="translate(10.15 -52.48) rotate(10.14)"/><rect class="cls-2" x="287.57" y="31.05" width="16" height="2" transform="matrix(0.98, 0.18, -0.18, 0.98, 10.26, -51.54)"/><rect class="cls-3" x="321" y="31.97" width="2" height="34" transform="translate(13.65 -55.93) rotate(10.14)"/><rect class="cls-11" x="288.19" y="29.06" width="38" height="1" transform="translate(10 -53.62) rotate(10.14)"/><rect class="cls-11" x="288.19" y="28.11" width="16" height="1" transform="translate(9.66 -51.7) rotate(10.14)"/><rect class="cls-11" x="322" y="32.06" width="1" height="34" transform="translate(13.67 -56.01) rotate(10.14)"/><rect class="cls-2" x="282.01" y="45.14" width="2" height="12" transform="translate(13.42 -49.03) rotate(10.14)"/><rect class="cls-3" x="282.83" y="45.21" width="1" height="14" transform="translate(13.62 -49.07) rotate(10.14)"/><rect class="cls-2" x="286.62" y="35.72" width="2" height="2" transform="translate(10.96 -50.07) rotate(10.14)"/><rect class="cls-3" x="285.4" y="27.53" width="1" height="32" transform="translate(12.13 -49.66) rotate(10.14)"/><rect class="cls-11" x="165.3" y="51.15" width="156" height="1" transform="translate(12.89 -42.03) rotate(10.14)"/><rect class="cls-1" x="89.31" y="6.02" width="40" height="22" transform="translate(4.7 -18.98) rotate(10.14)"/><rect class="cls-1" x="66.91" y="10.49" width="22" height="12" transform="translate(4.12 -13.46) rotate(10.14)"/><rect class="cls-2" x="79.87" y="10.64" width="10" height="2" transform="translate(3.37 -14.76) rotate(10.14)"/><rect class="cls-2" x="66.38" y="14.44" width="22" height="10" transform="translate(4.63 -13.32) rotate(10.14)"/><rect class="cls-3" x="82.64" y="17.53" width="2" height="2" transform="translate(4.57 -14.44) rotate(10.14)"/><rect class="cls-3" x="66.03" y="18.41" width="22" height="6" transform="translate(4.97 -13.23) rotate(10.14)"/><rect class="cls-3" x="84.78" y="13.89" width="2" height="8" transform="translate(4.49 -14.82) rotate(10.14)"/><rect class="cls-2" x="89.71" y="24.06" width="38" height="4" transform="translate(6.29 -18.73) rotate(10.14)"/><rect class="cls-2" x="102.14" y="23.16" width="26" height="2" transform="translate(6.05 -19.89) rotate(10.14)"/><rect class="cls-2" x="112.41" y="22.07" width="16" height="2" transform="translate(5.94 -20.84) rotate(10.14)"/><rect class="cls-2" x="126.83" y="19.35" width="2" height="4" transform="translate(5.76 -22.17) rotate(10.14)"/><rect class="cls-3" x="89.35" y="26.03" width="38" height="4" transform="translate(6.63 -18.64) rotate(10.14)"/><polygon class="cls-2" points="17.17 40.16 0.7 10.8 356.76 74.49 352.19 100.08 17.17 40.16"/><rect class="cls-3" x="79.46" y="37.33" width="48" height="2" transform="translate(8.36 -17.62) rotate(10.14)"/><rect class="cls-3" x="188.45" y="52.76" width="48" height="2" transform="translate(12.78 -36.56) rotate(10.14)"/><rect class="cls-11" x="193.26" y="-148.37" width="4" height="392" transform="translate(276.53 -136.19) rotate(100.14)"/><rect class="cls-3" x="86.93" y="12.26" width="2" height="10" transform="translate(4.41 -15.21) rotate(10.14)"/><rect class="cls-2" x="192.63" y="-151.51" width="4" height="394" transform="translate(273.67 -138.09) rotate(100.14)"/><rect class="cls-1" x="193.8" y="-152.5" width="2" height="394" transform="translate(272.91 -139.42) rotate(100.14)"/><rect class="cls-11" x="9.53" y="6.48" width="2" height="1" transform="translate(1.39 -1.75) rotate(10.14)"/><rect class="cls-2" x="1.4" y="4.96" width="1" height="4" transform="translate(1.25 -0.23) rotate(10.14)"/><rect class="cls-3" x="2.39" y="5.13" width="1" height="4" transform="translate(1.3 -0.4) rotate(10.14)"/><rect class="cls-11" x="1.66" y="5.07" width="2" height="1" transform="translate(1.02 -0.38) rotate(10.14)"/><rect class="cls-2" x="9.28" y="6.36" width="1" height="4" transform="translate(1.63 -1.59) rotate(10.14)"/><rect class="cls-3" x="10.26" y="6.54" width="1" height="4" transform="translate(1.67 -1.76) rotate(10.14)"/><rect class="cls-2" x="17.15" y="7.77" width="1" height="4" transform="translate(2 -2.95) rotate(10.14)"/><rect class="cls-3" x="18.14" y="7.95" width="1" height="4" transform="translate(2.04 -3.13) rotate(10.14)"/><rect class="cls-2" x="25.03" y="9.18" width="1" height="4" transform="translate(2.37 -4.32) rotate(10.14)"/><rect class="cls-3" x="26.01" y="9.36" width="1" height="4" transform="translate(2.41 -4.49) rotate(10.14)"/><rect class="cls-2" x="32.9" y="10.59" width="1" height="4" transform="translate(2.74 -5.68) rotate(10.14)"/><rect class="cls-3" x="33.89" y="10.77" width="1" height="4" transform="translate(2.78 -5.85) rotate(10.14)"/><rect class="cls-2" x="40.78" y="12" width="1" height="4" transform="translate(3.11 -7.05) rotate(10.14)"/><rect class="cls-3" x="41.76" y="12.17" width="1" height="4" transform="translate(3.16 -7.22) rotate(10.14)"/><rect class="cls-2" x="48.65" y="13.41" width="1" height="4" transform="translate(3.48 -8.41) rotate(10.14)"/><rect class="cls-3" x="49.64" y="13.58" width="1" height="4" transform="translate(3.53 -8.58) rotate(10.14)"/><rect class="cls-2" x="56.53" y="14.81" width="1" height="4" transform="translate(3.85 -9.78) rotate(10.14)"/><rect class="cls-3" x="57.51" y="14.99" width="1" height="4" transform="translate(3.9 -9.95) rotate(10.14)"/><rect class="cls-2" x="64.4" y="16.22" width="1" height="4" transform="translate(4.22 -11.14) rotate(10.14)"/><rect class="cls-3" x="65.39" y="16.4" width="1" height="4" transform="translate(4.27 -11.31) rotate(10.14)"/><rect class="cls-2" x="72.28" y="17.63" width="1" height="4" transform="translate(4.59 -12.51) rotate(10.14)"/><rect class="cls-3" x="73.26" y="17.81" width="1" height="4" transform="translate(4.64 -12.68) rotate(10.14)"/><rect class="cls-2" x="80.15" y="19.04" width="1" height="4" transform="translate(4.96 -13.87) rotate(10.14)"/><rect class="cls-3" x="81.14" y="19.22" width="1" height="4" transform="translate(5.01 -14.04) rotate(10.14)"/><rect class="cls-2" x="95.9" y="21.86" width="1" height="4" transform="matrix(0.98, 0.18, -0.18, 0.98, 5.71, -16.6)"/><rect class="cls-3" x="96.89" y="22.03" width="1" height="4" transform="translate(5.75 -16.77) rotate(10.14)"/><rect class="cls-2" x="103.78" y="23.27" width="1" height="4" transform="translate(6.08 -17.96) rotate(10.14)"/><rect class="cls-3" x="104.76" y="23.44" width="1" height="4" transform="translate(6.12 -18.13) rotate(10.14)"/><rect class="cls-2" x="111.65" y="24.67" width="1" height="4" transform="translate(6.45 -19.33) rotate(10.14)"/><rect class="cls-3" x="112.64" y="24.85" width="1" height="4" transform="translate(6.49 -19.5) rotate(10.14)"/><rect class="cls-2" x="88.03" y="20.45" width="1" height="4" transform="translate(5.34 -15.24) rotate(10.14)"/><rect class="cls-3" x="89.01" y="20.62" width="1" height="4" transform="translate(5.38 -15.41) rotate(10.14)"/><rect class="cls-2" x="67.25" y="8.65" width="1" height="10" transform="translate(3.46 -11.71) rotate(10.14)"/><rect class="cls-3" x="66.9" y="12.62" width="1" height="6" transform="translate(3.8 -11.62) rotate(10.14)"/><rect class="cls-2" x="89.96" y="2.62" width="1" height="18" transform="translate(3.46 -15.75) rotate(10.14)"/><rect class="cls-11" x="87.75" y="12.34" width="1" height="12" transform="translate(4.61 -15.25) rotate(10.14)"/><rect class="cls-2" x="127.71" y="15.43" width="2" height="2" transform="translate(4.9 -22.4) rotate(10.14)"/><rect class="cls-2" x="128.42" y="11.49" width="2" height="2" transform="translate(4.22 -22.59) rotate(10.14)"/><rect class="cls-4" x="128" y="9.46" width="1" height="22" transform="translate(5.61 -22.3) rotate(10.14)"/><rect class="cls-6" x="-0.03" y="25.03" width="240" height="1" transform="translate(6.37 -20.72) rotate(10.14)"/><rect class="cls-11" x="9.53" y="6.48" width="2" height="1" transform="translate(1.39 -1.75) rotate(10.14)"/><rect class="cls-11" x="17.41" y="7.88" width="2" height="1" transform="translate(1.76 -3.11) rotate(10.14)"/><rect class="cls-11" x="25.28" y="9.29" width="2" height="1" transform="translate(2.13 -4.47) rotate(10.14)"/><rect class="cls-11" x="33.16" y="10.7" width="2" height="1" transform="translate(2.51 -5.84) rotate(10.14)"/><rect class="cls-11" x="41.03" y="12.11" width="2" height="1" transform="translate(2.88 -7.2) rotate(10.14)"/><rect class="cls-11" x="48.91" y="13.52" width="2" height="1" transform="translate(3.25 -8.57) rotate(10.14)"/><rect class="cls-11" x="56.78" y="14.93" width="2" height="1" transform="translate(3.62 -9.93) rotate(10.14)"/><rect class="cls-11" x="64.66" y="16.33" width="2" height="1" transform="translate(3.99 -11.3) rotate(10.14)"/><rect class="cls-11" x="72.53" y="17.74" width="2" height="1" transform="translate(4.36 -12.66) rotate(10.14)"/><rect class="cls-11" x="80.41" y="19.15" width="2" height="1" transform="translate(4.73 -14.03) rotate(10.14)"/><rect class="cls-11" x="88.28" y="20.56" width="2" height="1" transform="translate(5.1 -15.39) rotate(10.14)"/><rect class="cls-11" x="96.16" y="21.97" width="2" height="1" transform="translate(5.47 -16.75) rotate(10.14)"/><rect class="cls-11" x="104.03" y="23.38" width="2" height="1" transform="translate(5.84 -18.12) rotate(10.14)"/><rect class="cls-11" x="111.91" y="24.79" width="2" height="1" transform="translate(6.22 -19.48) rotate(10.14)"/><rect class="cls-2" x="119.53" y="26.08" width="1" height="4" transform="translate(6.82 -20.69) rotate(10.14)"/><rect class="cls-3" x="120.51" y="26.26" width="1" height="4" transform="translate(6.87 -20.86) rotate(10.14)"/><rect class="cls-11" x="119.78" y="26.19" width="2" height="1" transform="translate(6.59 -20.85) rotate(10.14)"/><rect class="cls-2" x="127.4" y="27.49" width="1" height="4" transform="translate(7.19 -22.06) rotate(10.14)"/><rect class="cls-3" x="128.39" y="27.67" width="1" height="4" transform="matrix(0.98, 0.18, -0.18, 0.98, 7.24, -22.23)"/><rect class="cls-11" x="127.66" y="27.6" width="2" height="1" transform="translate(6.96 -22.21) rotate(10.14)"/><rect class="cls-2" x="135.28" y="28.9" width="1" height="4" transform="translate(7.56 -23.42) rotate(10.14)"/><rect class="cls-3" x="136.26" y="29.08" width="1" height="4" transform="translate(7.61 -23.59) rotate(10.14)"/><rect class="cls-11" x="135.53" y="29.01" width="2" height="1" transform="translate(7.33 -23.58) rotate(10.14)"/><rect class="cls-2" x="143.15" y="30.31" width="1" height="4" transform="matrix(0.98, 0.18, -0.18, 0.98, 7.93, -24.79)"/><rect class="cls-3" x="144.14" y="30.48" width="1" height="4" transform="translate(7.98 -24.96) rotate(10.14)"/><rect class="cls-11" x="143.41" y="30.42" width="2" height="1" transform="translate(7.7 -24.94) rotate(10.14)"/><rect class="cls-2" x="151.03" y="31.72" width="1" height="4" transform="translate(8.3 -26.15) rotate(10.14)"/><rect class="cls-3" x="152.01" y="31.89" width="1" height="4" transform="translate(8.35 -26.32) rotate(10.14)"/><rect class="cls-11" x="151.28" y="31.83" width="2" height="1" transform="translate(8.07 -26.31) rotate(10.14)"/><rect class="cls-2" x="158.9" y="33.12" width="1" height="4" transform="translate(8.67 -27.52) rotate(10.14)"/><rect class="cls-3" x="159.89" y="33.3" width="1" height="4" transform="translate(8.72 -27.69) rotate(10.14)"/><rect class="cls-11" x="159.16" y="33.24" width="2" height="1" transform="translate(8.44 -27.67) rotate(10.14)"/><rect class="cls-2" x="166.78" y="34.53" width="1" height="4" transform="translate(9.05 -28.88) rotate(10.14)"/><rect class="cls-3" x="167.76" y="34.71" width="1" height="4" transform="translate(9.09 -29.05) rotate(10.14)"/><rect class="cls-11" x="167.03" y="34.64" width="2" height="1" transform="translate(8.81 -29.03) rotate(10.14)"/><rect class="cls-2" x="174.65" y="35.94" width="1" height="4" transform="translate(9.42 -30.24) rotate(10.14)"/><rect class="cls-3" x="175.64" y="36.12" width="1" height="4" transform="translate(9.46 -30.42) rotate(10.14)"/><rect class="cls-11" x="174.91" y="36.05" width="2" height="1" transform="translate(9.18 -30.4) rotate(10.14)"/><rect class="cls-2" x="182.53" y="37.35" width="1" height="4" transform="translate(9.79 -31.61) rotate(10.14)"/><rect class="cls-3" x="183.51" y="37.53" width="1" height="4" transform="translate(9.83 -31.78) rotate(10.14)"/><rect class="cls-11" x="182.78" y="37.46" width="2" height="1" transform="translate(9.55 -31.76) rotate(10.14)"/><rect class="cls-2" x="190.4" y="38.76" width="1" height="4" transform="translate(10.16 -32.97) rotate(10.14)"/><rect class="cls-3" x="191.39" y="38.93" width="1" height="4" transform="matrix(0.98, 0.18, -0.18, 0.98, 10.2, -33.14)"/><rect class="cls-11" x="190.66" y="38.87" width="2" height="1" transform="translate(9.93 -33.13) rotate(10.14)"/><rect class="cls-2" x="198.28" y="40.17" width="1" height="4" transform="translate(10.53 -34.34) rotate(10.14)"/><rect class="cls-3" x="199.26" y="40.34" width="1" height="4" transform="translate(10.58 -34.51) rotate(10.14)"/><rect class="cls-11" x="198.53" y="40.28" width="2" height="1" transform="translate(10.3 -34.49) rotate(10.14)"/><rect class="cls-2" x="206.15" y="41.58" width="1" height="4" transform="translate(10.9 -35.7) rotate(10.14)"/><rect class="cls-3" x="207.14" y="41.75" width="1" height="4" transform="translate(10.95 -35.87) rotate(10.14)"/><rect class="cls-11" x="206.41" y="41.69" width="2" height="1" transform="translate(10.67 -35.86) rotate(10.14)"/><rect class="cls-2" x="214.03" y="42.98" width="1" height="4" transform="translate(11.27 -37.07) rotate(10.14)"/><rect class="cls-3" x="215.01" y="43.16" width="1" height="4" transform="translate(11.32 -37.24) rotate(10.14)"/><rect class="cls-11" x="214.28" y="43.1" width="2" height="1" transform="translate(11.04 -37.22) rotate(10.14)"/><rect class="cls-2" x="221.9" y="44.39" width="1" height="4" transform="translate(11.64 -38.43) rotate(10.14)"/><rect class="cls-3" x="222.89" y="44.57" width="1" height="4" transform="translate(11.69 -38.6) rotate(10.14)"/><rect class="cls-11" x="222.16" y="44.5" width="2" height="1" transform="translate(11.41 -38.59) rotate(10.14)"/><rect class="cls-2" x="229.78" y="45.8" width="1" height="4" transform="translate(12.01 -39.8) rotate(10.14)"/><rect class="cls-3" x="230.76" y="45.98" width="1" height="4" transform="translate(12.06 -39.97) rotate(10.14)"/><rect class="cls-11" x="230.03" y="45.91" width="2" height="1" transform="translate(11.78 -39.95) rotate(10.14)"/><rect class="cls-11" x="245.78" y="48.73" width="2" height="1" transform="translate(12.52 -42.68) rotate(10.14)"/><rect class="cls-2" x="237.65" y="47.21" width="1" height="4" transform="translate(12.38 -41.16) rotate(10.14)"/><rect class="cls-3" x="238.64" y="47.39" width="1" height="4" transform="translate(12.43 -41.33) rotate(10.14)"/><rect class="cls-11" x="237.91" y="47.32" width="2" height="1" transform="translate(12.15 -41.32) rotate(10.14)"/><rect class="cls-2" x="245.53" y="48.62" width="1" height="4" transform="translate(12.75 -42.52) rotate(10.14)"/><rect class="cls-3" x="246.51" y="48.79" width="1" height="4" transform="translate(12.8 -42.7) rotate(10.14)"/><rect class="cls-2" x="253.4" y="50.03" width="1" height="4" transform="translate(13.13 -43.89) rotate(10.14)"/><rect class="cls-3" x="254.39" y="50.2" width="1" height="4" transform="translate(13.17 -44.06) rotate(10.14)"/><rect class="cls-2" x="261.28" y="51.44" width="1" height="4" transform="translate(13.5 -45.25) rotate(10.14)"/><rect class="cls-3" x="262.26" y="51.61" width="1" height="4" transform="translate(13.54 -45.42) rotate(10.14)"/><rect class="cls-2" x="269.15" y="52.84" width="1" height="4" transform="translate(13.87 -46.62) rotate(10.14)"/><rect class="cls-3" x="270.14" y="53.02" width="1" height="4" transform="translate(13.91 -46.79) rotate(10.14)"/><rect class="cls-2" x="277.03" y="54.25" width="1" height="4" transform="translate(14.24 -47.98) rotate(10.14)"/><rect class="cls-3" x="278.01" y="54.43" width="1" height="4" transform="translate(14.29 -48.15) rotate(10.14)"/><rect class="cls-2" x="284.9" y="55.66" width="1" height="4" transform="translate(14.61 -49.35) rotate(10.14)"/><rect class="cls-3" x="285.89" y="55.84" width="1" height="4" transform="translate(14.66 -49.52) rotate(10.14)"/><rect class="cls-2" x="292.78" y="57.07" width="1" height="4" transform="translate(14.98 -50.71) rotate(10.14)"/><rect class="cls-3" x="293.76" y="57.25" width="1" height="4" transform="translate(15.03 -50.88) rotate(10.14)"/><rect class="cls-2" x="300.65" y="58.48" width="1" height="4" transform="matrix(0.98, 0.18, -0.18, 0.98, 15.35, -52.08)"/><rect class="cls-3" x="301.64" y="58.65" width="1" height="4" transform="translate(15.4 -52.25) rotate(10.14)"/><rect class="cls-2" x="308.53" y="59.89" width="1" height="4" transform="translate(15.72 -53.44) rotate(10.14)"/><rect class="cls-3" x="309.51" y="60.06" width="1" height="4" transform="translate(15.77 -53.61) rotate(10.14)"/><rect class="cls-2" x="316.4" y="61.29" width="1" height="4" transform="translate(16.09 -54.81) rotate(10.14)"/><rect class="cls-3" x="317.39" y="61.47" width="1" height="4" transform="translate(16.14 -54.98) rotate(10.14)"/><rect class="cls-2" x="332.15" y="64.11" width="1" height="4" transform="translate(16.84 -57.53) rotate(10.14)"/><rect class="cls-3" x="333.14" y="64.29" width="1" height="4" transform="translate(16.88 -57.7) rotate(10.14)"/><rect class="cls-2" x="340.03" y="65.52" width="1" height="4" transform="translate(17.21 -58.9) rotate(10.14)"/><rect class="cls-3" x="341.01" y="65.7" width="1" height="4" transform="translate(17.25 -59.07) rotate(10.14)"/><rect class="cls-2" x="347.9" y="66.93" width="1" height="4" transform="matrix(0.98, 0.18, -0.18, 0.98, 17.58, -60.26)"/><rect class="cls-3" x="348.89" y="67.1" width="1" height="4" transform="translate(17.62 -60.43) rotate(10.14)"/><rect class="cls-2" x="324.28" y="62.7" width="1" height="4" transform="translate(16.46 -56.17) rotate(10.14)"/><rect class="cls-3" x="325.26" y="62.88" width="1" height="4" transform="translate(16.51 -56.34) rotate(10.14)"/><rect class="cls-6" x="236.9" y="59.72" width="154" height="1" transform="translate(15.51 -54.32) rotate(10.14)"/><rect class="cls-11" x="245.78" y="48.73" width="2" height="1" transform="translate(12.52 -42.68) rotate(10.14)"/><rect class="cls-11" x="253.66" y="50.14" width="2" height="1" transform="translate(12.89 -44.04) rotate(10.14)"/><rect class="cls-11" x="261.53" y="51.55" width="2" height="1" transform="translate(13.26 -45.41) rotate(10.14)"/><rect class="cls-11" x="269.41" y="52.96" width="2" height="1" transform="translate(13.64 -46.77) rotate(10.14)"/><rect class="cls-11" x="277.28" y="54.36" width="2" height="1" transform="translate(14.01 -48.14) rotate(10.14)"/><rect class="cls-11" x="285.16" y="55.77" width="2" height="1" transform="translate(14.38 -49.5) rotate(10.14)"/><rect class="cls-11" x="293.03" y="57.18" width="2" height="1" transform="translate(14.75 -50.87) rotate(10.14)"/><rect class="cls-11" x="300.91" y="58.59" width="2" height="1" transform="translate(15.12 -52.23) rotate(10.14)"/><rect class="cls-11" x="308.78" y="60" width="2" height="1" transform="translate(15.49 -53.6) rotate(10.14)"/><rect class="cls-11" x="316.66" y="61.41" width="2" height="1" transform="translate(15.86 -54.96) rotate(10.14)"/><rect class="cls-11" x="324.53" y="62.81" width="2" height="1" transform="translate(16.23 -56.32) rotate(10.14)"/><rect class="cls-11" x="332.41" y="64.22" width="2" height="1" transform="translate(16.6 -57.69) rotate(10.14)"/><rect class="cls-11" x="340.28" y="65.63" width="2" height="1" transform="translate(16.97 -59.05) rotate(10.14)"/><rect class="cls-11" x="348.16" y="67.04" width="2" height="1" transform="translate(17.35 -60.42) rotate(10.14)"/><rect class="cls-2" x="355.78" y="68.34" width="1" height="4" transform="translate(17.95 -61.63) rotate(10.14)"/><rect class="cls-3" x="356.76" y="68.51" width="1" height="4" transform="translate(18 -61.8) rotate(10.14)"/><rect class="cls-11" x="356.03" y="68.45" width="2" height="1" transform="translate(17.72 -61.78) rotate(10.14)"/><rect class="cls-2" x="363.65" y="69.75" width="1" height="4" transform="translate(18.32 -62.99) rotate(10.14)"/><rect class="cls-3" x="364.64" y="69.92" width="1" height="4" transform="translate(18.37 -63.16) rotate(10.14)"/><rect class="cls-11" x="363.91" y="69.86" width="2" height="1" transform="translate(18.09 -63.15) rotate(10.14)"/><rect class="cls-2" x="371.53" y="71.15" width="1" height="4" transform="translate(18.69 -64.36) rotate(10.14)"/><rect class="cls-3" x="372.51" y="71.33" width="1" height="4" transform="translate(18.74 -64.53) rotate(10.14)"/><rect class="cls-11" x="371.78" y="71.27" width="2" height="1" transform="translate(18.46 -64.51) rotate(10.14)"/><rect class="cls-2" x="379.4" y="72.56" width="1" height="4" transform="translate(19.06 -65.72) rotate(10.14)"/><rect class="cls-3" x="380.39" y="72.74" width="1" height="4" transform="translate(19.11 -65.89) rotate(10.14)"/><rect class="cls-11" x="379.66" y="72.67" width="2" height="1" transform="translate(18.83 -65.88) rotate(10.14)"/><rect class="cls-2" x="387.28" y="73.97" width="1" height="4" transform="translate(19.43 -67.09) rotate(10.14)"/><rect class="cls-3" x="388.26" y="74.15" width="1" height="4" transform="translate(19.48 -67.26) rotate(10.14)"/><rect class="cls-11" x="387.53" y="74.08" width="2" height="1" transform="translate(19.2 -67.24) rotate(10.14)"/><rect class="cls-11" x="234.82" y="30.51" width="2" height="1" transform="translate(9.14 -41.03) rotate(10.14)"/><rect class="cls-2" x="226.69" y="28.99" width="1" height="4" transform="translate(9.01 -39.51) rotate(10.14)"/><rect class="cls-3" x="227.67" y="29.17" width="1" height="4" transform="translate(9.05 -39.69) rotate(10.14)"/><rect class="cls-11" x="226.94" y="29.11" width="2" height="1" transform="translate(8.77 -39.67) rotate(10.14)"/><rect class="cls-2" x="234.56" y="30.4" width="1" height="4" transform="matrix(0.98, 0.18, -0.18, 0.98, 9.38, -40.88)"/><rect class="cls-3" x="235.55" y="30.58" width="1" height="4" transform="translate(9.42 -41.05) rotate(10.14)"/><rect class="cls-2" x="242.44" y="31.81" width="1" height="4" transform="translate(9.75 -42.24) rotate(10.14)"/><rect class="cls-3" x="243.42" y="31.99" width="1" height="4" transform="translate(9.79 -42.41) rotate(10.14)"/><rect class="cls-2" x="250.31" y="33.22" width="1" height="4" transform="translate(10.12 -43.61) rotate(10.14)"/><rect class="cls-3" x="251.3" y="33.4" width="1" height="4" transform="translate(10.17 -43.78) rotate(10.14)"/><rect class="cls-2" x="258.19" y="34.63" width="1" height="4" transform="translate(10.49 -44.97) rotate(10.14)"/><rect class="cls-3" x="259.17" y="34.8" width="1" height="4" transform="matrix(0.98, 0.18, -0.18, 0.98, 10.54, -45.14)"/><rect class="cls-2" x="266.06" y="36.04" width="1" height="4" transform="translate(10.86 -46.34) rotate(10.14)"/><rect class="cls-3" x="267.05" y="36.21" width="1" height="4" transform="translate(10.91 -46.51) rotate(10.14)"/><rect class="cls-2" x="273.94" y="37.45" width="1" height="4" transform="translate(11.23 -47.7) rotate(10.14)"/><rect class="cls-3" x="274.92" y="37.62" width="1" height="4" transform="translate(11.28 -47.87) rotate(10.14)"/><rect class="cls-6" x="224.68" y="33.05" width="62" height="1" transform="translate(9.9 -44.49) rotate(10.14)"/><rect class="cls-11" x="234.82" y="30.51" width="2" height="1" transform="translate(9.14 -41.03) rotate(10.14)"/><rect class="cls-11" x="242.69" y="31.92" width="2" height="1" transform="translate(9.52 -42.4) rotate(10.14)"/><rect class="cls-11" x="250.57" y="33.33" width="2" height="1" transform="translate(9.89 -43.76) rotate(10.14)"/><rect class="cls-11" x="258.44" y="34.74" width="2" height="1" transform="translate(10.26 -45.13) rotate(10.14)"/><rect class="cls-11" x="266.32" y="36.15" width="2" height="1" transform="translate(10.63 -46.49) rotate(10.14)"/><rect class="cls-11" x="274.19" y="37.56" width="2" height="1" transform="translate(11 -47.86) rotate(10.14)"/><rect class="cls-2" x="281.81" y="38.85" width="1" height="4" transform="matrix(0.98, 0.18, -0.18, 0.98, 11.6, -49.07)"/><rect class="cls-3" x="282.8" y="39.03" width="1" height="4" transform="translate(11.65 -49.24) rotate(10.14)"/><rect class="cls-11" x="282.07" y="38.97" width="2" height="1" transform="translate(11.37 -49.22) rotate(10.14)"/><rect class="cls-3" x="2.42" y="30.57" width="172" height="2" transform="translate(6.94 -15.07) rotate(10.14)"/><rect class="cls-3" x="8.94" y="22.68" width="48" height="2" transform="translate(4.68 -5.43) rotate(10.14)"/><rect class="cls-3" x="10.75" y="24.79" width="68" height="2" transform="translate(5.24 -7.48) rotate(10.14)"/><rect class="cls-3" x="10.56" y="25" width="48" height="2" transform="translate(5.12 -5.68) rotate(10.14)"/><rect class="cls-3" x="10.25" y="26.44" width="42" height="2" transform="translate(5.32 -5.07) rotate(10.14)"/><rect class="cls-3" x="13.84" y="29.12" width="42" height="2" transform="translate(5.85 -5.66) rotate(10.14)"/><rect class="cls-3" x="15.53" y="30.56" width="32" height="2" transform="translate(6.05 -5.06) rotate(10.14)"/><rect class="cls-3" x="13.21" y="32.17" width="32" height="2" transform="translate(6.3 -4.62) rotate(10.14)"/><rect class="cls-3" x="18.77" y="35.2" width="32" height="2" transform="translate(6.92 -5.56) rotate(10.14)"/><rect class="cls-3" x="20.38" y="37.52" width="32" height="2" transform="translate(7.35 -5.8) rotate(10.14)"/><rect class="cls-3" x="20.03" y="39.49" width="32" height="2" transform="translate(7.69 -5.71) rotate(10.14)"/><rect class="cls-3" x="0.13" y="13.29" width="6" height="2" transform="translate(2.56 -0.33) rotate(10.14)"/><rect class="cls-11" x="5.71" y="15.96" width="2" height="2" transform="translate(3.09 -0.92) rotate(10.14)"/><rect class="cls-3" x="5.36" y="17.93" width="2" height="2" transform="translate(3.43 -0.82) rotate(10.14)"/><rect class="cls-11" x="7.33" y="18.28" width="2" height="2" transform="translate(3.52 -1.17) rotate(10.14)"/><rect class="cls-3" x="6.98" y="20.25" width="2" height="2" transform="translate(3.87 -1.07) rotate(10.14)"/><rect class="cls-11" x="8.95" y="20.6" width="2" height="2" transform="translate(3.96 -1.41) rotate(10.14)"/><rect class="cls-3" x="8.6" y="22.57" width="2" height="2" transform="matrix(0.98, 0.18, -0.18, 0.98, 4.3, -1.32)"/><rect class="cls-3" x="13.45" y="29.53" width="2" height="2" transform="translate(5.6 -2.07) rotate(10.14)"/><rect class="cls-11" x="10.56" y="22.92" width="2" height="2" transform="translate(4.39 -1.66) rotate(10.14)"/><rect class="cls-11" x="12.18" y="25.24" width="2" height="2" transform="translate(4.83 -1.91) rotate(10.14)"/><rect class="cls-11" x="11.81" y="27.39" width="4" height="2" transform="translate(5.21 -1.99) rotate(10.14)"/><rect class="cls-3" x="11.83" y="27.21" width="2" height="2" transform="translate(5.17 -1.82) rotate(10.14)"/><rect class="cls-3" x="10.21" y="24.89" width="2" height="2" transform="translate(4.73 -1.57) rotate(10.14)"/><rect class="cls-11" x="15.41" y="29.88" width="2" height="2" transform="translate(5.69 -2.41) rotate(10.14)"/><rect class="cls-3" x="15.06" y="31.85" width="2" height="2" transform="translate(6.04 -2.31) rotate(10.14)"/><rect class="cls-11" x="17.03" y="32.21" width="2" height="2" transform="translate(6.13 -2.66) rotate(10.14)"/><rect class="cls-3" x="16.68" y="34.17" width="2" height="2" transform="translate(6.47 -2.56) rotate(10.14)"/><rect class="cls-11" x="18.65" y="34.53" width="2" height="2" transform="translate(6.56 -2.9) rotate(10.14)"/><rect class="cls-3" x="18.3" y="36.49" width="2" height="2" transform="translate(6.9 -2.81) rotate(10.14)"/><rect class="cls-11" x="20.26" y="36.85" width="2" height="2" transform="translate(7 -3.15) rotate(10.14)"/><rect class="cls-3" x="19.91" y="38.82" width="2" height="2" transform="translate(7.34 -3.06) rotate(10.14)"/><rect class="cls-3" x="22.75" y="51.96" width="143.28" height="2" transform="translate(10.8 -15.79) rotate(10.14)"/><rect class="cls-11" x="21.88" y="39.17" width="2" height="2" transform="translate(7.43 -3.4) rotate(10.14)"/><rect class="cls-3" x="52.47" y="38.54" width="2" height="2" transform="translate(7.8 -8.8) rotate(10.14)"/><rect class="cls-3" x="57.11" y="35.31" width="2" height="2" transform="translate(7.3 -9.66) rotate(10.14)"/><rect class="cls-3" x="53.17" y="34.61" width="2" height="2" transform="translate(7.12 -8.98) rotate(10.14)"/><rect class="cls-3" x="50.85" y="36.22" width="2" height="2" transform="translate(7.36 -8.55) rotate(10.14)"/><rect class="cls-3" x="49.24" y="33.9" width="2" height="2" transform="translate(6.93 -8.3) rotate(10.14)"/><rect class="cls-3" x="46.91" y="35.52" width="2" height="2" transform="translate(7.18 -7.87) rotate(10.14)"/><rect class="cls-3" x="53.88" y="30.67" width="2" height="2" transform="translate(6.43 -9.17) rotate(10.14)"/><rect class="cls-3" x="55.49" y="32.99" width="2" height="2" transform="translate(6.87 -9.42) rotate(10.14)"/><rect class="cls-3" x="57.81" y="31.37" width="2" height="2" transform="translate(6.62 -9.85) rotate(10.14)"/><rect class="cls-3" x="60.14" y="29.76" width="2" height="2" transform="translate(6.37 -10.28) rotate(10.14)"/><rect class="cls-11" x="11.62" y="17.02" width="2" height="2" transform="translate(3.37 -1.94) rotate(10.14)"/><rect class="cls-11" x="13.24" y="19.34" width="2" height="2" transform="translate(3.8 -2.19) rotate(10.14)"/><rect class="cls-11" x="14.85" y="21.66" width="2" height="2" transform="translate(4.24 -2.44) rotate(10.14)"/><rect class="cls-11" x="15.56" y="17.72" width="2" height="2" transform="translate(3.55 -2.62) rotate(10.14)"/><rect class="cls-11" x="7.68" y="16.31" width="2" height="2" transform="translate(3.18 -1.26) rotate(10.14)"/><rect class="cls-11" x="16.47" y="23.98" width="2" height="2" transform="translate(4.67 -2.69) rotate(10.14)"/><rect class="cls-11" x="17.18" y="20.04" width="2" height="2" transform="translate(3.99 -2.87) rotate(10.14)"/><rect class="cls-11" x="19.5" y="18.42" width="2" height="2" transform="translate(3.74 -3.31) rotate(10.14)"/><rect class="cls-11" x="18.09" y="26.3" width="2" height="2" transform="translate(5.1 -2.93) rotate(10.14)"/><rect class="cls-11" x="14.15" y="25.59" width="2" height="2" transform="translate(4.92 -2.25) rotate(10.14)"/><rect class="cls-11" x="9.3" y="18.63" width="2" height="2" transform="translate(3.62 -1.51) rotate(10.14)"/><rect class="cls-11" x="10.92" y="20.95" width="2" height="2" transform="translate(4.05 -1.76) rotate(10.14)"/><rect class="cls-11" x="12.53" y="23.27" width="2" height="2" transform="translate(4.49 -2) rotate(10.14)"/><rect class="cls-11" x="15.77" y="27.92" width="2" height="2" transform="translate(5.35 -2.5) rotate(10.14)"/><rect class="cls-11" x="21.11" y="20.74" width="2" height="2" transform="translate(4.17 -3.55) rotate(10.14)"/><rect class="cls-11" x="23.43" y="19.13" width="2" height="2" transform="translate(3.93 -3.99) rotate(10.14)"/><rect class="cls-3" x="58.37" y="39.6" width="2" height="2" transform="translate(8.08 -9.82) rotate(10.14)"/><rect class="cls-3" x="54.79" y="36.93" width="2" height="2" transform="translate(7.55 -9.23) rotate(10.14)"/><rect class="cls-3" x="54.09" y="40.86" width="2" height="2" transform="translate(8.23 -9.04) rotate(10.14)"/><rect class="cls-3" x="55.7" y="43.19" width="2" height="2" transform="translate(8.66 -9.29) rotate(10.14)"/><rect class="cls-3" x="51.76" y="42.48" width="2" height="2" transform="translate(8.48 -8.61) rotate(10.14)"/><rect class="cls-3" x="59.99" y="41.92" width="2" height="2" transform="translate(8.51 -10.07) rotate(10.14)"/><rect class="cls-3" x="60.7" y="37.98" width="2" height="2" transform="translate(7.83 -10.25) rotate(10.14)"/><rect class="cls-3" x="63.37" y="34.4" width="2" height="2" transform="translate(7.24 -10.78) rotate(10.14)"/><rect class="cls-3" x="64.07" y="30.46" width="2" height="2" transform="translate(6.56 -10.97) rotate(10.14)"/><rect class="cls-3" x="59.43" y="33.69" width="2" height="2" transform="translate(7.05 -10.1) rotate(10.14)"/><rect class="cls-3" x="64.63" y="38.69" width="2" height="2" transform="translate(8.01 -10.94) rotate(10.14)"/><rect class="cls-3" x="65.9" y="42.98" width="2" height="2" transform="translate(8.79 -11.09) rotate(10.14)"/><rect class="cls-3" x="69.63" y="33.49" width="2" height="2" transform="translate(7.17 -11.9) rotate(10.14)"/><rect class="cls-3" x="70.89" y="37.78" width="2" height="2" transform="translate(7.95 -12.05) rotate(10.14)"/><rect class="cls-3" x="212.09" y="68.07" width="172" height="2" transform="translate(579.36 189.55) rotate(-169.86)"/><rect class="cls-3" x="328.86" y="79.9" width="48" height="2" transform="translate(685.97 222.66) rotate(-169.86)"/><rect class="cls-3" x="307.05" y="77.79" width="68" height="2" transform="translate(662.9 216.39) rotate(-169.86)"/><rect class="cls-3" x="326.54" y="81.52" width="48" height="2" transform="translate(681.08 225.46) rotate(-169.86)"/><rect class="cls-3" x="332.14" y="84.01" width="42" height="2" transform="translate(685.8 230.88) rotate(-169.86)"/><rect class="cls-3" x="327.85" y="85.28" width="42" height="2" transform="matrix(-0.98, -0.18, 0.18, -0.98, 677.07, 232.63)"/><rect class="cls-3" x="335.46" y="87.78" width="32" height="2" transform="translate(681.79 238.04) rotate(-169.86)"/><rect class="cls-3" x="337.07" y="90.1" width="32" height="2" transform="translate(684.59 242.93) rotate(-169.86)"/><rect class="cls-3" x="330.81" y="91.01" width="32" height="2" transform="translate(672.01 243.64) rotate(-169.86)"/><rect class="cls-3" x="328.49" y="92.63" width="32" height="2" transform="translate(667.12 246.44) rotate(-169.86)"/><rect class="cls-3" x="328.14" y="94.59" width="32" height="2" transform="matrix(-0.98, -0.18, 0.18, -0.98, 666.08, 250.29)"/><rect class="cls-3" x="381.08" y="81.42" width="6" height="2" transform="translate(747.66 231.18) rotate(-169.86)"/><rect class="cls-11" x="378.79" y="82.69" width="2" height="2" transform="translate(738.92 232.93) rotate(-169.86)"/><rect class="cls-3" x="378.44" y="84.65" width="2" height="2" transform="translate(737.88 236.78) rotate(-169.86)"/><rect class="cls-11" x="376.47" y="84.3" width="2" height="2" transform="translate(734.03 235.73) rotate(-169.86)"/><rect class="cls-3" x="376.12" y="86.27" width="2" height="2" transform="translate(732.99 239.58) rotate(-169.86)"/><rect class="cls-11" x="374.15" y="85.92" width="2" height="2" transform="translate(729.14 238.53) rotate(-169.86)"/><rect class="cls-3" x="373.8" y="87.89" width="2" height="2" transform="translate(728.1 242.38) rotate(-169.86)"/><rect class="cls-3" x="366.84" y="92.74" width="2" height="2" transform="translate(713.43 250.77) rotate(-169.86)"/><rect class="cls-11" x="371.83" y="87.54" width="2" height="2" transform="translate(724.25 241.33) rotate(-169.86)"/><rect class="cls-11" x="369.51" y="89.15" width="2" height="2" transform="translate(719.36 244.13) rotate(-169.86)"/><rect class="cls-11" x="367.17" y="90.95" width="4" height="2" transform="translate(716.39 247.45) rotate(-169.86)"/><rect class="cls-3" x="369.16" y="91.12" width="2" height="2" transform="translate(718.32 247.97) rotate(-169.86)"/><rect class="cls-3" x="371.48" y="89.5" width="2" height="2" transform="translate(723.21 245.17) rotate(-169.86)"/><rect class="cls-11" x="364.87" y="92.39" width="2" height="2" transform="translate(709.58 249.73) rotate(-169.86)"/><rect class="cls-3" x="364.52" y="94.35" width="2" height="2" transform="translate(708.54 253.57) rotate(-169.86)"/><rect class="cls-11" x="362.55" y="94" width="2" height="2" transform="translate(704.69 252.53) rotate(-169.86)"/><rect class="cls-3" x="362.2" y="95.97" width="2" height="2" transform="translate(703.65 256.37) rotate(-169.86)"/><rect class="cls-11" x="360.23" y="95.62" width="2" height="2" transform="translate(699.8 255.33) rotate(-169.86)"/><rect class="cls-3" x="359.88" y="97.59" width="2" height="2" transform="translate(698.76 259.17) rotate(-169.86)"/><rect class="cls-11" x="357.91" y="97.24" width="2" height="2" transform="translate(694.91 258.13) rotate(-169.86)"/><rect class="cls-3" x="357.55" y="99.2" width="2" height="2" transform="translate(693.87 261.97) rotate(-169.86)"/><rect class="cls-3" x="262.34" y="90.4" width="94" height="2" transform="translate(597.75 235.84) rotate(-169.86)"/><rect class="cls-11" x="355.59" y="98.85" width="2" height="2" transform="translate(690.02 260.93) rotate(-169.86)"/><rect class="cls-3" x="327.11" y="87.66" width="2" height="2" transform="translate(635.49 233.71) rotate(-169.86)"/><rect class="cls-3" x="323.88" y="83.02" width="2" height="2" transform="translate(629.89 223.93) rotate(-169.86)"/><rect class="cls-3" x="327.81" y="83.73" width="2" height="2" transform="translate(637.58 226.02) rotate(-169.86)"/><rect class="cls-3" x="329.43" y="86.05" width="2" height="2" transform="translate(640.38 230.91) rotate(-169.86)"/><rect class="cls-3" x="331.75" y="84.43" width="2" height="2" transform="translate(645.27 228.11) rotate(-169.86)"/><rect class="cls-3" x="333.37" y="86.75" width="2" height="2" transform="translate(648.07 233) rotate(-169.86)"/><rect class="cls-3" x="328.52" y="79.79" width="2" height="2" transform="translate(639.67 218.33) rotate(-169.86)"/><rect class="cls-3" x="326.2" y="81.41" width="2" height="2" transform="translate(634.78 221.13) rotate(-169.86)"/><rect class="cls-3" x="324.58" y="79.09" width="2" height="2" transform="translate(631.98 216.24) rotate(-169.86)"/><rect class="cls-3" x="322.96" y="76.76" width="2" height="2" transform="translate(629.18 211.35) rotate(-169.86)"/><rect class="cls-11" x="372.89" y="81.63" width="2" height="2" transform="translate(727.39 229.8) rotate(-169.86)"/><rect class="cls-11" x="370.57" y="83.25" width="2" height="2" transform="translate(722.5 232.6) rotate(-169.86)"/><rect class="cls-11" x="368.25" y="84.86" width="2" height="2" transform="translate(717.61 235.39) rotate(-169.86)"/><rect class="cls-11" x="368.95" y="80.93" width="2" height="2" transform="translate(719.7 227.7) rotate(-169.86)"/><rect class="cls-11" x="376.83" y="82.33" width="2" height="2" transform="translate(735.08 231.89) rotate(-169.86)"/><rect class="cls-11" x="365.93" y="86.48" width="2" height="2" transform="translate(712.72 238.19) rotate(-169.86)"/><rect class="cls-11" x="366.63" y="82.54" width="2" height="2" transform="translate(714.81 230.5) rotate(-169.86)"/><rect class="cls-11" x="365.01" y="80.22" width="2" height="2" transform="translate(712.01 225.61) rotate(-169.86)"/><rect class="cls-11" x="363.6" y="88.1" width="2" height="2" transform="translate(707.83 240.99) rotate(-169.86)"/><rect class="cls-11" x="367.54" y="88.8" width="2" height="2" transform="matrix(-0.98, -0.18, 0.18, -0.98, 715.52, 243.08)"/><rect class="cls-11" x="374.5" y="83.95" width="2" height="2" transform="translate(730.19 234.69) rotate(-169.86)"/><rect class="cls-11" x="372.18" y="85.57" width="2" height="2" transform="translate(725.3 237.49) rotate(-169.86)"/><rect class="cls-11" x="369.86" y="87.18" width="2" height="2" transform="translate(720.41 240.28) rotate(-169.86)"/><rect class="cls-11" x="365.22" y="90.42" width="2" height="2" transform="translate(710.63 245.88) rotate(-169.86)"/><rect class="cls-11" x="362.69" y="81.84" width="2" height="2" transform="translate(707.12 228.41) rotate(-169.86)"/><rect class="cls-11" x="361.08" y="79.52" width="2" height="2" transform="translate(704.32 223.52) rotate(-169.86)"/><rect class="cls-3" x="321.2" y="86.61" width="2" height="2" transform="matrix(-0.98, -0.18, 0.18, -0.98, 623.95, 230.57)"/><rect class="cls-3" x="325.49" y="85.34" width="2" height="2" transform="translate(632.69 228.82) rotate(-169.86)"/><rect class="cls-3" x="324.79" y="89.28" width="2" height="2" transform="translate(630.6 236.51) rotate(-169.86)"/><rect class="cls-3" x="322.47" y="90.9" width="2" height="2" transform="translate(625.71 239.31) rotate(-169.86)"/><rect class="cls-3" x="326.41" y="91.6" width="2" height="2" transform="translate(633.39 241.4) rotate(-169.86)"/><rect class="cls-3" x="318.88" y="88.22" width="2" height="2" transform="translate(619.06 233.37) rotate(-169.86)"/><rect class="cls-3" x="319.59" y="84.29" width="2" height="2" transform="translate(621.15 225.68) rotate(-169.86)"/><rect class="cls-3" x="318.32" y="80" width="2" height="2" transform="translate(619.4 216.95) rotate(-169.86)"/><rect class="cls-3" x="319.03" y="76.06" width="2" height="2" transform="translate(621.49 209.26) rotate(-169.86)"/><rect class="cls-3" x="322.26" y="80.7" width="2" height="2" transform="matrix(-0.98, -0.18, 0.18, -0.98, 627.09, 219.04)"/><rect class="cls-3" x="315.65" y="83.58" width="2" height="2" transform="translate(613.46 223.59) rotate(-169.86)"/><rect class="cls-3" x="312.98" y="87.17" width="2" height="2" transform="translate(607.53 230.24) rotate(-169.86)"/><rect class="cls-3" x="312.77" y="76.97" width="2" height="2" transform="translate(608.91 209.97) rotate(-169.86)"/><rect class="cls-3" x="310.1" y="80.56" width="2" height="2" transform="translate(602.97 216.61) rotate(-169.86)"/><rect class="cls-3" x="74.83" y="38.48" width="2" height="2" transform="matrix(0.98, 0.18, -0.18, 0.98, 8.14, -12.73)"/><rect class="cls-3" x="178.97" y="46.95" width="2" height="2" transform="translate(11.25 -30.94) rotate(10.14)"/><rect class="cls-3" x="184.87" y="48" width="2" height="2" transform="translate(11.53 -31.96) rotate(10.14)"/><rect class="cls-2" x="167.45" y="11.83" width="64" height="2" transform="translate(5.37 -34.92) rotate(10.14)"/><rect class="cls-1" x="284.45" y="27.08" width="46" height="2" transform="translate(9.75 -53.69) rotate(10.14)"/><rect class="cls-2" x="308.27" y="29.19" width="22" height="2" transform="translate(10.3 -55.74) rotate(10.14)"/><rect class="cls-4" x="288.03" y="27.85" width="2" height="2" transform="translate(9.59 -50.44) rotate(10.14)"/><rect class="cls-4" x="291.97" y="28.55" width="2" height="2" transform="translate(9.78 -51.12) rotate(10.14)"/><rect class="cls-4" x="295.91" y="29.26" width="2" height="2" transform="translate(9.97 -51.8) rotate(10.14)"/><rect class="cls-4" x="293.59" y="30.87" width="2" height="2" transform="translate(10.21 -51.37) rotate(10.14)"/><rect class="cls-4" x="284.37" y="28.07" width="46" height="1" transform="translate(9.83 -53.67) rotate(10.14)"/><rect class="cls-2" x="294.15" y="0.66" width="2" height="22" transform="translate(6.66 -51.78) rotate(10.14)"/><rect class="cls-3" x="296.12" y="1.01" width="2" height="22" transform="translate(6.76 -52.12) rotate(10.14)"/><rect class="cls-11" x="295.77" y="12.98" width="2" height="2" transform="translate(7.1 -52.03) rotate(10.14)"/><rect class="cls-3" x="293.8" y="12.63" width="2" height="2" transform="translate(7 -51.69) rotate(10.14)"/><rect class="cls-11" x="294.01" y="22.82" width="2" height="2" transform="translate(8.8 -51.57) rotate(10.14)"/><rect class="cls-3" x="292.04" y="22.47" width="2" height="2" transform="translate(8.71 -51.23) rotate(10.14)"/><rect class="cls-2" x="288.84" y="2.9" width="16" height="10" transform="translate(6.03 -52.14) rotate(10.14)"/><polygon class="cls-3" points="304.54 10.29 303.84 14.23 288.09 11.41 288.26 10.43 302.04 12.89 302.57 9.94 304.54 10.29"/><rect class="cls-3" x="303.08" y="6.16" width="2" height="2" transform="translate(6.01 -53.43) rotate(10.14)"/><rect class="cls-9" x="295.84" y="6.9" width="2" height="2" transform="matrix(0.98, 0.18, -0.18, 0.98, 6.03, -52.14)"/><rect class="cls-3" x="293.87" y="6.55" width="2" height="2" transform="translate(5.93 -51.8) rotate(10.14)"/><rect class="cls-3" x="296.19" y="4.93" width="2" height="2" transform="translate(5.69 -52.23) rotate(10.14)"/><rect class="cls-3" x="295.49" y="8.87" width="2" height="2" transform="translate(6.37 -52.05) rotate(10.14)"/><rect class="cls-3" x="294.6" y="8.61" width="1" height="1" transform="translate(6.21 -51.81) rotate(10.14)"/><rect class="cls-3" x="297.55" y="9.14" width="1" height="1" transform="translate(6.35 -52.33) rotate(10.14)"/><rect class="cls-3" x="295.13" y="5.66" width="1" height="1" transform="translate(5.7 -51.95) rotate(10.14)"/><rect class="cls-3" x="298.08" y="6.19" width="1" height="1" transform="translate(5.84 -52.46) rotate(10.14)"/><rect class="cls-3" x="297.81" y="7.25" width="2" height="2" transform="translate(6.12 -52.48) rotate(10.14)"/><polygon class="cls-6" points="293.79 2.27 293.43 4.24 291.46 3.89 291.11 5.86 289.14 5.5 289.85 1.57 293.79 2.27"/><rect class="cls-2" x="287.31" y="31.96" width="4" height="2" transform="translate(10.32 -50.42) rotate(10.14)"/><rect class="cls-11" x="287.69" y="27.73" width="1" height="6" transform="translate(9.91 -50.26) rotate(10.14)"/><rect class="cls-2" x="313.27" y="34.4" width="2" height="2" transform="translate(11.14 -54.78) rotate(10.14)"/><rect class="cls-2" x="315.59" y="32.78" width="2" height="2" transform="translate(10.89 -55.21) rotate(10.14)"/><rect class="cls-2" x="319.53" y="33.48" width="2" height="2" transform="translate(11.08 -55.89) rotate(10.14)"/><rect class="cls-2" x="309.34" y="33.69" width="2" height="2" transform="translate(10.96 -54.1) rotate(10.14)"/><rect class="cls-2" x="305.4" y="32.99" width="2" height="2" transform="translate(10.77 -53.41) rotate(10.14)"/><rect class="cls-2" x="303.08" y="34.6" width="2" height="2" transform="translate(11.02 -52.98) rotate(10.14)"/><rect class="cls-2" x="290.91" y="34.46" width="2" height="2" transform="translate(10.8 -50.84) rotate(10.14)"/><rect class="cls-4" x="289.65" y="30.17" width="2" height="2" transform="translate(10.03 -50.68) rotate(10.14)"/><rect class="cls-2" x="293.23" y="32.84" width="2" height="2" transform="translate(10.55 -51.27) rotate(10.14)"/><rect class="cls-2" x="292.53" y="36.78" width="2" height="2" transform="translate(11.24 -51.09) rotate(10.14)"/><rect class="cls-2" x="303.49" y="55" width="2" height="2" transform="translate(14.62 -52.73) rotate(10.14)"/><rect class="cls-2" x="314.39" y="50.85" width="2" height="2" transform="translate(14.06 -54.72) rotate(10.14)"/><rect class="cls-2" x="316.71" y="49.23" width="2" height="2" transform="translate(13.81 -55.15) rotate(10.14)"/><rect class="cls-2" x="310.1" y="52.11" width="2" height="2" transform="translate(14.21 -53.94) rotate(10.14)"/><rect class="cls-2" x="305.81" y="53.38" width="2" height="2" transform="translate(14.37 -53.17) rotate(10.14)"/><rect class="cls-2" x="297.17" y="33.55" width="2" height="2" transform="translate(10.74 -51.96) rotate(10.14)"/><rect class="cls-2" x="298.79" y="35.87" width="2" height="2" transform="translate(11.17 -52.2) rotate(10.14)"/><rect class="cls-1" x="167.59" y="10.24" width="46" height="2" transform="translate(4.96 -33.38) rotate(10.14)"/><rect class="cls-2" x="205.3" y="13.59" width="8" height="2" transform="translate(5.84 -36.62) rotate(10.14)"/><rect class="cls-4" x="167.36" y="12.82" width="64" height="1" transform="translate(5.46 -34.89) rotate(10.14)"/><rect class="cls-11" x="171.19" y="13.8" width="56" height="1" transform="translate(5.63 -34.85) rotate(10.14)"/><rect class="cls-4" x="91.07" y="6.18" width="40" height="2" transform="translate(3 -19.44) rotate(10.14)"/><rect class="cls-2" x="87.42" y="4.21" width="48" height="2" transform="translate(2.66 -19.54) rotate(10.14)"/><rect class="cls-1" x="87.52" y="3.02" width="34.5" height="2" transform="translate(2.34 -18.38) rotate(10.14)"/><rect class="cls-2" x="111.37" y="4.74" width="6" height="2" transform="translate(2.8 -20.05) rotate(10.14)"/><rect class="cls-4" x="87.33" y="5.2" width="48" height="1" transform="translate(2.74 -19.51) rotate(10.14)"/><rect class="cls-11" x="91.15" y="6.19" width="40" height="1" transform="translate(2.91 -19.47) rotate(10.14)"/><rect class="cls-2" x="172.9" y="14.01" width="32" height="2" transform="translate(5.59 -33.02) rotate(10.14)"/><rect class="cls-2" x="206.56" y="17.88" width="8" height="2" transform="translate(6.61 -36.78) rotate(10.14)"/><rect class="cls-2" x="173.14" y="11.36" width="2" height="2" transform="translate(4.9 -30.47) rotate(10.14)"/><rect class="cls-2" x="175.11" y="11.72" width="2" height="2" transform="translate(4.99 -30.81) rotate(10.14)"/><rect class="cls-2" x="176.72" y="14.04" width="2" height="2" transform="translate(5.42 -31.06) rotate(10.14)"/><rect class="cls-2" x="177.06" y="12.24" width="4" height="2" transform="translate(5.13 -31.32) rotate(10.14)"/><rect class="cls-2" x="172.79" y="13.33" width="2" height="2" transform="translate(5.24 -30.37) rotate(10.14)"/><rect class="cls-2" x="174.4" y="15.65" width="2" height="2" transform="translate(5.67 -30.62) rotate(10.14)"/><rect class="cls-2" x="181.01" y="12.77" width="2" height="2" transform="translate(5.27 -31.83) rotate(10.14)"/><rect class="cls-2" x="180.31" y="16.71" width="2" height="2" transform="translate(5.95 -31.64) rotate(10.14)"/><rect class="cls-3" x="169.7" y="19.59" width="10" height="2" transform="matrix(0.98, 0.18, -0.18, 0.98, 6.35, -30.44)"/><rect class="cls-2" x="68.43" y="6.38" width="8" height="2" transform="translate(2.43 -12.64) rotate(10.14)"/><rect class="cls-1" x="72.48" y="6.74" width="4" height="1" transform="translate(2.44 -13) rotate(10.14)"/><rect class="cls-6" x="68.56" y="5.86" width="2" height="1" transform="translate(2.21 -12.15) rotate(10.14)"/><rect class="cls-6" x="72.5" y="6.56" width="2" height="1" transform="translate(2.39 -12.83) rotate(10.14)"/><rect class="cls-2" x="74.16" y="8.42" width="8" height="2" transform="translate(2.88 -13.61) rotate(10.14)"/><rect class="cls-1" x="76.23" y="8.6" width="6" height="1" transform="translate(2.84 -13.81) rotate(10.14)"/><rect class="cls-1" x="81.96" y="10.64" width="6" height="1" transform="matrix(0.98, 0.18, -0.18, 0.98, 3.29, -14.78)"/><rect class="cls-6" x="76.26" y="8.25" width="2" height="1" transform="translate(2.75 -13.47) rotate(10.14)"/><rect class="cls-2" x="85.67" y="11.97" width="2" height="2" transform="translate(3.64 -15.06) rotate(10.14)"/><rect class="cls-2" x="90.81" y="7.09" width="28" height="2" transform="matrix(0.98, 0.18, -0.18, 0.98, 3.06, -18.33)"/><rect class="cls-2" x="90.53" y="8.18" width="18" height="2" transform="translate(3.17 -17.38) rotate(10.14)"/><rect class="cls-2" x="90.24" y="9.44" width="10" height="2" transform="translate(3.33 -16.61) rotate(10.14)"/><rect class="cls-2" x="90.24" y="9.44" width="10" height="2" transform="translate(3.33 -16.61) rotate(10.14)"/><rect class="cls-2" x="89.95" y="10.71" width="2" height="2" transform="translate(3.48 -15.83) rotate(10.14)"/><rect class="cls-2" x="227.52" y="38.17" width="34" height="2" transform="translate(10.72 -42.44) rotate(10.14)"/><rect class="cls-2" x="224.28" y="38.82" width="25" height="2" transform="translate(10.71 -41.07) rotate(10.14)"/><rect class="cls-3" x="223.56" y="38.71" width="48" height="1" transform="translate(10.77 -42.97) rotate(10.14)"/><rect class="cls-3" x="279.01" y="44.87" width="6" height="1" transform="translate(12.39 -48.94) rotate(10.14)"/><rect class="cls-2" x="227.06" y="39.29" width="2" height="2" transform="translate(10.66 -39.52) rotate(10.14)"/><rect class="cls-2" x="228.68" y="41.62" width="2" height="2" transform="translate(11.09 -39.77) rotate(10.14)"/><rect class="cls-2" x="231" y="40" width="2" height="2" transform="translate(10.84 -40.21) rotate(10.14)"/><rect class="cls-2" x="232.62" y="42.32" width="2" height="2" transform="translate(11.28 -40.45) rotate(10.14)"/><rect class="cls-2" x="234.94" y="40.7" width="2" height="2" transform="translate(11.03 -40.89) rotate(10.14)"/><rect class="cls-2" x="248.72" y="43.17" width="2" height="2" transform="translate(11.68 -43.28) rotate(10.14)"/><rect class="cls-2" x="251.04" y="41.55" width="2" height="2" transform="translate(11.43 -43.71) rotate(10.14)"/><rect class="cls-2" x="240.85" y="41.76" width="2" height="2" transform="translate(11.31 -41.91) rotate(10.14)"/><rect class="cls-2" x="238.52" y="43.38" width="2" height="2" transform="translate(11.55 -41.48) rotate(10.14)"/><rect class="cls-2" x="242.46" y="44.08" width="2" height="2" transform="translate(11.74 -42.16) rotate(10.14)"/><rect class="cls-2" x="124.69" y="20.98" width="2" height="2" transform="translate(5.83 -21.79) rotate(10.14)"/><rect class="cls-2" x="120.75" y="20.28" width="2" height="2" transform="translate(5.65 -21.1) rotate(10.14)"/><rect class="cls-2" x="123.07" y="18.66" width="2" height="2" transform="translate(5.4 -21.54) rotate(10.14)"/><rect class="cls-2" x="108.03" y="11.91" width="2" height="2" transform="translate(3.98 -18.99) rotate(10.14)"/><rect class="cls-2" x="99.8" y="12.47" width="2" height="2" transform="translate(3.95 -17.54) rotate(10.14)"/><rect class="cls-2" x="102.12" y="10.85" width="2" height="2" transform="translate(3.7 -17.97) rotate(10.14)"/><rect class="cls-2" x="95.86" y="11.76" width="2" height="2" transform="translate(3.76 -16.85) rotate(10.14)"/><rect class="cls-2" x="91.92" y="11.06" width="2" height="2" transform="translate(3.57 -16.17) rotate(10.14)"/><rect class="cls-2" x="93.54" y="13.38" width="2" height="2" transform="translate(4.01 -16.42) rotate(10.14)"/><rect class="cls-2" x="89.6" y="12.68" width="2" height="2" transform="translate(3.82 -15.74) rotate(10.14)"/><rect class="cls-2" x="125.39" y="17.05" width="2" height="2" transform="translate(5.15 -21.97) rotate(10.14)"/><rect class="cls-2" x="126.1" y="13.11" width="2" height="2" transform="translate(4.47 -22.16) rotate(10.14)"/><rect class="cls-2" x="184.25" y="17.41" width="2" height="2" transform="translate(6.14 -32.33) rotate(10.14)"/><rect class="cls-3" x="181.01" y="12.77" width="2" height="2" transform="translate(5.27 -31.83) rotate(10.14)"/><rect class="cls-3" x="184.95" y="13.48" width="2" height="2" transform="translate(5.45 -32.51) rotate(10.14)"/><rect class="cls-3" x="171.12" y="11.54" width="8" height="2" transform="translate(4.94 -30.64) rotate(10.14)"/><rect class="cls-2" x="186.57" y="15.8" width="2" height="2" transform="translate(5.89 -32.76) rotate(10.14)"/><rect class="cls-2" x="190.51" y="16.5" width="2" height="2" transform="translate(6.07 -33.44) rotate(10.14)"/><rect class="cls-5" x="170.84" y="16.05" width="13" height="8" transform="translate(6.3 -30.91) rotate(10.14)"/><polygon class="cls-7" points="175.58 15.67 175.23 17.64 173.26 17.29 172.91 19.25 171.92 19.08 171.22 23.02 170.23 22.84 171.64 14.96 175.58 15.67"/><rect class="cls-12" x="171.45" y="15.13" width="2" height="2" transform="translate(5.53 -30.11) rotate(10.14)"/><polygon class="cls-7" points="184.09 19.22 183.03 25.13 173.19 23.37 173.36 22.38 179.27 23.44 179.44 22.46 181.41 22.81 181.77 20.84 182.75 21.02 183.1 19.05 184.09 19.22"/><rect class="cls-2" x="169.05" y="23.89" width="14" height="1" transform="translate(7.04 -30.61) rotate(10.14)"/><rect class="cls-6" x="168.14" y="22.92" width="5" height="1" transform="translate(6.79 -29.68) rotate(10.14)"/><rect class="cls-3" x="182.63" y="15.09" width="2" height="2" transform="translate(5.7 -32.08) rotate(10.14)"/><rect class="cls-3" x="170.8" y="13.16" width="4" height="2" transform="translate(5.19 -30.2) rotate(10.14)"/><rect class="cls-3" x="174.76" y="13.69" width="2" height="2" transform="translate(5.33 -30.71) rotate(10.14)"/><rect class="cls-3" x="178.69" y="14.39" width="2" height="2" transform="translate(5.52 -31.4) rotate(10.14)"/><rect class="cls-2" x="220.07" y="31.96" width="2" height="4" transform="translate(9.43 -38.39) rotate(10.14)"/><rect class="cls-2" x="215.96" y="33.24" width="2" height="2" transform="translate(9.42 -37.66) rotate(10.14)"/><rect class="cls-2" x="213.63" y="34.86" width="2" height="2" transform="translate(9.67 -37.23) rotate(10.14)"/><rect class="cls-2" x="209.7" y="34.16" width="2" height="2" transform="translate(9.48 -36.55) rotate(10.14)"/><rect class="cls-2" x="207.38" y="35.77" width="2" height="2" transform="translate(9.73 -36.11) rotate(10.14)"/><rect class="cls-2" x="201.47" y="34.72" width="2" height="2" transform="translate(9.45 -35.09) rotate(10.14)"/><rect class="cls-2" x="199.15" y="36.33" width="2" height="2" transform="translate(9.7 -34.66) rotate(10.14)"/><rect class="cls-2" x="205.76" y="33.45" width="2" height="2" transform="translate(9.3 -35.86) rotate(10.14)"/><rect class="cls-2" x="214.34" y="30.92" width="2" height="2" transform="translate(8.98 -37.41) rotate(10.14)"/><rect class="cls-2" x="212.02" y="32.54" width="2" height="2" transform="translate(9.23 -36.98) rotate(10.14)"/><rect class="cls-2" x="218.63" y="29.66" width="2" height="2" transform="translate(8.83 -38.19) rotate(10.14)"/><rect class="cls-2" x="220.95" y="28.04" width="2" height="2" transform="translate(8.58 -38.62) rotate(10.14)"/><rect class="cls-3" x="219.19" y="37.89" width="2" height="2" transform="translate(10.29 -38.16) rotate(10.14)"/><rect class="cls-3" x="221.86" y="34.3" width="2" height="2" transform="translate(9.7 -38.69) rotate(10.14)"/><rect class="cls-3" x="220.81" y="40.21" width="2" height="2" transform="translate(10.72 -38.41) rotate(10.14)"/><rect class="cls-3" x="216.87" y="39.5" width="2" height="2" transform="translate(10.53 -37.73) rotate(10.14)"/><rect class="cls-3" x="212.93" y="38.8" width="2" height="2" transform="translate(10.35 -37.04) rotate(10.14)"/><rect class="cls-3" x="208.99" y="38.09" width="2" height="2" transform="translate(10.16 -36.36) rotate(10.14)"/><rect class="cls-3" x="205.06" y="37.39" width="2" height="2" transform="translate(9.98 -35.68) rotate(10.14)"/><rect class="cls-3" x="215.25" y="37.18" width="2" height="2" transform="translate(10.1 -37.48) rotate(10.14)"/></g></g></svg>