<svg xmlns="http://www.w3.org/2000/svg" viewBox="0 0 57.98 24.76"><defs><style>.cls-1{fill:#326ba5;}</style></defs><g id="Layer_2" data-name="Layer 2"><g id="Layer_15" data-name="Layer 15"><polyline class="cls-1" points="57.98 10.89 57.98 14.31 57.34 14.31 57.34 15.49 56.65 15.49 56.65 16.2 56.11 16.2 56.11 16.77 55.59 16.77 55.59 17.2 54.89 17.2 54.89 17.83 54.22 17.83 54.22 18.54 53.74 18.54 53.74 18.98 53.05 18.98 53.05 19.69 52.57 19.69 52.57 20.39 51.88 20.39 51.88 20.84 51.25 20.84 51.25 21.69 50.12 21.69 50.12 22.08 49.43 22.08 49.43 22.69 48.32 22.69 48.32 23.36 47.72 23.36 47.72 23.71 46.51 23.71 46.51 24.76 45.01 24.76 13.42 24.76 13.42 24.12 11.54 24.12 11.54 23.45 10.28 23.45 10.28 22.86 9.69 22.86 9.69 22.27 8.45 22.27 8.45 21.7 7.81 21.7 7.81 21.03 6.71 21.03 6.71 20.52 6.04 20.52 6.04 19.98 5.39 19.98 5.39 19.39 4.83 19.39 4.83 18.7 4.21 18.7 4.21 18.11 3.65 18.11 3.65 17.46 3.03 17.46 3.03 16.93 2.5 16.93 2.5 16.28 1.82 16.28 1.82 15.72 1.23 15.72 1.23 15.1 0.64 15.1 0.67 13.97 0 13.97 0 10.83 0.59 10.83 0.59 9.6 1.31 9.6 1.31 9.04 1.91 9.04 1.91 8.45 2.39 8.45 2.39 7.78 3.03 7.78 3.03 7.24 3.6 7.24 3.6 6.59 4.24 6.59 4.24 6.08 4.94 6.08 4.94 5.44 5.61 5.44 5.61 4.93 6.06 4.93 6.06 4.23 6.66 4.23 6.66 3.7 7.92 3.7 7.92 3.02 8.56 3.02 8.56 2.54 9.71 2.54 9.71 1.93 10.22 1.93 10.22 1.31 11.46 1.31 11.46 0.69 13.39 0.69 13.39 0 44.66 0 44.66 0.34 45.04 0.34 45.04 0.67 46.56 0.67 46.56 1.21 47.62 1.21 47.62 1.78 48.42 1.78 48.42 2.35 49.6 2.35 49.6 3.04 50.02 3.04 50.02 3.72 51.27 3.72 51.27 4.29 51.87 4.29 51.87 4.89 52.67 4.89 52.67 5.58 53.16 5.58 53.16 6.07 53.62 6.07 53.62 6.64 54.38 6.64 54.38 7.21 54.98 7.21 54.98 7.82 55.48 7.82 55.48 8.46 56.05 8.46 56.05 9.07 56.73 9.07 56.73 9.71 57.26 9.71 57.26 10.89 57.98 10.89"/></g></g></svg>