<svg xmlns="http://www.w3.org/2000/svg" viewBox="0 0 68.25 25.49"><defs><style>.cls-1{fill:#162633;}.cls-2{fill:#e04243;}</style></defs><g id="Layer_2" data-name="Layer 2"><g id="Layer_15" data-name="Layer 15"><polygon class="cls-1" points="68.25 1.43 67.47 1.43 67.47 0.66 65.51 0.66 65.51 0 9.11 0 9.11 0.71 7.03 0.71 7.03 1.43 5.24 1.43 5.24 2.2 3.45 2.2 3.45 2.8 2.62 2.8 2.62 3.93 1.67 3.93 1.67 5.42 1.01 5.42 1.01 6.97 0 6.97 0 18.34 1.01 18.34 1.01 19.71 1.73 19.71 1.73 21.2 2.5 21.2 2.5 21.86 3.22 21.86 3.22 22.63 3.87 22.63 3.87 23.34 5.36 23.34 5.36 24.12 6.91 24.12 6.91 24.83 9.17 24.83 9.17 25.49 65.27 25.49 65.27 24.71 67.53 24.71 67.53 24.06 68.25 24.06 68.25 1.43"/><circle class="cls-2" cx="20.34" cy="13.11" r="5.54"/><circle class="cls-2" cx="47.99" cy="13.11" r="5.54"/></g></g></svg>