<svg xmlns="http://www.w3.org/2000/svg" width="442.98" height="197.04" viewBox="0 0 442.98 197.04"><defs><style>.cls-1{fill:#2a3747;}.cls-2{fill:#96a5ab;}.cls-3{fill:#f1f0ee;}.cls-4{fill:#586c79;}.cls-5{fill:#fff;}.cls-6{fill:#182028;}.cls-7{fill:#2ca8f8;}.cls-8{fill:#235fda;}.cls-9{fill:#ee6928;}.cls-10{fill:#56142d;}.cls-11{fill:#f1c18d;}.cls-12{fill:#9d1b32;}</style></defs><g id="Layer_2" data-name="Layer 2"><g id="Layer_1-2" data-name="Layer 1"><g id="Layer_2-2" data-name="Layer 2"><g id="draft_assets" data-name="draft assets"><rect class="cls-1" x="223.09" y="-75.32" width="2" height="414" transform="translate(29.22 303.68) rotate(-71.87)"/><rect class="cls-2" x="208.9" y="-140.22" width="26.12" height="454" transform="translate(70.43 270.72) rotate(-71.87)"/><rect class="cls-3" x="258.97" y="92.71" width="7" height="1" transform="translate(92.22 313.65) rotate(-71.87)"/><polygon class="cls-4" points="421.13 195.14 429.22 170.43 11.06 33.52 27.68 66.32 421.13 195.14"/><path class="cls-1" d="M390.15,179.74l1.08-3.3,1.62.53.53-1.62,1.61.53.53-1.62,1.65.54,1.59-4.87-3.22-1.06-.53,1.64-1.66-.54.54-1.64,1.61.53.54-1.64,4.91,1.61-.53,1.64L402,171l-1.6,4.89-1.62-.53-.53,1.64-1.64-.54-.53,1.62-1.62-.53-.53,1.6,4.88,1.6-.54,1.65Z"/><path class="cls-1" d="M402.73,183.85l3.19-9.75-1.62-.53.54-1.65,1.62.53.54-1.65,3.28,1.08L406,184.93Z"/><path class="cls-5" d="M390.67,178.16l1.08-3.3,1.61.53.53-1.62,1.62.53.53-1.62,1.65.54,1.58-4.85-3.22-1.06-.53,1.64-1.66-.54.55-1.67,1.61.53.54-1.63,4.91,1.61-.53,1.63,1.61.53-1.6,4.9-1.62-.53-.54,1.64-1.63-.53-.53,1.61L395,176l-.53,1.6,4.88,1.59-.55,1.66Z"/><path class="cls-5" d="M403.24,182.27l3.2-9.75-1.62-.52.54-1.67,1.62.53.53-1.63,3.28,1.07-4.27,13Z"/><rect class="cls-1" x="134.59" y="-38.39" width="2" height="238" transform="translate(16.79 184.39) rotate(-71.87)"/><rect class="cls-1" x="128.27" y="-32.36" width="2" height="226" transform="matrix(0.31, -0.95, 0.95, 0.31, 12.41, 178.4)"/><rect class="cls-1" x="248.31" y="97.73" width="2" height="36" transform="matrix(0.31, -0.95, 0.95, 0.31, 61.74, 316.65)"/><rect class="cls-1" x="287.6" y="124.7" width="2" height="12" transform="translate(74.59 364.31) rotate(-71.87)"/><rect class="cls-1" x="276.3" y="133.94" width="2" height="24" transform="translate(52.32 364.06) rotate(-71.87)"/><rect class="cls-1" x="239.23" y="112.81" width="2" height="42" transform="translate(38.32 320.48) rotate(-71.87)"/><rect class="cls-1" x="308.51" y="125.55" width="2" height="24" transform="translate(82.48 388.89) rotate(-71.87)"/><rect class="cls-1" x="356.97" y="128.42" width="2" height="50" transform="translate(100.79 445.89) rotate(-71.87)"/><rect class="cls-1" x="331.61" y="39.9" width="2" height="202" transform="translate(95.21 413.16) rotate(-71.87)"/><rect class="cls-1" x="29.12" y="42.23" width="2" height="14" transform="translate(-26.04 62.54) rotate(-71.87)"/><rect class="cls-1" x="25.02" y="46.1" width="2" height="12" transform="translate(-31.59 60.62) rotate(-71.87)"/><rect class="cls-1" x="33.61" y="54.23" width="2" height="14" transform="translate(-34.35 75.07) rotate(-71.87)"/><rect class="cls-1" x="34.85" y="56.42" width="2" height="2" transform="translate(-29.88 73.63) rotate(-71.87)"/><rect class="cls-1" x="27.58" y="55.15" width="2" height="4" transform="translate(-34.62 66.53) rotate(-71.87)"/><rect class="cls-1" x="32.3" y="51.38" width="2" height="2" transform="translate(-26.84 67.72) rotate(-71.87)"/><rect class="cls-1" x="29.18" y="60.88" width="2" height="2" transform="translate(-38.02 71.31) rotate(-71.87)"/><rect class="cls-1" x="30.46" y="63.4" width="2" height="2" transform="translate(-39.53 74.27) rotate(-71.87)"/><rect class="cls-1" x="31.74" y="65.93" width="2" height="2" transform="translate(-41.05 77.22) rotate(-71.87)"/><rect class="cls-1" x="34.58" y="63.7" width="2" height="2" transform="translate(-36.98 78.38) rotate(-71.87)"/><rect class="cls-1" x="35.23" y="68.12" width="2" height="2" transform="translate(-40.73 82.05) rotate(-71.87)"/><rect class="cls-1" x="45.36" y="69.33" width="2" height="2" transform="translate(-34.91 92.51) rotate(-71.87)"/><rect class="cls-1" x="27.94" y="64.68" width="2" height="2" transform="translate(-42.49 72.75) rotate(-71.87)"/><rect class="cls-1" x="36.1" y="52.62" width="2" height="2" transform="translate(-25.41 72.19) rotate(-71.87)"/><rect class="cls-1" x="37.38" y="55.15" width="2" height="2" transform="translate(-26.92 75.15) rotate(-71.87)"/><rect class="cls-1" x="40.52" y="51.97" width="2" height="2" transform="translate(-21.74 75.95) rotate(-71.87)"/><rect class="cls-1" x="32.33" y="57.7" width="2" height="2" transform="translate(-32.83 72.11) rotate(-71.87)"/><rect class="cls-1" x="31.05" y="55.18" width="2" height="2" transform="translate(-31.31 69.16) rotate(-71.87)"/><rect class="cls-1" x="25.35" y="53.31" width="2" height="2" transform="translate(-33.47 62.45) rotate(-71.87)"/><rect class="cls-6" x="18.7" y="50.13" width="2" height="4" transform="translate(-35.98 54.63) rotate(-71.87)"/><rect class="cls-1" x="22.83" y="54.59" width="2" height="2" transform="translate(-36.42 60.94) rotate(-71.87)"/><rect class="cls-1" x="20.53" y="38.11" width="2" height="4" transform="translate(-23.29 48.09) rotate(-71.87)"/><rect class="cls-6" x="28.13" y="36.6" width="2" height="12" transform="translate(-20.41 57.03) rotate(-71.87)"/><rect class="cls-1" x="10.08" y="33.69" width="2" height="6" transform="translate(-27.23 35.8) rotate(-71.87)"/><rect class="cls-1" x="13.26" y="38.83" width="2" height="2" transform="translate(-28.03 40.99) rotate(-71.87)"/><rect class="cls-1" x="14.53" y="41.35" width="2" height="2" transform="translate(-29.55 43.94) rotate(-71.87)"/><rect class="cls-1" x="11.35" y="38.21" width="2" height="2" transform="translate(-28.75 38.75) rotate(-71.87)"/><rect class="cls-1" x="13.91" y="43.25" width="2" height="2" transform="translate(-31.79 44.66) rotate(-71.87)"/><rect class="cls-1" x="15.81" y="43.88" width="2" height="2" transform="translate(-31.07 46.89) rotate(-71.87)"/><rect class="cls-1" x="17.71" y="44.5" width="2" height="2" transform="translate(-30.35 49.13) rotate(-71.87)"/><rect class="cls-1" x="17.09" y="46.4" width="2" height="2" transform="translate(-32.59 49.84) rotate(-71.87)"/><rect class="cls-6" x="21.22" y="46.86" width="2" height="8" transform="translate(-33.03 56.15) rotate(-71.87)"/><rect class="cls-6" x="16.47" y="48.3" width="2" height="2" transform="translate(-34.82 50.56) rotate(-71.87)"/><rect class="cls-1" x="21.55" y="52.07" width="2" height="2" transform="translate(-34.9 57.98) rotate(-71.87)"/><rect class="cls-1" x="20.93" y="53.97" width="2" height="2" transform="translate(-37.14 58.7) rotate(-71.87)"/><rect class="cls-1" x="20.3" y="55.87" width="2" height="2" transform="translate(-39.37 59.42) rotate(-71.87)"/><rect class="cls-1" x="22.2" y="56.49" width="2" height="2" transform="translate(-38.65 61.66) rotate(-71.87)"/><rect class="cls-1" x="24.11" y="57.11" width="2" height="2" transform="translate(-37.94 63.89) rotate(-71.87)"/><rect class="cls-1" x="23.48" y="59.01" width="2" height="2" transform="translate(-40.17 64.61) rotate(-71.87)"/><rect class="cls-1" x="25.38" y="59.64" width="2" height="2" transform="translate(-39.45 66.84) rotate(-71.87)"/><rect class="cls-1" x="24.76" y="61.54" width="2" height="2" transform="translate(-41.69 67.56) rotate(-71.87)"/><rect class="cls-1" x="26.66" y="62.16" width="2" height="2" transform="translate(-40.97 69.8) rotate(-71.87)"/><rect class="cls-1" x="26.04" y="64.06" width="2" height="2" transform="translate(-43.21 70.51) rotate(-71.87)"/><rect class="cls-6" x="34.16" y="21.68" width="2" height="50" transform="translate(-20.14 65.57) rotate(-71.87)"/><rect class="cls-6" x="30.69" y="29.64" width="2" height="36" transform="translate(-23.45 62.94) rotate(-71.87)"/><rect class="cls-6" x="21.51" y="37.74" width="2" height="18" transform="translate(-28.91 53.6) rotate(-71.87)"/><rect class="cls-6" x="21.84" y="42.96" width="2" height="12" transform="translate(-30.79 55.43) rotate(-71.87)"/><rect class="cls-2" x="108.93" y="-61.94" width="24.04" height="246" transform="translate(25.28 157) rotate(-71.87)"/><rect class="cls-6" x="115.26" y="-49.83" width="2" height="244" transform="translate(11.49 160.2) rotate(-71.87)"/><rect class="cls-4" x="116.22" y="-51.25" width="1" height="244" transform="translate(13.17 159.66) rotate(-71.87)"/><rect class="cls-4" x="16.97" y="4.05" width="4" height="1" transform="translate(8.75 21.16) rotate(-71.87)"/><rect class="cls-1" x="17.92" y="4.36" width="4" height="1" transform="translate(9.11 22.28) rotate(-71.87)"/><rect class="cls-4" x="24.57" y="6.53" width="4" height="1" transform="translate(11.62 30.1) rotate(-71.87)"/><rect class="cls-1" x="25.52" y="6.85" width="4" height="1" transform="translate(11.98 31.22) rotate(-71.87)"/><rect class="cls-4" x="32.17" y="9.02" width="4" height="1" transform="translate(14.49 39.04) rotate(-71.87)"/><rect class="cls-1" x="33.12" y="9.34" width="4" height="1" transform="translate(14.85 40.16) rotate(-71.87)"/><rect class="cls-4" x="39.78" y="11.51" width="4" height="1" transform="translate(17.36 47.98) rotate(-71.87)"/><rect class="cls-1" x="40.73" y="11.82" width="4" height="1" transform="translate(17.72 49.1) rotate(-71.87)"/><rect class="cls-4" x="47.38" y="14" width="4" height="1" transform="translate(20.23 56.92) rotate(-71.87)"/><rect class="cls-1" x="48.33" y="14.31" width="4" height="1" transform="translate(20.59 58.04) rotate(-71.87)"/><rect class="cls-4" x="54.98" y="16.49" width="4" height="1" transform="translate(23.1 65.86) rotate(-71.87)"/><rect class="cls-1" x="55.93" y="16.8" width="4" height="1" transform="translate(23.46 66.98) rotate(-71.87)"/><rect class="cls-4" x="62.59" y="18.98" width="4" height="1" transform="translate(25.98 74.8) rotate(-71.87)"/><rect class="cls-1" x="63.54" y="19.29" width="4" height="1" transform="translate(26.34 75.92) rotate(-71.87)"/><rect class="cls-4" x="70.19" y="21.47" width="4" height="1" transform="translate(28.85 83.74) rotate(-71.87)"/><rect class="cls-1" x="71.14" y="21.78" width="4" height="1" transform="translate(29.21 84.86) rotate(-71.87)"/><rect class="cls-4" x="77.79" y="23.96" width="4" height="1" transform="translate(31.72 92.68) rotate(-71.87)"/><rect class="cls-1" x="78.74" y="24.27" width="4" height="1" transform="translate(32.08 93.8) rotate(-71.87)"/><rect class="cls-4" x="85.39" y="26.45" width="4" height="1" transform="translate(34.59 101.62) rotate(-71.87)"/><rect class="cls-1" x="86.34" y="26.76" width="4" height="1" transform="translate(34.95 102.74) rotate(-71.87)"/><rect class="cls-4" x="93" y="28.94" width="4" height="1" transform="translate(37.46 110.56) rotate(-71.87)"/><rect class="cls-1" x="93.95" y="29.25" width="4" height="1" transform="translate(37.82 111.68) rotate(-71.87)"/><rect class="cls-4" x="100.6" y="31.43" width="4" height="1" transform="translate(40.33 119.5) rotate(-71.87)"/><rect class="cls-1" x="101.55" y="31.74" width="4" height="1" transform="translate(40.69 120.62) rotate(-71.87)"/><rect class="cls-4" x="108.2" y="33.92" width="4" height="1" transform="translate(43.21 128.44) rotate(-71.87)"/><rect class="cls-1" x="109.15" y="34.23" width="4" height="1" transform="translate(43.56 129.56) rotate(-71.87)"/><rect class="cls-4" x="115.81" y="36.41" width="4" height="1" transform="translate(46.08 137.38) rotate(-71.87)"/><rect class="cls-1" x="116.76" y="36.72" width="4" height="1" transform="translate(46.44 138.5) rotate(-71.87)"/><rect class="cls-4" x="123.41" y="38.89" width="4" height="1" transform="translate(48.95 146.32) rotate(-71.87)"/><rect class="cls-1" x="124.36" y="39.21" width="4" height="1" transform="translate(49.31 147.44) rotate(-71.87)"/><rect class="cls-4" x="131.01" y="41.38" width="4" height="1" transform="translate(51.82 155.26) rotate(-71.87)"/><rect class="cls-1" x="131.96" y="41.69" width="4" height="1" transform="translate(52.18 156.38) rotate(-71.87)"/><rect class="cls-4" x="138.61" y="43.87" width="4" height="1" transform="translate(54.69 164.2) rotate(-71.87)"/><rect class="cls-1" x="139.56" y="44.18" width="4" height="1" transform="translate(55.05 165.32) rotate(-71.87)"/><rect class="cls-4" x="146.22" y="46.36" width="4" height="1" transform="translate(57.56 173.14) rotate(-71.87)"/><rect class="cls-1" x="147.17" y="46.67" width="4" height="1" transform="translate(57.92 174.26) rotate(-71.87)"/><rect class="cls-4" x="153.82" y="48.85" width="4" height="1" transform="translate(60.44 182.08) rotate(-71.87)"/><rect class="cls-1" x="154.77" y="49.16" width="4" height="1" transform="translate(60.79 183.2) rotate(-71.87)"/><rect class="cls-4" x="161.42" y="51.34" width="4" height="1" transform="translate(63.31 191.02) rotate(-71.87)"/><rect class="cls-1" x="162.37" y="51.65" width="4" height="1" transform="translate(63.67 192.14) rotate(-71.87)"/><rect class="cls-4" x="169.03" y="53.83" width="4" height="1" transform="translate(66.18 199.96) rotate(-71.87)"/><rect class="cls-1" x="169.98" y="54.14" width="4" height="1" transform="translate(66.54 201.08) rotate(-71.87)"/><rect class="cls-4" x="176.63" y="56.32" width="4" height="1" transform="translate(69.05 208.9) rotate(-71.87)"/><rect class="cls-1" x="177.58" y="56.63" width="4" height="1" transform="translate(69.41 210.02) rotate(-71.87)"/><rect class="cls-4" x="184.23" y="58.81" width="4" height="1" transform="translate(71.92 217.84) rotate(-71.87)"/><rect class="cls-1" x="185.18" y="59.12" width="4" height="1" transform="translate(72.28 218.96) rotate(-71.87)"/><rect class="cls-4" x="191.83" y="61.3" width="4" height="1" transform="translate(74.79 226.78) rotate(-71.87)"/><rect class="cls-1" x="192.79" y="61.61" width="4" height="1" transform="translate(75.15 227.9) rotate(-71.87)"/><rect class="cls-4" x="199.44" y="63.79" width="4" height="1" transform="translate(77.67 235.72) rotate(-71.87)"/><rect class="cls-1" x="200.39" y="64.1" width="4" height="1" transform="translate(78.02 236.84) rotate(-71.87)"/><rect class="cls-4" x="207.04" y="66.28" width="4" height="1" transform="translate(80.54 244.66) rotate(-71.87)"/><rect class="cls-1" x="207.99" y="66.59" width="4" height="1" transform="translate(80.9 245.78) rotate(-71.87)"/><rect class="cls-4" x="214.64" y="68.76" width="4" height="1" transform="translate(83.41 253.6) rotate(-71.87)"/><rect class="cls-1" x="215.59" y="69.08" width="4" height="1" transform="translate(83.77 254.72) rotate(-71.87)"/><rect class="cls-4" x="222.25" y="71.25" width="4" height="1" transform="translate(86.28 262.54) rotate(-71.87)"/><rect class="cls-1" x="223.2" y="71.57" width="4" height="1" transform="translate(86.64 263.66) rotate(-71.87)"/><rect class="cls-4" x="229.85" y="73.74" width="4" height="1" transform="translate(89.15 271.48) rotate(-71.87)"/><rect class="cls-1" x="230.8" y="74.05" width="4" height="1" transform="translate(89.51 272.6) rotate(-71.87)"/><rect class="cls-4" x="237.45" y="76.23" width="4" height="1" transform="matrix(0.31, -0.95, 0.95, 0.31, 92.02, 280.42)"/><rect class="cls-1" x="238.4" y="76.54" width="4" height="1" transform="translate(92.38 281.54) rotate(-71.87)"/><rect class="cls-4" x="245.05" y="78.72" width="4" height="1" transform="translate(94.89 289.36) rotate(-71.87)"/><rect class="cls-1" x="246.01" y="79.03" width="4" height="1" transform="matrix(0.31, -0.95, 0.95, 0.31, 95.25, 290.48)"/><rect class="cls-4" x="252.66" y="81.21" width="4" height="1" transform="translate(97.77 298.3) rotate(-71.87)"/><rect class="cls-1" x="253.61" y="81.52" width="4" height="1" transform="translate(98.13 299.42) rotate(-71.87)"/><rect class="cls-4" x="260.26" y="83.7" width="4" height="1" transform="matrix(0.31, -0.95, 0.95, 0.31, 100.64, 307.24)"/><rect class="cls-1" x="261.21" y="84.01" width="4" height="1" transform="translate(101 308.36) rotate(-71.87)"/><rect class="cls-4" x="438.93" y="142.2" width="4" height="1" transform="translate(168.12 517.34) rotate(-71.87)"/><rect class="cls-1" x="439.88" y="142.51" width="4" height="1" transform="translate(168.48 518.45) rotate(-71.87)"/><rect class="cls-4" x="431.33" y="139.71" width="4" height="1" transform="translate(165.25 508.4) rotate(-71.87)"/><rect class="cls-1" x="432.28" y="140.02" width="4" height="1" transform="matrix(0.31, -0.95, 0.95, 0.31, 165.61, 509.51)"/><rect class="cls-4" x="423.72" y="137.22" width="4" height="1" transform="matrix(0.31, -0.95, 0.95, 0.31, 162.38, 499.46)"/><rect class="cls-1" x="424.67" y="137.53" width="4" height="1" transform="translate(162.74 500.57) rotate(-71.87)"/><rect class="cls-4" x="416.12" y="134.73" width="4" height="1" transform="matrix(0.31, -0.95, 0.95, 0.31, 159.51, 490.52)"/><rect class="cls-1" x="417.07" y="135.04" width="4" height="1" transform="translate(159.86 491.63) rotate(-71.87)"/><rect class="cls-4" x="408.52" y="132.24" width="4" height="1" transform="translate(156.63 481.58) rotate(-71.87)"/><rect class="cls-1" x="409.47" y="132.55" width="4" height="1" transform="translate(156.99 482.69) rotate(-71.87)"/><rect class="cls-4" x="400.91" y="129.75" width="4" height="1" transform="translate(153.76 472.64) rotate(-71.87)"/><rect class="cls-1" x="401.86" y="130.06" width="4" height="1" transform="matrix(0.31, -0.95, 0.95, 0.31, 154.12, 473.75)"/><rect class="cls-4" x="393.31" y="127.26" width="4" height="1" transform="matrix(0.31, -0.95, 0.95, 0.31, 150.89, 463.7)"/><rect class="cls-1" x="394.26" y="127.57" width="4" height="1" transform="translate(151.25 464.81) rotate(-71.87)"/><rect class="cls-4" x="385.71" y="124.77" width="4" height="1" transform="matrix(0.31, -0.95, 0.95, 0.31, 148.02, 454.76)"/><rect class="cls-1" x="386.66" y="125.08" width="4" height="1" transform="translate(148.38 455.87) rotate(-71.87)"/><rect class="cls-4" x="378.11" y="122.28" width="4" height="1" transform="translate(145.15 445.82) rotate(-71.87)"/><rect class="cls-1" x="379.06" y="122.59" width="4" height="1" transform="translate(145.51 446.93) rotate(-71.87)"/><rect class="cls-4" x="9.37" y="1.56" width="4" height="1" transform="translate(5.87 12.22) rotate(-71.87)"/><rect class="cls-1" x="10.32" y="1.87" width="4" height="1" transform="translate(6.23 13.34) rotate(-71.87)"/><rect class="cls-3" x="226.59" y="-155.89" width="1" height="454" transform="translate(88.85 264.8) rotate(-71.87)"/><rect class="cls-3" x="79.02" y="-37.68" width="1" height="142" transform="translate(23.12 98.52) rotate(-71.87)"/><rect class="cls-3" x="74.36" y="-23.43" width="1" height="142" transform="translate(6.35 103.91) rotate(-71.87)"/><rect class="cls-4" x="226.29" y="-150.78" width="1" height="452" transform="matrix(0.31, -0.95, 0.95, 0.31, 84.74, 267.35)"/><rect class="cls-1" x="18.64" y="5.73" width="1" height="3" transform="translate(6.31 23.17) rotate(-71.87)"/><rect class="cls-1" x="11.04" y="3.24" width="1" height="3" transform="translate(3.44 14.23) rotate(-71.87)"/><rect class="cls-1" x="26.24" y="8.22" width="1" height="3" transform="translate(9.18 32.11) rotate(-71.87)"/><rect class="cls-1" x="33.85" y="10.71" width="1" height="3" transform="translate(12.05 41.05) rotate(-71.87)"/><rect class="cls-1" x="41.45" y="13.2" width="1" height="3" transform="translate(14.93 49.99) rotate(-71.87)"/><rect class="cls-1" x="49.05" y="15.69" width="1" height="3" transform="translate(17.8 58.93) rotate(-71.87)"/><rect class="cls-1" x="56.66" y="18.18" width="1" height="3" transform="translate(20.67 67.87) rotate(-71.87)"/><rect class="cls-1" x="64.26" y="20.67" width="1" height="3" transform="translate(23.54 76.81) rotate(-71.87)"/><rect class="cls-1" x="71.86" y="23.16" width="1" height="3" transform="translate(26.41 85.75) rotate(-71.87)"/><rect class="cls-1" x="79.46" y="25.65" width="1" height="3" transform="translate(29.28 94.69) rotate(-71.87)"/><rect class="cls-1" x="87.07" y="28.14" width="1" height="3" transform="translate(32.16 103.63) rotate(-71.87)"/><rect class="cls-1" x="94.67" y="30.62" width="1" height="3" transform="translate(35.03 112.57) rotate(-71.87)"/><rect class="cls-1" x="102.27" y="33.11" width="1" height="3" transform="translate(37.9 121.51) rotate(-71.87)"/><rect class="cls-1" x="109.88" y="35.6" width="1" height="3" transform="translate(40.77 130.45) rotate(-71.87)"/><rect class="cls-1" x="117.48" y="38.09" width="1" height="3" transform="translate(43.64 139.4) rotate(-71.87)"/><rect class="cls-1" x="125.08" y="40.58" width="1" height="3" transform="translate(46.51 148.34) rotate(-71.87)"/><rect class="cls-1" x="132.68" y="43.07" width="1" height="3" transform="translate(49.39 157.28) rotate(-71.87)"/><rect class="cls-1" x="140.29" y="45.56" width="1" height="3" transform="translate(52.26 166.22) rotate(-71.87)"/><rect class="cls-1" x="147.89" y="48.05" width="1" height="3" transform="translate(55.13 175.16) rotate(-71.87)"/><rect class="cls-1" x="155.49" y="50.54" width="1" height="3" transform="translate(58 184.1) rotate(-71.87)"/><rect class="cls-1" x="163.1" y="53.03" width="1" height="3" transform="translate(60.87 193.04) rotate(-71.87)"/><rect class="cls-1" x="170.7" y="55.52" width="1" height="3" transform="translate(63.74 201.98) rotate(-71.87)"/><rect class="cls-1" x="178.3" y="58.01" width="1" height="3" transform="translate(66.62 210.92) rotate(-71.87)"/><rect class="cls-1" x="185.9" y="60.49" width="1" height="3" transform="translate(69.49 219.86) rotate(-71.87)"/><rect class="cls-1" x="193.51" y="62.98" width="1" height="3" transform="translate(72.36 228.8) rotate(-71.87)"/><rect class="cls-1" x="201.11" y="65.47" width="1" height="3" transform="translate(75.23 237.74) rotate(-71.87)"/><rect class="cls-1" x="208.71" y="67.96" width="1" height="3" transform="translate(78.1 246.68) rotate(-71.87)"/><rect class="cls-1" x="216.32" y="70.45" width="1" height="3" transform="translate(80.97 255.62) rotate(-71.87)"/><rect class="cls-1" x="223.92" y="72.94" width="1" height="3" transform="translate(83.85 264.56) rotate(-71.87)"/><rect class="cls-1" x="231.52" y="75.43" width="1" height="3" transform="translate(86.72 273.5) rotate(-71.87)"/><rect class="cls-1" x="239.12" y="77.92" width="1" height="3" transform="translate(89.59 282.44) rotate(-71.87)"/><rect class="cls-1" x="246.73" y="80.41" width="1" height="3" transform="translate(92.46 291.38) rotate(-71.87)"/><rect class="cls-1" x="254.33" y="82.9" width="1" height="3" transform="translate(95.33 300.32) rotate(-71.87)"/><rect class="cls-1" x="261.93" y="85.39" width="1" height="3" transform="translate(98.2 309.26) rotate(-71.87)"/><rect class="cls-1" x="379.78" y="123.97" width="1" height="3" transform="translate(142.71 447.83) rotate(-71.87)"/><rect class="cls-1" x="387.38" y="126.46" width="1" height="3" transform="translate(145.58 456.77) rotate(-71.87)"/><rect class="cls-1" x="394.98" y="128.95" width="1" height="3" transform="translate(148.46 465.71) rotate(-71.87)"/><rect class="cls-1" x="402.59" y="131.44" width="1" height="3" transform="translate(151.33 474.65) rotate(-71.87)"/><rect class="cls-1" x="410.19" y="133.93" width="1" height="3" transform="translate(154.2 483.59) rotate(-71.87)"/><rect class="cls-1" x="417.79" y="136.42" width="1" height="3" transform="translate(157.07 492.53) rotate(-71.87)"/><rect class="cls-1" x="425.4" y="138.9" width="1" height="3" transform="translate(159.94 501.47) rotate(-71.87)"/><rect class="cls-1" x="433" y="141.39" width="1" height="3" transform="translate(162.81 510.41) rotate(-71.87)"/><rect class="cls-1" x="440.13" y="144.23" width="1" height="2" transform="translate(165.51 518.79) rotate(-71.87)"/><rect class="cls-4" x="425.87" y="156.29" width="23" height="1" transform="translate(152.28 523.66) rotate(-71.87)"/><rect class="cls-4" x="-5.96" y="16.29" width="25" height="1" transform="translate(-11.45 17.78) rotate(-71.87)"/><rect class="cls-2" x="308.45" y="46.97" width="22" height="114" transform="translate(121.24 375.21) rotate(-71.87)"/><rect class="cls-4" x="379.9" y="103.93" width="4" height="1" transform="translate(163.83 434.88) rotate(-71.87)"/><rect class="cls-6" x="381.22" y="102.98" width="2" height="1" transform="translate(164.94 434.53) rotate(-71.87)"/><rect class="cls-1" x="380.86" y="104.24" width="4" height="1" transform="translate(164.19 436) rotate(-71.87)"/><rect class="cls-3" x="325.32" y="23.49" width="1" height="122" transform="translate(144.15 367.85) rotate(-71.87)"/><rect class="cls-2" x="319.45" y="31.05" width="20" height="104" transform="translate(148.02 370.31) rotate(-71.87)"/><rect class="cls-2" x="319.49" y="30.62" width="8" height="122" transform="translate(135.76 370.55) rotate(-71.87)"/><rect class="cls-4" x="265.75" y="69.58" width="3" height="2" transform="translate(117.02 302.6) rotate(-71.87)"/><rect class="cls-4" x="274.42" y="74.29" width="5" height="1" transform="matrix(0.31, -0.95, 0.95, 0.31, 119.67, 314.69)"/><rect class="cls-4" x="272.76" y="66.49" width="1" height="10" transform="translate(120.29 308.94) rotate(-71.87)"/><rect class="cls-6" x="268.01" y="68.94" width="1" height="2" transform="translate(118.5 303.36) rotate(-71.87)"/><rect class="cls-6" x="275.14" y="70.77" width="1" height="3" transform="translate(121.19 311.74) rotate(-71.87)"/><rect class="cls-6" x="374.2" y="106.96" width="5" height="1" transform="translate(157.36 432.03) rotate(-71.87)"/><rect class="cls-4" x="369.46" y="101.43" width="16" height="1" transform="translate(163.15 428.94) rotate(-71.87)"/><rect class="cls-4" x="271.58" y="69.38" width="16" height="1" transform="matrix(0.31, -0.95, 0.95, 0.31, 126.18, 313.83)"/><rect class="cls-4" x="363.9" y="124.86" width="16" height="1" transform="matrix(0.31, -0.95, 0.95, 0.31, 137.05, 439.79)"/><rect class="cls-4" x="256.51" y="89.7" width="16" height="1" transform="translate(96.49 313.51) rotate(-71.87)"/><path class="cls-1" d="M369.37,96.12l-3.11,9.5-5.7-1.86,3.11-9.51,5.7,1.87m1.26-.64L363,93l-3.74,11.4,7.61,2.49Z"/><rect class="cls-7" x="364.9" y="96.09" width="2" height="2" transform="translate(159.78 414.61) rotate(-71.87)"/><rect class="cls-3" x="365.08" y="95.95" width="1" height="1" transform="translate(160.16 413.87) rotate(-71.87)"/><rect class="cls-8" x="365.72" y="97.22" width="1" height="1" transform="translate(159.4 415.35) rotate(-71.87)"/><path class="cls-1" d="M305.69,75.27l-3.11,9.5-5.7-1.86L300,73.4l5.7,1.87m1.27-.64-7.61-2.49-3.73,11.41,7.6,2.49Z"/><rect class="cls-7" x="301.22" y="75.24" width="2" height="2" transform="translate(135.73 339.74) rotate(-71.87)"/><rect class="cls-3" x="301.4" y="75.11" width="1" height="1" transform="translate(136.11 339) rotate(-71.87)"/><rect class="cls-8" x="302.04" y="76.37" width="1" height="1" transform="translate(135.35 340.47) rotate(-71.87)"/><rect class="cls-4" x="325.69" y="41.03" width="1" height="104" transform="translate(136.28 374.08) rotate(-71.87)"/><rect class="cls-4" x="266.21" y="67.07" width="3" height="1" transform="translate(120.19 300.96) rotate(-71.87)"/><rect class="cls-1" x="267.16" y="67.38" width="3" height="1" transform="translate(120.55 302.08) rotate(-71.87)"/><rect class="cls-4" x="273.81" y="69.56" width="3" height="1" transform="translate(123.07 309.9) rotate(-71.87)"/><rect class="cls-1" x="274.76" y="69.87" width="3" height="1" transform="translate(123.43 311.02) rotate(-71.87)"/><rect class="cls-6" x="275.6" y="68.26" width="1" height="2" transform="translate(124.36 310.1) rotate(-71.87)"/><rect class="cls-6" x="267.99" y="65.77" width="1" height="2" transform="translate(121.49 301.16) rotate(-71.87)"/><rect class="cls-6" x="320.31" y="41.27" width="2" height="114" transform="translate(127.94 373.06) rotate(-71.87)"/><rect class="cls-4" x="319.69" y="43.17" width="2" height="114" transform="translate(125.71 373.78) rotate(-71.87)"/><rect class="cls-4" x="329.39" y="28.2" width="2" height="104" transform="translate(151.37 369.23) rotate(-71.87)"/><rect class="cls-4" x="257.72" y="102.03" width="2" height="2" transform="translate(80.3 316.86) rotate(-71.87)"/><rect class="cls-3" x="249.46" y="89.87" width="22.29" height="2" transform="matrix(0.31, -0.95, 0.95, 0.31, 93.16, 310.26)"/><rect class="cls-9" x="262.41" y="81.73" width="1.71" height="2" transform="translate(102.73 307.19) rotate(-71.87)"/><rect class="cls-10" x="263.48" y="78.47" width="1.71" height="2" transform="translate(106.57 305.96) rotate(-71.87)"/><rect class="cls-9" x="261.35" y="84.99" width="1.71" height="2" transform="translate(98.9 308.42) rotate(-71.87)"/><rect class="cls-9" x="260.28" y="88.25" width="1.71" height="2" transform="translate(95.07 309.65) rotate(-71.87)"/><rect class="cls-9" x="259.22" y="91.5" width="1.71" height="2" transform="translate(91.25 310.88) rotate(-71.87)"/><rect class="cls-9" x="258.15" y="94.76" width="1.71" height="2" transform="translate(87.41 312.11) rotate(-71.87)"/><rect class="cls-9" x="257.08" y="98.01" width="1.71" height="2" transform="translate(83.58 313.34) rotate(-71.87)"/><rect class="cls-11" x="262.95" y="80.09" width="1.71" height="2" transform="translate(104.66 306.57) rotate(-71.87)"/><rect class="cls-1" x="371.77" y="139.37" width="2" height="2" transform="translate(123.38 450.96) rotate(-71.87)"/><rect class="cls-3" x="363.5" y="127.21" width="22.29" height="2" transform="matrix(0.31, -0.95, 0.95, 0.31, 136.23, 444.37)"/><rect class="cls-9" x="376.46" y="119.06" width="1.71" height="2" transform="translate(145.81 441.29) rotate(-71.87)"/><rect class="cls-10" x="377.53" y="115.8" width="1.71" height="2" transform="translate(149.64 440.06) rotate(-71.87)"/><rect class="cls-9" x="375.39" y="122.32" width="1.71" height="2" transform="translate(141.97 442.52) rotate(-71.87)"/><rect class="cls-9" x="374.32" y="125.58" width="1.71" height="2" transform="translate(138.14 443.75) rotate(-71.87)"/><rect class="cls-9" x="373.26" y="128.83" width="1.71" height="2" transform="translate(134.32 444.98) rotate(-71.87)"/><rect class="cls-9" x="372.19" y="132.09" width="1.71" height="2" transform="translate(130.49 446.21) rotate(-71.87)"/><rect class="cls-9" x="371.12" y="135.35" width="1.71" height="2" transform="translate(126.65 447.44) rotate(-71.87)"/><rect class="cls-11" x="376.99" y="117.43" width="1.71" height="2" transform="translate(147.73 440.67) rotate(-71.87)"/><rect class="cls-4" x="320.94" y="35.37" width="2" height="122" transform="translate(130.18 372.34) rotate(-71.87)"/><rect class="cls-1" x="321.59" y="34.9" width="1" height="122" transform="translate(130.74 372.16) rotate(-71.87)"/><rect class="cls-2" x="327.19" y="13.65" width="12" height="116" transform="translate(161.43 366) rotate(-71.87)"/><rect class="cls-4" x="384.15" y="88.71" width="2" height="2" transform="translate(180.05 427.82) rotate(-71.87)"/><rect class="cls-11" x="394.76" y="62.72" width="2" height="2" transform="translate(212.06 420.01) rotate(-71.87)"/><rect class="cls-12" x="396.66" y="63.34" width="2" height="2" transform="translate(212.78 422.24) rotate(-71.87)"/><rect class="cls-11" x="398.56" y="63.97" width="2" height="2" transform="translate(213.5 424.48) rotate(-71.87)"/><rect class="cls-12" x="400.46" y="64.59" width="2" height="2" transform="translate(214.21 426.71) rotate(-71.87)"/><rect class="cls-3" x="399.18" y="62.07" width="2" height="2" transform="translate(215.73 423.76) rotate(-71.87)"/><rect class="cls-9" x="397.28" y="61.44" width="2" height="2" transform="translate(215.01 421.53) rotate(-71.87)"/><rect class="cls-3" x="395.38" y="60.82" width="2" height="2" transform="translate(214.3 419.29) rotate(-71.87)"/><rect class="cls-3" x="396" y="58.92" width="2" height="2" transform="translate(216.53 418.57) rotate(-71.87)"/><rect class="cls-12" x="392.86" y="62.1" width="2" height="2" transform="translate(211.34 417.77) rotate(-71.87)"/><rect class="cls-9" x="393.48" y="60.2" width="2" height="2" transform="translate(213.58 417.06) rotate(-71.87)"/><rect class="cls-9" x="394.1" y="58.3" width="2" height="2" transform="translate(215.81 416.34) rotate(-71.87)"/><rect class="cls-9" x="397.9" y="59.54" width="2" height="2" transform="translate(217.25 420.81) rotate(-71.87)"/><rect class="cls-1" x="372.54" y="71.93" width="32" height="2" transform="translate(198.33 419.49) rotate(-71.87)"/><rect class="cls-4" x="330.63" y="18.4" width="2" height="116" transform="matrix(0.31, -0.95, 0.95, 0.31, 155.84, 367.8)"/><rect class="cls-1" x="331.29" y="17.92" width="1" height="116" transform="matrix(0.31, -0.95, 0.95, 0.31, 156.4, 367.62)"/><rect class="cls-6" x="330.01" y="26.3" width="2" height="104" transform="translate(153.6 368.51) rotate(-71.87)"/><rect class="cls-4" x="315.66" y="57.69" width="2" height="116" transform="translate(108.19 380.64) rotate(-71.87)"/><rect class="cls-1" x="316.32" y="57.22" width="1" height="116" transform="translate(108.74 380.46) rotate(-71.87)"/><rect class="cls-4" x="314.42" y="63.49" width="2" height="112" transform="translate(103.72 382.07) rotate(-71.87)"/><rect class="cls-4" x="409.16" y="129.72" width="2" height="50" transform="translate(135.5 496.38) rotate(-71.87)"/><rect class="cls-6" x="265.83" y="75.59" width="1" height="2" transform="translate(110.68 305.87) rotate(-71.87)"/><rect class="cls-6" x="273.43" y="78.08" width="1" height="2" transform="translate(113.55 314.81) rotate(-71.87)"/><rect class="cls-6" x="281.51" y="81.22" width="1" height="1" transform="translate(116.6 324.31) rotate(-71.87)"/><rect class="cls-6" x="288.64" y="83.06" width="1" height="2" transform="translate(119.29 332.69) rotate(-71.87)"/><rect class="cls-6" x="296.24" y="85.55" width="1" height="2" transform="translate(122.16 341.63) rotate(-71.87)"/><rect class="cls-6" x="303.85" y="88.03" width="1" height="2" transform="translate(125.03 350.57) rotate(-71.87)"/><rect class="cls-6" x="311.45" y="90.52" width="1" height="2" transform="translate(127.9 359.51) rotate(-71.87)"/><rect class="cls-6" x="319.05" y="93.01" width="1" height="2" transform="translate(130.78 368.45) rotate(-71.87)"/><rect class="cls-6" x="326.65" y="95.5" width="1" height="2" transform="translate(133.65 377.39) rotate(-71.87)"/><rect class="cls-6" x="334.26" y="97.99" width="1" height="2" transform="translate(136.52 386.33) rotate(-71.87)"/><rect class="cls-6" x="341.86" y="100.48" width="1" height="2" transform="translate(139.39 395.27) rotate(-71.87)"/><rect class="cls-6" x="349.46" y="102.97" width="1" height="2" transform="translate(142.26 404.21) rotate(-71.87)"/><rect class="cls-6" x="357.07" y="105.46" width="1" height="2" transform="translate(145.13 413.15) rotate(-71.87)"/><rect class="cls-6" x="364.67" y="107.95" width="1" height="2" transform="translate(148.01 422.09) rotate(-71.87)"/><rect class="cls-6" x="372.27" y="110.44" width="1" height="2" transform="translate(150.88 431.03) rotate(-71.87)"/><rect class="cls-4" x="263.37" y="74.2" width="4" height="1" transform="matrix(0.31, -0.95, 0.95, 0.31, 111.81, 303.65)"/><rect class="cls-1" x="264.32" y="74.51" width="4" height="1" transform="translate(112.17 304.77) rotate(-71.87)"/><rect class="cls-4" x="270.98" y="76.69" width="4" height="1" transform="translate(114.68 312.59) rotate(-71.87)"/><rect class="cls-1" x="271.93" y="77" width="4" height="1" transform="matrix(0.31, -0.95, 0.95, 0.31, 115.04, 313.71)"/><rect class="cls-4" x="278.58" y="79.17" width="4" height="1" transform="translate(117.56 321.53) rotate(-71.87)"/><rect class="cls-1" x="279.53" y="79.49" width="4" height="1" transform="translate(117.92 322.65) rotate(-71.87)"/><rect class="cls-4" x="286.18" y="81.66" width="4" height="1" transform="matrix(0.31, -0.95, 0.95, 0.31, 120.43, 330.47)"/><rect class="cls-1" x="287.13" y="81.98" width="4" height="1" transform="translate(120.79 331.59) rotate(-71.87)"/><rect class="cls-4" x="293.78" y="84.15" width="4" height="1" transform="translate(123.3 339.41) rotate(-71.87)"/><rect class="cls-1" x="294.73" y="84.46" width="4" height="1" transform="matrix(0.31, -0.95, 0.95, 0.31, 123.66, 340.53)"/><rect class="cls-4" x="301.39" y="86.64" width="4" height="1" transform="translate(126.17 348.35) rotate(-71.87)"/><rect class="cls-1" x="302.34" y="86.95" width="4" height="1" transform="matrix(0.31, -0.95, 0.95, 0.31, 126.53, 349.47)"/><rect class="cls-4" x="308.99" y="89.13" width="4" height="1" transform="translate(129.04 357.29) rotate(-71.87)"/><rect class="cls-1" x="309.94" y="89.44" width="4" height="1" transform="translate(129.4 358.41) rotate(-71.87)"/><rect class="cls-4" x="316.59" y="91.62" width="4" height="1" transform="matrix(0.31, -0.95, 0.95, 0.31, 131.91, 366.24)"/><rect class="cls-1" x="317.54" y="91.93" width="4" height="1" transform="translate(132.27 367.35) rotate(-71.87)"/><rect class="cls-4" x="324.2" y="94.11" width="4" height="1" transform="translate(134.79 375.18) rotate(-71.87)"/><rect class="cls-1" x="325.15" y="94.42" width="4" height="1" transform="matrix(0.31, -0.95, 0.95, 0.31, 135.14, 376.29)"/><rect class="cls-4" x="331.8" y="96.6" width="4" height="1" transform="translate(137.66 384.12) rotate(-71.87)"/><rect class="cls-1" x="332.75" y="96.91" width="4" height="1" transform="matrix(0.31, -0.95, 0.95, 0.31, 138.02, 385.23)"/><rect class="cls-4" x="339.4" y="99.09" width="4" height="1" transform="translate(140.53 393.06) rotate(-71.87)"/><rect class="cls-1" x="340.35" y="99.4" width="4" height="1" transform="translate(140.89 394.17) rotate(-71.87)"/><rect class="cls-4" x="354.61" y="104.07" width="4" height="1" transform="translate(146.27 410.94) rotate(-71.87)"/><rect class="cls-1" x="355.56" y="104.38" width="4" height="1" transform="translate(146.63 412.05) rotate(-71.87)"/><rect class="cls-4" x="362.21" y="106.56" width="4" height="1" transform="translate(149.14 419.88) rotate(-71.87)"/><rect class="cls-1" x="363.16" y="106.87" width="4" height="1" transform="translate(149.5 420.99) rotate(-71.87)"/><rect class="cls-4" x="369.81" y="109.05" width="4" height="1" transform="matrix(0.31, -0.95, 0.95, 0.31, 152.02, 428.82)"/><rect class="cls-1" x="370.76" y="109.36" width="4" height="1" transform="translate(152.37 429.93) rotate(-71.87)"/><rect class="cls-4" x="377.42" y="111.53" width="4" height="1" transform="matrix(0.31, -0.95, 0.95, 0.31, 154.89, 437.76)"/><rect class="cls-1" x="378.37" y="111.85" width="4" height="1" transform="translate(155.25 438.87) rotate(-71.87)"/><rect class="cls-4" x="347" y="101.58" width="4" height="1" transform="matrix(0.31, -0.95, 0.95, 0.31, 143.4, 402)"/><rect class="cls-1" x="347.95" y="101.89" width="4" height="1" transform="translate(143.76 403.11) rotate(-71.87)"/><rect class="cls-3" x="323.15" y="30.15" width="1" height="122" transform="translate(136.32 370.37) rotate(-71.87)"/><rect class="cls-6" x="232.46" y="108.49" width="2" height="2" transform="translate(56.76 297.3) rotate(-71.87)"/><rect class="cls-6" x="234.67" y="108.17" width="2" height="2" transform="translate(58.6 299.17) rotate(-71.87)"/><rect class="cls-4" x="235.64" y="106.74" width="1" height="2" transform="translate(60.27 298.63) rotate(-71.87)"/><rect class="cls-4" x="233.43" y="107.07" width="1" height="2" transform="translate(58.44 296.76) rotate(-71.87)"/><rect class="cls-6" x="236.88" y="107.84" width="2" height="2" transform="translate(60.43 301.05) rotate(-71.87)"/><rect class="cls-2" x="237.51" y="105.94" width="2" height="2" transform="translate(62.67 300.33) rotate(-71.87)"/><rect class="cls-6" x="335.08" y="37.94" width="2" height="204" transform="translate(98.52 415.8) rotate(-71.87)"/><rect class="cls-4" x="237.85" y="106.41" width="1" height="2" transform="translate(62.11 300.51) rotate(-71.87)"/><rect class="cls-6" x="239.44" y="107.99" width="1" height="2" transform="translate(61.71 303.1) rotate(-71.87)"/><rect class="cls-6" x="235.02" y="108.64" width="1" height="2" transform="translate(58.04 299.35) rotate(-71.87)"/><rect class="cls-4" x="7.63" y="32.56" width="4" height="1" transform="translate(-24.78 31.93) rotate(-71.87)"/><rect class="cls-1" x="8.58" y="32.87" width="4" height="1" transform="translate(-24.42 33.04) rotate(-71.87)"/><rect class="cls-6" x="9.76" y="31.74" width="1" height="2" transform="translate(-24.04 32.31) rotate(-71.87)"/><rect class="cls-4" x="0.03" y="30.07" width="4" height="1" transform="translate(-27.65 22.99) rotate(-71.87)"/><rect class="cls-1" x="0.98" y="30.38" width="4" height="1" transform="translate(-27.29 24.1) rotate(-71.87)"/><rect class="cls-6" x="2.16" y="29.25" width="1" height="2" transform="translate(-26.91 23.37) rotate(-71.87)"/><rect class="cls-4" x="15.24" y="35.05" width="4" height="1" transform="translate(-21.91 40.87) rotate(-71.87)"/><rect class="cls-1" x="16.19" y="35.36" width="4" height="1" transform="translate(-21.55 41.98) rotate(-71.87)"/><rect class="cls-6" x="17.37" y="34.23" width="1" height="2" transform="translate(-21.17 41.25) rotate(-71.87)"/><rect class="cls-4" x="22.84" y="37.53" width="4" height="1" transform="translate(-19.04 49.81) rotate(-71.87)"/><rect class="cls-1" x="23.79" y="37.85" width="4" height="1" transform="translate(-18.68 50.92) rotate(-71.87)"/><rect class="cls-6" x="24.97" y="36.72" width="1" height="2" transform="translate(-18.3 50.19) rotate(-71.87)"/><rect class="cls-4" x="30.44" y="40.02" width="4" height="1" transform="translate(-16.16 58.75) rotate(-71.87)"/><rect class="cls-1" x="31.39" y="40.34" width="4" height="1" transform="translate(-15.81 59.86) rotate(-71.87)"/><rect class="cls-6" x="32.57" y="39.2" width="1" height="2" transform="translate(-15.43 59.13) rotate(-71.87)"/><rect class="cls-4" x="38.05" y="42.51" width="4" height="1" transform="translate(-13.29 67.69) rotate(-71.87)"/><rect class="cls-1" x="39" y="42.82" width="4" height="1" transform="translate(-12.93 68.8) rotate(-71.87)"/><rect class="cls-4" x="45.65" y="45" width="4" height="1" transform="translate(-10.42 76.63) rotate(-71.87)"/><rect class="cls-1" x="46.6" y="45.31" width="4" height="1" transform="translate(-10.06 77.74) rotate(-71.87)"/><rect class="cls-4" x="53.25" y="47.49" width="4" height="1" transform="translate(-7.55 85.57) rotate(-71.87)"/><rect class="cls-1" x="54.2" y="47.8" width="4" height="1" transform="translate(-7.19 86.68) rotate(-71.87)"/><rect class="cls-4" x="60.85" y="49.98" width="4" height="1" transform="translate(-4.68 94.51) rotate(-71.87)"/><rect class="cls-1" x="61.8" y="50.29" width="4" height="1" transform="translate(-4.32 95.63) rotate(-71.87)"/><rect class="cls-4" x="68.46" y="52.47" width="4" height="1" transform="translate(-1.81 103.45) rotate(-71.87)"/><rect class="cls-1" x="69.41" y="52.78" width="4" height="1" transform="translate(-1.45 104.57) rotate(-71.87)"/><rect class="cls-4" x="76.06" y="54.96" width="4" height="1" transform="translate(1.07 112.39) rotate(-71.87)"/><rect class="cls-1" x="77.01" y="55.27" width="4" height="1" transform="translate(1.42 113.51) rotate(-71.87)"/><rect class="cls-4" x="83.66" y="57.45" width="4" height="1" transform="translate(3.94 121.33) rotate(-71.87)"/><rect class="cls-1" x="84.61" y="57.76" width="4" height="1" transform="translate(4.3 122.45) rotate(-71.87)"/><rect class="cls-4" x="91.27" y="59.94" width="4" height="1" transform="translate(6.81 130.27) rotate(-71.87)"/><rect class="cls-1" x="92.22" y="60.25" width="4" height="1" transform="translate(7.17 131.39) rotate(-71.87)"/><rect class="cls-4" x="98.87" y="62.43" width="4" height="1" transform="translate(9.68 139.21) rotate(-71.87)"/><rect class="cls-1" x="99.82" y="62.74" width="4" height="1" transform="translate(10.04 140.33) rotate(-71.87)"/><rect class="cls-4" x="106.47" y="64.92" width="4" height="1" transform="translate(12.55 148.15) rotate(-71.87)"/><rect class="cls-1" x="107.42" y="65.23" width="4" height="1" transform="translate(12.91 149.27) rotate(-71.87)"/><rect class="cls-4" x="114.07" y="67.41" width="4" height="1" transform="translate(15.42 157.09) rotate(-71.87)"/><rect class="cls-1" x="115.02" y="67.72" width="4" height="1" transform="translate(15.78 158.21) rotate(-71.87)"/><rect class="cls-4" x="121.68" y="69.89" width="4" height="1" transform="translate(18.29 166.03) rotate(-71.87)"/><rect class="cls-1" x="122.63" y="70.21" width="4" height="1" transform="translate(18.65 167.15) rotate(-71.87)"/><rect class="cls-4" x="129.28" y="72.38" width="4" height="1" transform="translate(21.17 174.97) rotate(-71.87)"/><rect class="cls-1" x="130.23" y="72.69" width="4" height="1" transform="translate(21.53 176.09) rotate(-71.87)"/><rect class="cls-4" x="136.88" y="74.87" width="4" height="1" transform="translate(24.04 183.91) rotate(-71.87)"/><rect class="cls-1" x="137.83" y="75.18" width="4" height="1" transform="translate(24.4 185.03) rotate(-71.87)"/><rect class="cls-4" x="144.49" y="77.36" width="4" height="1" transform="translate(26.91 192.85) rotate(-71.87)"/><rect class="cls-1" x="145.44" y="77.67" width="4" height="1" transform="translate(27.27 193.97) rotate(-71.87)"/><rect class="cls-4" x="152.09" y="79.85" width="4" height="1" transform="translate(29.78 201.79) rotate(-71.87)"/><rect class="cls-1" x="153.04" y="80.16" width="4" height="1" transform="translate(30.14 202.91) rotate(-71.87)"/><rect class="cls-4" x="159.69" y="82.34" width="4" height="1" transform="translate(32.65 210.73) rotate(-71.87)"/><rect class="cls-1" x="160.64" y="82.65" width="4" height="1" transform="translate(33.01 211.85) rotate(-71.87)"/><rect class="cls-4" x="167.29" y="84.83" width="4" height="1" transform="translate(35.52 219.67) rotate(-71.87)"/><rect class="cls-1" x="168.24" y="85.14" width="4" height="1" transform="translate(35.88 220.79) rotate(-71.87)"/><rect class="cls-4" x="174.9" y="87.32" width="4" height="1" transform="translate(38.4 228.61) rotate(-71.87)"/><rect class="cls-1" x="175.85" y="87.63" width="4" height="1" transform="translate(38.76 229.73) rotate(-71.87)"/><rect class="cls-4" x="182.5" y="89.81" width="4" height="1" transform="translate(41.27 237.55) rotate(-71.87)"/><rect class="cls-1" x="183.45" y="90.12" width="4" height="1" transform="translate(41.63 238.67) rotate(-71.87)"/><rect class="cls-4" x="190.1" y="92.3" width="4" height="1" transform="translate(44.14 246.49) rotate(-71.87)"/><rect class="cls-1" x="191.05" y="92.61" width="4" height="1" transform="translate(44.5 247.61) rotate(-71.87)"/><rect class="cls-4" x="197.71" y="94.79" width="4" height="1" transform="translate(47.01 255.43) rotate(-71.87)"/><rect class="cls-1" x="198.66" y="95.1" width="4" height="1" transform="translate(47.37 256.55) rotate(-71.87)"/><rect class="cls-4" x="205.31" y="97.28" width="4" height="1" transform="translate(49.88 264.37) rotate(-71.87)"/><rect class="cls-1" x="206.26" y="97.59" width="4" height="1" transform="translate(50.24 265.49) rotate(-71.87)"/><rect class="cls-4" x="212.91" y="99.76" width="4" height="1" transform="translate(52.75 273.31) rotate(-71.87)"/><rect class="cls-1" x="213.86" y="100.08" width="4" height="1" transform="translate(53.11 274.43) rotate(-71.87)"/><rect class="cls-4" x="220.51" y="102.25" width="4" height="1" transform="translate(55.63 282.25) rotate(-71.87)"/><rect class="cls-1" x="221.46" y="102.57" width="4" height="1" transform="translate(55.98 283.37) rotate(-71.87)"/><rect class="cls-4" x="228.12" y="104.74" width="4" height="1" transform="translate(58.5 291.19) rotate(-71.87)"/><rect class="cls-1" x="229.07" y="105.05" width="4" height="1" transform="matrix(0.31, -0.95, 0.95, 0.31, 58.86, 292.31)"/><rect class="cls-4" x="234.44" y="104.71" width="4" height="1" transform="matrix(0.31, -0.95, 0.95, 0.31, 62.89, 297.18)"/><rect class="cls-1" x="235.39" y="105.02" width="4" height="1" transform="translate(63.25 298.3) rotate(-71.87)"/><rect class="cls-4" x="430.84" y="166.91" width="4" height="1" transform="translate(139.07 526.67) rotate(-71.87)"/><rect class="cls-1" x="431.79" y="167.22" width="4" height="1" transform="translate(139.42 527.79) rotate(-71.87)"/><rect class="cls-4" x="423.24" y="164.42" width="4" height="1" transform="translate(136.19 517.73) rotate(-71.87)"/><rect class="cls-1" x="424.19" y="164.73" width="4" height="1" transform="matrix(0.31, -0.95, 0.95, 0.31, 136.55, 518.85)"/><rect class="cls-4" x="415.63" y="161.93" width="4" height="1" transform="translate(133.32 508.79) rotate(-71.87)"/><rect class="cls-1" x="416.58" y="162.24" width="4" height="1" transform="translate(133.68 509.91) rotate(-71.87)"/><rect class="cls-4" x="408.03" y="159.44" width="4" height="1" transform="matrix(0.31, -0.95, 0.95, 0.31, 130.45, 499.85)"/><rect class="cls-1" x="408.98" y="159.75" width="4" height="1" transform="translate(130.81 500.97) rotate(-71.87)"/><rect class="cls-4" x="400.43" y="156.95" width="4" height="1" transform="translate(127.58 490.91) rotate(-71.87)"/><rect class="cls-1" x="401.38" y="157.26" width="4" height="1" transform="translate(127.94 492.03) rotate(-71.87)"/><rect class="cls-4" x="392.82" y="154.46" width="4" height="1" transform="translate(124.71 481.97) rotate(-71.87)"/><rect class="cls-1" x="393.77" y="154.77" width="4" height="1" transform="matrix(0.31, -0.95, 0.95, 0.31, 125.07, 483.09)"/><rect class="cls-4" x="385.22" y="151.97" width="4" height="1" transform="matrix(0.31, -0.95, 0.95, 0.31, 121.84, 473.03)"/><rect class="cls-1" x="386.17" y="152.28" width="4" height="1" transform="translate(122.19 474.15) rotate(-71.87)"/><rect class="cls-4" x="377.62" y="149.48" width="4" height="1" transform="translate(118.96 464.09) rotate(-71.87)"/><rect class="cls-1" x="378.57" y="149.79" width="4" height="1" transform="translate(119.32 465.21) rotate(-71.87)"/><rect class="cls-4" x="370.02" y="146.99" width="4" height="1" transform="translate(116.09 455.15) rotate(-71.87)"/><rect class="cls-1" x="370.97" y="147.3" width="4" height="1" transform="translate(116.45 456.27) rotate(-71.87)"/><rect class="cls-4" x="362.41" y="144.5" width="4" height="1" transform="translate(113.22 446.21) rotate(-71.87)"/><rect class="cls-1" x="363.36" y="144.81" width="4" height="1" transform="matrix(0.31, -0.95, 0.95, 0.31, 113.58, 447.33)"/><rect class="cls-4" x="354.81" y="142.01" width="4" height="1" transform="matrix(0.31, -0.95, 0.95, 0.31, 110.35, 437.27)"/><rect class="cls-1" x="355.76" y="142.32" width="4" height="1" transform="translate(110.71 438.39) rotate(-71.87)"/><rect class="cls-4" x="347.21" y="139.52" width="4" height="1" transform="translate(107.48 428.33) rotate(-71.87)"/><rect class="cls-1" x="348.16" y="139.84" width="4" height="1" transform="translate(107.84 429.45) rotate(-71.87)"/><rect class="cls-4" x="339.6" y="137.04" width="4" height="1" transform="translate(104.61 419.39) rotate(-71.87)"/><rect class="cls-1" x="340.55" y="137.35" width="4" height="1" transform="translate(104.96 420.51) rotate(-71.87)"/><rect class="cls-4" x="332" y="134.55" width="4" height="1" transform="matrix(0.31, -0.95, 0.95, 0.31, 101.73, 410.45)"/><rect class="cls-1" x="332.95" y="134.86" width="4" height="1" transform="translate(102.09 411.57) rotate(-71.87)"/><rect class="cls-4" x="324.4" y="132.06" width="4" height="1" transform="matrix(0.31, -0.95, 0.95, 0.31, 98.86, 401.51)"/><rect class="cls-1" x="325.35" y="132.37" width="4" height="1" transform="translate(99.22 402.63) rotate(-71.87)"/><rect class="cls-4" x="316.8" y="129.57" width="4" height="1" transform="translate(95.99 392.57) rotate(-71.87)"/><rect class="cls-1" x="317.75" y="129.88" width="4" height="1" transform="translate(96.35 393.69) rotate(-71.87)"/><rect class="cls-4" x="309.19" y="127.08" width="4" height="1" transform="translate(93.12 383.63) rotate(-71.87)"/><rect class="cls-1" x="310.14" y="127.39" width="4" height="1" transform="matrix(0.31, -0.95, 0.95, 0.31, 93.48, 384.74)"/><rect class="cls-4" x="301.59" y="124.59" width="4" height="1" transform="matrix(0.31, -0.95, 0.95, 0.31, 90.25, 374.69)"/><rect class="cls-1" x="302.54" y="124.9" width="4" height="1" transform="translate(90.61 375.8) rotate(-71.87)"/><rect class="cls-4" x="293.99" y="122.1" width="4" height="1" transform="matrix(0.31, -0.95, 0.95, 0.31, 87.38, 365.75)"/><rect class="cls-1" x="294.94" y="122.41" width="4" height="1" transform="translate(87.74 366.86) rotate(-71.87)"/><rect class="cls-4" x="286.38" y="119.61" width="4" height="1" transform="translate(84.5 356.81) rotate(-71.87)"/><rect class="cls-1" x="287.33" y="119.92" width="4" height="1" transform="translate(84.86 357.92) rotate(-71.87)"/><rect class="cls-4" x="278.78" y="117.12" width="4" height="1" transform="translate(81.63 347.87) rotate(-71.87)"/><rect class="cls-1" x="279.73" y="117.43" width="4" height="1" transform="matrix(0.31, -0.95, 0.95, 0.31, 81.99, 348.98)"/><rect class="cls-4" x="271.18" y="114.63" width="4" height="1" transform="matrix(0.31, -0.95, 0.95, 0.31, 78.76, 338.93)"/><rect class="cls-1" x="272.13" y="114.94" width="4" height="1" transform="translate(79.12 340.04) rotate(-71.87)"/><rect class="cls-4" x="263.58" y="112.14" width="4" height="1" transform="translate(75.89 329.99) rotate(-71.87)"/><rect class="cls-1" x="264.53" y="112.45" width="4" height="1" transform="translate(76.25 331.1) rotate(-71.87)"/><rect class="cls-4" x="255.97" y="109.65" width="4" height="1" transform="translate(73.02 321.05) rotate(-71.87)"/><rect class="cls-1" x="256.92" y="109.97" width="4" height="1" transform="matrix(0.31, -0.95, 0.95, 0.31, 73.38, 322.16)"/><rect class="cls-4" x="248.37" y="107.16" width="4" height="1" transform="translate(70.15 312.11) rotate(-71.87)"/><rect class="cls-1" x="249.32" y="107.48" width="4" height="1" transform="matrix(0.31, -0.95, 0.95, 0.31, 70.51, 313.22)"/><rect class="cls-4" x="240.77" y="104.68" width="4" height="1" transform="translate(67.27 303.17) rotate(-71.87)"/><rect class="cls-1" x="241.72" y="104.99" width="4" height="1" transform="translate(67.63 304.28) rotate(-71.87)"/><rect class="cls-3" x="117.47" y="-55.05" width="1" height="244" transform="translate(17.64 158.23) rotate(-71.87)"/><rect class="cls-3" x="337.29" y="32.71" width="1" height="204" transform="translate(104.67 413.82) rotate(-71.87)"/><rect class="cls-3" x="236.88" y="102.94" width="1" height="2" transform="translate(64.74 297.2) rotate(-71.87)"/><rect class="cls-3" x="239.1" y="102.61" width="1" height="2" transform="translate(66.58 299.08) rotate(-71.87)"/><rect class="cls-3" x="234.67" y="103.27" width="1" height="2" transform="translate(62.91 295.32) rotate(-71.87)"/><rect class="cls-4" x="367.7" y="126.72" width="10" height="2" transform="translate(135.35 442.18) rotate(-71.87)"/><rect class="cls-1" x="368.39" y="127.67" width="8" height="2" transform="translate(134.23 442.54) rotate(-71.87)"/><rect class="cls-3" x="263.89" y="68.02" width="7" height="1" transform="translate(119.08 301.32) rotate(-71.87)"/><rect class="cls-3" x="378.89" y="105.67" width="7" height="1" transform="translate(162.51 436.54) rotate(-71.87)"/><rect class="cls-4" x="383.14" y="88.09" width="10" height="1" transform="translate(183.18 429.9) rotate(-71.87)"/><rect class="cls-3" x="277.79" y="49.45" width="4" height="1" transform="matrix(0.31, -0.95, 0.95, 0.31, 145.26, 300.31)"/><rect class="cls-4" x="275.23" y="54.2" width="6" height="1" transform="translate(139.67 302.1) rotate(-71.87)"/><rect class="cls-4" x="339.15" y="26.97" width="1" height="82" transform="translate(169.37 369.62) rotate(-71.87)"/><rect class="cls-3" x="286.88" y="42.86" width="1" height="16" transform="translate(149.63 308.15) rotate(-71.87)"/><rect class="cls-4" x="292.91" y="43.94" width="1" height="22" transform="translate(149.9 316.69) rotate(-71.87)"/><rect class="cls-3" x="297.33" y="53.28" width="1" height="2" transform="translate(153.57 320.44) rotate(-71.87)"/><rect class="cls-4" x="301.2" y="47.99" width="22" height="2" transform="translate(168.5 330.44) rotate(-71.87)"/><rect class="cls-1" x="303.1" y="48.61" width="22" height="2" transform="translate(169.22 332.68) rotate(-71.87)"/><rect class="cls-6" x="312.47" y="50.51" width="2" height="2" transform="translate(166.98 333.4) rotate(-71.87)"/><rect class="cls-1" x="310.57" y="49.89" width="2" height="2" transform="translate(166.26 331.16) rotate(-71.87)"/><rect class="cls-1" x="311.26" y="60.64" width="2" height="2" transform="translate(156.52 339.22) rotate(-71.87)"/><rect class="cls-1" x="308.74" y="61.92" width="2" height="2" transform="translate(153.57 337.7) rotate(-71.87)"/><rect class="cls-6" x="309.36" y="60.02" width="2" height="2" transform="translate(155.81 336.99) rotate(-71.87)"/><rect class="cls-1" x="307.46" y="59.39" width="2" height="2" transform="translate(155.09 334.75) rotate(-71.87)"/><rect class="cls-4" x="310.64" y="62.54" width="2" height="2" transform="translate(154.29 339.94) rotate(-71.87)"/><rect class="cls-4" x="311.92" y="65.06" width="2" height="2" transform="translate(152.77 342.89) rotate(-71.87)"/><rect class="cls-4" x="309.39" y="37.5" width="10" height="16" transform="translate(173.33 330.13) rotate(-71.87)"/><polygon class="cls-1" points="321.68 48.94 320.44 52.74 305.23 47.76 305.54 46.81 318.85 51.17 319.78 48.32 321.68 48.94"/><rect class="cls-1" x="320.66" y="44.78" width="2" height="2" transform="translate(178.07 337.23) rotate(-71.87)"/><rect class="cls-12" x="313.39" y="44.5" width="2" height="2" transform="translate(173.33 330.13) rotate(-71.87)"/><rect class="cls-1" x="311.49" y="43.88" width="2" height="2" transform="translate(172.61 327.89) rotate(-71.87)"/><rect class="cls-1" x="314.01" y="42.6" width="2" height="2" transform="translate(175.56 329.41) rotate(-71.87)"/><rect class="cls-1" x="312.77" y="46.4" width="2" height="2" transform="translate(171.09 330.84) rotate(-71.87)"/><rect class="cls-1" x="312" y="45.96" width="1" height="1" transform="translate(171.11 328.99) rotate(-71.87)"/><rect class="cls-1" x="314.85" y="46.89" width="1" height="1" transform="translate(172.19 332.34) rotate(-71.87)"/><rect class="cls-1" x="312.93" y="43.11" width="1" height="1" transform="translate(174.47 327.91) rotate(-71.87)"/><rect class="cls-1" x="315.78" y="44.04" width="1" height="1" transform="translate(175.54 331.26) rotate(-71.87)"/><rect class="cls-1" x="315.29" y="45.12" width="2" height="2" transform="translate(174.05 332.36) rotate(-71.87)"/><polygon class="cls-3" points="312.14 39.5 311.52 41.4 309.62 40.78 309 42.68 307.1 42.06 308.34 38.26 312.14 39.5"/><rect class="cls-4" x="336.36" y="59.5" width="22" height="2" transform="translate(181.78 371.79) rotate(-71.87)"/><rect class="cls-1" x="338.26" y="60.12" width="22" height="2" transform="translate(182.5 374.03) rotate(-71.87)"/><rect class="cls-6" x="347.64" y="62.02" width="2" height="2" transform="translate(180.26 374.75) rotate(-71.87)"/><rect class="cls-1" x="345.74" y="61.4" width="2" height="2" transform="translate(179.54 372.51) rotate(-71.87)"/><rect class="cls-1" x="346.43" y="72.15" width="2" height="2" transform="translate(169.8 380.57) rotate(-71.87)"/><rect class="cls-1" x="343.9" y="73.43" width="2" height="2" transform="translate(166.85 379.05) rotate(-71.87)"/><rect class="cls-6" x="344.53" y="71.53" width="2" height="2" transform="translate(169.09 378.34) rotate(-71.87)"/><rect class="cls-1" x="342.62" y="70.91" width="2" height="2" transform="translate(168.37 376.1) rotate(-71.87)"/><rect class="cls-4" x="345.8" y="74.05" width="2" height="2" transform="translate(167.57 381.29) rotate(-71.87)"/><rect class="cls-4" x="347.08" y="76.57" width="2" height="2" transform="translate(166.05 384.24) rotate(-71.87)"/><rect class="cls-4" x="344.55" y="49.01" width="10" height="16" transform="translate(186.61 371.47) rotate(-71.87)"/><polygon class="cls-1" points="356.85 60.45 355.6 64.25 340.39 59.27 340.71 58.32 354.01 62.68 354.94 59.83 356.85 60.45"/><rect class="cls-1" x="355.83" y="56.29" width="2" height="2" transform="translate(191.36 378.58) rotate(-71.87)"/><rect class="cls-12" x="348.55" y="56.01" width="2" height="2" transform="translate(186.61 371.47) rotate(-71.87)"/><rect class="cls-1" x="346.65" y="55.39" width="2" height="2" transform="translate(185.89 369.24) rotate(-71.87)"/><rect class="cls-1" x="349.18" y="54.11" width="2" height="2" transform="translate(188.84 370.76) rotate(-71.87)"/><rect class="cls-1" x="347.93" y="57.91" width="2" height="2" transform="translate(184.37 372.19) rotate(-71.87)"/><rect class="cls-1" x="347.16" y="57.47" width="1" height="1" transform="matrix(0.31, -0.95, 0.95, 0.31, 184.39, 370.34)"/><rect class="cls-1" x="350.01" y="58.4" width="1" height="1" transform="translate(185.47 373.69) rotate(-71.87)"/><rect class="cls-1" x="348.09" y="54.62" width="1" height="1" transform="matrix(0.31, -0.95, 0.95, 0.31, 187.75, 369.26)"/><rect class="cls-1" x="350.95" y="55.55" width="1" height="1" transform="translate(188.82 372.61) rotate(-71.87)"/><rect class="cls-1" x="350.45" y="56.63" width="2" height="2" transform="translate(187.33 373.71) rotate(-71.87)"/><polygon class="cls-3" points="347.31 51.02 346.69 52.92 344.79 52.29 344.16 54.19 342.26 53.57 343.51 49.77 347.31 51.02"/><rect class="cls-6" x="265.81" y="72.43" width="1" height="2" transform="translate(113.67 303.67) rotate(-71.87)"/><rect class="cls-6" x="273.42" y="74.92" width="1" height="2" transform="translate(116.54 312.61) rotate(-71.87)"/><rect class="cls-6" x="281.02" y="77.4" width="1" height="2" transform="translate(119.41 321.55) rotate(-71.87)"/><rect class="cls-6" x="288.62" y="79.89" width="1" height="2" transform="translate(122.28 330.49) rotate(-71.87)"/><rect class="cls-6" x="296.23" y="82.38" width="1" height="2" transform="translate(125.16 339.43) rotate(-71.87)"/><rect class="cls-6" x="303.83" y="84.87" width="1" height="2" transform="translate(128.03 348.38) rotate(-71.87)"/><rect class="cls-6" x="311.43" y="87.36" width="1" height="2" transform="translate(130.9 357.32) rotate(-71.87)"/><rect class="cls-6" x="319.03" y="89.85" width="1" height="2" transform="translate(133.77 366.26) rotate(-71.87)"/><rect class="cls-6" x="326.64" y="92.34" width="1" height="2" transform="translate(136.64 375.2) rotate(-71.87)"/><rect class="cls-6" x="334.24" y="94.83" width="1" height="2" transform="translate(139.51 384.14) rotate(-71.87)"/><rect class="cls-6" x="341.84" y="97.32" width="1" height="2" transform="translate(142.38 393.08) rotate(-71.87)"/><rect class="cls-6" x="349.45" y="99.81" width="1" height="2" transform="translate(145.26 402.02) rotate(-71.87)"/><rect class="cls-6" x="357.05" y="102.3" width="1" height="2" transform="translate(148.13 410.96) rotate(-71.87)"/><rect class="cls-6" x="364.65" y="104.79" width="1" height="2" transform="translate(151 419.9) rotate(-71.87)"/><rect class="cls-6" x="372.25" y="107.28" width="1" height="2" transform="translate(153.87 428.84) rotate(-71.87)"/><rect class="cls-6" x="379.86" y="109.76" width="1" height="2" transform="translate(156.74 437.78) rotate(-71.87)"/><rect class="cls-6" x="40.18" y="41.69" width="1" height="2" transform="translate(-12.55 68.07) rotate(-71.87)"/><rect class="cls-6" x="47.78" y="44.18" width="1" height="2" transform="translate(-9.68 77.01) rotate(-71.87)"/><rect class="cls-6" x="55.38" y="46.67" width="1" height="2" transform="translate(-6.81 85.95) rotate(-71.87)"/><rect class="cls-6" x="62.98" y="49.16" width="1" height="2" transform="translate(-3.94 94.89) rotate(-71.87)"/><rect class="cls-6" x="70.59" y="51.65" width="1" height="2" transform="translate(-1.07 103.83) rotate(-71.87)"/><rect class="cls-6" x="78.19" y="54.14" width="1" height="2" transform="translate(1.8 112.77) rotate(-71.87)"/><rect class="cls-6" x="85.79" y="56.63" width="1" height="2" transform="translate(4.68 121.71) rotate(-71.87)"/><rect class="cls-6" x="93.4" y="59.12" width="1" height="2" transform="translate(7.55 130.65) rotate(-71.87)"/><rect class="cls-6" x="101" y="61.61" width="1" height="2" transform="translate(10.42 139.59) rotate(-71.87)"/><rect class="cls-6" x="108.6" y="64.1" width="1" height="2" transform="translate(13.29 148.53) rotate(-71.87)"/><rect class="cls-6" x="116.2" y="66.59" width="1" height="2" transform="translate(16.16 157.47) rotate(-71.87)"/><rect class="cls-6" x="123.81" y="69.07" width="1" height="2" transform="translate(19.03 166.41) rotate(-71.87)"/><rect class="cls-6" x="131.41" y="71.56" width="1" height="2" transform="translate(21.9 175.35) rotate(-71.87)"/><rect class="cls-6" x="139.01" y="74.05" width="1" height="2" transform="translate(24.78 184.29) rotate(-71.87)"/><rect class="cls-6" x="146.62" y="76.54" width="1" height="2" transform="translate(27.65 193.23) rotate(-71.87)"/><rect class="cls-6" x="154.22" y="79.03" width="1" height="2" transform="translate(30.52 202.17) rotate(-71.87)"/><rect class="cls-6" x="161.82" y="81.52" width="1" height="2" transform="translate(33.39 211.11) rotate(-71.87)"/><rect class="cls-6" x="169.43" y="84.01" width="1" height="2" transform="translate(36.26 220.05) rotate(-71.87)"/><rect class="cls-6" x="184.63" y="88.99" width="1" height="2" transform="translate(42.01 237.93) rotate(-71.87)"/><rect class="cls-6" x="192.23" y="91.48" width="1" height="2" transform="translate(44.88 246.87) rotate(-71.87)"/><rect class="cls-6" x="199.84" y="93.97" width="1" height="2" transform="translate(47.75 255.81) rotate(-71.87)"/><rect class="cls-6" x="207.44" y="96.46" width="1" height="2" transform="translate(50.62 264.75) rotate(-71.87)"/><rect class="cls-6" x="215.04" y="98.95" width="1" height="2" transform="translate(53.49 273.69) rotate(-71.87)"/><rect class="cls-6" x="222.65" y="101.43" width="1" height="2" transform="translate(56.36 282.63) rotate(-71.87)"/><rect class="cls-6" x="230.25" y="103.92" width="1" height="2" transform="translate(59.24 291.57) rotate(-71.87)"/><rect class="cls-6" x="236.57" y="103.89" width="1" height="2" transform="translate(63.62 297.56) rotate(-71.87)"/><rect class="cls-6" x="242.9" y="103.86" width="1" height="2" transform="translate(68.01 303.55) rotate(-71.87)"/><rect class="cls-6" x="250.5" y="106.35" width="1" height="2" transform="translate(70.88 312.49) rotate(-71.87)"/><rect class="cls-6" x="258.1" y="108.83" width="1" height="2" transform="translate(73.76 321.43) rotate(-71.87)"/><rect class="cls-6" x="265.71" y="111.32" width="1" height="2" transform="translate(76.63 330.37) rotate(-71.87)"/><rect class="cls-6" x="273.31" y="113.81" width="1" height="2" transform="translate(79.5 339.31) rotate(-71.87)"/><rect class="cls-6" x="280.91" y="116.3" width="1" height="2" transform="translate(82.37 348.25) rotate(-71.87)"/><rect class="cls-6" x="288.51" y="118.79" width="1" height="2" transform="translate(85.24 357.19) rotate(-71.87)"/><rect class="cls-6" x="296.12" y="121.28" width="1" height="2" transform="translate(88.11 366.13) rotate(-71.87)"/><rect class="cls-6" x="303.72" y="123.77" width="1" height="2" transform="translate(90.99 375.07) rotate(-71.87)"/><rect class="cls-6" x="311.32" y="126.26" width="1" height="2" transform="translate(93.86 384.01) rotate(-71.87)"/><rect class="cls-6" x="318.93" y="128.75" width="1" height="2" transform="translate(96.73 392.95) rotate(-71.87)"/><rect class="cls-6" x="326.53" y="131.24" width="1" height="2" transform="translate(99.6 401.89) rotate(-71.87)"/><rect class="cls-6" x="334.13" y="133.73" width="1" height="2" transform="translate(102.47 410.83) rotate(-71.87)"/><rect class="cls-6" x="341.73" y="136.22" width="1" height="2" transform="translate(105.34 419.77) rotate(-71.87)"/><rect class="cls-6" x="349.34" y="138.7" width="1" height="2" transform="translate(108.22 428.71) rotate(-71.87)"/><rect class="cls-6" x="356.94" y="141.19" width="1" height="2" transform="translate(111.09 437.65) rotate(-71.87)"/><rect class="cls-6" x="364.54" y="143.68" width="1" height="2" transform="translate(113.96 446.59) rotate(-71.87)"/><rect class="cls-6" x="372.15" y="146.17" width="1" height="2" transform="translate(116.83 455.53) rotate(-71.87)"/><rect class="cls-6" x="379.75" y="148.66" width="1" height="2" transform="translate(119.7 464.47) rotate(-71.87)"/><rect class="cls-6" x="387.35" y="151.15" width="1" height="2" transform="translate(122.57 473.41) rotate(-71.87)"/><rect class="cls-6" x="394.95" y="153.64" width="1" height="2" transform="translate(125.45 482.35) rotate(-71.87)"/><rect class="cls-6" x="402.56" y="156.13" width="1" height="2" transform="translate(128.32 491.29) rotate(-71.87)"/><rect class="cls-6" x="410.16" y="158.62" width="1" height="2" transform="translate(131.19 500.23) rotate(-71.87)"/><rect class="cls-6" x="417.76" y="161.11" width="1" height="2" transform="translate(134.06 509.17) rotate(-71.87)"/><rect class="cls-6" x="425.37" y="163.6" width="1" height="2" transform="translate(136.93 518.11) rotate(-71.87)"/><rect class="cls-6" x="432.97" y="166.09" width="1" height="2" transform="translate(139.8 527.05) rotate(-71.87)"/><rect class="cls-4" x="336.05" y="36.51" width="1" height="204" transform="translate(100.2 415.26) rotate(-71.87)"/><rect class="cls-6" x="410.26" y="182.9" width="27" height="2" transform="translate(117.13 529.4) rotate(-71.87)"/><path class="cls-1" d="M361.9,118.93l-3.11,9.5-5.7-1.87,3.11-9.5,5.7,1.87m1.26-.64-7.6-2.49-3.73,11.4,7.6,2.49Z"/><rect class="cls-7" x="357.43" y="118.89" width="2" height="2" transform="translate(132.96 423.23) rotate(-71.87)"/><rect class="cls-3" x="357.61" y="118.76" width="1" height="1" transform="translate(133.34 422.49) rotate(-71.87)"/><rect class="cls-8" x="358.25" y="120.03" width="1" height="1" transform="translate(132.58 423.96) rotate(-71.87)"/><rect class="cls-1" x="355.18" y="106.77" width="2" height="130" transform="translate(82.11 456.82) rotate(-71.87)"/></g></g></g></g></svg>