<svg xmlns="http://www.w3.org/2000/svg" viewBox="0 0 432.05 56.02"><defs><style>.cls-1{fill:#5283e1;}.cls-2{fill:#534eaf;}.cls-3{fill:#4e8dea;}.cls-4{fill:#4e2689;}.cls-5{fill:#28285b;}.cls-6{fill:#393784;}.cls-7{fill:#45237a;}.cls-8{fill:#5997fc;}.cls-9{fill:#29174c;}</style></defs><g id="Layer_2" data-name="Layer 2"><g id="Layer_15" data-name="Layer 15"><polygon class="cls-1" points="364.51 4.01 3.97 4.2 3.97 46.24 364.51 46.47 364.51 4.01"/><polygon class="cls-1" points="341.58 4 341.58 46.48 427.99 46.71 427.99 3.81 341.58 4"/><rect class="cls-2" x="341.58" y="27.93" width="86.44" height="24.25"/><rect class="cls-2" x="4.04" y="27.93" width="365.88" height="24.25"/><rect class="cls-3" x="6.06" y="8" width="353.85" height="8.3"/><rect class="cls-3" x="341.58" y="8" width="84.47" height="8.3"/><rect class="cls-4" x="6.06" y="37.98" width="393.85" height="8.3"/><rect class="cls-4" x="341.58" y="37.98" width="84.47" height="8.3"/><path class="cls-5" d="M.07,42h2v2h2v2h2v2h2v2h2l0,6h-2V54h-2V52h-2V50h-2V48s-2,0-2,0"/><path class="cls-5" d="M432,42h-2v2h-2v2h-2v2h-2v2h-2l0,6h2V54h2V52h2V50h2V48s2,0,2,0"/><polygon class="cls-5" points="0.04 47.96 3.97 47.96 4.01 10.02 0 10.02 0.04 47.96"/><polygon class="cls-5" points="428.08 47.96 432.01 47.96 432.05 10.02 428.04 10.02 428.08 47.96"/><polygon class="cls-5" points="369.92 52.03 9.9 52.01 9.9 56.02 369.92 56 369.92 52.03"/><polygon class="cls-5" points="341.58 52.03 341.58 56 422.1 55.98 422.1 52.05 341.58 52.03"/><path class="cls-6" d="M432,14h-2V12h-2V10h-2V8h-2V6h-2l0-6h2V2h2V4h2V6h2V8s2,0,2,0"/><polygon class="cls-6" points="359.92 0.04 9.65 0.02 9.65 4.03 359.92 4.01 359.92 0.04"/><polygon class="cls-6" points="341.58 0.04 341.58 4.01 422.1 4 422.1 0.07 341.58 0.04"/><path class="cls-6" d="M.07,8s2,0,2,0V6h2V4h2V2h2V0h2l0,6h-2V8h-2v2h-2v2h-2v2h-2"/><polygon class="cls-7" points="379.92 52.03 379.92 46.02 12 46.02 12 43.99 10.02 43.99 10.02 42.01 8.04 41.98 8.04 32.05 4.03 32.05 4.01 45.98 6.03 45.98 6.03 48.04 8.05 48.04 8.05 50 10 50 10 52.03 379.92 52.03"/><polygon class="cls-7" points="424.03 31.99 424.03 42.04 422.01 42.04 422.01 44.04 420.04 44.04 420.04 46.02 341.58 46.02 341.58 52.03 422.01 52.03 422.01 50.03 424.03 50.03 424.03 48.03 425.98 48.03 425.98 46.04 428.02 46.04 428.09 31.99 424.03 31.99"/><polygon class="cls-8" points="359.92 4.08 10.1 4.08 10.1 6.07 8.07 6.07 8.07 8.07 6.12 8.07 6.12 10.07 4.08 10.07 4.01 24.12 8.07 24.12 8.07 14.06 10.1 14.06 10.1 12.06 12.07 12.06 12.07 10.09 359.92 10.09 359.92 4.08"/><polygon class="cls-8" points="426.07 10.12 426.07 8.06 424.06 8.06 424.06 6.11 422.1 6.11 422.1 4.08 341.58 4.08 341.58 10.09 420.1 10.09 420.1 12.12 422.08 12.12 422.08 14.1 424.07 14.12 424.07 24.06 428.08 24.06 428.09 10.12 426.07 10.12"/><rect class="cls-1" x="8.06" y="5.97" width="2.06" height="2.05"/><rect class="cls-1" x="6.07" y="7.99" width="2.06" height="2.05"/><rect class="cls-1" x="4.06" y="10.03" width="2.06" height="2.05"/><rect class="cls-1" x="10.07" y="3.96" width="339.85" height="2.05"/><rect class="cls-1" x="341.58" y="3.96" width="80.5" height="2.05"/><rect class="cls-1" x="424.06" y="8.01" width="2.06" height="2.05"/><rect class="cls-1" x="422.07" y="6" width="2.06" height="2.05"/><rect class="cls-1" x="420.06" y="3.96" width="2.06" height="2.05"/><rect class="cls-1" x="426.07" y="10.03" width="2.06" height="2.05"/><rect class="cls-9" x="8.06" y="48.01" width="2.06" height="2.05"/><rect class="cls-9" x="6.07" y="46" width="2.06" height="2.05"/><rect class="cls-9" x="4.06" y="43.96" width="2.06" height="2.05"/><rect class="cls-9" x="10.07" y="50.03" width="360.85" height="2.05"/><rect class="cls-9" x="341.58" y="50.03" width="80.46" height="2.05"/><rect class="cls-9" x="424.06" y="45.97" width="2.06" height="2.05"/><rect class="cls-9" x="422.07" y="47.99" width="2.06" height="2.05"/><rect class="cls-9" x="420.06" y="50.03" width="2.06" height="2.05"/><rect class="cls-9" x="426.07" y="43.96" width="2.06" height="2.05"/></g></g></svg>