<svg xmlns="http://www.w3.org/2000/svg" viewBox="0 0 438 34"><defs><style>.cls-1{fill:#ecebe9;}</style></defs><g id="Layer_2" data-name="Layer 2"><g id="Layer_23" data-name="Layer 23"><polygon class="cls-1" points="78 22 78 16 92 16 92 10 26 10 26 16 12 16 12 22 38 22 38 28 0 28 0 34 66 34 66 28 104 28 104 22 78 22"/><rect class="cls-1" x="376" width="40" height="6"/><polygon class="cls-1" points="306 12 306 16 278 16 278 22 316 22 316 28 302 28 302 34 342 34 342 28 390 28 390 22 400 22 400 16 438 16 438 12 306 12"/></g></g></svg>