<svg xmlns="http://www.w3.org/2000/svg" viewBox="0 0 236.26 170.71"><defs><style>.cls-1{fill:#343c6b;}.cls-2{fill:#010102;}.cls-3{fill:#232944;}.cls-4{fill:#7989bc;}.cls-5{fill:#0b0d16;}.cls-6{fill:#0f121e;}.cls-7{fill:#191d35;}.cls-8{fill:#262b51;}.cls-9{fill:#45528c;}.cls-10{fill:#353b63;}.cls-11{fill:#1b1f38;}.cls-12{fill:#424b70;}.cls-13{fill:#61b6bf;}.cls-14{fill:#c59986;}.cls-15{fill:#d2cc45;}.cls-16{fill:#d8ebcc;}.cls-17{fill:#738390;}.cls-18{fill:#625e4e;}.cls-19{fill:#364068;opacity:0.3;}</style></defs><g id="Layer_2" data-name="Layer 2"><g id="Layer_15" data-name="Layer 15"><rect class="cls-1" x="7.11" y="1.64" width="1.96" height="1.96"/><polygon class="cls-2" points="9.95 164.01 9.95 97.39 4.01 97.39 4.01 162.03 6 162.05 6.04 164.01 9.95 164.01"/><rect class="cls-3" x="-28.31" y="127.69" width="62.63" height="2.03" transform="translate(131.71 125.7) rotate(90)"/><rect class="cls-3" x="-24.77" y="129.29" width="63.65" height="1.97" transform="translate(137.34 123.22) rotate(90)"/><rect class="cls-4" x="1.99" y="117.96" width="2.02" height="1.96" transform="translate(6 237.88) rotate(-180)"/><rect class="cls-5" x="1.99" y="115.98" width="2.02" height="1.96" transform="translate(6 233.92) rotate(-180)"/><rect class="cls-4" x="1.99" y="125.94" width="2.02" height="1.96" transform="translate(6 253.85) rotate(-180)"/><rect class="cls-5" x="1.99" y="123.96" width="2.02" height="1.96" transform="translate(6 249.89) rotate(-180)"/><rect class="cls-4" x="1.99" y="134.01" width="2.02" height="1.96" transform="translate(6 269.98) rotate(-180)"/><rect class="cls-5" x="1.99" y="132.03" width="2.02" height="1.96" transform="translate(6 266.03) rotate(-180)"/><polygon points="230.05 12.03 101.39 12.03 101.39 4.09 228.05 4.09 228.03 6.02 230.05 6.02 230.05 12.03"/><rect class="cls-3" x="101.39" y="2.07" width="124.61" height="2.03"/><rect class="cls-3" x="101.39" y="6.09" width="126.65" height="2.03"/><rect class="cls-6" x="8.02" y="9.87" width="228.22" height="160.84"/><rect class="cls-7" x="22.02" y="22" width="213.88" height="146.97"/><rect class="cls-8" x="8.03" y="0.05" width="94.01" height="13.93"/><rect class="cls-8" x="102.04" y="2.08" width="2" height="7.95"/><rect class="cls-8" x="104.04" y="4.09" width="2" height="7.95"/><rect class="cls-8" x="106.02" y="6.08" width="2" height="7.95"/><rect class="cls-8" x="108.04" y="8.05" width="2" height="6.05"/><rect class="cls-8" x="3.08" y="2.93" width="2" height="8.11" transform="translate(-2.91 11.06) rotate(-90)"/><rect class="cls-8" x="5.01" y="1.04" width="2" height="7.95" transform="translate(0.99 11.02) rotate(-90)"/><rect class="cls-8" x="7.01" y="-0.87" width="2" height="7.95" transform="translate(4.91 11.11) rotate(-90)"/><rect class="cls-8" x="8.96" y="-2.89" width="2" height="7.95" transform="translate(8.88 11.04) rotate(-90)"/><rect class="cls-8" x="101.39" y="9.96" width="134.67" height="4.08"/><rect class="cls-8" x="-40.15" y="47.94" width="94.26" height="13.91" transform="translate(61.88 47.91) rotate(90)"/><rect class="cls-8" x="5.02" y="99.04" width="2" height="7.95" transform="translate(109.04 96.99) rotate(90)"/><rect class="cls-8" x="7.02" y="101.02" width="2" height="7.95" transform="translate(113.02 96.97) rotate(90)"/><rect class="cls-8" x="9.04" y="103.05" width="2" height="7.95" transform="translate(117.07 96.99) rotate(90)"/><rect class="cls-8" x="10.09" y="105.97" width="2" height="6.07" transform="translate(120.09 97.91) rotate(90)"/><rect class="cls-8" x="9.94" y="101.95" width="4.13" height="68.77"/><rect class="cls-1" x="0.07" y="6.02" width="1.96" height="1.96"/><rect class="cls-9" x="2.02" y="4.07" width="1.96" height="1.96"/><rect class="cls-9" x="4.09" y="2.07" width="1.96" height="1.96"/><rect class="cls-9" x="106.05" y="6.09" width="1.96" height="1.96" transform="translate(99.96 114.1) rotate(-90)"/><rect class="cls-9" x="171.13" y="-55" width="1.96" height="128.1" transform="translate(163.06 181.16) rotate(-90)"/><rect class="cls-9" x="104.07" y="4.09" width="1.96" height="1.96" transform="translate(99.98 110.12) rotate(-90)"/><rect class="cls-9" x="100.52" y="0.5" width="1.96" height="5.08" transform="translate(98.46 104.54) rotate(-90)"/><rect class="cls-1" x="2.05" y="6.02" width="1.96" height="1.96"/><rect class="cls-9" x="4.01" y="4.07" width="1.96" height="1.96"/><rect class="cls-9" x="6.08" y="0.1" width="95.98" height="3.94"/><polyline class="cls-1" points="16.04 16.02 13.96 16.03 13.96 170.07 16.03 170.07 16.03 16.02 236.25 16.02 236.25 14.01 16.05 14.01"/><polygon class="cls-1" points="16.02 16 18.02 16.01 18.02 18.01 16.04 18.01 16.02 16"/><rect class="cls-9" x="8.05" y="108.06" width="1.96" height="62"/><polygon class="cls-8" points="12.04 12.03 16.05 12.05 16.05 16.02 12.06 16.02 12.04 12.03"/><rect class="cls-10" x="28.02" width="1.99" height="16.05" transform="translate(58.04 16.05) rotate(-180)"/><rect class="cls-9" x="-45.94" y="52.03" width="95.98" height="3.94" transform="translate(56.05 51.94) rotate(90)"/><rect class="cls-11" x="26.03" width="1.99" height="16.05"/><rect class="cls-11" x="7.06" y="17.07" width="1.99" height="15.92" transform="translate(-16.97 33.08) rotate(-90)"/><rect class="cls-12" x="28.02" width="1.99" height="4.11"/><rect class="cls-12" x="28.02" y="14.09" width="1.99" height="1.95"/><rect class="cls-11" x="72.09" width="1.99" height="16.05" transform="translate(146.17 16.05) rotate(-180)"/><rect class="cls-10" x="70.15" width="1.99" height="16.05" transform="translate(142.29 16.05) rotate(-180)"/><rect class="cls-12" x="70.1" width="1.99" height="4.11" transform="translate(142.2 4.11) rotate(-180)"/><rect class="cls-12" x="70.1" y="14.09" width="1.99" height="1.95" transform="translate(142.2 30.14) rotate(-180)"/><rect class="cls-9" x="6.06" y="106.01" width="1.96" height="1.96" transform="translate(14.09 213.98) rotate(-180)"/><rect class="cls-9" x="4.06" y="104.02" width="1.96" height="1.96" transform="translate(10.09 210.01) rotate(-180)"/><rect class="cls-9" x="2.03" y="98.92" width="1.96" height="5.08" transform="translate(6.03 202.92) rotate(-180)"/><rect class="cls-10" x="7.03" y="61.14" width="1.99" height="16.05" transform="translate(77.18 61.14) rotate(90)"/><rect class="cls-10" x="7.03" y="19.01" width="1.99" height="16.05" transform="translate(35.06 19.01) rotate(90)"/><rect class="cls-12" x="1.01" y="25.03" width="1.99" height="3.94" transform="translate(-25 29) rotate(-90)"/><rect class="cls-12" x="13.99" y="26.03" width="1.99" height="2.05" transform="translate(-12.07 42.05) rotate(-90)"/><rect class="cls-11" x="7.03" y="63.08" width="1.99" height="16.05" transform="translate(-63.08 79.13) rotate(-90)"/><rect class="cls-12" x="1.06" y="67.07" width="1.99" height="4.11" transform="translate(-67.07 71.17) rotate(-90)"/><rect class="cls-12" x="13.98" y="68.06" width="1.99" height="2.03" transform="translate(-54.1 84.05) rotate(-90)"/><rect class="cls-12" x="224.01" y="2.1" width="2.02" height="1.96" transform="translate(221.93 228.1) rotate(-90)"/><rect class="cls-12" x="226.03" y="4.14" width="2.02" height="1.96" transform="translate(221.91 232.16) rotate(-90)"/><rect class="cls-12" x="228.01" y="6.13" width="2.02" height="1.96" transform="translate(221.91 236.13) rotate(-90)"/><rect class="cls-4" x="152.03" y="2.1" width="2.02" height="1.96" transform="translate(149.96 156.13) rotate(-90)"/><rect class="cls-5" x="150.05" y="2.1" width="2.02" height="1.96" transform="translate(147.98 154.15) rotate(-90)"/><rect class="cls-4" x="160.02" y="2.1" width="2.02" height="1.96" transform="translate(157.95 164.11) rotate(-90)"/><rect class="cls-5" x="158.04" y="2.1" width="2.02" height="1.96" transform="translate(155.97 162.13) rotate(-90)"/><rect class="cls-4" x="168.09" y="2.1" width="2.02" height="1.96" transform="translate(166.01 172.18) rotate(-90)"/><rect class="cls-5" x="166.11" y="2.1" width="2.02" height="1.96" transform="translate(164.04 170.2) rotate(-90)"/><rect class="cls-12" x="1.99" y="158.06" width="2.02" height="1.96" transform="translate(6 318.09) rotate(-180)"/><rect class="cls-12" x="4.03" y="160.08" width="2.02" height="1.96" transform="translate(10.09 322.13) rotate(-180)"/><rect class="cls-12" x="6" y="162.05" width="2.02" height="1.96" transform="translate(14.02 326.06) rotate(-180)"/><rect class="cls-9" x="16.26" y="32.03" width="2" height="138.05"/><rect class="cls-13" x="16.26" y="28.03" width="2" height="2"/><rect class="cls-14" x="16.26" y="26.06" width="2" height="2"/><rect class="cls-15" x="16.26" y="24.08" width="2" height="2"/><rect class="cls-16" x="16.26" y="22.11" width="2" height="2"/><rect class="cls-15" x="16.26" y="20.11" width="2" height="2"/><rect class="cls-15" x="20.28" y="16.08" width="2" height="2"/><rect class="cls-17" x="18.27" y="20.11" width="2" height="2"/><rect class="cls-17" x="20.28" y="18.12" width="2" height="2"/><rect class="cls-16" x="18.27" y="18.12" width="2" height="2"/><rect class="cls-16" x="22.29" y="16.07" width="2" height="2"/><rect class="cls-18" x="16.26" y="18.11" width="2" height="2"/><rect class="cls-18" x="18.25" y="16.08" width="2" height="2"/><rect class="cls-9" x="133.2" y="-84.91" width="2" height="203.95" transform="translate(117.14 151.27) rotate(-90)"/><rect class="cls-13" x="28.23" y="16.06" width="2" height="2" transform="translate(12.16 46.29) rotate(-90)"/><rect class="cls-14" x="26.25" y="16.06" width="2" height="2" transform="translate(10.19 44.32) rotate(-90)"/><rect class="cls-15" x="24.28" y="16.06" width="2" height="2" transform="translate(8.22 42.34) rotate(-90)"/><rect class="cls-19" x="22.02" y="102.07" width="213.88" height="66.9"/></g></g></svg>