<?xml version="1.0" encoding="utf-8"?>
<!-- Generator: Adobe Illustrator 24.1.3, SVG Export Plug-In . SVG Version: 6.00 Build 0)  -->
<svg version="1.1" id="Layer_1" xmlns="http://www.w3.org/2000/svg" xmlns:xlink="http://www.w3.org/1999/xlink" x="0px" y="0px"
	 viewBox="0 0 458.2 762" style="enable-background:new 0 0 458.2 762;" xml:space="preserve">
<style type="text/css">
	.st0{fill:#2795F5;}
	.st1{fill:#191D35;}
	.st2{fill:#262B51;}
	.st3{fill:#151828;}
	.st4{fill:#45528C;}
	.st5{fill:#7989BC;}
	.st6{fill:#121423;}
	.st7{fill:#424B70;}
	.st8{fill:#232944;}
	.st9{fill:#0B0D16;}
	.st10{fill:#10131E;}
	.st11{opacity:0.8;fill:#0D1019;enable-background:new    ;}
	.st12{fill:#0D1019;}
	.st13{fill:#4F3C25;}
	.st14{fill:#7C7C7C;}
	.st15{fill:#C6C6C6;}
	.st16{fill:#110D09;}
	.st17{fill:#595958;}
	.st18{fill:#354066;}
	.st19{fill:#131623;}
	.st20{opacity:0.6;fill:#141923;enable-background:new    ;}
	.st21{fill:#6172AF;}
	.st22{fill:#61B6BF;}
	.st23{fill:#C59986;}
	.st24{fill:#D2CC45;}
	.st25{fill:#D8EBCC;}
	.st26{fill:#738390;}
	.st27{fill:#625E4E;}
	.st28{fill:#0F1E16;}
</style>
<polygon class="st0" points="0,0 458.3,0 458.2,34.3 44.4,35.6 41.8,738.7 458.2,742.2 458.2,762 0,762 "/>
<g id="Layer_17">
	<polygon class="st1" points="53.3,41.1 458.1,36.1 458.1,14.4 32.1,14.3 32.1,382 57.6,382 	"/>
	<polygon class="st2" points="457.9,8 457.9,14 25.9,14 26,8 	"/>
	<polygon class="st3" points="457.9,8 457.9,14 25.9,14 26,8 	"/>
	<polygon class="st2" points="14,73.6 14,382 32.9,382 32.9,24.5 37.6,23.8 38.7,18 458.1,18 458.1,8 97.9,8 98,2 16,2 16,4 14,4 
		14,6 12,6 12,14 10,14 10,20 10,20 	"/>
	<rect x="20" y="2" class="st4" width="4" height="2"/>
	<polygon class="st4" points="13.9,74.1 14,8 16,8 16,6 17.9,6 18,4 97.9,4 98,0 17.9,0 17.9,2 15.9,2 15.9,4 13.9,4 14,6 11.9,6 
		11.9,8 10,8 10,74.1 	"/>
	<rect x="9.9" y="68.7" class="st4" width="4" height="3.6"/>
	<rect x="13.9" y="94.3" class="st5" width="2" height="2"/>
	<rect x="13.9" y="92.3" width="2" height="2"/>
	<rect x="14" y="86" class="st5" width="2" height="2"/>
	<rect x="14" y="84" width="2" height="2"/>
	<polygon class="st4" points="34,81.3 34,26 36,26 36,24 38,24 38,22 40,22 40,20 42,20 42,18 458.1,18 458.1,16 40,16 40,18 38,18 
		38,20 36,20 36,22 34,22 34,24 32,24 32,81.3 	"/>
	<rect x="32" y="64.7" class="st4" width="2" height="317.3"/>
	<rect x="10" y="58" class="st6" width="23.9" height="2"/>
	<rect x="10" y="56" class="st7" width="23.9" height="2"/>
	<rect x="20" y="82" class="st8" width="2" height="166"/>
	<polyline class="st4" points="24,246 24,94.1 22,94.1 22,246 	"/>
	<polygon points="444,10 100,10 100,2 442,2 442,3.9 444,3.9 	"/>
	<rect x="99.9" y="4" class="st8" width="342" height="2"/>
	<rect x="104" y="8" class="st4" width="354.1" height="2"/>
	<rect x="94.9" y="1.9" class="st4" width="5.1" height="2"/>
	<rect x="94.9" y="4" class="st2" width="9.1" height="6"/>
	<rect x="439.9" y="2" class="st7" width="2" height="2"/>
	<rect x="442" y="4.1" class="st7" width="2" height="2"/>
	<rect x="443.9" y="6" class="st7" width="2" height="2"/>
	<rect x="148" y="2" class="st5" width="2" height="2"/>
	<rect x="146" y="2" class="st9" width="2" height="2"/>
	<rect x="155.9" y="2" class="st5" width="2" height="2"/>
	<rect x="154" y="2" class="st9" width="2" height="2"/>
	<rect x="164" y="2" class="st5" width="2" height="2"/>
	<rect x="162" y="2" class="st9" width="2" height="2"/>
	<rect x="100" y="4" class="st4" width="2" height="2"/>
	<rect x="102" y="6" class="st4" width="2" height="2"/>
	<polygon class="st1" points="55.3,723.3 458.1,724.4 458.1,746.6 32.1,746.6 32.1,380 51.4,380 	"/>
	<polygon class="st2" points="447.9,754 447.9,748 25.9,748 26,754 	"/>
	<polygon class="st3" points="447.9,754 447.9,748 25.9,748 26,754 	"/>
	<path class="st2" d="M3.6,481.9L3.9,526h6v3.9l4,2.2v156.3l-4,53.6l0,0v6h2v8h2v2h2v2h82l-0.1-6h360.3v-10H33l-1-486.4l-18.5-3.8
		l-7.3,6.5L2.1,264l0.3,40H14v178L3.6,481.9z"/>
	<rect x="20" y="758" class="st4" width="4" height="2"/>
	<polygon class="st4" points="13.9,687.9 14,754 16,754 16,756 17.9,756 18,758 97.9,758 98,762 17.9,762 17.9,760 15.9,760 
		15.9,758 13.9,758 14,756 11.9,756 11.9,754 10,754 10,687.9 	"/>
	<polygon class="st2" points="14,537.9 14,684 21.9,684 21.9,537.9 	"/>
	<polygon class="st10" points="14,537.9 14,684 21.9,684 21.9,537.9 	"/>
	<polyline class="st4" points="24,540 24,682 22,682 22,684 20,684 20,686 18,686 18,688 16,688 16,690 14,690 14,692 12,692 
		12,690 12,688 14,688 14,686 16,686 16,684 18,684 18,682 20,682 20,680 22,680 22,539.9 	"/>
	<rect x="9.9" y="689.7" class="st4" width="4" height="3.6"/>
	<rect x="14" y="532" class="st8" width="2" height="154"/>
	<rect x="13.9" y="665.7" class="st5" width="2" height="2"/>
	<rect x="13.9" y="667.7" width="2" height="2"/>
	<rect x="14" y="676" class="st5" width="2" height="2"/>
	<rect x="14" y="674" width="2" height="2"/>
	<rect x="13.9" y="544.6" class="st5" width="2" height="2"/>
	<rect x="13.9" y="546.6" width="2" height="2"/>
	<rect x="14" y="555" class="st5" width="2" height="2"/>
	<rect x="14" y="553" width="2" height="2"/>
	<polygon class="st4" points="34,680.7 34,736 36,736 36,738 38,738 38,740 40,740 40,742 42,742 42,744 458.1,744 458.1,746 
		40,746 40,744 38,744 38,742 36,742 36,740 34,740 34,738 32,738 32,680.7 	"/>
	<rect x="32" y="380" class="st4" width="2" height="317.3"/>
	<rect x="10" y="702" class="st6" width="23.9" height="2"/>
	<rect x="10" y="704" class="st7" width="23.9" height="2"/>
	<rect x="20" y="537.9" class="st8" width="2" height="142.1"/>
	<polyline class="st4" points="24,539.9 24,667.9 22,667.9 22,540 	"/>
	<polygon points="444,752.1 100,752.1 100,760 442,760 442,758.1 444,758.1 	"/>
	<rect x="99.9" y="756" class="st8" width="342" height="2"/>
	<rect x="104" y="752" class="st4" width="354.1" height="2"/>
	<rect x="94.9" y="758" class="st4" width="5.1" height="2"/>
	<rect x="94.9" y="752" class="st2" width="9.1" height="6"/>
	<rect x="439.9" y="758" class="st7" width="2" height="2"/>
	<rect x="442" y="756" class="st7" width="2" height="2"/>
	<rect x="443.9" y="754" class="st7" width="2" height="2"/>
	<rect x="148" y="758" class="st5" width="2" height="2"/>
	<rect x="146" y="758" class="st9" width="2" height="2"/>
	<rect x="156" y="758" class="st5" width="2" height="2"/>
	<rect x="154" y="758" class="st9" width="2" height="2"/>
	<rect x="164" y="758" class="st5" width="2" height="2"/>
	<rect x="162" y="758" class="st9" width="2" height="2"/>
	<rect x="100" y="756" class="st4" width="2" height="2"/>
	<rect x="102" y="754" class="st4" width="2" height="2"/>
	<polygon class="st2" points="20,248 22,248 21.9,78 14,78 14,250 20,250 	"/>
	<polygon class="st10" points="20,248 22,248 21.9,78 14,78 14,250 20,250 	"/>
	<rect x="14" y="76" class="st8" width="2" height="178"/>
	<path class="st4" d="M4,304v-40h2v-2h2v-2h2v-2h2v-2H8v2H6v2H4v2H2v2H0v42h14v-2H4z"/>
	<polygon class="st4" points="14,304 14,456.9 14,482 18,482 17.9,456.9 18,304 	"/>
	<polygon class="st4" points="14,482 14,480 0,480 0,481.8 0,522 1.9,522 1.9,524 4,524 3.9,526 5.9,526 5.9,528 7.9,528 7.9,530 
		14,530 12,530 12,528 10,528 10,526 8,526 7.9,524 6,524 6,522 4,522 4,482 	"/>
	<polyline class="st4" points="22,246 22,82 20,82 20,80 18,80 18,78 16,78 16,76 14,76 14,74 12,74 12,72 12,70 14,70 14,72 16,72 
		16,74 18,74 18,76 20,76 20,78 22,78 22,80 24,80 24,246 	"/>
	<polygon class="st4" points="18,540 18,537.9 16,538 16,536 14,536 14,534 12,534 12,532 10,531.9 10,529.9 8,530 8,528 8,526 
		10,526 10,528 12,528 12,530 14,530 14,532 16,532 16,534 18,534 18,536 20,536 20,538 22,538 22,542 20,542 20,540 	"/>
	<polygon class="st4" points="18,246 18,248 16,248 16,250 14,250 14,252 12,252 12,254 10,254 10,256 8,256 8,258 8,260 10,260 
		10,258 12,258 12,256 14,256 14,254 16,254 16,252 18,252 18,250 20,250 20,248 22,248 22,244 20,244 20,246 	"/>
	<rect x="13.9" y="224.7" class="st5" width="2" height="2"/>
	<rect x="13.9" y="226.7" width="2" height="2"/>
	<rect x="14" y="235" class="st5" width="2" height="2"/>
	<rect x="14" y="233" width="2" height="2"/>
	<rect x="13.9" y="92.6" class="st5" width="2" height="2"/>
	<rect x="13.9" y="94.6" width="2" height="2"/>
	<rect x="14" y="103" class="st5" width="2" height="2"/>
	<rect x="14" y="101" width="2" height="2"/>
	<polygon class="st11" points="36.1,99.9 36.1,28 38,28 38,26 40,26 40,24 42,24 42,22 44,22 44.1,20 458,20 458,21.9 46,22 46,24 
		44,24 44.1,26 42,26 42,28 40,28 40,30 38,30 38.1,99.9 	"/>
	<polygon class="st11" points="34.1,64 34.1,736 36,735.9 36,737.9 38,737.9 38,740 40,740 40,741.9 42,741.9 42.1,744 458,744 
		458,742 44,742 44,740 42,739.9 42.1,738 40,737.9 40,735.9 38,736 38,733.9 36,734 36.1,64.1 	"/>
	<rect x="347.1" y="40" class="st12" width="110.9" height="1.9"/>
	<rect x="345.1" y="42" class="st12" width="2" height="2"/>
	<rect x="34.2" y="40" class="st12" width="111.9" height="1.9"/>
	<rect x="146.1" y="42" class="st12" width="2" height="2"/>
	<rect x="0" y="272" class="st6" width="33.9" height="2"/>
	<rect x="0" y="270" class="st7" width="33.9" height="2"/>
	<rect x="13.9" y="360" class="st6" width="20" height="2"/>
	<rect x="13.9" y="362" class="st7" width="20" height="2"/>
	<rect x="13.8" y="422" class="st6" width="20.1" height="2"/>
	<rect x="13.8" y="420" class="st7" width="20.1" height="2"/>
	<rect x="0" y="509.5" class="st6" width="33.9" height="2"/>
	<rect x="0" y="511.5" class="st7" width="33.9" height="2"/>
	<rect x="2" y="471.9" class="st8" width="12.1" height="8.1"/>
	<rect x="4" y="314" class="st13" width="10.1" height="157.9"/>
	<rect x="4" y="314" class="st14" width="10.1" height="157.9"/>
	<rect x="2" y="305.9" class="st6" width="12.1" height="8.1"/>
	<rect x="6.1" y="314" class="st13" width="2" height="157.9"/>
	<rect x="6.1" y="314" class="st15" width="2" height="157.9"/>
	<rect x="12" y="314" class="st13" width="2" height="157.9"/>
	<rect x="12" y="314" class="st16" width="2" height="157.9"/>
	<rect x="10" y="314" class="st13" width="2" height="157.9"/>
	<rect x="10" y="314" class="st17" width="2" height="157.9"/>
	<rect x="6.1" y="471.9" class="st18" width="2" height="8.1"/>
	<rect x="10.1" y="471.9" class="st19" width="2" height="8.1"/>
	<rect x="12.1" y="471.9" width="2" height="8.1"/>
	<rect x="2" y="478" class="st20" width="12.1" height="2"/>
	<rect x="2" y="305.9" class="st8" width="12.1" height="8.1"/>
	<rect x="6.1" y="305.9" class="st18" width="2" height="8.1"/>
	<rect x="10.1" y="305.9" class="st19" width="2" height="8.1"/>
	<rect x="12.1" y="305.9" width="2" height="8.1"/>
	<rect x="2" y="305.9" class="st20" width="12.1" height="2"/>
	<rect x="4.1" y="469.9" class="st20" width="10" height="2"/>
	<rect x="4.1" y="313.9" class="st20" width="10" height="2"/>
	<rect x="50" y="17.9" class="st21" width="408.1" height="2"/>
	<rect x="46" y="17.9" class="st22" width="2" height="2"/>
	<rect x="44" y="17.9" class="st23" width="2" height="2"/>
	<rect x="42" y="17.8" class="st24" width="2" height="2"/>
	<rect x="40.1" y="17.9" class="st25" width="2" height="2"/>
	<rect x="38.1" y="17.9" class="st24" width="2" height="2"/>
	<rect x="34" y="21.9" class="st24" width="2" height="2"/>
	<rect x="38.1" y="19.9" class="st26" width="2" height="2"/>
	<rect x="36.1" y="21.9" class="st26" width="2" height="2"/>
	<rect x="36.1" y="19.9" class="st25" width="2" height="2"/>
	<rect x="34" y="23.9" class="st25" width="2" height="2"/>
	<rect x="36.1" y="17.9" class="st27" width="2" height="2"/>
	<rect x="34" y="19.8" class="st27" width="2" height="2"/>
	<rect x="34" y="33.8" class="st21" width="2" height="700"/>
	<rect x="34" y="29.8" class="st22" width="2" height="2"/>
	<rect x="34" y="27.8" class="st23" width="2" height="2"/>
	<rect x="34" y="25.9" class="st24" width="2" height="2"/>
	<polygon class="st28" points="57.4,609.1 57.4,49.1 57.4,47.1 59.4,47.1 59.4,45.1 61.4,45.1 61.4,43.1 63.4,43.1 458.1,43.1 
		458.1,45.1 63.4,45.1 63.4,47.1 61.4,47.1 61.4,49.1 59.4,49.1 59.4,51.1 59.4,609.1 	"/>
	<polygon class="st28" points="425.7,43.1 53.4,43.1 53.4,45.1 425.7,45.1 	"/>
	<polygon class="st14" points="49.4,609.1 49.4,45.1 51.4,45.1 51.4,43.1 53.4,43.1 53.4,41.1 55.4,41.1 55.4,39.1 57.3,39.1 
		57.3,37.1 57.3,37.1 458.1,37.1 458.1,43.1 59.4,43.1 59.4,45.1 57.4,45.1 57.4,47.1 55.4,47.1 55.3,609.1 	"/>
	<polygon class="st14" points="425.5,37.1 58.3,37.1 58.3,43.1 425.5,43.1 	"/>
	<polygon class="st15" points="425.8,35.1 57.3,35.1 57.3,37.1 425.8,37.1 	"/>
	<polygon class="st16" points="414.8,41.1 61.3,41.1 61.3,43.1 414.8,43.1 	"/>
	<polygon class="st16" points="55.4,610.1 55.4,47.1 57.4,47.1 57.4,45.1 59.4,45.1 59.4,43.1 61.4,43.1 61.4,41.1 63.4,41.1 
		458.1,41.1 458.1,43.1 63.4,43.1 63.4,45.1 61.4,45.1 61.4,47.1 59.4,47.1 59.4,49.1 57.4,49.1 57.4,610.1 	"/>
	<polygon class="st28" points="425.6,721.4 425.6,719.4 61.3,719.4 61.3,721.4 	"/>
	<polygon class="st28" points="57.3,607.3 57.3,715.4 57.3,717.4 59.3,717.4 59.3,719.4 61.3,719.4 61.3,721.3 63.3,721.3 
		458.1,721.3 458.1,719.4 63.3,719.3 63.3,717.4 61.3,717.3 61.3,715.3 59.3,715.4 59.3,713.3 59.3,607.3 	"/>
	<polygon class="st14" points="428.8,727.3 428.8,721.3 57.3,721.3 57.3,727.3 	"/>
	<polygon class="st14" points="49.4,609.1 49.4,719.3 51.4,719.3 51.4,721.3 53.4,721.3 53.4,723.3 55.3,723.3 55.3,725.3 
		57.4,725.4 57.4,727.3 57.4,727.3 458.1,727.3 458.1,721.3 59.4,721.3 59.4,719.3 57.4,719.3 57.4,717.3 55.4,717.3 55.4,609.1 	
		"/>
	<polygon class="st15" points="49.3,621.4 49.3,723.3 51.3,723.3 51.3,725.3 53.3,725.3 53.3,727.3 55.3,727.3 55.3,729.3 
		57.3,729.3 458.1,729.3 458.1,727.3 57.3,727.3 57.4,725.4 55.3,725.3 55.3,723.3 53.3,723.3 53.4,721.3 51.4,721.3 51.3,611.4 
		49.3,611.4 	"/>
	<polygon class="st16" points="55.3,609.4 55.3,717.3 57.3,717.3 57.3,719.3 59.4,719.3 59.3,721.3 61.3,721.3 61.3,723.3 
		63.3,723.3 458.1,723.3 458.1,721.3 63.4,721.3 63.4,719.4 61.4,719.3 61.3,717.3 59.4,717.3 59.4,715.3 57.4,715.3 57.3,609.4 	
		"/>
	<polygon class="st15" points="432.3,729.3 432.3,727.3 57.3,727.3 57.3,729.3 	"/>
	<polygon class="st16" points="425.6,723.3 425.6,721.3 61.3,721.3 61.3,723.3 	"/>
	<polygon class="st15" points="49.3,611.4 49.3,41.1 51.3,41.1 51.3,39.1 53.3,39.1 53.3,37.1 55.3,37.1 55.3,35.1 57.3,35.1 
		458.1,35.1 458.1,37.1 57.3,37.1 57.4,39.1 55.3,39.1 55.3,41.1 53.3,41.1 53.3,43.1 51.4,43.1 51.3,611.4 	"/>
</g>
</svg>
