<svg id="Layer_1" data-name="Layer 1" xmlns="http://www.w3.org/2000/svg" width="21.06" height="129.93" viewBox="0 0 21.06 129.93"><defs><style>.cls-1{fill:#ff4d4e;}.cls-2{fill:#fec438;}.cls-3{fill:#fff;}</style></defs><g id="Frame_1" data-name="Frame 1"><rect class="cls-1" x="6.58" y="30.28" width="7.9" height="1.32"/><rect class="cls-1" x="3.95" y="28.96" width="11.85" height="1.32"/><rect class="cls-1" x="2.63" y="17.11" width="15.8" height="11.85"/><rect class="cls-1" y="18.43" width="3.95" height="6.58"/><rect class="cls-1" x="17.11" y="21.06" width="3.95" height="3.95"/><rect class="cls-1" x="19.75" y="18.43" width="1.32" height="1.32"/><rect class="cls-1" x="2.63" y="11.85" width="1.32" height="7.9"/><rect class="cls-1" x="6.58" y="14.48" width="11.85" height="3.95"/><rect class="cls-1" x="6.58" y="13.16" width="10.53" height="7.9"/><rect class="cls-1" x="14.48" y="10.53" width="1.32" height="9.21"/><rect class="cls-1" x="7.9" y="6.58" width="2.63" height="7.9"/><rect class="cls-1" x="10.53" y="9.21" width="2.63" height="5.27"/><rect class="cls-1" x="14.48" y="6.58" width="1.32" height="1.32"/><rect class="cls-1" x="15.8" y="30.28" width="1.32" height="1.32"/><rect class="cls-1" x="10.53" y="2.63" width="1.32" height="1.32"/><rect class="cls-1" x="11.85" width="1.32" height="1.32"/><rect class="cls-2" x="6.58" y="25.01" width="3.95" height="2.63"/><rect class="cls-2" x="13.16" y="25.01" width="1.32" height="1.32"/><rect class="cls-2" x="3.95" y="21.06" width="10.53" height="3.95"/><rect class="cls-2" x="6.58" y="17.11" width="3.95" height="5.27"/><rect class="cls-2" x="10.53" y="18.43" width="6.58" height="2.63"/><rect class="cls-2" x="14.48" y="14.48" width="2.63" height="5.27"/><rect class="cls-3" x="6.58" y="21.06" width="1.32" height="3.95"/><rect class="cls-3" x="7.9" y="21.06" width="5.27" height="1.32"/><rect class="cls-3" x="13.16" y="22.38" width="1.32" height="2.63"/><rect class="cls-3" x="10.53" y="18.43" width="1.32" height="1.32"/></g><g id="Frame_2" data-name="Frame 2"><rect class="cls-1" x="7.9" y="63.05" width="5.27" height="1.32"/><rect class="cls-1" x="6.58" y="61.73" width="10.53" height="1.32"/><rect class="cls-1" x="2.63" y="49.89" width="15.8" height="11.85"/><rect class="cls-1" y="51.2" width="3.95" height="6.58"/><rect class="cls-1" x="17.11" y="51.2" width="3.95" height="6.58"/><rect class="cls-1" x="2.63" y="43.3" width="1.32" height="9.21"/><rect class="cls-1" x="6.58" y="47.25" width="11.85" height="3.95"/><rect class="cls-1" x="6.58" y="45.94" width="10.53" height="7.9"/><rect class="cls-1" x="14.48" y="43.3" width="1.32" height="9.21"/><rect class="cls-1" x="7.9" y="39.36" width="5.27" height="7.9"/><rect class="cls-1" x="2.63" y="38.04" width="1.32" height="1.32"/><rect class="cls-1" x="14.48" y="38.04" width="1.32" height="1.32"/><rect class="cls-1" x="10.53" y="34.09" width="1.32" height="1.32"/><rect class="cls-1" x="11.85" y="32.77" width="1.32" height="1.32"/><rect class="cls-2" x="5.27" y="53.84" width="1.32" height="3.95"/><rect class="cls-2" x="6.58" y="51.2" width="7.9" height="6.58"/><rect class="cls-2" x="14.48" y="57.78" width="2.63" height="2.63"/><rect class="cls-2" x="14.48" y="48.57" width="2.63" height="2.63"/><rect class="cls-2" x="10.53" y="49.89" width="1.32" height="2.63"/><rect class="cls-2" x="6.58" y="49.89" width="1.32" height="1.32"/><rect class="cls-2" x="10.53" y="47.25" width="1.32" height="1.32"/><rect class="cls-2" x="15.8" y="52.52" width="1.32" height="1.32"/><rect class="cls-2" x="6.58" y="57.78" width="6.58" height="2.63"/><rect class="cls-3" x="10.53" y="53.84" width="1.32" height="1.32"/><rect class="cls-3" x="7.9" y="57.78" width="1.32" height="1.32"/><rect class="cls-3" x="11.85" y="55.15" width="2.63" height="2.63"/><rect class="cls-3" x="13.16" y="52.52" width="1.32" height="1.32"/></g><g id="Frame_3" data-name="Frame 3"><rect class="cls-1" x="6.58" y="95.85" width="9.21" height="1.32"/><rect class="cls-1" x="5.27" y="94.54" width="9.21" height="1.32"/><rect class="cls-1" x="2.63" y="82.69" width="15.8" height="11.85"/><rect class="cls-1" y="86.64" width="3.95" height="5.27"/><rect class="cls-1" x="17.11" y="89.27" width="3.95" height="3.95"/><rect class="cls-1" x="2.63" y="77.43" width="1.32" height="7.9"/><rect class="cls-1" x="14.48" y="74.79" width="1.32" height="7.9"/><rect class="cls-1" x="7.9" y="69.53" width="1.32" height="7.9"/><rect class="cls-1" x="11.85" y="70.84" width="1.32" height="7.9"/><rect class="cls-1" x="6.58" y="81.37" width="11.85" height="2.63"/><path class="cls-1" d="M6.58,77.43v9.21H17.11V77.43Zm7.9,2.63H13.16V78.74h1.32Z"/><rect class="cls-1" x="7.9" y="73.48" width="2.63" height="6.58"/><rect class="cls-1" x="10.53" y="72.16" width="2.63" height="7.9"/><rect class="cls-1" x="2.63" y="74.79" width="1.32" height="1.32"/><rect class="cls-1" x="15.8" y="70.84" width="1.32" height="1.32"/><rect class="cls-1" x="19.75" y="86.64" width="1.32" height="1.32"/><rect class="cls-1" x="7.9" y="65.58" width="1.32" height="1.32"/><rect class="cls-1" x="10.53" y="68.21" width="1.32" height="1.32"/><rect class="cls-2" x="6.58" y="90.59" width="5.27" height="1.32"/><rect class="cls-2" x="13.16" y="90.59" width="1.32" height="1.32"/><rect class="cls-2" x="11.85" y="91.9" width="1.32" height="1.32"/><polygon class="cls-2" points="14.48 86.64 14.48 90.59 3.95 90.59 3.95 87.96 5.26 87.96 5.26 86.64 14.48 86.64"/><polygon class="cls-2" points="11.85 85.32 11.85 87.96 6.58 87.96 6.58 84.01 10.53 84.01 10.53 85.32 11.85 85.32"/><rect class="cls-2" x="6.58" y="81.37" width="1.32" height="5.27"/><rect class="cls-2" x="14.48" y="84.01" width="1.32" height="1.32"/><polygon class="cls-2" points="13.16 82.69 13.16 85.32 11.85 85.32 11.85 84.01 10.53 84.01 10.53 82.69 13.16 82.69"/><rect class="cls-2" x="5.27" y="84.01" width="2.63" height="2.63"/><rect class="cls-3" x="7.9" y="85.32" width="1.32" height="5.27"/><rect class="cls-3" x="7.9" y="89.27" width="2.63" height="1.32"/><rect class="cls-3" x="5.27" y="87.96" width="2.63" height="1.32"/><rect class="cls-3" x="11.85" y="89.27" width="1.32" height="1.32"/><rect class="cls-3" x="13.16" y="87.96" width="1.32" height="1.32"/><rect class="cls-3" x="11.85" y="85.32" width="1.32" height="1.32"/><rect class="cls-3" x="10.53" y="86.64" width="1.32" height="1.32"/></g><g id="Frame_4" data-name="Frame 4"><rect class="cls-1" x="6.58" y="128.61" width="7.9" height="1.32"/><rect class="cls-1" x="5.27" y="127.3" width="10.53" height="1.32"/><rect class="cls-1" x="2.63" y="115.45" width="15.8" height="11.85"/><rect class="cls-1" y="119.4" width="3.95" height="5.27"/><rect class="cls-1" y="116.77" width="1.32" height="1.32"/><rect class="cls-1" x="17.11" y="120.72" width="3.95" height="3.95"/><rect class="cls-1" x="2.63" y="111.5" width="1.32" height="6.58"/><rect class="cls-1" x="6.58" y="112.82" width="11.85" height="3.95"/><rect class="cls-1" x="6.58" y="111.5" width="10.53" height="7.9"/><rect class="cls-1" x="14.48" y="108.87" width="2.63" height="9.21"/><rect class="cls-1" x="7.9" y="106.24" width="2.63" height="6.58"/><rect class="cls-1" x="10.53" y="102.29" width="2.63" height="10.53"/><rect class="cls-1" x="2.63" y="108.87" width="1.32" height="1.32"/><rect class="cls-1" x="15.8" y="103.6" width="1.32" height="1.32"/><rect class="cls-1" x="9.21" y="99.65" width="1.32" height="1.32"/><rect class="cls-1" x="7.9" y="98.34" width="1.32" height="1.32"/><rect class="cls-2" x="6.58" y="123.35" width="3.95" height="1.32"/><rect class="cls-2" x="13.16" y="123.35" width="1.32" height="1.32"/><rect class="cls-2" x="3.95" y="119.4" width="10.53" height="3.95"/><rect class="cls-2" x="6.58" y="116.77" width="6.58" height="3.95"/><rect class="cls-2" x="6.58" y="115.45" width="1.32" height="3.95"/><rect class="cls-2" x="14.48" y="115.45" width="2.63" height="2.63"/><rect class="cls-3" x="6.58" y="119.4" width="2.63" height="3.95"/><rect class="cls-3" x="7.9" y="122.03" width="2.63" height="1.32"/><rect class="cls-3" x="13.16" y="122.03" width="1.32" height="1.32"/><rect class="cls-3" x="10.53" y="119.4" width="1.32" height="1.32"/></g></svg>