<svg xmlns="http://www.w3.org/2000/svg" viewBox="0 0 42.27 762"><defs><style>.cls-1{fill:#191d35;}.cls-2{fill:#262b51;}.cls-3{fill:#151828;}.cls-4{fill:#45528c;}.cls-5{fill:#7989bc;}.cls-6{fill:#121423;}.cls-7{fill:#424b70;}.cls-8{fill:#232944;}.cls-9{fill:#10131e;}.cls-10,.cls-11{fill:#0d1019;}.cls-10{opacity:0.8;}.cls-10,.cls-19{isolation:isolate;}.cls-12{fill:#4f3c25;}.cls-13{fill:#7c7c7c;}.cls-14{fill:#c6c6c6;}.cls-15{fill:#110d09;}.cls-16{fill:#595958;}.cls-17{fill:#354066;}.cls-18{fill:#131623;}.cls-19{fill:#141923;opacity:0.6;}.cls-20{fill:#d8ebcc;}.cls-21{fill:#d2cc45;}.cls-22{fill:#738390;}.cls-23{fill:#625e4e;}.cls-24{fill:#6172af;}.cls-25{fill:#61b6bf;}.cls-26{fill:#c59986;}</style></defs><g id="Layer_2" data-name="Layer 2"><g id="Layer_1-2" data-name="Layer 1"><g id="Layer_17" data-name="Layer 17"><rect class="cls-1" y="380" width="10.17" height="367.7"/><polygon class="cls-2" points="0 748 0 754 16.27 754 16.37 748 0 748"/><polygon class="cls-3" points="0 748 0 754 16.27 754 16.37 748 0 748"/><polygon class="cls-2" points="28.27 688.4 28.27 380 9.37 380 9.37 737.5 4.67 738.2 3.57 744 0 744 0 760 26.27 760 26.27 758 28.27 758 28.27 756 30.27 756 30.27 748 32.27 748 32.27 742 28.27 688.4"/><rect class="cls-4" x="18.27" y="758" width="4" height="2"/><polygon class="cls-4" points="28.37 687.9 28.27 754 26.27 754 26.27 756 24.37 756 24.27 758 0 758 0 762 24.37 762 24.37 760 26.37 760 26.37 758 28.37 758 28.27 756 30.37 756 30.37 754 32.27 754 32.27 687.9 28.37 687.9"/><rect class="cls-4" x="28.37" y="689.7" width="4" height="3.6"/><rect class="cls-5" x="26.37" y="665.7" width="2" height="2"/><rect x="26.37" y="667.7" width="2" height="2"/><rect class="cls-5" x="26.27" y="674" width="2" height="2"/><rect x="26.27" y="676" width="2" height="2"/><polygon class="cls-4" points="8.27 680.7 8.27 736 6.27 736 6.27 738 4.27 738 4.27 740 2.27 740 2.27 742 0.27 742 0.27 744 0 744 0 746 2.27 746 2.27 744 4.27 744 4.27 742 6.27 742 6.27 740 8.27 740 8.27 738 10.27 738 10.27 680.7 8.27 680.7"/><rect class="cls-4" x="8.27" y="380" width="2" height="317.3"/><rect class="cls-6" x="8.37" y="702" width="23.9" height="2"/><rect class="cls-7" x="8.37" y="704" width="23.9" height="2"/><rect class="cls-8" x="20.27" y="514" width="2" height="166"/><polyline class="cls-4" points="18.27 516 18.27 667.9 20.27 667.9 20.27 516"/><rect class="cls-1" y="15.4" width="10.17" height="366.6"/><polygon class="cls-2" points="0 14 16.37 14 16.27 8 0 8 0 14"/><polygon class="cls-3" points="0 14 16.37 14 16.27 8 0 8 0 14"/><polygon class="cls-2" points="39.87 458 28.27 458 28.27 280 38.67 280.1 38.37 236 32.37 236 32.37 232.1 28.37 229.9 28.37 73.6 32.37 20 32.37 14 30.37 14 30.37 6 28.37 6 28.37 4 26.37 4 26.37 2 0 2 0 18 9.27 18 10.27 504.4 28.77 508.2 36.07 501.7 40.17 498 39.87 458"/><rect class="cls-4" x="18.27" y="2" width="4" height="2"/><polygon class="cls-4" points="30.37 8 30.37 6 28.27 6 28.37 4 26.37 4 26.37 2 24.37 2 24.37 0 0 0 0 4 24.27 4 24.37 6 26.27 6 26.27 8 28.27 8 28.37 74.1 32.27 74.1 32.27 8 30.37 8"/><polygon class="cls-2" points="28.27 224.1 28.27 78 20.37 78 20.37 224.1 28.27 224.1"/><polygon class="cls-9" points="28.27 224.1 28.27 78 20.37 78 20.37 224.1 28.27 224.1"/><polyline class="cls-4" points="18.27 222 18.27 80 20.27 80 20.27 78 22.27 78 22.27 76 24.27 76 24.27 74 26.27 74 26.27 72 28.27 72 28.27 70 30.27 70 30.27 72 30.27 74 28.27 74 28.27 76 26.27 76 26.27 78 24.27 78 24.27 80 22.27 80 22.27 82 20.27 82 20.27 222.1"/><rect class="cls-4" x="28.37" y="68.7" width="4" height="3.6"/><rect class="cls-8" x="26.27" y="76" width="2" height="154"/><rect class="cls-5" x="26.37" y="94.3" width="2" height="2"/><rect x="26.37" y="92.3" width="2" height="2"/><rect class="cls-5" x="26.27" y="84" width="2" height="2"/><rect x="26.27" y="86" width="2" height="2"/><rect class="cls-5" x="26.37" y="215.4" width="2" height="2"/><rect x="26.37" y="213.4" width="2" height="2"/><rect class="cls-5" x="26.27" y="205" width="2" height="2"/><rect x="26.27" y="207" width="2" height="2"/><polygon class="cls-4" points="8.27 24 8.27 22 6.27 22 6.27 20 4.27 20 4.27 18 2.27 18 2.27 16 0 16 0 18 0.27 18 0.27 20 2.27 20 2.27 22 4.27 22 4.27 24 6.27 24 6.27 26 8.27 26 8.27 81.3 10.27 81.3 10.27 24 8.27 24"/><rect class="cls-4" x="8.27" y="64.7" width="2" height="317.3"/><rect class="cls-6" x="8.37" y="58" width="23.9" height="2"/><rect class="cls-7" x="8.37" y="56" width="23.9" height="2"/><rect class="cls-8" x="20.27" y="82" width="2" height="142.1"/><polyline class="cls-4" points="18.27 222.1 18.27 94.1 20.27 94.1 20.27 222"/><polygon class="cls-2" points="22.27 514 20.27 514 20.37 684 28.27 684 28.27 512 22.27 512 22.27 514"/><polygon class="cls-9" points="22.27 514 20.27 514 20.37 684 28.27 684 28.27 512 22.27 512 22.27 514"/><rect class="cls-8" x="26.27" y="508" width="2" height="178"/><path class="cls-4" d="M38.27,458v40h-2v2h-2v2h-2v2h-2v2h4v-2h2v-2h2v-2h2v-2h2V456h-14v2Z"/><polygon class="cls-4" points="28.27 458 28.27 305.1 28.27 280 24.27 280 24.37 305.1 24.27 458 28.27 458"/><polygon class="cls-4" points="28.27 280 28.27 282 42.27 282 42.27 280.2 42.27 240 40.37 240 40.37 238 38.27 238 38.37 236 36.37 236 36.37 234 34.37 234 34.37 232 28.27 232 30.27 232 30.27 234 32.27 234 32.27 236 34.27 236 34.37 238 36.27 238 36.27 240 38.27 240 38.27 280 28.27 280"/><polyline class="cls-4" points="20.27 516 20.27 680 22.27 680 22.27 682 24.27 682 24.27 684 26.27 684 26.27 686 28.27 686 28.27 688 30.27 688 30.27 690 30.27 692 28.27 692 28.27 690 26.27 690 26.27 688 24.27 688 24.27 686 22.27 686 22.27 684 20.27 684 20.27 682 18.27 682 18.27 516"/><polygon class="cls-4" points="24.27 222 24.27 224.1 26.27 224 26.27 226 28.27 226 28.27 228 30.27 228 30.27 230 32.27 230.1 32.27 232.1 34.27 232 34.27 234 34.27 236 32.27 236 32.27 234 30.27 234 30.27 232 28.27 232 28.27 230 26.27 230 26.27 228 24.27 228 24.27 226 22.27 226 22.27 224 20.27 224 20.27 220 22.27 220 22.27 222 24.27 222"/><polygon class="cls-4" points="24.27 516 24.27 514 26.27 514 26.27 512 28.27 512 28.27 510 30.27 510 30.27 508 32.27 508 32.27 506 34.27 506 34.27 504 34.27 502 32.27 502 32.27 504 30.27 504 30.27 506 28.27 506 28.27 508 26.27 508 26.27 510 24.27 510 24.27 512 22.27 512 22.27 514 20.27 514 20.27 518 22.27 518 22.27 516 24.27 516"/><rect class="cls-5" x="26.37" y="535.3" width="2" height="2"/><rect x="26.37" y="533.3" width="2" height="2"/><rect class="cls-5" x="26.27" y="525" width="2" height="2"/><rect x="26.27" y="527" width="2" height="2"/><rect class="cls-5" x="26.37" y="667.4" width="2" height="2"/><rect x="26.37" y="665.4" width="2" height="2"/><rect class="cls-5" x="26.27" y="657" width="2" height="2"/><rect x="26.27" y="659" width="2" height="2"/><polygon class="cls-10" points="4.17 662.1 4.27 732 2.27 732 2.27 734 0.27 734 0.27 736 0 736 0 740 0.27 740 0.27 738 2.27 738 2.27 736 4.27 736 4.27 734 6.17 734 6.17 662.1 4.17 662.1"/><polygon class="cls-10" points="6.27 26.1 6.27 24.1 4.27 24.1 4.27 22 2.27 22 2.27 20.1 0.27 20.1 0.17 18 0 18 0 22.09 0.27 22.1 0.17 24 2.27 24.1 2.27 26.1 4.27 26 4.27 28.1 6.27 28 6.17 697.9 8.17 698 8.17 26 6.27 26.1"/><rect class="cls-11" y="720.1" width="8.07" height="1.9"/><rect class="cls-6" x="8.37" y="488" width="33.9" height="2"/><rect class="cls-7" x="8.37" y="490" width="33.9" height="2"/><rect class="cls-6" x="8.37" y="400" width="20" height="2"/><rect class="cls-7" x="8.37" y="398" width="20" height="2"/><rect class="cls-6" x="8.37" y="338" width="20.1" height="2"/><rect class="cls-7" x="8.37" y="340" width="20.1" height="2"/><rect class="cls-6" x="8.37" y="250.5" width="33.9" height="2"/><rect class="cls-7" x="8.37" y="248.5" width="33.9" height="2"/><rect class="cls-8" x="28.17" y="282" width="12.1" height="8.1"/><rect class="cls-12" x="28.17" y="290.1" width="10.1" height="157.9"/><rect class="cls-13" x="28.17" y="290.1" width="10.1" height="157.9"/><rect class="cls-6" x="28.17" y="448" width="12.1" height="8.1"/><rect class="cls-12" x="34.17" y="290.1" width="2" height="157.9"/><rect class="cls-14" x="34.17" y="290.1" width="2" height="157.9"/><rect class="cls-12" x="28.27" y="290.1" width="2" height="157.9"/><rect class="cls-15" x="28.27" y="290.1" width="2" height="157.9"/><rect class="cls-12" x="30.27" y="290.1" width="2" height="157.9"/><rect class="cls-16" x="30.27" y="290.1" width="2" height="157.9"/><rect class="cls-17" x="34.17" y="282" width="2" height="8.1"/><rect class="cls-18" x="30.17" y="282" width="2" height="8.1"/><rect x="28.17" y="282" width="2" height="8.1"/><rect class="cls-19" x="28.17" y="282" width="12.1" height="2"/><rect class="cls-8" x="28.17" y="448" width="12.1" height="8.1"/><rect class="cls-17" x="34.17" y="448" width="2" height="8.1"/><rect class="cls-18" x="30.17" y="448" width="2" height="8.1"/><rect x="28.17" y="448" width="2" height="8.1"/><rect class="cls-19" x="28.17" y="454.1" width="12.1" height="2"/><rect class="cls-19" x="28.17" y="290.1" width="10" height="2"/><rect class="cls-19" x="28.17" y="446.1" width="10" height="2"/><rect class="cls-20" x="0.17" y="742.1" width="2" height="2"/><rect class="cls-21" x="2.17" y="742.1" width="2" height="2"/><rect class="cls-21" x="6.27" y="738.1" width="2" height="2"/><rect class="cls-22" x="2.17" y="740.1" width="2" height="2"/><rect class="cls-22" x="4.17" y="738.1" width="2" height="2"/><rect class="cls-20" x="4.17" y="740.1" width="2" height="2"/><rect class="cls-20" x="6.27" y="736.1" width="2" height="2"/><rect class="cls-23" x="4.17" y="742.1" width="2" height="2"/><rect class="cls-23" x="6.27" y="740.2" width="2" height="2"/><rect class="cls-24" x="6.27" y="28.2" width="2" height="700"/><rect class="cls-25" x="6.27" y="730.2" width="2" height="2"/><rect class="cls-26" x="6.27" y="732.2" width="2" height="2"/><rect class="cls-21" x="6.27" y="734.1" width="2" height="2"/></g></g></g></svg>