<svg id="Layer_1" data-name="Layer 1" xmlns="http://www.w3.org/2000/svg" width="366.08" height="369.27" viewBox="0 0 366.08 369.27"><defs><style>.cls-1{fill:#0090e8;}.cls-2{fill:#2ce1ff;}.cls-3{fill:#fff;}.cls-4{fill:#095ce1;}</style></defs><rect class="cls-1" x="11.28" y="357.99" width="18.93" height="1.46"/><rect class="cls-1" x="25.85" y="359.45" width="18.93" height="1.46"/><rect class="cls-2" x="14.2" y="357.99" width="5.83" height="1.46"/><rect class="cls-2" x="31.67" y="357.99" width="2.91" height="1.46"/><rect class="cls-2" x="52.07" y="359.45" width="2.91" height="1.46"/><rect class="cls-1" x="46.24" y="362.36" width="2.91" height="1.46"/><rect class="cls-1" x="12.74" y="362.36" width="5.83" height="1.46"/><rect class="cls-1" x="43.33" y="356.53" width="5.83" height="1.46"/><rect class="cls-3" x="21.48" y="357.99" width="1.46" height="1.46"/><rect class="cls-3" x="50.61" y="357.99" width="1.46" height="1.46"/><rect class="cls-1" x="63.72" y="360.9" width="1.46" height="1.46"/><rect class="cls-3" x="8.37" y="357.99" width="1.46" height="1.46"/><rect class="cls-1" x="20.02" y="360.9" width="16.02" height="1.46"/><rect class="cls-1" x="38.96" y="360.9" width="23.3" height="1.46"/><rect class="cls-1" x="4" y="359.45" width="16.02" height="1.46"/><rect class="cls-4" x="15.65" y="359.45" width="21.85" height="1.46"/><rect class="cls-2" x="24.39" y="359.45" width="4.37" height="1.46"/><rect class="cls-3" x="11.28" y="359.45" width="1.46" height="1.46"/><rect class="cls-4" x="41.87" y="360.9" width="8.74" height="1.46"/><rect class="cls-4" x="36.04" y="363.82" width="8.74" height="1.46"/><rect class="cls-1" x="126.35" y="22.99" width="18.93" height="1.46"/><rect class="cls-1" x="140.91" y="24.45" width="18.93" height="1.46"/><rect class="cls-2" x="129.26" y="22.99" width="5.83" height="1.46"/><rect class="cls-2" x="146.74" y="22.99" width="2.91" height="1.46"/><rect class="cls-2" x="167.13" y="24.45" width="2.91" height="1.46"/><rect class="cls-1" x="161.3" y="27.36" width="2.91" height="1.46"/><rect class="cls-1" x="127.8" y="27.36" width="5.83" height="1.46"/><rect class="cls-1" x="158.39" y="21.53" width="5.83" height="1.46"/><rect class="cls-3" x="136.54" y="22.99" width="1.46" height="1.46"/><rect class="cls-3" x="165.67" y="22.99" width="1.46" height="1.46"/><rect class="cls-1" x="178.78" y="25.9" width="1.46" height="1.46"/><rect class="cls-3" x="123.43" y="22.99" width="1.46" height="1.46"/><rect class="cls-1" x="135.09" y="25.9" width="16.02" height="1.46"/><rect class="cls-1" x="154.02" y="25.9" width="23.3" height="1.46"/><rect class="cls-1" x="119.07" y="24.45" width="16.02" height="1.46"/><rect class="cls-4" x="130.72" y="24.45" width="21.85" height="1.46"/><rect class="cls-2" x="139.46" y="24.45" width="4.37" height="1.46"/><rect class="cls-3" x="126.35" y="24.45" width="1.46" height="1.46"/><rect class="cls-4" x="156.93" y="25.9" width="8.74" height="1.46"/><rect class="cls-4" x="151.11" y="28.82" width="8.74" height="1.46"/><rect class="cls-1" x="24.39" y="199.23" width="18.93" height="1.46"/><rect class="cls-1" x="38.96" y="200.69" width="18.93" height="1.46"/><rect class="cls-2" x="27.3" y="199.23" width="5.83" height="1.46"/><rect class="cls-2" x="44.78" y="199.23" width="2.91" height="1.46"/><rect class="cls-2" x="65.17" y="200.69" width="2.91" height="1.46"/><rect class="cls-1" x="59.35" y="203.6" width="2.91" height="1.46"/><rect class="cls-1" x="25.85" y="203.6" width="5.83" height="1.46"/><rect class="cls-1" x="56.43" y="197.77" width="5.83" height="1.46"/><rect class="cls-3" x="34.59" y="199.23" width="1.46" height="1.46"/><rect class="cls-3" x="63.72" y="199.23" width="1.46" height="1.46"/><rect class="cls-1" x="76.83" y="202.14" width="1.46" height="1.46"/><rect class="cls-3" x="21.48" y="199.23" width="1.46" height="1.46"/><rect class="cls-1" x="33.13" y="202.14" width="16.02" height="1.46"/><rect class="cls-1" x="52.07" y="202.14" width="23.3" height="1.46"/><rect class="cls-1" x="17.11" y="200.69" width="16.02" height="1.46"/><rect class="cls-4" x="28.76" y="200.69" width="21.85" height="1.46"/><rect class="cls-2" x="37.5" y="200.69" width="4.37" height="1.46"/><rect class="cls-3" x="24.39" y="200.69" width="1.46" height="1.46"/><rect class="cls-4" x="54.98" y="202.14" width="8.74" height="1.46"/><rect class="cls-4" x="49.15" y="205.05" width="8.74" height="1.46"/><rect class="cls-1" x="222.48" y="55.03" width="18.93" height="1.46"/><rect class="cls-1" x="237.04" y="56.49" width="18.93" height="1.46"/><rect class="cls-2" x="225.39" y="55.03" width="5.83" height="1.46"/><rect class="cls-2" x="242.87" y="55.03" width="2.91" height="1.46"/><rect class="cls-1" x="242.87" y="59.4" width="2.91" height="1.46"/><rect class="cls-1" x="234.13" y="60.86" width="7.28" height="1.46"/><rect class="cls-2" x="228.3" y="52.12" width="2.91" height="1.46"/><rect class="cls-2" x="263.26" y="56.49" width="2.91" height="1.46"/><rect class="cls-1" x="257.44" y="59.4" width="2.91" height="1.46"/><rect class="cls-1" x="223.94" y="59.4" width="5.83" height="1.46"/><rect class="cls-1" x="254.52" y="53.58" width="5.83" height="1.46"/><rect class="cls-1" x="269.09" y="60.86" width="5.83" height="1.46"/><rect class="cls-3" x="232.67" y="55.03" width="1.46" height="1.46"/><rect class="cls-3" x="225.39" y="52.12" width="1.46" height="1.46"/><rect class="cls-3" x="261.8" y="55.03" width="1.46" height="1.46"/><rect class="cls-4" x="274.91" y="57.95" width="1.46" height="1.46"/><rect class="cls-3" x="219.57" y="55.03" width="1.46" height="1.46"/><rect class="cls-1" x="231.22" y="57.95" width="16.02" height="1.46"/><rect class="cls-1" x="250.15" y="57.95" width="23.3" height="1.46"/><rect class="cls-1" x="215.2" y="56.49" width="16.02" height="1.46"/><rect class="cls-4" x="226.85" y="56.49" width="21.85" height="1.46"/><rect class="cls-2" x="235.59" y="56.49" width="4.37" height="1.46"/><rect class="cls-3" x="222.48" y="56.49" width="1.46" height="1.46"/><rect class="cls-4" x="253.07" y="57.95" width="8.74" height="1.46"/><rect class="cls-4" x="258.89" y="60.86" width="8.74" height="1.46"/><rect class="cls-4" x="247.24" y="60.86" width="8.74" height="1.46"/><rect class="cls-4" x="270.54" y="57.95" width="1.46" height="1.46"/><rect class="cls-4" x="238.5" y="60.86" width="1.46" height="1.46"/><rect class="cls-4" x="241.41" y="60.86" width="1.46" height="1.46"/><rect class="cls-1" x="283.65" y="197.77" width="24.76" height="1.46"/><rect class="cls-1" x="274.91" y="199.23" width="18.93" height="1.46"/><rect class="cls-2" x="299.67" y="197.77" width="5.83" height="1.46"/><rect class="cls-2" x="285.11" y="197.77" width="4.37" height="1.46"/><rect class="cls-1" x="285.11" y="202.14" width="2.91" height="1.46"/><rect class="cls-1" x="295.3" y="202.14" width="2.91" height="1.46"/><rect class="cls-1" x="289.48" y="203.6" width="7.28" height="1.46"/><rect class="cls-2" x="299.67" y="194.86" width="2.91" height="1.46"/><rect class="cls-2" x="311.33" y="197.77" width="2.91" height="1.46"/><rect class="cls-2" x="308.41" y="202.14" width="2.91" height="1.46"/><rect class="cls-1" x="264.72" y="199.23" width="8.74" height="1.46"/><rect class="cls-2" x="264.72" y="199.23" width="2.91" height="1.46"/><rect class="cls-2" x="263.26" y="194.86" width="2.91" height="1.46"/><rect class="cls-1" x="272" y="202.14" width="7.28" height="1.46"/><rect class="cls-1" x="301.13" y="202.14" width="5.83" height="1.46"/><rect class="cls-1" x="270.54" y="196.32" width="5.83" height="1.46"/><rect class="cls-1" x="255.98" y="203.6" width="5.83" height="1.46"/><rect class="cls-3" x="296.76" y="197.77" width="1.46" height="1.46"/><rect class="cls-3" x="304.04" y="194.86" width="1.46" height="1.46"/><rect class="cls-3" x="261.8" y="194.86" width="1.46" height="1.46"/><rect class="cls-3" x="269.09" y="194.86" width="1.46" height="1.46"/><rect class="cls-3" x="253.07" y="199.23" width="1.46" height="1.46"/><rect class="cls-2" x="255.98" y="200.69" width="1.46" height="1.46"/><rect class="cls-3" x="267.63" y="197.77" width="1.46" height="1.46"/><rect class="cls-4" x="254.52" y="200.69" width="1.46" height="1.46"/><rect class="cls-3" x="309.87" y="197.77" width="1.46" height="1.46"/><rect class="cls-1" x="283.65" y="200.69" width="16.02" height="1.46"/><rect class="cls-1" x="257.44" y="200.69" width="23.3" height="1.46"/><rect class="cls-1" x="299.67" y="199.23" width="16.02" height="1.46"/><rect class="cls-4" x="282.2" y="199.23" width="21.85" height="1.46"/><rect class="cls-2" x="290.94" y="199.23" width="4.37" height="1.46"/><rect class="cls-3" x="306.96" y="199.23" width="1.46" height="1.46"/><rect class="cls-4" x="269.09" y="200.69" width="8.74" height="1.46"/><rect class="cls-1" x="273.46" y="205.05" width="1.46" height="1.46"/><rect class="cls-1" x="266.17" y="202.14" width="1.46" height="1.46"/><rect class="cls-4" x="263.26" y="200.69" width="4.37" height="1.46"/><rect class="cls-4" x="273.46" y="202.14" width="2.91" height="1.46"/><rect class="cls-4" x="263.26" y="203.6" width="8.74" height="1.46"/><rect class="cls-4" x="274.91" y="203.6" width="8.74" height="1.46"/><rect class="cls-4" x="258.89" y="200.69" width="1.46" height="1.46"/><rect class="cls-4" x="261.8" y="202.14" width="1.46" height="1.46"/><rect class="cls-4" x="280.74" y="200.69" width="1.46" height="1.46"/><rect class="cls-4" x="270.54" y="199.23" width="1.46" height="1.46"/><rect class="cls-4" x="289.48" y="202.14" width="4.37" height="1.46"/><rect class="cls-4" x="276.37" y="196.32" width="1.46" height="1.46"/><rect class="cls-2" x="270.54" y="200.69" width="1.46" height="1.46"/><rect class="cls-2" x="286.57" y="200.69" width="5.83" height="1.46"/><rect class="cls-4" x="298.22" y="203.6" width="1.46" height="1.46"/><rect class="cls-4" x="311.33" y="202.14" width="1.46" height="1.46"/><rect class="cls-4" x="302.59" y="202.14" width="1.46" height="1.46"/><rect class="cls-4" x="288.02" y="203.6" width="1.46" height="1.46"/><rect class="cls-2" x="272" y="196.32" width="2.91" height="1.46"/><rect class="cls-4" x="288.02" y="200.69" width="1.46" height="1.46"/><rect class="cls-4" x="290.94" y="197.77" width="1.46" height="1.46"/><rect class="cls-1" x="159.85" y="148.25" width="18.93" height="1.46"/><rect class="cls-1" x="174.41" y="149.71" width="18.93" height="1.46"/><rect class="cls-2" x="162.76" y="148.25" width="5.83" height="1.46"/><rect class="cls-2" x="180.24" y="148.25" width="2.91" height="1.46"/><rect class="cls-2" x="200.63" y="149.71" width="2.91" height="1.46"/><rect class="cls-1" x="194.8" y="152.62" width="2.91" height="1.46"/><rect class="cls-1" x="161.3" y="152.62" width="5.83" height="1.46"/><rect class="cls-1" x="191.89" y="146.79" width="5.83" height="1.46"/><rect class="cls-3" x="170.04" y="148.25" width="1.46" height="1.46"/><rect class="cls-3" x="199.17" y="148.25" width="1.46" height="1.46"/><rect class="cls-1" x="212.28" y="151.16" width="1.46" height="1.46"/><rect class="cls-3" x="156.93" y="148.25" width="1.46" height="1.46"/><rect class="cls-1" x="168.59" y="151.16" width="16.02" height="1.46"/><rect class="cls-1" x="187.52" y="151.16" width="23.3" height="1.46"/><rect class="cls-1" x="152.57" y="149.71" width="16.02" height="1.46"/><rect class="cls-4" x="164.22" y="149.71" width="21.85" height="1.46"/><rect class="cls-2" x="172.96" y="149.71" width="4.37" height="1.46"/><rect class="cls-3" x="159.85" y="149.71" width="1.46" height="1.46"/><rect class="cls-4" x="190.43" y="151.16" width="8.74" height="1.46"/><rect class="cls-4" x="184.61" y="154.08" width="8.74" height="1.46"/><rect class="cls-4" x="193.35" y="155.53" width="1.46" height="1.46"/><rect class="cls-1" x="164.22" y="152.62" width="18.93" height="1.46"/><rect class="cls-1" x="149.65" y="154.08" width="18.93" height="1.46"/><rect class="cls-2" x="174.41" y="152.62" width="5.83" height="1.46"/><rect class="cls-2" x="159.85" y="152.62" width="2.91" height="1.46"/><rect class="cls-2" x="142.37" y="151.16" width="2.91" height="1.46"/><rect class="cls-2" x="139.46" y="154.08" width="2.91" height="1.46"/><rect class="cls-1" x="145.28" y="156.99" width="2.91" height="1.46"/><rect class="cls-1" x="175.87" y="156.99" width="5.83" height="1.46"/><rect class="cls-1" x="145.28" y="151.16" width="5.83" height="1.46"/><rect class="cls-3" x="171.5" y="152.62" width="1.46" height="1.46"/><rect class="cls-1" x="143.83" y="152.62" width="2.91" height="1.46"/><rect class="cls-2" x="148.2" y="154.08" width="2.91" height="1.46"/><rect class="cls-3" x="140.91" y="149.71" width="1.46" height="1.46"/><rect class="cls-1" x="129.26" y="155.53" width="1.46" height="1.46"/><rect class="cls-1" x="132.17" y="155.53" width="1.46" height="1.46"/><rect class="cls-3" x="184.61" y="152.62" width="1.46" height="1.46"/><rect class="cls-1" x="158.39" y="155.53" width="16.02" height="1.46"/><rect class="cls-1" x="135.09" y="155.53" width="20.39" height="1.46"/><rect class="cls-1" x="174.41" y="154.08" width="16.02" height="1.46"/><rect class="cls-4" x="187.52" y="154.08" width="1.46" height="1.46"/><rect class="cls-4" x="156.93" y="154.08" width="21.85" height="1.46"/><rect class="cls-2" x="165.67" y="154.08" width="4.37" height="1.46"/><rect class="cls-3" x="181.7" y="154.08" width="1.46" height="1.46"/><rect class="cls-4" x="143.83" y="155.53" width="8.74" height="1.46"/><rect class="cls-4" x="149.65" y="158.45" width="8.74" height="1.46"/><rect class="cls-1" x="119.07" y="269.14" width="18.93" height="1.46"/><rect class="cls-1" x="104.5" y="270.6" width="18.93" height="1.46"/><rect class="cls-2" x="129.26" y="269.14" width="5.83" height="1.46"/><rect class="cls-2" x="114.7" y="269.14" width="2.91" height="1.46"/><rect class="cls-2" x="123.43" y="266.23" width="2.91" height="1.46"/><rect class="cls-2" x="94.3" y="270.6" width="2.91" height="1.46"/><rect class="cls-1" x="100.13" y="273.51" width="2.91" height="1.46"/><rect class="cls-1" x="130.72" y="273.51" width="5.83" height="1.46"/><rect class="cls-1" x="100.13" y="267.69" width="5.83" height="1.46"/><rect class="cls-1" x="107.41" y="269.14" width="5.83" height="1.46"/><rect class="cls-1" x="117.61" y="266.23" width="5.83" height="1.46"/><rect class="cls-3" x="126.35" y="269.14" width="1.46" height="1.46"/><rect class="cls-3" x="116.15" y="264.77" width="1.46" height="1.46"/><rect class="cls-3" x="97.22" y="269.14" width="1.46" height="1.46"/><rect class="cls-1" x="84.11" y="272.05" width="1.46" height="1.46"/><rect class="cls-3" x="139.46" y="269.14" width="1.46" height="1.46"/><rect class="cls-1" x="113.24" y="272.05" width="16.02" height="1.46"/><rect class="cls-1" x="87.02" y="272.05" width="23.3" height="1.46"/><rect class="cls-1" x="129.26" y="270.6" width="23.3" height="1.46"/><rect class="cls-4" x="111.78" y="270.6" width="21.85" height="1.46"/><rect class="cls-2" x="120.52" y="270.6" width="4.37" height="1.46"/><rect class="cls-3" x="136.54" y="270.6" width="1.46" height="1.46"/><rect class="cls-4" x="98.67" y="272.05" width="8.74" height="1.46"/><rect class="cls-4" x="121.98" y="273.51" width="8.74" height="1.46"/><rect class="cls-4" x="142.37" y="270.6" width="2.91" height="1.46"/><rect class="cls-4" x="143.83" y="273.51" width="5.83" height="1.46"/><rect class="cls-1" x="132.17" y="274.97" width="8.74" height="1.46"/><rect class="cls-4" x="104.5" y="274.97" width="8.74" height="1.46"/><rect class="cls-2" x="91.39" y="272.05" width="1.46" height="1.46"/><rect class="cls-2" x="88.48" y="272.05" width="1.46" height="1.46"/><rect class="cls-3" x="85.57" y="272.05" width="1.46" height="1.46"/><rect class="cls-1" x="124.89" y="273.51" width="2.91" height="1.46"/><rect class="cls-2" x="120.52" y="273.51" width="1.46" height="1.46"/><rect class="cls-2" x="105.96" y="264.77" width="1.46" height="1.46"/><rect class="cls-2" x="108.87" y="269.14" width="1.46" height="1.46"/><rect class="cls-4" x="139.46" y="274.97" width="2.91" height="1.46"/><rect class="cls-1" x="38.96" y="85.62" width="18.93" height="1.46"/><rect class="cls-1" x="24.39" y="87.08" width="18.93" height="1.46"/><rect class="cls-2" x="49.15" y="85.62" width="5.83" height="1.46"/><rect class="cls-2" x="34.59" y="85.62" width="2.91" height="1.46"/><rect class="cls-2" x="43.33" y="82.71" width="2.91" height="1.46"/><rect class="cls-2" x="14.2" y="87.08" width="2.91" height="1.46"/><rect class="cls-1" x="20.02" y="89.99" width="2.91" height="1.46"/><rect class="cls-1" x="50.61" y="89.99" width="5.83" height="1.46"/><rect class="cls-1" x="20.02" y="84.16" width="5.83" height="1.46"/><rect class="cls-1" x="27.3" y="85.62" width="5.83" height="1.46"/><rect class="cls-1" x="37.5" y="82.71" width="5.83" height="1.46"/><rect class="cls-3" x="46.24" y="85.62" width="1.46" height="1.46"/><rect class="cls-3" x="36.04" y="81.25" width="1.46" height="1.46"/><rect class="cls-3" x="17.11" y="85.62" width="1.46" height="1.46"/><rect class="cls-1" x="4" y="88.53" width="1.46" height="1.46"/><rect class="cls-3" x="59.35" y="85.62" width="1.46" height="1.46"/><rect class="cls-1" x="33.13" y="88.53" width="16.02" height="1.46"/><rect class="cls-1" x="6.91" y="88.53" width="23.3" height="1.46"/><rect class="cls-1" x="49.15" y="87.08" width="23.3" height="1.46"/><rect class="cls-4" x="31.67" y="87.08" width="21.85" height="1.46"/><rect class="cls-2" x="40.41" y="87.08" width="4.37" height="1.46"/><rect class="cls-3" x="56.43" y="87.08" width="1.46" height="1.46"/><rect class="cls-4" x="18.57" y="88.53" width="8.74" height="1.46"/><rect class="cls-4" x="41.87" y="89.99" width="8.74" height="1.46"/><rect class="cls-4" x="62.26" y="87.08" width="2.91" height="1.46"/><rect class="cls-4" x="63.72" y="89.99" width="5.83" height="1.46"/><rect class="cls-1" x="52.07" y="91.45" width="8.74" height="1.46"/><rect class="cls-4" x="24.39" y="91.45" width="8.74" height="1.46"/><rect class="cls-2" x="11.28" y="88.53" width="1.46" height="1.46"/><rect class="cls-2" x="8.37" y="88.53" width="1.46" height="1.46"/><rect class="cls-3" x="5.46" y="88.53" width="1.46" height="1.46"/><rect class="cls-1" x="44.78" y="89.99" width="2.91" height="1.46"/><rect class="cls-2" x="40.41" y="89.99" width="1.46" height="1.46"/><rect class="cls-2" x="25.85" y="81.25" width="1.46" height="1.46"/><rect class="cls-2" x="28.76" y="85.62" width="1.46" height="1.46"/><rect class="cls-4" x="59.35" y="91.45" width="2.91" height="1.46"/><rect class="cls-1" x="293.85" y="320.12" width="18.93" height="1.46"/><rect class="cls-1" x="279.28" y="321.58" width="18.93" height="1.46"/><rect class="cls-2" x="304.04" y="320.12" width="5.83" height="1.46"/><rect class="cls-2" x="289.48" y="320.12" width="2.91" height="1.46"/><rect class="cls-2" x="298.22" y="317.21" width="2.91" height="1.46"/><rect class="cls-2" x="269.09" y="321.58" width="2.91" height="1.46"/><rect class="cls-1" x="274.91" y="324.49" width="2.91" height="1.46"/><rect class="cls-1" x="305.5" y="324.49" width="5.83" height="1.46"/><rect class="cls-1" x="274.91" y="318.66" width="5.83" height="1.46"/><rect class="cls-1" x="282.2" y="320.12" width="5.83" height="1.46"/><rect class="cls-1" x="292.39" y="317.21" width="5.83" height="1.46"/><rect class="cls-3" x="301.13" y="320.12" width="1.46" height="1.46"/><rect class="cls-3" x="290.94" y="315.75" width="1.46" height="1.46"/><rect class="cls-3" x="272" y="320.12" width="1.46" height="1.46"/><rect class="cls-1" x="258.89" y="323.03" width="1.46" height="1.46"/><rect class="cls-3" x="314.24" y="320.12" width="1.46" height="1.46"/><rect class="cls-1" x="288.02" y="323.03" width="16.02" height="1.46"/><rect class="cls-1" x="261.8" y="323.03" width="23.3" height="1.46"/><rect class="cls-1" x="304.04" y="321.58" width="23.3" height="1.46"/><rect class="cls-4" x="286.57" y="321.58" width="21.85" height="1.46"/><rect class="cls-2" x="295.3" y="321.58" width="4.37" height="1.46"/><rect class="cls-3" x="311.33" y="321.58" width="1.46" height="1.46"/><rect class="cls-4" x="273.46" y="323.03" width="8.74" height="1.46"/><rect class="cls-4" x="296.76" y="324.49" width="8.74" height="1.46"/><rect class="cls-4" x="317.15" y="321.58" width="2.91" height="1.46"/><rect class="cls-4" x="318.61" y="324.49" width="5.83" height="1.46"/><rect class="cls-1" x="306.96" y="325.95" width="8.74" height="1.46"/><rect class="cls-4" x="279.28" y="325.95" width="8.74" height="1.46"/><rect class="cls-2" x="266.17" y="323.03" width="1.46" height="1.46"/><rect class="cls-2" x="263.26" y="323.03" width="1.46" height="1.46"/><rect class="cls-3" x="260.35" y="323.03" width="1.46" height="1.46"/><rect class="cls-1" x="299.67" y="324.49" width="2.91" height="1.46"/><rect class="cls-2" x="295.3" y="324.49" width="1.46" height="1.46"/><rect class="cls-2" x="280.74" y="315.75" width="1.46" height="1.46"/><rect class="cls-2" x="283.65" y="320.12" width="1.46" height="1.46"/><rect class="cls-4" x="314.24" y="325.95" width="2.91" height="1.46"/></svg>