<svg xmlns="http://www.w3.org/2000/svg" viewBox="0 0 477.22 162"><defs><style>.cls-1{fill:#64d8fa;}.cls-2{fill:#1a4ad4;}.cls-3{fill:#ecebe9;}</style></defs><g id="Layer_2" data-name="Layer 2"><g id="Layer_23" data-name="Layer 23"><rect class="cls-1" x="338" y="26" width="106" height="4"/><rect class="cls-1" x="371.22" y="86" width="106" height="4"/><rect class="cls-1" x="302" y="148" width="106" height="4"/><rect class="cls-2" x="68" y="46" width="106" height="4"/><rect class="cls-2" x="98" width="106" height="4"/><rect class="cls-2" x="124" y="4" width="106" height="4"/><rect class="cls-2" x="144" y="8" width="106" height="4"/><rect class="cls-2" x="242" width="116" height="4"/><rect class="cls-2" x="238" y="4" width="106" height="4"/><rect class="cls-2" x="324" y="8" width="106" height="4"/><rect class="cls-2" x="362" width="20" height="4"/><rect class="cls-2" x="250" y="12" width="20" height="4"/><rect class="cls-2" x="166" y="16" width="76" height="4"/><rect class="cls-2" x="214" width="20" height="4"/><rect class="cls-2" x="302" y="90" width="106" height="4"/><rect class="cls-2" x="100" y="156" width="94" height="4"/><rect class="cls-2" x="116" y="160" width="94" height="2"/><rect class="cls-2" x="144" y="112" width="114" height="4"/><rect class="cls-1" x="138" y="110" width="106" height="2"/><rect class="cls-1" x="92" y="156" width="106" height="2"/><rect class="cls-3" x="92" y="156" width="42" height="2"/><rect class="cls-3" y="28" width="66" height="2"/><rect class="cls-3" x="48" y="44" width="66" height="2"/></g></g></svg>