<?xml version="1.0" encoding="utf-8"?>
<!-- Generator: Adobe Illustrator 25.2.1, SVG Export Plug-In . SVG Version: 6.00 Build 0)  -->
<svg version="1.1" id="Layer_1" xmlns="http://www.w3.org/2000/svg" xmlns:xlink="http://www.w3.org/1999/xlink" x="0px" y="0px"
	 width="500px" height="500px" viewBox="0 0 500 500" style="enable-background:new 0 0 500 500;" xml:space="preserve">
<style type="text/css">
	.st0{fill:#0090E8;}
	.st1{fill:#2CE1FF;}
	.st2{fill:#FFFFFF;}
	.st3{fill:#095CE1;}
</style>
<g>
	<rect x="14" y="486" class="st0" width="26" height="2"/>
	<rect x="34" y="488" class="st0" width="26" height="2"/>
	<rect x="18" y="486" class="st1" width="8" height="2"/>
	<rect x="42" y="486" class="st1" width="4" height="2"/>
	<rect x="70" y="488" class="st1" width="4" height="2"/>
	<rect x="62" y="492" class="st0" width="4" height="2"/>
	<rect x="16" y="492" class="st0" width="8" height="2"/>
	<rect x="58" y="484" class="st0" width="8" height="2"/>
	<rect x="28" y="486" class="st2" width="2" height="2"/>
	<rect x="68" y="486" class="st2" width="2" height="2"/>
	<rect x="86" y="490" class="st0" width="2" height="2"/>
	<rect x="10" y="486" class="st2" width="2" height="2"/>
	<rect x="26" y="490" class="st0" width="22" height="2"/>
	<rect x="52" y="490" class="st0" width="32" height="2"/>
	<rect x="4" y="488" class="st0" width="22" height="2"/>
	<rect x="20" y="488" class="st3" width="30" height="2"/>
	<rect x="32" y="488" class="st1" width="6" height="2"/>
	<rect x="14" y="488" class="st2" width="2" height="2"/>
	<rect x="56" y="490" class="st3" width="12" height="2"/>
	<rect x="48" y="494" class="st3" width="12" height="2"/>
</g>
<g>
	<rect x="172" y="26" class="st0" width="26" height="2"/>
	<rect x="192" y="28" class="st0" width="26" height="2"/>
	<rect x="176" y="26" class="st1" width="8" height="2"/>
	<rect x="200" y="26" class="st1" width="4" height="2"/>
	<rect x="228" y="28" class="st1" width="4" height="2"/>
	<rect x="220" y="32" class="st0" width="4" height="2"/>
	<rect x="174" y="32" class="st0" width="8" height="2"/>
	<rect x="216" y="24" class="st0" width="8" height="2"/>
	<rect x="186" y="26" class="st2" width="2" height="2"/>
	<rect x="226" y="26" class="st2" width="2" height="2"/>
	<rect x="244" y="30" class="st0" width="2" height="2"/>
	<rect x="168" y="26" class="st2" width="2" height="2"/>
	<rect x="184" y="30" class="st0" width="22" height="2"/>
	<rect x="210" y="30" class="st0" width="32" height="2"/>
	<rect x="162" y="28" class="st0" width="22" height="2"/>
	<rect x="178" y="28" class="st3" width="30" height="2"/>
	<rect x="190" y="28" class="st1" width="6" height="2"/>
	<rect x="172" y="28" class="st2" width="2" height="2"/>
	<rect x="214" y="30" class="st3" width="12" height="2"/>
	<rect x="206" y="34" class="st3" width="12" height="2"/>
</g>
<g>
	<rect x="32" y="268" class="st0" width="26" height="2"/>
	<rect x="52" y="270" class="st0" width="26" height="2"/>
	<rect x="36" y="268" class="st1" width="8" height="2"/>
	<rect x="60" y="268" class="st1" width="4" height="2"/>
	<rect x="88" y="270" class="st1" width="4" height="2"/>
	<rect x="80" y="274" class="st0" width="4" height="2"/>
	<rect x="34" y="274" class="st0" width="8" height="2"/>
	<rect x="76" y="266" class="st0" width="8" height="2"/>
	<rect x="46" y="268" class="st2" width="2" height="2"/>
	<rect x="86" y="268" class="st2" width="2" height="2"/>
	<rect x="104" y="272" class="st0" width="2" height="2"/>
	<rect x="28" y="268" class="st2" width="2" height="2"/>
	<rect x="44" y="272" class="st0" width="22" height="2"/>
	<rect x="70" y="272" class="st0" width="32" height="2"/>
	<rect x="22" y="270" class="st0" width="22" height="2"/>
	<rect x="38" y="270" class="st3" width="30" height="2"/>
	<rect x="50" y="270" class="st1" width="6" height="2"/>
	<rect x="32" y="270" class="st2" width="2" height="2"/>
	<rect x="74" y="272" class="st3" width="12" height="2"/>
	<rect x="66" y="276" class="st3" width="12" height="2"/>
</g>
<g>
	<rect x="304" y="70" class="st0" width="26" height="2"/>
	<rect x="324" y="72" class="st0" width="26" height="2"/>
	<rect x="308" y="70" class="st1" width="8" height="2"/>
	<rect x="332" y="70" class="st1" width="4" height="2"/>
	<rect x="332" y="76" class="st0" width="4" height="2"/>
	<rect x="320" y="78" class="st0" width="10" height="2"/>
	<rect x="312" y="66" class="st1" width="4" height="2"/>
	<rect x="360" y="72" class="st1" width="4" height="2"/>
	<rect x="352" y="76" class="st0" width="4" height="2"/>
	<rect x="306" y="76" class="st0" width="8" height="2"/>
	<rect x="348" y="68" class="st0" width="8" height="2"/>
	<rect x="368" y="78" class="st0" width="8" height="2"/>
	<rect x="318" y="70" class="st2" width="2" height="2"/>
	<rect x="308" y="66" class="st2" width="2" height="2"/>
	<rect x="358" y="70" class="st2" width="2" height="2"/>
	<rect x="376" y="74" class="st3" width="2" height="2"/>
	<rect x="300" y="70" class="st2" width="2" height="2"/>
	<rect x="316" y="74" class="st0" width="22" height="2"/>
	<rect x="342" y="74" class="st0" width="32" height="2"/>
	<rect x="294" y="72" class="st0" width="22" height="2"/>
	<rect x="310" y="72" class="st3" width="30" height="2"/>
	<rect x="322" y="72" class="st1" width="6" height="2"/>
	<rect x="304" y="72" class="st2" width="2" height="2"/>
	<rect x="346" y="74" class="st3" width="12" height="2"/>
	<rect x="354" y="78" class="st3" width="12" height="2"/>
	<rect x="338" y="78" class="st3" width="12" height="2"/>
	<rect x="370" y="74" class="st3" width="2" height="2"/>
	<rect x="326" y="78" class="st3" width="2" height="2"/>
	<rect x="330" y="78" class="st3" width="2" height="2"/>
</g>
<g>
	<rect x="388" y="266" transform="matrix(-1 -3.434687e-11 3.434687e-11 -1 810 534)" class="st0" width="34" height="2"/>
	<rect x="376" y="268" transform="matrix(-1 -4.491530e-11 4.491530e-11 -1 778 538)" class="st0" width="26" height="2"/>
	<rect x="410" y="266" transform="matrix(-1 -4.479274e-11 4.479274e-11 -1 828 534)" class="st1" width="8" height="2"/>
	<rect x="390" y="266" transform="matrix(-1 -3.001345e-11 3.001345e-11 -1 786 534)" class="st1" width="6" height="2"/>
	<rect x="390" y="272" transform="matrix(-1 -4.502011e-11 4.502011e-11 -1 784 546)" class="st0" width="4" height="2"/>
	<rect x="404" y="272" transform="matrix(-1 -4.502011e-11 4.502011e-11 -1 812 546)" class="st0" width="4" height="2"/>
	<rect x="396" y="274" transform="matrix(-1 -4.492907e-11 4.492907e-11 -1 802 550)" class="st0" width="10" height="2"/>
	<rect x="410" y="262" transform="matrix(-1 -4.456536e-11 4.456536e-11 -1 824 526)" class="st1" width="4" height="2"/>
	<rect x="426" y="266" transform="matrix(-1 -4.456536e-11 4.456536e-11 -1 856 534)" class="st1" width="4" height="2"/>
	<rect x="422" y="272" transform="matrix(-1 -4.456536e-11 4.456536e-11 -1 848 546)" class="st1" width="4" height="2"/>
	<rect x="362" y="268" transform="matrix(-1 -3.001345e-11 3.001345e-11 -1 736 538)" class="st0" width="12" height="2"/>
	<rect x="362" y="268" transform="matrix(-1 -4.502011e-11 4.502011e-11 -1 728 538)" class="st1" width="4" height="2"/>
	<rect x="360" y="262" transform="matrix(-1 -4.502011e-11 4.502011e-11 -1 724 526)" class="st1" width="4" height="2"/>
	<rect x="372" y="272" transform="matrix(-1 -1.800794e-11 1.800794e-11 -1 754 546)" class="st0" width="10" height="2"/>
	<rect x="412" y="272" transform="matrix(-1 -4.479274e-11 4.479274e-11 -1 832 546)" class="st0" width="8" height="2"/>
	<rect x="370" y="264" transform="matrix(-1 -4.502011e-11 4.502011e-11 -1 748 530)" class="st0" width="8" height="2"/>
	<rect x="350" y="274" transform="matrix(-1 -4.479274e-11 4.479274e-11 -1 708 550)" class="st0" width="8" height="2"/>
	<rect x="406" y="266" transform="matrix(-1 -4.456536e-11 4.456536e-11 -1 814 534)" class="st2" width="2" height="2"/>
	<rect x="416" y="262" transform="matrix(-1 -4.456536e-11 4.456536e-11 -1 834 526)" class="st2" width="2" height="2"/>
	<rect x="358" y="262" transform="matrix(-1 -4.456536e-11 4.456536e-11 -1 718 526)" class="st2" width="2" height="2"/>
	<rect x="368" y="262" transform="matrix(-1 -4.456536e-11 4.456536e-11 -1 738 526)" class="st2" width="2" height="2"/>
	<rect x="346" y="268" transform="matrix(-1 -4.456536e-11 4.456536e-11 -1 694 538)" class="st2" width="2" height="2"/>
	<rect x="350" y="270" transform="matrix(-1 -4.456536e-11 4.456536e-11 -1 702 542)" class="st1" width="2" height="2"/>
	<rect x="366" y="266" transform="matrix(-1 -4.456536e-11 4.456536e-11 -1 734 534)" class="st2" width="2" height="2"/>
	<rect x="348" y="270" transform="matrix(-1 -4.547486e-11 4.547486e-11 -1 698 542)" class="st3" width="2" height="2"/>
	<rect x="424" y="266" transform="matrix(-1 -4.456536e-11 4.456536e-11 -1 850 534)" class="st2" width="2" height="2"/>
	<rect x="388" y="270" transform="matrix(-1 -4.489621e-11 4.489621e-11 -1 798 542)" class="st0" width="22" height="2"/>
	<rect x="352" y="270" transform="matrix(-1 -4.490642e-11 4.490642e-11 -1 736 542)" class="st0" width="32" height="2"/>
	<rect x="410" y="268" transform="matrix(-1 -4.489621e-11 4.489621e-11 -1 842 538)" class="st0" width="22" height="2"/>
	<rect x="386" y="268" transform="matrix(-1 -4.492907e-11 4.492907e-11 -1 802 538)" class="st3" width="30" height="2"/>
	<rect x="398" y="268" transform="matrix(-1 -4.486867e-11 4.486867e-11 -1 802 538)" class="st1" width="6" height="2"/>
	<rect x="420" y="268" transform="matrix(-1 -4.547486e-11 4.547486e-11 -1 842 538)" class="st2" width="2" height="2"/>
	<rect x="368" y="270" transform="matrix(-1 -4.486867e-11 4.486867e-11 -1 748 542)" class="st3" width="12" height="2"/>
	<rect x="374" y="276" transform="matrix(-1 -2.692105e-10 2.692105e-10 -1 750 554)" class="st0" width="2" height="2"/>
	<rect x="364" y="272" transform="matrix(-1 -2.692105e-10 2.692105e-10 -1 730 546)" class="st0" width="2" height="2"/>
	<rect x="360" y="270" transform="matrix(-1 -8.973679e-11 8.973679e-11 -1 726 542)" class="st3" width="6" height="2"/>
	<rect x="374" y="272" transform="matrix(-1 -1.346053e-10 1.346053e-10 -1 752 546)" class="st3" width="4" height="2"/>
	<rect x="360" y="274" transform="matrix(-1 -4.502011e-11 4.502011e-11 -1 732 550)" class="st3" width="12" height="2"/>
	<rect x="376" y="274" transform="matrix(-1 -4.502011e-11 4.502011e-11 -1 764 550)" class="st3" width="12" height="2"/>
	<rect x="354" y="270" transform="matrix(-1 -4.547486e-11 4.547486e-11 -1 710 542)" class="st3" width="2" height="2"/>
	<rect x="358" y="272" transform="matrix(-1 -4.547486e-11 4.547486e-11 -1 718 546)" class="st3" width="2" height="2"/>
	<rect x="384" y="270" transform="matrix(-1 -4.547486e-11 4.547486e-11 -1 770 542)" class="st3" width="2" height="2"/>
	<rect x="370" y="268" transform="matrix(-1 -4.547486e-11 4.547486e-11 -1 742 538)" class="st3" width="2" height="2"/>
	<rect x="396" y="272" transform="matrix(-1 -1.515822e-11 1.515822e-11 -1 798 546)" class="st3" width="6" height="2"/>
	<rect x="378" y="264" transform="matrix(-1 -4.547486e-11 4.547486e-11 -1 758 530)" class="st3" width="2" height="2"/>
	<rect x="370" y="270" transform="matrix(-1 -4.547486e-11 4.547486e-11 -1 742 542)" class="st1" width="2" height="2"/>
	<rect x="392" y="270" transform="matrix(-1 -1.136881e-11 1.136881e-11 -1 792 542)" class="st1" width="8" height="2"/>
	<rect x="408" y="274" transform="matrix(-1 -4.547486e-11 4.547486e-11 -1 818 550)" class="st3" width="2" height="2"/>
	<rect x="426" y="272" transform="matrix(-1 -4.547486e-11 4.547486e-11 -1 854 546)" class="st3" width="2" height="2"/>
	<rect x="414" y="272" transform="matrix(-1 -4.547486e-11 4.547486e-11 -1 830 546)" class="st3" width="2" height="2"/>
	<rect x="394" y="274" transform="matrix(-1 -4.456536e-11 4.456536e-11 -1 790 550)" class="st3" width="2" height="2"/>
	<rect x="372" y="264" transform="matrix(-1 -4.502011e-11 4.502011e-11 -1 748 530)" class="st1" width="4" height="2"/>
	<rect x="394" y="270" transform="matrix(-1 -4.547486e-11 4.547486e-11 -1 790 542)" class="st3" width="2" height="2"/>
	<rect x="398" y="266" transform="matrix(-1 -4.547486e-11 4.547486e-11 -1 798 534)" class="st3" width="2" height="2"/>
</g>
<g>
	<g>
		<rect x="218" y="198" class="st0" width="26" height="2"/>
		<rect x="238" y="200" class="st0" width="26" height="2"/>
		<rect x="222" y="198" class="st1" width="8" height="2"/>
		<rect x="246" y="198" class="st1" width="4" height="2"/>
		<rect x="274" y="200" class="st1" width="4" height="2"/>
		<rect x="266" y="204" class="st0" width="4" height="2"/>
		<rect x="220" y="204" class="st0" width="8" height="2"/>
		<rect x="262" y="196" class="st0" width="8" height="2"/>
		<rect x="232" y="198" class="st2" width="2" height="2"/>
		<rect x="272" y="198" class="st2" width="2" height="2"/>
		<rect x="290" y="202" class="st0" width="2" height="2"/>
		<rect x="214" y="198" class="st2" width="2" height="2"/>
		<rect x="230" y="202" class="st0" width="22" height="2"/>
		<rect x="256" y="202" class="st0" width="32" height="2"/>
		<rect x="208" y="200" class="st0" width="22" height="2"/>
		<rect x="224" y="200" class="st3" width="30" height="2"/>
		<rect x="236" y="200" class="st1" width="6" height="2"/>
		<rect x="218" y="200" class="st2" width="2" height="2"/>
		<rect x="260" y="202" class="st3" width="12" height="2"/>
		<rect x="252" y="206" class="st3" width="12" height="2"/>
		<rect x="264" y="208" class="st3" width="2" height="2"/>
	</g>
	<g>
		<rect x="224" y="204" transform="matrix(-1 -4.491530e-11 4.491530e-11 -1 474 410)" class="st0" width="26" height="2"/>
		<rect x="204" y="206" transform="matrix(-1 -4.488022e-11 4.488022e-11 -1 434 414)" class="st0" width="26" height="2"/>
		<rect x="238" y="204" transform="matrix(-1 -4.490642e-11 4.490642e-11 -1 484 410)" class="st1" width="8" height="2"/>
		<rect x="218" y="204" transform="matrix(-1 -4.502011e-11 4.502011e-11 -1 440 410)" class="st1" width="4" height="2"/>
		<rect x="194" y="202" transform="matrix(-1 -4.502011e-11 4.502011e-11 -1 392 406)" class="st1" width="4" height="2"/>
		<rect x="190" y="206" transform="matrix(-1 -4.479274e-11 4.479274e-11 -1 384 414)" class="st1" width="4" height="2"/>
		<rect x="198" y="210" transform="matrix(-1 -4.479274e-11 4.479274e-11 -1 400 422)" class="st0" width="4" height="2"/>
		<rect x="240" y="210" transform="matrix(-1 -4.490642e-11 4.490642e-11 -1 488 422)" class="st0" width="8" height="2"/>
		<rect x="198" y="202" transform="matrix(-1 -4.490642e-11 4.490642e-11 -1 404 406)" class="st0" width="8" height="2"/>
		<rect x="234" y="204" transform="matrix(-1 -4.502011e-11 4.502011e-11 -1 470 410)" class="st2" width="2" height="2"/>
		<rect x="196" y="204" transform="matrix(-1 -2.251012e-11 2.251012e-11 -1 396 410)" class="st0" width="4" height="2"/>
		<rect x="202" y="206" transform="matrix(-1 -2.251012e-11 2.251012e-11 -1 408 414)" class="st1" width="4" height="2"/>
		<rect x="192" y="200" transform="matrix(-1 -4.502011e-11 4.502011e-11 -1 386 402)" class="st2" width="2" height="2"/>
		<rect x="176" y="208" transform="matrix(-1 -4.456536e-11 4.456536e-11 -1 354 418)" class="st0" width="2" height="2"/>
		<rect x="180" y="208" transform="matrix(-1 -4.456536e-11 4.456536e-11 -1 362 418)" class="st0" width="2" height="2"/>
		<rect x="252" y="204" transform="matrix(-1 -4.502011e-11 4.502011e-11 -1 506 410)" class="st2" width="2" height="2"/>
		<rect x="216" y="208" transform="matrix(-1 -4.489621e-11 4.489621e-11 -1 454 418)" class="st0" width="22" height="2"/>
		<rect x="184" y="208" transform="matrix(-1 -5.132174e-11 5.132174e-11 -1 396 418)" class="st0" width="28" height="2"/>
		<rect x="238" y="206" transform="matrix(-1 -4.489621e-11 4.489621e-11 -1 498 414)" class="st0" width="22" height="2"/>
		<rect x="256" y="206" class="st3" width="2" height="2"/>
		<rect x="214" y="206" transform="matrix(-1 -4.489887e-11 4.489887e-11 -1 458 414)" class="st3" width="30" height="2"/>
		<rect x="226" y="206" transform="matrix(-1 -4.486867e-11 4.486867e-11 -1 458 414)" class="st1" width="6" height="2"/>
		<rect x="248" y="206" transform="matrix(-1 -4.502011e-11 4.502011e-11 -1 498 414)" class="st2" width="2" height="2"/>
		<rect x="196" y="208" transform="matrix(-1 -4.486867e-11 4.486867e-11 -1 404 418)" class="st3" width="12" height="2"/>
		<rect x="204" y="212" transform="matrix(-1 -4.486867e-11 4.486867e-11 -1 420 426)" class="st3" width="12" height="2"/>
	</g>
</g>
<g>
	<rect x="162" y="364" transform="matrix(-1 -4.491530e-11 4.491530e-11 -1 350 730)" class="st0" width="26" height="2"/>
	<rect x="142" y="366" transform="matrix(-1 -4.491530e-11 4.491530e-11 -1 310 734)" class="st0" width="26" height="2"/>
	<rect x="176" y="364" transform="matrix(-1 -4.479274e-11 4.479274e-11 -1 360 730)" class="st1" width="8" height="2"/>
	<rect x="156" y="364" transform="matrix(-1 -4.502011e-11 4.502011e-11 -1 316 730)" class="st1" width="4" height="2"/>
	<rect x="168" y="360" transform="matrix(-1 -4.502011e-11 4.502011e-11 -1 340 722)" class="st1" width="4" height="2"/>
	<rect x="128" y="366" transform="matrix(-1 -4.502011e-11 4.502011e-11 -1 260 734)" class="st1" width="4" height="2"/>
	<rect x="136" y="370" transform="matrix(-1 -4.502011e-11 4.502011e-11 -1 276 742)" class="st0" width="4" height="2"/>
	<rect x="178" y="370" transform="matrix(-1 -4.479274e-11 4.479274e-11 -1 364 742)" class="st0" width="8" height="2"/>
	<rect x="136" y="362" transform="matrix(-1 -4.502011e-11 4.502011e-11 -1 280 726)" class="st0" width="8" height="2"/>
	<rect x="146" y="364" transform="matrix(-1 -4.502011e-11 4.502011e-11 -1 300 730)" class="st0" width="8" height="2"/>
	<rect x="160" y="360" transform="matrix(-1 -4.502011e-11 4.502011e-11 -1 328 722)" class="st0" width="8" height="2"/>
	<rect x="172" y="364" transform="matrix(-1 -4.456536e-11 4.456536e-11 -1 346 730)" class="st2" width="2" height="2"/>
	<rect x="158" y="358" transform="matrix(-1 -4.456536e-11 4.456536e-11 -1 318 718)" class="st2" width="2" height="2"/>
	<rect x="132" y="364" transform="matrix(-1 -4.456536e-11 4.456536e-11 -1 266 730)" class="st2" width="2" height="2"/>
	<rect x="114" y="368" transform="matrix(-1 -4.547486e-11 4.547486e-11 -1 230 738)" class="st0" width="2" height="2"/>
	<rect x="190" y="364" transform="matrix(-1 -4.456536e-11 4.456536e-11 -1 382 730)" class="st2" width="2" height="2"/>
	<rect x="154" y="368" transform="matrix(-1 -4.489621e-11 4.489621e-11 -1 330 738)" class="st0" width="22" height="2"/>
	<rect x="118" y="368" transform="matrix(-1 -4.490642e-11 4.490642e-11 -1 268 738)" class="st0" width="32" height="2"/>
	<rect x="176" y="366" transform="matrix(-1 -3.086610e-11 3.086610e-11 -1 384 734)" class="st0" width="32" height="2"/>
	<rect x="152" y="366" transform="matrix(-1 -4.492907e-11 4.492907e-11 -1 334 734)" class="st3" width="30" height="2"/>
	<rect x="164" y="366" transform="matrix(-1 -4.486867e-11 4.486867e-11 -1 334 734)" class="st1" width="6" height="2"/>
	<rect x="186" y="366" transform="matrix(-1 -4.547486e-11 4.547486e-11 -1 374 734)" class="st2" width="2" height="2"/>
	<rect x="134" y="368" transform="matrix(-1 -4.486867e-11 4.486867e-11 -1 280 738)" class="st3" width="12" height="2"/>
	<rect x="166" y="370" transform="matrix(-1 -4.486867e-11 4.486867e-11 -1 344 742)" class="st3" width="12" height="2"/>
	<rect x="194" y="366" transform="matrix(-1 -1.346053e-10 1.346053e-10 -1 392 734)" class="st3" width="4" height="2"/>
	<rect x="196" y="370" transform="matrix(-1 -6.730273e-11 6.730273e-11 -1 400 742)" class="st3" width="8" height="2"/>
	<rect x="180" y="372" transform="matrix(-1 -4.486867e-11 4.486867e-11 -1 372 746)" class="st0" width="12" height="2"/>
	<rect x="142" y="372" transform="matrix(-1 -4.502011e-11 4.502011e-11 -1 296 746)" class="st3" width="12" height="2"/>
	<rect x="124" y="368" transform="matrix(-1 -4.456536e-11 4.456536e-11 -1 250 738)" class="st1" width="2" height="2"/>
	<rect x="120" y="368" transform="matrix(-1 -4.456536e-11 4.456536e-11 -1 242 738)" class="st1" width="2" height="2"/>
	<rect x="116" y="368" transform="matrix(-1 -4.456536e-11 4.456536e-11 -1 234 738)" class="st2" width="2" height="2"/>
	<rect x="170" y="370" transform="matrix(-1 -4.502011e-11 4.502011e-11 -1 344 742)" class="st0" width="4" height="2"/>
	<rect x="164" y="370" transform="matrix(-1 -9.004010e-11 9.004010e-11 -1 330 742)" class="st1" width="2" height="2"/>
	<rect x="144" y="358" transform="matrix(-1 -9.004010e-11 9.004010e-11 -1 290 718)" class="st1" width="2" height="2"/>
	<rect x="148" y="364" transform="matrix(-1 -9.004010e-11 9.004010e-11 -1 298 730)" class="st1" width="2" height="2"/>
	<rect x="190" y="372" transform="matrix(-1 -1.346053e-10 1.346053e-10 -1 384 746)" class="st3" width="4" height="2"/>
</g>
<g>
	<rect x="52" y="112" transform="matrix(-1 -4.491530e-11 4.491530e-11 -1 130 226)" class="st0" width="26" height="2"/>
	<rect x="32" y="114" transform="matrix(-1 -4.491530e-11 4.491530e-11 -1 90 230)" class="st0" width="26" height="2"/>
	<rect x="66" y="112" transform="matrix(-1 -4.479274e-11 4.479274e-11 -1 140 226)" class="st1" width="8" height="2"/>
	<rect x="46" y="112" transform="matrix(-1 -4.502011e-11 4.502011e-11 -1 96 226)" class="st1" width="4" height="2"/>
	<rect x="58" y="108" transform="matrix(-1 -4.502011e-11 4.502011e-11 -1 120 218)" class="st1" width="4" height="2"/>
	<rect x="18" y="114" transform="matrix(-1 -4.502011e-11 4.502011e-11 -1 40 230)" class="st1" width="4" height="2"/>
	<rect x="26" y="118" transform="matrix(-1 -4.502011e-11 4.502011e-11 -1 56 238)" class="st0" width="4" height="2"/>
	<rect x="68" y="118" transform="matrix(-1 -4.479274e-11 4.479274e-11 -1 144 238)" class="st0" width="8" height="2"/>
	<rect x="26" y="110" transform="matrix(-1 -4.502011e-11 4.502011e-11 -1 60 222)" class="st0" width="8" height="2"/>
	<rect x="36" y="112" transform="matrix(-1 -4.502011e-11 4.502011e-11 -1 80 226)" class="st0" width="8" height="2"/>
	<rect x="50" y="108" transform="matrix(-1 -4.502011e-11 4.502011e-11 -1 108 218)" class="st0" width="8" height="2"/>
	<rect x="62" y="112" transform="matrix(-1 -4.456536e-11 4.456536e-11 -1 126 226)" class="st2" width="2" height="2"/>
	<rect x="48" y="106" transform="matrix(-1 -4.456536e-11 4.456536e-11 -1 98 214)" class="st2" width="2" height="2"/>
	<rect x="22" y="112" transform="matrix(-1 -4.456536e-11 4.456536e-11 -1 46 226)" class="st2" width="2" height="2"/>
	<rect x="4" y="116" transform="matrix(-1 -4.547486e-11 4.547486e-11 -1 10 234)" class="st0" width="2" height="2"/>
	<rect x="80" y="112" transform="matrix(-1 -4.456536e-11 4.456536e-11 -1 162 226)" class="st2" width="2" height="2"/>
	<rect x="44" y="116" transform="matrix(-1 -4.489621e-11 4.489621e-11 -1 110 234)" class="st0" width="22" height="2"/>
	<rect x="8" y="116" transform="matrix(-1 -4.490642e-11 4.490642e-11 -1 48 234)" class="st0" width="32" height="2"/>
	<rect x="66" y="114" transform="matrix(-1 -3.086610e-11 3.086610e-11 -1 164 230)" class="st0" width="32" height="2"/>
	<rect x="42" y="114" transform="matrix(-1 -4.492907e-11 4.492907e-11 -1 114 230)" class="st3" width="30" height="2"/>
	<rect x="54" y="114" transform="matrix(-1 -4.486867e-11 4.486867e-11 -1 114 230)" class="st1" width="6" height="2"/>
	<rect x="76" y="114" transform="matrix(-1 -4.547486e-11 4.547486e-11 -1 154 230)" class="st2" width="2" height="2"/>
	<rect x="24" y="116" transform="matrix(-1 -4.486867e-11 4.486867e-11 -1 60 234)" class="st3" width="12" height="2"/>
	<rect x="56" y="118" transform="matrix(-1 -4.486867e-11 4.486867e-11 -1 124 238)" class="st3" width="12" height="2"/>
	<rect x="84" y="114" transform="matrix(-1 -1.346053e-10 1.346053e-10 -1 172 230)" class="st3" width="4" height="2"/>
	<rect x="86" y="118" transform="matrix(-1 -6.730273e-11 6.730273e-11 -1 180 238)" class="st3" width="8" height="2"/>
	<rect x="70" y="120" transform="matrix(-1 -4.486867e-11 4.486867e-11 -1 152 242)" class="st0" width="12" height="2"/>
	<rect x="32" y="120" transform="matrix(-1 -4.502011e-11 4.502011e-11 -1 76 242)" class="st3" width="12" height="2"/>
	<rect x="14" y="116" transform="matrix(-1 -4.456536e-11 4.456536e-11 -1 30 234)" class="st1" width="2" height="2"/>
	<rect x="10" y="116" transform="matrix(-1 -4.456536e-11 4.456536e-11 -1 22 234)" class="st1" width="2" height="2"/>
	<rect x="6" y="116" transform="matrix(-1 -4.456536e-11 4.456536e-11 -1 14 234)" class="st2" width="2" height="2"/>
	<rect x="60" y="118" transform="matrix(-1 -4.502011e-11 4.502011e-11 -1 124 238)" class="st0" width="4" height="2"/>
	<rect x="54" y="118" transform="matrix(-1 -9.004010e-11 9.004010e-11 -1 110 238)" class="st1" width="2" height="2"/>
	<rect x="34" y="106" transform="matrix(-1 -9.004010e-11 9.004010e-11 -1 70 214)" class="st1" width="2" height="2"/>
	<rect x="38" y="112" transform="matrix(-1 -9.004010e-11 9.004010e-11 -1 78 226)" class="st1" width="2" height="2"/>
	<rect x="80" y="120" transform="matrix(-1 -1.346053e-10 1.346053e-10 -1 164 242)" class="st3" width="4" height="2"/>
</g>
<g>
	<rect x="402" y="434" transform="matrix(-1 -4.491530e-11 4.491530e-11 -1 830 870)" class="st0" width="26" height="2"/>
	<rect x="382" y="436" transform="matrix(-1 -4.491530e-11 4.491530e-11 -1 790 874)" class="st0" width="26" height="2"/>
	<rect x="416" y="434" transform="matrix(-1 -4.479274e-11 4.479274e-11 -1 840 870)" class="st1" width="8" height="2"/>
	<rect x="396" y="434" transform="matrix(-1 -4.502011e-11 4.502011e-11 -1 796 870)" class="st1" width="4" height="2"/>
	<rect x="408" y="430" transform="matrix(-1 -4.502011e-11 4.502011e-11 -1 820 862)" class="st1" width="4" height="2"/>
	<rect x="368" y="436" transform="matrix(-1 -4.502011e-11 4.502011e-11 -1 740 874)" class="st1" width="4" height="2"/>
	<rect x="376" y="440" transform="matrix(-1 -4.502011e-11 4.502011e-11 -1 756 882)" class="st0" width="4" height="2"/>
	<rect x="418" y="440" transform="matrix(-1 -4.479274e-11 4.479274e-11 -1 844 882)" class="st0" width="8" height="2"/>
	<rect x="376" y="432" transform="matrix(-1 -4.502011e-11 4.502011e-11 -1 760 866)" class="st0" width="8" height="2"/>
	<rect x="386" y="434" transform="matrix(-1 -4.502011e-11 4.502011e-11 -1 780 870)" class="st0" width="8" height="2"/>
	<rect x="400" y="430" transform="matrix(-1 -4.502011e-11 4.502011e-11 -1 808 862)" class="st0" width="8" height="2"/>
	<rect x="412" y="434" transform="matrix(-1 -4.456536e-11 4.456536e-11 -1 826 870)" class="st2" width="2" height="2"/>
	<rect x="398" y="428" transform="matrix(-1 -4.456536e-11 4.456536e-11 -1 798 858)" class="st2" width="2" height="2"/>
	<rect x="372" y="434" transform="matrix(-1 -4.456536e-11 4.456536e-11 -1 746 870)" class="st2" width="2" height="2"/>
	<rect x="354" y="438" transform="matrix(-1 -4.547486e-11 4.547486e-11 -1 710 878)" class="st0" width="2" height="2"/>
	<rect x="430" y="434" transform="matrix(-1 -4.456536e-11 4.456536e-11 -1 862 870)" class="st2" width="2" height="2"/>
	<rect x="394" y="438" transform="matrix(-1 -4.489621e-11 4.489621e-11 -1 810 878)" class="st0" width="22" height="2"/>
	<rect x="358" y="438" transform="matrix(-1 -4.490642e-11 4.490642e-11 -1 748 878)" class="st0" width="32" height="2"/>
	<rect x="416" y="436" transform="matrix(-1 -3.086610e-11 3.086610e-11 -1 864 874)" class="st0" width="32" height="2"/>
	<rect x="392" y="436" transform="matrix(-1 -4.492907e-11 4.492907e-11 -1 814 874)" class="st3" width="30" height="2"/>
	<rect x="404" y="436" transform="matrix(-1 -4.486867e-11 4.486867e-11 -1 814 874)" class="st1" width="6" height="2"/>
	<rect x="426" y="436" transform="matrix(-1 -4.547486e-11 4.547486e-11 -1 854 874)" class="st2" width="2" height="2"/>
	<rect x="374" y="438" transform="matrix(-1 -4.486867e-11 4.486867e-11 -1 760 878)" class="st3" width="12" height="2"/>
	<rect x="406" y="440" transform="matrix(-1 -4.486867e-11 4.486867e-11 -1 824 882)" class="st3" width="12" height="2"/>
	<rect x="434" y="436" transform="matrix(-1 -1.346053e-10 1.346053e-10 -1 872 874)" class="st3" width="4" height="2"/>
	<rect x="436" y="440" transform="matrix(-1 -6.730273e-11 6.730273e-11 -1 880 882)" class="st3" width="8" height="2"/>
	<rect x="420" y="442" transform="matrix(-1 -4.486867e-11 4.486867e-11 -1 852 886)" class="st0" width="12" height="2"/>
	<rect x="382" y="442" transform="matrix(-1 -4.502011e-11 4.502011e-11 -1 776 886)" class="st3" width="12" height="2"/>
	<rect x="364" y="438" transform="matrix(-1 -4.456536e-11 4.456536e-11 -1 730 878)" class="st1" width="2" height="2"/>
	<rect x="360" y="438" transform="matrix(-1 -4.456536e-11 4.456536e-11 -1 722 878)" class="st1" width="2" height="2"/>
	<rect x="356" y="438" transform="matrix(-1 -4.456536e-11 4.456536e-11 -1 714 878)" class="st2" width="2" height="2"/>
	<rect x="410" y="440" transform="matrix(-1 -4.502011e-11 4.502011e-11 -1 824 882)" class="st0" width="4" height="2"/>
	<rect x="404" y="440" transform="matrix(-1 -9.004010e-11 9.004010e-11 -1 810 882)" class="st1" width="2" height="2"/>
	<rect x="384" y="428" transform="matrix(-1 -9.004010e-11 9.004010e-11 -1 770 858)" class="st1" width="2" height="2"/>
	<rect x="388" y="434" transform="matrix(-1 -9.004010e-11 9.004010e-11 -1 778 870)" class="st1" width="2" height="2"/>
	<rect x="430" y="442" transform="matrix(-1 -1.346053e-10 1.346053e-10 -1 864 886)" class="st3" width="4" height="2"/>
</g>
</svg>
